%
T1C0.0098F200S100
X-022943Y017234
X-022638Y021043
X-022480Y-014665
X-022480Y-013425
X-022283Y-016319
X-022205Y-006722
X-022067Y-010551
X-022067Y-010059
X-022057Y-006929
X-021919Y-006732
X-021870Y-022283
X-021870Y-021693
X-021772Y-006939
X-021634Y-006732
X-021594Y-016122
X-021486Y-006939
X-021417Y-013229
X-021339Y-006722
X-021201Y-006939
X-021063Y-006722
X-021043Y-014271
X-021043Y-008405
X-021043Y-003878
X-021043Y-002500
X-021043Y002697
X-021043Y004074
X-021043Y007225
X-021043Y008602
X-021043Y013799
X-021043Y015177
X-021043Y018327
X-021043Y019704
X-021043Y024902
X-021043Y026279
X-020925Y-006929
X-020886Y-020886
X-020787Y-006722
X-020670Y-007363
X-020630Y-005453
X-020630Y005610
X-020630Y016752
X-020630Y026693
X-020433Y-014783
X-020433Y-014469
X-020118Y-014783
X-020118Y-014469
X-020118Y-014154
X-020118Y-013839
X-020433Y-013839
X-020433Y-013524
X-020433Y-013209
X-020433Y-012894
X-020433Y-012579
X-020433Y-012264
X-020433Y-011949
X-020118Y-013524
X-020118Y-013209
X-020118Y-012894
X-020118Y-012579
X-020118Y-011949
X-020118Y-010059
X-020433Y-010059
X-020433Y-009744
X-020433Y-009429
X-020433Y-009114
X-020433Y-008799
X-020433Y-008484
X-020433Y-008169
X-020433Y-007539
X-020433Y-007224
X-020118Y-009429
X-020118Y-009114
X-020118Y-008799
X-020118Y-008484
X-020118Y-008169
X-020118Y-007854
X-020118Y-007539
X-020118Y-007224
X-020118Y-003681
X-020433Y-003681
X-020433Y-003366
X-020118Y-003366
X-020118Y-003051
X-020118Y-002736
X-020433Y-002736
X-020433Y-002421
X-020433Y-002106
X-020433Y-001791
X-020433Y-001476
X-020433Y-001161
X-020433Y-000846
X-020118Y-002421
X-020118Y-002106
X-020118Y-001791
X-020118Y-001476
X-020118Y-000846
X-020118Y001043
X-020433Y001043
X-020433Y001358
X-020433Y001673
X-020433Y001988
X-020433Y002303
X-020433Y002618
X-020433Y002933
X-020433Y003563
X-020433Y003878
X-020118Y001673
X-020118Y001988
X-020118Y002303
X-020118Y002618
X-020118Y002933
X-020118Y003248
X-020118Y003563
X-020118Y003878
X-020118Y007421
X-020433Y007421
X-020433Y007736
X-020118Y007736
X-020118Y008051
X-020118Y008366
X-020433Y008366
X-020433Y008681
X-020433Y008996
X-020433Y009311
X-020433Y009626
X-020433Y009941
X-020433Y010256
X-020118Y008681
X-020118Y008996
X-020118Y009311
X-020118Y009626
X-020118Y010256
X-020118Y012146
X-020433Y012146
X-020433Y012461
X-020433Y012776
X-020433Y013091
X-020433Y013406
X-020433Y013720
X-020433Y014035
X-020433Y014665
X-020433Y014980
X-020118Y012776
X-020118Y013091
X-020118Y013406
X-020118Y013720
X-020118Y014035
X-020118Y014350
X-020118Y014665
X-020118Y014980
X-020118Y018524
X-020433Y018524
X-020433Y018839
X-020118Y018839
X-020118Y019154
X-020118Y019469
X-020433Y019469
X-020433Y019783
X-020433Y020098
X-020433Y020413
X-020433Y020728
X-020433Y021043
X-020433Y021358
X-020118Y019783
X-020118Y020098
X-020118Y020413
X-020118Y020728
X-020118Y021358
X-020118Y023248
X-020433Y023248
X-020433Y023563
X-020433Y023878
X-020433Y024193
X-020433Y024508
X-020433Y024823
X-020433Y025138
X-020433Y025768
X-020433Y026083
X-020118Y023878
X-020118Y024193
X-020118Y024508
X-020118Y024823
X-020118Y025138
X-020118Y025453
X-020118Y025768
X-020118Y026083
X-020079Y-022087
X-019823Y-020886
X-019803Y-014783
X-019488Y-014783
X-019488Y-014469
X-019488Y-014154
X-019803Y-014154
X-019803Y-013839
X-019803Y-013524
X-019803Y-013209
X-019803Y-012894
X-019803Y-012579
X-019803Y-012264
X-019803Y-011949
X-019803Y-011634
X-019803Y-010374
X-019803Y-010059
X-019803Y-009744
X-019803Y-009429
X-019803Y-009114
X-019803Y-008799
X-019803Y-008484
X-019803Y-008169
X-019803Y-007854
X-019803Y-007224
X-019803Y-003681
X-019803Y-003051
X-019803Y-001791
X-019803Y-000531
X-019803Y000728
X-019803Y001988
X-019803Y003248
X-019803Y003878
X-019803Y007421
X-019803Y008051
X-019803Y009311
X-019803Y010571
X-019803Y011831
X-019803Y013091
X-019803Y014350
X-019803Y014980
X-019803Y018524
X-019803Y019154
X-019803Y020413
X-019803Y021673
X-019803Y022933
X-019803Y024193
X-019803Y025453
X-019803Y026083
X-019488Y-013839
X-019488Y-013524
X-019488Y-013209
X-019488Y-012894
X-019488Y-012579
X-019488Y-012264
X-019488Y-011949
X-019488Y-011319
X-019488Y-010374
X-019488Y-010059
X-019488Y-009744
X-019488Y-009429
X-019488Y-009114
X-019488Y-008799
X-019488Y-008484
X-019488Y-008169
X-019488Y-007854
X-019488Y-007539
X-019488Y-007224
X-019488Y-003681
X-019488Y-003366
X-019488Y-002736
X-019488Y-001476
X-019488Y001673
X-019488Y002933
X-019488Y003563
X-019488Y003878
X-019488Y007421
X-019488Y007736
X-019488Y008366
X-019488Y009626
X-019488Y012776
X-019488Y014035
X-019488Y014665
X-019488Y014980
X-019488Y018524
X-019488Y018839
X-019488Y019469
X-019488Y020728
X-019488Y023878
X-019488Y025138
X-019488Y025768
X-019488Y026083
X-019252Y-005453
X-019252Y005610
X-019252Y016752
X-019252Y026693
X-019232Y-023366
X-019232Y-022283
X-019213Y-016122
X-019173Y-014783
X-019173Y-014469
X-019173Y-014154
X-019173Y-013839
X-019173Y-013524
X-019173Y-012894
X-019173Y-012579
X-019173Y-012264
X-019173Y-011949
X-019173Y-011634
X-019173Y-011319
X-019173Y-011004
X-019173Y-010689
X-019173Y-010374
X-019173Y-010059
X-019173Y-009744
X-019173Y-009429
X-019173Y-009114
X-019173Y-008484
X-019173Y-008169
X-019173Y-007854
X-019173Y-007539
X-019173Y-007224
X-019173Y-003681
X-019173Y-003366
X-019173Y-002421
X-019173Y-001791
X-019173Y-001476
X-019173Y-001161
X-019173Y-000846
X-019173Y-000531
X-019173Y-000217
X-019173Y000098
X-019173Y000413
X-019173Y000728
X-019173Y001043
X-019173Y001358
X-019173Y001673
X-019173Y001988
X-019173Y002618
X-019173Y003563
X-019173Y003878
X-019173Y007421
X-019173Y007736
X-019173Y008681
X-019173Y009311
X-019173Y009626
X-019173Y009941
X-019173Y010256
X-019173Y010571
X-019173Y010886
X-019173Y011201
X-019173Y011516
X-019173Y011831
X-019173Y012146
X-019173Y012461
X-019173Y012776
X-019173Y013091
X-019173Y013720
X-019173Y014665
X-019173Y014980
X-019173Y018524
X-019173Y018839
X-019173Y019783
X-019173Y020413
X-019173Y020728
X-019173Y021043
X-019173Y021358
X-019173Y021673
X-019173Y021988
X-019173Y022303
X-019173Y022618
X-019173Y022933
X-019173Y023248
X-019173Y023563
X-019173Y023878
X-019173Y024193
X-019173Y024823
X-019173Y025768
X-019173Y026083
X-018858Y-014783
X-018858Y-014469
X-018858Y-014154
X-018858Y-013839
X-018858Y-013524
X-018858Y-013209
X-018858Y-012894
X-018858Y-012579
X-018858Y-012264
X-018858Y-011949
X-018858Y-011634
X-018858Y-010374
X-018858Y-010059
X-018858Y-009744
X-018858Y-009429
X-018858Y-009114
X-018858Y-008799
X-018858Y-008484
X-018858Y-008169
X-018858Y-007854
X-018858Y-007539
X-018858Y-007224
X-018858Y-003681
X-018858Y-003366
X-018858Y-002421
X-018858Y-002106
X-018858Y-001791
X-018858Y-001476
X-018858Y-001161
X-018858Y-000846
X-018858Y-000531
X-018858Y000728
X-018858Y001043
X-018858Y001358
X-018858Y001673
X-018858Y001988
X-018858Y002303
X-018858Y002618
X-018858Y003563
X-018858Y003878
X-018858Y007421
X-018858Y007736
X-018858Y008681
X-018858Y008996
X-018858Y009311
X-018858Y009626
X-018858Y009941
X-018858Y010256
X-018858Y010571
X-018858Y011831
X-018858Y012146
X-018858Y012461
X-018858Y012776
X-018858Y013091
X-018858Y013406
X-018858Y013720
X-018858Y014665
X-018858Y014980
X-018858Y018524
X-018858Y018839
X-018858Y019783
X-018858Y020098
X-018858Y020413
X-018858Y020728
X-018858Y021043
X-018858Y021358
X-018858Y021673
X-018858Y022933
X-018858Y023248
X-018858Y023563
X-018858Y023878
X-018858Y024193
X-018858Y024508
X-018858Y024823
X-018858Y025768
X-018858Y026083
X-018740Y-024547
X-018543Y-014783
X-018543Y-014469
X-018543Y-014154
X-018543Y-013839
X-018543Y-013524
X-018543Y-012894
X-018543Y-012579
X-018543Y-011949
X-018543Y-011634
X-018543Y-011319
X-018543Y-010689
X-018543Y-010374
X-018543Y-010059
X-018543Y-009744
X-018543Y-009429
X-018543Y-009114
X-018543Y-008799
X-018543Y-008484
X-018543Y-008169
X-018543Y-007854
X-018543Y-007539
X-018543Y-007224
X-018543Y-003681
X-018543Y-003366
X-018543Y-003051
X-018543Y-002421
X-018543Y-001791
X-018543Y-001476
X-018543Y-000846
X-018543Y-000531
X-018543Y-000217
X-018543Y000413
X-018543Y000728
X-018543Y001043
X-018543Y001358
X-018543Y001673
X-018543Y001988
X-018543Y002303
X-018543Y002618
X-018543Y003248
X-018543Y003563
X-018543Y003878
X-018543Y007421
X-018543Y007736
X-018543Y008051
X-018543Y008681
X-018543Y009311
X-018543Y009626
X-018543Y010256
X-018543Y010571
X-018543Y010886
X-018543Y011516
X-018543Y011831
X-018543Y012146
X-018543Y012461
X-018543Y012776
X-018543Y013091
X-018543Y013406
X-018543Y013720
X-018543Y014350
X-018543Y014665
X-018543Y014980
X-018543Y018524
X-018543Y018839
X-018543Y019154
X-018543Y019783
X-018543Y020413
X-018543Y020728
X-018543Y021358
X-018543Y021673
X-018543Y021988
X-018543Y022618
X-018543Y022933
X-018543Y023248
X-018543Y023563
X-018543Y023878
X-018543Y024193
X-018543Y024508
X-018543Y024823
X-018543Y025453
X-018543Y025768
X-018543Y026083
X-018228Y-014783
X-018228Y-014469
X-018228Y-014154
X-018228Y-013839
X-018228Y-013524
X-018228Y-013209
X-018228Y-012894
X-018228Y-011004
X-018228Y-009114
X-018228Y-008799
X-018228Y-008484
X-018228Y-008169
X-018228Y-007854
X-018228Y-007539
X-018228Y-007224
X-018228Y-003681
X-018228Y-003366
X-018228Y-002736
X-018228Y-002421
X-018228Y-002106
X-018228Y-001791
X-018228Y000098
X-018228Y001988
X-018228Y002303
X-018228Y002618
X-018228Y002933
X-018228Y003563
X-018228Y003878
X-018228Y007421
X-018228Y007736
X-018228Y008366
X-018228Y008681
X-018228Y008996
X-018228Y009311
X-018228Y011201
X-018228Y013091
X-018228Y013406
X-018228Y013720
X-018228Y014035
X-018228Y014665
X-018228Y014980
X-018228Y018524
X-018228Y018839
X-018228Y019469
X-018228Y019783
X-018228Y020098
X-018228Y020413
X-018228Y022303
X-018228Y024193
X-018228Y024508
X-018228Y024823
X-018228Y025138
X-018228Y025768
X-018228Y026083
X-018081Y-024370
X-018061Y-024902
X-018081Y-023307
X-017992Y-006260
X-017913Y-014469
X-017913Y-013839
X-017913Y-013524
X-017913Y-013209
X-017913Y-009114
X-017913Y-008799
X-017913Y-008484
X-017913Y-008169
X-017913Y-007539
X-017913Y-003366
X-017913Y-002421
X-017913Y-002106
X-017913Y001988
X-017913Y002303
X-017913Y002618
X-017913Y003563
X-017992Y004843
X-017913Y007736
X-017913Y008681
X-017913Y008996
X-017913Y013091
X-017913Y013406
X-017913Y013720
X-017913Y014665
X-017992Y015945
X-017913Y018839
X-017913Y019783
X-017913Y020098
X-017913Y024193
X-017913Y024508
X-017913Y024823
X-017913Y025768
X-017992Y027047
X-017598Y-014783
X-017598Y-014469
X-017598Y-013524
X-017598Y-013209
X-017598Y-012894
X-017598Y-011949
X-017598Y-011634
X-017598Y-011319
X-017598Y-010689
X-017598Y-010374
X-017598Y-010059
X-017598Y-009114
X-017598Y-008799
X-017598Y-008484
X-017598Y-007539
X-017598Y-007224
X-017598Y-003681
X-017598Y-003366
X-017598Y-002421
X-017598Y-002106
X-017598Y-001791
X-017598Y-000846
X-017598Y-000531
X-017598Y-000217
X-017598Y000413
X-017598Y000728
X-017598Y001043
X-017598Y001988
X-017598Y002303
X-017598Y002618
X-017598Y003563
X-017598Y003878
X-017598Y007421
X-017598Y007736
X-017598Y008681
X-017598Y008996
X-017598Y009311
X-017598Y010256
X-017598Y010571
X-017598Y010886
X-017598Y011516
X-017598Y011831
X-017598Y012146
X-017598Y013091
X-017598Y013406
X-017598Y013720
X-017598Y014665
X-017598Y014980
X-017598Y018524
X-017598Y018839
X-017598Y019783
X-017598Y020098
X-017598Y020413
X-017598Y021358
X-017598Y021673
X-017598Y021988
X-017598Y022618
X-017598Y022933
X-017598Y023248
X-017598Y024193
X-017598Y024508
X-017598Y024823
X-017598Y025768
X-017598Y026083
X-017343Y-015531
X-017323Y-006260
X-017283Y-014154
X-017283Y-013524
X-017283Y-013209
X-017283Y-012894
X-017283Y-011949
X-017283Y-011634
X-017283Y-011319
X-017283Y-010689
X-017283Y-010374
X-017283Y-010059
X-017283Y-009114
X-017283Y-008799
X-017283Y-008484
X-017283Y-007854
X-017283Y-003051
X-017283Y-002421
X-017283Y-002106
X-017283Y-001791
X-017283Y-000846
X-017283Y-000531
X-017283Y-000217
X-017283Y000413
X-017283Y000728
X-017283Y001043
X-017283Y001988
X-017283Y002303
X-017283Y002618
X-017283Y003248
X-017323Y004843
X-017283Y008051
X-017283Y008681
X-017283Y008996
X-017283Y009311
X-017283Y010256
X-017283Y010571
X-017283Y010886
X-017283Y011516
X-017283Y011831
X-017283Y012146
X-017283Y013091
X-017283Y013406
X-017283Y013720
X-017283Y014350
X-017323Y015945
X-017283Y019154
X-017283Y019783
X-017283Y020098
X-017283Y020413
X-017283Y021358
X-017283Y021673
X-017283Y021988
X-017283Y022618
X-017283Y022933
X-017283Y023248
X-017283Y024193
X-017283Y024508
X-017283Y024823
X-017283Y025453
X-017323Y027047
X-016969Y-013209
X-016969Y-012894
X-016969Y-011949
X-016969Y-011634
X-016969Y-011319
X-016969Y-010689
X-016969Y-010374
X-016969Y-010059
X-016969Y-009114
X-016969Y-008799
X-016969Y-002106
X-016969Y-001791
X-016969Y-000846
X-016969Y-000531
X-016969Y-000217
X-016969Y000413
X-016969Y000728
X-016969Y001043
X-016969Y001988
X-016969Y002303
X-016969Y008996
X-016969Y009311
X-016969Y010256
X-016969Y010571
X-016969Y010886
X-016969Y011516
X-016969Y011831
X-016969Y012146
X-016969Y013091
X-016969Y013406
X-016969Y020098
X-016969Y020413
X-016969Y021358
X-016969Y021673
X-016969Y021988
X-016969Y022618
X-016969Y022933
X-016969Y023248
X-016959Y024193
X-016969Y024508
X-016909Y-030935
X-016890Y-022539
X-016890Y-022008
X-016890Y-021476
X-016890Y-020945
X-016693Y-018228
X-016654Y-013839
X-016654Y-012894
X-016654Y-009429
X-016654Y-008484
X-016654Y-002736
X-016654Y-001791
X-016654Y001673
X-016654Y002618
X-016654Y008366
X-016654Y009311
X-016654Y012776
X-016654Y013720
X-016654Y019469
X-016654Y020413
X-016654Y023878
X-016654Y024823
X-016417Y-025512
X-016339Y-013209
X-016339Y-012894
X-016339Y-011949
X-016339Y-011634
X-016339Y-011319
X-016339Y-010689
X-016339Y-010374
X-016339Y-010059
X-016339Y-008799
X-016339Y-002106
X-016339Y-001791
X-016339Y-000846
X-016339Y-000531
X-016339Y-000217
X-016339Y000413
X-016339Y000728
X-016339Y001043
X-016339Y002303
X-016339Y008996
X-016339Y009311
X-016339Y010256
X-016339Y010571
X-016339Y010886
X-016339Y011516
X-016339Y011831
X-016339Y012146
X-016339Y013406
X-016339Y020098
X-016339Y020413
X-016339Y021358
X-016339Y021673
X-016339Y021988
X-016339Y022618
X-016339Y022933
X-016339Y023248
X-016339Y024508
X-016250Y-021988
X-016250Y-020226
X-016024Y-014154
X-016024Y-013524
X-016024Y-013209
X-016024Y-012894
X-016024Y-011949
X-016024Y-011634
X-016024Y-011319
X-016024Y-010689
X-016024Y-010374
X-016024Y-010059
X-016024Y-009114
X-016024Y-008799
X-016024Y-008484
X-016024Y-007854
X-016024Y-003051
X-016024Y-002421
X-016024Y-002106
X-016024Y-001791
X-016024Y-000846
X-016024Y-000531
X-016024Y-000217
X-016024Y000413
X-016024Y000728
X-016024Y001043
X-016024Y001988
X-016024Y002303
X-016024Y002618
X-016024Y003248
X-016024Y008051
X-016024Y008681
X-016024Y008996
X-016024Y009311
X-016024Y010256
X-016024Y010571
X-016024Y010886
X-016024Y011516
X-016024Y011831
X-016024Y012146
X-016024Y013091
X-016024Y013406
X-016024Y013720
X-016024Y014350
X-016024Y019154
X-016024Y019783
X-016024Y020098
X-016024Y020413
X-016024Y021358
X-016024Y021673
X-016024Y021988
X-016024Y022618
X-016024Y022933
X-016024Y023248
X-016024Y024193
X-016024Y024508
X-016024Y024823
X-016024Y025453
X-015984Y-006260
X-015965Y-015531
X-015984Y004843
X-015984Y015945
X-015984Y027047
X-015709Y-014783
X-015709Y-014469
X-015709Y-013524
X-015709Y-013209
X-015709Y-012894
X-015709Y-011949
X-015709Y-011634
X-015709Y-011319
X-015709Y-011004
X-015709Y-010689
X-015709Y-010374
X-015709Y-010059
X-015709Y-009114
X-015709Y-008799
X-015709Y-008484
X-015709Y-007539
X-015709Y-007224
X-015709Y-003681
X-015709Y-003366
X-015709Y-002421
X-015709Y-002106
X-015709Y-001791
X-015709Y-000846
X-015709Y-000531
X-015709Y-000217
X-015709Y000098
X-015709Y000413
X-015709Y000728
X-015709Y001043
X-015709Y001988
X-015709Y002303
X-015709Y002618
X-015709Y003563
X-015709Y003878
X-015709Y007421
X-015709Y007736
X-015709Y008681
X-015709Y008996
X-015709Y009311
X-015709Y010256
X-015709Y010571
X-015709Y010886
X-015709Y011201
X-015709Y011516
X-015709Y011831
X-015709Y012146
X-015709Y013091
X-015709Y013406
X-015709Y013720
X-015709Y014665
X-015709Y014980
X-015709Y018524
X-015709Y018839
X-015709Y019783
X-015709Y020098
X-015709Y020413
X-015709Y021358
X-015709Y021673
X-015709Y021988
X-015709Y022303
X-015709Y022618
X-015709Y022933
X-015709Y023248
X-015709Y024193
X-015709Y024508
X-015709Y024823
X-015709Y025768
X-015709Y026083
X-015463Y-023740
X-015394Y-014469
X-015394Y-013524
X-015394Y-013209
X-015394Y-012894
X-015394Y-009114
X-015394Y-008799
X-015394Y-008484
X-015394Y-007539
X-015315Y-006260
X-015394Y-003366
X-015394Y-002421
X-015394Y-002106
X-015394Y-001791
X-015394Y001988
X-015394Y002303
X-015394Y002618
X-015394Y003563
X-015315Y004843
X-015394Y007736
X-015394Y008681
X-015394Y008996
X-015394Y009311
X-015394Y013091
X-015394Y013406
X-015394Y013720
X-015394Y014665
X-015315Y015945
X-015394Y018839
X-015394Y019783
X-015394Y020098
X-015394Y020413
X-015394Y024193
X-015394Y024508
X-015394Y024823
X-015394Y025768
X-015315Y027047
X-015079Y-014783
X-015079Y-014469
X-014764Y-014783
X-014764Y-014469
X-014764Y-014154
X-015079Y-013839
X-015079Y-013524
X-015079Y-013209
X-015079Y-012894
X-014764Y-013524
X-014764Y-012894
X-014764Y-012579
X-014764Y-012264
X-014764Y-011949
X-014764Y-011634
X-015079Y-011004
X-014764Y-010689
X-014764Y-010374
X-014764Y-010059
X-014764Y-009744
X-014764Y-009114
X-015079Y-008799
X-015079Y-008484
X-015079Y-008169
X-014764Y-008484
X-014764Y-007854
X-014764Y-007539
X-015079Y-007539
X-015079Y-007224
X-014764Y-007224
X-014764Y-003681
X-015079Y-003681
X-015079Y-003366
X-014764Y-003366
X-014764Y-003051
X-015079Y-002736
X-015079Y-002421
X-015079Y-002106
X-015079Y-001791
X-014764Y-002421
X-014764Y-001791
X-014764Y-001476
X-014764Y-001161
X-014764Y-000846
X-014764Y-000531
X-015079Y000098
X-014764Y000413
X-014764Y000728
X-014764Y001043
X-014764Y001358
X-014764Y001988
X-015079Y002303
X-015079Y002618
X-015079Y002933
X-014764Y002618
X-014764Y003248
X-014764Y003563
X-015079Y003563
X-015079Y003878
X-014764Y003878
X-014764Y007421
X-015079Y007421
X-015079Y007736
X-014764Y007736
X-014764Y008051
X-015079Y008366
X-015079Y008681
X-015079Y008996
X-015079Y009311
X-014764Y008681
X-014764Y009311
X-014764Y009626
X-014764Y009941
X-014764Y010256
X-014764Y010571
X-015079Y011201
X-014764Y011516
X-014764Y011831
X-014764Y012146
X-014764Y012461
X-014764Y013091
X-015079Y013406
X-015079Y013720
X-015079Y014035
X-014764Y013720
X-014764Y014350
X-014764Y014665
X-015079Y014665
X-015079Y014980
X-014764Y014980
X-014764Y018524
X-015079Y018524
X-015079Y018839
X-014764Y018839
X-014764Y019154
X-015079Y019469
X-015079Y019783
X-015079Y020098
X-015079Y020413
X-014764Y019783
X-014764Y020413
X-014764Y020728
X-014764Y021043
X-014764Y021358
X-014764Y021673
X-015079Y022303
X-014764Y022618
X-014764Y022933
X-014764Y023248
X-014764Y023563
X-014764Y024193
X-015079Y024508
X-015079Y024823
X-015079Y025138
X-014764Y024823
X-014764Y025453
X-014764Y025768
X-015079Y025768
X-015079Y026083
X-014764Y026083
X-014449Y-014783
X-014449Y-014469
X-014449Y-013524
X-014449Y-013209
X-014449Y-012894
X-014449Y-012579
X-014449Y-012264
X-014449Y-011949
X-014449Y-011634
X-014449Y-010374
X-014449Y-010059
X-014449Y-009744
X-014449Y-009429
X-014449Y-009114
X-014449Y-008799
X-014449Y-008484
X-014449Y-007539
X-014449Y-007224
X-014449Y-003681
X-014449Y-003366
X-014449Y-002421
X-014449Y-002106
X-014449Y-001791
X-014449Y-001476
X-014449Y-001161
X-014449Y-000846
X-014449Y-000531
X-014449Y000728
X-014449Y001043
X-014449Y001358
X-014449Y001673
X-014449Y001988
X-014449Y002303
X-014449Y002618
X-014449Y003563
X-014449Y003878
X-014449Y007421
X-014449Y007736
X-014449Y008681
X-014449Y008996
X-014449Y009311
X-014449Y009626
X-014449Y009941
X-014449Y010256
X-014449Y010571
X-014449Y011831
X-014449Y012146
X-014449Y012461
X-014449Y012776
X-014449Y013091
X-014449Y013406
X-014449Y013720
X-014449Y014665
X-014449Y014980
X-014449Y018524
X-014449Y018839
X-014449Y019783
X-014449Y020098
X-014449Y020413
X-014449Y020728
X-014449Y021043
X-014449Y021358
X-014449Y021673
X-014449Y022933
X-014449Y023248
X-014449Y023563
X-014449Y023878
X-014449Y024193
X-014449Y024508
X-014449Y024823
X-014449Y025768
X-014449Y026083
X-014409Y029272
X-014409Y029803
X-014134Y-014783
X-014134Y-014469
X-014134Y-013524
X-014134Y-012894
X-014134Y-012579
X-014134Y-012264
X-014134Y-011949
X-014134Y-011634
X-014134Y-011319
X-014134Y-011004
X-014134Y-010689
X-014134Y-010374
X-014134Y-010059
X-014134Y-009744
X-014134Y-009429
X-014134Y-009114
X-014134Y-008484
X-014134Y-007539
X-014134Y-007224
X-014055Y-005453
X-014134Y-003681
X-014134Y-003366
X-014134Y-002421
X-014134Y-001791
X-014134Y-001476
X-014134Y-001161
X-014134Y-000846
X-014134Y-000531
X-014134Y-000217
X-014134Y000098
X-014134Y000413
X-014134Y000728
X-014134Y001043
X-014134Y001358
X-014134Y001673
X-014134Y001988
X-014134Y002618
X-014134Y003563
X-014134Y003878
X-014055Y005610
X-014134Y007421
X-014134Y007736
X-014134Y008681
X-014134Y009311
X-014134Y009626
X-014134Y009941
X-014134Y010256
X-014134Y010571
X-014134Y010886
X-014134Y011201
X-014134Y011516
X-014134Y011831
X-014134Y012146
X-014134Y012461
X-014134Y012776
X-014134Y013091
X-014134Y013720
X-014134Y014665
X-014134Y014980
X-014055Y016752
X-014134Y018524
X-014134Y018839
X-014134Y019783
X-014134Y020413
X-014134Y020728
X-014134Y021043
X-014134Y021358
X-014134Y021673
X-014134Y021988
X-014134Y022303
X-014134Y022618
X-014134Y022933
X-014134Y023248
X-014134Y023563
X-014134Y023878
X-014134Y024193
X-014134Y024823
X-014134Y025768
X-014134Y026083
X-014055Y026693
X-014055Y-015394
X-013819Y-014783
X-013819Y-014469
X-013819Y-013839
X-013819Y-012579
X-013819Y-009429
X-013819Y-008169
X-013819Y-007539
X-013819Y-007224
X-013819Y-003681
X-013819Y-003366
X-013819Y-002736
X-013819Y-001476
X-013819Y001673
X-013819Y002933
X-013819Y003563
X-013819Y003878
X-013819Y007421
X-013819Y007736
X-013819Y008366
X-013819Y009626
X-013819Y012776
X-013819Y014035
X-013819Y014665
X-013819Y014980
X-013819Y018524
X-013819Y018839
X-013819Y019469
X-013819Y020728
X-013819Y023878
X-013819Y025138
X-013819Y025768
X-013819Y026083
X-013819Y029272
X-013789Y028287
X-013789Y028484
X-013789Y028681
X-013740Y028002
X-013504Y-014783
X-013504Y-014154
X-013504Y-012894
X-013504Y-009114
X-013504Y-007854
X-013504Y-007224
X-013504Y-003681
X-013504Y-003051
X-013504Y-001791
X-013504Y001988
X-013504Y003248
X-013504Y003878
X-013504Y007421
X-013504Y008051
X-013504Y009311
X-013504Y013091
X-013504Y014350
X-013504Y014980
X-013504Y018524
X-013504Y019154
X-013504Y020413
X-013504Y024193
X-013504Y025453
X-013504Y026083
X-013435Y-021988
X-013435Y-020226
X-013209Y-024229
X-013209Y-023914
X-013189Y-014783
X-013189Y-014469
X-013189Y-014154
X-013189Y-013839
X-013189Y-013524
X-013189Y-013209
X-013189Y-012894
X-013189Y-012579
X-013189Y-011949
X-013189Y-010689
X-013189Y-010374
X-013189Y-010059
X-013189Y-009429
X-013189Y-009114
X-013189Y-008799
X-013189Y-008484
X-013189Y-008169
X-013189Y-007854
X-013189Y-007539
X-013189Y-007224
X-013189Y-003681
X-013189Y-003366
X-013189Y-003051
X-013189Y-002736
X-013189Y-002421
X-013189Y-002106
X-013189Y-001791
X-013189Y-001476
X-013189Y-000846
X-013189Y000413
X-013189Y000728
X-013189Y001043
X-013189Y001673
X-013189Y001988
X-013189Y002303
X-013189Y002618
X-013189Y002933
X-013189Y003248
X-013189Y003563
X-013189Y003878
X-013189Y007421
X-013189Y007736
X-013189Y008051
X-013189Y008366
X-013189Y008681
X-013189Y008996
X-013189Y009311
X-013189Y009626
X-013189Y010256
X-013189Y011516
X-013189Y011831
X-013189Y012146
X-013189Y012776
X-013189Y013091
X-013189Y013406
X-013189Y013720
X-013189Y014035
X-013189Y014350
X-013189Y014665
X-013189Y014980
X-013189Y018524
X-013189Y018839
X-013189Y019154
X-013189Y019469
X-013189Y019783
X-013189Y020098
X-013189Y020413
X-013189Y020728
X-013189Y021358
X-013189Y022618
X-013189Y022933
X-013189Y023248
X-013189Y023878
X-013189Y024193
X-013189Y024508
X-013189Y024823
X-013189Y025138
X-013189Y025453
X-013189Y025768
X-013189Y026083
X-013169Y027195
X-013169Y030285
X-012992Y-018228
X-012972Y027470
X-012972Y030285
X-012874Y-014783
X-012874Y-014469
X-012874Y-013839
X-012874Y-013524
X-012874Y-013209
X-012874Y-012894
X-012874Y-012579
X-012874Y-012264
X-012874Y-011949
X-012874Y-010059
X-012874Y-009744
X-012874Y-009429
X-012874Y-009114
X-012874Y-008799
X-012874Y-008484
X-012874Y-008169
X-012874Y-007539
X-012874Y-007224
X-012874Y-003681
X-012874Y-003366
X-012874Y-002736
X-012874Y-002421
X-012874Y-002106
X-012874Y-001791
X-012874Y-001476
X-012874Y-001161
X-012874Y-000846
X-012874Y001043
X-012874Y001358
X-012874Y001673
X-012874Y001988
X-012874Y002303
X-012874Y002618
X-012874Y002933
X-012874Y003563
X-012874Y003878
X-012874Y007421
X-012874Y007736
X-012874Y008366
X-012874Y008681
X-012874Y008996
X-012874Y009311
X-012874Y009626
X-012874Y009941
X-012874Y010256
X-012874Y012146
X-012874Y012461
X-012874Y012776
X-012874Y013091
X-012874Y013406
X-012874Y013720
X-012874Y014035
X-012874Y014665
X-012874Y014980
X-012874Y018524
X-012874Y018839
X-012874Y019469
X-012874Y019783
X-012874Y020098
X-012874Y020413
X-012874Y020728
X-012874Y021043
X-012874Y021358
X-012874Y023248
X-012874Y023563
X-012874Y023878
X-012874Y024193
X-012874Y024508
X-012874Y024823
X-012874Y025138
X-012874Y025768
X-012874Y026083
X-012776Y027470
X-012678Y-015394
X-012678Y-005453
X-012678Y005610
X-012678Y016752
X-012678Y026693
X-012628Y-003366
X-012608Y-014469
X-012628Y018839
X-012579Y027470
X-012579Y030285
X-012531Y-005866
X-012531Y017165
X-012500Y007638
X-012441Y-018228
X-012441Y026831
X-012382Y027470
X-012008Y030797
X-011998Y-021988
X-011998Y-020226
X-011988Y030285
X-011890Y-023927
X-011870Y-017874
X-011555Y-017874
X-011476Y030797
X-011240Y-017874
X-011118Y-005015
X-011118Y017189
X-011102Y-014980
X-011102Y-013603
X-011102Y-008406
X-011102Y-007028
X-011102Y-003878
X-011102Y-002500
X-011102Y002697
X-011102Y004074
X-011102Y007224
X-011102Y008602
X-011102Y013799
X-011102Y015177
X-011102Y018327
X-011102Y019704
X-011102Y024902
X-011102Y026279
X-010974Y028484
X-010974Y028681
X-010974Y029469
X-010965Y026831
X-010925Y-017874
X-010925Y030797
X-010413Y027835
X-010394Y029252
X-010374Y-020551
X-010305Y028740
X-010374Y030797
X-010295Y030079
X-010256Y-017874
X-010167Y028287
X-009941Y-017874
X-009803Y029134
X-009724Y026102
X-009705Y-005866
X-009705Y017165
X-009675Y018839
X-009636Y030118
X-009626Y-017874
X-009528Y-015394
X-009528Y-005453
X-009528Y005610
X-009528Y016752
X-009528Y026693
X-009518Y029203
X-009331Y-014783
X-009331Y-014469
X-009331Y-013839
X-009331Y-013524
X-009331Y-013209
X-009331Y-012894
X-009331Y-012579
X-009331Y-012264
X-009331Y-011949
X-009331Y-010059
X-009331Y-009744
X-009331Y-009429
X-009331Y-009114
X-009331Y-008799
X-009331Y-008484
X-009331Y-008169
X-009331Y-007539
X-009331Y-007224
X-009331Y-003681
X-009331Y-003366
X-009331Y-002736
X-009331Y-002421
X-009331Y-002106
X-009331Y-001791
X-009331Y-001476
X-009331Y-001161
X-009331Y-000846
X-009331Y001043
X-009331Y001358
X-009331Y001673
X-009331Y001988
X-009331Y002303
X-009331Y002618
X-009331Y002933
X-009331Y003563
X-009331Y003878
X-009331Y007421
X-009331Y007736
X-009331Y008366
X-009331Y008681
X-009331Y008996
X-009331Y009311
X-009331Y009626
X-009331Y009941
X-009331Y010256
X-009331Y012146
X-009331Y012461
X-009331Y012776
X-009331Y013091
X-009331Y013406
X-009331Y013720
X-009331Y014035
X-009331Y014665
X-009331Y014980
X-009331Y018524
X-009331Y018839
X-009331Y019469
X-009331Y019783
X-009331Y020098
X-009331Y020413
X-009331Y020728
X-009331Y021043
X-009331Y021358
X-009331Y023248
X-009331Y023563
X-009331Y023878
X-009331Y024193
X-009331Y024508
X-009331Y024823
X-009331Y025138
X-009331Y025768
X-009331Y026083
X-009311Y-017874
X-009183Y-021988
X-009183Y-020226
X-009094Y-006703
X-009094Y029587
X-009075Y030118
X-009016Y-014783
X-009016Y-014469
X-009016Y-014154
X-009016Y-013839
X-009016Y-013524
X-009016Y-013209
X-009016Y-012894
X-009016Y-012579
X-009016Y-011949
X-009016Y-010059
X-009016Y-009429
X-009016Y-009114
X-009016Y-008799
X-009016Y-008484
X-009016Y-008169
X-009016Y-007854
X-009016Y-007539
X-009016Y-007224
X-009016Y-003681
X-009016Y-003366
X-009016Y-003051
X-009016Y-002736
X-009016Y-002421
X-009016Y-002106
X-009016Y-001791
X-009016Y-001476
X-009016Y-000846
X-009016Y001043
X-009016Y001673
X-009016Y001988
X-009016Y002303
X-009016Y002618
X-009016Y002933
X-009016Y003248
X-009016Y003563
X-009016Y003878
X-009016Y007421
X-009016Y007736
X-009016Y008051
X-009016Y008366
X-009016Y008681
X-009016Y008996
X-009016Y009311
X-009016Y009626
X-009016Y010256
X-009016Y012146
X-009016Y012776
X-009016Y013091
X-009016Y013406
X-009016Y013720
X-009016Y014035
X-009016Y014350
X-009016Y014665
X-009016Y014980
X-009016Y018524
X-009016Y018839
X-009016Y019154
X-009016Y019469
X-009016Y019783
X-009016Y020098
X-009016Y020413
X-009016Y020728
X-009016Y021358
X-009016Y023248
X-009016Y023878
X-009016Y024193
X-009016Y024508
X-009016Y024823
X-009016Y025138
X-009016Y025453
X-009016Y025768
X-009016Y026083
X-008898Y030807
X-008740Y-018228
X-008701Y-014783
X-008386Y-014783
X-008386Y-014469
X-008701Y-014154
X-008386Y-013839
X-008701Y-012894
X-008386Y-012579
X-008701Y-011634
X-008701Y-010374
X-008386Y-009429
X-008701Y-009114
X-008386Y-008169
X-008701Y-007854
X-008386Y-007539
X-008386Y-007224
X-008701Y-007224
X-008701Y-003681
X-008386Y-003681
X-008386Y-003366
X-008701Y-003051
X-008386Y-002736
X-008701Y-001791
X-008386Y-001476
X-008701Y-000531
X-008701Y000728
X-008386Y001673
X-008701Y001988
X-008386Y002933
X-008701Y003248
X-008386Y003563
X-008386Y003878
X-008701Y003878
X-008701Y007421
X-008386Y007421
X-008386Y007736
X-008701Y008051
X-008386Y008366
X-008701Y009311
X-008386Y009626
X-008701Y010571
X-008701Y011831
X-008386Y012776
X-008701Y013091
X-008386Y014035
X-008701Y014350
X-008386Y014665
X-008386Y014980
X-008701Y014980
X-008701Y018524
X-008386Y018524
X-008386Y018839
X-008701Y019154
X-008386Y019469
X-008701Y020413
X-008386Y020728
X-008701Y021673
X-008701Y022933
X-008386Y023248
X-008386Y023563
X-008701Y023563
X-008701Y023878
X-008701Y024193
X-008701Y024508
X-008701Y024823
X-008701Y025138
X-008701Y025453
X-008701Y026083
X-008386Y023878
X-008386Y024193
X-008386Y024508
X-008386Y024823
X-008386Y025138
X-008386Y025453
X-008386Y025768
X-008386Y026083
X-008189Y-018228
X-008150Y-015394
X-008150Y-005453
X-008150Y005610
X-008150Y016752
X-008150Y026693
X-008071Y-014783
X-008071Y-014469
X-007756Y-014783
X-007756Y-014469
X-007756Y-013524
X-008071Y-013524
X-007756Y-013209
X-007756Y-012894
X-008071Y-012894
X-008071Y-012579
X-008071Y-012264
X-008071Y-011949
X-008071Y-011634
X-008071Y-011319
X-008071Y-011004
X-008071Y-010689
X-008071Y-010374
X-008071Y-010059
X-008071Y-009744
X-008071Y-009429
X-008071Y-009114
X-008071Y-008484
X-008071Y-007539
X-008071Y-007224
X-008071Y-003681
X-008071Y-003366
X-008071Y-002421
X-008071Y-001791
X-008071Y-001476
X-008071Y-001161
X-008071Y-000846
X-008071Y-000531
X-008071Y-000217
X-008071Y000098
X-008071Y000413
X-008071Y000728
X-008071Y001043
X-008071Y001358
X-008071Y001673
X-008071Y001988
X-008071Y002618
X-008071Y003563
X-008071Y003878
X-008071Y007421
X-008071Y007736
X-008071Y008681
X-008071Y009311
X-008071Y009626
X-008071Y009941
X-008071Y010256
X-008071Y010571
X-008071Y010886
X-008071Y011201
X-008071Y011516
X-008071Y011831
X-008071Y012146
X-008071Y012461
X-008071Y012776
X-008071Y013091
X-008071Y013720
X-008071Y014665
X-008071Y014980
X-008071Y018524
X-008071Y018839
X-008071Y019783
X-008071Y020413
X-008071Y020728
X-008071Y021043
X-008071Y021358
X-008071Y021673
X-008071Y021988
X-008071Y022303
X-008071Y022618
X-008071Y022933
X-008071Y023248
X-008071Y023563
X-008071Y023878
X-008071Y024193
X-008071Y024823
X-008071Y025138
X-008071Y025453
X-008071Y025768
X-008071Y026083
X-007756Y-012579
X-007756Y-012264
X-007756Y-011949
X-007756Y-011634
X-007756Y-010374
X-007756Y-010059
X-007756Y-009744
X-007756Y-009429
X-007756Y-009114
X-007756Y-008799
X-007756Y-008484
X-007756Y-007539
X-007756Y-007224
X-007756Y-003681
X-007756Y-003366
X-007756Y-002421
X-007756Y-002106
X-007756Y-001791
X-007756Y-001476
X-007756Y-001161
X-007756Y-000846
X-007756Y-000531
X-007756Y000728
X-007756Y001043
X-007756Y001358
X-007756Y001673
X-007756Y001988
X-007756Y002303
X-007756Y002618
X-007756Y003563
X-007756Y003878
X-007756Y007421
X-007756Y007736
X-007756Y008681
X-007756Y008996
X-007756Y009311
X-007756Y009626
X-007756Y009941
X-007756Y010256
X-007756Y010571
X-007756Y011831
X-007756Y012146
X-007756Y012461
X-007756Y012776
X-007756Y013091
X-007756Y013406
X-007756Y013720
X-007756Y014665
X-007756Y014980
X-007756Y018524
X-007756Y018839
X-007756Y019783
X-007756Y020098
X-007756Y020413
X-007756Y020728
X-007756Y021043
X-007756Y021358
X-007756Y021673
X-007756Y022933
X-007756Y023248
X-007756Y023563
X-007756Y023878
X-007756Y024193
X-007756Y024508
X-007756Y024823
X-007756Y025138
X-007756Y025768
X-007756Y026083
X-007746Y-021988
X-007746Y-020226
X-007618Y-017874
X-007441Y-014783
X-007441Y-014469
X-007441Y-014154
X-007441Y-013524
X-007441Y-012894
X-007441Y-012579
X-007441Y-011949
X-007441Y-011634
X-007441Y-011319
X-007441Y-010689
X-007441Y-010374
X-007441Y-010059
X-007441Y-009744
X-007441Y-009429
X-007441Y-009114
X-007441Y-008799
X-007441Y-008484
X-007441Y-007854
X-007441Y-007539
X-007441Y-007224
X-007441Y-003681
X-007441Y-003366
X-007441Y-003051
X-007441Y-002421
X-007441Y-001791
X-007441Y-001476
X-007441Y-000846
X-007441Y-000531
X-007441Y-000217
X-007441Y000413
X-007441Y000728
X-007441Y001043
X-007441Y001358
X-007441Y001673
X-007441Y001988
X-007441Y002303
X-007441Y002618
X-007441Y003248
X-007441Y003563
X-007441Y003878
X-007441Y007421
X-007441Y007736
X-007441Y008051
X-007441Y008681
X-007441Y009311
X-007441Y009626
X-007441Y010256
X-007441Y010571
X-007441Y010886
X-007441Y011516
X-007441Y011831
X-007441Y012146
X-007441Y012461
X-007441Y012776
X-007441Y013091
X-007441Y013406
X-007441Y013720
X-007441Y014350
X-007441Y014665
X-007441Y014980
X-007441Y018524
X-007441Y018839
X-007441Y019154
X-007441Y019783
X-007441Y020413
X-007441Y020728
X-007441Y021358
X-007441Y021673
X-007441Y021988
X-007441Y022618
X-007441Y022933
X-007441Y023248
X-007441Y023563
X-007441Y023878
X-007441Y024193
X-007441Y024508
X-007441Y024823
X-007441Y025453
X-007441Y025768
X-007441Y026083
X-007303Y-017874
X-007126Y-014783
X-007126Y-014469
X-007126Y-013839
X-007126Y-013524
X-007126Y-013209
X-007126Y-012894
X-007126Y-011004
X-007126Y-009114
X-007126Y-008799
X-007126Y-008484
X-007126Y-008169
X-007126Y-007539
X-007126Y-007224
X-007126Y-003681
X-007126Y-003366
X-007126Y-002736
X-007126Y-002421
X-007126Y-002106
X-007126Y-001791
X-007126Y000098
X-007126Y001988
X-007126Y002303
X-007126Y002618
X-007126Y002933
X-007126Y003563
X-007126Y003878
X-007126Y007421
X-007126Y007736
X-007126Y008366
X-007126Y008681
X-007126Y008996
X-007126Y009311
X-007126Y011201
X-007126Y013091
X-007126Y013406
X-007126Y013720
X-007126Y014035
X-007126Y014665
X-007126Y014980
X-007126Y018524
X-007126Y018839
X-007126Y019469
X-007126Y019783
X-007126Y020098
X-007126Y020413
X-007126Y022303
X-007126Y024193
X-007126Y024508
X-007126Y024823
X-007126Y025138
X-007126Y025453
X-007126Y025768
X-007126Y026083
X-006988Y-017874
X-006890Y-006260
X-006811Y-014469
X-006811Y-013524
X-006811Y-013209
X-006811Y-009114
X-006811Y-008799
X-006811Y-008484
X-006811Y-007539
X-006811Y-003366
X-006811Y-002421
X-006811Y-002106
X-006811Y001988
X-006811Y002303
X-006811Y002618
X-006811Y003563
X-006890Y004843
X-006811Y007736
X-006811Y008681
X-006811Y008996
X-006811Y013091
X-006811Y013406
X-006811Y013720
X-006811Y014665
X-006890Y015945
X-006811Y018839
X-006811Y019783
X-006811Y020098
X-006811Y024193
X-006811Y024508
X-006811Y024823
X-006811Y025138
X-006811Y025768
X-006890Y027047
X-006791Y-016476
X-006673Y-017874
X-006496Y-014783
X-006496Y-014469
X-006496Y-013524
X-006496Y-013209
X-006496Y-012894
X-006496Y-011949
X-006496Y-011634
X-006496Y-011319
X-006496Y-010689
X-006496Y-010374
X-006496Y-010059
X-006496Y-009114
X-006496Y-008799
X-006496Y-008484
X-006496Y-007539
X-006496Y-007224
X-006220Y-006260
X-006496Y-003681
X-006496Y-003366
X-006496Y-002421
X-006496Y-002106
X-006496Y-001791
X-006496Y-000846
X-006496Y-000531
X-006496Y-000217
X-006496Y000413
X-006496Y000728
X-006496Y001043
X-006496Y001988
X-006496Y002303
X-006496Y002618
X-006496Y003563
X-006496Y003878
X-006220Y004843
X-006496Y007421
X-006496Y007736
X-006496Y008681
X-006496Y008996
X-006496Y009311
X-006496Y010256
X-006496Y010571
X-006496Y010886
X-006496Y011516
X-006496Y011831
X-006496Y012146
X-006496Y013091
X-006496Y013406
X-006496Y013720
X-006496Y014665
X-006496Y014980
X-006220Y015945
X-006496Y018524
X-006496Y018839
X-006496Y019783
X-006496Y020098
X-006496Y020413
X-006496Y021358
X-006496Y021673
X-006496Y021988
X-006496Y022618
X-006496Y022933
X-006496Y023248
X-006496Y024193
X-006496Y024508
X-006496Y024823
X-006496Y025768
X-006496Y026083
X-006220Y027047
X-006181Y-014154
X-006181Y-013524
X-006181Y-013209
X-006181Y-012894
X-006181Y-011949
X-006181Y-011634
X-006181Y-011319
X-006181Y-010689
X-006181Y-010374
X-006181Y-010059
X-006181Y-009114
X-006181Y-008799
X-006181Y-008484
X-006181Y-007854
X-006181Y-003051
X-006181Y-002421
X-006181Y-002106
X-006181Y-001791
X-006181Y-000846
X-006181Y-000531
X-006181Y-000217
X-006181Y000413
X-006181Y000728
X-006181Y001043
X-006181Y001988
X-006181Y002303
X-006181Y002618
X-006181Y003248
X-006181Y008051
X-006181Y008681
X-006181Y008996
X-006181Y009311
X-006181Y010256
X-006181Y010571
X-006181Y010886
X-006181Y011516
X-006181Y011831
X-006181Y012146
X-006181Y013091
X-006181Y013406
X-006181Y013720
X-006181Y014350
X-006181Y019154
X-006181Y019783
X-006181Y020098
X-006181Y020413
X-006181Y021358
X-006181Y021673
X-006181Y021988
X-006181Y022618
X-006181Y022933
X-006181Y023248
X-006181Y024193
X-006181Y024508
X-006181Y024823
X-006181Y025453
X-006004Y-017874
X-005866Y-013209
X-005866Y-012894
X-005866Y-011949
X-005866Y-011634
X-005866Y-011319
X-005866Y-010689
X-005866Y-010374
X-005866Y-010059
X-005866Y-009114
X-005866Y-008799
X-005866Y-002106
X-005866Y-001791
X-005866Y-000846
X-005866Y-000531
X-005866Y-000217
X-005866Y000413
X-005866Y000728
X-005866Y001043
X-005866Y001988
X-005866Y002303
X-005866Y008996
X-005866Y009311
X-005866Y010256
X-005866Y010571
X-005866Y010886
X-005866Y011516
X-005866Y011831
X-005866Y012146
X-005866Y013091
X-005866Y013406
X-005866Y020098
X-005866Y020413
X-005866Y021358
X-005866Y021673
X-005866Y021988
X-005866Y022618
X-005866Y022933
X-005866Y023248
X-005866Y024193
X-005866Y024508
X-005689Y-017874
X-005551Y-013839
X-005551Y-012894
X-005551Y-009429
X-005551Y-008484
X-005551Y-002736
X-005551Y-001791
X-005551Y001673
X-005551Y002618
X-005551Y007736
X-005551Y008366
X-005551Y009311
X-005551Y012776
X-005551Y013720
X-005551Y019469
X-005551Y020413
X-005551Y023878
X-005551Y024823
X-005374Y-017874
X-005236Y-013209
X-005236Y-012894
X-005236Y-011949
X-005236Y-011634
X-005236Y-011319
X-005236Y-010689
X-005236Y-010374
X-005236Y-010059
X-005236Y-008799
X-005236Y-002106
X-005236Y-001791
X-005236Y-000846
X-005236Y-000531
X-005236Y-000217
X-005236Y000413
X-005236Y000728
X-005236Y001043
X-005236Y002303
X-005236Y008996
X-005236Y009311
X-005236Y010256
X-005236Y010571
X-005236Y010886
X-005236Y011516
X-005236Y011831
X-005236Y012146
X-005236Y013406
X-005236Y020098
X-005236Y020413
X-005236Y021358
X-005236Y021673
X-005236Y021988
X-005236Y022618
X-005236Y022933
X-005236Y023248
X-005236Y024508
X-005187Y-021988
X-005059Y-017874
X-004931Y-021988
X-004931Y-020226
X-004931Y-013839
X-004921Y-014154
X-004921Y-013524
X-004921Y-013209
X-004921Y-012894
X-004921Y-011949
X-004921Y-011634
X-004921Y-011319
X-004921Y-010689
X-004921Y-010374
X-004921Y-010059
X-004921Y-009114
X-004921Y-008799
X-004921Y-008484
X-004921Y-007854
X-004882Y-006260
X-004921Y-003051
X-004921Y-002421
X-004921Y-002106
X-004921Y-001791
X-004921Y-000846
X-004921Y-000531
X-004921Y-000217
X-004921Y000413
X-004921Y000728
X-004921Y001043
X-004921Y001988
X-004921Y002303
X-004921Y002618
X-004921Y003248
X-004882Y004843
X-004921Y008051
X-004921Y008681
X-004921Y008996
X-004921Y009311
X-004921Y010256
X-004921Y010571
X-004921Y010886
X-004921Y011516
X-004921Y011831
X-004921Y012146
X-004921Y013091
X-004921Y013406
X-004921Y013720
X-004921Y014350
X-004882Y015945
X-004921Y019154
X-004921Y019783
X-004921Y020098
X-004921Y020413
X-004921Y021358
X-004921Y021673
X-004921Y021988
X-004921Y022618
X-004921Y022933
X-004921Y023248
X-004921Y024193
X-004921Y024508
X-004921Y024823
X-004921Y025453
X-004882Y027047
X-004606Y-014783
X-004606Y-014469
X-004606Y-013524
X-004606Y-013209
X-004606Y-012894
X-004606Y-011949
X-004606Y-011634
X-004606Y-011319
X-004606Y-011004
X-004606Y-010689
X-004606Y-010374
X-004606Y-010059
X-004606Y-009114
X-004606Y-008799
X-004606Y-008484
X-004606Y-007539
X-004606Y-007224
X-004606Y-003681
X-004606Y-003366
X-004606Y-002421
X-004606Y-002106
X-004606Y-001791
X-004606Y-000846
X-004606Y-000531
X-004606Y-000217
X-004606Y000098
X-004606Y000413
X-004606Y000728
X-004606Y001043
X-004606Y001988
X-004606Y002303
X-004606Y002618
X-004606Y003563
X-004606Y003878
X-004606Y007421
X-004606Y007736
X-004606Y008681
X-004606Y008996
X-004606Y009311
X-004606Y010256
X-004606Y010571
X-004606Y010886
X-004606Y011201
X-004606Y011516
X-004606Y011831
X-004606Y012146
X-004606Y013091
X-004606Y013406
X-004606Y013720
X-004606Y014665
X-004606Y014980
X-004606Y018524
X-004606Y018839
X-004606Y019783
X-004606Y020098
X-004606Y020413
X-004606Y021358
X-004606Y021673
X-004606Y021988
X-004606Y022303
X-004606Y022618
X-004606Y022933
X-004606Y023248
X-004606Y024193
X-004606Y024508
X-004606Y024823
X-004606Y025768
X-004606Y026083
X-004488Y-018228
X-004291Y-014469
X-004291Y-013524
X-004291Y-013209
X-004291Y-012894
X-004291Y-009114
X-004291Y-008799
X-004291Y-008484
X-004291Y-007539
X-004291Y-003366
X-004291Y-002421
X-004291Y-002106
X-004291Y-001791
X-004291Y001988
X-004291Y002303
X-004291Y002618
X-004291Y003563
X-004291Y007736
X-004291Y008681
X-004291Y008996
X-004291Y009311
X-004291Y013091
X-004291Y013406
X-004291Y013720
X-004291Y014665
X-004213Y015945
X-004291Y018839
X-004291Y019783
X-004291Y020098
X-004291Y020413
X-004291Y024193
X-004291Y024508
X-004291Y024823
X-004291Y025768
X-004213Y-006260
X-003976Y-014783
X-003976Y-014469
X-003976Y-013839
X-003976Y-013524
X-003976Y-013209
X-003976Y-012894
X-003976Y-011004
X-003976Y-008799
X-003976Y-008484
X-003976Y-008169
X-003976Y-007539
X-003976Y-007224
X-003976Y-003681
X-003976Y-003366
X-003976Y-002736
X-003976Y-002421
X-003976Y-002106
X-003976Y-001791
X-003976Y000098
X-003976Y002303
X-003976Y002618
X-003976Y002933
X-003976Y003563
X-003976Y003878
X-004213Y004843
X-003976Y007421
X-003976Y007736
X-003976Y008366
X-003976Y008681
X-003976Y008996
X-003976Y009311
X-003976Y011201
X-003976Y013406
X-003976Y013720
X-003976Y014035
X-003976Y014665
X-003976Y014980
X-003976Y018524
X-003976Y018839
X-003976Y019469
X-003976Y019783
X-003976Y020098
X-003976Y020413
X-003976Y022303
X-003976Y024508
X-003976Y024823
X-003976Y025138
X-003976Y025768
X-003976Y026083
X-004213Y027047
X-003937Y-018228
X-003661Y-014783
X-003661Y-014469
X-003661Y-014154
X-003661Y-013524
X-003661Y-012894
X-003661Y-012579
X-003661Y-012264
X-003661Y-011949
X-003661Y-011634
X-003661Y-010689
X-003661Y-010374
X-003661Y-010059
X-003661Y-009744
X-003661Y-009114
X-003661Y-008484
X-003661Y-007854
X-003661Y-007539
X-003661Y-007224
X-003661Y-003681
X-003661Y-003366
X-003661Y-003051
X-003661Y-002421
X-003661Y-001791
X-003661Y-001476
X-003661Y-001161
X-003661Y-000846
X-003661Y-000531
X-003661Y000413
X-003661Y000728
X-003661Y001043
X-003661Y001358
X-003661Y001988
X-003661Y002618
X-003661Y003248
X-003661Y003563
X-003661Y003878
X-003661Y007421
X-003661Y007736
X-003661Y008051
X-003661Y008681
X-003661Y009311
X-003661Y009626
X-003661Y009941
X-003661Y010256
X-003661Y010571
X-003661Y011516
X-003661Y011831
X-003661Y012146
X-003661Y012461
X-003661Y013091
X-003661Y013720
X-003661Y014350
X-003661Y014665
X-003661Y014980
X-003661Y018524
X-003661Y018839
X-003661Y019154
X-003661Y019783
X-003661Y020413
X-003661Y020728
X-003661Y021043
X-003661Y021358
X-003661Y021673
X-003661Y022618
X-003661Y022933
X-003661Y023248
X-003661Y023563
X-003661Y024193
X-003661Y024823
X-003661Y025453
X-003661Y025768
X-003661Y026083
X-003494Y-021988
X-003494Y-020226
X-003366Y-017874
X-003346Y-014783
X-003346Y-014469
X-003346Y-013524
X-003346Y-013209
X-003346Y-012894
X-003346Y-012579
X-003346Y-012264
X-003346Y-011949
X-003346Y-011634
X-003346Y-010374
X-003346Y-010059
X-003346Y-009744
X-003346Y-009429
X-003346Y-009114
X-003346Y-008799
X-003346Y-008484
X-003346Y-007539
X-003346Y-007224
X-003346Y-003681
X-003346Y-003366
X-003346Y-002421
X-003346Y-002106
X-003346Y-001791
X-003346Y-001476
X-003346Y-001161
X-003346Y-000846
X-003346Y-000531
X-003346Y000728
X-003346Y001043
X-003346Y001358
X-003346Y001673
X-003346Y001988
X-003346Y002303
X-003346Y002618
X-003346Y003563
X-003346Y003878
X-003346Y007421
X-003346Y007736
X-003346Y008681
X-003346Y008996
X-003346Y009311
X-003346Y009626
X-003346Y009941
X-003346Y010256
X-003346Y010571
X-003346Y011831
X-003346Y012146
X-003346Y012461
X-003346Y012776
X-003346Y013091
X-003346Y013406
X-003346Y013720
X-003346Y014665
X-003346Y014980
X-003346Y018524
X-003346Y018839
X-003346Y019783
X-003346Y020098
X-003346Y020413
X-003346Y020728
X-003346Y021043
X-003346Y021358
X-003346Y021673
X-003346Y022933
X-003346Y023248
X-003346Y023563
X-003346Y023878
X-003346Y024193
X-003346Y024508
X-003346Y024823
X-003346Y025768
X-003346Y026083
X-003051Y-017874
X-003031Y-014783
X-003031Y-014469
X-003031Y-013524
X-003031Y-012894
X-003031Y-012579
X-003031Y-012264
X-003031Y-011949
X-003031Y-011634
X-003031Y-011319
X-003031Y-011004
X-003031Y-010689
X-003031Y-010374
X-003031Y-010059
X-003031Y-009744
X-003031Y-009429
X-003031Y-009114
X-003031Y-008484
X-003031Y-007539
X-003031Y-007224
X-003031Y-003681
X-003031Y-003366
X-003031Y-002421
X-003031Y-001791
X-003031Y-001476
X-003031Y-001161
X-003031Y-000846
X-003031Y-000531
X-003031Y-000217
X-003031Y000098
X-003031Y000413
X-003031Y000728
X-003031Y001043
X-003031Y001358
X-003031Y001673
X-003031Y001988
X-003031Y002618
X-003031Y003563
X-003031Y003878
X-003031Y007421
X-003031Y007736
X-003031Y008681
X-003031Y009311
X-003031Y009626
X-003031Y009941
X-003031Y010256
X-003031Y010571
X-003031Y010886
X-003031Y011201
X-003031Y011516
X-003031Y011831
X-003031Y012146
X-003031Y012461
X-003031Y012776
X-003031Y013091
X-003031Y013720
X-003031Y014665
X-003031Y014980
X-002953Y016752
X-003031Y018524
X-003031Y018839
X-003031Y019783
X-003031Y020413
X-003031Y020728
X-003031Y021043
X-003031Y021358
X-003031Y021673
X-003031Y021988
X-003031Y022303
X-003031Y022618
X-003031Y022933
X-003031Y023248
X-003031Y023563
X-003031Y023878
X-003031Y024193
X-003031Y024823
X-003031Y025768
X-003031Y026083
X-002953Y026693
X-002952Y-015394
X-002736Y-017874
X-002952Y-005453
X-002952Y005610
X-002717Y-014783
X-002717Y-014469
X-002717Y-013839
X-002717Y-012579
X-002717Y-009429
X-002717Y-008169
X-002717Y-007539
X-002717Y-007224
X-002717Y-003681
X-002717Y-003366
X-002717Y-002736
X-002717Y-001476
X-002717Y001673
X-002717Y002933
X-002717Y003563
X-002717Y003878
X-002717Y007421
X-002717Y007736
X-002717Y008366
X-002717Y009626
X-002717Y012776
X-002717Y014035
X-002717Y014665
X-002717Y014980
X-002717Y018524
X-002717Y018839
X-002717Y019469
X-002717Y020728
X-002717Y023878
X-002717Y025138
X-002717Y025768
X-002717Y026083
X-002421Y-017874
X-002402Y-014783
X-002087Y-014783
X-002087Y-014469
X-002087Y-014154
X-002402Y-014154
X-002087Y-013839
X-002087Y-013524
X-002087Y-013209
X-002087Y-012894
X-002402Y-012894
X-002087Y-012579
X-002087Y-011949
X-002087Y-010689
X-002087Y-010374
X-002087Y-010059
X-002087Y-009429
X-002087Y-009114
X-002402Y-009114
X-002087Y-008799
X-002087Y-008484
X-002087Y-008169
X-002087Y-007854
X-002402Y-007854
X-002087Y-007539
X-002087Y-007224
X-002402Y-007224
X-002402Y-003681
X-002087Y-003681
X-002087Y-003366
X-002087Y-003051
X-002402Y-003051
X-002087Y-002736
X-002087Y-002421
X-002087Y-002106
X-002087Y-001791
X-002402Y-001791
X-002087Y-001476
X-002087Y-000846
X-002087Y000413
X-002087Y000728
X-002087Y001043
X-002087Y001673
X-002087Y001988
X-002402Y001988
X-002087Y002303
X-002087Y002618
X-002087Y002933
X-002087Y003248
X-002402Y003248
X-002087Y003563
X-002087Y003878
X-002402Y003878
X-002402Y007421
X-002087Y007421
X-002087Y007736
X-002087Y008051
X-002402Y008051
X-002087Y008366
X-002087Y008681
X-002087Y008996
X-002087Y009311
X-002402Y009311
X-002087Y009626
X-002087Y010256
X-002087Y011516
X-002087Y011831
X-002087Y012146
X-002087Y012776
X-002087Y013091
X-002402Y013091
X-002087Y013406
X-002087Y013720
X-002087Y014035
X-002087Y014350
X-002402Y014350
X-002087Y014665
X-002087Y014980
X-002402Y014980
X-002402Y018524
X-002087Y018524
X-002087Y018839
X-002087Y019154
X-002402Y019154
X-002087Y019469
X-002087Y019783
X-002087Y020098
X-002087Y020413
X-002402Y020413
X-002087Y020728
X-002087Y021358
X-002087Y022618
X-002087Y022933
X-002087Y023248
X-002087Y023878
X-002087Y024193
X-002402Y024193
X-002087Y024508
X-002087Y024823
X-002087Y025138
X-002087Y025453
X-002402Y025453
X-002087Y025768
X-002087Y026083
X-002402Y026083
X-001772Y-014783
X-001772Y-014469
X-001772Y-013839
X-001772Y-013524
X-001772Y-013209
X-001772Y-012894
X-001772Y-012579
X-001772Y-012264
X-001772Y-011949
X-001772Y-010059
X-001772Y-009744
X-001772Y-009429
X-001772Y-009114
X-001772Y-008799
X-001772Y-008484
X-001772Y-008169
X-001772Y-007539
X-001772Y-007224
X-001772Y-003681
X-001772Y-003366
X-001772Y-002736
X-001772Y-002421
X-001772Y-002106
X-001772Y-001791
X-001772Y-001476
X-001772Y-001161
X-001772Y-000846
X-001772Y001043
X-001772Y001358
X-001772Y001673
X-001772Y001988
X-001772Y002303
X-001772Y002618
X-001772Y002933
X-001772Y003563
X-001772Y003878
X-001772Y007421
X-001772Y007736
X-001772Y008366
X-001772Y008681
X-001772Y008996
X-001772Y009311
X-001772Y009626
X-001772Y009941
X-001772Y010256
X-001772Y012146
X-001772Y012461
X-001772Y012776
X-001772Y013091
X-001772Y013406
X-001772Y013720
X-001772Y014035
X-001772Y014665
X-001772Y014980
X-001772Y018524
X-001772Y018839
X-001772Y019469
X-001772Y019783
X-001772Y020098
X-001772Y020413
X-001772Y020728
X-001772Y021043
X-001772Y021358
X-001772Y023248
X-001772Y023563
X-001772Y023878
X-001772Y024193
X-001772Y024508
X-001772Y024823
X-001772Y025138
X-001772Y025768
X-001772Y026083
X-001575Y-015394
X-001575Y-005453
X-001575Y005610
X-001575Y016752
X-001575Y026693
X-001358Y022618
X-001161Y000413
X-001161Y011516
X-001142Y-010689
X-000807Y030089
X-000679Y-021988
X-000679Y-020226
X-000591Y029606
X-000335Y032490
X-000236Y-018031
X-000236Y030197
X000000Y-014980
X000000Y-013603
X000000Y-008405
X000000Y-007028
X000000Y-003878
X000000Y-002500
X000000Y002697
X000000Y004074
X000000Y007224
X000000Y008602
X000000Y013799
X000000Y015177
X000000Y018327
X000000Y019704
X000000Y024902
X000000Y026280
X000039Y-023484
X000157Y029606
X000394Y032480
X000551Y030197
X001417Y022933
X001506Y012933
X001575Y005610
X001575Y016752
X001575Y026693
X001575Y-015394
X001722Y-010374
X001575Y-005453
X001772Y-014783
X001772Y-014469
X002087Y-014783
X002087Y-014469
X002087Y-014154
X002087Y-013839
X001772Y-013839
X001772Y-013524
X001772Y-013209
X001772Y-012894
X001772Y-012579
X001772Y-012264
X001772Y-011949
X002087Y-013524
X002087Y-013209
X002087Y-012894
X002087Y-012579
X002087Y-011949
X002087Y-010059
X001772Y-010059
X001772Y-009744
X001772Y-009429
X001772Y-009114
X001772Y-008799
X001772Y-008484
X001772Y-008169
X001772Y-007539
X001772Y-007224
X002087Y-009429
X002087Y-009114
X002087Y-008799
X002087Y-008484
X002087Y-008169
X002087Y-007854
X002087Y-007539
X002087Y-007224
X002087Y-003681
X001772Y-003681
X001772Y-003366
X002087Y-003366
X002087Y-003051
X002087Y-002736
X001772Y-002736
X001772Y-002421
X001772Y-002106
X001772Y-001791
X001772Y-001476
X001772Y-001161
X001772Y-000846
X001772Y000728
X001772Y001043
X001772Y001358
X001772Y001673
X001772Y001988
X001772Y002303
X001772Y002618
X001772Y002933
X001772Y003563
X001772Y003878
X001772Y007421
X001772Y007736
X001772Y008366
X001772Y008681
X001772Y008996
X001772Y009311
X001772Y009626
X001772Y009941
X001772Y010256
X001772Y012146
X001772Y012461
X001772Y012776
X001772Y013091
X001772Y013406
X001772Y013720
X001772Y014035
X001772Y014665
X001772Y014980
X001772Y018524
X001772Y018839
X001772Y019469
X001772Y019783
X001772Y020098
X001772Y020413
X001772Y020728
X001772Y021043
X001772Y021358
X001772Y023248
X001772Y023563
X001772Y023878
X001772Y024193
X001772Y024508
X001772Y024823
X001772Y025138
X001772Y025768
X001772Y026083
X002087Y-002421
X002087Y-002106
X002087Y-001791
X002087Y-001476
X002087Y-000846
X002087Y001043
X002087Y001673
X002087Y001988
X002087Y002303
X002087Y002618
X002087Y002933
X002087Y003248
X002087Y003563
X002087Y003878
X002087Y007421
X002087Y007736
X002087Y008051
X002087Y008366
X002087Y008681
X002087Y008996
X002087Y009311
X002087Y009626
X002087Y010256
X002087Y012146
X002087Y012776
X002087Y013091
X002087Y013406
X002087Y013720
X002087Y014035
X002087Y014350
X002087Y014665
X002087Y014980
X002087Y018524
X002087Y018839
X002087Y019154
X002087Y019469
X002087Y019783
X002087Y020098
X002087Y020413
X002087Y020728
X002087Y021358
X002087Y023248
X002087Y023878
X002087Y024193
X002087Y024508
X002087Y024823
X002087Y025138
X002087Y025453
X002087Y025768
X002087Y026083
X002402Y-014783
X002717Y-014783
X002717Y-014469
X002402Y-014154
X002717Y-013839
X002402Y-012894
X002717Y-012579
X002402Y-011634
X002402Y-010374
X002717Y-009429
X002402Y-009114
X002717Y-008169
X002402Y-007854
X002717Y-007539
X002717Y-007224
X002402Y-007224
X002402Y-003681
X002717Y-003681
X002717Y-003366
X002402Y-003051
X002717Y-002736
X002402Y-001791
X002717Y-001476
X002402Y-000531
X002402Y000728
X002717Y001673
X002402Y001988
X002717Y002933
X002402Y003248
X002717Y003563
X002717Y003878
X002402Y003878
X002402Y007421
X002717Y007421
X002717Y007736
X002402Y008051
X002717Y008366
X002402Y009311
X002717Y009626
X002402Y010571
X002402Y011831
X002717Y012776
X002402Y013091
X002717Y014035
X002402Y014350
X002717Y014665
X002717Y014980
X002402Y014980
X002402Y018524
X002717Y018524
X002717Y018839
X002402Y019154
X002717Y019469
X002402Y020413
X002717Y020728
X002402Y021673
X002402Y022933
X002402Y023248
X002402Y023563
X002402Y023878
X002402Y024193
X002402Y024508
X002402Y024823
X002402Y025138
X002402Y025453
X002402Y026083
X002717Y022933
X002717Y023248
X002717Y023563
X002717Y023878
X002717Y024193
X002717Y024508
X002717Y024823
X002717Y025138
X002717Y025453
X002717Y025768
X002717Y026083
X002952Y-015394
X003031Y-014783
X003031Y-014469
X003031Y-013524
X003031Y-012894
X003031Y-012579
X003031Y-012264
X003031Y-011949
X003031Y-011634
X003031Y-011319
X003031Y-011004
X003031Y-010689
X003031Y-010374
X003031Y-010059
X003031Y-009744
X003031Y-009429
X003031Y-009114
X003031Y-008484
X003031Y-007539
X003031Y-007224
X002952Y-005453
X003031Y-003681
X003031Y-003366
X003031Y-002421
X003031Y-001791
X003031Y-001476
X003031Y-001161
X003031Y-000846
X003031Y-000531
X003031Y-000217
X003031Y000098
X003031Y000413
X003031Y000728
X003031Y001043
X003031Y001358
X003031Y001673
X003031Y001988
X003031Y002618
X003031Y003563
X003031Y003878
X002952Y005610
X003031Y007421
X003031Y007736
X003031Y008681
X003031Y009311
X003031Y009626
X003031Y009941
X003031Y010256
X003031Y010571
X003031Y010886
X003031Y011201
X003031Y011516
X003031Y011831
X003031Y012146
X003031Y012461
X003031Y012776
X003031Y013091
X003031Y013720
X003031Y014665
X003031Y014980
X002952Y016752
X003031Y018524
X003031Y018839
X003031Y019783
X003031Y020413
X003031Y020728
X003031Y021043
X003031Y021358
X003031Y021673
X003031Y021988
X003031Y022303
X003031Y022618
X003031Y022933
X003031Y023248
X003031Y023563
X003031Y023878
X003031Y024193
X003031Y024508
X003031Y024823
X003031Y025138
X003031Y025453
X003031Y025768
X003031Y026083
X002952Y026693
X003346Y-014783
X003346Y-014469
X003661Y-014783
X003661Y-014469
X003661Y-014154
X003661Y-013524
X003346Y-013524
X003346Y-013209
X003346Y-012894
X003346Y-012579
X003346Y-012264
X003346Y-011949
X003346Y-011634
X003346Y-010374
X003346Y-010059
X003346Y-009744
X003346Y-009429
X003346Y-009114
X003346Y-008799
X003346Y-008484
X003346Y-007539
X003346Y-007224
X003346Y-003681
X003346Y-003366
X003346Y-002421
X003346Y-002106
X003346Y-001791
X003346Y-001476
X003346Y-001161
X003346Y-000846
X003346Y-000531
X003346Y000728
X003346Y001043
X003346Y001358
X003346Y001673
X003346Y001988
X003346Y002303
X003346Y002618
X003346Y003563
X003346Y003878
X003346Y007421
X003346Y007736
X003346Y008681
X003346Y008996
X003346Y009311
X003346Y009626
X003346Y009941
X003346Y010256
X003346Y010571
X003346Y011831
X003346Y012146
X003346Y012461
X003346Y012776
X003346Y013091
X003346Y013406
X003346Y013720
X003346Y014665
X003346Y014980
X003346Y018524
X003346Y018839
X003346Y019783
X003346Y020098
X003346Y020413
X003346Y020728
X003346Y021043
X003346Y021358
X003346Y021673
X003346Y022618
X003346Y022933
X003346Y023248
X003346Y023563
X003346Y023878
X003346Y024193
X003346Y024508
X003346Y024823
X003346Y025138
X003346Y025768
X003346Y026083
X003661Y-012894
X003661Y-012579
X003661Y-011949
X003661Y-011634
X003661Y-011319
X003661Y-010689
X003661Y-010374
X003661Y-010059
X003661Y-009744
X003661Y-009429
X003661Y-009114
X003661Y-008799
X003661Y-008484
X003661Y-007854
X003661Y-007539
X003661Y-007224
X003661Y-003681
X003661Y-003366
X003661Y-003051
X003661Y-002421
X003661Y-001791
X003661Y-001476
X003661Y-000846
X003661Y-000531
X003661Y-000217
X003661Y000413
X003661Y000728
X003661Y001043
X003661Y001358
X003661Y001673
X003661Y001988
X003661Y002303
X003661Y002618
X003661Y003248
X003661Y003563
X003661Y003878
X003661Y007421
X003661Y007736
X003661Y008051
X003661Y008681
X003661Y009311
X003661Y009626
X003661Y010256
X003661Y010571
X003661Y010886
X003661Y011516
X003661Y011831
X003661Y012146
X003661Y012461
X003661Y012776
X003661Y013091
X003661Y013406
X003661Y013720
X003661Y014350
X003661Y014665
X003661Y014980
X003661Y018524
X003661Y018839
X003661Y019154
X003661Y019783
X003661Y020413
X003661Y020728
X003661Y021358
X003661Y021673
X003661Y021988
X003661Y022618
X003661Y022933
X003661Y023248
X003661Y023563
X003661Y023878
X003661Y024193
X003661Y024508
X003661Y024823
X003661Y025453
X003661Y025768
X003661Y026083
X003976Y-014783
X003976Y-014469
X003976Y-013839
X003976Y-013524
X003976Y-013209
X003976Y-012894
X003976Y-011004
X003976Y-009114
X003976Y-008799
X003976Y-008484
X003976Y-008169
X003976Y-007539
X003976Y-007224
X004213Y-006260
X003976Y-003681
X003976Y-003366
X003976Y-002736
X003976Y-002421
X003976Y-002106
X003976Y-001791
X003976Y000098
X003976Y001988
X003976Y002303
X003976Y002618
X003976Y002933
X003976Y003563
X003976Y003878
X004213Y004843
X003976Y007421
X003976Y007736
X003976Y008366
X003976Y008681
X003976Y008996
X003976Y009311
X003976Y011201
X003976Y013091
X003976Y013406
X003976Y013720
X003976Y014035
X003976Y014665
X003976Y014980
X004213Y015945
X003976Y018524
X003976Y018839
X003976Y019469
X003976Y019783
X003976Y020098
X003976Y020413
X003976Y022303
X003976Y024193
X003976Y024508
X003976Y024823
X003976Y025138
X003976Y025453
X003976Y025768
X003976Y026083
X004213Y027047
X004291Y-014469
X004606Y-014783
X004606Y-014469
X004606Y-013524
X004291Y-013524
X004291Y-013209
X004606Y-013209
X004606Y-012894
X004606Y-011949
X004606Y-011634
X004606Y-011319
X004606Y-010689
X004606Y-010374
X004606Y-010059
X004606Y-009114
X004291Y-009114
X004291Y-008799
X004291Y-008484
X004606Y-008799
X004606Y-008484
X004606Y-007539
X004291Y-007539
X004606Y-007224
X004606Y-003681
X004606Y-003366
X004291Y-003366
X004291Y-002421
X004291Y-002106
X004606Y-002421
X004606Y-002106
X004606Y-001791
X004606Y-000846
X004606Y-000531
X004606Y-000217
X004606Y000413
X004606Y000728
X004606Y001043
X004606Y001988
X004291Y001988
X004291Y002303
X004291Y002618
X004606Y002303
X004606Y002618
X004606Y003563
X004291Y003563
X004606Y003878
X004606Y007421
X004606Y007736
X004291Y007736
X004291Y008681
X004291Y008996
X004606Y008681
X004606Y008996
X004606Y009311
X004606Y010256
X004606Y010571
X004606Y010886
X004606Y011516
X004606Y011831
X004606Y012146
X004606Y013091
X004291Y013091
X004291Y013406
X004291Y013720
X004606Y013406
X004606Y013720
X004606Y014665
X004291Y014665
X004606Y014980
X004606Y018524
X004606Y018839
X004291Y018839
X004291Y019783
X004291Y020098
X004606Y019783
X004606Y020098
X004606Y020413
X004606Y021358
X004606Y021673
X004606Y021988
X004606Y022618
X004606Y022933
X004606Y023248
X004606Y024193
X004291Y024193
X004291Y024508
X004291Y024823
X004291Y025138
X004291Y025768
X004606Y024508
X004606Y024823
X004606Y025768
X004606Y026083
X004882Y-006260
X004921Y-014154
X004921Y-013524
X004921Y-013209
X004921Y-012894
X004921Y-011949
X004921Y-011634
X004921Y-011319
X004921Y-010689
X004921Y-010374
X004921Y-010059
X004921Y-009114
X004921Y-008799
X004921Y-008484
X004921Y-007854
X004921Y-003051
X004921Y-002421
X004921Y-002106
X004921Y-001791
X004921Y-000846
X004921Y-000531
X004921Y-000217
X004921Y000413
X004921Y000728
X004921Y001043
X004921Y001988
X004921Y002303
X004921Y002618
X004921Y003248
X004882Y004843
X004921Y008051
X004921Y008681
X004921Y008996
X004921Y009311
X004921Y010256
X004921Y010571
X004921Y010886
X004921Y011516
X004921Y011831
X004921Y012146
X004921Y013091
X004921Y013406
X004921Y013720
X004921Y014350
X004882Y015945
X004921Y019154
X004921Y019783
X004921Y020098
X004921Y020413
X004921Y021358
X004921Y021673
X004921Y021988
X004921Y022618
X004921Y022933
X004921Y023248
X004921Y024193
X004921Y024508
X004921Y024823
X004921Y025453
X004882Y027047
X005236Y-013209
X005236Y-012894
X005236Y-011949
X005236Y-011634
X005236Y-011319
X005236Y-010689
X005236Y-010374
X005236Y-010059
X005236Y-009114
X005236Y-008799
X005551Y-013839
X005551Y-012894
X005551Y-009429
X005551Y-008484
X005551Y-002736
X005236Y-002106
X005236Y-001791
X005551Y-001791
X005236Y-000846
X005236Y-000531
X005236Y-000217
X005236Y000413
X005236Y000728
X005236Y001043
X005551Y001673
X005236Y001988
X005236Y002303
X005551Y002618
X005551Y008366
X005236Y008996
X005236Y009311
X005551Y009311
X005236Y010256
X005236Y010571
X005236Y010886
X005236Y011516
X005236Y011831
X005236Y012146
X005551Y012776
X005236Y013091
X005236Y013406
X005551Y013720
X005551Y019469
X005236Y020098
X005236Y020413
X005551Y020413
X005236Y021358
X005236Y021673
X005236Y021988
X005236Y022618
X005236Y022933
X005236Y023248
X005551Y023878
X005236Y024193
X005236Y024508
X005551Y024823
X005866Y-013209
X005866Y-012894
X005866Y-011949
X005866Y-011634
X005866Y-011319
X005866Y-010689
X005866Y-010374
X005866Y-010059
X005866Y-008799
X006181Y-014154
X006181Y-013524
X006181Y-013209
X006181Y-012894
X006181Y-011949
X006181Y-011634
X006181Y-011319
X006181Y-010689
X006181Y-010374
X006181Y-010059
X006181Y-009114
X006181Y-008799
X006181Y-008484
X006181Y-007854
X006181Y-003051
X006181Y-002421
X006181Y-002106
X005866Y-002106
X005866Y-001791
X006181Y-001791
X006181Y-000846
X005866Y-000846
X005866Y-000531
X005866Y-000217
X006181Y-000531
X006181Y-000217
X006181Y000413
X005866Y000413
X005866Y000728
X005866Y001043
X006181Y000728
X006181Y001043
X006181Y001988
X006181Y002303
X005866Y002303
X006181Y002618
X006181Y003248
X006181Y008051
X006181Y008681
X006181Y008996
X005866Y008996
X005866Y009311
X006181Y009311
X006181Y010256
X005866Y010256
X005866Y010571
X005866Y010886
X006181Y010571
X006181Y010886
X006181Y011516
X005866Y011516
X005866Y011831
X005866Y012146
X006181Y011831
X006181Y012146
X006181Y013091
X006181Y013406
X005866Y013406
X006181Y013720
X006181Y014350
X006181Y019154
X006181Y019783
X006181Y020098
X005866Y020098
X005866Y020413
X006181Y020413
X006181Y021358
X005866Y021358
X005866Y021673
X005866Y021988
X006181Y021673
X006181Y021988
X006181Y022618
X005866Y022618
X005866Y022933
X005866Y023248
X006181Y022933
X006181Y023248
X006181Y024193
X006181Y024508
X005866Y024508
X006181Y024823
X006181Y025453
X006220Y-006260
X006496Y-014783
X006496Y-014469
X006496Y-013524
X006496Y-013209
X006496Y-012894
X006496Y-011949
X006496Y-011634
X006496Y-011319
X006496Y-011004
X006496Y-010689
X006496Y-010374
X006496Y-010059
X006496Y-009114
X006496Y-008799
X006496Y-008484
X006496Y-007539
X006496Y-007224
X006496Y-003681
X006496Y-003366
X006496Y-002421
X006496Y-002106
X006496Y-001791
X006496Y-000846
X006496Y-000531
X006496Y-000217
X006496Y000098
X006496Y000413
X006496Y000728
X006496Y001043
X006496Y001988
X006496Y002303
X006496Y002618
X006496Y003563
X006496Y003878
X006220Y004843
X006496Y007421
X006496Y007736
X006496Y008681
X006496Y008996
X006496Y009311
X006496Y010256
X006496Y010571
X006496Y010886
X006496Y011201
X006496Y011516
X006496Y011831
X006496Y012146
X006496Y013091
X006496Y013406
X006496Y013720
X006496Y014665
X006496Y014980
X006220Y015945
X006496Y018524
X006496Y018839
X006496Y019783
X006496Y020098
X006496Y020413
X006496Y021358
X006496Y021673
X006496Y021988
X006496Y022303
X006496Y022618
X006496Y022933
X006496Y023248
X006496Y024193
X006496Y024508
X006496Y024823
X006496Y025768
X006496Y026083
X006220Y027047
X006811Y-014469
X006811Y-013524
X006811Y-013209
X006811Y-012894
X006811Y-009114
X006811Y-008799
X006811Y-008484
X006811Y-007539
X006811Y-003366
X006811Y-002421
X006811Y-002106
X006811Y-001791
X006811Y001988
X006811Y002303
X006811Y002618
X006811Y003563
X006811Y007736
X006811Y008681
X006811Y008996
X006811Y009311
X006811Y013091
X006811Y013406
X006811Y013720
X006811Y014665
X006889Y015945
X006811Y018839
X006811Y019783
X006811Y020098
X006811Y020413
X006811Y024193
X006811Y024508
X006811Y024823
X006811Y025768
X006890Y-006260
X007126Y-014783
X007126Y-014469
X007126Y-013839
X007126Y-013524
X007126Y-013209
X007126Y-012894
X007126Y-011004
X007126Y-008799
X007126Y-008484
X007126Y-008169
X007126Y-007539
X007126Y-007224
X007126Y-003681
X007126Y-003366
X007126Y-002736
X007126Y-002421
X007126Y-002106
X007126Y-001791
X007126Y000098
X007126Y002303
X007126Y002618
X007126Y002933
X007126Y003563
X007126Y003878
X006890Y004843
X007126Y007421
X007126Y007736
X007126Y008366
X007126Y008681
X007126Y008996
X007126Y009311
X007126Y011201
X007126Y013406
X007126Y013720
X007126Y014035
X007126Y014665
X007126Y014980
X007126Y018524
X007126Y018839
X007126Y019469
X007126Y019783
X007126Y020098
X007126Y020413
X007126Y022303
X007126Y024508
X007126Y024823
X007126Y025138
X007126Y025768
X007126Y026083
X006890Y027047
X007441Y-014783
X007441Y-014469
X007441Y-014154
X007441Y-013524
X007441Y-012894
X007441Y-012579
X007441Y-012264
X007441Y-011949
X007441Y-011634
X007441Y-010689
X007441Y-010374
X007441Y-010059
X007441Y-009744
X007441Y-009114
X007441Y-008484
X007441Y-007854
X007441Y-007539
X007441Y-007224
X007441Y-003681
X007441Y-003366
X007441Y-003051
X007441Y-002421
X007441Y-001791
X007441Y-001476
X007441Y-001161
X007441Y-000846
X007441Y-000531
X007441Y000413
X007441Y000728
X007441Y001043
X007441Y001358
X007441Y001988
X007441Y002618
X007441Y003248
X007441Y003563
X007441Y003878
X007441Y007421
X007441Y007736
X007441Y008051
X007441Y008681
X007441Y009311
X007441Y009626
X007441Y009941
X007441Y010256
X007441Y010571
X007441Y011516
X007441Y011831
X007441Y012146
X007441Y012461
X007441Y013091
X007441Y013720
X007441Y014350
X007441Y014665
X007441Y014980
X007441Y018524
X007441Y018839
X007441Y019154
X007441Y019783
X007441Y020413
X007441Y020728
X007441Y021043
X007441Y021358
X007441Y021673
X007441Y022618
X007441Y022933
X007441Y023248
X007441Y023563
X007441Y024193
X007441Y024823
X007441Y025453
X007441Y025768
X007441Y026083
X007579Y-017480
X007638Y030531
X007756Y-014783
X007756Y-014469
X007756Y-013524
X007756Y-013209
X007756Y-012894
X007756Y-012579
X007756Y-012264
X007756Y-011949
X007756Y-011634
X007756Y-010374
X007756Y-010059
X007756Y-009744
X007756Y-009429
X007756Y-009114
X007756Y-008799
X007756Y-008484
X007756Y-007539
X007756Y-007224
X007756Y-003681
X007756Y-003366
X007756Y-002421
X007756Y-002106
X007756Y-001791
X007756Y-001476
X007756Y-001161
X007756Y-000846
X007756Y-000531
X007756Y000728
X007756Y001043
X007756Y001358
X007756Y001673
X007756Y001988
X007756Y002303
X007756Y002618
X007756Y003563
X007756Y003878
X007756Y007421
X007756Y007736
X007756Y008681
X007756Y008996
X007756Y009311
X007756Y009626
X007756Y009941
X007756Y010256
X007756Y010571
X007756Y011831
X007756Y012146
X007756Y012461
X007756Y012776
X007756Y013091
X007756Y013406
X007756Y013720
X007756Y014665
X007756Y014980
X007756Y018524
X007756Y018839
X007756Y019783
X007756Y020098
X007756Y020413
X007756Y020728
X007756Y021043
X007756Y021358
X007756Y021673
X007756Y022933
X007756Y023248
X007756Y023563
X007756Y023878
X007756Y024193
X007756Y024508
X007756Y024823
X007756Y025768
X007756Y026083
X007933Y030846
X008071Y-014783
X008071Y-014469
X008071Y-013524
X008071Y-012894
X008071Y-012579
X008071Y-012264
X008071Y-011949
X008071Y-011634
X008071Y-011319
X008071Y-011004
X008071Y-010689
X008071Y-010374
X008071Y-010059
X008071Y-009744
X008071Y-009429
X008071Y-009114
X008071Y-008484
X008071Y-007539
X008071Y-007224
X008071Y-003681
X008071Y-003366
X008071Y-002421
X008071Y-001791
X008071Y-001476
X008071Y-001161
X008071Y-000846
X008071Y-000531
X008071Y-000217
X008071Y000098
X008071Y000413
X008071Y000728
X008071Y001043
X008071Y001358
X008071Y001673
X008071Y001988
X008071Y002618
X008071Y003563
X008071Y003878
X008071Y007421
X008071Y007736
X008071Y008681
X008071Y009311
X008071Y009626
X008071Y009941
X008071Y010256
X008071Y010571
X008071Y010886
X008071Y011201
X008071Y011516
X008071Y011831
X008071Y012146
X008071Y012461
X008071Y012776
X008071Y013091
X008071Y013720
X008071Y014665
X008071Y014980
X008071Y018524
X008071Y018839
X008071Y019783
X008071Y020413
X008071Y020728
X008071Y021043
X008071Y021358
X008071Y021673
X008071Y021988
X008071Y022303
X008071Y022618
X008071Y022933
X008071Y023248
X008071Y023563
X008071Y023878
X008071Y024193
X008071Y024823
X008071Y025768
X008071Y026083
X008150Y016752
X008150Y026693
X008150Y030157
X008150Y-015394
X008150Y-005453
X008150Y005610
X008228Y-023839
X008386Y-014783
X008386Y-014469
X008386Y-013839
X008386Y-012579
X008386Y-009429
X008386Y-008169
X008386Y-007539
X008386Y-007224
X008386Y-003681
X008386Y-003366
X008386Y-002736
X008386Y-001476
X008386Y001673
X008386Y002933
X008386Y003563
X008386Y003878
X008386Y007421
X008386Y007736
X008386Y008366
X008386Y009626
X008386Y012776
X008386Y014035
X008386Y014665
X008386Y014980
X008386Y018524
X008386Y018839
X008386Y019469
X008386Y020728
X008386Y023878
X008386Y025138
X008386Y025768
X008386Y026083
X008465Y028435
X008504Y-018799
X008701Y-014783
X008701Y-014154
X008701Y-012894
X008701Y-009114
X008701Y-007854
X008701Y-007224
X008701Y-003681
X008701Y-003051
X008701Y-001791
X008701Y001988
X008701Y003248
X008701Y003878
X008701Y007421
X008701Y008051
X008701Y009311
X008701Y013091
X008701Y014350
X008701Y014980
X008701Y018524
X008701Y019154
X008701Y020413
X008701Y024193
X008701Y025453
X008701Y026083
X008799Y029232
X008829Y028051
X008829Y028248
X008829Y028445
X008829Y028642
X009016Y-014783
X009016Y-014469
X009016Y-014154
X009016Y-013839
X009016Y-013524
X009016Y-013209
X009016Y-012894
X009016Y-012579
X009016Y-011949
X009016Y-010689
X009016Y-010374
X009016Y-010059
X009016Y-009429
X009016Y-009114
X009016Y-008799
X009016Y-008484
X009016Y-008169
X009016Y-007854
X009016Y-007539
X009016Y-007224
X009016Y-003681
X009016Y-003366
X009016Y-003051
X009016Y-002736
X009016Y-002421
X009016Y-002106
X009016Y-001791
X009016Y-001476
X009016Y-000846
X009016Y000413
X009016Y000728
X009016Y001043
X009016Y001673
X009016Y001988
X009016Y002303
X009016Y002618
X009016Y002933
X009016Y003248
X009016Y003563
X009016Y003878
X009016Y007421
X009016Y007736
X009016Y008051
X009016Y008366
X009016Y008681
X009016Y008996
X009016Y009311
X009016Y009626
X009016Y009941
X009016Y010256
X009016Y011516
X009016Y011831
X009016Y012146
X009016Y012776
X009016Y013091
X009016Y013406
X009016Y013720
X009016Y014035
X009016Y014350
X009016Y014665
X009016Y014980
X009016Y018524
X009016Y018839
X009016Y019154
X009016Y019469
X009016Y019783
X009016Y020098
X009016Y020413
X009016Y020728
X009016Y021358
X009016Y022618
X009016Y022933
X009016Y023248
X009016Y023878
X009016Y024193
X009016Y024508
X009016Y024823
X009016Y025138
X009016Y025453
X009016Y025768
X009016Y026083
X009026Y021043
X009272Y-018228
X009331Y-014783
X009331Y-014469
X009331Y-013839
X009331Y-013524
X009331Y-013209
X009331Y-012894
X009331Y-012579
X009331Y-012264
X009331Y-011949
X009331Y-010059
X009331Y-009744
X009331Y-009429
X009331Y-009114
X009331Y-008799
X009331Y-008484
X009331Y-008169
X009331Y-007539
X009331Y-007224
X009331Y-003681
X009331Y-003366
X009331Y-002736
X009331Y-002421
X009331Y-002106
X009331Y-001791
X009331Y-001476
X009331Y-001161
X009331Y-000846
X009331Y001043
X009331Y001358
X009331Y001673
X009331Y001988
X009331Y002303
X009331Y002618
X009331Y002933
X009331Y003563
X009331Y003878
X009331Y007421
X009331Y007736
X009331Y008366
X009331Y008681
X009331Y008996
X009331Y009311
X009331Y009626
X009331Y009941
X009331Y010256
X009331Y012146
X009331Y012461
X009331Y012776
X009331Y013091
X009331Y013406
X009331Y013720
X009331Y014035
X009331Y014665
X009331Y014980
X009331Y018524
X009331Y018839
X009331Y019469
X009331Y019783
X009331Y020098
X009331Y020413
X009331Y020728
X009331Y021043
X009331Y021358
X009331Y023248
X009331Y023563
X009331Y023878
X009331Y024193
X009331Y024508
X009331Y024823
X009331Y025138
X009331Y025768
X009331Y026083
X009449Y027431
X009449Y030236
X009527Y-015394
X009527Y-005453
X009557Y-001476
X009527Y005610
X009527Y016752
X009527Y026693
X009646Y027431
X009646Y030236
X009674Y-005866
X009674Y017165
X009675Y-012894
X009744Y-018002
X009843Y027421
X010039Y-017480
X010039Y027431
X010039Y030236
X010197Y026801
X010236Y027431
X010236Y030236
X010256Y-018228
X010906Y-020315
X010915Y-021831
X011087Y-005015
X011087Y017189
X011102Y-014980
X011102Y-013603
X011102Y-008405
X011102Y-007028
X011102Y-003878
X011102Y-002500
X011102Y002697
X011102Y004074
X011102Y007224
X011102Y008602
X011102Y013799
X011102Y015177
X011102Y018327
X011102Y019704
X011102Y024902
X011102Y026279
X011122Y030758
X011378Y-020827
X011417Y-018917
X011437Y-019449
X011476Y-018366
X011496Y-016614
X011506Y-015531
X011644Y028445
X011644Y028642
X011644Y028839
X011644Y029035
X011644Y029429
X011654Y-017559
X011654Y030758
X011673Y-021142
X011673Y-020177
X011673Y026801
X012185Y030758
X012352Y028780
X012362Y-016457
X012372Y029311
X012402Y028169
X012421Y-022362
X012500Y-005866
X012500Y017165
X012589Y030079
X012618Y027677
X012677Y016752
X012677Y026693
X012678Y-015394
X012678Y-005453
X012678Y005610
X012717Y030896
X012736Y-020669
X012736Y-020079
X012736Y-019882
X012736Y-019685
X012736Y-019488
X012736Y-019291
X012736Y-019094
X012736Y-018898
X012736Y-018701
X012736Y-018504
X012736Y-018307
X012736Y-018110
X012736Y-017913
X012756Y-020472
X012874Y-014783
X012874Y-014469
X012874Y-013839
X012874Y-013524
X012874Y-013209
X012874Y-012894
X012874Y-012579
X012874Y-012264
X012874Y-011949
X012874Y-010059
X012874Y-009744
X012874Y-009429
X012874Y-009114
X012874Y-008799
X012874Y-008484
X012874Y-008169
X012874Y-007539
X012874Y-007224
X012874Y-003681
X012874Y-003366
X012874Y-002736
X012874Y-002421
X012874Y-002106
X012874Y-001791
X012874Y-001476
X012874Y-001161
X012874Y-000846
X012874Y001043
X012874Y001358
X012874Y001673
X012874Y001988
X012874Y002303
X012874Y002618
X012874Y002933
X012874Y003563
X012874Y003878
X012874Y007421
X012874Y007736
X012874Y008366
X012874Y008681
X012874Y008996
X012874Y009311
X012874Y009626
X012874Y009941
X012874Y010256
X012874Y012146
X012874Y012461
X012874Y012776
X012874Y013091
X012874Y013406
X012874Y013720
X012874Y014035
X012874Y014665
X012874Y014980
X012874Y018524
X012874Y018839
X012874Y019469
X012874Y019783
X012874Y020098
X012874Y020413
X012874Y020728
X012874Y021043
X012874Y021358
X012874Y023248
X012874Y023563
X012874Y023878
X012874Y024193
X012874Y024508
X012874Y024823
X012874Y025138
X012874Y025768
X012874Y026083
X013071Y029016
X013110Y-021240
X013150Y-016220
X013189Y-014783
X013189Y-014469
X013189Y-014154
X013189Y-013839
X013189Y-013524
X013189Y-013209
X013189Y-012894
X013189Y-012579
X013189Y-011949
X013189Y-010059
X013189Y-009429
X013189Y-009114
X013189Y-008799
X013189Y-008484
X013189Y-008169
X013189Y-007854
X013189Y-007539
X013189Y-007224
X013189Y-003681
X013189Y-003366
X013189Y-003051
X013189Y-002736
X013189Y-002421
X013189Y-002106
X013189Y-001791
X013189Y-001476
X013189Y-000846
X013189Y001043
X013189Y001673
X013189Y001988
X013189Y002303
X013189Y002618
X013189Y002933
X013189Y003248
X013189Y003563
X013189Y003878
X013189Y007421
X013189Y007736
X013189Y008051
X013189Y008366
X013189Y008681
X013189Y008996
X013189Y009311
X013189Y009626
X013189Y010256
X013189Y012146
X013189Y012776
X013189Y013091
X013189Y013406
X013189Y013720
X013189Y014035
X013189Y014350
X013189Y014665
X013189Y014980
X013189Y018524
X013189Y018839
X013189Y019154
X013189Y019469
X013189Y019783
X013189Y020098
X013189Y020413
X013189Y020728
X013189Y021358
X013189Y023248
X013189Y023878
X013189Y024193
X013189Y024508
X013189Y024823
X013189Y025138
X013189Y025453
X013189Y025768
X013189Y026083
X013307Y-016762
X013504Y-014783
X013504Y-014154
X013504Y-012894
X013504Y-011634
X013504Y-010374
X013504Y-009114
X013504Y-007854
X013504Y-007224
X013504Y-003681
X013504Y-003051
X013504Y-001791
X013504Y-000531
X013504Y000728
X013504Y001988
X013504Y003248
X013504Y003878
X013504Y007421
X013504Y008051
X013504Y009311
X013504Y010571
X013504Y011831
X013504Y013091
X013504Y014350
X013504Y014980
X013504Y018524
X013504Y019154
X013504Y020413
X013504Y021673
X013504Y022933
X013504Y024193
X013504Y025453
X013504Y026083
X013504Y030217
X013504Y031220
X013642Y-023425
X013642Y-022598
X013701Y-021240
X013758Y029407
X013766Y029907
X013819Y-014783
X013819Y-014469
X013819Y-013839
X013819Y-012579
X013819Y-009429
X013819Y-008169
X013819Y-007539
X013819Y-007224
X013819Y-003681
X013819Y-003366
X013819Y-002736
X013819Y-001476
X013819Y001673
X013819Y002933
X013819Y003563
X013819Y003878
X013819Y007421
X013819Y007736
X013819Y008366
X013819Y009626
X013819Y012776
X013819Y014035
X013819Y014665
X013819Y014980
X013819Y018524
X013819Y018839
X013819Y019469
X013819Y020728
X013819Y022933
X013819Y023878
X013819Y025138
X013819Y025768
X013819Y026083
X013898Y-017539
X013937Y-016240
X013976Y-023110
X013976Y-022303
X014055Y-015394
X014134Y-014783
X014134Y-014469
X014134Y-013524
X014134Y-012894
X014134Y-012579
X014134Y-012264
X014134Y-011949
X014134Y-011634
X014134Y-011319
X014134Y-011004
X014134Y-010689
X014134Y-010374
X014134Y-010059
X014134Y-009744
X014134Y-009429
X014134Y-009114
X014134Y-008484
X014134Y-007539
X014134Y-007224
X014055Y-005453
X014134Y-003681
X014134Y-003366
X014134Y-002421
X014134Y-001791
X014134Y-001476
X014134Y-001161
X014134Y-000846
X014134Y-000531
X014134Y-000217
X014134Y000098
X014134Y000413
X014134Y000728
X014134Y001043
X014134Y001358
X014134Y001673
X014134Y001988
X014134Y002618
X014134Y003563
X014134Y003878
X014055Y005610
X014134Y007421
X014134Y007736
X014134Y008681
X014134Y009311
X014134Y009626
X014134Y009941
X014134Y010256
X014134Y010571
X014134Y010886
X014134Y011201
X014134Y011516
X014134Y011831
X014134Y012146
X014134Y012461
X014134Y012776
X014134Y013091
X014134Y013720
X014134Y014665
X014134Y014980
X014055Y016752
X014134Y018524
X014134Y018839
X014134Y019783
X014134Y020413
X014134Y020728
X014134Y021043
X014134Y021358
X014134Y021673
X014134Y021988
X014134Y022303
X014134Y022618
X014134Y022933
X014134Y023248
X014134Y023563
X014134Y023878
X014134Y024193
X014134Y024823
X014134Y025768
X014134Y026083
X014055Y026693
X014449Y-014783
X014449Y-014469
X014449Y-013524
X014449Y-013209
X014449Y-012894
X014449Y-012579
X014449Y-012264
X014449Y-011949
X014449Y-011634
X014449Y-010374
X014449Y-010059
X014449Y-009744
X014449Y-009429
X014449Y-009114
X014449Y-008799
X014449Y-008484
X014449Y-007539
X014449Y-007224
X014449Y-003681
X014449Y-003366
X014449Y-002421
X014449Y-002106
X014449Y-001791
X014449Y-001476
X014449Y-001161
X014449Y-000846
X014449Y-000531
X014449Y000728
X014449Y001043
X014449Y001358
X014449Y001673
X014449Y001988
X014449Y002303
X014449Y002618
X014449Y003563
X014449Y003878
X014449Y007421
X014449Y007736
X014449Y008681
X014449Y008996
X014449Y009311
X014449Y009626
X014449Y009941
X014449Y010256
X014449Y010571
X014449Y011831
X014449Y012146
X014449Y012461
X014449Y012776
X014449Y013091
X014449Y013406
X014449Y013720
X014449Y014665
X014449Y014980
X014449Y018524
X014449Y018839
X014449Y019783
X014449Y020098
X014449Y020413
X014449Y020728
X014449Y021043
X014449Y021358
X014449Y021673
X014449Y022618
X014449Y022933
X014449Y023248
X014449Y023563
X014449Y023878
X014449Y024193
X014449Y024508
X014449Y024823
X014449Y025768
X014449Y026083
X014488Y-021240
X014488Y-017539
X014488Y-016240
X014620Y027959
X014685Y-021240
X014705Y-022598
X014764Y-014783
X014764Y-014469
X014764Y-014154
X014764Y-013524
X014764Y-012894
X014764Y-012579
X014764Y-011949
X014764Y-011634
X014764Y-011319
X014764Y-010689
X014764Y-010374
X014764Y-010059
X014764Y-009744
X014764Y-009429
X014764Y-009114
X014764Y-008799
X014764Y-008484
X014764Y-007854
X014764Y-007539
X014764Y-007224
X014764Y-003681
X014764Y-003366
X014764Y-003051
X014764Y-002421
X014764Y-001791
X014764Y-001476
X014764Y-000846
X014764Y-000531
X014764Y-000217
X014764Y000413
X014764Y000728
X014764Y001043
X014764Y001358
X014764Y001673
X014764Y001988
X014764Y002303
X014764Y002618
X014764Y003248
X014764Y003563
X014764Y003878
X014764Y007421
X014764Y007736
X014764Y008051
X014764Y008681
X014764Y009311
X014764Y009626
X014764Y010256
X014764Y010571
X014764Y010886
X014764Y011516
X014764Y011831
X014764Y012146
X014764Y012461
X014764Y012776
X014764Y013091
X014764Y013406
X014764Y013720
X014764Y014350
X014764Y014665
X014764Y014980
X014764Y018524
X014764Y018839
X014764Y019154
X014764Y019783
X014764Y020413
X014764Y020728
X014764Y021358
X014764Y021673
X014764Y021988
X014764Y022618
X014764Y022933
X014764Y023248
X014764Y023563
X014764Y023878
X014764Y024193
X014764Y024508
X014764Y024823
X014764Y025453
X014764Y025768
X014764Y026083
X014855Y030410
X014865Y030912
X015059Y-016240
X015079Y-021240
X015079Y-017539
X015079Y-014783
X015079Y-014469
X015079Y-013839
X015079Y-013524
X015079Y-013209
X015079Y-012894
X015079Y-011004
X015079Y-009114
X015079Y-008799
X015079Y-008484
X015079Y-008169
X015079Y-007539
X015079Y-007224
X015079Y-003681
X015079Y-003366
X015079Y-002736
X015079Y-002421
X015079Y-002106
X015079Y-001791
X015079Y000098
X015079Y001988
X015079Y002303
X015079Y002618
X015079Y002933
X015079Y003563
X015079Y003878
X015079Y007421
X015079Y007736
X015079Y008366
X015079Y008681
X015079Y008996
X015079Y009311
X015079Y011201
X015079Y013091
X015079Y013406
X015079Y013720
X015079Y014035
X015079Y014665
X015079Y014980
X015079Y018524
X015079Y018839
X015079Y019469
X015079Y019783
X015079Y020098
X015079Y020413
X015079Y022303
X015079Y024193
X015079Y024508
X015079Y024823
X015079Y025138
X015079Y025768
X015079Y026083
X015256Y-022559
X015315Y-006260
X015315Y004843
X015315Y015945
X015315Y027047
X015394Y-014469
X015394Y-013524
X015394Y-013209
X015394Y-009114
X015394Y-008799
X015394Y-008484
X015394Y-007539
X015394Y-003366
X015394Y-002421
X015394Y-002106
X015394Y001988
X015394Y002303
X015394Y002618
X015394Y003563
X015394Y007736
X015394Y008681
X015394Y008996
X015394Y013091
X015394Y013406
X015394Y013720
X015394Y014665
X015394Y018839
X015394Y019783
X015394Y020098
X015394Y024193
X015394Y024508
X015394Y024823
X015394Y025768
X015472Y-021240
X015593Y029407
X015612Y030907
X015709Y-014783
X015709Y-014469
X015709Y-013524
X015709Y-013209
X015709Y-012894
X015709Y-011949
X015709Y-011634
X015709Y-011319
X015709Y-010689
X015709Y-010374
X015709Y-010059
X015709Y-009114
X015709Y-008799
X015709Y-008484
X015709Y-007539
X015709Y-007224
X015709Y-003681
X015709Y-003366
X015709Y-002421
X015709Y-002106
X015709Y-001791
X015709Y-000846
X015709Y-000531
X015709Y-000217
X015709Y000413
X015709Y000728
X015709Y001043
X015709Y001988
X015709Y002303
X015709Y002618
X015709Y003563
X015709Y003878
X015709Y007421
X015709Y007736
X015709Y008681
X015709Y008996
X015709Y009311
X015709Y010256
X015709Y010571
X015709Y010886
X015709Y011516
X015709Y011831
X015709Y012146
X015709Y013091
X015709Y013406
X015709Y013720
X015709Y014665
X015709Y014980
X015709Y018524
X015709Y018839
X015709Y019783
X015709Y020098
X015709Y020413
X015709Y021358
X015709Y021673
X015709Y021988
X015709Y022618
X015709Y022933
X015709Y023248
X015709Y024193
X015709Y024508
X015709Y024823
X015709Y025768
X015709Y026083
X015807Y-022559
X015984Y-006260
X016024Y-014154
X016024Y-013524
X016024Y-013209
X016024Y-012894
X016024Y-011949
X016024Y-011634
X016024Y-011319
X016024Y-010689
X016024Y-010374
X016024Y-010059
X016024Y-009114
X016024Y-008799
X016024Y-008484
X016024Y-007854
X016024Y-003051
X016024Y-002421
X016024Y-002106
X016024Y-001791
X016024Y-000846
X016024Y-000531
X016024Y-000217
X016024Y000413
X016024Y000728
X016024Y001043
X016024Y001988
X016024Y002303
X016024Y002618
X016024Y003248
X015984Y004843
X016024Y008051
X016024Y008681
X016024Y008996
X016024Y009311
X016024Y010256
X016024Y010571
X016024Y010886
X016024Y011516
X016024Y011831
X016024Y012146
X016024Y013091
X016024Y013406
X016024Y013720
X016024Y014350
X015984Y015945
X016024Y019154
X016024Y019783
X016024Y020098
X016024Y020413
X016024Y021358
X016024Y021673
X016024Y021988
X016024Y022618
X016024Y022933
X016024Y023248
X016024Y024193
X016024Y024508
X016024Y024823
X016024Y025453
X015984Y027047
X016063Y-021220
X016063Y-016752
X016339Y-013209
X016339Y-012894
X016339Y-011949
X016339Y-011634
X016339Y-011319
X016339Y-010689
X016339Y-010374
X016339Y-010059
X016339Y-009114
X016339Y-008799
X016339Y-002106
X016339Y-001791
X016339Y-000846
X016339Y-000531
X016339Y-000217
X016339Y000413
X016339Y000728
X016339Y001043
X016339Y001988
X016339Y002303
X016339Y008996
X016339Y009311
X016339Y010256
X016339Y010571
X016339Y010886
X016339Y011516
X016339Y011831
X016339Y012146
X016339Y013091
X016339Y013406
X016339Y020098
X016339Y020413
X016339Y021358
X016339Y021673
X016339Y021988
X016339Y022618
X016339Y022933
X016339Y023248
X016339Y024193
X016339Y024508
X016339Y024823
X016437Y-020276
X016437Y-020079
X016437Y-018701
X016654Y-013839
X016654Y-012894
X016654Y-009429
X016654Y-008484
X016654Y-002736
X016654Y-001791
X016654Y001673
X016654Y002618
X016654Y008366
X016654Y009311
X016654Y012776
X016654Y013720
X016654Y019469
X016654Y020413
X016654Y023878
X016654Y024823
X016909Y-022756
X016909Y-022382
X016969Y-013209
X016969Y-012894
X016969Y-011949
X016969Y-011634
X016969Y-011319
X016969Y-010689
X016969Y-010374
X016969Y-010059
X016969Y-008799
X016969Y-002106
X016969Y-001791
X016969Y-000846
X016969Y-000531
X016969Y-000217
X016969Y000413
X016969Y000728
X016969Y001043
X016969Y002303
X016969Y008996
X016969Y009311
X016969Y010256
X016969Y010571
X016969Y010886
X016969Y011516
X016969Y011831
X016969Y012146
X016969Y013406
X016969Y020098
X016969Y020413
X016969Y021358
X016969Y021673
X016969Y021988
X016969Y022618
X016969Y022933
X016969Y023248
X016969Y024508
X017224Y-020669
X017224Y-020472
X017224Y-019882
X017224Y-019685
X017224Y-019488
X017224Y-019291
X017224Y-019094
X017224Y-018898
X017224Y-018504
X017224Y-018307
X017224Y-018110
X017224Y-017913
X017283Y-014154
X017283Y-013524
X017283Y-013209
X017283Y-012894
X017283Y-011949
X017283Y-011634
X017283Y-011319
X017283Y-010689
X017283Y-010374
X017283Y-010059
X017283Y-009114
X017283Y-008799
X017283Y-008484
X017283Y-007854
X017283Y-003051
X017283Y-002421
X017283Y-002106
X017283Y-001791
X017283Y-000846
X017283Y-000531
X017283Y-000217
X017283Y000413
X017283Y000728
X017283Y001043
X017283Y001988
X017283Y002303
X017283Y002618
X017283Y003248
X017283Y008051
X017283Y008681
X017283Y008996
X017283Y009311
X017283Y010256
X017283Y010571
X017283Y010886
X017283Y011516
X017283Y011831
X017283Y012146
X017283Y013091
X017283Y013406
X017283Y013720
X017283Y014350
X017283Y019154
X017283Y019783
X017283Y020098
X017283Y020413
X017283Y021358
X017283Y021673
X017283Y021988
X017283Y022618
X017283Y022933
X017283Y023248
X017283Y024193
X017283Y024508
X017283Y024823
X017283Y025453
X017224Y029902
X017224Y030413
X017224Y030925
X017303Y-021476
X017323Y-006260
X017323Y004843
X017323Y015945
X017323Y027047
X017598Y-014783
X017598Y-014469
X017598Y-013524
X017598Y-013209
X017598Y-012894
X017598Y-011949
X017598Y-011634
X017598Y-011319
X017598Y-011004
X017598Y-010689
X017598Y-010374
X017598Y-010059
X017598Y-009114
X017598Y-008799
X017598Y-008484
X017598Y-007539
X017598Y-007224
X017598Y-003681
X017598Y-003366
X017598Y-002421
X017598Y-002106
X017598Y-001791
X017598Y-000846
X017598Y-000531
X017598Y-000217
X017598Y000098
X017598Y000413
X017598Y000728
X017598Y001043
X017598Y001988
X017598Y002303
X017598Y002618
X017598Y003563
X017598Y003878
X017598Y007421
X017598Y007736
X017598Y008681
X017598Y008996
X017598Y009311
X017598Y010256
X017598Y010571
X017598Y010886
X017598Y011201
X017598Y011516
X017598Y011831
X017598Y012146
X017598Y013091
X017598Y013406
X017598Y013720
X017598Y014665
X017598Y014980
X017598Y018524
X017598Y018839
X017598Y019783
X017598Y020098
X017598Y020413
X017598Y021358
X017598Y021673
X017598Y021988
X017598Y022303
X017598Y022618
X017598Y022933
X017598Y023248
X017598Y024193
X017598Y024508
X017598Y024823
X017598Y025768
X017598Y026083
X017756Y-020177
X017815Y-018701
X017894Y-019370
X017913Y-014469
X017913Y-013524
X017913Y-013209
X017913Y-012894
X017913Y-009114
X017913Y-008799
X017913Y-008484
X017913Y-007539
X017913Y-003366
X017913Y-002421
X017913Y-002106
X017913Y-001791
X017913Y001988
X017913Y002303
X017913Y002618
X017913Y003563
X017992Y004843
X017913Y007736
X017913Y008681
X017913Y008996
X017913Y009311
X017913Y013091
X017913Y013406
X017913Y013720
X017913Y014665
X017913Y018839
X017913Y019469
X017913Y019783
X017913Y020098
X017913Y020413
X017913Y024193
X017913Y024508
X017913Y024823
X017913Y025138
X017913Y025768
X017992Y027047
X017992Y-006260
X018051Y-018366
X018051Y-017835
X017992Y015945
X018209Y-022244
X018228Y-014783
X018228Y-014469
X018228Y-013839
X018228Y-013524
X018228Y-013209
X018228Y-012894
X018228Y-011004
X018228Y-008799
X018228Y-008484
X018228Y-008169
X018228Y-007539
X018228Y-007224
X018228Y-003681
X018228Y-003366
X018228Y-002736
X018228Y-002421
X018228Y-002106
X018228Y-001791
X018228Y000098
X018228Y002303
X018228Y002618
X018228Y002933
X018228Y003563
X018228Y003878
X018228Y007421
X018228Y007736
X018228Y008366
X018228Y008681
X018228Y008996
X018228Y009311
X018228Y011201
X018228Y013406
X018228Y013720
X018228Y014035
X018228Y014665
X018228Y014980
X018228Y018524
X018228Y018839
X018228Y019154
X018228Y019469
X018228Y019783
X018228Y020098
X018228Y020413
X018228Y022303
X018228Y024508
X018228Y024823
X018228Y025138
X018228Y025453
X018228Y025768
X018228Y026083
X018248Y-020650
X018248Y-020453
X018248Y-020256
X018248Y-020059
X018248Y-019862
X018248Y-019665
X018543Y-014783
X018543Y-014469
X018543Y-014154
X018543Y-013524
X018543Y-012894
X018543Y-012579
X018543Y-012264
X018543Y-011949
X018543Y-011634
X018543Y-010689
X018543Y-010374
X018543Y-010059
X018543Y-009744
X018543Y-009114
X018543Y-008484
X018543Y-007854
X018543Y-007539
X018543Y-007224
X018543Y-003681
X018543Y-003366
X018543Y-003051
X018543Y-002421
X018543Y-001791
X018543Y-001476
X018543Y-001161
X018543Y-000846
X018543Y-000531
X018543Y000413
X018543Y000728
X018543Y001043
X018543Y001358
X018543Y001988
X018543Y002618
X018543Y003248
X018543Y003563
X018543Y003878
X018543Y007421
X018543Y007736
X018543Y008051
X018543Y008681
X018543Y009311
X018543Y009626
X018543Y009941
X018543Y010256
X018543Y010571
X018543Y011516
X018543Y011831
X018543Y012146
X018543Y012461
X018543Y013091
X018543Y013720
X018543Y014350
X018543Y014665
X018543Y014980
X018543Y018524
X018543Y018839
X018543Y019154
X018543Y019469
X018543Y019783
X018543Y020413
X018543Y020728
X018543Y021043
X018543Y021358
X018543Y021673
X018543Y022618
X018543Y022933
X018543Y023248
X018543Y023563
X018543Y023878
X018543Y024193
X018543Y024823
X018543Y025138
X018543Y025453
X018543Y025768
X018543Y026083
X018583Y-018366
X018740Y-018799
X018583Y-017835
X018780Y-021201
X018780Y-019114
X018858Y-014783
X018858Y-014469
X018858Y-013524
X018858Y-013209
X018858Y-012894
X018858Y-012579
X018858Y-012264
X018858Y-011949
X018858Y-011634
X018858Y-010374
X018858Y-010059
X018858Y-009744
X018858Y-009429
X018858Y-009114
X018858Y-008799
X018858Y-008484
X018858Y-007539
X018858Y-007224
X018858Y-003681
X018858Y-003366
X018858Y-002421
X018858Y-002106
X018858Y-001791
X018858Y-001476
X018858Y-001161
X018858Y-000846
X018858Y-000531
X018858Y000728
X018858Y001043
X018858Y001358
X018858Y001673
X018858Y001988
X018858Y002303
X018858Y002618
X018858Y003563
X018858Y003878
X018858Y007421
X018858Y007736
X018858Y008681
X018858Y008996
X018858Y009311
X018858Y009626
X018858Y009941
X018858Y010256
X018858Y010571
X018858Y011831
X018858Y012146
X018858Y012461
X018858Y012776
X018858Y013091
X018858Y013406
X018858Y013720
X018858Y014665
X018858Y014980
X018858Y018524
X018858Y018839
X018858Y019154
X018858Y019469
X018858Y019783
X018858Y020098
X018858Y020413
X018858Y020728
X018858Y021043
X018858Y021358
X018858Y021673
X018858Y022933
X018858Y023248
X018858Y023563
X018858Y023878
X018858Y024193
X018858Y024508
X018858Y024823
X018858Y025138
X018858Y025453
X018858Y025768
X018858Y026083
X018976Y-021201
X019173Y-021201
X018976Y-019114
X019173Y-017480
X019173Y-014783
X019173Y-014469
X019173Y-013524
X019173Y-012894
X019173Y-012579
X019173Y-012264
X019173Y-011949
X019173Y-011634
X019173Y-011319
X019173Y-011004
X019173Y-010689
X019173Y-010374
X019173Y-010059
X019173Y-009744
X019173Y-009429
X019173Y-009114
X019173Y-008484
X019173Y-007539
X019173Y-007224
X019173Y-003681
X019173Y-003366
X019173Y-002421
X019173Y-001791
X019173Y-001476
X019173Y-001161
X019173Y-000846
X019173Y-000531
X019173Y-000217
X019173Y000098
X019173Y000413
X019173Y000728
X019173Y001043
X019173Y001358
X019173Y001673
X019173Y001988
X019173Y002618
X019173Y003563
X019173Y003878
X019173Y007421
X019173Y007736
X019173Y008681
X019173Y009311
X019173Y009626
X019173Y009941
X019173Y010256
X019173Y010571
X019173Y010886
X019173Y011201
X019173Y011516
X019173Y011831
X019173Y012146
X019173Y012461
X019173Y012776
X019173Y013091
X019173Y013720
X019173Y014665
X019173Y014980
X019173Y018524
X019173Y018839
X019173Y019154
X019173Y019469
X019173Y019783
X019173Y020413
X019173Y020728
X019173Y021043
X019173Y021358
X019173Y021673
X019173Y021988
X019173Y022303
X019173Y022618
X019173Y022933
X019173Y023248
X019173Y023563
X019173Y023878
X019173Y024193
X019173Y024823
X019173Y025138
X019173Y025453
X019173Y025768
X019173Y026083
X019252Y016752
X019252Y026693
X019252Y-015394
X019252Y-005453
X019252Y005610
X019370Y-021201
X019370Y-019114
X019409Y-018189
X019488Y-014783
X019488Y-014469
X019488Y-013839
X019488Y-012579
X019488Y-009429
X019488Y-008169
X019488Y-007539
X019488Y-007224
X019488Y-003681
X019488Y-003366
X019488Y-002736
X019488Y-001476
X019488Y001673
X019488Y002933
X019488Y003563
X019488Y003878
X019488Y007421
X019488Y007736
X019488Y008366
X019488Y009626
X019488Y012776
X019488Y014035
X019488Y014665
X019488Y014980
X019488Y018524
X019488Y018839
X019488Y019154
X019488Y019469
X019488Y019783
X019488Y020098
X019488Y020413
X019488Y020728
X019488Y021043
X019488Y021358
X019488Y021673
X019488Y022933
X019488Y023248
X019488Y023563
X019488Y023878
X019488Y024193
X019488Y024508
X019488Y024823
X019488Y025138
X019488Y025453
X019488Y025768
X019488Y026083
X019547Y-017480
X019567Y-021201
X019567Y-019114
X019626Y-016555
X019764Y-019114
X019803Y-014783
X019803Y-014154
X019803Y-012894
X019803Y-009114
X019803Y-007854
X019803Y-007224
X019803Y-003681
X019803Y-003051
X019803Y-001791
X019803Y001988
X019803Y003248
X019803Y003878
X019803Y007421
X019803Y008051
X019803Y009311
X019803Y013091
X019803Y014350
X019803Y014980
X019803Y018524
X019803Y019154
X019803Y019469
X019803Y019783
X019803Y020098
X019803Y020413
X019803Y020728
X019803Y021043
X019803Y021358
X019803Y023248
X019803Y023563
X019803Y023878
X019803Y024193
X019803Y024508
X019803Y024823
X019803Y025138
X019803Y025453
X019803Y026083
X019921Y-017480
X020059Y-021713
X020059Y-021181
X020118Y-014783
X020118Y-014469
X020118Y-014154
X020118Y-013839
X020118Y-013524
X020118Y-013209
X020118Y-012894
X020118Y-012579
X020118Y-011949
X020118Y-010689
X020118Y-010374
X020118Y-010059
X020118Y-009429
X020118Y-009114
X020118Y-008799
X020118Y-008484
X020118Y-008169
X020118Y-007854
X020118Y-007539
X020118Y-007224
X020118Y-003681
X020118Y-003366
X020118Y-003051
X020118Y-002736
X020118Y-002421
X020118Y-002106
X020118Y-001791
X020118Y-001476
X020118Y-000846
X020118Y000413
X020118Y000728
X020118Y001043
X020118Y001673
X020118Y001988
X020118Y002303
X020118Y002618
X020118Y002933
X020118Y003248
X020118Y003563
X020118Y003878
X020118Y007421
X020118Y007736
X020118Y008051
X020118Y008366
X020118Y008681
X020118Y008996
X020118Y009311
X020118Y009626
X020118Y010256
X020118Y011516
X020118Y011831
X020118Y012146
X020118Y012776
X020118Y013091
X020118Y013406
X020118Y013720
X020118Y014035
X020118Y014350
X020118Y014665
X020118Y014980
X020118Y018524
X020118Y018839
X020118Y019154
X020118Y019469
X020118Y019783
X020118Y020098
X020118Y020413
X020118Y020728
X020118Y021358
X020118Y022618
X020118Y022933
X020118Y023248
X020118Y023878
X020118Y024193
X020118Y024508
X020118Y024823
X020118Y025138
X020118Y025453
X020118Y025768
X020118Y026083
X020157Y-016555
X020315Y-020256
X020315Y-020059
X020433Y-014783
X020433Y-014469
X020433Y-013839
X020433Y-013524
X020433Y-013209
X020433Y-012894
X020433Y-012579
X020433Y-012264
X020433Y-011949
X020433Y-010059
X020433Y-009744
X020433Y-009429
X020433Y-009114
X020433Y-008799
X020433Y-008484
X020433Y-008169
X020433Y-007539
X020433Y-007224
X020433Y-003681
X020433Y-003366
X020433Y-002736
X020433Y-002421
X020433Y-002106
X020433Y-001791
X020433Y-001476
X020433Y-001161
X020433Y-000846
X020433Y001043
X020433Y001358
X020433Y001673
X020433Y001988
X020433Y002303
X020433Y002618
X020433Y002933
X020433Y003563
X020433Y003878
X020433Y007421
X020433Y007736
X020433Y008366
X020433Y008681
X020433Y008996
X020433Y009311
X020433Y009626
X020433Y009941
X020433Y010256
X020433Y012146
X020433Y012461
X020433Y012776
X020433Y013091
X020433Y013406
X020433Y013720
X020433Y014035
X020433Y014665
X020433Y014980
X020433Y018524
X020433Y018839
X020433Y019469
X020433Y019783
X020433Y020098
X020433Y020413
X020433Y020728
X020433Y021043
X020433Y021358
X020433Y023248
X020433Y023563
X020433Y023878
X020433Y024193
X020433Y024508
X020433Y024823
X020433Y025138
X020433Y025768
X020433Y026083
X020551Y-016850
X020630Y-015394
X020630Y-005453
X020630Y005610
X020630Y026693
X020630Y016752
X020650Y-028858
X021043Y-014980
X021043Y-013603
X021043Y-008405
X021043Y-007028
X021043Y-003878
X021043Y-002500
X021043Y002697
X021043Y004074
X021043Y007225
X021043Y008602
X021043Y013800
X021043Y015177
X021043Y018327
X021043Y019704
X021043Y024902
X021043Y026279
X021398Y-021358
X022008Y-010571
X022008Y-010039
X022421Y-017126
X022480Y-014646
X022480Y-013386
X022913Y016260
X023071Y-017559
T7C0.0472F200S100
X-023126Y-004240
X-023126Y-003240
X-023126Y-002240
X-023126Y-001240
X-023126Y-000240
X-023126Y000760
X-023126Y001760
X-023126Y002760
X-023126Y003760
X-023126Y004760
X-023126Y005760
X-023126Y006760
X-023126Y007760
X-023126Y008760
X-023126Y009760
X-023126Y010760
X-023126Y011760
X-023126Y012760
X-023126Y013760
X-023126Y014760
X-023126Y015760
X-023126Y016760
X-023126Y017760
X-023126Y018760
X-023126Y019760
X-023126Y020760
X-023126Y021760
X-023126Y022760
X-023126Y023760
X-023126Y024760
X-023126Y025760
X-023126Y026760
X-022252Y-019567
X-022126Y-004240
X-022126Y-003240
X-022126Y-002240
X-022126Y-001240
X-022126Y-000240
X-022126Y000760
X-022126Y001768
X-022126Y002760
X-022126Y003760
X-022126Y004760
X-022126Y005760
X-022126Y006760
X-022126Y007760
X-022126Y008760
X-022126Y009760
X-022126Y010760
X-022126Y011760
X-022126Y012760
X-022126Y013760
X-022126Y014760
X-022126Y015760
X-022126Y016760
X-022126Y017760
X-022126Y018760
X-022126Y019760
X-022126Y020760
X-022126Y021760
X-022126Y022760
X-022126Y023760
X-022126Y024760
X-022126Y025760
X-022126Y026760
X-020252Y-019567
X-019252Y-019567
X-018252Y-019567
X-009063Y-034717
X-008063Y-034717
X-001969Y028031
X-000969Y028031
X000031Y028031
X001031Y028031
X002041Y028031
X006508Y-023059
X006508Y-022059
X006508Y-021059
X006508Y-020059
X006508Y-019059
X006508Y-018059
X006508Y-017059
X007933Y-021705
X007933Y-020705
X007933Y-019705
X016594Y-034665
X016594Y-033665
X016594Y-032665
X016594Y-031665
X016594Y-029665
X016614Y-030630
X022126Y-004240
X022126Y-003240
X022126Y-002240
X022126Y-001240
X022126Y-000240
X022126Y000760
X022126Y001760
X022126Y002760
X022126Y003760
X022126Y004760
X022126Y005760
X022126Y006760
X022126Y007760
X022126Y008760
X022126Y009760
X022126Y010760
X022126Y011760
X022126Y012760
X022126Y013760
X022126Y014760
X022126Y015760
X022126Y016760
X022126Y017760
X022126Y018760
X022126Y019760
X022126Y020752
X022126Y021760
X022126Y022760
X022126Y023760
X022126Y024760
X022126Y025760
X022126Y026760
X023126Y-004240
X023126Y-003240
X023126Y-002240
X023126Y-001240
X023126Y-000240
X023126Y000760
X023126Y001760
X023126Y002760
X023126Y003760
X023126Y004760
X023126Y005760
X023126Y006760
X023126Y007760
X023126Y008760
X023126Y009760
X023126Y010760
X023126Y011760
X023126Y012760
X023126Y013760
X023126Y014760
X023126Y015760
X023126Y016760
X023126Y017760
X023126Y018760
X023126Y019760
X023126Y020760
X023126Y021760
X023126Y022760
X023126Y023760
X023126Y024760
X023126Y025760
X023126Y026760
T2C0.0157F200S100
X-016496Y-035039
X-016496Y-034646
X-016496Y-034252
X-016496Y-033858
X-016496Y-033465
X-016476Y-024469
X-016476Y-024094
X-016102Y-035039
X-016102Y-034646
X-016102Y-034252
X-016102Y-033858
X-016102Y-033465
X-012913Y-030571
X-012913Y-030177
X-012913Y-029409
X-012913Y-029016
X-016102Y-024469
X-016102Y-024094
X-012657Y028583
X-012657Y029252
X-012520Y-030571
X-012520Y-030177
X-012520Y-029409
X-012520Y-029016
X-012126Y-030571
X-012126Y-030177
X-012126Y-029409
X-012126Y-029016
X-012028Y028583
X-012028Y029252
X-011732Y-030571
X-011732Y-030177
X-011339Y-030571
X-011339Y-030177
X-011339Y-029409
X-011732Y-029409
X-011732Y-029016
X-011339Y-029016
X000000Y005630
X004488Y-029961
X004488Y-029449
X004488Y-028937
X004488Y-028425
X004488Y-027913
X005000Y-029961
X005000Y-029449
X005000Y-028937
X005000Y-028425
X005000Y-027913
X005512Y-029961
X005512Y-029449
X005512Y-028937
X005512Y-028425
X005512Y-027913
X006024Y-029961
X006024Y-029449
X006024Y-028937
X006024Y-028425
X006024Y-027913
X009902Y028524
X009902Y029173
X010512Y028524
X010512Y029173
X010610Y-029508
X010610Y-029114
X011004Y-029508
X011004Y-029114
X011398Y-029508
X011398Y-029114
X011791Y-029508
X011791Y-029114
X012185Y-029508
X012185Y-029114
X014154Y-019843
X014173Y-018957
X015000Y-018957
X015020Y-019803
X016634Y-028465
X016634Y-027953
X016634Y-027441
X016634Y-026929
X016634Y-026417
X017146Y-028465
X017146Y-027953
X017146Y-027441
X017146Y-026929
X017146Y-026417
X017657Y-028465
X017657Y-027953
X017657Y-027441
X017657Y-026929
X017657Y-026417
X018169Y-028465
X018169Y-027953
X018169Y-027441
X018169Y-026929
X018169Y-026417
X019016Y-020374
X019016Y-019941
X019528Y-020374
X019528Y-019941
X021575Y-023622
X021575Y-023228
X021969Y-023622
X021969Y-023228
X022362Y-023622
X022362Y-023228
X022756Y-025413
X022756Y-025059
X022756Y-024705
X022756Y-024350
X022756Y-023996
X022756Y-023622
X022756Y-023228
X023150Y-025413
X023150Y-025059
X023150Y-024705
X023150Y-024350
X023150Y-023996
X023150Y-023622
X023150Y-023228
T5C0.0394F200S100
X-021752Y-026969
X-020571Y-025118
X-019390Y-026969
X-018386Y-025886
X-017913Y-027854
X-010512Y-025591
X-009528Y-032047
X-007559Y-032047
X-006941Y034945
X-006575Y-025591
X-006081Y030846
X-005941Y034945
X-005581Y029846
X-005081Y030846
X-004581Y029846
X-004081Y030846
X-003581Y029846
X-003081Y030846
X-002720Y034945
X-002581Y029846
X-001720Y034945
X001720Y034945
X002581Y030846
X002720Y034945
X003081Y029846
X003581Y030846
X004081Y029846
X004581Y030846
X005081Y029846
X005581Y030846
X005941Y034945
X006081Y029846
X006941Y034945
T8C0.0551F200S100
X-005453Y-033307
X-005453Y-029559
X-005453Y-025811
X-000453Y-034559
X-000453Y-024559
X000799Y-034559
X002051Y-034559
X002051Y-024559
X000799Y-024559
X007051Y-034559
X007051Y-029559
X007051Y-028307
X007051Y-024559
T6C0.0450F200S100
X011915Y-028103
X011915Y-026853
X011915Y-025603
X011915Y-024353
X019415Y-028103
X019415Y-024353
T4C0.0354F200S100
X-022756Y-023622
X-022756Y-022835
X-022756Y-022047
T9C0.0591F200S100
X-022756Y-024449
X-022756Y-021220
T11C0.1260F200S100
X-019047Y-030858
X019047Y-030858
X019047Y030858
X-019047Y030858
T12C0.1279F200S100
X-006581Y033346
X-002081Y033346
X002081Y033346
X006581Y033346
T10C0.0669F200S100
X-007380Y032146
X-001281Y032146
X001281Y032146
X007380Y032146
T3C0.0314F200S100
X-022047Y028425
X-021260Y028425
X021260Y028425
X022047Y028425
M30
