*
G04 Mass Parameters ***
*
G04 Image ***
*
%INV:\DEV\A005\CAD\XMP-64A_1-1_9.SMB*%
%ICAS*%
%MOIN*%
%IPPOS*%
%ASAXBY*%
G74*%FSLAN2X34Y34*%
*
G04 Aperture Definitions ***
*
%AMTHERMAL90*
1,1,0.0866,0,0,*
1,0,0.0630,0,0,*
21,0,0.0867,0.0197,0,0,45.0*
21,0,0.0867,0.0197,0,0,135.0*%
%AMTHERMAL94*
1,1,0.0628,0,0,*
1,0,0.0472,0,0,*
21,0,0.0629,0.0079,0,0,45.0*
21,0,0.0629,0.0079,0,0,135.0*%
%AMTHERMAL96*
1,1,0.0943,0,0,*
1,0,0.0708,0,0,*
21,0,0.0944,0.0197,0,0,225.0*
21,0,0.0944,0.0197,0,0,315.0*%
%AMTHERMAL98*
1,1,0.0943,0,0,*
1,0,0.0708,0,0,*
21,0,0.0944,0.0197,0,0,45.0*
21,0,0.0944,0.0197,0,0,135.0*%
%AMTHERMAL107*
1,1,0.0943,0,0,*
1,0,0.0708,0,0,*
21,0,0.0944,0.0197,0,0,315.0*
21,0,0.0944,0.0197,0,0,45.0*%
%AMTHERMAL109*
1,1,0.0943,0,0,*
1,0,0.0708,0,0,*
21,0,0.0944,0.0197,0,0,135.0*
21,0,0.0944,0.0197,0,0,225.0*%
%AMTHERMAL118*
1,1,0.0786,0,0,*
1,0,0.0630,0,0,*
21,0,0.0787,0.0079,0,0,45.0*
21,0,0.0787,0.0079,0,0,135.0*%
%AMTHERMAL120*
1,1,0.1023,0,0,*
1,0,0.0787,0,0,*
21,0,0.1024,0.0197,0,0,225.0*
21,0,0.1024,0.0197,0,0,315.0*%
%AMTHERMAL123*
1,1,0.0921,0,0,*
1,0,0.0686,0,0,*
21,0,0.0922,0.0197,0,0,225.0*
21,0,0.0922,0.0197,0,0,315.0*%
%AMTHERMAL135*
1,1,0.0708,0,0,*
1,0,0.0552,0,0,*
21,0,0.0709,0.0079,0,0,45.0*
21,0,0.0709,0.0079,0,0,135.0*%
%AMTHERMAL139*
1,1,0.0786,0,0,*
1,0,0.0630,0,0,*
21,0,0.0787,0.0079,0,0,135.0*
21,0,0.0787,0.0079,0,0,225.0*%
%ADD10C,0.0787*%
%ADD11C,0.0630*%
%ADD12C,0.0550*%
%ADD13C,0.0709*%
%ADD14R,0.0709X0.0709*%
%ADD15C,0.0591*%
%ADD16C,0.0866*%
%ADD17C,0.1378*%
%ADD18R,0.0394X0.0551*%
%ADD19C,0.2756*%
%ADD20O,0.1575X0.0787*%
%ADD21O,0.0787X0.1575*%
%ADD22O,0.0787X0.1772*%
%ADD23C,0.0315*%
%ADD24C,0.0157*%
%ADD25C,0.0177*%
%ADD26C,0.1181*%
%ADD27C,0.0750*%
%ADD28R,0.0750X0.0750*%
%ADD29C,0.0079*%
%ADD30C,0.0157*%
%ADD31C,0.0030*%
%ADD32C,0.0157*%
%ADD33C,0.0157*%
%ADD34C,0.0098*%
%ADD35R,0.0236X0.0236*%
%ADD36R,0.0571X0.0453*%
%ADD37R,0.0453X0.0571*%
%ADD38R,0.0394X0.0276*%
%ADD39R,0.0276X0.0394*%
%ADD40R,0.1280X0.0650*%
%ADD41R,0.0551X0.0472*%
%ADD42R,0.0650X0.1280*%
%ADD43R,0.0965X0.0925*%
%ADD44R,0.0472X0.0709*%
%ADD45R,0.0472X0.1063*%
%ADD46O,0.0236X0.0472*%
%ADD47R,0.0591X0.0472*%
%ADD48R,0.0394X0.0374*%
%ADD49R,0.0374X0.0394*%
%ADD50R,0.1417X0.0551*%
%ADD51R,0.0866X0.0984*%
%ADD52R,0.0787X0.0197*%
%ADD53O,0.1062X0.0236*%
%ADD54O,0.0591X0.0256*%
%ADD55R,0.0197X0.0236*%
%ADD56R,0.0236X0.0197*%
%ADD57R,0.0236X0.0394*%
%ADD58R,0.0394X0.0236*%
%ADD59R,0.0236X0.0433*%
%ADD60R,0.0433X0.0236*%
%ADD61O,0.0571X0.0236*%
%ADD62O,0.0709X0.0591*%
%ADD63C,0.0708*%
%ADD64R,0.0708X0.0708*%
%ADD65R,0.0980X0.1370*%
%ADD66O,0.0591X0.0118*%
%ADD67R,0.0866X0.0630*%
%ADD68R,0.0177X0.0748*%
%ADD69O,0.0512X0.0236*%
%ADD70O,0.0866X0.0236*%
%ADD71R,0.1496X0.1496*%
%ADD72O,0.0118X0.0394*%
%ADD73O,0.0394X0.0118*%
%ADD74R,0.0472X0.0571*%
%ADD75R,0.1024X0.0945*%
%ADD76O,0.0118X0.0354*%
%ADD77O,0.0354X0.0118*%
%ADD78C,0.0394*%
%ADD79R,0.1969X0.1969*%
%ADD80R,0.0591X0.0118*%
%ADD81R,0.0118X0.0591*%
%ADD82R,0.0236X0.0453*%
%ADD83R,0.0453X0.0236*%
%ADD84R,0.0768X0.0866*%
%ADD85O,0.0630X0.0118*%
%ADD86R,0.0650X0.1949*%
%ADD87C,0.0197*%
%ADD88C,0.0394*%
%ADD89C,0.0118*%
%ADD90THERMAL90*%
%ADD91C,0.0787*%
%ADD92C,0.0630*%
%ADD93C,0.0550*%
%ADD94THERMAL94*%
%ADD95C,0.0709*%
%ADD96THERMAL96*%
%ADD97C,0.0709*%
%ADD98THERMAL98*%
%ADD99C,0.0591*%
%ADD100C,0.0866*%
%ADD101C,0.1378*%
%ADD102R,0.0709X0.0709*%
%ADD103C,0.1575*%
%ADD104O,0.1575X0.0787*%
%ADD105O,0.0787X0.1575*%
%ADD106O,0.0787X0.1772*%
%ADD107THERMAL107*%
%ADD108C,0.0709*%
%ADD109THERMAL109*%
%ADD110C,0.0709*%
%ADD111C,0.0050*%
%ADD112C,0.0050*%
%ADD113C,0.0315*%
%ADD114C,0.0050*%
%ADD115C,0.0050*%
%ADD116C,0.0315*%
%ADD117C,0.0217*%
%ADD118THERMAL118*%
%ADD119C,0.1181*%
%ADD120THERMAL120*%
%ADD121C,0.1181*%
%ADD122C,0.0750*%
%ADD123THERMAL123*%
%ADD124C,0.0217*%
%ADD125C,0.0217*%
%ADD126C,0.0050*%
%ADD127C,0.0217*%
%ADD128C,0.0050*%
%ADD129C,0.0787*%
%ADD130C,0.0630*%
%ADD131C,0.0550*%
%ADD132C,0.0709*%
%ADD133R,0.0709X0.0709*%
%ADD134C,0.0591*%
%ADD135THERMAL135*%
%ADD136R,0.0709X0.0709*%
%ADD137R,0.0709X0.0709*%
%ADD138C,0.0217*%
%ADD139THERMAL139*%
%ADD140C,0.1575*%
%ADD141C,0.0787*%
%ADD142C,0.0630*%
%ADD143C,0.0550*%
%ADD144C,0.0709*%
%ADD145R,0.0709X0.0709*%
%ADD146C,0.0591*%
%ADD147C,0.0866*%
%ADD148C,0.1378*%
%ADD149C,0.1575*%
%ADD150O,0.1575X0.0787*%
%ADD151O,0.0787X0.1575*%
%ADD152O,0.0787X0.1772*%
%ADD153C,0.0315*%
%ADD154C,0.0157*%
%ADD155C,0.0157*%
%ADD156C,0.0039*%
*
G04 Plot Data ***
*
G54D29*
G01X0037953Y0036620D02*
X0037909Y0036708D01*
X0037646D01*
X0037603Y0036620D01*
Y0036533D01*
X0037646Y0036446D01*
X0037909D01*
X0037953Y0036358D01*
Y0036270D01*
X0037909Y0036183D01*
X0037646D01*
X0037603Y0036270D01*
X0037270Y0036446D02*
X0037402Y0036183D01*
X0037052Y0036446D02*
X0037314D01*
X0037402Y0036533D01*
Y0036620D01*
X0037314Y0036708D01*
X0037052D01*
Y0036183D01*
X0036544D02*
X0036500Y0036270D01*
Y0036620D01*
X0036544Y0036708D01*
X0036806D01*
X0036850Y0036620D01*
Y0036270D01*
X0036806Y0036183D01*
X0036544D01*
X0036168Y0036446D02*
X0036299Y0036183D01*
X0035949Y0036446D02*
X0036211D01*
X0036299Y0036533D01*
Y0036620D01*
X0036211Y0036708D01*
X0035949D01*
Y0036183D01*
X0035617Y0036446D02*
X0035748Y0036183D01*
X0035398Y0036446D02*
X0035660D01*
X0035748Y0036533D01*
Y0036620D01*
X0035660Y0036708D01*
X0035398D01*
Y0036183D01*
X0035109Y0036446D02*
X0034847D01*
X0035197Y0036183D02*
X0034847D01*
Y0036708D01*
X0035197D01*
X0033591Y0036183D02*
Y0036708D01*
X0033548Y0036183D02*
X0033810D01*
X0033898Y0036358D01*
Y0036533D01*
X0033810Y0036708D01*
X0033548D01*
X0033040Y0036183D02*
X0032996Y0036270D01*
Y0036620D01*
X0033040Y0036708D01*
X0033302D01*
X0033346Y0036620D01*
Y0036270D01*
X0033302Y0036183D01*
X0033040D01*
X0032489D02*
X0032445Y0036270D01*
Y0036620D01*
X0032489Y0036708D01*
X0032751D01*
X0032795Y0036620D01*
Y0036270D01*
X0032751Y0036183D01*
X0032489D01*
X0032069Y0036446D02*
X0032244D01*
Y0036270D01*
X0032200Y0036183D01*
X0031938D01*
X0031894Y0036270D01*
Y0036620D01*
X0031938Y0036708D01*
X0032200D01*
X0032244Y0036620D01*
X0030945Y0036708D02*
Y0036183D01*
X0030857Y0036270D01*
X0030682Y0036620D01*
X0030595Y0036708D01*
Y0036183D01*
X0030394Y0036708D02*
Y0036270D01*
X0030350Y0036183D01*
X0030219Y0036446D01*
Y0036533D02*
Y0036446D01*
X0030087Y0036183D01*
X0030044Y0036270D01*
Y0036708D01*
X0029536Y0036183D02*
X0029493Y0036270D01*
Y0036620D01*
X0029536Y0036708D01*
X0029798D01*
X0029843Y0036620D01*
Y0036270D01*
X0029798Y0036183D01*
X0029536D01*
X0029291Y0036708D02*
Y0036183D01*
X0029204Y0036270D01*
X0029029Y0036620D01*
X0028941Y0036708D01*
Y0036183D01*
X0028740D02*
X0028478Y0036446D01*
X0028740Y0036708D01*
X0028390D02*
Y0036183D01*
X0027397Y0036446D02*
X0027441Y0036533D01*
Y0036620D01*
X0027397Y0036708D01*
X0027135D01*
X0027091Y0036620D01*
Y0036533D01*
X0027135Y0036446D01*
X0027397D01*
X0027441Y0036358D01*
Y0036270D01*
X0027397Y0036183D01*
X0027135D01*
X0027091Y0036270D01*
Y0036358D01*
X0027135Y0036446D01*
X0026890Y0036358D02*
X0026540D01*
X0026715Y0036708D01*
X0026802D01*
Y0036183D01*
X0056003Y0035120D02*
X0056090Y0035295D01*
Y0035470D01*
X0056003Y0035645D01*
X0055408Y0035120D02*
Y0035645D01*
X0055364Y0035120D02*
X0055626D01*
X0055714Y0035295D01*
Y0035470D01*
X0055626Y0035645D01*
X0055364D01*
X0055163Y0035295D02*
X0054813D01*
X0055163Y0035120D02*
Y0035383D01*
X0055031Y0035645D01*
X0054944D01*
X0054813Y0035383D01*
Y0035120D01*
X0054262Y0035383D02*
X0054524D01*
X0054612Y0035470D01*
Y0035557D01*
X0054524Y0035645D01*
X0054262D01*
Y0035120D01*
X0054061D02*
X0053886D01*
X0053973D02*
Y0035645D01*
X0054061D02*
X0053886D01*
X0053422Y0035120D02*
Y0035645D01*
X0053597D02*
X0053247D01*
X0053046D02*
Y0035120D01*
X0052958Y0035207D01*
X0052783Y0035557D01*
X0052696Y0035645D01*
Y0035120D01*
X0052495Y0035295D02*
X0052145D01*
X0052495Y0035120D02*
Y0035383D01*
X0052363Y0035645D01*
X0052276D01*
X0052145Y0035383D01*
Y0035120D01*
X0051108Y0035383D02*
X0050846D01*
X0051196Y0035120D02*
X0050846D01*
Y0035645D01*
X0051196D01*
X0050644D02*
Y0035120D01*
X0050557Y0035207D01*
X0050382Y0035557D01*
X0050294Y0035645D01*
Y0035120D01*
X0050093Y0035295D02*
X0049743D01*
X0050093Y0035120D02*
Y0035383D01*
X0049962Y0035645D01*
X0049874D01*
X0049743Y0035383D01*
Y0035120D01*
X0049542D02*
X0049236D01*
Y0035645D01*
X0048685Y0035383D02*
X0048947D01*
X0049035Y0035470D01*
Y0035557D01*
X0048947Y0035645D01*
X0048685D01*
Y0035120D01*
X0047736D02*
Y0035645D01*
X0047648Y0035557D01*
X0047561Y0035383D01*
X0047473Y0035557D01*
X0047386Y0035645D01*
Y0035120D01*
X0047185D02*
Y0035645D01*
X0047097Y0035557D01*
X0047009Y0035383D01*
X0046922Y0035557D01*
X0046835Y0035645D01*
Y0035120D01*
X0046283Y0035207D02*
X0046327Y0035120D01*
X0046589D01*
X0046633Y0035207D01*
Y0035383D01*
X0046546Y0035470D01*
X0046283D01*
Y0035645D01*
X0046633D01*
X0045732Y0035207D02*
X0045776Y0035120D01*
X0046038D01*
X0046082Y0035207D01*
Y0035383D01*
X0045994Y0035470D01*
X0045732D01*
Y0035645D01*
X0046082D01*
X0045444Y0035120D02*
X0045531D01*
Y0035207D01*
X0045444D01*
Y0035120D01*
X0044936D02*
X0044849Y0035207D01*
X0044805Y0035295D01*
Y0035470D01*
X0044849Y0035557D01*
X0044936Y0035645D01*
X0045024D01*
X0045111Y0035557D01*
X0045155Y0035470D01*
Y0035295D01*
X0045111Y0035207D01*
X0045024Y0035120D01*
X0044936D01*
X0044604D02*
X0044517Y0035295D01*
Y0035470D01*
X0044604Y0035645D01*
X0043305Y0035383D02*
X0043043D01*
X0043393Y0035120D02*
X0043043D01*
Y0035645D01*
X0043393D01*
X0042841Y0035120D02*
X0042535D01*
Y0035645D01*
X0042028Y0035120D02*
X0041984Y0035207D01*
Y0035557D01*
X0042028Y0035645D01*
X0042290D01*
X0042334Y0035557D01*
Y0035207D01*
X0042290Y0035120D01*
X0042028D01*
X0041783Y0035383D02*
X0041433D01*
X0041783Y0035120D02*
Y0035645D01*
X0041433Y0035120D02*
Y0035645D01*
X0040484Y0035120D02*
Y0035645D01*
X0040396Y0035557D01*
X0040309Y0035383D01*
X0040221Y0035557D01*
X0040134Y0035645D01*
Y0035120D01*
X0039933D02*
Y0035645D01*
X0039845Y0035557D01*
X0039757Y0035383D01*
X0039670Y0035557D01*
X0039583Y0035645D01*
Y0035120D01*
X0039031Y0035207D02*
X0039075Y0035120D01*
X0039337D01*
X0039381Y0035207D01*
Y0035383D01*
X0039294Y0035470D01*
X0039031D01*
Y0035645D01*
X0039381D01*
X0038830Y0035120D02*
X0038656D01*
X0038743D02*
Y0035645D01*
X0038656Y0035557D01*
X0038280Y0035120D02*
X0038367D01*
Y0035207D01*
X0038280D01*
Y0035120D01*
X0037772D02*
X0037685Y0035207D01*
X0037641Y0035295D01*
Y0035470D01*
X0037685Y0035557D01*
X0037772Y0035645D01*
X0037859D01*
X0037947Y0035557D01*
X0037991Y0035470D01*
Y0035295D01*
X0037947Y0035207D01*
X0037859Y0035120D01*
X0037772D01*
X0036692Y0035645D02*
X0036430Y0035120D01*
X0035130D02*
Y0035645D01*
X0035087Y0035120D02*
X0035349D01*
X0035437Y0035295D01*
Y0035470D01*
X0035349Y0035645D01*
X0035087D01*
X0034885Y0035295D02*
X0034535D01*
X0034885Y0035120D02*
Y0035383D01*
X0034754Y0035645D01*
X0034667D01*
X0034535Y0035383D01*
Y0035120D01*
X0033984Y0035383D02*
X0034246D01*
X0034334Y0035470D01*
Y0035557D01*
X0034246Y0035645D01*
X0033984D01*
Y0035120D01*
X0033035D02*
Y0035645D01*
X0032947Y0035557D01*
X0032860Y0035383D01*
X0032772Y0035557D01*
X0032685Y0035645D01*
Y0035120D01*
X0032484D02*
Y0035645D01*
X0032396Y0035557D01*
X0032309Y0035383D01*
X0032221Y0035557D01*
X0032134Y0035645D01*
Y0035120D01*
X0031933Y0035295D02*
X0031583D01*
X0031757Y0035645D01*
X0031845D01*
Y0035120D01*
X0031294D02*
X0031381D01*
Y0035207D01*
X0031294D01*
Y0035120D01*
X0030787D02*
X0030699Y0035207D01*
X0030656Y0035295D01*
Y0035470D01*
X0030699Y0035557D01*
X0030787Y0035645D01*
X0030874D01*
X0030961Y0035557D01*
X0031006Y0035470D01*
Y0035295D01*
X0030961Y0035207D01*
X0030874Y0035120D01*
X0030787D01*
X0029706Y0035383D02*
X0029356D01*
X0028407Y0035120D02*
X0028232D01*
X0028320D02*
Y0035645D01*
X0028232Y0035557D01*
X0027944Y0035295D02*
X0027594D01*
X0027944Y0035120D02*
Y0035383D01*
X0027812Y0035645D01*
X0027725D01*
X0027594Y0035383D01*
Y0035120D01*
X0027393D02*
X0027218D01*
X0027305D02*
Y0035645D01*
X0027393D02*
X0027218D01*
X0026929D02*
Y0035470D01*
X0026754Y0035120D01*
X0026579Y0035470D01*
Y0035645D01*
X0064276Y0012826D02*
Y0013088D01*
X0064254Y0012826D02*
X0064385D01*
X0064429Y0012869D01*
Y0012913D01*
X0064407Y0012957D01*
X0064276D02*
X0064407D01*
X0064429Y0013001D01*
Y0013044D01*
X0064385Y0013088D01*
X0064254D01*
X0064075Y0012826D02*
Y0013088D01*
X0064031Y0013044D01*
X0063987Y0012957D01*
X0063943Y0013044D01*
X0063900Y0013088D01*
Y0012826D01*
X0063720Y0013044D02*
X0063698Y0013088D01*
X0063567D01*
X0063545Y0013044D01*
Y0013001D01*
X0063567Y0012957D01*
X0063698D01*
X0063720Y0012913D01*
Y0012869D01*
X0063698Y0012826D01*
X0063567D01*
X0063545Y0012869D01*
X0062198Y0034219D02*
X0062154Y0034306D01*
X0061892D01*
X0061848Y0034219D01*
Y0034131D01*
X0061892Y0034044D01*
X0062154D01*
X0062198Y0033957D01*
Y0033869D01*
X0062154Y0033781D01*
X0061892D01*
X0061848Y0033869D01*
X0061341Y0033781D02*
X0061297Y0033869D01*
Y0034219D01*
X0061341Y0034306D01*
X0061603D01*
X0061647Y0034219D01*
Y0033869D01*
X0061603Y0033781D01*
X0061341D01*
X0061096D02*
Y0034306D01*
X0061008Y0034219D01*
X0060921Y0034044D01*
X0060833Y0034219D01*
X0060746Y0034306D01*
Y0033781D01*
X0060545D02*
X0060283Y0034306D01*
X0060545D02*
X0060283Y0033781D01*
X0059290D02*
Y0034306D01*
X0059202Y0034219D01*
X0059115Y0034044D01*
X0059027Y0034219D01*
X0058940Y0034306D01*
Y0033781D01*
X0058432D02*
X0058389Y0033869D01*
Y0034219D01*
X0058432Y0034306D01*
X0058694D01*
X0058739Y0034219D01*
Y0033869D01*
X0058694Y0033781D01*
X0058432D01*
X0058056Y0034044D02*
X0058187Y0033781D01*
X0057837Y0034044D02*
X0058100D01*
X0058187Y0034131D01*
Y0034219D01*
X0058100Y0034306D01*
X0057837D01*
Y0033781D01*
X0057548Y0034044D02*
X0057286D01*
Y0033781D02*
Y0034306D01*
X0057636D01*
X0056337D02*
Y0033781D01*
X0056249Y0033869D01*
X0056074Y0034219D01*
X0055987Y0034306D01*
Y0033781D01*
X0055480D02*
X0055436Y0033869D01*
Y0034219D01*
X0055480Y0034306D01*
X0055742D01*
X0055786Y0034219D01*
Y0033869D01*
X0055742Y0033781D01*
X0055480D01*
X0055235D02*
X0055060D01*
X0055147D02*
Y0034306D01*
X0055235D02*
X0055060D01*
X0054596Y0033781D02*
Y0034306D01*
X0054771D02*
X0054421D01*
X0054220Y0033869D02*
X0054176Y0033781D01*
X0053914D01*
X0053870Y0033869D01*
Y0034219D01*
X0053914Y0034306D01*
X0054176D01*
X0054220Y0034219D01*
X0053669Y0034306D02*
Y0033869D01*
X0053625Y0033781D01*
X0053363D01*
X0053319Y0033869D01*
Y0034306D01*
X0052986Y0034044D02*
X0053118Y0033781D01*
X0052768Y0034044D02*
X0053030D01*
X0053118Y0034131D01*
Y0034219D01*
X0053030Y0034306D01*
X0052768D01*
Y0033781D01*
X0052391D02*
Y0034306D01*
X0052567D02*
X0052217D01*
X0052015Y0034219D02*
X0051971Y0034306D01*
X0051709D01*
X0051665Y0034219D01*
Y0034131D01*
X0051709Y0034044D01*
X0051971D01*
X0052015Y0033957D01*
Y0033869D01*
X0051971Y0033781D01*
X0051709D01*
X0051665Y0033869D01*
X0051464Y0034306D02*
Y0033781D01*
X0051376Y0033869D01*
X0051202Y0034219D01*
X0051114Y0034306D01*
Y0033781D01*
X0050913D02*
X0050738D01*
X0050826D02*
Y0034306D01*
X0050913D02*
X0050738D01*
X0049702Y0034044D02*
X0049352D01*
X0048096Y0033781D02*
Y0034306D01*
X0048052Y0033781D02*
X0048315D01*
X0048402Y0033957D01*
Y0034131D01*
X0048315Y0034306D01*
X0048052D01*
X0047763Y0034044D02*
X0047501D01*
X0047851Y0033781D02*
X0047501D01*
Y0034306D01*
X0047851D01*
X0047300Y0034044D02*
X0046950D01*
X0047300Y0033781D02*
Y0034306D01*
X0046950Y0033781D02*
Y0034306D01*
X0046574Y0033781D02*
Y0034306D01*
X0046749D02*
X0046399D01*
X0046022Y0034044D02*
X0046198D01*
Y0033869D01*
X0046154Y0033781D01*
X0045891D01*
X0045848Y0033869D01*
Y0034219D01*
X0045891Y0034306D01*
X0046154D01*
X0046198Y0034219D01*
X0045646Y0034306D02*
Y0033781D01*
X0045559Y0033869D01*
X0045384Y0034219D01*
X0045296Y0034306D01*
Y0033781D01*
X0045007Y0034044D02*
X0044745D01*
X0045095Y0033781D02*
X0044745D01*
Y0034306D01*
X0045095D01*
X0044544Y0033781D02*
X0044238D01*
Y0034306D01*
X0043289Y0034044D02*
X0042939D01*
X0043289Y0033781D02*
Y0034306D01*
X0042939Y0033781D02*
Y0034306D01*
X0042738Y0033869D02*
X0042694Y0033781D01*
X0042431D01*
X0042388Y0033869D01*
Y0034219D01*
X0042431Y0034306D01*
X0042694D01*
X0042738Y0034219D01*
X0042011Y0033781D02*
Y0034306D01*
X0042187D02*
X0041837D01*
X0041635Y0033957D02*
X0041285D01*
X0041635Y0033781D02*
Y0034044D01*
X0041504Y0034306D01*
X0041417D01*
X0041285Y0034044D01*
Y0033781D01*
X0041084D02*
Y0034306D01*
X0040996Y0034219D01*
X0040909Y0034044D01*
X0040822Y0034219D01*
X0040734Y0034306D01*
Y0033781D01*
X0039697Y0034044D02*
X0039435D01*
X0039785Y0033781D02*
X0039435D01*
Y0034306D01*
X0039785D01*
X0038928Y0033781D02*
Y0034306D01*
X0038884Y0033781D02*
X0039146D01*
X0039234Y0033869D01*
Y0033957D01*
X0039190Y0034044D01*
X0038928D02*
X0039190D01*
X0039234Y0034131D01*
Y0034219D01*
X0039146Y0034306D01*
X0038884D01*
X0037628Y0033781D02*
X0037585Y0033869D01*
Y0034219D01*
X0037628Y0034306D01*
X0037891D01*
X0037935Y0034219D01*
Y0033869D01*
X0037891Y0033781D01*
X0037628D01*
X0037208D02*
Y0034306D01*
X0037383D02*
X0037033D01*
X0035778Y0033781D02*
Y0034306D01*
X0035734Y0033781D02*
X0035996D01*
X0036084Y0033957D01*
Y0034131D01*
X0035996Y0034306D01*
X0035734D01*
X0035445Y0034044D02*
X0035183D01*
X0035533Y0033781D02*
X0035183D01*
Y0034306D01*
X0035533D01*
X0034894Y0034044D02*
X0034632D01*
X0034982Y0033781D02*
X0034632D01*
Y0034306D01*
X0034982D01*
X0034431D02*
Y0033781D01*
X0034343Y0033869D01*
X0034168Y0034219D01*
X0034081Y0034306D01*
Y0033781D01*
X0032956D02*
Y0034306D01*
X0033131D02*
X0032781D01*
X0032537Y0034219D02*
X0032580Y0034306D01*
X0032161D02*
Y0033781D01*
X0032073Y0033869D01*
X0031898Y0034219D01*
X0031811Y0034306D01*
Y0033781D01*
X0031303D02*
X0031259Y0033869D01*
Y0034219D01*
X0031303Y0034306D01*
X0031565D01*
X0031609Y0034219D01*
Y0033869D01*
X0031565Y0033781D01*
X0031303D01*
X0030752D02*
Y0034306D01*
X0030708Y0033781D02*
X0030970D01*
X0031058Y0033957D01*
Y0034131D01*
X0030970Y0034306D01*
X0030708D01*
X0029759Y0034219D02*
X0029715Y0034306D01*
X0029453D01*
X0029409Y0034219D01*
Y0034131D01*
X0029453Y0034044D01*
X0029715D01*
X0029759Y0033957D01*
Y0033869D01*
X0029715Y0033781D01*
X0029453D01*
X0029409Y0033869D01*
X0029208Y0033781D02*
X0028945Y0034044D01*
X0029208Y0034306D01*
X0028858D02*
Y0033781D01*
X0028657Y0033869D02*
X0028613Y0033781D01*
X0028350D01*
X0028307Y0033869D01*
Y0034219D01*
X0028350Y0034306D01*
X0028613D01*
X0028657Y0034219D01*
X0027799Y0033781D02*
X0027756Y0033869D01*
Y0034219D01*
X0027799Y0034306D01*
X0028061D01*
X0028106Y0034219D01*
Y0033869D01*
X0028061Y0033781D01*
X0027799D01*
X0027554D02*
X0027248D01*
Y0034306D01*
X0027047Y0033869D02*
X0027003Y0033781D01*
X0026741D01*
X0026697Y0033869D01*
Y0034219D01*
X0026741Y0034306D01*
X0027003D01*
X0027047Y0034219D01*
X0076180Y0012826D02*
Y0013088D01*
X0076136Y0013044D01*
X0076092Y0012957D01*
X0076048Y0013044D01*
X0076005Y0013088D01*
Y0012826D01*
X0075672D02*
X0075650Y0012869D01*
Y0013044D01*
X0075672Y0013088D01*
X0075804D01*
X0075826Y0013044D01*
Y0012869D01*
X0075804Y0012826D01*
X0075672D01*
X0075383D02*
Y0013088D01*
X0075471D02*
X0075296D01*
X0075029Y0012826D02*
Y0013088D01*
X0075117D02*
X0074942D01*
X0074609Y0012826D02*
X0074587Y0012869D01*
Y0013044D01*
X0074609Y0013088D01*
X0074741D01*
X0074763Y0013044D01*
Y0012869D01*
X0074741Y0012826D01*
X0074609D01*
X0074255D02*
Y0013088D01*
X0074233Y0012826D02*
X0074364D01*
X0074408Y0012869D01*
Y0012913D01*
X0074386Y0012957D01*
X0074255D02*
X0074386D01*
X0074408Y0013001D01*
Y0013044D01*
X0074364Y0013088D01*
X0074233D01*
X0073557Y0012826D02*
X0073601Y0012913D01*
Y0013001D01*
X0073557Y0013088D01*
X0073247Y0012826D02*
Y0013088D01*
X0073335D02*
X0073159D01*
X0072980Y0013044D02*
X0072958Y0013088D01*
X0072827D01*
X0072805Y0013044D01*
Y0013001D01*
X0072827Y0012957D01*
X0072958D01*
X0072980Y0012913D01*
Y0012869D01*
X0072958Y0012826D01*
X0072827D01*
X0072805Y0012869D01*
X0072626Y0012826D02*
X0072539D01*
X0072582D02*
Y0013088D01*
X0072626D02*
X0072539D01*
X0072316Y0013044D02*
X0072294Y0013088D01*
X0072163D01*
X0072141Y0013044D01*
Y0013001D01*
X0072163Y0012957D01*
X0072294D01*
X0072316Y0012913D01*
Y0012869D01*
X0072294Y0012826D01*
X0072163D01*
X0072141Y0012869D01*
X0071917Y0012957D02*
X0071786D01*
X0071961Y0012826D02*
X0071786D01*
Y0013088D01*
X0071961D01*
X0071541Y0012957D02*
X0071607Y0012826D01*
X0071432Y0012957D02*
X0071563D01*
X0071607Y0013001D01*
Y0013044D01*
X0071563Y0013088D01*
X0071432D01*
Y0012826D01*
X0071253D02*
X0071209Y0012913D01*
Y0013001D01*
X0071253Y0013088D01*
X0070490Y0012826D02*
X0070358Y0012957D01*
X0070490Y0013088D01*
X0070315D02*
Y0012826D01*
X0070135Y0013044D02*
X0070113Y0013088D01*
X0069982D01*
X0069960Y0013044D01*
Y0013001D01*
X0069982Y0012957D01*
X0070113D01*
X0070135Y0012913D01*
Y0012869D01*
X0070113Y0012826D01*
X0069982D01*
X0069960Y0012869D01*
X0069781Y0012913D02*
X0069606D01*
X0069781Y0012826D02*
Y0012957D01*
X0069715Y0013088D01*
X0069672D01*
X0069606Y0012957D01*
Y0012826D01*
X0069427D02*
Y0013088D01*
X0069383Y0013044D01*
X0069339Y0012957D01*
X0069295Y0013044D01*
X0069252Y0013088D01*
Y0012826D01*
X0068554Y0012957D02*
X0068620Y0012826D01*
X0068444Y0012957D02*
X0068576D01*
X0068620Y0013001D01*
Y0013044D01*
X0068576Y0013088D01*
X0068444D01*
Y0012826D01*
X0068221Y0012957D02*
X0068090D01*
X0068265Y0012826D02*
X0068090D01*
Y0013088D01*
X0068265D01*
X0067758Y0012826D02*
Y0013088D01*
X0067736Y0012826D02*
X0067867D01*
X0067911Y0012913D01*
Y0013001D01*
X0067867Y0013088D01*
X0067736D01*
X0067557Y0012826D02*
X0067404D01*
Y0013088D01*
X0067071Y0012826D02*
X0067049Y0012869D01*
Y0013044D01*
X0067071Y0013088D01*
X0067202D01*
X0067224Y0013044D01*
Y0012869D01*
X0067202Y0012826D01*
X0067071D01*
X0066870Y0013044D02*
X0066848Y0013088D01*
X0066717D01*
X0066695Y0013044D01*
Y0013001D01*
X0066717Y0012957D01*
X0066848D01*
X0066870Y0012913D01*
Y0012869D01*
X0066848Y0012826D01*
X0066717D01*
X0066695Y0012869D01*
X0023622Y0035827D02*
Y0035039D01*
X0023228Y0035433D02*
X0024016D01*
X-0023622Y-0035020D02*
Y-0035807D01*
X-0024016Y-0035413D02*
X-0023228D01*
X0023622Y-0035020D02*
Y-0035807D01*
X0023228Y-0035413D02*
X0024016D01*
G54D87*
G01X0000000Y0005559D02*
G03X0000071Y0005630I0000000J0000071D01*
G01X-0000071D02*
G03X0000000Y0005559I0000071J0000000D01*
Y0005701D02*
G03X-0000071Y0005630I0000000J0000071D01*
G01X0000071D02*
G03X0000000Y0005701I0000071J0000000D01*
Y0001614D02*
G03X0000079Y0001693I0000000J0000079D01*
G01X-0000079D02*
G03X0000000Y0001614I0000079J0000000D01*
Y0001772D02*
G03X-0000079Y0001693I0000000J0000079D01*
G01X0000079D02*
G03X0000000Y0001772I0000079J0000000D01*
G54D156*
G01X-0015059Y-0033187D02*
X-0015295D01*
X-0013643Y-0032953D02*
X-0015059D01*
Y-0033219D01*
X-0015295D01*
Y-0032953D02*
Y-0033219D01*
Y-0032953D02*
X-0015413D01*
Y-0031378D02*
Y-0032953D01*
X-0015295Y-0031378D02*
X-0015413D01*
X-0015295Y-0031113D02*
Y-0031378D01*
X-0015059Y-0031113D02*
X-0015295D01*
X-0015059D02*
Y-0031378D01*
X-0013643D02*
X-0015059D01*
X-0013643D02*
Y-0032953D01*
X-0013681Y-0031378D02*
Y-0032953D01*
X-0013717Y-0031378D02*
Y-0032953D01*
X-0013752Y-0031378D02*
Y-0032953D01*
X-0013787Y-0031378D02*
Y-0032953D01*
X-0013823Y-0031378D02*
Y-0032953D01*
X-0013858Y-0031378D02*
Y-0032953D01*
X-0013894Y-0031378D02*
Y-0032953D01*
X-0013929Y-0031378D02*
Y-0032953D01*
X-0013965Y-0031378D02*
Y-0032953D01*
X-0014000Y-0031378D02*
Y-0032953D01*
X-0014035Y-0031378D02*
Y-0032953D01*
X-0014071Y-0031378D02*
Y-0032953D01*
X-0014106Y-0031378D02*
Y-0032953D01*
X-0014142Y-0031378D02*
Y-0032953D01*
X-0014177Y-0031378D02*
Y-0032953D01*
X-0014213Y-0031378D02*
Y-0032953D01*
X-0014248Y-0031378D02*
Y-0032953D01*
X-0014283Y-0031378D02*
Y-0032953D01*
X-0014319Y-0031378D02*
Y-0032953D01*
X-0014354Y-0031378D02*
Y-0032953D01*
X-0014390Y-0031378D02*
Y-0032953D01*
X-0014425Y-0031378D02*
Y-0032953D01*
X-0014461Y-0031378D02*
Y-0032953D01*
X-0014496Y-0031378D02*
Y-0032953D01*
X-0014531Y-0031378D02*
Y-0032953D01*
X-0014567Y-0031378D02*
Y-0032953D01*
X-0014602Y-0031378D02*
Y-0032953D01*
X-0014638Y-0031378D02*
Y-0032953D01*
X-0014673Y-0031378D02*
Y-0032953D01*
X-0014709Y-0031378D02*
Y-0032953D01*
X-0014744Y-0031378D02*
Y-0032953D01*
X-0014780Y-0031378D02*
Y-0032953D01*
X-0014815Y-0031378D02*
Y-0032953D01*
X-0014850Y-0031378D02*
Y-0032953D01*
X-0014886Y-0031378D02*
Y-0032953D01*
X-0014921Y-0031378D02*
Y-0032953D01*
X-0014957Y-0031378D02*
Y-0032953D01*
X-0014992Y-0031378D02*
Y-0032953D01*
X-0015028Y-0031378D02*
Y-0032953D01*
X-0015063Y-0031113D02*
Y-0033219D01*
X-0015098Y-0031113D02*
Y-0033219D01*
X-0015134Y-0031113D02*
Y-0033219D01*
X-0015169Y-0031113D02*
Y-0033219D01*
X-0015205Y-0031113D02*
Y-0033219D01*
X-0015240Y-0031113D02*
Y-0033219D01*
X-0015276Y-0031113D02*
Y-0033219D01*
X-0015311Y-0031378D02*
Y-0032953D01*
X-0015346Y-0031378D02*
Y-0032953D01*
X-0015382Y-0031378D02*
Y-0032953D01*
X-0015059Y-0031132D02*
X-0015295D01*
X-0015059Y-0031168D02*
X-0015295D01*
X-0015059Y-0031203D02*
X-0015295D01*
X-0015059Y-0031239D02*
X-0015295D01*
X-0015059Y-0031274D02*
X-0015295D01*
X-0015059Y-0031309D02*
X-0015295D01*
X-0015059Y-0031345D02*
X-0015295D01*
X-0013643Y-0031416D02*
X-0015413D01*
X-0013643Y-0031451D02*
X-0015413D01*
X-0013643Y-0031487D02*
X-0015413D01*
X-0013643Y-0031522D02*
X-0015413D01*
X-0013643Y-0031557D02*
X-0015413D01*
X-0013643Y-0031593D02*
X-0015413D01*
X-0013643Y-0031628D02*
X-0015413D01*
X-0013643Y-0031664D02*
X-0015413D01*
X-0013643Y-0031699D02*
X-0015413D01*
X-0013643Y-0031735D02*
X-0015413D01*
X-0013643Y-0031770D02*
X-0015413D01*
X-0013643Y-0031806D02*
X-0015413D01*
X-0013643Y-0031841D02*
X-0015413D01*
X-0013643Y-0031876D02*
X-0015413D01*
X-0013643Y-0031912D02*
X-0015413D01*
X-0013643Y-0031947D02*
X-0015413D01*
X-0013643Y-0031983D02*
X-0015413D01*
X-0013643Y-0032018D02*
X-0015413D01*
X-0013643Y-0032054D02*
X-0015413D01*
X-0013643Y-0032089D02*
X-0015413D01*
X-0013643Y-0032124D02*
X-0015413D01*
X-0013643Y-0032160D02*
X-0015413D01*
X-0013643Y-0032195D02*
X-0015413D01*
X-0013643Y-0032231D02*
X-0015413D01*
X-0013643Y-0032266D02*
X-0015413D01*
X-0013643Y-0032302D02*
X-0015413D01*
X-0013643Y-0032337D02*
X-0015413D01*
X-0013643Y-0032372D02*
X-0015413D01*
X-0013643Y-0032408D02*
X-0015413D01*
X-0013643Y-0032443D02*
X-0015413D01*
X-0013643Y-0032479D02*
X-0015413D01*
X-0013643Y-0032514D02*
X-0015413D01*
X-0013643Y-0032550D02*
X-0015413D01*
X-0013643Y-0032585D02*
X-0015413D01*
X-0013643Y-0032620D02*
X-0015413D01*
X-0013643Y-0032656D02*
X-0015413D01*
X-0013643Y-0032691D02*
X-0015413D01*
X-0013643Y-0032727D02*
X-0015413D01*
X-0013643Y-0032762D02*
X-0015413D01*
X-0013643Y-0032798D02*
X-0015413D01*
X-0013643Y-0032833D02*
X-0015413D01*
X-0013643Y-0032869D02*
X-0015413D01*
X-0013643Y-0032904D02*
X-0015413D01*
X-0013643Y-0032939D02*
X-0015413D01*
X-0015059Y-0032975D02*
X-0015295D01*
X-0015059Y-0033010D02*
X-0015295D01*
X-0015059Y-0033046D02*
X-0015295D01*
X-0015059Y-0033081D02*
X-0015295D01*
X-0015059Y-0033117D02*
X-0015295D01*
X-0015059Y-0033152D02*
X-0015295D01*
G54D10*
X0012343Y-0021634D03*
X0016831Y-0017146D03*
X-0022756Y-0024449D03*
Y-0021220D03*
X-0017913Y-0027854D03*
X-0018386Y-0025886D03*
X-0007559Y-0032047D03*
X-0009528D03*
G54D11*
X-0006575Y-0025591D03*
X-0010512D03*
G54D12*
X0022047Y0028425D03*
X0021260D03*
X-0021260D03*
X-0022047D03*
G54D13*
X0016614Y-0030630D03*
X0016594Y-0031665D03*
Y-0032665D03*
Y-0033665D03*
Y-0034665D03*
X-0020252Y-0019567D03*
X-0019252D03*
X-0018252D03*
X-0022252D03*
X0006508Y-0018059D03*
Y-0019059D03*
Y-0020059D03*
Y-0021059D03*
Y-0022059D03*
Y-0023059D03*
X-0023126Y0026760D03*
X-0022126Y0025760D03*
X-0023126D03*
X-0022126Y0024760D03*
X-0023126D03*
X-0022126Y0023760D03*
X-0023126D03*
X-0022126Y0022760D03*
X-0023126D03*
X-0022126Y0021760D03*
X-0023126D03*
X-0022126Y0020760D03*
X-0023126D03*
X-0022126Y0019760D03*
X-0023126D03*
X-0022126Y0018760D03*
X-0023126D03*
X-0022126Y0017760D03*
X-0023126D03*
X-0022126Y0016760D03*
X-0023126D03*
X-0022126Y0015760D03*
X-0023126D03*
X-0022126Y0014760D03*
X-0023126D03*
X-0022126Y0013760D03*
X-0023126D03*
X-0022126Y0012760D03*
X-0023126D03*
X-0022126Y0011760D03*
X-0023126D03*
X-0022126Y0010760D03*
X-0023126D03*
X-0022126Y0009760D03*
X-0023126D03*
X-0022126Y0008760D03*
X-0023126D03*
X-0022126Y0007760D03*
X-0023126D03*
X-0022126Y0006760D03*
X-0023126D03*
X-0022126Y0005760D03*
X-0023126D03*
X-0022126Y0004760D03*
X-0023126D03*
X-0022126Y0003760D03*
X-0023126D03*
X-0022126Y0002760D03*
X-0023126D03*
X-0022126Y0001768D03*
X-0023126Y0001760D03*
X-0022126Y0000760D03*
X-0023126D03*
X-0022126Y-0000240D03*
X-0023126D03*
X-0022126Y-0001240D03*
X-0023126D03*
X-0022126Y-0002240D03*
X-0023126D03*
X-0022126Y-0003240D03*
X-0023126D03*
X-0022126Y-0004240D03*
X-0023126D03*
X0023126D03*
X0022126Y-0003240D03*
X0023126D03*
X0022126Y-0002240D03*
X0023126D03*
X0022126Y-0001240D03*
X0023126D03*
X0022126Y-0000240D03*
X0023126D03*
X0022126Y0000760D03*
X0023126D03*
X0022126Y0001760D03*
X0023126D03*
X0022126Y0002760D03*
X0023126D03*
X0022126Y0003760D03*
X0023126D03*
X0022126Y0004760D03*
X0023126D03*
X0022126Y0005760D03*
X0023126D03*
X0022126Y0006760D03*
X0023126D03*
X0022126Y0007760D03*
X0023126D03*
X0022126Y0008760D03*
X0023126D03*
X0022126Y0009760D03*
X0023126D03*
X0022126Y0010760D03*
X0023126D03*
X0022126Y0011760D03*
X0023126D03*
X0022126Y0012760D03*
X0023126D03*
X0022126Y0013760D03*
X0023126D03*
X0022126Y0014760D03*
X0023126D03*
X0022126Y0015760D03*
X0023126D03*
X0022126Y0016760D03*
X0023126D03*
X0022126Y0017760D03*
X0023126D03*
X0022126Y0018760D03*
X0023126D03*
X0022126Y0019760D03*
X0023126D03*
X0022126Y0020752D03*
X0023126Y0020760D03*
X0022126Y0021760D03*
X0023126D03*
X0022126Y0022760D03*
X0023126D03*
X0022126Y0023760D03*
X0023126D03*
X0022126Y0024760D03*
X0023126D03*
X0022126Y0025760D03*
X0023126D03*
X0022126Y0026760D03*
X0023126D03*
X0007933Y-0020705D03*
Y-0021705D03*
X-0008063Y-0034717D03*
X-0000969Y0028031D03*
X0000031D03*
X0001031D03*
X0002041D03*
G54D14*
X0016594Y-0029665D03*
X0006508Y-0017059D03*
X-0022126Y0026760D03*
X0022126Y-0004240D03*
X0007933Y-0019705D03*
X-0009063Y-0034717D03*
X-0001969Y0028031D03*
G54D15*
X-0022756Y-0023622D03*
Y-0022835D03*
Y-0022047D03*
X-0005581Y0029846D03*
X-0006081Y0030846D03*
X-0005081D03*
X-0004081D03*
X-0004581Y0029846D03*
X-0003581D03*
X-0002581D03*
X-0003081Y0030846D03*
X-0006941Y0034945D03*
X-0005941D03*
X-0002720D03*
X-0001720D03*
X0003081Y0029846D03*
X0002581Y0030846D03*
X0003581D03*
X0004581D03*
X0004081Y0029846D03*
X0005081D03*
X0006081D03*
X0005581Y0030846D03*
X0001720Y0034945D03*
X0002720D03*
X0005941D03*
X0006941D03*
G54D16*
X-0001281Y0032146D03*
X-0007380D03*
X0007380D03*
X0001281D03*
G54D17*
X-0002081Y0033346D03*
X-0006581D03*
X0006581D03*
X0002081D03*
G54D19*
X0019047Y-0030858D03*
X-0019047D03*
X0019047Y0030858D03*
X-0019047D03*
G54D20*
X-0020571Y-0025118D03*
G54D21*
X-0021752Y-0026969D03*
G54D22*
X-0019390D03*
G54D24*
X-0010374Y-0020551D03*
X-0006791Y-0016476D03*
G54D26*
X-0005453Y-0033307D03*
Y-0029559D03*
Y-0025811D03*
X-0000453Y-0034559D03*
X0000799D03*
X0002051D03*
X0007051D03*
Y-0029559D03*
Y-0028307D03*
Y-0024559D03*
X0002051D03*
X0000799D03*
X-0000453D03*
G54D27*
X0011915Y-0026853D03*
Y-0025603D03*
Y-0024353D03*
X0019415D03*
Y-0028103D03*
G54D28*
X0011915D03*
G54D35*
X-0000807Y0030649D03*
Y0030296D03*
X-0010728Y0028287D03*
X-0010374D03*
X0011851Y0028169D03*
X0012204D03*
X0015059Y0020728D03*
X0015413D03*
X0016575Y0020709D03*
Y0021063D03*
X0016063Y0023897D03*
Y0023544D03*
X0015059Y0022776D03*
X0015413D03*
X0018248Y0021713D03*
X0017894D03*
X0017126Y0023897D03*
Y0023544D03*
X0018248Y0023012D03*
X0017894D03*
X0015059Y0021909D03*
X0015413D03*
X0017126Y0020709D03*
Y0021063D03*
X0016181Y0020709D03*
Y0021063D03*
X0016654Y0024174D03*
Y0024527D03*
X0018524Y0022303D03*
X0018878D03*
X0014783D03*
X0014430D03*
X0016654Y0020118D03*
Y0019764D03*
X-0003681Y0000098D03*
X-0003327D03*
X-0005079Y-0001496D03*
Y-0001142D03*
X-0007422Y0000098D03*
X-0007775D03*
X-0003957Y0000807D03*
X-0004311D03*
X-0006024Y-0001496D03*
Y-0001142D03*
X-0006142Y0001693D03*
Y0001339D03*
X-0003957Y-0000492D03*
X-0004311D03*
X-0007145Y0000571D03*
X-0006792D03*
X-0007145Y-0001476D03*
X-0006792D03*
X-0005551Y-0002087D03*
Y-0002441D03*
Y0001969D03*
Y0002322D03*
X-0005079Y0001693D03*
Y0001339D03*
X-0005630Y-0001496D03*
Y-0001142D03*
X-0007145Y-0000295D03*
X-0006792D03*
X-0014783Y0000098D03*
X-0014430D03*
X-0016181Y-0001496D03*
Y-0001142D03*
X-0018524Y0000098D03*
X-0018878D03*
X-0015059Y0000807D03*
X-0015413D03*
X-0017126Y-0001496D03*
Y-0001142D03*
X-0017244Y0001693D03*
Y0001339D03*
X-0015059Y-0000492D03*
X-0015413D03*
X-0018248Y0000571D03*
X-0017894D03*
X-0018248Y-0001476D03*
X-0017894D03*
X-0016654Y-0002087D03*
Y-0002441D03*
Y0001969D03*
Y0002322D03*
X-0016181Y0001693D03*
Y0001339D03*
X-0016732Y-0001496D03*
Y-0001142D03*
X-0018248Y-0000295D03*
X-0017894D03*
X0007422Y0000098D03*
X0007775D03*
X0006024Y-0001496D03*
Y-0001142D03*
X0003681Y0000098D03*
X0003327D03*
X0007145Y0000807D03*
X0006792D03*
X0005079Y-0001496D03*
Y-0001142D03*
X0004961Y0001693D03*
Y0001339D03*
X0007145Y-0000492D03*
X0006792D03*
X0003957Y0000571D03*
X0004311D03*
X0003957Y-0001476D03*
X0004311D03*
X0005551Y-0002087D03*
Y-0002441D03*
Y0001969D03*
Y0002322D03*
X0006024Y0001693D03*
Y0001339D03*
X0005472Y-0001496D03*
Y-0001142D03*
X0003957Y-0000295D03*
X0004311D03*
X0018524Y0000098D03*
X0018878D03*
X0017126Y-0001496D03*
Y-0001142D03*
X0014783Y0000098D03*
X0014430D03*
X0018248Y0000807D03*
X0017894D03*
X0016181Y-0001496D03*
Y-0001142D03*
X0016063Y0001693D03*
Y0001339D03*
X0018248Y-0000492D03*
X0017894D03*
X0015059Y0000571D03*
X0015413D03*
X0015059Y-0001476D03*
X0015413D03*
X0016654Y-0002087D03*
Y-0002441D03*
Y0001969D03*
Y0002322D03*
X0017126Y0001693D03*
Y0001339D03*
X0016575Y-0001496D03*
Y-0001142D03*
X0015059Y-0000295D03*
X0015413D03*
X-0003681Y-0011004D03*
X-0003327D03*
X-0005079Y-0012598D03*
Y-0012244D03*
X-0007422Y-0011004D03*
X-0007775D03*
X-0003957Y-0010295D03*
X-0004311D03*
X-0006024Y-0012598D03*
Y-0012244D03*
X-0006142Y-0009410D03*
Y-0009763D03*
X-0003957Y-0011594D03*
X-0004311D03*
X-0007145Y-0010531D03*
X-0006792D03*
X-0007145Y-0012579D03*
X-0006792D03*
X-0005551Y-0013189D03*
Y-0013543D03*
Y-0009133D03*
Y-0008780D03*
X-0005079Y-0009410D03*
Y-0009763D03*
X-0005630Y-0012598D03*
Y-0012244D03*
X-0007145Y-0011398D03*
X-0006792D03*
X-0014783Y-0011004D03*
X-0014430D03*
X-0016181Y-0012598D03*
Y-0012244D03*
X-0018524Y-0011004D03*
X-0018878D03*
X-0015059Y-0010295D03*
X-0015413D03*
X-0017126Y-0012598D03*
Y-0012244D03*
X-0017244Y-0009410D03*
Y-0009763D03*
X-0015059Y-0011594D03*
X-0015413D03*
X-0018248Y-0010531D03*
X-0017894D03*
X-0018248Y-0012579D03*
X-0017894D03*
X-0016654Y-0013189D03*
Y-0013543D03*
Y-0009133D03*
Y-0008780D03*
X-0016181Y-0009410D03*
Y-0009763D03*
X-0016732Y-0012598D03*
Y-0012244D03*
X-0018248Y-0011398D03*
X-0017894D03*
X0007422Y-0011004D03*
X0007775D03*
X0006024Y-0012598D03*
Y-0012244D03*
X0003681Y-0011004D03*
X0003327D03*
X0007145Y-0010295D03*
X0006792D03*
X0005079Y-0012598D03*
Y-0012244D03*
X0004961Y-0009410D03*
Y-0009763D03*
X0007145Y-0011594D03*
X0006792D03*
X0003957Y-0010531D03*
X0004311D03*
X0003957Y-0012579D03*
X0004311D03*
X0005551Y-0013189D03*
Y-0013543D03*
Y-0009133D03*
Y-0008780D03*
X0006024Y-0009410D03*
Y-0009763D03*
X0005472Y-0012598D03*
Y-0012244D03*
X0003957Y-0011398D03*
X0004311D03*
X0018524Y-0011004D03*
X0018878D03*
X0017126Y-0012598D03*
Y-0012244D03*
X0014783Y-0011004D03*
X0014430D03*
X0018248Y-0010295D03*
X0017894D03*
X0016181Y-0012598D03*
Y-0012244D03*
X0016063Y-0009410D03*
Y-0009763D03*
X0018248Y-0011594D03*
X0017894D03*
X0015059Y-0010531D03*
X0015413D03*
X0015059Y-0012579D03*
X0015413D03*
X0016654Y-0013189D03*
Y-0013543D03*
Y-0009133D03*
Y-0008780D03*
X0017126Y-0009410D03*
Y-0009763D03*
X0016575Y-0012598D03*
Y-0012244D03*
X0015059Y-0011398D03*
X0015413D03*
X-0003681Y0011201D03*
X-0003327D03*
X-0005079Y0009607D03*
Y0009960D03*
X-0007422Y0011201D03*
X-0007775D03*
X-0003957Y0011909D03*
X-0004311D03*
X-0006024Y0009607D03*
Y0009960D03*
X-0006142Y0012795D03*
Y0012441D03*
X-0003957Y0010610D03*
X-0004311D03*
X-0007145Y0011673D03*
X-0006792D03*
X-0007145Y0009626D03*
X-0006792D03*
X-0005551Y0009015D03*
Y0008662D03*
Y0013071D03*
Y0013425D03*
X-0005079Y0012795D03*
Y0012441D03*
X-0005630Y0009607D03*
Y0009960D03*
X-0007145Y0010807D03*
X-0006792D03*
X-0014783Y0011201D03*
X-0014430D03*
X-0016181Y0009607D03*
Y0009960D03*
X-0018524Y0011201D03*
X-0018878D03*
X-0015059Y0011909D03*
X-0015413D03*
X-0017126Y0009607D03*
Y0009960D03*
X-0017244Y0012795D03*
Y0012441D03*
X-0015059Y0010610D03*
X-0015413D03*
X-0018248Y0011673D03*
X-0017894D03*
X-0018248Y0009626D03*
X-0017894D03*
X-0016654Y0009015D03*
Y0008662D03*
Y0013071D03*
Y0013425D03*
X-0016181Y0012795D03*
Y0012441D03*
X-0016732Y0009607D03*
Y0009960D03*
X-0018248Y0010807D03*
X-0017894D03*
X0007422Y0011201D03*
X0007775D03*
X0006024Y0009607D03*
Y0009960D03*
X0003681Y0011201D03*
X0003327D03*
X0007145Y0011909D03*
X0006792D03*
X0005079Y0009607D03*
Y0009960D03*
X0004961Y0012795D03*
Y0012441D03*
X0007145Y0010610D03*
X0006792D03*
X0003957Y0011673D03*
X0004311D03*
X0003957Y0009626D03*
X0004311D03*
X0005551Y0009015D03*
Y0008662D03*
Y0013071D03*
Y0013425D03*
X0006024Y0012795D03*
Y0012441D03*
X0005472Y0009607D03*
Y0009960D03*
X0003957Y0010807D03*
X0004311D03*
X0018524Y0011201D03*
X0018878D03*
X0017126Y0009607D03*
Y0009960D03*
X0014783Y0011201D03*
X0014430D03*
X0018248Y0011909D03*
X0017894D03*
X0016181Y0009607D03*
Y0009960D03*
X0016063Y0012795D03*
Y0012441D03*
X0018248Y0010610D03*
X0017894D03*
X0015059Y0011673D03*
X0015413D03*
X0015059Y0009626D03*
X0015413D03*
X0016654Y0009015D03*
Y0008662D03*
Y0013071D03*
Y0013425D03*
X0017126Y0012795D03*
Y0012441D03*
X0016575Y0009607D03*
Y0009960D03*
X0015059Y0010807D03*
X0015413D03*
X-0003681Y0022303D03*
X-0003327D03*
X-0005079Y0020709D03*
Y0021063D03*
X-0007422Y0022303D03*
X-0007775D03*
X-0003957Y0023012D03*
X-0004311D03*
X-0006024Y0020709D03*
Y0021063D03*
X-0006142Y0023897D03*
Y0023544D03*
X-0003957Y0021713D03*
X-0004311D03*
X-0007145Y0022776D03*
X-0006792D03*
X-0007145Y0020728D03*
X-0006792D03*
X-0005551Y0020118D03*
Y0019764D03*
Y0024174D03*
Y0024527D03*
X-0005079Y0023897D03*
Y0023544D03*
X-0005630Y0020709D03*
Y0021063D03*
X-0007145Y0021909D03*
X-0006792D03*
X-0014783Y0022303D03*
X-0014430D03*
X-0016181Y0020709D03*
Y0021063D03*
X-0018524Y0022303D03*
X-0018878D03*
X-0015059Y0023012D03*
X-0015413D03*
X-0017126Y0020709D03*
Y0021063D03*
X-0017244Y0023897D03*
Y0023544D03*
X-0015059Y0021713D03*
X-0015413D03*
X-0018248Y0022776D03*
X-0017894D03*
X-0018248Y0020728D03*
X-0017894D03*
X-0016654Y0020118D03*
Y0019764D03*
Y0024174D03*
Y0024527D03*
X-0016181Y0023897D03*
Y0023544D03*
X-0016732Y0020709D03*
Y0021063D03*
X-0018248Y0021909D03*
X-0017894D03*
X0003957Y0020728D03*
X0004311D03*
X0003957Y0021909D03*
X0004311D03*
X0003957Y0022776D03*
X0004311D03*
X0005079Y0020709D03*
Y0021063D03*
X0005472Y0020709D03*
Y0021063D03*
X0006024Y0020709D03*
Y0021063D03*
X0007145Y0021713D03*
X0006792D03*
X0007145Y0023012D03*
X0006792D03*
X0006024Y0023897D03*
Y0023544D03*
X0004961Y0023897D03*
Y0023544D03*
X0005551Y0024174D03*
Y0024527D03*
X0003681Y0022303D03*
X0003327D03*
X0005551Y0020118D03*
Y0019764D03*
X0007422Y0022303D03*
X0007775D03*
G54D36*
X0022421Y-0017500D03*
Y-0018208D03*
X0021043Y0025237D03*
Y0025944D03*
Y0019370D03*
Y0018662D03*
X0000000Y-0002835D03*
Y-0003543D03*
Y0003032D03*
Y0003740D03*
X-0021043Y-0002835D03*
Y-0003543D03*
X-0011102Y-0002835D03*
Y-0003543D03*
X-0021043Y0003032D03*
Y0003740D03*
X-0011102Y0003032D03*
Y0003740D03*
X0011102Y-0002835D03*
Y-0003543D03*
Y0003032D03*
Y0003740D03*
X0021043Y-0002835D03*
Y-0003543D03*
Y0003032D03*
Y0003740D03*
X0000000Y-0013937D03*
Y-0014645D03*
Y-0008070D03*
Y-0007363D03*
X-0021043Y-0013229D03*
Y-0013937D03*
X-0011102D03*
Y-0014645D03*
X-0021043Y-0008070D03*
Y-0007363D03*
X-0011102Y-0008070D03*
Y-0007363D03*
X0011102Y-0013937D03*
Y-0014645D03*
Y-0008070D03*
Y-0007363D03*
X0021043Y-0013937D03*
Y-0014645D03*
Y-0008070D03*
Y-0007363D03*
X0000000Y0008267D03*
Y0007559D03*
Y0014134D03*
Y0014842D03*
X-0021043Y0008267D03*
Y0007559D03*
X-0011102Y0008267D03*
Y0007559D03*
X-0021043Y0014134D03*
Y0014842D03*
X-0011102Y0014134D03*
Y0014842D03*
X0011102Y0008267D03*
Y0007559D03*
Y0014134D03*
Y0014842D03*
X0021043Y0008267D03*
Y0007559D03*
Y0014134D03*
Y0014842D03*
X0000000Y0019370D03*
Y0018662D03*
Y0025237D03*
Y0025944D03*
X-0021043Y0019370D03*
Y0018662D03*
X-0011102Y0019370D03*
Y0018662D03*
X-0021043Y0025237D03*
Y0025944D03*
X-0011102Y0025237D03*
Y0025944D03*
X0011102Y0025237D03*
Y0025944D03*
Y0019370D03*
Y0018662D03*
G54D37*
X0019587Y0026693D03*
X0020295D03*
X0019587Y0016752D03*
X0020295D03*
X0013720D03*
X0013012D03*
X0013720Y0026693D03*
X0013012D03*
X-0002618Y-0005453D03*
X-0001910D03*
X-0008485D03*
X-0009193D03*
X-0013720D03*
X-0013012D03*
X-0019587D03*
X-0020295D03*
X0008485D03*
X0009193D03*
X0002618D03*
X0001910D03*
X0019587D03*
X0020295D03*
X0013720D03*
X0013012D03*
X-0002618Y-0015394D03*
X-0001910D03*
X-0008485D03*
X-0009193D03*
X-0013720D03*
X-0013012D03*
X-0016300Y-0015531D03*
X-0017007D03*
X0008485Y-0015394D03*
X0009193D03*
X0002618D03*
X0001910D03*
X0019587D03*
X0020295D03*
X0013720D03*
X0013012D03*
X-0002618Y0005610D03*
X-0001910D03*
X-0008485D03*
X-0009193D03*
X-0013720D03*
X-0013012D03*
X-0019587D03*
X-0020295D03*
X0008485D03*
X0009193D03*
X0002618D03*
X0001910D03*
X0019587D03*
X0020295D03*
X0013720D03*
X0013012D03*
X-0002618Y0016752D03*
X-0001910D03*
X-0008485Y0026693D03*
X-0009193D03*
X-0008485Y0016752D03*
X-0009193D03*
X-0002618Y0026693D03*
X-0001910D03*
X-0013720Y0016752D03*
X-0013012D03*
X-0019587Y0026693D03*
X-0020295D03*
X-0019587Y0016752D03*
X-0020295D03*
X-0013720Y0026693D03*
X-0013012D03*
X0008485D03*
X0009193D03*
X0008485Y0016752D03*
X0009193D03*
X0002618Y0026693D03*
X0001910D03*
X0002618Y0016752D03*
X0001910D03*
G54D38*
X-0018740Y-0024232D03*
Y-0024783D03*
X0015807Y-0022795D03*
Y-0022244D03*
X0011673Y-0021378D03*
Y-0020827D03*
X0015059Y-0015984D03*
Y-0016535D03*
X0008228Y-0024075D03*
Y-0023524D03*
X0010906Y-0020079D03*
Y-0020630D03*
X0011654Y-0017343D03*
Y-0017894D03*
X0013937Y-0015984D03*
Y-0016535D03*
X0014488Y-0015984D03*
Y-0016535D03*
X0015256Y-0022795D03*
Y-0022244D03*
X0023071Y-0017815D03*
Y-0018366D03*
X0011673Y-0019902D03*
Y-0020453D03*
X0017894Y-0019154D03*
Y-0019705D03*
X0020059Y-0021969D03*
Y-0021417D03*
X-0008898Y0031122D03*
Y0030571D03*
X-0010374Y0031122D03*
Y0030571D03*
X-0010925Y0031122D03*
Y0030571D03*
X-0011476Y0031122D03*
Y0030571D03*
X0008465Y0029606D03*
Y0030157D03*
X0007933Y0030531D03*
Y0031083D03*
X0011122D03*
Y0030531D03*
X0011654Y0031083D03*
Y0030531D03*
X0012185Y0031083D03*
Y0030531D03*
X0008465Y0029232D03*
Y0028681D03*
X-0004488Y-0018484D03*
Y-0019035D03*
X-0008189Y-0018484D03*
Y-0019035D03*
X-0008740Y-0018484D03*
Y-0019035D03*
X-0012441Y-0018484D03*
Y-0019035D03*
X-0000236Y-0018287D03*
Y-0018839D03*
X-0003937Y-0018484D03*
Y-0019035D03*
X-0012992Y-0018484D03*
Y-0019035D03*
X-0016693Y-0018484D03*
Y-0019035D03*
X0018209Y-0022480D03*
Y-0023031D03*
X0013504Y0031004D03*
Y0030453D03*
X-0022283Y-0017106D03*
Y-0016555D03*
G54D39*
X0021102Y-0017146D03*
X0020551D03*
X0018051Y-0018701D03*
X0017500D03*
X0011201Y-0018366D03*
X0011752D03*
X0017972Y-0020177D03*
X0017421D03*
X0014193Y-0022303D03*
X0013642D03*
X0018524Y-0018799D03*
X0019075D03*
X0019370Y-0016555D03*
X0019921D03*
X0014193Y-0023110D03*
X0013642D03*
X-0014094Y0029803D03*
X-0014646D03*
X-0010630Y0028740D03*
X-0010079D03*
X-0010728Y0027835D03*
X-0010177D03*
X-0014094Y0029272D03*
X-0014646D03*
X0012028Y0028780D03*
X0012579D03*
X0011850Y0027677D03*
X0012402D03*
X-0020630Y-0020886D03*
X-0020079D03*
X-0021063Y-0021693D03*
X-0021614D03*
G54D40*
X0013819Y-0030650D03*
X0011772D03*
G54D41*
X-0014646Y-0023563D03*
Y-0024272D03*
X0010492Y-0026233D03*
Y-0025524D03*
G54D42*
X-0022067Y-0009311D03*
Y-0011358D03*
X0022008Y-0009291D03*
Y-0011339D03*
X0021929Y-0026791D03*
Y-0024744D03*
G54D43*
X-0022480Y-0012835D03*
Y-0015276D03*
X0022480Y-0012795D03*
Y-0015236D03*
X0008898Y-0025256D03*
Y-0027697D03*
G54D44*
X-0014980Y-0025512D03*
X-0016083D03*
G54D45*
X-0019980Y-0023366D03*
X-0018878D03*
G54D46*
X-0013957Y-0023583D03*
X-0013583D03*
X-0013209D03*
Y-0024567D03*
X-0013583D03*
X-0013957D03*
G54D47*
X-0021594Y-0016476D03*
Y-0017185D03*
G54D48*
X0013071Y0028720D03*
Y0029350D03*
G54D49*
X0020669Y-0018248D03*
X0021299D03*
X-0010591Y0030079D03*
X-0009961D03*
G54D50*
X-0011890Y-0025681D03*
Y-0023531D03*
G54D51*
X0021004Y-0019075D03*
X0023091D03*
Y-0022382D03*
X0021004D03*
G54D52*
X0020906Y-0020098D03*
Y-0020413D03*
Y-0020728D03*
Y-0021043D03*
Y-0021358D03*
G54D53*
X-0016043Y-0032915D03*
Y-0032415D03*
Y-0031915D03*
Y-0031415D03*
X-0013720Y-0031915D03*
Y-0031415D03*
Y-0032415D03*
Y-0032915D03*
G54D54*
X0011496Y-0016102D03*
Y-0016850D03*
X0010591Y-0016476D03*
G54D55*
X0017126Y0022303D03*
X0016811D03*
X-0005079Y0000098D03*
X-0005394D03*
X-0016181D03*
X-0016496D03*
X0006024D03*
X0005709D03*
X0017126D03*
X0016811D03*
X-0005079Y-0011004D03*
X-0005394D03*
X-0016181D03*
X-0016496D03*
X0006024D03*
X0005709D03*
X0017126D03*
X0016811D03*
X-0005079Y0011201D03*
X-0005394D03*
X-0016181D03*
X-0016496D03*
X0006024D03*
X0005709D03*
X0017126D03*
X0016811D03*
X-0005079Y0022303D03*
X-0005394D03*
X-0016181D03*
X-0016496D03*
X0006024D03*
X0005709D03*
G54D56*
X0015787Y0021043D03*
Y0020728D03*
X-0006417Y-0001161D03*
Y-0001476D03*
X-0017520Y-0001161D03*
Y-0001476D03*
X0004685Y-0001161D03*
Y-0001476D03*
X0015787Y-0001161D03*
Y-0001476D03*
X-0006417Y-0012264D03*
Y-0012579D03*
X-0017520Y-0012264D03*
Y-0012579D03*
X0004685Y-0012264D03*
Y-0012579D03*
X0015787Y-0012264D03*
Y-0012579D03*
X-0006417Y0009941D03*
Y0009626D03*
X-0017520Y0009941D03*
Y0009626D03*
X0004685Y0009941D03*
Y0009626D03*
X0015787Y0009941D03*
Y0009626D03*
X-0006417Y0021043D03*
Y0020728D03*
X-0017520Y0021043D03*
Y0020728D03*
X0004685Y0021043D03*
Y0020728D03*
G54D57*
X-0017717Y-0024370D03*
X-0018268D03*
X-0017717Y-0024902D03*
X-0018268D03*
Y-0023307D03*
X-0017717D03*
X-0018268Y-0023839D03*
X-0017717D03*
X0010591Y-0015531D03*
X0011142D03*
X0011594Y-0022362D03*
X0011043D03*
X0011752Y-0018917D03*
X0011201D03*
X0021102Y-0017677D03*
X0020551D03*
X0011201Y-0019449D03*
X0011752D03*
X-0009429Y0030118D03*
X-0008878D03*
X-0008898Y0029587D03*
X-0009449D03*
X-0010630Y0029272D03*
X-0010079D03*
X-0012441Y0027146D03*
X-0011890D03*
X-0010965D03*
X-0011516D03*
X-0009921Y0031043D03*
X-0009370D03*
X0012795Y0030079D03*
X0012244D03*
X0012028Y0029311D03*
X0012579D03*
X0010197Y0027106D03*
X0010748D03*
X0011673D03*
X0011122D03*
X0012126Y-0016457D03*
X0012677D03*
X0000807Y-0023484D03*
X0000256D03*
X0021122Y-0023563D03*
X0020571D03*
X-0017697Y-0021476D03*
X-0017146D03*
X-0017697Y-0022539D03*
X-0017146D03*
X-0021614Y-0022283D03*
X-0021063D03*
X-0017146Y-0020945D03*
X-0017697D03*
X-0017146Y-0022008D03*
X-0017697D03*
X0011594Y-0021831D03*
X0011043D03*
X0016890Y0030413D03*
X0017441D03*
Y0029902D03*
X0016890D03*
X0017441Y0030925D03*
X0016890D03*
X0008307Y-0018799D03*
X0007756D03*
X-0018858Y-0018248D03*
X-0018307D03*
X0016240Y0027047D03*
X0015689D03*
X0017618D03*
X0017067D03*
X-0005965Y0004843D03*
X-0006516D03*
X-0004587D03*
X-0005138D03*
X-0017067D03*
X-0017618D03*
X-0015689D03*
X-0016240D03*
X0005138D03*
X0004587D03*
X0006516D03*
X0005965D03*
X0016240D03*
X0015689D03*
X0017618D03*
X0017067D03*
X-0005965Y-0006260D03*
X-0006516D03*
X-0004587D03*
X-0005138D03*
X-0017067D03*
X-0017618D03*
X-0015689D03*
X-0016240D03*
X0005138D03*
X0004587D03*
X0006516D03*
X0005965D03*
X0016240D03*
X0015689D03*
X0017618D03*
X0017067D03*
X-0005965Y0015945D03*
X-0006516D03*
X-0004587D03*
X-0005138D03*
X-0017067D03*
X-0017618D03*
X-0015689D03*
X-0016240D03*
X0005138D03*
X0004587D03*
X0006516D03*
X0005965D03*
X0016240D03*
X0015689D03*
X0017618D03*
X0017067D03*
X-0005965Y0027047D03*
X-0006516D03*
X-0004587D03*
X-0005138D03*
X-0017067D03*
X-0017618D03*
X-0015689D03*
X-0016240D03*
X0005138D03*
X0004587D03*
X0006516D03*
X0005965D03*
G54D58*
X0014705Y-0022795D03*
Y-0022244D03*
X0011516Y-0023366D03*
Y-0022815D03*
X0018583Y-0018150D03*
Y-0017598D03*
X0018051Y-0018150D03*
Y-0017598D03*
X0017500Y-0020925D03*
Y-0021476D03*
X-0009724Y0025335D03*
Y0025886D03*
X0001220Y0025138D03*
Y0025689D03*
X-0000335Y0032697D03*
Y0032146D03*
X-0013071Y0031122D03*
Y0030571D03*
X-0013602Y0031122D03*
Y0030571D03*
X-0012008Y0031122D03*
Y0030571D03*
X-0012539Y0031122D03*
Y0030571D03*
X0012717Y0030531D03*
Y0031083D03*
X0000394Y0032697D03*
Y0032146D03*
X0009528Y0031083D03*
Y0030531D03*
X0008996Y0031083D03*
Y0030531D03*
X0010591Y0031083D03*
Y0030531D03*
X0010059Y0031083D03*
Y0030531D03*
X0008465Y0031083D03*
Y0030531D03*
X0013150Y-0015984D03*
Y-0016535D03*
X-0018150Y-0020925D03*
Y-0021476D03*
Y-0021850D03*
Y-0022402D03*
X-0016909Y-0031752D03*
Y-0031201D03*
X0020650Y-0028642D03*
Y-0028091D03*
G54D59*
X0001161Y0023819D03*
X0000846D03*
X0000531D03*
X0000217D03*
Y0024488D03*
X0000531D03*
X0000846D03*
X0001161D03*
X-0010925Y-0018878D03*
X-0011240D03*
X-0011555D03*
X-0011870D03*
Y-0018209D03*
X-0011555D03*
X-0011240D03*
X-0010925D03*
X-0009311Y-0018878D03*
X-0009626D03*
X-0009941D03*
X-0010256D03*
Y-0018209D03*
X-0009941D03*
X-0009626D03*
X-0009311D03*
X-0006673Y-0018878D03*
X-0006988D03*
X-0007303D03*
X-0007618D03*
Y-0018209D03*
X-0007303D03*
X-0006988D03*
X-0006673D03*
X-0005059Y-0018878D03*
X-0005374D03*
X-0005689D03*
X-0006004D03*
Y-0018209D03*
X-0005689D03*
X-0005374D03*
X-0005059D03*
X-0015177Y-0018878D03*
X-0015492D03*
X-0015807D03*
X-0016122D03*
Y-0018209D03*
X-0015807D03*
X-0015492D03*
X-0015177D03*
X-0013563Y-0018878D03*
X-0013878D03*
X-0014193D03*
X-0014508D03*
Y-0018209D03*
X-0014193D03*
X-0013878D03*
X-0013563D03*
X-0002421Y-0018878D03*
X-0002736D03*
X-0003051D03*
X-0003366D03*
Y-0018209D03*
X-0003051D03*
X-0002736D03*
X-0002421D03*
X-0000807Y-0018878D03*
X-0001122D03*
X-0001437D03*
X-0001752D03*
Y-0018209D03*
X-0001437D03*
X-0001122D03*
X-0000807D03*
G54D60*
X0012106Y-0023110D03*
Y-0022736D03*
Y-0022362D03*
X0013130D03*
Y-0023110D03*
X-0009232Y0022776D03*
Y0022461D03*
Y0022146D03*
Y0021831D03*
X-0009902D03*
Y0022146D03*
Y0022461D03*
Y0022776D03*
G54D61*
X0016594Y0028459D03*
Y0027959D03*
X0014193D03*
Y0028459D03*
G54D62*
X-0016909Y-0030257D03*
Y-0029271D03*
X-0013602D03*
Y-0030257D03*
G54D63*
X0011087Y0016752D03*
X0010087D03*
X-0011118D03*
X-0012118D03*
X0011087Y-0005453D03*
X0010087D03*
X-0011118D03*
X-0012118D03*
G54D64*
X0012087Y0016752D03*
X-0010118D03*
X0012087Y-0005453D03*
X-0010118D03*
G54D65*
X-0016811Y-0027303D03*
X-0014449D03*
G54D66*
X-0018819Y-0021496D03*
Y-0021693D03*
Y-0021890D03*
Y-0022087D03*
Y-0022283D03*
X-0020472D03*
Y-0022087D03*
Y-0021890D03*
Y-0021693D03*
Y-0021496D03*
G54D67*
X-0020630Y-0016122D03*
X-0018661D03*
Y-0017539D03*
X-0020630D03*
G54D68*
X-0004931Y-0022480D03*
X-0005187D03*
X-0005443D03*
X-0005699D03*
X-0005955D03*
X-0006211D03*
X-0006467D03*
X-0006722D03*
X-0006978D03*
X-0007234D03*
X-0007490D03*
X-0007746D03*
Y-0019724D03*
X-0007490D03*
X-0007234D03*
X-0006978D03*
X-0006722D03*
X-0006467D03*
X-0006211D03*
X-0005955D03*
X-0005699D03*
X-0005443D03*
X-0005187D03*
X-0004931D03*
X-0009183Y-0022480D03*
X-0009439D03*
X-0009695D03*
X-0009951D03*
X-0010207D03*
X-0010463D03*
X-0010719D03*
X-0010974D03*
X-0011230D03*
X-0011486D03*
X-0011742D03*
X-0011998D03*
Y-0019724D03*
X-0011742D03*
X-0011486D03*
X-0011230D03*
X-0010974D03*
X-0010719D03*
X-0010463D03*
X-0010207D03*
X-0009951D03*
X-0009695D03*
X-0009439D03*
X-0009183D03*
X-0013435Y-0022480D03*
X-0013691D03*
X-0013947D03*
X-0014203D03*
X-0014459D03*
X-0014715D03*
X-0014970D03*
X-0015226D03*
X-0015482D03*
X-0015738D03*
X-0015994D03*
X-0016250D03*
Y-0019724D03*
X-0015994D03*
X-0015738D03*
X-0015482D03*
X-0015226D03*
X-0014970D03*
X-0014715D03*
X-0014459D03*
X-0014203D03*
X-0013947D03*
X-0013691D03*
X-0013435D03*
X-0000679Y-0022480D03*
X-0000935D03*
X-0001191D03*
X-0001447D03*
X-0001703D03*
X-0001959D03*
X-0002215D03*
X-0002470D03*
X-0002726D03*
X-0002982D03*
X-0003238D03*
X-0003494D03*
Y-0019724D03*
X-0003238D03*
X-0002982D03*
X-0002726D03*
X-0002470D03*
X-0002215D03*
X-0001959D03*
X-0001703D03*
X-0001447D03*
X-0001191D03*
X-0000935D03*
X-0000679D03*
G54D69*
X0010630Y-0017480D03*
Y-0017854D03*
Y-0018228D03*
X0009646D03*
Y-0017480D03*
X0007933Y-0018228D03*
Y-0017854D03*
Y-0017480D03*
X0008917D03*
Y-0018228D03*
G54D70*
X0016181Y0030907D03*
Y0030407D03*
Y0029907D03*
Y0029407D03*
X0014331Y0029907D03*
Y0029407D03*
Y0030407D03*
Y0030907D03*
G54D71*
X-0012382Y0028878D03*
X0010236Y0028839D03*
G54D72*
X-0011594Y0027756D03*
X-0011791D03*
X-0011988D03*
X-0012185D03*
X-0012382D03*
X-0012579D03*
X-0012776D03*
X-0012972D03*
X-0013169D03*
Y0030000D03*
X-0012972D03*
X-0012776D03*
X-0012579D03*
X-0012382D03*
X-0012185D03*
X-0011988D03*
X-0011791D03*
X-0011594D03*
X0011024Y0027717D03*
X0010827D03*
X0010630D03*
X0010433D03*
X0010236D03*
X0010039D03*
X0009843D03*
X0009646D03*
X0009449D03*
Y0029961D03*
X0009646D03*
X0009843D03*
X0010039D03*
X0010236D03*
X0010433D03*
X0010630D03*
X0010827D03*
X0011024D03*
G54D73*
X-0011260Y0029665D03*
Y0029469D03*
Y0029272D03*
Y0029075D03*
Y0028878D03*
Y0028681D03*
Y0028484D03*
Y0028287D03*
Y0028091D03*
X-0013504D03*
Y0028287D03*
Y0028484D03*
Y0028681D03*
Y0028878D03*
Y0029075D03*
Y0029272D03*
Y0029469D03*
Y0029665D03*
X0011358Y0029626D03*
Y0029429D03*
Y0029232D03*
Y0029035D03*
Y0028839D03*
Y0028642D03*
Y0028445D03*
Y0028248D03*
Y0028051D03*
X0009114D03*
Y0028248D03*
Y0028445D03*
Y0028642D03*
Y0028839D03*
Y0029035D03*
Y0029232D03*
Y0029429D03*
Y0029626D03*
G54D74*
X0000551Y0030591D03*
Y0029606D03*
X-0000236D03*
Y0030591D03*
G54D75*
X0019272Y-0020157D03*
G54D76*
X0019764Y-0020925D03*
X0019567D03*
X0019370D03*
X0019173D03*
X0018976D03*
X0018780D03*
Y-0019390D03*
X0018976D03*
X0019173D03*
X0019370D03*
X0019567D03*
X0019764D03*
G54D77*
X0020039Y-0019665D03*
Y-0019862D03*
Y-0020059D03*
Y-0020256D03*
Y-0020453D03*
Y-0020650D03*
X0018504D03*
Y-0020453D03*
Y-0020256D03*
Y-0020059D03*
Y-0019862D03*
Y-0019665D03*
G54D79*
X0014587Y-0019390D03*
G54D80*
X0012343Y-0020866D03*
Y-0020669D03*
Y-0020472D03*
Y-0020276D03*
Y-0020079D03*
Y-0019882D03*
Y-0019685D03*
Y-0019488D03*
Y-0019291D03*
Y-0019094D03*
Y-0018898D03*
Y-0018701D03*
Y-0018504D03*
Y-0018307D03*
Y-0018110D03*
Y-0017913D03*
X0016831D03*
Y-0018110D03*
Y-0018307D03*
Y-0018504D03*
Y-0018701D03*
Y-0018898D03*
Y-0019094D03*
Y-0019291D03*
Y-0019488D03*
Y-0019685D03*
Y-0019882D03*
Y-0020079D03*
Y-0020276D03*
Y-0020472D03*
Y-0020669D03*
Y-0020866D03*
G54D81*
X0016063Y-0021634D03*
X0015866D03*
X0015669D03*
X0015472D03*
X0015276D03*
X0015079D03*
X0014882D03*
X0014685D03*
X0014488D03*
X0014291D03*
X0014094D03*
X0013898D03*
X0013701D03*
X0013504D03*
X0013307D03*
X0013110D03*
Y-0017146D03*
X0013307D03*
X0013504D03*
X0013701D03*
X0013898D03*
X0014094D03*
X0014291D03*
X0014488D03*
X0014685D03*
X0014882D03*
X0015079D03*
X0015276D03*
X0015472D03*
X0015669D03*
X0015866D03*
X0016063D03*
G54D82*
X0019173Y-0017165D03*
X0019547D03*
X0019921D03*
Y-0018189D03*
X0019173D03*
G54D83*
X0016575Y-0023130D03*
Y-0022756D03*
Y-0022382D03*
X0017598D03*
Y-0023130D03*
G54D84*
X-0016289Y-0024301D03*
G54D85*
X-0015463Y-0023907D03*
Y-0024104D03*
Y-0024301D03*
Y-0024498D03*
Y-0024695D03*
X-0017116D03*
Y-0024498D03*
Y-0024301D03*
Y-0024104D03*
Y-0023907D03*
G54D86*
X0009567Y-0023524D03*
Y-0019823D03*
M02*
