*
G04 Mass Parameters ***
*
G04 Image ***
*
%INV:\DEV\A005\CAD\XMP-64A_1-1_9.IN2*%
%ICAS*%
%MOIN*%
%IPPOS*%
%ASAXBY*%
G74*%FSLAN2X34Y34*%
*
G04 Aperture Definitions ***
*
%AMTHERMAL90*
1,1,0.0866,0,0,*
1,0,0.0630,0,0,*
21,0,0.0867,0.0197,0,0,45.0*
21,0,0.0867,0.0197,0,0,135.0*%
%AMTHERMAL94*
1,1,0.0628,0,0,*
1,0,0.0472,0,0,*
21,0,0.0629,0.0079,0,0,45.0*
21,0,0.0629,0.0079,0,0,135.0*%
%AMTHERMAL96*
1,1,0.0943,0,0,*
1,0,0.0708,0,0,*
21,0,0.0944,0.0197,0,0,225.0*
21,0,0.0944,0.0197,0,0,315.0*%
%AMTHERMAL98*
1,1,0.0943,0,0,*
1,0,0.0708,0,0,*
21,0,0.0944,0.0197,0,0,45.0*
21,0,0.0944,0.0197,0,0,135.0*%
%AMTHERMAL107*
1,1,0.0943,0,0,*
1,0,0.0708,0,0,*
21,0,0.0944,0.0197,0,0,315.0*
21,0,0.0944,0.0197,0,0,45.0*%
%AMTHERMAL109*
1,1,0.0943,0,0,*
1,0,0.0708,0,0,*
21,0,0.0944,0.0197,0,0,135.0*
21,0,0.0944,0.0197,0,0,225.0*%
%AMTHERMAL118*
1,1,0.0786,0,0,*
1,0,0.0630,0,0,*
21,0,0.0787,0.0079,0,0,45.0*
21,0,0.0787,0.0079,0,0,135.0*%
%AMTHERMAL120*
1,1,0.1023,0,0,*
1,0,0.0787,0,0,*
21,0,0.1024,0.0197,0,0,225.0*
21,0,0.1024,0.0197,0,0,315.0*%
%AMTHERMAL123*
1,1,0.0921,0,0,*
1,0,0.0686,0,0,*
21,0,0.0922,0.0197,0,0,225.0*
21,0,0.0922,0.0197,0,0,315.0*%
%AMTHERMAL135*
1,1,0.0708,0,0,*
1,0,0.0552,0,0,*
21,0,0.0709,0.0079,0,0,45.0*
21,0,0.0709,0.0079,0,0,135.0*%
%AMTHERMAL139*
1,1,0.0786,0,0,*
1,0,0.0630,0,0,*
21,0,0.0787,0.0079,0,0,135.0*
21,0,0.0787,0.0079,0,0,225.0*%
%ADD10C,0.0787*%
%ADD11C,0.0630*%
%ADD12C,0.0550*%
%ADD13C,0.0709*%
%ADD14R,0.0709X0.0709*%
%ADD15C,0.0591*%
%ADD16C,0.0866*%
%ADD17C,0.1378*%
%ADD18R,0.0394X0.0551*%
%ADD19C,0.2756*%
%ADD20O,0.1575X0.0787*%
%ADD21O,0.0787X0.1575*%
%ADD22O,0.0787X0.1772*%
%ADD23C,0.0315*%
%ADD24C,0.0157*%
%ADD25C,0.0177*%
%ADD26C,0.1181*%
%ADD27C,0.0750*%
%ADD28R,0.0750X0.0750*%
%ADD29C,0.0079*%
%ADD30C,0.0157*%
%ADD31C,0.0030*%
%ADD32C,0.0157*%
%ADD33C,0.0157*%
%ADD34C,0.0098*%
%ADD35R,0.0236X0.0236*%
%ADD36R,0.0571X0.0453*%
%ADD37R,0.0453X0.0571*%
%ADD38R,0.0394X0.0276*%
%ADD39R,0.0276X0.0394*%
%ADD40R,0.1280X0.0650*%
%ADD41R,0.0551X0.0472*%
%ADD42R,0.0650X0.1280*%
%ADD43R,0.0965X0.0925*%
%ADD44R,0.0472X0.0709*%
%ADD45R,0.0472X0.1063*%
%ADD46O,0.0236X0.0472*%
%ADD47R,0.0591X0.0472*%
%ADD48R,0.0394X0.0374*%
%ADD49R,0.0374X0.0394*%
%ADD50R,0.1417X0.0551*%
%ADD51R,0.0866X0.0984*%
%ADD52R,0.0787X0.0197*%
%ADD53O,0.1062X0.0236*%
%ADD54O,0.0591X0.0256*%
%ADD55R,0.0197X0.0236*%
%ADD56R,0.0236X0.0197*%
%ADD57R,0.0236X0.0394*%
%ADD58R,0.0394X0.0236*%
%ADD59R,0.0236X0.0433*%
%ADD60R,0.0433X0.0236*%
%ADD61O,0.0571X0.0236*%
%ADD62O,0.0709X0.0591*%
%ADD63C,0.0708*%
%ADD64R,0.0708X0.0708*%
%ADD65R,0.0980X0.1370*%
%ADD66O,0.0591X0.0118*%
%ADD67R,0.0866X0.0630*%
%ADD68R,0.0177X0.0748*%
%ADD69O,0.0512X0.0236*%
%ADD70O,0.0866X0.0236*%
%ADD71R,0.1496X0.1496*%
%ADD72O,0.0118X0.0394*%
%ADD73O,0.0394X0.0118*%
%ADD74R,0.0472X0.0571*%
%ADD75R,0.1024X0.0945*%
%ADD76O,0.0118X0.0354*%
%ADD77O,0.0354X0.0118*%
%ADD78C,0.0394*%
%ADD79R,0.1969X0.1969*%
%ADD80R,0.0591X0.0118*%
%ADD81R,0.0118X0.0591*%
%ADD82R,0.0236X0.0453*%
%ADD83R,0.0453X0.0236*%
%ADD84R,0.0768X0.0866*%
%ADD85O,0.0630X0.0118*%
%ADD86R,0.0650X0.1949*%
%ADD87C,0.0197*%
%ADD88C,0.0394*%
%ADD89C,0.0118*%
%ADD90THERMAL90*%
%ADD91C,0.0787*%
%ADD92C,0.0630*%
%ADD93C,0.0550*%
%ADD94THERMAL94*%
%ADD95C,0.0709*%
%ADD96THERMAL96*%
%ADD97C,0.0709*%
%ADD98THERMAL98*%
%ADD99C,0.0591*%
%ADD100C,0.0866*%
%ADD101C,0.1378*%
%ADD102R,0.0709X0.0709*%
%ADD103C,0.1575*%
%ADD104O,0.1575X0.0787*%
%ADD105O,0.0787X0.1575*%
%ADD106O,0.0787X0.1772*%
%ADD107THERMAL107*%
%ADD108C,0.0709*%
%ADD109THERMAL109*%
%ADD110C,0.0709*%
%ADD111C,0.0050*%
%ADD112C,0.0050*%
%ADD113C,0.0315*%
%ADD114C,0.0050*%
%ADD115C,0.0050*%
%ADD116C,0.0315*%
%ADD117C,0.0217*%
%ADD118THERMAL118*%
%ADD119C,0.1181*%
%ADD120THERMAL120*%
%ADD121C,0.1181*%
%ADD122C,0.0750*%
%ADD123THERMAL123*%
%ADD124C,0.0217*%
%ADD125C,0.0217*%
%ADD126C,0.0050*%
%ADD127C,0.0217*%
%ADD128C,0.0050*%
%ADD129C,0.0787*%
%ADD130C,0.0630*%
%ADD131C,0.0550*%
%ADD132C,0.0709*%
%ADD133R,0.0709X0.0709*%
%ADD134C,0.0591*%
%ADD135THERMAL135*%
%ADD136R,0.0709X0.0709*%
%ADD137R,0.0709X0.0709*%
%ADD138C,0.0217*%
%ADD139THERMAL139*%
%ADD140C,0.1575*%
*
G04 Plot Data ***
*
G54D29*
G01X0037953Y0036620D02*
X0037909Y0036708D01*
X0037646D01*
X0037603Y0036620D01*
Y0036533D01*
X0037646Y0036446D01*
X0037909D01*
X0037953Y0036358D01*
Y0036270D01*
X0037909Y0036183D01*
X0037646D01*
X0037603Y0036270D01*
X0037270Y0036446D02*
X0037402Y0036183D01*
X0037052Y0036446D02*
X0037314D01*
X0037402Y0036533D01*
Y0036620D01*
X0037314Y0036708D01*
X0037052D01*
Y0036183D01*
X0036544D02*
X0036500Y0036270D01*
Y0036620D01*
X0036544Y0036708D01*
X0036806D01*
X0036850Y0036620D01*
Y0036270D01*
X0036806Y0036183D01*
X0036544D01*
X0036168Y0036446D02*
X0036299Y0036183D01*
X0035949Y0036446D02*
X0036211D01*
X0036299Y0036533D01*
Y0036620D01*
X0036211Y0036708D01*
X0035949D01*
Y0036183D01*
X0035617Y0036446D02*
X0035748Y0036183D01*
X0035398Y0036446D02*
X0035660D01*
X0035748Y0036533D01*
Y0036620D01*
X0035660Y0036708D01*
X0035398D01*
Y0036183D01*
X0035109Y0036446D02*
X0034847D01*
X0035197Y0036183D02*
X0034847D01*
Y0036708D01*
X0035197D01*
X0033591Y0036183D02*
Y0036708D01*
X0033548Y0036183D02*
X0033810D01*
X0033898Y0036358D01*
Y0036533D01*
X0033810Y0036708D01*
X0033548D01*
X0033040Y0036183D02*
X0032996Y0036270D01*
Y0036620D01*
X0033040Y0036708D01*
X0033302D01*
X0033346Y0036620D01*
Y0036270D01*
X0033302Y0036183D01*
X0033040D01*
X0032489D02*
X0032445Y0036270D01*
Y0036620D01*
X0032489Y0036708D01*
X0032751D01*
X0032795Y0036620D01*
Y0036270D01*
X0032751Y0036183D01*
X0032489D01*
X0032069Y0036446D02*
X0032244D01*
Y0036270D01*
X0032200Y0036183D01*
X0031938D01*
X0031894Y0036270D01*
Y0036620D01*
X0031938Y0036708D01*
X0032200D01*
X0032244Y0036620D01*
X0030945Y0036708D02*
Y0036183D01*
X0030857Y0036270D01*
X0030682Y0036620D01*
X0030595Y0036708D01*
Y0036183D01*
X0030394Y0036708D02*
Y0036270D01*
X0030350Y0036183D01*
X0030219Y0036446D01*
Y0036533D02*
Y0036446D01*
X0030087Y0036183D01*
X0030044Y0036270D01*
Y0036708D01*
X0029536Y0036183D02*
X0029493Y0036270D01*
Y0036620D01*
X0029536Y0036708D01*
X0029798D01*
X0029843Y0036620D01*
Y0036270D01*
X0029798Y0036183D01*
X0029536D01*
X0029291Y0036708D02*
Y0036183D01*
X0029204Y0036270D01*
X0029029Y0036620D01*
X0028941Y0036708D01*
Y0036183D01*
X0028740D02*
X0028478Y0036446D01*
X0028740Y0036708D01*
X0028390D02*
Y0036183D01*
X0027397Y0036446D02*
X0027441Y0036533D01*
Y0036620D01*
X0027397Y0036708D01*
X0027135D01*
X0027091Y0036620D01*
Y0036533D01*
X0027135Y0036446D01*
X0027397D01*
X0027441Y0036358D01*
Y0036270D01*
X0027397Y0036183D01*
X0027135D01*
X0027091Y0036270D01*
Y0036358D01*
X0027135Y0036446D01*
X0026890Y0036358D02*
X0026540D01*
X0026715Y0036708D01*
X0026802D01*
Y0036183D01*
X0064444Y0018692D02*
X0064269D01*
X0064444Y0018867D01*
Y0018911D01*
X0064422Y0018954D01*
X0064291D01*
X0064269Y0018911D01*
X0064090Y0018954D02*
Y0018692D01*
X0064046Y0018735D01*
X0063958Y0018911D01*
X0063915Y0018954D01*
Y0018692D01*
X0063735D02*
X0063648D01*
X0063692D02*
Y0018954D01*
X0063735D02*
X0063648D01*
X0056003Y0035120D02*
X0056090Y0035295D01*
Y0035470D01*
X0056003Y0035645D01*
X0055408Y0035120D02*
Y0035645D01*
X0055364Y0035120D02*
X0055626D01*
X0055714Y0035295D01*
Y0035470D01*
X0055626Y0035645D01*
X0055364D01*
X0055163Y0035295D02*
X0054813D01*
X0055163Y0035120D02*
Y0035383D01*
X0055031Y0035645D01*
X0054944D01*
X0054813Y0035383D01*
Y0035120D01*
X0054262Y0035383D02*
X0054524D01*
X0054612Y0035470D01*
Y0035557D01*
X0054524Y0035645D01*
X0054262D01*
Y0035120D01*
X0054061D02*
X0053886D01*
X0053973D02*
Y0035645D01*
X0054061D02*
X0053886D01*
X0053422Y0035120D02*
Y0035645D01*
X0053597D02*
X0053247D01*
X0053046D02*
Y0035120D01*
X0052958Y0035207D01*
X0052783Y0035557D01*
X0052696Y0035645D01*
Y0035120D01*
X0052495Y0035295D02*
X0052145D01*
X0052495Y0035120D02*
Y0035383D01*
X0052363Y0035645D01*
X0052276D01*
X0052145Y0035383D01*
Y0035120D01*
X0051108Y0035383D02*
X0050846D01*
X0051196Y0035120D02*
X0050846D01*
Y0035645D01*
X0051196D01*
X0050644D02*
Y0035120D01*
X0050557Y0035207D01*
X0050382Y0035557D01*
X0050294Y0035645D01*
Y0035120D01*
X0050093Y0035295D02*
X0049743D01*
X0050093Y0035120D02*
Y0035383D01*
X0049962Y0035645D01*
X0049874D01*
X0049743Y0035383D01*
Y0035120D01*
X0049542D02*
X0049236D01*
Y0035645D01*
X0048685Y0035383D02*
X0048947D01*
X0049035Y0035470D01*
Y0035557D01*
X0048947Y0035645D01*
X0048685D01*
Y0035120D01*
X0047736D02*
Y0035645D01*
X0047648Y0035557D01*
X0047561Y0035383D01*
X0047473Y0035557D01*
X0047386Y0035645D01*
Y0035120D01*
X0047185D02*
Y0035645D01*
X0047097Y0035557D01*
X0047009Y0035383D01*
X0046922Y0035557D01*
X0046835Y0035645D01*
Y0035120D01*
X0046283Y0035207D02*
X0046327Y0035120D01*
X0046589D01*
X0046633Y0035207D01*
Y0035383D01*
X0046546Y0035470D01*
X0046283D01*
Y0035645D01*
X0046633D01*
X0045732Y0035207D02*
X0045776Y0035120D01*
X0046038D01*
X0046082Y0035207D01*
Y0035383D01*
X0045994Y0035470D01*
X0045732D01*
Y0035645D01*
X0046082D01*
X0045444Y0035120D02*
X0045531D01*
Y0035207D01*
X0045444D01*
Y0035120D01*
X0044936D02*
X0044849Y0035207D01*
X0044805Y0035295D01*
Y0035470D01*
X0044849Y0035557D01*
X0044936Y0035645D01*
X0045024D01*
X0045111Y0035557D01*
X0045155Y0035470D01*
Y0035295D01*
X0045111Y0035207D01*
X0045024Y0035120D01*
X0044936D01*
X0044604D02*
X0044517Y0035295D01*
Y0035470D01*
X0044604Y0035645D01*
X0043305Y0035383D02*
X0043043D01*
X0043393Y0035120D02*
X0043043D01*
Y0035645D01*
X0043393D01*
X0042841Y0035120D02*
X0042535D01*
Y0035645D01*
X0042028Y0035120D02*
X0041984Y0035207D01*
Y0035557D01*
X0042028Y0035645D01*
X0042290D01*
X0042334Y0035557D01*
Y0035207D01*
X0042290Y0035120D01*
X0042028D01*
X0041783Y0035383D02*
X0041433D01*
X0041783Y0035120D02*
Y0035645D01*
X0041433Y0035120D02*
Y0035645D01*
X0040484Y0035120D02*
Y0035645D01*
X0040396Y0035557D01*
X0040309Y0035383D01*
X0040221Y0035557D01*
X0040134Y0035645D01*
Y0035120D01*
X0039933D02*
Y0035645D01*
X0039845Y0035557D01*
X0039757Y0035383D01*
X0039670Y0035557D01*
X0039583Y0035645D01*
Y0035120D01*
X0039031Y0035207D02*
X0039075Y0035120D01*
X0039337D01*
X0039381Y0035207D01*
Y0035383D01*
X0039294Y0035470D01*
X0039031D01*
Y0035645D01*
X0039381D01*
X0038830Y0035120D02*
X0038656D01*
X0038743D02*
Y0035645D01*
X0038656Y0035557D01*
X0038280Y0035120D02*
X0038367D01*
Y0035207D01*
X0038280D01*
Y0035120D01*
X0037772D02*
X0037685Y0035207D01*
X0037641Y0035295D01*
Y0035470D01*
X0037685Y0035557D01*
X0037772Y0035645D01*
X0037859D01*
X0037947Y0035557D01*
X0037991Y0035470D01*
Y0035295D01*
X0037947Y0035207D01*
X0037859Y0035120D01*
X0037772D01*
X0036692Y0035645D02*
X0036430Y0035120D01*
X0035130D02*
Y0035645D01*
X0035087Y0035120D02*
X0035349D01*
X0035437Y0035295D01*
Y0035470D01*
X0035349Y0035645D01*
X0035087D01*
X0034885Y0035295D02*
X0034535D01*
X0034885Y0035120D02*
Y0035383D01*
X0034754Y0035645D01*
X0034667D01*
X0034535Y0035383D01*
Y0035120D01*
X0033984Y0035383D02*
X0034246D01*
X0034334Y0035470D01*
Y0035557D01*
X0034246Y0035645D01*
X0033984D01*
Y0035120D01*
X0033035D02*
Y0035645D01*
X0032947Y0035557D01*
X0032860Y0035383D01*
X0032772Y0035557D01*
X0032685Y0035645D01*
Y0035120D01*
X0032484D02*
Y0035645D01*
X0032396Y0035557D01*
X0032309Y0035383D01*
X0032221Y0035557D01*
X0032134Y0035645D01*
Y0035120D01*
X0031933Y0035295D02*
X0031583D01*
X0031757Y0035645D01*
X0031845D01*
Y0035120D01*
X0031294D02*
X0031381D01*
Y0035207D01*
X0031294D01*
Y0035120D01*
X0030787D02*
X0030699Y0035207D01*
X0030656Y0035295D01*
Y0035470D01*
X0030699Y0035557D01*
X0030787Y0035645D01*
X0030874D01*
X0030961Y0035557D01*
X0031006Y0035470D01*
Y0035295D01*
X0030961Y0035207D01*
X0030874Y0035120D01*
X0030787D01*
X0029706Y0035383D02*
X0029356D01*
X0028407Y0035120D02*
X0028232D01*
X0028320D02*
Y0035645D01*
X0028232Y0035557D01*
X0027944Y0035295D02*
X0027594D01*
X0027944Y0035120D02*
Y0035383D01*
X0027812Y0035645D01*
X0027725D01*
X0027594Y0035383D01*
Y0035120D01*
X0027393D02*
X0027218D01*
X0027305D02*
Y0035645D01*
X0027393D02*
X0027218D01*
X0026929D02*
Y0035470D01*
X0026754Y0035120D01*
X0026579Y0035470D01*
Y0035645D01*
X0062198Y0034219D02*
X0062154Y0034306D01*
X0061892D01*
X0061848Y0034219D01*
Y0034131D01*
X0061892Y0034044D01*
X0062154D01*
X0062198Y0033957D01*
Y0033869D01*
X0062154Y0033781D01*
X0061892D01*
X0061848Y0033869D01*
X0061341Y0033781D02*
X0061297Y0033869D01*
Y0034219D01*
X0061341Y0034306D01*
X0061603D01*
X0061647Y0034219D01*
Y0033869D01*
X0061603Y0033781D01*
X0061341D01*
X0061096D02*
Y0034306D01*
X0061008Y0034219D01*
X0060921Y0034044D01*
X0060833Y0034219D01*
X0060746Y0034306D01*
Y0033781D01*
X0060545D02*
X0060283Y0034306D01*
X0060545D02*
X0060283Y0033781D01*
X0059290D02*
Y0034306D01*
X0059202Y0034219D01*
X0059115Y0034044D01*
X0059027Y0034219D01*
X0058940Y0034306D01*
Y0033781D01*
X0058432D02*
X0058389Y0033869D01*
Y0034219D01*
X0058432Y0034306D01*
X0058694D01*
X0058739Y0034219D01*
Y0033869D01*
X0058694Y0033781D01*
X0058432D01*
X0058056Y0034044D02*
X0058187Y0033781D01*
X0057837Y0034044D02*
X0058100D01*
X0058187Y0034131D01*
Y0034219D01*
X0058100Y0034306D01*
X0057837D01*
Y0033781D01*
X0057548Y0034044D02*
X0057286D01*
Y0033781D02*
Y0034306D01*
X0057636D01*
X0056337D02*
Y0033781D01*
X0056249Y0033869D01*
X0056074Y0034219D01*
X0055987Y0034306D01*
Y0033781D01*
X0055480D02*
X0055436Y0033869D01*
Y0034219D01*
X0055480Y0034306D01*
X0055742D01*
X0055786Y0034219D01*
Y0033869D01*
X0055742Y0033781D01*
X0055480D01*
X0055235D02*
X0055060D01*
X0055147D02*
Y0034306D01*
X0055235D02*
X0055060D01*
X0054596Y0033781D02*
Y0034306D01*
X0054771D02*
X0054421D01*
X0054220Y0033869D02*
X0054176Y0033781D01*
X0053914D01*
X0053870Y0033869D01*
Y0034219D01*
X0053914Y0034306D01*
X0054176D01*
X0054220Y0034219D01*
X0053669Y0034306D02*
Y0033869D01*
X0053625Y0033781D01*
X0053363D01*
X0053319Y0033869D01*
Y0034306D01*
X0052986Y0034044D02*
X0053118Y0033781D01*
X0052768Y0034044D02*
X0053030D01*
X0053118Y0034131D01*
Y0034219D01*
X0053030Y0034306D01*
X0052768D01*
Y0033781D01*
X0052391D02*
Y0034306D01*
X0052567D02*
X0052217D01*
X0052015Y0034219D02*
X0051971Y0034306D01*
X0051709D01*
X0051665Y0034219D01*
Y0034131D01*
X0051709Y0034044D01*
X0051971D01*
X0052015Y0033957D01*
Y0033869D01*
X0051971Y0033781D01*
X0051709D01*
X0051665Y0033869D01*
X0051464Y0034306D02*
Y0033781D01*
X0051376Y0033869D01*
X0051202Y0034219D01*
X0051114Y0034306D01*
Y0033781D01*
X0050913D02*
X0050738D01*
X0050826D02*
Y0034306D01*
X0050913D02*
X0050738D01*
X0049702Y0034044D02*
X0049352D01*
X0048096Y0033781D02*
Y0034306D01*
X0048052Y0033781D02*
X0048315D01*
X0048402Y0033957D01*
Y0034131D01*
X0048315Y0034306D01*
X0048052D01*
X0047763Y0034044D02*
X0047501D01*
X0047851Y0033781D02*
X0047501D01*
Y0034306D01*
X0047851D01*
X0047300Y0034044D02*
X0046950D01*
X0047300Y0033781D02*
Y0034306D01*
X0046950Y0033781D02*
Y0034306D01*
X0046574Y0033781D02*
Y0034306D01*
X0046749D02*
X0046399D01*
X0046022Y0034044D02*
X0046198D01*
Y0033869D01*
X0046154Y0033781D01*
X0045891D01*
X0045848Y0033869D01*
Y0034219D01*
X0045891Y0034306D01*
X0046154D01*
X0046198Y0034219D01*
X0045646Y0034306D02*
Y0033781D01*
X0045559Y0033869D01*
X0045384Y0034219D01*
X0045296Y0034306D01*
Y0033781D01*
X0045007Y0034044D02*
X0044745D01*
X0045095Y0033781D02*
X0044745D01*
Y0034306D01*
X0045095D01*
X0044544Y0033781D02*
X0044238D01*
Y0034306D01*
X0043289Y0034044D02*
X0042939D01*
X0043289Y0033781D02*
Y0034306D01*
X0042939Y0033781D02*
Y0034306D01*
X0042738Y0033869D02*
X0042694Y0033781D01*
X0042431D01*
X0042388Y0033869D01*
Y0034219D01*
X0042431Y0034306D01*
X0042694D01*
X0042738Y0034219D01*
X0042011Y0033781D02*
Y0034306D01*
X0042187D02*
X0041837D01*
X0041635Y0033957D02*
X0041285D01*
X0041635Y0033781D02*
Y0034044D01*
X0041504Y0034306D01*
X0041417D01*
X0041285Y0034044D01*
Y0033781D01*
X0041084D02*
Y0034306D01*
X0040996Y0034219D01*
X0040909Y0034044D01*
X0040822Y0034219D01*
X0040734Y0034306D01*
Y0033781D01*
X0039697Y0034044D02*
X0039435D01*
X0039785Y0033781D02*
X0039435D01*
Y0034306D01*
X0039785D01*
X0038928Y0033781D02*
Y0034306D01*
X0038884Y0033781D02*
X0039146D01*
X0039234Y0033869D01*
Y0033957D01*
X0039190Y0034044D01*
X0038928D02*
X0039190D01*
X0039234Y0034131D01*
Y0034219D01*
X0039146Y0034306D01*
X0038884D01*
X0037628Y0033781D02*
X0037585Y0033869D01*
Y0034219D01*
X0037628Y0034306D01*
X0037891D01*
X0037935Y0034219D01*
Y0033869D01*
X0037891Y0033781D01*
X0037628D01*
X0037208D02*
Y0034306D01*
X0037383D02*
X0037033D01*
X0035778Y0033781D02*
Y0034306D01*
X0035734Y0033781D02*
X0035996D01*
X0036084Y0033957D01*
Y0034131D01*
X0035996Y0034306D01*
X0035734D01*
X0035445Y0034044D02*
X0035183D01*
X0035533Y0033781D02*
X0035183D01*
Y0034306D01*
X0035533D01*
X0034894Y0034044D02*
X0034632D01*
X0034982Y0033781D02*
X0034632D01*
Y0034306D01*
X0034982D01*
X0034431D02*
Y0033781D01*
X0034343Y0033869D01*
X0034168Y0034219D01*
X0034081Y0034306D01*
Y0033781D01*
X0032956D02*
Y0034306D01*
X0033131D02*
X0032781D01*
X0032537Y0034219D02*
X0032580Y0034306D01*
X0032161D02*
Y0033781D01*
X0032073Y0033869D01*
X0031898Y0034219D01*
X0031811Y0034306D01*
Y0033781D01*
X0031303D02*
X0031259Y0033869D01*
Y0034219D01*
X0031303Y0034306D01*
X0031565D01*
X0031609Y0034219D01*
Y0033869D01*
X0031565Y0033781D01*
X0031303D01*
X0030752D02*
Y0034306D01*
X0030708Y0033781D02*
X0030970D01*
X0031058Y0033957D01*
Y0034131D01*
X0030970Y0034306D01*
X0030708D01*
X0029759Y0034219D02*
X0029715Y0034306D01*
X0029453D01*
X0029409Y0034219D01*
Y0034131D01*
X0029453Y0034044D01*
X0029715D01*
X0029759Y0033957D01*
Y0033869D01*
X0029715Y0033781D01*
X0029453D01*
X0029409Y0033869D01*
X0029208Y0033781D02*
X0028945Y0034044D01*
X0029208Y0034306D01*
X0028858D02*
Y0033781D01*
X0028657Y0033869D02*
X0028613Y0033781D01*
X0028350D01*
X0028307Y0033869D01*
Y0034219D01*
X0028350Y0034306D01*
X0028613D01*
X0028657Y0034219D01*
X0027799Y0033781D02*
X0027756Y0033869D01*
Y0034219D01*
X0027799Y0034306D01*
X0028061D01*
X0028106Y0034219D01*
Y0033869D01*
X0028061Y0033781D01*
X0027799D01*
X0027554D02*
X0027248D01*
Y0034306D01*
X0027047Y0033869D02*
X0027003Y0033781D01*
X0026741D01*
X0026697Y0033869D01*
Y0034219D01*
X0026741Y0034306D01*
X0027003D01*
X0027047Y0034219D01*
X0071622Y0018692D02*
X0071447D01*
X0071622Y0018867D01*
Y0018911D01*
X0071600Y0018954D01*
X0071469D01*
X0071447Y0018911D01*
X0070815Y0018692D02*
X0070662D01*
Y0018954D01*
X0070483Y0018780D02*
X0070307D01*
X0070483Y0018692D02*
Y0018823D01*
X0070417Y0018954D01*
X0070373D01*
X0070307Y0018823D01*
Y0018692D01*
X0070128Y0018954D02*
Y0018692D01*
X0070084Y0018735D01*
X0069997Y0018911D01*
X0069953Y0018954D01*
Y0018692D01*
X0069686Y0018823D02*
X0069774D01*
Y0018735D01*
X0069752Y0018692D01*
X0069621D01*
X0069599Y0018735D01*
Y0018911D01*
X0069621Y0018954D01*
X0069752D01*
X0069774Y0018911D01*
X0069420Y0018692D02*
X0069332D01*
X0069376D02*
Y0018954D01*
X0069420D02*
X0069332D01*
X0069109Y0018911D02*
X0069087Y0018954D01*
X0068956D01*
X0068934Y0018911D01*
Y0018867D01*
X0068956Y0018823D01*
X0069087D01*
X0069109Y0018780D01*
Y0018735D01*
X0069087Y0018692D01*
X0068956D01*
X0068934Y0018735D01*
X0068237Y0018823D02*
X0068302Y0018692D01*
X0068127Y0018823D02*
X0068258D01*
X0068302Y0018867D01*
Y0018911D01*
X0068258Y0018954D01*
X0068127D01*
Y0018692D01*
X0067904Y0018823D02*
X0067773D01*
X0067948Y0018692D02*
X0067773D01*
Y0018954D01*
X0067948D01*
X0067594D02*
Y0018692D01*
X0067550Y0018735D01*
X0067462Y0018911D01*
X0067419Y0018954D01*
Y0018692D01*
X0067239Y0018954D02*
Y0018692D01*
X0067195Y0018735D01*
X0067108Y0018911D01*
X0067064Y0018954D01*
Y0018692D01*
X0066885D02*
X0066798D01*
X0066841D02*
Y0018954D01*
X0066885D02*
X0066798D01*
X0023622Y0035827D02*
Y0035039D01*
X0024016Y0035433D02*
X0023228D01*
X-0023622Y-0035020D02*
Y-0035807D01*
X-0023228Y-0035413D02*
X-0024016D01*
X0023622Y-0035020D02*
Y-0035807D01*
X0024016Y-0035413D02*
X0023228D01*
G54D31*
G01X0007441Y0022618D02*
X0007313Y0022490D01*
X0003258D01*
X0003189Y0022559D01*
Y0022648D01*
X0003093Y0022744D01*
X0002941D01*
X0002520Y0022323D01*
X-0001063D01*
X-0001358Y0022618D01*
X0007441Y-0010689D02*
X0007313Y-0010817D01*
X0003346D01*
X0003071Y-0010541D01*
X-0000719D01*
X-0000866Y-0010689D01*
X-0001142D01*
X0007441Y0000413D02*
X0007313Y0000285D01*
X0003356D01*
X0003100Y0000541D01*
X0002608D01*
X0002480Y0000413D01*
X-0001161D01*
X0007441Y0011516D02*
X0007313Y0011388D01*
X0003356D01*
X0003091Y0011654D01*
X0002559D01*
X0002421Y0011516D01*
X-0001161D01*
X-0001358Y0022618D02*
X-0001496Y0022756D01*
X-0003100D01*
X-0003238Y0022618D01*
X-0003661D01*
Y0011516D02*
X-0003238D01*
X-0003100Y0011654D01*
X-0001890D01*
X-0001752Y0011516D01*
X-0001161D01*
X0001772Y0023563D02*
X0001959Y0023376D01*
X0020246D01*
X0020433Y0023563D01*
X-0003661Y0000413D02*
X-0003228D01*
X-0003100Y0000541D01*
X-0001919D01*
X-0001791Y0000413D01*
X-0001161D01*
X-0014764D02*
X-0014636Y0000285D01*
X-0003789D01*
X-0003661Y0000413D01*
X-0018858Y0009626D02*
X-0018730Y0009498D01*
X-0003474D01*
X-0003346Y0009626D01*
X-0020433Y0008366D02*
X-0020246Y0008179D01*
X-0001959D01*
X-0001772Y0008366D01*
X-0020118Y0008051D02*
X-0019961Y0007894D01*
X-0002244D01*
X-0002087Y0008051D01*
X-0003661Y-0010689D02*
X-0003228D01*
X-0003071Y-0010531D01*
X-0001476D01*
X-0001319Y-0010689D01*
X-0001142D01*
X0013307Y-0016762D02*
X0007156D01*
X0006900Y-0016506D01*
X0003317D01*
X-0001142Y-0012047D01*
Y-0010689D01*
X-0001161Y0011516D02*
Y0013110D01*
X-0001358Y0013307D01*
Y0022618D01*
X-0001161Y0000413D02*
Y-0010669D01*
X-0001142Y-0010689D01*
X-0022943Y0017234D02*
X-0022598Y0017579D01*
Y0018232D01*
X-0023126Y0018760D01*
X0006508Y-0022059D02*
X0007236D01*
X0007783Y-0022606D01*
X0009520D01*
X0011112Y-0021014D01*
X0014459D01*
X0014685Y-0021240D01*
X0002087Y0023878D02*
X0002215Y0023750D01*
X0019990D01*
X0020118Y0023878D01*
X0001031Y0028031D02*
X0001622Y0027441D01*
X0002165D01*
X0002598Y0027874D01*
Y0028307D01*
X0002205Y0028701D01*
X-0001260D01*
X-0001535Y0028425D01*
Y0027165D01*
X-0001181Y0026811D01*
Y0023346D01*
X-0000472Y0022638D01*
X0002677D01*
X0002843Y0022803D01*
X0003142D01*
X0003327Y0022618D01*
X0003346D01*
X0002087Y0024823D02*
X0002215Y0024951D01*
X0009793D01*
X0009882Y0025039D01*
X0012323D01*
X0012411Y0024951D01*
X0019990D01*
X0020118Y0024823D01*
X-0016969Y-0001791D02*
X-0016811Y-0001949D01*
X-0006024D01*
X-0005866Y-0001791D01*
X-0000969Y0028031D02*
X-0000535Y0028465D01*
X0000354D01*
X0000531Y0028287D01*
Y0027815D01*
X0001024Y0027323D01*
X0003445D01*
X0003957Y0027835D01*
X0007835D01*
X0008583Y0027087D01*
X0012441D01*
X0013425Y0028071D01*
Y0029567D01*
X0013766Y0029907D01*
X0003031Y-0011319D02*
X0003189Y-0011161D01*
X0019016D01*
X0019173Y-0011319D01*
X0002087Y0024193D02*
X0002244Y0024350D01*
Y0024587D01*
X0002293Y0024636D01*
X0019872D01*
X0019961Y0024547D01*
Y0024350D01*
X0020118Y0024193D01*
X0002717Y0022933D02*
X0002500Y0022717D01*
X-0000374D01*
X-0001063Y0023406D01*
Y0026870D01*
X-0001417Y0027224D01*
Y0028386D01*
X-0001220Y0028583D01*
X0001490D01*
X0002041Y0028031D01*
X0001772Y0024193D02*
X0001959Y0024380D01*
Y0024596D01*
X0002057Y0024695D01*
X0020187D01*
X0020276Y0024606D01*
Y0024350D01*
X0020433Y0024193D01*
X0012736Y-0019094D02*
X0007657D01*
X0007205Y-0019547D01*
Y-0020362D01*
X0006508Y-0021059D01*
X-0003031Y0020413D02*
X-0003219Y0020226D01*
X-0003415D01*
X-0003514Y0020128D01*
Y0019715D01*
X-0003573Y0019656D01*
X-0010827D01*
X-0010955Y0019528D01*
X-0011260D01*
X-0011388Y0019656D01*
X-0018976D01*
X-0019035Y0019715D01*
Y0020276D01*
X-0019173Y0020413D01*
X0013758Y0029407D02*
Y0028207D01*
X0012520Y0026969D01*
X0008504D01*
X0007756Y0027717D01*
X0004016D01*
X0003465Y0027165D01*
X0000898D01*
X0000031Y0028031D01*
X-0001161Y0011516D02*
Y0000413D01*
X-0019173Y-0012894D02*
X-0018986Y-0013081D01*
X-0003219D01*
X-0003031Y-0012894D01*
X0001772Y0025138D02*
X0001959Y0025325D01*
X0020246D01*
X0020433Y0025138D01*
X0005866Y0020413D02*
X0006024Y0020256D01*
X0017756D01*
X0017913Y0020413D01*
X-0018858Y0012776D02*
X-0018730Y0012904D01*
X-0003474D01*
X-0003346Y0012776D01*
X-0002087Y-0009114D02*
X-0002530Y-0008671D01*
X-0019911D01*
X-0019961Y-0008720D01*
Y-0008957D01*
X-0020118Y-0009114D01*
X0018248Y-0019665D02*
X0018031D01*
X0017224Y-0020472D01*
X-0020118Y0008681D02*
X-0019990Y0008553D01*
X-0012411D01*
X-0012323Y0008465D01*
X-0009882D01*
X-0009793Y0008553D01*
X-0002215D01*
X-0002087Y0008681D01*
X0010236Y0027431D02*
Y0027421D01*
X0010079Y0027264D01*
X0008720D01*
X0007913Y0028071D01*
X0005512D01*
X0004606Y0028976D01*
X0000039D01*
X-0000591Y0029606D01*
X0002087Y-0009429D02*
X0002215Y-0009557D01*
X0019990D01*
X0020118Y-0009429D01*
X0002087Y0025453D02*
X0002244Y0025610D01*
X0019961D01*
X0020118Y0025453D01*
X-0019173Y0012776D02*
X-0018986Y0012963D01*
X-0003219D01*
X-0003031Y0012776D01*
X0003346Y0001358D02*
X0003474Y0001230D01*
X0018730D01*
X0018858Y0001358D01*
X0001772D02*
X0001959Y0001171D01*
X0020246D01*
X0020433Y0001358D01*
X0003346Y-0001476D02*
X0003474Y-0001604D01*
X0018730D01*
X0018858Y-0001476D01*
X0001772Y-0002736D02*
X0001959Y-0002923D01*
X0020246D01*
X0020433Y-0002736D01*
X0002087Y-0013524D02*
X0002215Y-0013652D01*
X0009793D01*
X0009882Y-0013740D01*
X0012323D01*
X0012411Y-0013652D01*
X0019990D01*
X0020118Y-0013524D01*
X-0020118Y0025453D02*
X-0019961Y0025610D01*
X-0002244D01*
X-0002087Y0025453D01*
X-0020118Y0002933D02*
X-0019990Y0003061D01*
X-0002215D01*
X-0002087Y0002933D01*
X0003031Y0001043D02*
X0003219Y0000856D01*
X0018986D01*
X0019173Y0001043D01*
X0003346D02*
X0003474Y0000915D01*
X0018730D01*
X0018858Y0001043D01*
X0003031Y0000413D02*
X0003219Y0000226D01*
X0018986D01*
X0019173Y0000413D01*
X-0019173Y0001043D02*
X-0018986Y0000856D01*
X-0003219D01*
X-0003031Y0001043D01*
X-0019173Y0023878D02*
X-0018986Y0024065D01*
X-0003219D01*
X-0003031Y0023878D01*
X-0018858Y-0010059D02*
X-0018730Y-0010187D01*
X-0003474D01*
X-0003346Y-0010059D01*
X-0018858Y0023878D02*
X-0018730Y0024006D01*
X-0003474D01*
X-0003346Y0023878D01*
X-0020433Y-0012894D02*
X-0020246Y-0013081D01*
Y-0013297D01*
X-0020148Y-0013396D01*
X-0002018D01*
X-0001929Y-0013307D01*
Y-0013051D01*
X-0001772Y-0012894D01*
X-0020118Y0002618D02*
X-0019990Y0002746D01*
X-0012411D01*
X-0012323Y0002835D01*
X-0009882D01*
X-0009793Y0002746D01*
X-0002215D01*
X-0002087Y0002618D01*
X0002087Y-0003051D02*
X0002244Y-0003209D01*
X0019961D01*
X0020118Y-0003051D01*
X0003346Y-0009744D02*
X0003474Y-0009872D01*
X0018730D01*
X0018858Y-0009744D01*
X-0018858Y0001043D02*
X-0018730Y0000915D01*
X-0003474D01*
X-0003346Y0001043D01*
X-0019173Y0000413D02*
X-0018986Y0000226D01*
X-0003219D01*
X-0003031Y0000413D01*
X0003346Y-0012894D02*
X0003474Y-0013022D01*
X0018730D01*
X0018858Y-0012894D01*
X-0018858Y-0009114D02*
X-0018730Y-0008986D01*
X-0003474D01*
X-0003346Y-0009114D01*
X-0020118Y-0013524D02*
X-0019990Y-0013652D01*
X-0012411D01*
X-0012323Y-0013740D01*
X-0009882D01*
X-0009793Y-0013652D01*
X-0002215D01*
X-0002087Y-0013524D01*
X0003031Y-0012579D02*
X0003219Y-0012766D01*
X0018986D01*
X0019173Y-0012579D01*
X0002087Y-0013839D02*
X0002215Y-0013967D01*
X0019990D01*
X0020118Y-0013839D01*
X-0019173Y-0011634D02*
X-0018986Y-0011447D01*
X-0003219D01*
X-0003031Y-0011634D01*
X0003346Y-0009114D02*
X0003474Y-0008986D01*
X0018730D01*
X0018858Y-0009114D01*
X-0002087Y-0012894D02*
X-0002530Y-0013337D01*
X-0019911D01*
X-0019961Y-0013287D01*
Y-0013051D01*
X-0020118Y-0012894D01*
X0003031D02*
X0003219Y-0013081D01*
X0018986D01*
X0019173Y-0012894D01*
X-0020433Y-0012579D02*
X-0020246Y-0012392D01*
X-0001959D01*
X-0001772Y-0012579D01*
X-0019173Y-0009114D02*
X-0018986Y-0008927D01*
X-0003219D01*
X-0003031Y-0009114D01*
X0003346Y0001988D02*
X0003474Y0002116D01*
X0018730D01*
X0018858Y0001988D01*
X0003346Y-0012579D02*
X0003474Y-0012707D01*
X0018730D01*
X0018858Y-0012579D01*
X-0020433Y-0009744D02*
X-0020246Y-0009931D01*
X-0001959D01*
X-0001772Y-0009744D01*
X0001772Y-0013524D02*
X0001959Y-0013711D01*
X0009754D01*
X0009852Y-0013809D01*
X0012352D01*
X0012451Y-0013711D01*
X0020246D01*
X0020433Y-0013524D01*
X0003031Y0001673D02*
X0003219Y0001860D01*
X0018986D01*
X0019173Y0001673D01*
X0002087Y-0014154D02*
X0002244Y-0014311D01*
X0019961D01*
X0020118Y-0014154D01*
X0001772Y-0008484D02*
X0001959Y-0008297D01*
X0009754D01*
X0009852Y-0008199D01*
X0012352D01*
X0012451Y-0008297D01*
X0020246D01*
X0020433Y-0008484D01*
X0001772Y-0009744D02*
X0001959Y-0009931D01*
X0020246D01*
X0020433Y-0009744D01*
X0003346Y-0001791D02*
X0003474Y-0001919D01*
X0018730D01*
X0018858Y-0001791D01*
X-0019173Y-0011319D02*
X-0019016Y-0011161D01*
X-0003189D01*
X-0003031Y-0011319D01*
X0001772Y-0008169D02*
X0001959Y-0007982D01*
X0020246D01*
X0020433Y-0008169D01*
X0002087Y0001673D02*
X0002215Y0001545D01*
X0019990D01*
X0020118Y0001673D01*
X0002087Y-0012579D02*
X0002215Y-0012451D01*
X0019990D01*
X0020118Y-0012579D01*
X-0020118Y-0009429D02*
X-0019990Y-0009557D01*
X-0002215D01*
X-0002087Y-0009429D01*
X0003346Y-0010374D02*
X0003474Y-0010502D01*
X0018730D01*
X0018858Y-0010374D01*
X-0020433Y-0009429D02*
X-0020246Y-0009616D01*
X-0001959D01*
X-0001772Y-0009429D01*
X-0019173Y-0012579D02*
X-0018986Y-0012766D01*
X-0003219D01*
X-0003031Y-0012579D01*
X-0020118Y-0013839D02*
X-0019990Y-0013967D01*
X-0002215D01*
X-0002087Y-0013839D01*
X-0020118Y-0012579D02*
X-0019990Y-0012451D01*
X-0002215D01*
X-0002087Y-0012579D01*
X-0020118Y-0014154D02*
X-0019961Y-0014311D01*
X-0002244D01*
X-0002087Y-0014154D01*
X-0018858Y-0000846D02*
X-0018730Y-0000719D01*
X-0003474D01*
X-0003346Y-0000846D01*
X-0020433Y-0008169D02*
X-0020246Y-0007982D01*
X-0001959D01*
X-0001772Y-0008169D01*
X0001772Y-0001161D02*
X0001959Y-0000974D01*
X0020246D01*
X0020433Y-0001161D01*
X0003031Y-0011949D02*
X0003219Y-0011762D01*
X0018986D01*
X0019173Y-0011949D01*
X0002087Y-0009114D02*
X0002530Y-0008671D01*
X0019675D01*
X0020118Y-0009114D01*
X0003031Y-0010374D02*
X0003219Y-0010561D01*
X0018986D01*
X0019173Y-0010374D01*
X-0019173Y0010886D02*
X-0019016Y0011043D01*
X-0003189D01*
X-0003031Y0010886D01*
X0001772Y0002933D02*
X0001959Y0003120D01*
X0020246D01*
X0020433Y0002933D01*
X-0018858Y-0011634D02*
X-0018730Y-0011506D01*
X-0003474D01*
X-0003346Y-0011634D01*
X-0020433Y-0012264D02*
X-0020246Y-0012077D01*
X-0001959D01*
X-0001772Y-0012264D01*
X-0020433Y-0013524D02*
X-0020246Y-0013711D01*
X-0012451D01*
X-0012352Y-0013809D01*
X-0009852D01*
X-0009754Y-0013711D01*
X-0001959D01*
X-0001772Y-0013524D01*
X-0000591Y0029606D02*
X-0001299Y0028898D01*
X-0005433D01*
X-0006280Y0028051D01*
X-0008996D01*
X-0009577Y0027470D01*
X-0012382D01*
X-0020118Y-0007854D02*
X-0019961Y-0007697D01*
X-0002244D01*
X-0002087Y-0007854D01*
X-0018858Y-0012579D02*
X-0018730Y-0012707D01*
X-0003474D01*
X-0003346Y-0012579D01*
X0002087Y-0012894D02*
X0002530Y-0013337D01*
X0019675D01*
X0020118Y-0012894D01*
X-0020433Y-0002421D02*
X-0020246Y-0002608D01*
X-0017756D01*
X-0017441Y-0002923D01*
X-0003130D01*
X-0002815Y-0002608D01*
X-0001959D01*
X-0001772Y-0002421D01*
X0001772Y-0012579D02*
X0001959Y-0012392D01*
X0020246D01*
X0020433Y-0012579D01*
X-0019173Y0024193D02*
X-0018986Y0024380D01*
X-0003219D01*
X-0003031Y0024193D01*
X-0020433Y-0009114D02*
X-0020246Y-0008927D01*
Y-0008711D01*
X-0020148Y-0008612D01*
X-0002018D01*
X-0001929Y-0008701D01*
Y-0008957D01*
X-0001772Y-0009114D01*
X0001772Y0002618D02*
X0001959Y0002805D01*
X0009754D01*
X0009852Y0002904D01*
X0012352D01*
X0012451Y0002805D01*
X0020246D01*
X0020433Y0002618D01*
X-0020433Y0023563D02*
X-0020246Y0023376D01*
X-0001959D01*
X-0001772Y0023563D01*
X-0018858Y0021043D02*
X-0018730Y0021171D01*
X-0003474D01*
X-0003346Y0021043D01*
X0003346Y0021358D02*
X0003474Y0021486D01*
X0018730D01*
X0018858Y0021358D01*
X0003346Y-0010059D02*
X0003474Y-0010187D01*
X0018730D01*
X0018858Y-0010059D01*
X0003346Y0009941D02*
X0003474Y0010069D01*
X0018730D01*
X0018858Y0009941D01*
X0003031Y0024193D02*
X0003219Y0024380D01*
X0018986D01*
X0019173Y0024193D01*
X0003031Y0010886D02*
X0003189Y0011043D01*
X0019016D01*
X0019173Y0010886D01*
X-0020433Y0001988D02*
X-0020246Y0002175D01*
Y0002392D01*
X-0020148Y0002490D01*
X-0002018D01*
X-0001929Y0002402D01*
Y0002146D01*
X-0001772Y0001988D01*
X0003346Y0012461D02*
X0003474Y0012333D01*
X0018730D01*
X0018858Y0012461D01*
X0003346Y0010571D02*
X0003474Y0010699D01*
X0018730D01*
X0018858Y0010571D01*
X0003346Y0009311D02*
X0003474Y0009183D01*
X0018730D01*
X0018858Y0009311D01*
X-0019173Y-0010374D02*
X-0018986Y-0010561D01*
X-0003219D01*
X-0003031Y-0010374D01*
X0003031Y0010571D02*
X0003219Y0010758D01*
X0018986D01*
X0019173Y0010571D01*
X0003346Y0011831D02*
X0003474Y0011703D01*
X0018730D01*
X0018858Y0011831D01*
X-0020118Y0008366D02*
X-0019990Y0008238D01*
X-0002215D01*
X-0002087Y0008366D01*
X0003346Y0010256D02*
X0003474Y0010384D01*
X0018730D01*
X0018858Y0010256D01*
X0003031Y0011516D02*
X0003219Y0011329D01*
X0018986D01*
X0019173Y0011516D01*
X0023126Y0014760D02*
X0022638Y0015248D01*
Y0015984D01*
X0022913Y0016260D01*
X0003346Y-0012264D02*
X0003474Y-0012136D01*
X0018730D01*
X0018858Y-0012264D01*
X0019173Y0022618D02*
X0019016Y0022461D01*
X0011417D01*
X0011388Y0022431D01*
X0003219D01*
X0003031Y0022618D01*
X0003346Y0023878D02*
X0003474Y0024006D01*
X0018730D01*
X0018858Y0023878D01*
X0001772Y-0001791D02*
X0001959Y-0001978D01*
Y-0002195D01*
X0002057Y-0002293D01*
X0020187D01*
X0020276Y-0002205D01*
Y-0001949D01*
X0020433Y-0001791D01*
X0003346Y0020413D02*
X0003789Y0019970D01*
X0018415D01*
X0018858Y0020413D01*
X0020118D02*
X0019961Y0020256D01*
Y0020059D01*
X0019872Y0019970D01*
X0019478D01*
X0019350Y0019843D01*
Y0019744D01*
X0019262Y0019656D01*
X0011339D01*
X0011220Y0019537D01*
X0010935D01*
X0010817Y0019656D01*
X0003258D01*
X0003189Y0019724D01*
Y0019843D01*
X0003061Y0019970D01*
X0002530D01*
X0002087Y0020413D01*
X0003346Y0023248D02*
X0003474Y0023120D01*
X0018730D01*
X0018858Y0023248D01*
X0001772Y0001988D02*
X0001959Y0002175D01*
Y0002392D01*
X0002057Y0002490D01*
X0020187D01*
X0020276Y0002402D01*
Y0002146D01*
X0020433Y0001988D01*
X-0019173Y-0001476D02*
X-0018986Y-0001663D01*
X-0003219D01*
X-0003031Y-0001476D01*
X-0019173Y0021988D02*
X-0019016Y0022146D01*
X-0003189D01*
X-0003031Y0021988D01*
X0020433Y0019469D02*
X0020266Y0019301D01*
X0020039D01*
X0019951Y0019213D01*
Y0019104D01*
X0019813Y0018967D01*
X0002805D01*
X0002490Y0019281D01*
X0001959D01*
X0001772Y0019469D01*
X0003346Y0022933D02*
X0003474Y0022805D01*
X0010413D01*
X0010551Y0022667D01*
X0013012D01*
X0013150Y0022805D01*
X0018730D01*
X0018858Y0022933D01*
X-0002087Y0020413D02*
X-0002520Y0019980D01*
X-0002638D01*
X-0003022Y0019596D01*
X-0010778D01*
X-0010906Y0019469D01*
X-0011289D01*
X-0011417Y0019596D01*
X-0019301D01*
X-0020118Y0020413D01*
X0012736Y-0018504D02*
X0011575D01*
X0011496Y-0018583D01*
X0006984D01*
X0006508Y-0019059D01*
X0001772Y0023878D02*
X0001959Y0023691D01*
X0020246D01*
X0020433Y0023878D01*
Y0020413D02*
X0020276Y0020256D01*
Y0020000D01*
X0020187Y0019911D01*
X0019685D01*
X0019646Y0019872D01*
Y0019734D01*
X0019508Y0019596D01*
X0011407D01*
X0011280Y0019469D01*
X0010915D01*
X0010787Y0019596D01*
X0002982D01*
X0002667Y0019911D01*
X0002057D01*
X0001959Y0020010D01*
Y0020226D01*
X0001772Y0020413D01*
X-0018858D02*
X-0018366Y0019921D01*
X-0003839D01*
X-0003346Y0020413D01*
X0001772Y0024823D02*
X0001959Y0025010D01*
X0009754D01*
X0009852Y0025108D01*
X0012352D01*
X0012451Y0025010D01*
X0020246D01*
X0020433Y0024823D01*
X-0018858Y-0012264D02*
X-0018730Y-0012136D01*
X-0003474D01*
X-0003346Y-0012264D01*
X-0020433Y0023878D02*
X-0020246Y0023691D01*
X-0001959D01*
X-0001772Y0023878D01*
X-0018858Y0023248D02*
X-0018730Y0023120D01*
X-0003474D01*
X-0003346Y0023248D01*
X-0020433Y0024823D02*
X-0020246Y0025010D01*
X-0012451D01*
X-0012352Y0025108D01*
X-0009852D01*
X-0009754Y0025010D01*
X-0001959D01*
X-0001772Y0024823D01*
X-0020433Y0021043D02*
X-0020246Y0021230D01*
X-0001959D01*
X-0001772Y0021043D01*
X-0020118Y0019783D02*
X-0019990Y0019656D01*
X-0019852D01*
X-0019478Y0019281D01*
X-0003110D01*
X-0002736Y0019656D01*
X-0002215D01*
X-0002087Y0019783D01*
X-0020118Y0025138D02*
X-0019990Y0025266D01*
X-0002215D01*
X-0002087Y0025138D01*
X-0020118Y0024193D02*
X-0019675Y0024636D01*
X-0002530D01*
X-0002087Y0024193D01*
X-0020433D02*
X-0020246Y0024380D01*
Y0024596D01*
X-0020148Y0024695D01*
X-0002018D01*
X-0001929Y0024606D01*
Y0024350D01*
X-0001772Y0024193D01*
X-0020433Y0025138D02*
X-0020246Y0025325D01*
X-0001959D01*
X-0001772Y0025138D01*
X0003031Y0023878D02*
X0003219Y0024065D01*
X0018986D01*
X0019173Y0023878D01*
X0003346Y-0001161D02*
X0003474Y-0001033D01*
X0018730D01*
X0018858Y-0001161D01*
X0003031Y0022933D02*
X0003130D01*
X0003317Y0022746D01*
X0010374D01*
X0010512Y0022608D01*
X0013051D01*
X0013189Y0022746D01*
X0018986D01*
X0019173Y0022933D01*
X-0019173Y0011831D02*
X-0018986Y0011644D01*
X-0003219D01*
X-0003031Y0011831D01*
X-0019173Y0013091D02*
X-0018986Y0013278D01*
X-0003219D01*
X-0003031Y0013091D01*
X-0020118Y0014350D02*
X-0019961Y0014508D01*
X-0002244D01*
X-0002087Y0014350D01*
X-0020433Y0009626D02*
X-0020246Y0009813D01*
X-0001959D01*
X-0001772Y0009626D01*
X-0019173Y0010256D02*
X-0018986Y0010443D01*
X-0003219D01*
X-0003031Y0010256D01*
X-0018858Y0010571D02*
X-0018730Y0010699D01*
X-0003474D01*
X-0003346Y0010571D01*
X0001772Y0009311D02*
X0001959Y0009124D01*
Y0008907D01*
X0002057Y0008809D01*
X0020187D01*
X0020276Y0008898D01*
Y0009154D01*
X0020433Y0009311D01*
X0001772Y0013091D02*
X0001959Y0013278D01*
Y0013494D01*
X0002057Y0013593D01*
X0020187D01*
X0020276Y0013504D01*
Y0013248D01*
X0020433Y0013091D01*
X-0020433Y0009311D02*
X-0020246Y0009124D01*
Y0008907D01*
X-0020148Y0008809D01*
X-0002018D01*
X-0001929Y0008898D01*
Y0009154D01*
X-0001772Y0009311D01*
X-0020433Y0013720D02*
X-0020246Y0013907D01*
X-0012451D01*
X-0012352Y0014006D01*
X-0009852D01*
X-0009754Y0013907D01*
X-0001959D01*
X-0001772Y0013720D01*
X-0019173Y0009626D02*
X-0018986Y0009439D01*
X-0003219D01*
X-0003031Y0009626D01*
X0002087Y0014350D02*
X0002244Y0014508D01*
X0019961D01*
X0020118Y0014350D01*
X-0019173Y0011516D02*
X-0019016Y0011358D01*
X-0003189D01*
X-0003031Y0011516D01*
X0003346Y0013091D02*
X0003474Y0013219D01*
X0018730D01*
X0018858Y0013091D01*
X0002087Y0009626D02*
X0002215Y0009754D01*
X0019990D01*
X0020118Y0009626D01*
X0001772Y0009941D02*
X0001959Y0010128D01*
X0020246D01*
X0020433Y0009941D01*
X0001772Y0013720D02*
X0001959Y0013907D01*
X0009754D01*
X0009852Y0014006D01*
X0012352D01*
X0012451Y0013907D01*
X0020246D01*
X0020433Y0013720D01*
X0003031Y0010256D02*
X0003219Y0010443D01*
X0018986D01*
X0019173Y0010256D01*
X0001772Y0008681D02*
X0001959Y0008494D01*
X0009754D01*
X0009852Y0008396D01*
X0012352D01*
X0012451Y0008494D01*
X0020246D01*
X0020433Y0008681D01*
X0002087Y0012776D02*
X0002215Y0012648D01*
X0019990D01*
X0020118Y0012776D01*
X-0020433D02*
X-0020246Y0012589D01*
X-0001959D01*
X-0001772Y0012776D01*
X0002087Y0008051D02*
X0002244Y0007894D01*
X0019961D01*
X0020118Y0008051D01*
X0003031Y0009626D02*
X0003219Y0009439D01*
X0018986D01*
X0019173Y0009626D01*
X0001772D02*
X0001959Y0009813D01*
X0020246D01*
X0020433Y0009626D01*
X-0018858Y0012146D02*
X-0018730Y0012018D01*
X-0003474D01*
X-0003346Y0012146D01*
X-0019173Y-0009429D02*
X-0018986Y-0009242D01*
X-0003219D01*
X-0003031Y-0009429D01*
X0002087Y0003248D02*
X0002244Y0003406D01*
X0019961D01*
X0020118Y0003248D01*
X-0018858Y-0009429D02*
X-0018730Y-0009301D01*
X-0003474D01*
X-0003346Y-0009429D01*
X0003346Y0000728D02*
X0003474Y0000600D01*
X0018730D01*
X0018858Y0000728D01*
X0003031Y-0001791D02*
X0003219Y-0001978D01*
X0018986D01*
X0019173Y-0001791D01*
X0003031Y0021988D02*
X0003189Y0022146D01*
X0019016D01*
X0019173Y0021988D01*
X0003031Y0013091D02*
X0003219Y0013278D01*
X0018986D01*
X0019173Y0013091D01*
X0002087Y0014035D02*
X0002215Y0014163D01*
X0019990D01*
X0020118Y0014035D01*
X0003346Y0023563D02*
X0003474Y0023435D01*
X0018730D01*
X0018858Y0023563D01*
X0018780Y-0019114D02*
X0018199Y-0018533D01*
X0018002D01*
X0017382Y-0017913D01*
X0017224D01*
X0001772Y0008366D02*
X0001959Y0008179D01*
X0020246D01*
X0020433Y0008366D01*
X-0019173Y-0000531D02*
X-0018986Y-0000344D01*
X-0003219D01*
X-0003031Y-0000531D01*
X0003346Y-0009429D02*
X0003474Y-0009301D01*
X0018730D01*
X0018858Y-0009429D01*
X-0018858Y-0001476D02*
X-0018730Y-0001604D01*
X-0003474D01*
X-0003346Y-0001476D01*
X-0020433Y0002618D02*
X-0020246Y0002805D01*
X-0012451D01*
X-0012352Y0002904D01*
X-0009852D01*
X-0009754Y0002805D01*
X-0001959D01*
X-0001772Y0002618D01*
X0003346Y0021043D02*
X0003474Y0021171D01*
X0018730D01*
X0018858Y0021043D01*
X0002087Y0002618D02*
X0002215Y0002746D01*
X0009793D01*
X0009882Y0002835D01*
X0012323D01*
X0012411Y0002746D01*
X0019990D01*
X0020118Y0002618D01*
X0001772Y0014035D02*
X0001959Y0014222D01*
X0020246D01*
X0020433Y0014035D01*
X-0019173Y0012146D02*
X-0018986Y0011959D01*
X-0003219D01*
X-0003031Y0012146D01*
X0002087Y0008681D02*
X0002215Y0008553D01*
X0009793D01*
X0009882Y0008465D01*
X0012323D01*
X0012411Y0008553D01*
X0019990D01*
X0020118Y0008681D01*
X0003031Y0012776D02*
X0003219Y0012963D01*
X0018986D01*
X0019173Y0012776D01*
X-0018858Y0010256D02*
X-0018730Y0010384D01*
X-0003474D01*
X-0003346Y0010256D01*
X0003346Y0009626D02*
X0003474Y0009498D01*
X0018730D01*
X0018858Y0009626D01*
X-0020118D02*
X-0019990Y0009754D01*
X-0002215D01*
X-0002087Y0009626D01*
X0003031Y0021358D02*
X0003219Y0021545D01*
X0018986D01*
X0019173Y0021358D01*
X0003031Y-0009114D02*
X0003219Y-0008927D01*
X0018986D01*
X0019173Y-0009114D01*
X-0018858Y0021358D02*
X-0018730Y0021486D01*
X-0003474D01*
X-0003346Y0021358D01*
X-0018858Y-0001161D02*
X-0018730Y-0001033D01*
X-0003474D01*
X-0003346Y-0001161D01*
X-0019173Y0021358D02*
X-0018986Y0021545D01*
X-0003219D01*
X-0003031Y0021358D01*
X-0018858Y0024193D02*
X-0018730Y0024321D01*
X-0003474D01*
X-0003346Y0024193D01*
X-0020433Y0019469D02*
X-0020276Y0019311D01*
X-0020049D01*
X-0019970Y0019232D01*
Y0019094D01*
X-0019587Y0018711D01*
X-0002628D01*
X-0002254Y0019085D01*
Y0019213D01*
X-0002185Y0019281D01*
X-0001959D01*
X-0001772Y0019469D01*
X0002087Y-0001476D02*
X0002215Y-0001348D01*
X0019990D01*
X0020118Y-0001476D01*
X0003031Y0012146D02*
X0003219Y0011959D01*
X0018986D01*
X0019173Y0012146D01*
X-0018858Y-0000531D02*
X-0018730Y-0000404D01*
X-0003474D01*
X-0003346Y-0000531D01*
X-0001772Y0019783D02*
X-0001959Y0019596D01*
X-0002205D01*
X-0002372Y0019429D01*
X-0002480D01*
X-0002884Y0019026D01*
X-0019321D01*
X-0019892Y0019596D01*
X-0020246D01*
X-0020433Y0019783D01*
X0003346Y-0000531D02*
X0003474Y-0000404D01*
X0018730D01*
X0018858Y-0000531D01*
X-0016339Y0020413D02*
X-0016181Y0020256D01*
X-0004449D01*
X-0004291Y0020413D01*
X0003031D02*
X0003219Y0020226D01*
X0003425D01*
X0003740Y0019911D01*
X0018927D01*
X0019035Y0020020D01*
Y0020276D01*
X0019173Y0020413D01*
X0002087Y0013720D02*
X0002215Y0013848D01*
X0009793D01*
X0009882Y0013937D01*
X0012323D01*
X0012411Y0013848D01*
X0019990D01*
X0020118Y0013720D01*
X-0020118Y0001673D02*
X-0019990Y0001545D01*
X-0002215D01*
X-0002087Y0001673D01*
X-0018858Y0001988D02*
X-0018730Y0002116D01*
X-0003474D01*
X-0003346Y0001988D01*
X0001772Y0012776D02*
X0001959Y0012589D01*
X0020246D01*
X0020433Y0012776D01*
X0002087Y0013091D02*
X0002530Y0013533D01*
X0019675D01*
X0020118Y0013091D01*
X-0018858Y0000728D02*
X-0018730Y0000600D01*
X-0003474D01*
X-0003346Y0000728D01*
X-0020433Y0002933D02*
X-0020246Y0003120D01*
X-0001959D01*
X-0001772Y0002933D01*
X-0019173Y0021673D02*
X-0018986Y0021860D01*
X-0003219D01*
X-0003031Y0021673D01*
X-0020118Y0019154D02*
X-0019616Y0018652D01*
X-0002589D01*
X-0002087Y0019154D01*
X0003031Y0020728D02*
X0003219Y0020541D01*
X0018986D01*
X0019173Y0020728D01*
X-0018858Y-0012894D02*
X-0018730Y-0013022D01*
X-0003474D01*
X-0003346Y-0012894D01*
X-0019173Y0020728D02*
X-0018986Y0020541D01*
X-0003219D01*
X-0003031Y0020728D01*
X0001772Y0021043D02*
X0001959Y0021230D01*
X0020246D01*
X0020433Y0021043D01*
X-0018858Y0022933D02*
X-0018730Y0022805D01*
X-0003474D01*
X-0003346Y0022933D01*
X0002087Y0008366D02*
X0002215Y0008238D01*
X0019990D01*
X0020118Y0008366D01*
X-0019173Y0022933D02*
X-0018986Y0022746D01*
X-0003219D01*
X-0003031Y0022933D01*
X-0020433Y-0001476D02*
X-0020246Y-0001289D01*
X-0001959D01*
X-0001772Y-0001476D01*
X0003031Y-0000846D02*
X0003219Y-0000659D01*
X0018986D01*
X0019173Y-0000846D01*
X-0018858Y0001673D02*
X-0018730Y0001801D01*
X-0003474D01*
X-0003346Y0001673D01*
X0003346Y0012146D02*
X0003474Y0012018D01*
X0018730D01*
X0018858Y0012146D01*
X-0019173Y0010571D02*
X-0018986Y0010758D01*
X-0003219D01*
X-0003031Y0010571D01*
X-0018858Y0009311D02*
X-0018730Y0009183D01*
X-0003474D01*
X-0003346Y0009311D01*
X-0019173Y0022618D02*
X-0019016Y0022461D01*
X-0003189D01*
X-0003031Y0022618D01*
X0002087Y0019154D02*
X0002589Y0018652D01*
X0019616D01*
X0020118Y0019154D01*
X0001772Y0020728D02*
X0001959Y0020915D01*
X0020246D01*
X0020433Y0020728D01*
X-0020118Y0019469D02*
X-0019990Y0019341D01*
X-0019774D01*
X-0019400Y0018967D01*
X-0002825D01*
X-0002431Y0019360D01*
X-0002195D01*
X-0002087Y0019469D01*
X-0018858Y0021673D02*
X-0018730Y0021801D01*
X-0003474D01*
X-0003346Y0021673D01*
X-0020433Y-0001791D02*
X-0020246Y-0001978D01*
Y-0002195D01*
X-0020148Y-0002293D01*
X-0017539D01*
X-0017470Y-0002362D01*
Y-0002530D01*
X-0017392Y-0002608D01*
X-0012638D01*
X-0012451Y-0002795D01*
X-0009705D01*
X-0009518Y-0002608D01*
X-0003248D01*
X-0003189Y-0002549D01*
Y-0002352D01*
X-0003130Y-0002293D01*
X-0002018D01*
X-0001929Y-0002205D01*
Y-0001949D01*
X-0001772Y-0001791D01*
X0001772Y-0009429D02*
X0001959Y-0009616D01*
X0020246D01*
X0020433Y-0009429D01*
X-0019173Y0023248D02*
X-0018986Y0023061D01*
X-0003219D01*
X-0003031Y0023248D01*
X-0020433Y0008681D02*
X-0020246Y0008494D01*
X-0012451D01*
X-0012352Y0008396D01*
X-0009852D01*
X-0009754Y0008494D01*
X-0001959D01*
X-0001772Y0008681D01*
X0003031Y0001988D02*
X0003219Y0002175D01*
X0018986D01*
X0019173Y0001988D01*
X0002087Y-0008484D02*
X0002215Y-0008356D01*
X0009793D01*
X0009882Y-0008268D01*
X0012323D01*
X0012411Y-0008356D01*
X0019990D01*
X0020118Y-0008484D01*
Y0019783D02*
X0019990Y0019656D01*
X0019705D01*
X0019616Y0019567D01*
Y0019409D01*
X0019547Y0019341D01*
X0003140D01*
X0002825Y0019656D01*
X0002215D01*
X0002087Y0019783D01*
X-0018858Y-0011949D02*
X-0018730Y-0011821D01*
X-0003474D01*
X-0003346Y-0011949D01*
X-0018858Y0023563D02*
X-0018730Y0023435D01*
X-0003474D01*
X-0003346Y0023563D01*
X0003346Y0024193D02*
X0003474Y0024321D01*
X0018730D01*
X0018858Y0024193D01*
X0002087Y0025138D02*
X0002215Y0025266D01*
X0019990D01*
X0020118Y0025138D01*
Y0019469D02*
X0019990Y0019341D01*
X0019774D01*
X0019656Y0019222D01*
Y0019104D01*
X0019577Y0019026D01*
X0002864D01*
X0002530Y0019360D01*
X0002195D01*
X0002087Y0019469D01*
X0012736Y-0018110D02*
X0012480Y-0017854D01*
X0007713D01*
X0007201Y-0018366D01*
X0006909D01*
X0006713Y-0018563D01*
X0006181D01*
X0005886Y-0018268D01*
Y-0017681D01*
X0006508Y-0017059D01*
X0003031Y0023248D02*
X0003219Y0023061D01*
X0018986D01*
X0019173Y0023248D01*
X0020433Y0019783D02*
X0020246Y0019596D01*
X0019744D01*
X0019675Y0019528D01*
Y0019360D01*
X0019596Y0019281D01*
X0003100D01*
X0002785Y0019596D01*
X0001959D01*
X0001772Y0019783D01*
X-0020118Y0014035D02*
X-0019990Y0014163D01*
X-0002215D01*
X-0002087Y0014035D01*
X-0020118Y0023878D02*
X-0019990Y0023750D01*
X-0002215D01*
X-0002087Y0023878D01*
X-0020433Y0020413D02*
X-0020246Y0020226D01*
Y0020010D01*
X-0020148Y0019911D01*
X-0019744D01*
X-0019173Y0019341D01*
X-0003159D01*
X-0002589Y0019911D01*
X-0002018D01*
X-0001929Y0020000D01*
Y0020256D01*
X-0001772Y0020413D01*
X-0020118Y-0002736D02*
X-0019990Y-0002864D01*
X-0019715D01*
X-0019400Y-0003179D01*
X-0002874D01*
X-0002559Y-0002864D01*
X-0002215D01*
X-0002087Y-0002736D01*
X0012736Y-0018307D02*
X0012923Y-0018120D01*
Y-0017864D01*
X0012835Y-0017776D01*
X0006791D01*
X0006508Y-0018059D01*
X-0020118Y0020728D02*
X-0019990Y0020856D01*
X-0002215D01*
X-0002087Y0020728D01*
X-0018858D02*
X-0018730Y0020600D01*
X-0003474D01*
X-0003346Y0020728D01*
X0006508Y-0020059D02*
Y-0020047D01*
X0007569Y-0018986D01*
X0010433D01*
X0010689Y-0018730D01*
X0012569D01*
X0012736Y-0018898D01*
X0003346Y0021673D02*
X0003474Y0021801D01*
X0018730D01*
X0018858Y0021673D01*
X-0018858Y0009941D02*
X-0018730Y0010069D01*
X-0003474D01*
X-0003346Y0009941D01*
X0002087Y0020728D02*
X0002215Y0020856D01*
X0019990D01*
X0020118Y0020728D01*
X-0018858Y0011831D02*
X-0018730Y0011703D01*
X-0003474D01*
X-0003346Y0011831D01*
X0003346Y-0000846D02*
X0003474Y-0000719D01*
X0018730D01*
X0018858Y-0000846D01*
X-0020118Y-0003051D02*
X-0019656Y-0003514D01*
X-0002549D01*
X-0002087Y-0003051D01*
X-0020118Y0024823D02*
X-0019990Y0024951D01*
X-0012411D01*
X-0012323Y0025039D01*
X-0009882D01*
X-0009793Y0024951D01*
X-0002215D01*
X-0002087Y0024823D01*
X0002087Y-0001791D02*
X0002530Y-0002234D01*
X0019675D01*
X0020118Y-0001791D01*
X-0018858Y0013091D02*
X-0018730Y0013219D01*
X-0003474D01*
X-0003346Y0013091D01*
X0000031Y0028031D02*
Y0027472D01*
X-0000433Y0027008D01*
Y0024724D01*
X0000256Y0024035D01*
X0002815D01*
X0002874Y0024094D01*
Y0024350D01*
X0003031Y0024508D01*
X0003346Y0001673D02*
X0003474Y0001801D01*
X0018730D01*
X0018858Y0001673D01*
X-0019173D02*
X-0018986Y0001860D01*
X-0003219D01*
X-0003031Y0001673D01*
X-0020118Y0003248D02*
X-0019961Y0003406D01*
X-0002244D01*
X-0002087Y0003248D01*
X0001772Y0012461D02*
X0001959Y0012274D01*
X0020246D01*
X0020433Y0012461D01*
X0003031Y-0001476D02*
X0003219Y-0001663D01*
X0018986D01*
X0019173Y-0001476D01*
X0002087Y-0002421D02*
X0002215Y-0002549D01*
X0009793D01*
X0009882Y-0002638D01*
X0012323D01*
X0012411Y-0002549D01*
X0019990D01*
X0020118Y-0002421D01*
X-0020433Y-0002736D02*
X-0020246Y-0002923D01*
X-0019744D01*
X-0019429Y-0003238D01*
X-0002844D01*
X-0002530Y-0002923D01*
X-0001959D01*
X-0001772Y-0002736D01*
X-0019173Y-0000217D02*
X-0019016Y-0000059D01*
X-0003189D01*
X-0003031Y-0000217D01*
X0018976Y-0019114D02*
X0018701Y-0019390D01*
Y-0020413D01*
X0018248Y-0020866D01*
X0017421D01*
X0017224Y-0020669D01*
X0002087Y0001988D02*
X0002530Y0002431D01*
X0019675D01*
X0020118Y0001988D01*
X-0020118D02*
X-0019675Y0002431D01*
X-0002530D01*
X-0002087Y0001988D01*
X0003031Y0011831D02*
X0003219Y0011644D01*
X0018986D01*
X0019173Y0011831D01*
X-0019173Y0000728D02*
X-0018986Y0000541D01*
X-0003219D01*
X-0003031Y0000728D01*
X-0000969Y0028031D02*
Y0027268D01*
X-0000709Y0027008D01*
Y0023917D01*
X0000020Y0023189D01*
X0001535D01*
X0001654Y0023071D01*
X0002224D01*
X0002402Y0023248D01*
X0003031Y-0000217D02*
X0003189Y-0000059D01*
X0019016D01*
X0019173Y-0000217D01*
X-0019173Y-0010059D02*
X-0018986Y-0010246D01*
X-0003219D01*
X-0003031Y-0010059D01*
X0001772Y0001673D02*
X0001959Y0001486D01*
X0020246D01*
X0020433Y0001673D01*
X0003346Y0012776D02*
X0003474Y0012904D01*
X0018730D01*
X0018858Y0012776D01*
X-0020118Y-0002421D02*
X-0019990Y-0002549D01*
X-0017726D01*
X-0017411Y-0002864D01*
X-0003159D01*
X-0002844Y-0002549D01*
X-0002215D01*
X-0002087Y-0002421D01*
X0003346Y0020728D02*
X0003474Y0020600D01*
X0018730D01*
X0018858Y0020728D01*
X0003031Y-0011634D02*
X0003219Y-0011447D01*
X0018986D01*
X0019173Y-0011634D01*
X-0019173Y0001988D02*
X-0018986Y0002175D01*
X-0003219D01*
X-0003031Y0001988D01*
X-0020118Y-0001476D02*
X-0019990Y-0001348D01*
X-0002215D01*
X-0002087Y-0001476D01*
X0003031Y0000728D02*
X0003219Y0000541D01*
X0018986D01*
X0019173Y0000728D01*
X-0020118Y-0001791D02*
X-0019675Y-0002234D01*
X-0017510D01*
X-0017411Y-0002333D01*
Y-0002490D01*
X-0017352Y-0002549D01*
X-0012608D01*
X-0012421Y-0002736D01*
X-0009734D01*
X-0009547Y-0002549D01*
X-0003593D01*
X-0003504Y-0002461D01*
Y-0002333D01*
X-0003406Y-0002234D01*
X-0002530D01*
X-0002087Y-0001791D01*
X-0018858Y-0010374D02*
X-0018730Y-0010502D01*
X-0003474D01*
X-0003346Y-0010374D01*
X0001772Y-0009114D02*
X0001959Y-0008927D01*
Y-0008711D01*
X0002057Y-0008612D01*
X0020187D01*
X0020276Y-0008701D01*
Y-0008957D01*
X0020433Y-0009114D01*
X-0020433Y0009941D02*
X-0020246Y0010128D01*
X-0001959D01*
X-0001772Y0009941D01*
X-0020433Y0014035D02*
X-0020246Y0014222D01*
X-0001959D01*
X-0001772Y0014035D01*
X0003031Y-0010059D02*
X0003219Y-0010246D01*
X0018986D01*
X0019173Y-0010059D01*
X0003031Y-0000531D02*
X0003219Y-0000344D01*
X0018986D01*
X0019173Y-0000531D01*
X-0020433Y0020728D02*
X-0020246Y0020915D01*
X-0001959D01*
X-0001772Y0020728D01*
X-0020433Y0013091D02*
X-0020246Y0013278D01*
Y0013494D01*
X-0020148Y0013593D01*
X-0002018D01*
X-0001929Y0013504D01*
Y0013248D01*
X-0001772Y0013091D01*
X0003346Y-0011949D02*
X0003474Y-0011821D01*
X0018730D01*
X0018858Y-0011949D01*
X-0020433Y-0001161D02*
X-0020246Y-0000974D01*
X-0001959D01*
X-0001772Y-0001161D01*
X-0020433Y-0008484D02*
X-0020246Y-0008297D01*
X-0012451D01*
X-0012352Y-0008199D01*
X-0009852D01*
X-0009754Y-0008297D01*
X-0001959D01*
X-0001772Y-0008484D01*
X-0020118Y-0008169D02*
X-0019990Y-0008041D01*
X-0002215D01*
X-0002087Y-0008169D01*
X-0020118Y0012776D02*
X-0019990Y0012648D01*
X-0002215D01*
X-0002087Y0012776D01*
X-0020118Y0013720D02*
X-0019990Y0013848D01*
X-0012411D01*
X-0012323Y0013937D01*
X-0009882D01*
X-0009793Y0013848D01*
X-0002215D01*
X-0002087Y0013720D01*
X-0003031Y-0001791D02*
X-0003219Y-0001978D01*
X-0003445D01*
X-0003760Y-0002293D01*
X-0017096D01*
X-0017156Y-0002234D01*
Y-0002037D01*
X-0017215Y-0001978D01*
X-0018986D01*
X-0019173Y-0001791D01*
Y-0000846D02*
X-0018986Y-0000659D01*
X-0003219D01*
X-0003031Y-0000846D01*
X-0018858Y-0009744D02*
X-0018730Y-0009872D01*
X-0003474D01*
X-0003346Y-0009744D01*
X0001772Y-0001476D02*
X0001959Y-0001289D01*
X0020246D01*
X0020433Y-0001476D01*
X0001772Y-0002421D02*
X0001959Y-0002608D01*
X0009754D01*
X0009852Y-0002707D01*
X0012352D01*
X0012451Y-0002608D01*
X0020246D01*
X0020433Y-0002421D01*
X0001772Y-0013839D02*
X0001959Y-0014026D01*
X0020246D01*
X0020433Y-0013839D01*
X0002087Y0009311D02*
X0002530Y0008868D01*
X0019675D01*
X0020118Y0009311D01*
X-0018858Y0001358D02*
X-0018730Y0001230D01*
X-0003474D01*
X-0003346Y0001358D01*
X0003031Y0021673D02*
X0003219Y0021860D01*
X0018986D01*
X0019173Y0021673D01*
X0001772Y-0012894D02*
X0001959Y-0013081D01*
Y-0013297D01*
X0002057Y-0013396D01*
X0020187D01*
X0020276Y-0013307D01*
Y-0013051D01*
X0020433Y-0012894D01*
X-0020433Y-0013839D02*
X-0020246Y-0014026D01*
X-0001959D01*
X-0001772Y-0013839D01*
X0003031Y-0010689D02*
X0003219Y-0010876D01*
X0018986D01*
X0019173Y-0010689D01*
X0003346Y-0011634D02*
X0003474Y-0011506D01*
X0018730D01*
X0018858Y-0011634D01*
X0003031Y0009311D02*
X0003219Y0009124D01*
X0018986D01*
X0019173Y0009311D01*
X-0020118D02*
X-0019675Y0008868D01*
X-0002530D01*
X-0002087Y0009311D01*
X0002087Y-0008169D02*
X0002215Y-0008041D01*
X0019990D01*
X0020118Y-0008169D01*
X-0019173Y-0010689D02*
X-0019016Y-0010846D01*
X-0003189D01*
X-0003031Y-0010689D01*
X-0018858Y0012461D02*
X-0018730Y0012333D01*
X-0003474D01*
X-0003346Y0012461D01*
X0001772Y-0012264D02*
X0001959Y-0012077D01*
X0020246D01*
X0020433Y-0012264D01*
X-0019173Y-0011949D02*
X-0018986Y-0011762D01*
X-0003219D01*
X-0003031Y-0011949D01*
X-0018858Y-0001791D02*
X-0018730Y-0001919D01*
X-0017175D01*
X-0017096Y-0001998D01*
Y-0002185D01*
X-0017047Y-0002234D01*
X-0003789D01*
X-0003346Y-0001791D01*
X0002087Y-0007854D02*
X0002244Y-0007697D01*
X0019961D01*
X0020118Y-0007854D01*
X-0019173Y0009311D02*
X-0018986Y0009124D01*
X-0003219D01*
X-0003031Y0009311D01*
X0002087Y0002933D02*
X0002215Y0003061D01*
X0019990D01*
X0020118Y0002933D01*
X-0020118Y0013091D02*
X-0019675Y0013533D01*
X-0002530D01*
X-0002087Y0013091D01*
X0002087Y-0002736D02*
X0002215Y-0002864D01*
X0019990D01*
X0020118Y-0002736D01*
X-0020433Y0001673D02*
X-0020246Y0001486D01*
X-0001959D01*
X-0001772Y0001673D01*
X-0020433Y0001358D02*
X-0020246Y0001171D01*
X-0001959D01*
X-0001772Y0001358D01*
X0003031Y-0009429D02*
X0003219Y-0009242D01*
X0018986D01*
X0019173Y-0009429D01*
X-0020118Y-0008484D02*
X-0019990Y-0008356D01*
X-0012411D01*
X-0012323Y-0008268D01*
X-0009882D01*
X-0009793Y-0008356D01*
X-0002215D01*
X-0002087Y-0008484D01*
X-0020433Y0012461D02*
X-0020246Y0012274D01*
X-0001959D01*
X-0001772Y0012461D01*
G54D89*
G01X-0022047Y0028425D02*
Y0028031D01*
X-0021516Y0027500D01*
Y-0004813D01*
X-0023120Y-0006417D01*
Y-0017943D01*
X-0020797Y-0020266D01*
X-0020010D01*
X-0017313Y-0022963D01*
X-0016240D01*
X-0015463Y-0023740D01*
X0021260Y0028425D02*
X0015984D01*
X0013858Y0030551D01*
X0012283D01*
X0011496Y0029764D01*
X0007972D01*
X0006358Y0031378D01*
X-0006476D01*
X-0009783Y0028071D01*
X-0013031D01*
X-0013583Y0027520D01*
X-0021535D01*
X-0022047Y0028031D01*
Y0028425D01*
X-0015463Y-0023740D02*
X-0013780D01*
X-0013524Y-0023484D01*
X-0012333D01*
X-0011890Y-0023927D01*
X-0008063Y-0034717D02*
Y-0033531D01*
X-0008563Y-0033031D01*
Y-0025768D01*
X-0010404Y-0023927D01*
X-0011890D01*
X-0015463Y-0023740D02*
X-0016900D01*
X-0018061Y-0024902D01*
X-0008063Y-0034717D02*
X-0003772D01*
X-0002720Y-0033665D01*
X0016594D01*
X-0022047Y0028425D03*
Y0028031D01*
Y0028425D01*
G54D10*
X-0022756Y-0024449D03*
Y-0021220D03*
X-0017913Y-0027854D03*
X-0018386Y-0025886D03*
X-0007559Y-0032047D03*
X-0009528D03*
G54D11*
X-0006575Y-0025591D03*
X-0010512D03*
G54D12*
X0022047Y0028425D03*
X0021260D03*
X-0021260D03*
X-0022047D03*
G54D13*
X0016614Y-0030630D03*
X0016594Y-0031665D03*
Y-0032665D03*
Y-0033665D03*
Y-0034665D03*
X-0020252Y-0019567D03*
X-0019252D03*
X-0018252D03*
X-0022252D03*
X0006508Y-0017059D03*
Y-0018059D03*
Y-0019059D03*
Y-0020059D03*
Y-0021059D03*
Y-0022059D03*
Y-0023059D03*
X-0023126Y0026760D03*
X-0022126Y0025760D03*
X-0023126D03*
X-0022126Y0024760D03*
X-0023126D03*
X-0022126Y0023760D03*
X-0023126D03*
X-0022126Y0022760D03*
X-0023126D03*
X-0022126Y0021760D03*
X-0023126D03*
X-0022126Y0020760D03*
X-0023126D03*
X-0022126Y0019760D03*
X-0023126D03*
X-0022126Y0018760D03*
X-0023126D03*
X-0022126Y0017760D03*
X-0023126D03*
X-0022126Y0016760D03*
X-0023126D03*
X-0022126Y0015760D03*
X-0023126D03*
X-0022126Y0014760D03*
X-0023126D03*
X-0022126Y0013760D03*
X-0023126D03*
X-0022126Y0012760D03*
X-0023126D03*
X-0022126Y0011760D03*
X-0023126D03*
X-0022126Y0010760D03*
X-0023126D03*
X-0022126Y0009760D03*
X-0023126D03*
X-0022126Y0008760D03*
X-0023126D03*
X-0022126Y0007760D03*
X-0023126D03*
X-0022126Y0006760D03*
X-0023126D03*
X-0022126Y0005760D03*
X-0023126D03*
X-0022126Y0004760D03*
X-0023126D03*
X-0022126Y0003760D03*
X-0023126D03*
X-0022126Y0002760D03*
X-0023126D03*
X-0022126Y0001768D03*
X-0023126Y0001760D03*
X-0022126Y0000760D03*
X-0023126D03*
X-0022126Y-0000240D03*
X-0023126D03*
X-0022126Y-0001240D03*
X-0023126D03*
X-0022126Y-0002240D03*
X-0023126D03*
X-0022126Y-0003240D03*
X-0023126D03*
X-0022126Y-0004240D03*
X-0023126D03*
X0023126D03*
X0022126Y-0003240D03*
X0023126D03*
X0022126Y-0002240D03*
X0023126D03*
X0022126Y-0001240D03*
X0023126D03*
X0022126Y-0000240D03*
X0023126D03*
X0022126Y0000760D03*
X0023126D03*
X0022126Y0001760D03*
X0023126D03*
X0022126Y0002760D03*
X0023126D03*
X0022126Y0003760D03*
X0023126D03*
X0022126Y0004760D03*
X0023126D03*
X0022126Y0005760D03*
X0023126D03*
X0022126Y0006760D03*
X0023126D03*
X0022126Y0007760D03*
X0023126D03*
X0022126Y0008760D03*
X0023126D03*
X0022126Y0009760D03*
X0023126D03*
X0022126Y0010760D03*
X0023126D03*
X0022126Y0011760D03*
X0023126D03*
X0022126Y0012760D03*
X0023126D03*
X0022126Y0013760D03*
X0023126D03*
X0022126Y0014760D03*
X0023126D03*
X0022126Y0015760D03*
X0023126D03*
X0022126Y0016760D03*
X0023126D03*
X0022126Y0017760D03*
X0023126D03*
X0022126Y0018760D03*
X0023126D03*
X0022126Y0019760D03*
X0023126D03*
X0022126Y0020752D03*
X0023126Y0020760D03*
X0022126Y0021760D03*
X0023126D03*
X0022126Y0022760D03*
X0023126D03*
X0022126Y0023760D03*
X0023126D03*
X0022126Y0024760D03*
X0023126D03*
X0022126Y0025760D03*
X0023126D03*
X0022126Y0026760D03*
X0023126D03*
X0007933Y-0020705D03*
Y-0021705D03*
X-0008063Y-0034717D03*
X-0000969Y0028031D03*
X0000031D03*
X0001031D03*
X0002041D03*
G54D14*
X0016594Y-0029665D03*
X-0022126Y0026760D03*
X0022126Y-0004240D03*
X0007933Y-0019705D03*
X-0009063Y-0034717D03*
X-0001969Y0028031D03*
G54D15*
X-0022756Y-0023622D03*
Y-0022835D03*
Y-0022047D03*
X-0005581Y0029846D03*
X-0006081Y0030846D03*
X-0005081D03*
X-0004081D03*
X-0004581Y0029846D03*
X-0003581D03*
X-0002581D03*
X-0003081Y0030846D03*
X-0006941Y0034945D03*
X-0005941D03*
X-0002720D03*
X-0001720D03*
X0003081Y0029846D03*
X0002581Y0030846D03*
X0003581D03*
X0004581D03*
X0004081Y0029846D03*
X0005081D03*
X0006081D03*
X0005581Y0030846D03*
X0001720Y0034945D03*
X0002720D03*
X0005941D03*
X0006941D03*
G54D16*
X-0001281Y0032146D03*
X-0007380D03*
X0007380D03*
X0001281D03*
G54D17*
X-0002081Y0033346D03*
X-0006581D03*
X0006581D03*
X0002081D03*
G54D20*
X-0020571Y-0025118D03*
G54D21*
X-0021752Y-0026969D03*
G54D22*
X-0019390D03*
G54D23*
X0018169Y-0028465D03*
Y-0027953D03*
Y-0027441D03*
Y-0026929D03*
Y-0026417D03*
X0017657Y-0027953D03*
Y-0027441D03*
Y-0026929D03*
Y-0026417D03*
Y-0028465D03*
X0017146D03*
Y-0027953D03*
Y-0027441D03*
Y-0026929D03*
Y-0026417D03*
X0016634Y-0028465D03*
Y-0027953D03*
Y-0027441D03*
Y-0026929D03*
Y-0026417D03*
X0005000Y-0027913D03*
X0006024Y-0028425D03*
X0005512Y-0028937D03*
X0004488Y-0028425D03*
Y-0028937D03*
X0006024D03*
X0005512Y-0028425D03*
X0005000D03*
X0005512Y-0027913D03*
X0005000Y-0028937D03*
X-0016476Y-0024094D03*
X-0016102D03*
X-0016476Y-0024469D03*
X-0016102D03*
X-0012657Y0028583D03*
X-0012028D03*
X-0012657Y0029252D03*
X-0012028D03*
X0009902Y0028524D03*
Y0029173D03*
X0010512D03*
Y0028524D03*
X-0016496Y-0034252D03*
Y-0033858D03*
Y-0033465D03*
Y-0034646D03*
Y-0035039D03*
X-0016102Y-0033465D03*
Y-0033858D03*
Y-0034252D03*
Y-0034646D03*
Y-0035039D03*
X-0011339Y-0029016D03*
X-0011732D03*
X-0012126D03*
X-0012520D03*
X-0012913D03*
X-0011339Y-0029409D03*
X-0011732D03*
X-0012126D03*
X-0012520D03*
X-0012913D03*
X0005000Y-0029961D03*
X0006024Y-0027913D03*
X0004488Y-0029961D03*
X0006024D03*
Y-0029449D03*
X0005000D03*
X0004488Y-0027913D03*
Y-0029449D03*
X0005512Y-0029961D03*
Y-0029449D03*
X0022756Y-0025413D03*
Y-0025059D03*
Y-0024705D03*
Y-0024350D03*
Y-0023996D03*
X0023150Y-0025413D03*
Y-0025059D03*
Y-0023996D03*
Y-0024705D03*
Y-0024350D03*
X0000000Y0005630D03*
X0019016Y-0020374D03*
X0019528D03*
Y-0019941D03*
X0019016D03*
X0014154Y-0019843D03*
X0015020Y-0019803D03*
X0015000Y-0018957D03*
X0014173D03*
X0021575Y-0023622D03*
X0021969D03*
X0022362D03*
X0022756D03*
X0023150D03*
X0021575Y-0023228D03*
X0021969D03*
X0022362D03*
X0022756D03*
X0023150D03*
X-0011339Y-0030571D03*
X-0011732D03*
X-0012126D03*
X-0012520D03*
X-0012913D03*
Y-0030177D03*
X-0012520D03*
X-0012126D03*
X-0011732D03*
X-0011339D03*
X0010610Y-0029114D03*
X0011004D03*
X0011398D03*
X0011791D03*
X0012185D03*
X0010610Y-0029508D03*
X0011004D03*
X0011398D03*
X0011791D03*
X0012185D03*
G54D24*
X0017224Y-0018504D03*
X0008799Y0029232D03*
X-0013819Y0029272D03*
X-0010374Y-0020551D03*
X-0006791Y-0016476D03*
X-0001142Y-0010689D03*
X-0001161Y0000413D03*
Y0011516D03*
X-0001358Y0022618D03*
G54D26*
X-0005453Y-0033307D03*
Y-0029559D03*
Y-0025811D03*
X-0000453Y-0034559D03*
X0000799D03*
X0002051D03*
X0007051D03*
Y-0029559D03*
Y-0028307D03*
Y-0024559D03*
X0002051D03*
X0000799D03*
X-0000453D03*
G54D27*
X0011915Y-0028103D03*
Y-0026853D03*
Y-0025603D03*
Y-0024353D03*
X0019415D03*
Y-0028103D03*
G54D30*
X-0020433Y0012461D03*
X-0001772D03*
X-0007126Y-0003366D03*
Y0014665D03*
X-0007756Y-0010059D03*
X0007756D03*
X-0016024Y0020098D03*
Y-0008799D03*
X0003031Y-0003681D03*
Y0014980D03*
G54D32*
X0006496Y-0009114D03*
X0007441Y-0010059D03*
Y-0011949D03*
X-0006496Y0013091D03*
X-0008150Y0016752D03*
X0003661Y-0011949D03*
X0006496Y-0012894D03*
X0008150Y-0015394D03*
X0007441Y0010256D03*
X0003661Y0012146D03*
Y-0010059D03*
X0002952Y-0015394D03*
X0003661Y0010256D03*
X0006496Y0009311D03*
X0008150Y0005610D03*
X-0007441Y-0010059D03*
X-0018543Y0010256D03*
Y0012146D03*
X0014055Y-0015394D03*
X0015079Y-0017539D03*
X0013898D03*
X-0014764Y0010256D03*
X0012736Y-0018701D03*
X0011378Y-0020827D03*
X0011437Y-0019449D03*
X0012736Y-0020079D03*
X0013701Y-0021240D03*
X0016909Y-0022756D03*
X0016437Y-0020276D03*
X0015472Y-0021240D03*
X0022480Y-0014646D03*
X0019252Y-0015394D03*
X0014764Y0001043D03*
Y0010256D03*
Y0012146D03*
X0018543Y0010256D03*
Y0012146D03*
X0017598Y0013091D03*
X0007441Y0022618D03*
X0009674Y-0005866D03*
X0007441Y-0010689D03*
Y0000413D03*
Y0011516D03*
X0018543Y0022618D03*
X-0003661D03*
X-0009705Y0017165D03*
X0011102Y-0008405D03*
X-0014764Y0022618D03*
X-0003661Y0011516D03*
X0018543D03*
X0014855Y0030410D03*
X-0014764Y0011516D03*
X0009744Y-0018002D03*
X0018543Y-0010689D03*
Y0000413D03*
X0018228Y0020413D03*
X0018543Y0023248D03*
X-0015079Y0020413D03*
X-0003661Y0000413D03*
X-0018543Y-0013839D03*
X0017598Y0024193D03*
X-0018858Y0009626D03*
X-0003346D03*
X0016339Y-0012894D03*
X0016063Y-0021220D03*
X0005236Y-0012894D03*
X-0020433Y0008366D03*
X-0001772D03*
X-0020118Y0008051D03*
X-0002087D03*
X0005236Y0020413D03*
X0016339D03*
X-0005866D03*
X-0016969Y-0009114D03*
Y0001988D03*
X-0005866Y-0009114D03*
Y0001988D03*
X-0014764Y0000413D03*
X-0003661Y-0010689D03*
X0018228Y0009311D03*
X-0018543Y0024508D03*
X-0015079Y0009311D03*
X-0007441Y0024508D03*
X0019252Y0026693D03*
X0017913Y0024193D03*
X0016339Y-0001791D03*
Y0009311D03*
X0018228Y-0012894D03*
Y-0001791D03*
X0005236D03*
Y0009311D03*
X-0015079Y-0012894D03*
Y-0001791D03*
X-0019488Y-0010374D03*
X-0019173Y-0013839D03*
X-0005866Y0009311D03*
X-0019488Y-0014154D03*
X-0020079Y-0022087D03*
X0002717Y0023563D03*
X0005236Y-0009114D03*
Y0001988D03*
X-0016024Y-0002106D03*
Y0013406D03*
X0016339Y-0009114D03*
Y0001988D03*
X-0016959Y0024193D03*
X-0016969Y0013091D03*
X-0005866D03*
Y0024193D03*
X0002402Y0024508D03*
X0005236Y0013091D03*
Y0024193D03*
X-0007441Y0013406D03*
X-0019488Y-0008799D03*
X-0017913Y-0008169D03*
X-0011890Y-0023927D03*
X-0015463Y-0023740D03*
X-0018061Y-0024902D03*
X-0003976Y0020413D03*
X0007126D03*
X0014055Y0026693D03*
X0015709Y0024193D03*
X-0019488Y-0007854D03*
X-0022943Y0017234D03*
X-0015079Y-0002106D03*
Y0013406D03*
X-0003661Y0001358D03*
X0015079Y0020413D03*
X0013642Y-0023425D03*
X0018543Y0012461D03*
X0011087Y0017189D03*
X0002087Y0023878D03*
X0020118D03*
X0011087Y-0005015D03*
X0014488Y-0021240D03*
X0019567Y-0019114D03*
X0017224Y-0019882D03*
X0018248Y-0020059D03*
X-0017913Y-0013839D03*
X-0014764Y-0002421D03*
Y0013720D03*
X-0011118Y-0005015D03*
X0009449Y0030236D03*
X-0022480Y-0014665D03*
X0015079Y-0001791D03*
X0003661Y-0008799D03*
X0003976Y0009311D03*
X-0012579Y0030285D03*
X0019488Y0021043D03*
X0019409Y-0018189D03*
X0015612Y0030907D03*
X-0014764Y0023563D03*
X0018543Y-0009744D03*
X0003346Y0022618D03*
X-0007126Y-0001791D03*
X0003976Y-0012894D03*
X-0014764Y0001358D03*
X0002087Y0024823D03*
X0020118D03*
X-0003661Y0023563D03*
X-0008701Y0025138D03*
X-0016969Y-0001791D03*
X-0005866D03*
X0009646Y0030236D03*
X-0018858Y-0013839D03*
X-0012008Y0030797D03*
X0011644Y0029035D03*
X0003976Y0025453D03*
Y0020413D03*
Y-0001791D03*
X0013766Y0029907D03*
X0003031Y-0011319D03*
X0019173D03*
X-0003661Y0012461D03*
X-0016969Y0008996D03*
Y0024508D03*
X-0003976Y-0001791D03*
X0007126D03*
X0010236Y0030236D03*
X-0014764Y0012461D03*
X0017303Y-0021476D03*
X-0005187Y-0021988D03*
X0002087Y0024193D03*
X0020118D03*
X0015079Y0009311D03*
X-0019803Y0007421D03*
Y0026083D03*
X0014764Y-0008799D03*
X-0018228Y-0001791D03*
X0007441Y0012461D03*
X0018228Y0019154D03*
X-0016969Y-0012894D03*
X-0005866D03*
X-0007126D03*
X0013071Y0029016D03*
X-0018228Y0009311D03*
X0014449Y0013091D03*
X-0014449D03*
X0018780Y-0021201D03*
X0016063Y-0016752D03*
X0019803Y0020728D03*
X-0006811Y0025138D03*
X-0010394Y0029252D03*
X-0014764Y-0009744D03*
X0007441Y0023563D03*
X0004291Y0025138D03*
X0011644Y0028839D03*
X0019803Y0021043D03*
X-0018228Y0020413D03*
X0002717Y0022933D03*
X0001772Y0024193D03*
X0020433D03*
X-0013169Y0030285D03*
X0012736Y-0019094D03*
X-0003661Y-0009744D03*
X0019803Y0023248D03*
X-0011102Y0018327D03*
X0018858Y0019154D03*
X-0003031Y0020413D03*
X-0019173D03*
X-0005236Y-0012894D03*
X0006811D03*
X-0019488Y0007736D03*
Y0025768D03*
X-0007126Y0020413D03*
X0017224Y-0019291D03*
X0018248Y-0020650D03*
X0013758Y0029407D03*
X-0019173Y-0012894D03*
X-0003031D03*
X-0018228D03*
X-0007756Y0024193D03*
X0007756D03*
Y0023878D03*
X-0007756D03*
X0007441Y-0009744D03*
X0013110Y-0021240D03*
X-0015394Y-0012894D03*
X0017913Y0019469D03*
X0001772Y0025138D03*
X0020433D03*
X-0016909Y-0030935D03*
X-0009518Y0029203D03*
X-0007126Y0025453D03*
X0017224Y-0019094D03*
X0018976Y-0021201D03*
X-0018228Y-0008799D03*
Y0020098D03*
X0019488Y0023248D03*
X0018228Y0007736D03*
Y0025768D03*
X0005866Y0020413D03*
X0017913D03*
X-0018543Y0018839D03*
Y-0007539D03*
X0017283Y-0002106D03*
Y0013406D03*
X-0015079Y-0008484D03*
Y0019783D03*
X-0018858Y0012776D03*
X-0003346D03*
X-0002087Y-0009114D03*
X-0020118D03*
X0015079Y-0012894D03*
X0019803Y0024823D03*
X0018248Y-0019665D03*
X0017224Y-0020472D03*
X-0006496Y0008996D03*
Y0024508D03*
X0013307Y-0016762D03*
X-0014764Y-0010689D03*
X-0017598Y-0002421D03*
Y0013720D03*
X-0020118Y0008681D03*
X-0002087D03*
X-0015079Y-0002421D03*
Y0013720D03*
X-0015394Y-0002106D03*
Y0013406D03*
X0019488Y0022933D03*
X-0008071Y0007736D03*
Y0025768D03*
X0008071Y0007421D03*
Y0026083D03*
X-0008386Y0007421D03*
Y0026083D03*
X-0006220Y-0006260D03*
X-0009331Y0024823D03*
X0009331D03*
X-0009331Y0012461D03*
X0009331D03*
X-0007756Y0021043D03*
X0007756D03*
X0016339Y0024823D03*
Y0013091D03*
Y0024193D03*
X-0018543Y-0008799D03*
X-0009016Y0014350D03*
X0009016D03*
X-0007756Y-0001161D03*
X0007756D03*
X-0007441Y0002303D03*
X-0006496Y-0013524D03*
Y0002618D03*
X0004882Y0015945D03*
X-0006220Y0027047D03*
X-0019488Y-0014783D03*
Y0003878D03*
X-0015984Y0027047D03*
X0015984Y0004843D03*
X0018051Y-0018366D03*
X0019370Y-0019114D03*
X-0003976Y-0013524D03*
Y0002618D03*
X-0008701Y-0007224D03*
Y0018524D03*
X0010236Y0027431D03*
X-0019173Y-0007854D03*
X-0018228Y-0013524D03*
Y0002618D03*
X0016339Y-0013209D03*
Y0002303D03*
X0012874Y0021043D03*
X-0012874D03*
X-0007126Y0009311D03*
X0014134Y-0007539D03*
Y0018839D03*
X-0018228Y-0007854D03*
X-0022638Y0021043D03*
X-0003976Y0007736D03*
Y0025768D03*
X0012874Y0002933D03*
X-0012874D03*
X0002087Y-0009429D03*
X0020118D03*
X0019803Y0023563D03*
X0002087Y0025453D03*
X0020118D03*
X0013819Y-0007224D03*
Y0018524D03*
X-0017323Y0015945D03*
X-0008071Y-0000217D03*
X0008071D03*
X-0003031Y-0007224D03*
Y0018524D03*
X-0004921Y-0013524D03*
Y0002618D03*
X-0008071Y0022618D03*
X0008071D03*
X-0007756Y-0009114D03*
X0007756D03*
X-0003661Y0018839D03*
Y-0007539D03*
X-0017598Y-0008484D03*
Y0019783D03*
X-0019173Y0012776D03*
X-0003031D03*
X-0007126Y-0014469D03*
Y0003563D03*
X-0007441Y0001358D03*
X-0016969Y-0013209D03*
Y0002303D03*
X-0009016Y0012776D03*
X0009016D03*
X0003346Y0001358D03*
X0018858D03*
X-0014134Y-0012579D03*
X0014134D03*
X-0003976Y-0013209D03*
Y0002303D03*
X0003346Y-0001476D03*
X0018858D03*
X-0002717Y-0014783D03*
Y0003878D03*
X-0018228Y0007421D03*
Y0026083D03*
X-0008071Y0018524D03*
Y-0007224D03*
X-0016024Y-0013524D03*
Y0002618D03*
X0001772Y-0002736D03*
X0020433D03*
X-0003976Y-0008799D03*
Y0020098D03*
X0006811Y-0014469D03*
Y0003563D03*
X0017283Y-0013209D03*
Y0002303D03*
X0002087Y-0013524D03*
X0020118D03*
X0006496Y0008681D03*
Y0024823D03*
X0003031Y-0014783D03*
Y0003878D03*
X0004606Y-0008484D03*
Y0019783D03*
X0012874Y-0001476D03*
X-0012874D03*
X-0018543Y-0013524D03*
Y0002618D03*
X-0013189Y-0001791D03*
X0013189D03*
X-0017598Y-0013524D03*
Y0002618D03*
X0011673Y0026801D03*
X-0020118Y0025453D03*
X-0002087D03*
X-0003346Y-0013524D03*
Y0002618D03*
X0015984Y-0006260D03*
X-0009331Y-0008169D03*
X0009331D03*
X0018543Y-0014783D03*
Y0003878D03*
X-0013189Y-0001476D03*
X0013189D03*
X-0020118Y0002933D03*
X-0002087D03*
X-0008071Y-0003681D03*
Y0014980D03*
X-0013504Y-0007224D03*
Y0018524D03*
X0006811Y0009311D03*
X0005866Y-0001791D03*
X0004921Y-0008484D03*
Y0019783D03*
X-0007756Y-0011949D03*
X0007756D03*
X-0007126Y0007736D03*
Y0025768D03*
X0003031Y0001043D03*
X0019173D03*
X0003976Y-0013209D03*
Y0002303D03*
X-0016339Y-0012894D03*
X-0015394Y-0001791D03*
X0004921Y-0013524D03*
Y0002618D03*
X-0008071Y-0011634D03*
X0008071D03*
X-0017283Y-0008484D03*
Y0019783D03*
X0003346Y0001043D03*
X0018858D03*
X-0008701Y-0014783D03*
Y0003878D03*
X0014134Y-0010689D03*
X-0014134D03*
X-0017913Y-0003366D03*
Y0014665D03*
X-0014764Y0018524D03*
Y-0007224D03*
X-0012776Y0027470D03*
X-0008386Y0024508D03*
X0003031Y0000413D03*
X0019173D03*
X-0019173Y0001043D03*
X-0003031D03*
X-0019173Y0023878D03*
X-0003031D03*
X0013819Y-0014469D03*
Y0003563D03*
X0006811Y-0007539D03*
Y0018839D03*
X-0016339Y-0001791D03*
X-0015394Y0009311D03*
X-0018858Y-0010059D03*
X-0003346D03*
X0019488Y0024823D03*
X-0018228Y0018524D03*
Y-0007224D03*
X0005866Y0009311D03*
X0006811Y0020413D03*
X-0018858Y0023878D03*
X-0003346D03*
X-0007126Y-0007224D03*
Y0018524D03*
X0013189Y-0003051D03*
X-0013189D03*
X0014449Y0009941D03*
X-0014449D03*
X-0020433Y-0012894D03*
X-0001772D03*
X-0016339Y0009311D03*
X-0015394Y0020413D03*
X0014134Y-0014469D03*
Y0003563D03*
X0003661Y0023878D03*
X0001417Y0022933D03*
X-0003366Y-0017874D03*
X-0009331Y0001988D03*
X0009331D03*
X-0020118Y0002618D03*
X-0002087D03*
X0002087Y-0003051D03*
X0020118D03*
X-0006181Y-0008484D03*
Y0019783D03*
X0006496Y-0008484D03*
Y0019783D03*
X-0009016Y0008366D03*
X0009016D03*
X0007441Y-0001476D03*
X0009557D03*
X-0006988Y-0017874D03*
X-0004921Y-0008484D03*
Y0019783D03*
X0014449Y-0009114D03*
X-0014449D03*
X0003346Y-0009744D03*
X0018858D03*
X-0016024Y0019783D03*
Y-0008484D03*
X-0018858Y0001043D03*
X-0003346D03*
X-0007126Y-0013209D03*
Y0002303D03*
X-0019173Y0000413D03*
X-0003031D03*
X0003346Y-0012894D03*
X0018858D03*
X-0018858Y-0009114D03*
X-0003346D03*
X-0020118Y-0013524D03*
X-0002087D03*
X0003031Y-0012579D03*
X0019173D03*
X-0005866Y-0013209D03*
Y0002303D03*
X-0020886Y-0020886D03*
X0012874Y-0001791D03*
X-0012874D03*
X0008071Y-0007224D03*
Y0018524D03*
X-0007441Y-0002421D03*
Y0013720D03*
X0002087Y-0013839D03*
X0020118D03*
X-0009016Y-0014154D03*
X0009016D03*
X-0019173Y-0011634D03*
X-0003031D03*
X0003346Y-0009114D03*
X0018858D03*
X-0002087Y-0012894D03*
X-0020118D03*
X0003031D03*
X0019173D03*
X-0020433Y-0012579D03*
X-0001772D03*
X0017598Y-0013209D03*
Y0002303D03*
X-0009331Y0020728D03*
X0009331D03*
X-0007441Y-0003366D03*
Y0014665D03*
X0018543Y-0014469D03*
Y0003563D03*
X-0014134Y0007421D03*
Y0026083D03*
X-0019173Y-0009114D03*
X-0003031D03*
X0003346Y0001988D03*
X0018858D03*
X-0014134Y-0011634D03*
X0014134D03*
X-0008071Y-0009114D03*
X0008071D03*
X-0014449Y0001043D03*
X0014449D03*
Y-0000846D03*
X-0014449D03*
X0003346Y-0012579D03*
X0018858D03*
X-0007756Y0009311D03*
X0007756D03*
X-0020433Y-0009744D03*
X-0001772D03*
X-0015079Y0018839D03*
Y-0007539D03*
X-0002717Y0018524D03*
Y-0007224D03*
X-0019173Y0007421D03*
Y0026083D03*
X-0003031Y-0003681D03*
Y0014980D03*
X-0006811Y-0007539D03*
Y0018839D03*
X0014449Y0001358D03*
X-0014449D03*
X0001772Y-0013524D03*
X0020433D03*
X0014449D03*
Y0002618D03*
X0003031Y0001673D03*
X0019173D03*
X-0014764Y-0007539D03*
Y0018839D03*
X-0009331Y-0001161D03*
X0009331D03*
X0014134Y-0009114D03*
X-0014134D03*
X0013189Y-0007854D03*
X-0013189D03*
X0002087Y-0014154D03*
X0020118D03*
X-0018543Y0023878D03*
X0001772Y-0008484D03*
X0020433D03*
X0012874Y-0009114D03*
X-0012874D03*
X-0014764Y-0003681D03*
Y0014980D03*
X0004921Y-0008799D03*
Y0020098D03*
X-0007441Y0018524D03*
Y-0007224D03*
X0001772Y-0009744D03*
X0020433D03*
X-0007441Y-0014469D03*
Y0003563D03*
X0003346Y-0001791D03*
X0018858D03*
X0003976Y-0008484D03*
Y0019783D03*
X-0014134Y-0011319D03*
X0014134D03*
X0008071Y0000413D03*
X-0008071D03*
X0006496Y-0013209D03*
Y0002303D03*
X-0003346Y0019783D03*
Y-0008484D03*
X0009331Y-0013839D03*
X-0009331D03*
X0019173Y-0014783D03*
Y0003878D03*
X-0015709Y0008681D03*
Y0024823D03*
X-0013189Y0002618D03*
X0013189D03*
X0003661Y0019783D03*
Y-0008484D03*
X-0019173Y-0011319D03*
X-0003031D03*
X0001772Y-0008169D03*
X0020433D03*
X-0007756Y-0012894D03*
X0007756D03*
X0002087Y0001673D03*
X0020118D03*
X0003346Y0019783D03*
Y-0008484D03*
X0002087Y-0012579D03*
X0020118D03*
X-0020118Y-0009429D03*
X-0002087D03*
X0003346Y-0010374D03*
X0018858D03*
X-0009331Y-0009429D03*
X0009331D03*
X0016969Y0020098D03*
Y-0008799D03*
X-0012874Y-0009744D03*
X0012874D03*
X0014764Y-0014783D03*
Y0003878D03*
X-0020433Y-0009429D03*
X-0001772D03*
X-0019173Y-0012579D03*
X-0003031D03*
X-0020118Y-0013839D03*
X-0002087D03*
X-0020118Y-0012579D03*
X-0002087D03*
X-0019488Y0018524D03*
Y-0007224D03*
X-0015079Y-0014783D03*
Y0003878D03*
X-0020118Y-0014154D03*
X-0002087D03*
X-0018858Y-0000846D03*
X-0003346D03*
X-0020433Y-0008169D03*
X-0001772D03*
X-0017598Y0020098D03*
Y-0008799D03*
X0015079Y-0013209D03*
Y0002303D03*
X0001772Y-0001161D03*
X0020433D03*
X-0002717Y-0007539D03*
Y0018839D03*
X0006811Y0020098D03*
Y-0008799D03*
X-0018858Y0019783D03*
Y-0008484D03*
X0010039Y0030236D03*
X0003346Y0025138D03*
X0008829Y0028445D03*
X0006811Y0008996D03*
Y0024508D03*
X0014134Y-0011949D03*
X-0014134D03*
X-0013189Y-0009429D03*
X0013189D03*
X-0003661Y0007421D03*
Y0026083D03*
X0003031Y-0011949D03*
X0019173D03*
X0003976Y-0008799D03*
Y0020098D03*
X0007441Y0001358D03*
X-0007126Y-0002106D03*
Y0013406D03*
X0013819Y0007421D03*
Y0026083D03*
X-0004291Y-0013209D03*
Y0002303D03*
X-0008701Y0023878D03*
X0019803D03*
X0015079Y-0014469D03*
Y0003563D03*
X0018228Y-0014469D03*
Y0003563D03*
X0002402Y0018524D03*
Y-0007224D03*
X-0015394Y0020098D03*
Y-0008799D03*
X-0013189Y-0008169D03*
X0013189D03*
X0014449Y-0009744D03*
X-0014449D03*
X0002087Y-0009114D03*
X0020118D03*
X-0017283Y-0008799D03*
Y0020098D03*
X-0014134Y-0003366D03*
Y0014665D03*
Y0018524D03*
Y-0007224D03*
X0003031Y-0010374D03*
X0019173D03*
X0014449Y-0011949D03*
X-0014449D03*
X-0019173Y0010886D03*
X-0003031D03*
X-0016339Y-0008799D03*
Y0020098D03*
X-0006220Y0004843D03*
X0001772Y0002933D03*
X0020433D03*
X-0018858Y-0011634D03*
X-0003346D03*
X-0013189Y-0013524D03*
X0013189D03*
X-0020433Y-0012264D03*
X-0001772D03*
X-0013819Y0007736D03*
Y0025768D03*
X-0020433Y-0013524D03*
X-0001772D03*
X-0017913Y-0008799D03*
Y0020098D03*
X-0014449Y0023563D03*
X0014449D03*
X-0006004Y-0017874D03*
X0018543Y-0012579D03*
X0003976Y0018524D03*
Y-0007224D03*
X-0000591Y0029606D03*
X-0012382Y0027470D03*
X0014764Y0007421D03*
Y0026083D03*
X-0013189Y-0013839D03*
X0013189D03*
X0015079Y0007421D03*
Y0026083D03*
X-0014449Y-0012579D03*
X0014449D03*
X-0015079Y-0007224D03*
Y0018524D03*
X-0020118Y-0007854D03*
X-0002087D03*
X-0019488Y-0009114D03*
X0014764Y-0014469D03*
Y0003563D03*
X0006220Y-0006260D03*
X0018228Y0018524D03*
Y-0007224D03*
X-0018858Y-0012579D03*
X-0003346D03*
X-0015709Y0020098D03*
Y-0008799D03*
X0014764Y-0009744D03*
X0017598Y0020098D03*
Y-0008799D03*
X0003661Y-0007224D03*
Y0018524D03*
X-0012874Y0023878D03*
X0012874D03*
X0002087Y-0012894D03*
X0020118D03*
X0019803Y0021358D03*
X0014134Y0011516D03*
X-0014134D03*
X0014134Y-0009429D03*
X-0014134D03*
X0003031Y-0007224D03*
Y0018524D03*
X0002717Y-0014469D03*
Y0003563D03*
X-0009016Y-0012894D03*
X0009016D03*
X-0007441Y0001673D03*
X-0020433Y-0002421D03*
X-0001772D03*
X-0018543Y0003878D03*
Y-0014783D03*
X0001772Y-0012579D03*
X0020433D03*
X-0020433Y-0009114D03*
X-0001772D03*
X0013189Y-0014154D03*
X-0013189D03*
X0001772Y0002618D03*
X0020433D03*
X-0017913Y0018839D03*
Y-0007539D03*
X-0018543Y-0008169D03*
X-0018228Y-0013209D03*
Y0002303D03*
X-0009331Y-0012579D03*
X0009331D03*
X-0020433Y0023563D03*
X-0001772D03*
X-0018228Y0019783D03*
Y-0008484D03*
X-0018858Y0021043D03*
X-0003346D03*
X0007126Y-0008799D03*
Y0020098D03*
X-0004882Y0015945D03*
X-0013789Y0028287D03*
X-0008071Y0025138D03*
X0007441Y0019783D03*
Y-0008484D03*
X0003346Y0021358D03*
X0018858D03*
X0003346Y-0010059D03*
X0018858D03*
X-0014134Y-0000217D03*
X0014134D03*
X-0007756Y0011831D03*
X0007756D03*
X-0008071Y-0003366D03*
Y0014665D03*
X-0015394Y-0007539D03*
Y0018839D03*
X-0009016Y-0013524D03*
X0009016D03*
X0006496Y-0008799D03*
Y0020098D03*
X-0019173Y-0007224D03*
Y0018524D03*
X0009016Y0009311D03*
X-0009016D03*
X0017323Y0004843D03*
X0005236Y0020098D03*
Y-0008799D03*
X0019173Y0025138D03*
X0015394Y-0007539D03*
Y0018839D03*
X0007756Y0009626D03*
X-0007756D03*
X-0009016Y0013720D03*
X0009016D03*
X0003346Y0009941D03*
X0018858D03*
X-0007441Y0023878D03*
X-0013819Y0018839D03*
Y-0007539D03*
X-0003976Y-0012894D03*
X0007126D03*
X-0003661Y-0001476D03*
X-0009094Y-0006703D03*
X-0009626Y-0017874D03*
X0007756Y-0010374D03*
X-0007756D03*
X-0007441Y0012461D03*
X0017283Y0002618D03*
Y-0013524D03*
X-0006181Y0002303D03*
Y-0013209D03*
X-0019803Y-0008799D03*
X-0013189Y0020728D03*
X0013189D03*
X-0007126Y-0013524D03*
Y0002618D03*
X0003031Y0024193D03*
X0019173D03*
X0003661Y0012461D03*
X0018543Y0020728D03*
X-0005059Y-0017874D03*
X0014134Y0023248D03*
X-0014134D03*
X0007126Y-0008484D03*
Y0019783D03*
X0017913Y-0007539D03*
Y0018839D03*
X-0007756Y-0002421D03*
Y0013720D03*
Y0021358D03*
X0007756D03*
X-0017283Y0002303D03*
Y-0013209D03*
X-0008071Y0020728D03*
X0008071D03*
X0016339Y-0002106D03*
Y0013406D03*
X-0007756Y0010256D03*
X0007756D03*
X0003031Y0010886D03*
X0019173D03*
X-0020433Y0001988D03*
X-0001772D03*
X-0008071Y-0001791D03*
X0008071D03*
X0014764Y-0003681D03*
Y0014980D03*
X-0019488Y-0011319D03*
X-0020787Y-0006722D03*
X0003976Y-0002421D03*
Y0013720D03*
X0014134Y-0003366D03*
Y0014665D03*
X0003346Y0012461D03*
X0018858D03*
X0003346Y0010571D03*
X0018858D03*
X0003346Y-0002421D03*
Y0013720D03*
Y0009311D03*
X0018858D03*
X0017224Y-0018110D03*
X0019567Y-0021201D03*
X0008701Y-0003681D03*
Y0014980D03*
X-0003661Y-0012579D03*
X-0004931Y-0013839D03*
X-0009311Y-0017874D03*
X0004291Y-0003366D03*
Y0014665D03*
X0015079Y-0003681D03*
Y0014980D03*
X0015709Y-0002421D03*
Y0013720D03*
X0017598Y-0002421D03*
Y0013720D03*
X0007126Y0018524D03*
Y-0007224D03*
X-0007441Y-0008799D03*
X0019488Y0021673D03*
X-0009016Y0002933D03*
X0009016D03*
X0017913Y-0002106D03*
Y0013406D03*
X0018858Y-0002421D03*
Y0013720D03*
X0016969Y-0002106D03*
Y0013406D03*
X0012874Y0008366D03*
X-0012874D03*
X-0019173Y-0010374D03*
X-0003031D03*
X0014134Y0012776D03*
X-0014134D03*
X0003031Y0010571D03*
X0019173D03*
X0003346Y0011831D03*
X0018858D03*
X-0012874Y0012461D03*
X0012874D03*
X-0020118Y0008366D03*
X-0002087D03*
X0015394Y0008996D03*
Y0024508D03*
X0003346Y0010256D03*
X0018858D03*
X0019488Y-0003681D03*
Y0014980D03*
X0014134Y0007736D03*
Y0025768D03*
X-0014134Y0011831D03*
X0014134D03*
X0014449Y-0002421D03*
Y0013720D03*
X0003031Y0011516D03*
X0019173D03*
X0012874Y0024193D03*
X-0012874D03*
X0022913Y0016260D03*
X0019803Y0019783D03*
X-0013789Y0028484D03*
X-0007756Y0025138D03*
X0017913Y-0014469D03*
Y0003563D03*
X-0008386Y0023563D03*
X0014449Y0021358D03*
X-0014449D03*
X-0004882Y0004843D03*
X0019488Y0024193D03*
X0014764Y0013406D03*
X0003661Y-0009744D03*
X0002717Y0023248D03*
X0009449Y0027431D03*
X-0018543Y0001358D03*
X0018543Y0007421D03*
Y0026083D03*
X-0014134Y0020413D03*
X0014134D03*
X-0013189Y0025138D03*
X0013189D03*
X0014764Y0012461D03*
X-0012874Y0023563D03*
X0012874D03*
X0003346Y-0012264D03*
X0018858D03*
X0019173Y0022618D03*
X0003031D03*
X0014764Y0001673D03*
X-0013189Y0023878D03*
X0013189D03*
X0019488Y0007421D03*
Y0026083D03*
X-0009016Y0002618D03*
X0009016D03*
X-0007441Y-0013524D03*
Y0002618D03*
X-0008701Y-0003681D03*
Y0014980D03*
Y0024508D03*
X0003661Y0001673D03*
X0001772Y0000728D03*
X-0002736Y-0017874D03*
X-0018228Y-0014154D03*
X0012874Y0020413D03*
X-0012874D03*
X-0007441Y-0009429D03*
X0003346Y0023878D03*
X0018858D03*
X0003661Y0024508D03*
X0001772Y-0001791D03*
X0020433D03*
X0003346Y0020413D03*
X0018858D03*
X0019488Y0019154D03*
X0014449Y0008681D03*
Y0024823D03*
X0013189Y0025453D03*
X-0013189D03*
X0008829Y0028642D03*
X0002717Y0024823D03*
X0020118Y0020413D03*
X0002087D03*
X-0018858Y-0008169D03*
X-0004291Y-0014469D03*
Y0003563D03*
X-0012972Y0030285D03*
X0003661Y-0009429D03*
X0001722Y-0010374D03*
X-0002421Y-0017874D03*
X0003661Y0008681D03*
Y0024823D03*
X-0004882Y0027047D03*
X0003346Y0023248D03*
X0018858D03*
X0004606Y0008996D03*
Y0024508D03*
X-0014764Y-0001476D03*
X-0012628Y-0003366D03*
X-0011555Y-0017874D03*
X0014764Y0023878D03*
X-0016969Y0009311D03*
Y0020413D03*
X-0019803Y-0012264D03*
X-0021339Y-0006722D03*
X0019803Y0007421D03*
Y0026083D03*
X-0018543Y0012461D03*
X-0015079Y-0014469D03*
Y0003563D03*
X0002402Y0023563D03*
X0009646Y0027431D03*
X-0005866Y0020098D03*
Y-0008799D03*
X0015079Y0008996D03*
Y0024508D03*
X0016969Y-0012894D03*
X0010915Y-0021831D03*
X0001772Y0001988D03*
X0020433D03*
X-0019488Y-0007539D03*
Y0018839D03*
X-0019173Y-0001476D03*
X-0003031D03*
X0019803Y0019469D03*
X0019173Y0025453D03*
X0003661Y0007736D03*
Y0025768D03*
X-0019173Y0021988D03*
X-0003031D03*
X-0009016Y0020728D03*
X0009016D03*
X0020433Y0019469D03*
X0001772D03*
X0005866Y-0012894D03*
X0006811Y-0001791D03*
X-0014449Y0020413D03*
X0014449D03*
X0013504Y0007421D03*
Y0026083D03*
X-0019488Y-0011949D03*
X-0021063Y-0006722D03*
X0003346Y0022933D03*
X0018858D03*
X0014764Y0012776D03*
X-0014449Y0021673D03*
X0014449D03*
X-0017598Y-0013209D03*
Y0002303D03*
X0007441Y0007421D03*
Y0026083D03*
X0011644Y0029429D03*
X0003031Y0025453D03*
X0018543Y0008681D03*
Y0024823D03*
X0019488Y0023563D03*
X0004921Y-0002421D03*
Y0013720D03*
X0014764Y0007736D03*
Y0025768D03*
X-0009016Y0014035D03*
X0009016D03*
X0006181Y0008996D03*
Y0024508D03*
X0018228Y0007421D03*
Y0026083D03*
X-0019488Y-0010059D03*
X-0002087Y0020413D03*
X-0020118D03*
X-0018543Y0001673D03*
X-0012579Y0027470D03*
X-0008701Y0024823D03*
X0012736Y-0018504D03*
X0018543Y0025138D03*
X0001772Y0023878D03*
X0020433D03*
X0019173Y-0021201D03*
X0017224Y-0018898D03*
X-0016024Y0008996D03*
Y0024508D03*
X0019488Y0019783D03*
X-0009724Y0026102D03*
X-0010974Y0028681D03*
X0014764Y-0009429D03*
X0020433Y0020413D03*
X0001772D03*
X-0012441Y0026831D03*
X-0018858Y0020413D03*
X-0003346D03*
X0001772Y0024823D03*
X0020433D03*
X-0014449Y0023878D03*
X0014449D03*
X-0018543Y0007736D03*
Y0025768D03*
X0012874Y0019469D03*
X-0012874D03*
X-0014449Y0009626D03*
X0014449D03*
X-0015394Y0008996D03*
Y0024508D03*
X-0009331Y0019469D03*
X0009331D03*
X0008701Y0007421D03*
Y0026083D03*
X-0018228Y-0002421D03*
Y0013720D03*
X0013819Y0007736D03*
Y0025768D03*
X-0004291Y-0001791D03*
X-0005236Y0009311D03*
X0012874Y0020728D03*
X-0012874D03*
X0009843Y0027421D03*
X0002717Y0024508D03*
X-0013189Y0024193D03*
X0013189D03*
X-0007126Y0008681D03*
Y0024823D03*
X-0013189Y-0002421D03*
X0013189D03*
X-0016024Y0008681D03*
Y0024823D03*
X-0003661Y0007736D03*
Y0025768D03*
X0007441Y0007736D03*
Y0025768D03*
X-0008071Y0023878D03*
X0008071D03*
X0017598Y0008681D03*
Y0024823D03*
X-0018858Y-0012264D03*
X-0003346D03*
X-0020433Y0023878D03*
X-0001772D03*
X-0018858Y0023248D03*
X-0003346D03*
X-0009016Y0019469D03*
X0009016D03*
X-0006811Y-0014469D03*
Y0003563D03*
Y0007736D03*
Y0025768D03*
X0014449Y0022933D03*
X-0014449D03*
X0007126Y0007736D03*
Y0025768D03*
X-0020433Y0024823D03*
X-0001772D03*
X-0006811Y0008996D03*
Y0024508D03*
X-0013189Y0013720D03*
X0013189D03*
X0015709Y0008681D03*
Y0024823D03*
X-0020118Y0019783D03*
X-0002087D03*
X0003976Y0007736D03*
Y0025768D03*
X-0004606Y0008996D03*
Y0024508D03*
X-0013819Y0007421D03*
Y0026083D03*
X-0020118Y0025138D03*
X-0002087D03*
X-0013819Y-0014783D03*
Y0003878D03*
X-0020118Y0024193D03*
X-0002087D03*
X0009331Y-0012894D03*
X-0009331D03*
X-0004291Y0020098D03*
Y-0008799D03*
X0016024Y-0013524D03*
Y0002618D03*
X-0020433Y0024193D03*
X-0001772D03*
X0003661Y-0013524D03*
Y0002618D03*
X-0020433Y0025138D03*
X-0001772D03*
X-0017283Y-0013524D03*
Y0002618D03*
X0003031Y0023878D03*
X0019173D03*
X-0006181Y-0008799D03*
Y0020098D03*
X-0018543Y0007421D03*
Y0026083D03*
X0003346Y-0001161D03*
X0018858D03*
X0003031Y0022933D03*
X0019173D03*
X-0007441Y0007736D03*
Y0025768D03*
X-0019173Y0011831D03*
X-0003031D03*
X-0009016Y-0003051D03*
X0009016D03*
X0005236Y-0002106D03*
Y0013406D03*
X-0019173Y0013091D03*
X-0003031D03*
X-0020118Y0014350D03*
X-0002087D03*
X-0009016Y0019154D03*
X0009016D03*
X0003976Y-0002106D03*
Y0013406D03*
X-0020433Y0009626D03*
X-0001772D03*
X-0019173Y0010256D03*
X-0003031D03*
X-0003976Y-0002421D03*
Y0013720D03*
X-0018543Y-0003366D03*
Y0014665D03*
X0007756Y0012776D03*
X-0007756D03*
X-0008071Y0013091D03*
X0008071D03*
X-0014449Y-0002421D03*
Y0013720D03*
X0006811Y-0003366D03*
Y0014665D03*
X-0018858Y0010571D03*
X-0003346D03*
X0001772Y0009311D03*
X0020433D03*
X-0004291Y-0002106D03*
Y0013406D03*
X0001772Y0013091D03*
X0020433D03*
X0003661Y-0003366D03*
Y0014665D03*
X0004606Y-0002421D03*
Y0013720D03*
X-0020433Y0009311D03*
X-0001772D03*
X-0020433Y0013720D03*
X-0001772D03*
X-0019173Y0009626D03*
X-0003031D03*
X-0017283Y-0002421D03*
Y0013720D03*
X0002087Y0014350D03*
X0020118D03*
X-0019173Y0011516D03*
X-0003031D03*
X-0013819Y-0003366D03*
Y0014665D03*
X-0013504Y-0003681D03*
Y0014980D03*
X0008071Y-0003366D03*
Y0014665D03*
X0015079Y-0002421D03*
Y0013720D03*
X0004921Y0013406D03*
Y-0002106D03*
X0003346Y0013091D03*
X0018858D03*
X0017283Y-0002421D03*
Y0013720D03*
X0002087Y0009626D03*
X0020118D03*
X0001772Y0009941D03*
X0020433D03*
X0001772Y0013720D03*
X0020433D03*
X0003661Y-0002421D03*
Y0013720D03*
X0003031Y0010256D03*
X0019173D03*
X0001772Y0008681D03*
X0020433D03*
X0004606Y-0002106D03*
Y0013406D03*
X-0006181Y0024823D03*
Y0008681D03*
X0007126Y-0003366D03*
Y0014665D03*
Y-0003681D03*
Y0014980D03*
X0002402Y-0003681D03*
Y0014980D03*
X-0016969Y-0002106D03*
Y0013406D03*
X0002087Y0012776D03*
X0020118D03*
X0002717Y-0003681D03*
Y0014980D03*
X-0019173Y-0003366D03*
Y0014665D03*
X-0020433Y0012776D03*
X-0001772D03*
X-0009016Y0003248D03*
X0009016D03*
X0015079Y-0003366D03*
Y0014665D03*
X0008386Y-0003681D03*
Y0014980D03*
X0002087Y0008051D03*
X0020118D03*
X-0019803Y-0003681D03*
Y0014980D03*
X0003976Y-0003681D03*
Y0014980D03*
X0019488Y-0003366D03*
Y0014665D03*
X-0009331Y0020413D03*
X0009331D03*
X0019173Y-0003681D03*
Y0014980D03*
X-0019803Y-0010059D03*
X0003031Y0009626D03*
X0019173D03*
X-0004291Y0008996D03*
Y0024508D03*
X0001772Y0009626D03*
X0020433D03*
X0002717Y-0003366D03*
Y0014665D03*
X-0018858Y0012146D03*
X-0003346D03*
X0019803Y-0014783D03*
Y0003878D03*
X0008829Y0028051D03*
X0002717Y0025453D03*
X-0009331Y-0001476D03*
X0009331D03*
X0018543Y-0003366D03*
Y0014665D03*
X-0009016Y-0009429D03*
X0009016D03*
X0018228Y-0002421D03*
Y0013720D03*
X0006496Y-0013524D03*
Y0002618D03*
X0003976Y-0003366D03*
Y0014665D03*
X-0008071Y-0012894D03*
X0008071D03*
X0003661Y-0003681D03*
Y0014980D03*
X-0008071Y-0010059D03*
X0008071D03*
X-0009331Y-0012264D03*
X0009331D03*
X-0019488D03*
X-0021201Y-0006939D03*
X-0019173Y-0009429D03*
X-0003031D03*
X0017283Y0008996D03*
Y0024508D03*
X0005866Y0020098D03*
Y-0008799D03*
X0017283Y0008681D03*
Y0024823D03*
X0020551Y-0016850D03*
X-0013740Y0028002D03*
X-0008386Y0025453D03*
X-0003051Y-0017874D03*
X0001506Y0012933D03*
X0003661Y0012776D03*
X-0007756Y-0000846D03*
X0007756D03*
X-0014449Y0023248D03*
X0014449D03*
X0017913Y0020098D03*
Y-0008799D03*
X0019803Y0025138D03*
X-0013189Y0001673D03*
X0013189D03*
X-0019803Y-0014783D03*
Y0003878D03*
X0004606Y0008681D03*
Y0024823D03*
X0007756Y0008681D03*
Y0024823D03*
X0006811Y0007736D03*
Y0025768D03*
X-0014134Y-0010374D03*
X0014134D03*
X0002087Y0003248D03*
X0020118D03*
X-0007441Y0023563D03*
X0014134Y-0014783D03*
Y0003878D03*
X0016024Y0008681D03*
Y0024823D03*
X-0019173Y-0014154D03*
X-0003661Y0009626D03*
X-0005551Y0007736D03*
X-0009941Y-0017874D03*
X-0011240D03*
X-0012500Y0007638D03*
X-0014764Y0009626D03*
X0010197Y0026801D03*
X0007126Y-0014469D03*
Y0003563D03*
X0019803Y0024508D03*
X-0018858Y-0009429D03*
X-0003346D03*
X0017913Y0007736D03*
Y0025768D03*
X-0013189Y-0012894D03*
X0013189D03*
X0014134Y0023878D03*
X-0014134D03*
X-0018543Y0008681D03*
Y0024823D03*
X0019173Y-0003366D03*
Y0014665D03*
X0003346Y0000728D03*
X0018858D03*
X0019488Y0021358D03*
X0007441Y-0013524D03*
Y0002618D03*
X-0004921Y-0013209D03*
Y0002303D03*
X0018543Y0009626D03*
X-0005374Y-0017874D03*
X-0016024Y-0002421D03*
Y0013720D03*
X0008386Y0007421D03*
Y0026083D03*
X0003031Y-0001791D03*
X0019173D03*
X0003031Y0021988D03*
X0019173D03*
X0003031Y0013091D03*
X0019173D03*
X0013504Y-0003681D03*
Y0014980D03*
X-0002717Y0007736D03*
Y0025768D03*
X-0007756Y0023248D03*
X0007756D03*
X0012874Y0009311D03*
X-0012874D03*
X0017598Y-0002106D03*
Y0013406D03*
X0014449Y0012776D03*
X-0014449D03*
X0012874Y0008681D03*
X-0012874D03*
X-0014134Y0009311D03*
X0014134D03*
X0016024Y0013406D03*
Y-0002106D03*
X0002087Y0014035D03*
X0020118D03*
X-0013189D03*
X0013189D03*
X0018543Y-0007224D03*
Y0018524D03*
X-0003976Y-0014783D03*
Y0003878D03*
X0003346Y0023563D03*
X0018858D03*
X-0005236Y0020098D03*
Y-0008799D03*
X-0004291Y0009311D03*
X-0005236Y0020413D03*
X0018228Y-0002106D03*
Y0013406D03*
X0003661Y-0014783D03*
Y0003878D03*
X-0005236Y-0001791D03*
X-0004291Y-0012894D03*
X0018780Y-0019114D03*
X0017224Y-0017913D03*
X-0018228Y-0003366D03*
Y0014665D03*
X0018543Y-0002421D03*
Y0013720D03*
X0006220Y0027047D03*
X0006496Y-0002106D03*
Y0013406D03*
X0019173Y0019469D03*
X0003661Y0023563D03*
X-0008071Y0001043D03*
X0008071D03*
X0001772Y0008366D03*
X0020433D03*
X-0004882Y-0006260D03*
X-0019173Y-0000531D03*
X-0003031D03*
X-0018543Y0002303D03*
X0004291Y-0002106D03*
Y0013406D03*
X0003346Y-0009429D03*
X0018858D03*
X-0017283Y0008996D03*
Y0024508D03*
X0003031Y-0007539D03*
Y0018839D03*
X-0018858Y-0001476D03*
X-0003346D03*
X0014764Y-0013524D03*
Y0002618D03*
X-0020433D03*
X-0001772D03*
X-0015709Y0019783D03*
Y-0008484D03*
X-0006496Y0020098D03*
Y-0008799D03*
X-0002402Y-0014783D03*
Y0003878D03*
X0003346Y0021043D03*
X0018858D03*
X0019488Y-0014469D03*
Y0003563D03*
X-0009016Y-0001791D03*
X0009016D03*
X-0017323Y0027047D03*
X-0018543Y0013406D03*
X0014449Y0024193D03*
X-0014449D03*
X-0019488Y-0003681D03*
Y0014980D03*
X0002087Y0002618D03*
X0020118D03*
X-0009331Y0023563D03*
X0009331D03*
X-0002717Y0007421D03*
Y0026083D03*
X-0013189Y0009311D03*
X0013189D03*
X0008071Y-0003681D03*
Y0014980D03*
X0007441Y-0003366D03*
Y0014665D03*
X-0013189Y0008681D03*
X0013189D03*
X-0008071Y0021358D03*
X0008071D03*
X-0013189Y0008366D03*
X0013189D03*
X0004291Y0020098D03*
Y-0008799D03*
X0001772Y0014035D03*
X0020433D03*
X0015394Y-0003366D03*
Y0014665D03*
X0013819Y-0003366D03*
Y0014665D03*
X-0014449Y0010571D03*
X0014449D03*
X-0014134D03*
X0014134D03*
X-0019173Y0012146D03*
X-0003031D03*
X-0009331Y0024193D03*
X0009331D03*
X0002087Y0008681D03*
X0020118D03*
X0003031Y0012776D03*
X0019173D03*
X0006181Y-0008484D03*
Y0019783D03*
X0007126Y0008681D03*
Y0024823D03*
X-0017913Y0008996D03*
Y0024508D03*
X-0004291Y0007736D03*
Y0025768D03*
X0007126Y-0002106D03*
Y0013406D03*
X-0018858Y0010256D03*
X-0003346D03*
X0007441Y-0002421D03*
Y0013720D03*
X-0007441Y-0007539D03*
Y0018839D03*
X-0007756Y-0012264D03*
X0007756D03*
X0006811Y-0002106D03*
Y0013406D03*
X-0014134Y0012146D03*
X0014134D03*
X0018858Y0025453D03*
X0015394Y-0002106D03*
Y0013406D03*
X0003346Y0009626D03*
X0018858D03*
X-0003661Y0019783D03*
Y-0008484D03*
X0018228Y-0008799D03*
Y0020098D03*
X-0020118Y0009626D03*
X-0002087D03*
X0003031Y0021358D03*
X0019173D03*
X-0015709Y-0002106D03*
Y0013406D03*
X0014134Y0021358D03*
X-0014134D03*
X0003031Y-0009114D03*
X0019173D03*
X0004882Y0027047D03*
X-0014134Y-0003681D03*
Y0014980D03*
X0014449Y-0012264D03*
X-0014449D03*
X-0009016Y0020413D03*
X0009016D03*
X-0019173Y-0014469D03*
Y0003563D03*
X-0007756Y0021673D03*
X0007756D03*
X-0004921Y0008996D03*
Y0024508D03*
X-0004606Y0008681D03*
Y0024823D03*
X-0007441Y0007421D03*
Y0026083D03*
X0003976Y0008996D03*
Y0024508D03*
X-0018228Y-0014469D03*
Y0003563D03*
X-0018858Y-0001161D03*
X-0003346D03*
X0018543Y-0008484D03*
Y0019783D03*
X-0009331D03*
X0009331D03*
X-0019173Y0021358D03*
X-0003031D03*
X-0002402Y0007421D03*
Y0026083D03*
X-0018858Y0024193D03*
X-0003346D03*
X-0020433Y0019469D03*
X-0001772D03*
X0002087Y-0001476D03*
X0020118D03*
X-0015709Y0008996D03*
Y0024508D03*
X-0018543Y0019783D03*
Y-0008484D03*
X-0017598Y-0002106D03*
Y0013406D03*
X0003031Y0012146D03*
X0019173D03*
X-0003976Y0008681D03*
Y0024823D03*
X-0003661Y0008681D03*
Y0024823D03*
X-0014449Y0008681D03*
Y0024823D03*
X-0013189Y0009626D03*
X0013189D03*
X-0009331Y-0008484D03*
X0009331D03*
X-0003976Y0026083D03*
Y0007421D03*
X-0007756Y0020413D03*
X0007756D03*
X0016024Y-0002421D03*
Y0013720D03*
X-0015984Y-0006260D03*
X0003976Y0007421D03*
Y0026083D03*
X-0017598Y0008681D03*
Y0024823D03*
X0014134Y-0003681D03*
Y0014980D03*
X0018228Y-0003366D03*
Y0014665D03*
X0016024Y0019783D03*
Y-0008484D03*
X-0019173Y-0014783D03*
Y0003878D03*
X-0012874Y0001673D03*
X0012874D03*
X0003346Y0008681D03*
Y0024823D03*
X0012874Y0001988D03*
X-0012874D03*
X-0014449Y0009311D03*
X0014449D03*
X0004291Y-0014469D03*
Y0003563D03*
X-0013189Y0013091D03*
X0013189D03*
X-0009331Y0025138D03*
X0009331D03*
X0012874Y0013091D03*
X-0012874D03*
X0004882Y0004843D03*
X-0013189Y0001988D03*
X0013189D03*
X0013504Y-0014783D03*
Y0003878D03*
X-0004921Y-0002421D03*
Y0013720D03*
X0018543Y-0013524D03*
Y0002618D03*
X-0014449Y-0001791D03*
X0014449D03*
X-0015079Y0007421D03*
Y0026083D03*
X0012874Y0002618D03*
X-0012874D03*
X-0006181Y0008996D03*
Y0024508D03*
X-0017283Y0024823D03*
Y0008681D03*
X0013819Y-0014783D03*
Y0003878D03*
X-0006181Y-0013524D03*
Y0002618D03*
X-0003661Y0020728D03*
X-0009675Y0018839D03*
X-0010256Y-0017874D03*
X-0009016Y-0002736D03*
X0009016D03*
X-0018228Y0003878D03*
Y-0014783D03*
X0014134Y0013091D03*
X-0014134D03*
X0008071Y-0014783D03*
Y0003878D03*
X0014764Y-0003366D03*
Y0014665D03*
X-0015079Y-0013524D03*
Y0002618D03*
X-0003031Y-0014469D03*
Y0003563D03*
X-0017323Y-0006260D03*
X-0018858Y-0000531D03*
X-0003346D03*
X-0005236Y0008996D03*
Y0024508D03*
X0014134Y0024193D03*
X-0014134D03*
X-0015079Y0007736D03*
Y0025768D03*
X-0014764Y0007421D03*
Y0026083D03*
X-0008071Y0007421D03*
Y0026083D03*
X-0007756Y-0013524D03*
Y0002618D03*
X-0009016Y-0008484D03*
X0009016D03*
X-0018858Y-0013524D03*
Y0002618D03*
X-0009331Y0002933D03*
X0009331D03*
X0016969Y0009311D03*
X0017913Y-0001791D03*
X0004291Y0008996D03*
Y0024508D03*
X-0016024Y-0013209D03*
Y0002303D03*
X-0001772Y0019783D03*
X-0020433D03*
X-0007756Y0023563D03*
X0007756D03*
X0014134Y0010256D03*
X-0014134D03*
X-0013189Y0012776D03*
X0013189D03*
X-0009331Y0023878D03*
X0009331D03*
X0014449Y0011831D03*
X-0014449D03*
X0003346Y-0000531D03*
X0018858D03*
X-0003031Y0007421D03*
Y0026083D03*
X-0016339Y0020413D03*
X-0004291D03*
X-0013189Y-0008484D03*
X0013189D03*
X0003031Y0020413D03*
X0019173D03*
X-0007756Y0008681D03*
Y0024823D03*
X0007441Y0009626D03*
X0009016Y0009941D03*
X-0007303Y-0017874D03*
X0019173Y0019154D03*
X0008071Y0011516D03*
X-0008071D03*
X-0014134Y0007736D03*
Y0025768D03*
X0003031Y0025138D03*
X0008829Y0028248D03*
X0005236Y0008996D03*
Y0024508D03*
X0006181Y-0002421D03*
Y0013720D03*
X-0012874Y0001358D03*
X0012874D03*
X0015709Y0020098D03*
Y-0008799D03*
X0018858Y0025138D03*
X0011644Y0028642D03*
X0015079Y-0014783D03*
Y0003878D03*
X0018543Y0019469D03*
X0002087Y0013720D03*
X0020118D03*
X-0020118Y0001673D03*
X-0002087D03*
X0015984Y0027047D03*
X-0015709Y-0013209D03*
Y0002303D03*
X-0002717Y-0003681D03*
Y0014980D03*
X-0009331Y0013720D03*
X0009331D03*
X-0018858Y0001988D03*
X-0003346D03*
X0018543Y0007736D03*
Y0025768D03*
X0006181Y-0002106D03*
Y0013406D03*
X0016969Y-0013209D03*
Y0002303D03*
X-0010965Y0026831D03*
X0014449Y0021043D03*
X-0014449D03*
X-0009331Y0009626D03*
X0009331D03*
X-0003661Y-0014783D03*
Y0003878D03*
X-0015394Y-0003366D03*
Y0014665D03*
X0017598Y0019783D03*
Y-0008484D03*
X-0009331Y0021043D03*
X0009331D03*
X0018228Y-0013209D03*
Y0002303D03*
X0001772Y0012776D03*
X0020433D03*
X0002087Y0013091D03*
X0020118D03*
X-0007126Y-0008484D03*
Y0019783D03*
X-0008071Y-0010689D03*
X0008071D03*
X0002402Y-0014783D03*
Y0003878D03*
X0008071Y0009311D03*
X-0008071D03*
X-0019488Y-0013209D03*
X-0021772Y-0006939D03*
X-0015079Y-0013209D03*
Y0002303D03*
X-0003976Y0008996D03*
Y0024508D03*
X0006220Y0004843D03*
X-0006496Y0008681D03*
Y0024823D03*
X0018228Y-0003681D03*
Y0014980D03*
X0017224Y-0019685D03*
X0018248Y-0020256D03*
X-0008071Y0022933D03*
X0008071D03*
X-0009016Y-0012579D03*
X0009016D03*
X-0008071Y0023248D03*
X0008071D03*
X0012874Y0019783D03*
X-0012874D03*
X-0014449Y0012146D03*
X0014449D03*
X-0008071Y-0000846D03*
X0008071D03*
X-0017913Y-0013209D03*
Y0002303D03*
X-0018858Y0000728D03*
X-0003346D03*
X0007126Y-0013524D03*
Y0002618D03*
X-0009016Y0001673D03*
X0009016D03*
X-0014134Y0009626D03*
X0014134D03*
X-0020433Y0002933D03*
X-0001772D03*
X0005866Y-0002106D03*
Y0013406D03*
X-0019173Y0021673D03*
X-0003031D03*
X-0020118Y0019154D03*
X-0002087D03*
X0003031Y0020728D03*
X0019173D03*
X-0005866Y0008996D03*
Y0024508D03*
X0013189Y0014350D03*
X-0013189D03*
X0009331Y-0002421D03*
X-0009331D03*
X0003976Y-0014469D03*
Y0003563D03*
X0018543Y-0003681D03*
Y0014980D03*
X-0007756Y0001988D03*
X0007756D03*
X0014449D03*
X-0014449D03*
X-0007126Y0007421D03*
Y0026083D03*
Y0008996D03*
Y0024508D03*
X-0003031Y0007736D03*
Y0025768D03*
X0012874Y0009626D03*
X-0012874D03*
X-0009331Y0013091D03*
X0009331D03*
X0017913Y-0013209D03*
Y0002303D03*
X0007756Y0022933D03*
X-0007756D03*
X0018543Y-0001476D03*
X-0005689Y-0017874D03*
X-0019488Y-0003366D03*
Y0014665D03*
X-0014134Y0010886D03*
X0014134D03*
X-0013189Y0020413D03*
X0013189D03*
X-0018858Y-0012894D03*
X-0003346D03*
X-0019173Y0020728D03*
X-0003031D03*
X0012874Y0013720D03*
X-0012874D03*
X0008386Y0007736D03*
Y0025768D03*
X-0008386Y0007736D03*
Y0025768D03*
X-0009016Y0023878D03*
X0009016D03*
X0001772Y0021043D03*
X0020433D03*
X-0003976Y-0003366D03*
Y0014665D03*
X-0018858Y0022933D03*
X-0003346D03*
X0007756Y-0013524D03*
Y0002618D03*
X0012874Y0009941D03*
X-0012874D03*
X-0008701Y0007421D03*
Y0026083D03*
X-0018858Y-0002421D03*
Y0013720D03*
X-0003346Y0008681D03*
Y0024823D03*
X0006496Y0008996D03*
Y0024508D03*
X0008386Y-0003366D03*
Y0014665D03*
X0002087Y0008366D03*
X0020118D03*
X0013819Y-0003681D03*
Y0014980D03*
X0012874Y0014035D03*
X-0012874D03*
X0014449Y0010256D03*
X-0014449D03*
Y0020728D03*
X0014449D03*
X-0019173Y0022933D03*
X-0003031D03*
X0016969Y0008996D03*
Y0024508D03*
X0007756Y0020728D03*
X-0007756D03*
X-0013189Y0002933D03*
X0013189D03*
X-0007441Y0008681D03*
Y0024823D03*
X-0012874Y0012776D03*
X0012874D03*
X-0013504Y-0014783D03*
Y0003878D03*
X-0003661Y-0013524D03*
Y0002618D03*
X-0020433Y-0001476D03*
X-0001772D03*
X-0007756Y0000728D03*
X0007756D03*
X0003031Y-0000846D03*
X0019173D03*
X0012874Y-0008484D03*
X-0012874D03*
X-0009016Y0024193D03*
X0009016D03*
X-0004606Y-0008484D03*
Y0019783D03*
X0016024Y0024508D03*
Y0008996D03*
X0014764Y-0002421D03*
Y0013720D03*
X-0003661Y-0003681D03*
Y0014980D03*
X0018228Y-0013524D03*
Y0002618D03*
X-0014764Y-0014469D03*
Y0003563D03*
X-0009016Y0025453D03*
X0009016D03*
X-0014764Y0007736D03*
Y0025768D03*
X-0018858Y0001673D03*
X-0003346D03*
X-0007441Y-0009744D03*
X-0007756Y0001358D03*
X0007756D03*
X0019173Y0007736D03*
Y0025768D03*
X0008071Y0020413D03*
X-0008071D03*
X0017323Y-0006260D03*
X-0008386Y-0014469D03*
Y0003563D03*
X0007756Y-0002421D03*
Y0013720D03*
X0019803Y0020098D03*
X-0004606Y-0002106D03*
Y0013406D03*
X0003346Y0012146D03*
X0018858D03*
X-0019173Y0010571D03*
X-0003031D03*
X-0018858Y0009311D03*
X-0003346D03*
X-0008386Y0024193D03*
X0015709Y0008996D03*
Y0024508D03*
X0012874Y0025138D03*
X-0012874D03*
X0013189Y0019154D03*
X-0013189D03*
X-0012972Y0027470D03*
X-0008701Y0023563D03*
X0007756Y-0009429D03*
X-0007756D03*
X0003031Y0007421D03*
Y0026083D03*
X-0004291Y-0003366D03*
Y0014665D03*
X-0003661Y-0014469D03*
Y0003563D03*
X0015709Y-0013209D03*
Y0002303D03*
X-0014764Y0008681D03*
Y0024823D03*
X-0013789Y0028681D03*
X-0008386Y0024823D03*
X0002087Y0019154D03*
X0020118D03*
X0017323Y0027047D03*
X-0017598Y0008996D03*
Y0024508D03*
X0001772Y0020728D03*
X0020433D03*
X-0020118Y0019469D03*
X-0002087D03*
X-0009016Y0025138D03*
X0009016D03*
X0008071Y0024193D03*
X-0008071D03*
X-0003661Y-0002421D03*
Y0013720D03*
X-0018858Y0021673D03*
X-0003346D03*
X-0020433Y-0001791D03*
X-0001772D03*
X0012874Y-0012579D03*
X-0012874D03*
X-0019173Y-0003681D03*
Y0014980D03*
X-0008071Y0011831D03*
X0008071D03*
X0008386Y-0014469D03*
Y0003563D03*
X-0018543Y-0007224D03*
Y0018524D03*
X0001772Y-0009429D03*
X0020433D03*
X-0019173Y0023248D03*
X-0003031D03*
X0003976Y0008681D03*
Y0024823D03*
X-0016890Y-0022008D03*
X0004606Y-0013209D03*
Y0002303D03*
X-0007126Y-0003681D03*
Y0014980D03*
X-0014134Y0022618D03*
X0014134D03*
X-0009016Y-0008169D03*
X0009016D03*
X-0019803Y-0013209D03*
X-0021919Y-0006732D03*
X0015079Y0007736D03*
Y0025768D03*
X-0020433Y0008681D03*
X-0001772D03*
X0007441Y-0003681D03*
Y0014980D03*
X-0018228Y0008996D03*
Y0024508D03*
X-0009016Y-0002421D03*
X0009016D03*
X0003031Y0001988D03*
X0019173D03*
X-0004921Y0024823D03*
Y0008681D03*
X0002087Y-0008484D03*
X0020118D03*
X-0008071Y0025453D03*
X-0010974Y0029469D03*
X-0018228Y-0007539D03*
Y0018839D03*
X0019488Y0020413D03*
Y0024508D03*
X0020118Y0019783D03*
X0002087D03*
X-0011870Y-0017874D03*
X-0012608Y-0014469D03*
X-0014764Y-0012579D03*
X-0008071Y0021988D03*
X0008071D03*
X-0015079Y0008681D03*
Y0024823D03*
X-0014134Y0020728D03*
X0014134D03*
X0007441Y-0012579D03*
X0009675Y-0012894D03*
X-0006673Y-0017874D03*
X0015079Y-0008484D03*
Y0019783D03*
X-0018543Y-0009429D03*
X0018228Y0008996D03*
Y0024508D03*
X0010039Y0027431D03*
X0002402Y0024823D03*
X-0018858Y-0011949D03*
X-0003346D03*
X0018228Y-0008484D03*
Y0019783D03*
X-0018858Y0023563D03*
X-0003346D03*
X-0019803Y-0011949D03*
X-0020925Y-0006929D03*
X0018858Y0019783D03*
Y-0008484D03*
X-0009331Y0008366D03*
X0009331D03*
X0017913Y0008996D03*
Y0024508D03*
X-0014134Y0021673D03*
X0014134D03*
X-0015079Y0008996D03*
Y0024508D03*
X0019488Y0025453D03*
X-0008386Y0023248D03*
X-0013169Y0027195D03*
X0002402Y0007421D03*
Y0026083D03*
X0003346Y0024193D03*
X0018858D03*
X0016339Y0008996D03*
Y0024508D03*
X0007441Y0008681D03*
Y0024823D03*
X-0014449Y-0000531D03*
X0014449D03*
X0014134Y0007421D03*
Y0026083D03*
X0007126Y-0002421D03*
Y0013720D03*
X0002087Y0025138D03*
X0020118D03*
X-0007126Y0020098D03*
Y-0008799D03*
X-0013189Y0019783D03*
X0013189D03*
X0014764Y0008681D03*
Y0024823D03*
X-0013189Y0019469D03*
X0013189D03*
X0005866Y0008996D03*
Y0024508D03*
X-0004921Y-0002106D03*
Y0013406D03*
X-0018858Y0008681D03*
Y0024823D03*
X0020118Y0019469D03*
X0002087D03*
X0018228Y0008681D03*
Y0024823D03*
X-0014134Y0021988D03*
X0014134D03*
X0002717Y0007421D03*
Y0026083D03*
X0012736Y-0018110D03*
X0019803Y-0003681D03*
Y0014980D03*
X0003031Y0023248D03*
X0019173D03*
X0020433Y0019783D03*
X0001772D03*
X-0020118Y0014035D03*
X-0002087D03*
X-0020118Y0023878D03*
X-0002087D03*
X-0014764Y-0003366D03*
Y0014665D03*
X0006181Y0008681D03*
Y0024823D03*
X-0020433Y0020413D03*
X-0001772D03*
X-0020118Y-0002736D03*
X-0002087D03*
X-0014449Y-0012894D03*
X0014449D03*
X0007126Y0008996D03*
Y0024508D03*
X0012736Y-0018307D03*
X-0019488Y0007421D03*
Y0026083D03*
X0003661Y0007421D03*
Y0026083D03*
X-0009331Y0009311D03*
X0009331D03*
X0002717Y0007736D03*
Y0025768D03*
X-0020118Y0020728D03*
X-0002087D03*
X-0018858D03*
X-0003346D03*
X-0006181Y0013406D03*
Y-0002106D03*
X-0009331Y0014035D03*
X0009331D03*
X0012736Y-0018898D03*
X0015394Y0020098D03*
Y-0008799D03*
X0003031Y0007736D03*
Y0025768D03*
X0019488Y0007736D03*
Y0025768D03*
X0003346Y0021673D03*
X0018858D03*
X-0009331Y0008681D03*
X0009331D03*
X0019173Y0007421D03*
Y0026083D03*
X-0018858Y0009941D03*
X-0003346D03*
X0015079Y0008681D03*
Y0024823D03*
X0014764Y0018524D03*
Y-0007224D03*
X0002087Y0020728D03*
X0020118D03*
X-0019173Y0007736D03*
Y0025768D03*
X0007126Y0026083D03*
Y0007421D03*
X-0018858Y0011831D03*
X-0003346D03*
X-0008071Y0012776D03*
X0008071D03*
X0003346Y-0000846D03*
X0018858D03*
X-0007126Y-0007539D03*
Y0018839D03*
X0003661Y0001358D03*
X-0013189Y-0009114D03*
X0013189D03*
X-0004606Y-0013524D03*
Y0002618D03*
X-0002717Y-0003366D03*
Y0014665D03*
X-0019488Y-0009744D03*
X0017283Y-0008799D03*
Y0020098D03*
X-0005236Y-0013209D03*
Y0002303D03*
X-0018543Y-0014469D03*
Y0003563D03*
X-0007756Y-0001791D03*
X0007756D03*
X-0020118Y-0003051D03*
X-0002087D03*
X-0020118Y0024823D03*
X-0002087D03*
X-0006220Y0015945D03*
X0006181Y-0013209D03*
Y0002303D03*
X-0004606Y-0013209D03*
Y0002303D03*
X0007441Y-0014783D03*
Y0003878D03*
X-0015394Y-0013209D03*
Y0002303D03*
X-0002717Y-0014469D03*
Y0003563D03*
X0002087Y-0001791D03*
X0020118D03*
X-0007756Y0001673D03*
X0007756D03*
X0006181Y0002618D03*
Y-0013524D03*
X-0013819Y-0007224D03*
Y0018524D03*
X-0017323Y0004843D03*
X-0018858Y0013091D03*
X-0003346D03*
X-0018543Y-0003681D03*
Y0014980D03*
X-0009331Y0001358D03*
X0009331D03*
X0014764Y0002303D03*
X-0018543Y0012776D03*
X0018543Y0023563D03*
X-0003031Y-0014783D03*
Y0003878D03*
X0003031Y0024508D03*
X0015079Y0020098D03*
Y-0008799D03*
X-0005866Y-0002106D03*
Y0013406D03*
X-0015079Y-0003366D03*
Y0014665D03*
X0003661Y-0014469D03*
Y0003563D03*
X0003346Y0001673D03*
X0018858D03*
X-0019173D03*
X-0003031D03*
X0007441Y-0014469D03*
Y0003563D03*
X0014449Y-0001161D03*
X-0014449D03*
X-0020118Y0003248D03*
X-0002087D03*
X-0014449Y-0001476D03*
X0014449D03*
X0015394Y-0013209D03*
Y0002303D03*
X-0007756Y0009941D03*
X0007756D03*
X-0008071Y0001988D03*
X0008071D03*
X0006811Y-0013209D03*
Y0002303D03*
X-0008386Y-0014783D03*
Y0003878D03*
X-0014134Y-0001476D03*
X0014134D03*
X-0009331Y0001673D03*
X0009331D03*
X0007126Y-0014783D03*
Y0003878D03*
X-0008071Y-0011319D03*
X0008071D03*
X-0008071Y-0010374D03*
X0008071D03*
X-0008071Y-0000531D03*
X0008071D03*
X0012874Y-0001161D03*
X-0012874D03*
X0014134Y0001673D03*
X-0014134D03*
X0001772Y0012461D03*
X0020433D03*
X0003031Y-0014469D03*
Y0003563D03*
Y-0001476D03*
X0019173D03*
X0004291Y0007736D03*
Y0025768D03*
X0002087Y-0002421D03*
X0020118D03*
X-0019803Y-0009744D03*
X0015984Y0015945D03*
X-0007441Y0012776D03*
X-0016339Y0008996D03*
Y0024508D03*
X-0018543Y0023563D03*
X0015079Y-0002106D03*
Y0013406D03*
X0019173Y-0007539D03*
Y0018839D03*
X0013504Y-0007224D03*
Y0018524D03*
X-0020433Y-0002736D03*
X-0001772D03*
X-0019173Y-0000217D03*
X-0003031D03*
X-0008386Y-0003681D03*
Y0014980D03*
X0018976Y-0019114D03*
X0017224Y-0020669D03*
X0002087Y0001988D03*
X0020118D03*
X-0020118D03*
X-0002087D03*
X-0014134Y-0014783D03*
Y0003878D03*
X-0009016Y0001988D03*
X0009016D03*
X0018858Y0008681D03*
Y0024823D03*
X0018248Y-0020453D03*
X0017224Y-0019488D03*
X-0007756Y0010571D03*
X0007756D03*
X0003031Y0011831D03*
X0019173D03*
X-0015079Y-0003681D03*
Y0014980D03*
X-0021486Y-0006939D03*
X-0019803Y-0012579D03*
X-0019173Y0000728D03*
X-0003031D03*
X-0017283Y0013406D03*
Y-0002106D03*
X0007756Y-0001476D03*
X-0007756D03*
X-0003976Y-0003681D03*
Y0014980D03*
X0002402Y0023248D03*
X-0011988Y0030285D03*
X-0009636Y0030118D03*
X0017323Y0015945D03*
X-0009016Y-0001476D03*
X0009016D03*
X0003031Y-0000217D03*
X0019173D03*
X-0014134Y-0000531D03*
X0014134D03*
X0015394Y-0014469D03*
Y0003563D03*
X-0014134Y-0014469D03*
Y0003563D03*
X-0019173Y-0010059D03*
X-0003031D03*
X0001772Y0001673D03*
X0020433D03*
X-0009331Y0012776D03*
X0009331D03*
X0015079Y-0007224D03*
Y0018524D03*
X-0003976D03*
Y-0007224D03*
X0016969Y0020413D03*
X0017913Y0009311D03*
X0003346Y-0013524D03*
Y0002618D03*
X-0014449Y-0011634D03*
X0014449D03*
X0003346Y0012776D03*
X0018858D03*
X-0008071Y0010571D03*
X0008071D03*
X-0014134Y0022933D03*
X0014134D03*
X0014764Y0024508D03*
X0014449Y0022618D03*
X0017224Y0030413D03*
X0012874Y0024823D03*
X-0012874D03*
X0011506Y-0015531D03*
X0018543Y0023878D03*
X0002402Y0025138D03*
X-0019488Y-0008484D03*
X-0019803D03*
X0003661Y0013406D03*
X-0015984Y0004843D03*
X-0007441Y-0003681D03*
Y0014980D03*
X0019488Y0020098D03*
X-0015709Y-0002421D03*
Y0013720D03*
X0008071Y-0012579D03*
X-0008071D03*
X0003346Y0020728D03*
X0018858D03*
X0008386Y-0007539D03*
Y0018839D03*
X0019173Y-0014469D03*
Y0003563D03*
X0003031Y-0011634D03*
X0019173D03*
X-0015394Y-0014469D03*
Y0003563D03*
X-0007756Y0012146D03*
X0007756D03*
X0002717Y-0007539D03*
Y0018839D03*
X-0009016Y0024823D03*
X0009016D03*
X-0019173Y0001988D03*
X-0003031D03*
X0014449Y-0010059D03*
X-0014449D03*
X-0020118Y-0001476D03*
X-0002087D03*
X-0007126Y-0002421D03*
Y0013720D03*
X-0008071Y0010256D03*
X0008071D03*
X0019488Y-0014783D03*
Y0003878D03*
X0003976Y-0014783D03*
Y0003878D03*
X-0006181Y-0002421D03*
Y0013720D03*
X0003031Y0000728D03*
X0019173D03*
X-0020118Y-0001791D03*
X-0002087D03*
X-0013189Y-0012579D03*
X0013189D03*
X-0006811Y-0013209D03*
Y0002303D03*
X-0018228Y0008681D03*
Y0024823D03*
X0014134Y0000413D03*
X-0014134D03*
X-0010925Y-0017874D03*
X-0012628Y0018839D03*
X-0014764Y0020728D03*
X0008386Y-0014783D03*
Y0003878D03*
X-0016339Y-0002106D03*
Y0013406D03*
X-0014764Y-0008484D03*
Y0019783D03*
X0003031Y-0003366D03*
Y0014665D03*
X-0018858Y-0010374D03*
X-0003346D03*
X0017283Y-0008484D03*
Y0019783D03*
X-0012874Y-0009429D03*
X0012874D03*
X0001772Y-0009114D03*
X0020433D03*
X0009016Y0008051D03*
X-0009016D03*
X0018858Y0019469D03*
X0018543Y0018839D03*
Y-0007539D03*
X-0020433Y0009941D03*
X-0001772D03*
X-0019173Y-0008169D03*
X-0003346Y-0002421D03*
Y0013720D03*
X0002717Y0024193D03*
X-0013189Y-0002736D03*
X0013189D03*
X-0002402Y-0007224D03*
Y0018524D03*
X-0014134Y-0001791D03*
X0014134D03*
X-0020433Y0014035D03*
X-0001772D03*
X0002717Y-0007224D03*
Y0018524D03*
X0008071Y0018839D03*
Y-0007539D03*
X0003031Y-0010059D03*
X0019173D03*
X-0008071Y0021673D03*
X0008071D03*
X0003031Y-0000531D03*
X0019173D03*
X0007441Y0018839D03*
Y-0007539D03*
X-0020433Y0020728D03*
X-0001772D03*
X0012874Y-0013524D03*
X-0012874D03*
X-0009331Y-0001791D03*
X0009331D03*
X0015709Y-0013524D03*
Y0002618D03*
X-0009331Y-0013524D03*
X0009331D03*
X-0020433Y0013091D03*
X-0001772D03*
X0004921Y0008996D03*
Y0024508D03*
X-0009331Y0009941D03*
X0009331D03*
X0003346Y-0011949D03*
X0018858D03*
X-0020433Y-0001161D03*
X-0001772D03*
X-0003976Y-0007539D03*
Y0018839D03*
X-0020433Y-0008484D03*
X-0001772D03*
X-0008071Y0001673D03*
X0008071D03*
X-0020118Y-0008169D03*
X-0002087D03*
X-0006496Y-0013209D03*
Y0002303D03*
X-0020118Y0012776D03*
X-0002087D03*
X-0008071Y-0007539D03*
Y0018839D03*
X-0018543Y-0009744D03*
X0003661Y0002303D03*
X-0017913Y-0014469D03*
Y0003563D03*
X-0014134Y0001043D03*
X0014134D03*
X-0006496Y-0002106D03*
Y0013406D03*
X-0017913Y-0002106D03*
Y0013406D03*
X-0020118Y0013720D03*
X-0002087D03*
X0007441Y-0007224D03*
Y0018524D03*
X-0003976Y-0014469D03*
Y0003563D03*
X-0007756Y0001043D03*
X0007756D03*
X-0003031Y-0007539D03*
Y0018839D03*
X-0015984Y0015945D03*
X0004291Y-0007539D03*
Y0018839D03*
X-0003031Y-0001791D03*
X-0019173D03*
Y-0000846D03*
X-0003031D03*
X0008071Y-0014469D03*
Y0003563D03*
X0003661Y0018839D03*
Y-0007539D03*
X0015079D03*
Y0018839D03*
X0017598Y0008996D03*
Y0024508D03*
X0014449Y0012461D03*
X-0014449D03*
X-0018858Y-0009744D03*
X-0003346D03*
X0007126Y-0007539D03*
Y0018839D03*
X-0003976Y-0002106D03*
Y0013406D03*
X0017224Y-0018307D03*
X0019370Y-0021201D03*
X-0008071Y-0011949D03*
X0008071D03*
X-0009016Y0009626D03*
X0009016D03*
X0001772Y-0001476D03*
X0020433D03*
X0012874Y-0002421D03*
X-0012874D03*
X-0011118Y0017189D03*
X-0007756Y-0009744D03*
X0007756D03*
X-0008071Y-0009429D03*
X0008071D03*
X0001772Y-0002421D03*
X0020433D03*
X0018583Y-0018366D03*
X0019764Y-0019114D03*
X-0018543Y-0002421D03*
Y0013720D03*
X0001772Y-0013839D03*
X0020433D03*
X0019488Y-0007539D03*
Y0018839D03*
X0017913Y-0003366D03*
Y0014665D03*
X0014449Y-0009429D03*
X-0014449D03*
X0002087Y0009311D03*
X0020118D03*
X-0018858Y-0007854D03*
X-0014134Y-0010059D03*
X0014134D03*
X-0014449Y-0013524D03*
Y0002618D03*
X0016969Y-0001791D03*
X0017913Y-0012894D03*
X-0018858Y0001358D03*
X-0003346D03*
X-0013819Y-0014469D03*
Y0003563D03*
X-0017913Y0007736D03*
Y0025768D03*
X-0014134Y0018839D03*
Y-0007539D03*
X0003031Y0021673D03*
X0019173D03*
X0008071Y0012146D03*
X-0008071D03*
X0001772Y-0012894D03*
X0020433D03*
X-0007126Y-0014783D03*
Y0003878D03*
X-0009331Y-0009744D03*
X0009331D03*
X0004921Y0002303D03*
Y-0013209D03*
X0005236D03*
Y0002303D03*
X0004606Y-0013524D03*
Y0002618D03*
X0015709Y0019783D03*
Y-0008484D03*
X-0008071Y0010886D03*
X0008071D03*
X-0009016Y0008681D03*
X0009016D03*
X-0018228Y-0002106D03*
Y0013406D03*
X-0004921Y-0008799D03*
Y0020098D03*
X-0020433Y-0013839D03*
X-0001772D03*
X0003031Y-0010689D03*
X0019173D03*
X0014449Y-0010374D03*
X-0014449D03*
X0015079Y-0013524D03*
Y0002618D03*
X-0003031Y-0003366D03*
Y0014665D03*
X0014134Y0018524D03*
Y-0007224D03*
X0013189Y0003248D03*
X-0013189D03*
X0018228Y-0007539D03*
Y0018839D03*
X-0014134Y-0012894D03*
X0014134D03*
X-0014449Y-0008484D03*
Y0019783D03*
X0003346Y-0011634D03*
X0018858D03*
X0008386Y-0007224D03*
Y0018524D03*
X0008071Y0009626D03*
X-0008071D03*
X0012874Y-0013839D03*
X-0012874D03*
X0003031Y0009311D03*
X0019173D03*
X-0014764Y-0013524D03*
Y0002618D03*
X-0020118Y0009311D03*
X-0002087D03*
X-0008071Y0000728D03*
X0008071D03*
X0012874Y-0012264D03*
X-0012874D03*
X-0004606Y-0002421D03*
Y0013720D03*
X0002087Y-0008169D03*
X0020118D03*
X0015709Y-0002106D03*
Y0013406D03*
X0008701Y-0014783D03*
Y0003878D03*
X0007126Y-0013209D03*
Y0002303D03*
X-0008071Y-0001476D03*
X0008071D03*
X0007756Y0019783D03*
Y-0008484D03*
X-0019173Y-0010689D03*
X-0003031D03*
X0016339Y-0008799D03*
Y0020098D03*
X0014449Y-0008484D03*
Y0019783D03*
X-0006811Y-0002106D03*
Y0013406D03*
X-0018858Y0012461D03*
X-0003346D03*
X0016024Y0020098D03*
Y-0008799D03*
X0018858Y-0013524D03*
Y0002618D03*
X0004921Y0024823D03*
Y0008681D03*
X-0008386Y-0007224D03*
Y0018524D03*
X-0014764Y-0014783D03*
Y0003878D03*
X0003976Y-0013524D03*
Y0002618D03*
X0005866Y-0013209D03*
Y0002303D03*
X0018228Y-0014783D03*
Y0003878D03*
X0001772Y-0012264D03*
X0020433D03*
X-0019173Y-0011949D03*
X-0003031D03*
X-0015079Y0020098D03*
Y-0008799D03*
X-0006496Y-0002421D03*
Y0013720D03*
X-0014134Y0000728D03*
X0014134D03*
X-0003661Y-0007224D03*
Y0018524D03*
X-0009016Y-0007854D03*
X0009016D03*
X0006496Y-0002421D03*
Y0013720D03*
X-0018858Y-0001791D03*
X-0003346D03*
X0014764Y-0007539D03*
Y0018839D03*
X0002087Y-0007854D03*
X0020118D03*
X-0019803Y-0007224D03*
Y0018524D03*
X0008701Y-0007224D03*
Y0018524D03*
X-0019173Y0009311D03*
X-0003031D03*
X-0019173Y-0007539D03*
Y0018839D03*
X0002087Y0002933D03*
X0020118D03*
X-0007756Y-0008484D03*
Y0019783D03*
X-0002402Y-0003681D03*
Y0014980D03*
X0004291Y-0013209D03*
Y0002303D03*
X-0007756Y-0000531D03*
X0007756D03*
X-0004291Y-0007539D03*
Y0018839D03*
X0004606Y-0008799D03*
Y0020098D03*
X-0019488Y-0014469D03*
Y0003563D03*
X-0018228Y-0003681D03*
Y0014980D03*
X-0006811Y-0003366D03*
Y0014665D03*
X0013189Y0008051D03*
X-0013189D03*
X0019803Y-0007224D03*
Y0018524D03*
X0019173Y-0007224D03*
Y0018524D03*
X-0009016Y0013091D03*
X0009016D03*
X-0020118D03*
X-0002087D03*
X-0007756Y0012461D03*
X0007756D03*
X-0009331Y-0009114D03*
X0009331D03*
X0012874Y-0002736D03*
X-0012874D03*
X0002087D03*
X0020118D03*
X0014134Y0001988D03*
X-0014134D03*
X0017598Y-0013524D03*
Y0002618D03*
X-0009016Y-0009114D03*
X0009016D03*
X0014449Y0001673D03*
X-0014449D03*
X-0006496Y0019783D03*
Y-0008484D03*
X-0016339Y-0013209D03*
Y0002303D03*
X-0004606Y-0008799D03*
Y0020098D03*
X0014449Y0000728D03*
X-0014449D03*
X0013819Y-0007539D03*
Y0018839D03*
X-0007441Y-0014783D03*
Y0003878D03*
X-0020433Y0001673D03*
X-0001772D03*
X-0020433Y0001358D03*
X-0001772D03*
X0014764Y-0008484D03*
Y0019783D03*
X0012874Y-0012894D03*
X-0012874D03*
X-0007756Y0013091D03*
X0007756D03*
X-0005236Y-0002106D03*
Y0013406D03*
X0003031Y-0009429D03*
X0019173D03*
X-0009016Y-0013839D03*
X0009016D03*
X-0013819Y-0003681D03*
Y0014980D03*
X0006181Y-0008799D03*
Y0020098D03*
X0012874Y-0008169D03*
X-0012874D03*
X0004882Y-0006260D03*
X-0016969Y0020098D03*
Y-0008799D03*
X-0020118Y-0008484D03*
X-0002087D03*
X0019488Y0018524D03*
Y-0007224D03*
X-0018228Y0007736D03*
Y0025768D03*
X0015394Y0007736D03*
Y0025768D03*
X-0003661Y-0003366D03*
Y0014665D03*
X-0007441Y-0008484D03*
Y0019783D03*
X0002402Y0023878D03*
X0003976Y-0007539D03*
Y0018839D03*
G54D33*
X0018228Y0025453D03*
X0017913Y0025138D03*
X-0009016Y-0002106D03*
X-0008701Y-0001791D03*
X-0017283Y0003248D03*
X-0016654Y0001673D03*
X-0014449Y0003878D03*
Y0003563D03*
X-0014764Y0003248D03*
X-0013504Y0001988D03*
X-0015709Y0000098D03*
X-0015079D03*
X0002717Y0025138D03*
X0002087Y0026083D03*
X0002402Y0025453D03*
X0002087Y0025768D03*
X0001772D03*
Y0026083D03*
X0000551Y0030197D03*
X-0000236D03*
X-0002087Y0007421D03*
X0009016D03*
X0009331D03*
X0008701Y0008051D03*
X0008386Y0008366D03*
X-0018543Y0001988D03*
X-0019488Y0002933D03*
X-0019803Y0003248D03*
X0008071Y0008681D03*
X0007441Y0009311D03*
X0009331Y0010256D03*
X0009016D03*
X0000000Y0024902D03*
X-0001772Y0024508D03*
X0006496Y0000098D03*
X0007126D03*
X-0002087Y0024508D03*
X-0003661Y0020413D03*
X-0002087Y0018524D03*
X-0001772D03*
X-0002402Y0019154D03*
X-0002717Y0019469D03*
X-0002402Y0024193D03*
X0021043Y0013800D03*
Y-0002500D03*
X0020118Y-0000846D03*
X0020433D03*
X-0004606Y0022303D03*
X-0003976D03*
X-0002717Y0023878D03*
X-0003031Y0023563D03*
Y0019783D03*
X-0003346Y0020098D03*
X-0001772Y0021358D03*
X-0002087D03*
X0009331Y-0011949D03*
X0009016D03*
X0006496Y-0014783D03*
X0005551Y-0012894D03*
X0004291Y-0013524D03*
X-0011102Y-0008406D03*
X0018543Y-0001791D03*
X0013189Y-0002106D03*
X0013504Y-0001791D03*
X0015079Y0000098D03*
X0012874Y0001043D03*
X0013189D03*
X0013504Y0000728D03*
X0018858Y0003878D03*
Y0003563D03*
X0018543Y0003248D03*
X0015709Y0003878D03*
X0016654Y0001673D03*
X0020433Y-0003366D03*
Y-0003681D03*
X0020118D03*
Y-0003366D03*
X0019803Y-0003051D03*
X0019488Y-0002736D03*
X0019173Y-0002421D03*
X0014134Y0002618D03*
X0013819Y0002933D03*
X0012874Y0003878D03*
X0013189D03*
X0013504Y0003248D03*
X0012874Y0003563D03*
X0013189D03*
X0007756Y0008996D03*
X0006496Y0007421D03*
X0008386Y0012776D03*
X0008071Y0012461D03*
X0006496Y0011201D03*
X0007126D03*
X0009016Y-0014783D03*
X0009331D03*
X0008701Y-0014154D03*
X0008386Y-0013839D03*
X0008071Y-0013524D03*
X0006496Y-0014469D03*
X0006181Y-0014154D03*
X0007756Y-0013209D03*
X0007441Y-0012894D03*
X0008071Y0001358D03*
X0007756Y0003878D03*
Y0003563D03*
X0006811Y0002618D03*
X0005551Y0001673D03*
X0004921Y0003248D03*
X-0003346Y0026083D03*
X-0019488Y0014035D03*
X-0020433Y0014980D03*
X-0019803Y0014350D03*
X-0020118Y0014980D03*
Y0014665D03*
X-0019803Y0011831D03*
X-0020118Y0012146D03*
X-0020433D03*
Y0014665D03*
X-0021043Y0013799D03*
X-0018543Y0013091D03*
X-0017283Y0014350D03*
X-0016654Y0012776D03*
X-0015079Y0014035D03*
X-0015394Y0013720D03*
X-0015709Y0011201D03*
X-0015079D03*
X-0003346Y0025768D03*
X-0003661Y0025453D03*
X-0003976Y0025138D03*
X-0004291Y0024823D03*
X-0005551Y0023878D03*
X-0004606Y0018524D03*
Y0018839D03*
X-0004921Y0019154D03*
X-0007756Y0018524D03*
Y0018839D03*
X-0005551Y0020413D03*
X-0001772Y0007421D03*
X-0002402Y0008051D03*
X-0002717Y0008366D03*
X-0004606Y0007421D03*
X-0012874Y-0011949D03*
X-0007756Y0007421D03*
Y0007736D03*
X-0005551Y0009311D03*
X-0007441Y0008051D03*
X-0009016Y0008996D03*
X0007441Y0014350D03*
X0007126Y0014035D03*
X0002087Y0008996D03*
X0002402Y0009311D03*
X0003976Y0011201D03*
X0002402Y0011831D03*
X0001772Y0012146D03*
X0002087D03*
X0003346Y0007421D03*
Y0007736D03*
X0003661Y0008051D03*
X0006496Y0007736D03*
X0006181Y0008051D03*
X0005551Y0009311D03*
X-0020118Y0003878D03*
Y0003563D03*
X-0018228Y0000098D03*
X-0019803Y0000728D03*
X-0019173Y-0001161D03*
X-0020118Y-0002106D03*
X-0020433D03*
X-0021043Y-0002500D03*
X-0020433Y0003563D03*
X-0021043Y0002697D03*
X-0020118Y0001043D03*
X-0020433D03*
X0022008Y-0010039D03*
X0021043Y-0008405D03*
X-0004606Y-0011004D03*
X0019803Y-0009114D03*
X0017598Y-0011004D03*
X0018228D03*
X0019488Y-0009429D03*
X0019173Y-0009744D03*
X0020433Y-0008799D03*
X0014449Y0018524D03*
Y0018839D03*
X0013189Y0020098D03*
X0013504Y0020413D03*
X0014764Y0019154D03*
X0016654Y0020413D03*
X0014134Y0021043D03*
X0013819Y0020728D03*
X0015394Y0019783D03*
X0015079Y0019469D03*
X0017283Y0019154D03*
X0020118Y0021358D03*
X0020433D03*
X0019803Y0013091D03*
X0017598Y0011201D03*
X0018228D03*
X0019488Y0012776D03*
X0019173Y0012461D03*
X0020433Y0013406D03*
X0020118D03*
X0018858Y0014980D03*
Y0014665D03*
X0018543Y0014350D03*
X0018228Y0014035D03*
X0017913Y0013720D03*
X0016654Y0012776D03*
X0015709Y0014980D03*
X-0014134Y0012461D03*
X-0013819Y0012776D03*
X-0013504Y0013091D03*
X-0014764Y0014350D03*
X-0019173Y0013720D03*
X-0018858Y0013406D03*
X-0017598Y0014980D03*
Y0014665D03*
X-0013189Y0013406D03*
X-0012874D03*
X-0011102Y0013799D03*
X0000000D03*
X-0006496Y0014980D03*
X-0005551Y0012776D03*
X-0004291Y0013720D03*
X-0003976Y0014035D03*
X-0002402Y0013091D03*
X-0003661Y0014350D03*
X-0001772Y0013406D03*
X-0002087D03*
X-0003346Y0014980D03*
Y0014665D03*
X-0002717Y0012776D03*
X0015079Y0022303D03*
X0012874Y0023248D03*
X0019173Y-0017480D03*
X0019921D03*
X-0003346Y-0007224D03*
Y-0007539D03*
X-0003661Y-0007854D03*
X-0005551Y-0009429D03*
X-0006181Y-0007854D03*
X-0006496Y-0007224D03*
Y-0007539D03*
X0020157Y-0016555D03*
X-0018858Y0007421D03*
Y0007736D03*
X-0018543Y0008051D03*
X0002087Y0003878D03*
X0001772D03*
Y0003563D03*
X0002087D03*
X0002402Y0003248D03*
X0002717Y0002933D03*
X0004606Y0003878D03*
Y0003563D03*
X0003031Y0002618D03*
X0020118Y-0008799D03*
X0018858Y-0007224D03*
Y-0007539D03*
X0018543Y-0007854D03*
X0018228Y-0008169D03*
X0017913Y-0008484D03*
X0016654Y-0009429D03*
X0016024Y-0007854D03*
X0015709Y-0007224D03*
Y-0007539D03*
X-0013189Y-0011949D03*
X-0018858Y-0014783D03*
Y-0014469D03*
X-0018543Y-0014154D03*
X-0016654Y-0012894D03*
X-0016024Y-0014154D03*
X0016654Y-0012894D03*
X0017283Y-0014154D03*
X-0012874Y-0008799D03*
X-0013189D03*
X-0013504Y-0009114D03*
X-0015709Y-0011004D03*
X-0015079D03*
X-0014134Y-0009744D03*
X-0013819Y-0009429D03*
X-0014764Y-0007854D03*
X-0015079Y-0008169D03*
X0018543Y-0012894D03*
X0014764Y-0014154D03*
X0014449Y-0014469D03*
Y-0014783D03*
X0008504Y-0018799D03*
X0009272Y-0018228D03*
X0018858Y-0013209D03*
X0017598Y-0014783D03*
Y-0014469D03*
X0010039Y-0017480D03*
X0012736Y-0017913D03*
X0012362Y-0016457D03*
X0014488Y-0017539D03*
X0012736Y-0020669D03*
X0014705Y-0022598D03*
X0015079Y-0021240D03*
X0018248Y-0019862D03*
X0020315Y-0020059D03*
X0013150Y-0016220D03*
X0016437Y-0020079D03*
Y-0018701D03*
X-0014764Y-0012894D03*
X-0005551D03*
X-0006811Y-0013524D03*
X-0015394Y-0008484D03*
X-0016654Y-0009429D03*
X-0017598Y-0007224D03*
Y-0007539D03*
X-0017283Y-0007854D03*
X-0018543Y-0009114D03*
X-0018858Y-0008799D03*
X0021043Y0002697D03*
X0020433Y0002303D03*
X0020118D03*
X0019803Y0001988D03*
X-0013819Y-0013839D03*
X0003346Y0018524D03*
Y0018839D03*
X0003661Y0019154D03*
X0005551Y0020413D03*
X0006496Y0018524D03*
Y0018839D03*
X0002087Y0020098D03*
X0002402Y0020413D03*
X0003976Y0022303D03*
X0001772Y0023248D03*
X0003031Y0024823D03*
X0002087Y0023248D03*
X0002402Y0022933D03*
X0011102Y0024902D03*
X0003661Y0024193D03*
X0003346Y0024508D03*
X0018858Y-0002106D03*
X0017598Y-0003681D03*
Y-0003366D03*
X0017283Y-0003051D03*
X0014449Y-0003681D03*
Y-0003366D03*
X0014764Y-0003051D03*
X0016654Y-0001791D03*
X0013819Y-0001476D03*
X0014134Y-0001161D03*
X0015079Y-0002736D03*
X0015394Y-0002421D03*
X0003976Y-0013839D03*
X0003346Y-0014783D03*
Y-0014469D03*
X0003661Y-0014154D03*
X-0013504D03*
X0009331Y-0008799D03*
X0009016D03*
X0006496Y-0011004D03*
X0007126D03*
X0008071Y-0009744D03*
X0008386Y-0009429D03*
X0008701Y-0009114D03*
X0007756Y-0007224D03*
Y-0007539D03*
X0007441Y-0007854D03*
X0007126Y-0008169D03*
X0006811Y-0008484D03*
X0005551Y-0009429D03*
X0004921Y-0007854D03*
X0004606Y-0007224D03*
Y-0007539D03*
Y0026083D03*
X-0007126Y-0013839D03*
X0007756Y0026083D03*
Y0025768D03*
X0007441Y0025453D03*
X0002717Y-0008169D03*
X0002402Y-0007854D03*
X0002087Y-0007224D03*
Y-0007539D03*
X0001772D03*
Y-0007224D03*
X0003031Y-0008484D03*
X0003346Y-0008799D03*
X0003661Y-0009114D03*
X0001772Y-0010059D03*
X0002087Y-0013209D03*
X0002717Y-0012579D03*
X0002402Y-0012894D03*
X0002087Y-0010059D03*
X0002402Y-0010374D03*
X0003031Y-0012264D03*
X0003976Y-0011004D03*
X0013819Y0014035D03*
X0013504Y0014350D03*
X0012874Y0014980D03*
X0013189D03*
Y0014665D03*
X0012874D03*
X0015709D03*
X0016024Y0014350D03*
X0014134Y0013720D03*
X0015079Y0011201D03*
X0013504Y0011831D03*
X-0015709Y-0014783D03*
Y-0014469D03*
X-0014134Y-0013524D03*
X-0014449Y-0013209D03*
X-0018228Y-0013839D03*
X-0017913Y-0013524D03*
X-0013819Y0001673D03*
X-0014134Y0001358D03*
X-0015079Y0002933D03*
X-0015394Y0002618D03*
X-0019173D03*
X-0018858Y0002303D03*
X-0017598Y0003878D03*
Y0003563D03*
X-0013189Y0002303D03*
X-0012874D03*
X-0011102Y0002697D03*
X-0007441Y-0014154D03*
X0019173Y-0013524D03*
X0019488Y-0013839D03*
X0020433Y-0014783D03*
X0017224Y0029902D03*
Y0030925D03*
X0014865Y0030912D03*
X0013504Y0031220D03*
X0012589Y0030079D03*
X-0007126Y0000098D03*
X-0009331Y0001043D03*
X-0007441Y0019154D03*
X-0009016Y0020098D03*
X-0004606Y-0014783D03*
Y-0014469D03*
X-0008071Y0021043D03*
X-0007126Y0022303D03*
X-0006811Y0019783D03*
X-0007126Y0019469D03*
X-0008701Y0020413D03*
X-0008386Y0020728D03*
X-0008701Y0022933D03*
X-0009016Y0026083D03*
X-0008386Y0025138D03*
X-0009016Y0025768D03*
X-0008701Y0025453D03*
X-0008071Y0024823D03*
X-0013189Y-0014783D03*
X0013819Y0009626D03*
X0013189Y0008996D03*
X0013504Y0009311D03*
X0014134Y0009941D03*
X0014449Y0007421D03*
Y0007736D03*
X0014764Y0008051D03*
X-0021594Y-0016122D03*
X-0021417Y-0013229D03*
X-0020433Y-0013209D03*
X-0020118D03*
X-0019803Y-0012894D03*
X-0019488Y-0012579D03*
X-0019173Y-0008484D03*
X-0019488Y-0008169D03*
X-0019803Y-0007854D03*
X-0020118Y-0007539D03*
Y-0007224D03*
X-0020433D03*
Y-0007539D03*
X-0021043Y-0008405D03*
X-0019803Y-0010374D03*
X-0019173Y-0012264D03*
X-0018228Y-0011004D03*
X-0004921Y-0014154D03*
X-0020118Y-0010059D03*
X-0020433D03*
X-0022067D03*
X-0008701Y-0012894D03*
X-0008386Y-0012579D03*
X-0008071Y-0012264D03*
X-0007126Y-0011004D03*
X-0009331Y-0010059D03*
X-0009016Y-0007224D03*
X-0009331D03*
Y-0007539D03*
X-0009016D03*
X-0008701Y-0007854D03*
X-0008386Y-0008169D03*
X-0008071Y-0008484D03*
X-0009016Y-0010059D03*
X-0008701Y-0010374D03*
X-0007756Y-0008799D03*
X-0007441Y-0009114D03*
X-0007756Y-0014783D03*
Y-0014469D03*
X-0009016Y-0013209D03*
X-0003661Y-0012894D03*
X-0002717Y-0013839D03*
X-0002087Y-0014783D03*
X-0002402Y-0014154D03*
X-0001772Y-0014783D03*
X0019803Y-0014154D03*
X0020118Y-0014783D03*
Y-0014469D03*
X0020433D03*
X0021043Y-0013603D03*
X0020118Y-0011949D03*
X0020433D03*
X-0006181Y0025453D03*
X-0006496Y0026083D03*
Y0025768D03*
X-0009331Y0023248D03*
X-0009016D03*
X-0007441Y0024193D03*
X-0007756Y0024508D03*
X-0008071Y0009941D03*
X-0007126Y0011201D03*
X-0009331Y0012146D03*
X-0006811Y0008681D03*
X-0007126Y0008366D03*
X-0008701Y0009311D03*
X-0008386Y0009626D03*
X-0008071Y0013720D03*
X-0008386Y0014035D03*
X-0008701Y0014350D03*
X-0009016Y0014980D03*
Y0014665D03*
X-0009331D03*
Y0014980D03*
X-0009016Y0012146D03*
X-0008701Y0011831D03*
X-0003031Y-0013524D03*
X-0003346Y-0013209D03*
X-0001772Y-0011949D03*
X-0002087D03*
X-0003976Y-0011004D03*
X-0002402Y-0009114D03*
X-0003976Y-0008169D03*
X-0004291Y-0008484D03*
X-0002717Y-0009429D03*
X-0003031Y-0009744D03*
X-0002087Y-0008799D03*
X-0001772D03*
X0000000Y-0008405D03*
X-0011102Y0024902D03*
X-0013189Y-0014469D03*
X-0013504Y0024193D03*
X-0013819Y0023878D03*
X-0017283Y0025453D03*
X-0016654Y0023878D03*
X-0015394Y0024823D03*
X-0015079Y0025138D03*
X-0014764Y0025453D03*
X-0012874Y0024508D03*
X-0013189D03*
X-0014449Y0026083D03*
Y0025768D03*
X-0018858Y0018524D03*
Y0018839D03*
X-0018543Y0019154D03*
X-0016654Y0020413D03*
X-0018543Y0024193D03*
X-0019488Y0025138D03*
X-0020118Y0026083D03*
X-0019803Y0025453D03*
X-0020433Y0026083D03*
X-0020118Y0025768D03*
X-0014134Y0023563D03*
X-0015709Y0022303D03*
X-0015079D03*
X-0019173Y0024823D03*
X-0018858Y0024508D03*
X-0017598Y0026083D03*
Y0025768D03*
X-0009016Y0003878D03*
X-0009331D03*
Y0003563D03*
X-0009016D03*
X-0008701Y0003248D03*
X-0008386Y0002933D03*
X-0008071Y0002618D03*
X-0009016Y0001043D03*
X-0008701Y0000728D03*
X-0003031Y0008681D03*
X-0001772Y0010256D03*
X-0002087D03*
X-0003346Y0008996D03*
X-0003661Y0009311D03*
X-0004606Y0007736D03*
X-0004921Y0008051D03*
X-0006496Y0014665D03*
X-0006181Y0014350D03*
X-0007756Y0013406D03*
X-0007441Y0013091D03*
X0014764Y-0009114D03*
X0013819Y-0008169D03*
X0013504Y-0007854D03*
X0013189Y-0007539D03*
Y-0007224D03*
X0012874Y-0007539D03*
Y-0007224D03*
Y-0010059D03*
X0014134Y-0008484D03*
X0014449Y-0008799D03*
X0014134Y-0012264D03*
X0015079Y-0011004D03*
X0013189Y-0010059D03*
X0013504Y-0010374D03*
X-0006496Y0003878D03*
X-0003661Y0003248D03*
X-0004291Y0002618D03*
X-0005551Y0001673D03*
X-0003976Y0002933D03*
X-0003031Y0001358D03*
X-0004606Y0000098D03*
X-0003976D03*
X0006181Y0019154D03*
X0008386Y0019469D03*
X0009331Y0021358D03*
X0009016D03*
X0008701Y0019154D03*
X0009016Y0018839D03*
X0007441Y0020413D03*
X0008071Y0019783D03*
X0007756Y0020098D03*
X0009674Y0017165D03*
X0009016Y0018524D03*
X-0001772Y-0000846D03*
X-0002087D03*
X0021043Y0019704D03*
X0018543Y0020413D03*
X0019488Y0019469D03*
X0019803Y0019154D03*
X0020433Y0018839D03*
X0015709Y0026083D03*
X0016654Y0023878D03*
X0018543Y0025453D03*
X0018858Y0026083D03*
X0015709Y0025768D03*
X0016024Y0025453D03*
X0020118Y0018839D03*
X0018858Y0025768D03*
X0020118Y0024508D03*
X0020433D03*
X0021043Y0024902D03*
X0019803Y0024193D03*
X0017598Y0022303D03*
X0018228D03*
Y0025138D03*
X0017913Y0024823D03*
X0019488Y0023878D03*
X0019173Y0023563D03*
X0017598Y0018524D03*
Y0018839D03*
X0019173Y0019783D03*
X0018858Y0020098D03*
X0020118Y0018524D03*
X0020433D03*
X0009331Y-0000846D03*
X0009016D03*
X-0004931Y-0020226D03*
X-0007746D03*
X0003346Y-0003681D03*
Y-0003366D03*
X0003661Y-0003051D03*
X0013189Y0025768D03*
Y0026083D03*
X0012874Y0025768D03*
Y0026083D03*
X0014134Y0024823D03*
X0013819Y0025138D03*
X0013504Y0025453D03*
X0013189Y0023248D03*
X0013504Y0022933D03*
X0014449Y0024508D03*
X0014764Y0024193D03*
X0018543Y0009311D03*
X0021043Y0008602D03*
X0020118Y0010256D03*
X0020433D03*
Y0007736D03*
Y0007421D03*
X0020118D03*
Y0007736D03*
X0019803Y0008051D03*
X0019488Y0008366D03*
X0019173Y0008681D03*
X0018858Y0008996D03*
X0015079Y0008366D03*
X0015394Y0008681D03*
X0016654Y0009311D03*
X0017283Y0008051D03*
X0017598Y0007421D03*
Y0007736D03*
X0014764Y0013091D03*
X0014449Y0013406D03*
X0012874Y0012146D03*
X0013189D03*
X0003661Y0013091D03*
X0002717Y0014035D03*
X0002402Y0014350D03*
X0001772Y0014980D03*
X0002087D03*
Y0014665D03*
X0001772D03*
X0003976Y0008366D03*
X0004291Y0008681D03*
X0002717Y0009626D03*
X0003031Y0009941D03*
X-0020433Y0025768D03*
X-0021043Y0024902D03*
X-0020433Y0023248D03*
X-0020118D03*
X-0019803Y0022933D03*
X-0018228Y0022303D03*
X-0019803Y0020413D03*
X-0012874Y0021358D03*
X-0013189D03*
X-0003031Y0012461D03*
X-0004606Y0011201D03*
X-0003976D03*
X-0009331Y0008996D03*
X-0011102Y0008602D03*
X-0017913Y-0002421D03*
X-0018858Y-0003681D03*
Y-0003366D03*
X-0016654Y-0001791D03*
X-0015709Y-0003681D03*
X-0019803Y-0001791D03*
X-0019488Y-0001476D03*
X-0018543Y-0003051D03*
X-0018228Y-0002736D03*
X0006496Y-0003681D03*
X0005551Y-0001791D03*
X0003976Y-0002736D03*
X0004291Y-0002421D03*
X-0013189Y-0003681D03*
X-0013504Y-0003051D03*
X-0013819Y-0002736D03*
X-0015709Y-0003366D03*
X-0016024Y-0003051D03*
X-0014134Y-0002421D03*
X-0014764Y-0001791D03*
X-0014449Y-0002106D03*
X-0012874Y-0000846D03*
X-0013189D03*
X-0016654Y0009311D03*
X-0015709Y0007421D03*
X-0018228Y0008366D03*
X-0017913Y0008681D03*
X-0018228Y0011201D03*
X-0019173Y0009941D03*
X-0019488Y0009626D03*
X-0019803Y0009311D03*
X-0020118Y0008996D03*
X-0012874Y0010256D03*
X-0013189D03*
X0009331Y0024508D03*
X0009016D03*
X0006496Y0022303D03*
X0007126D03*
X0008701Y0024193D03*
X0007126Y0025138D03*
X0008071Y0023563D03*
X0008386Y0023878D03*
X0004606Y0025768D03*
X0004921Y0025453D03*
X0006811Y0024823D03*
X0005551Y0023878D03*
X0017598Y0000098D03*
X0018228D03*
Y0002933D03*
X0017913Y0002618D03*
X0019488Y0001673D03*
X0019173Y0001358D03*
X0014449Y0002303D03*
X0014764Y0001988D03*
X0015709Y0003563D03*
X0016024Y0003248D03*
X0006811Y0013720D03*
X0005551Y0012776D03*
X0004921Y0014350D03*
X0007756Y0014980D03*
Y0014665D03*
X0008701Y0013091D03*
X0009016Y0013406D03*
X0009331D03*
X0011102Y0013799D03*
X-0009183Y-0020226D03*
X-0011998D03*
X-0001772Y-0003681D03*
X-0002087D03*
X-0002402Y-0003051D03*
X-0002717Y-0002736D03*
X-0003031Y-0002421D03*
X-0013819Y0008366D03*
X-0013504Y0008051D03*
X-0012874Y0007736D03*
X-0013189D03*
Y0007421D03*
X-0012874D03*
X-0014134Y0008681D03*
X-0015709Y0007736D03*
X-0016024Y0008051D03*
X-0014449Y0008996D03*
X-0014764Y0009311D03*
X-0016024Y0019154D03*
X-0014764Y0020413D03*
X-0013819Y0019469D03*
X-0013504Y0019154D03*
X-0013189Y0018524D03*
X-0015709D03*
Y0018839D03*
X-0014134Y0019783D03*
X-0014449Y0020098D03*
X-0007441Y-0003051D03*
X-0007756Y-0003681D03*
Y-0003366D03*
X-0005551Y-0001791D03*
X-0004921Y-0003051D03*
X-0008386Y-0001476D03*
X-0008071Y-0001161D03*
X-0007126Y-0002736D03*
X-0006811Y-0002421D03*
X-0006496Y0003563D03*
X-0006181Y0003248D03*
X-0007756Y0002303D03*
X-0007441Y0001988D03*
X-0013435Y-0020226D03*
X-0003494D03*
X-0000679D03*
X0008386Y-0002736D03*
X0008701Y-0003051D03*
X0009016Y-0003366D03*
Y-0003681D03*
X0008071Y-0002421D03*
X0006496Y-0003366D03*
X0006181Y-0003051D03*
X0007756Y-0002106D03*
X0007441Y-0001791D03*
X0002717Y-0001476D03*
X0002402Y-0001791D03*
X0002087Y-0002106D03*
X0001772Y0001043D03*
X-0019488Y0020728D03*
X-0019173Y0021043D03*
X-0018228Y0019469D03*
X-0017913Y0019783D03*
X-0020118Y0020098D03*
X-0009331D03*
X-0011102Y0019704D03*
X-0013189Y0018839D03*
X-0012874D03*
X-0020433Y0020098D03*
X-0021043Y0019704D03*
X0013642Y-0022598D03*
X0013504Y-0012894D03*
X0013819Y-0012579D03*
X0015394Y-0013524D03*
X0015079Y-0013839D03*
X-0010974Y0028484D03*
X-0016250Y-0020226D03*
X-0010295Y0030079D03*
X-0009094Y0029587D03*
X-0009331Y0025768D03*
Y0026083D03*
X-0009803Y0029134D03*
X-0002717Y0001673D03*
X-0004606Y-0003681D03*
Y-0003366D03*
X-0003661Y-0001791D03*
X-0003346Y-0002106D03*
X0003031Y-0001161D03*
X0003976Y0000098D03*
X0008701Y0001988D03*
X0008386Y0001673D03*
X0007441Y0003248D03*
X0007126Y0002933D03*
X0003346Y0002303D03*
X0003661Y0001988D03*
X0002087Y0001043D03*
X0002402Y0000728D03*
X0011102Y0002697D03*
X0009016Y0002303D03*
X0009331D03*
X0012874Y-0002106D03*
X0011102Y-0002500D03*
X0009331Y-0003681D03*
Y-0003366D03*
X-0002402Y0001988D03*
X-0003346Y0003878D03*
Y0003563D03*
X0000000Y0002697D03*
X-0002087Y0002303D03*
X-0001772D03*
X-0012874Y-0014783D03*
Y-0014469D03*
X-0009331Y-0013209D03*
X-0011102Y-0013603D03*
X0013189Y-0013209D03*
X0003031Y0013720D03*
X0003346Y0013406D03*
X0004606Y0014980D03*
Y0014665D03*
X0002717Y0020728D03*
X0003031Y0021043D03*
X0003976Y0019469D03*
X0004291Y0019783D03*
X0001772Y-0002106D03*
X0000000Y-0002500D03*
X-0002087Y-0003366D03*
X-0001772D03*
X0001772Y0020098D03*
X0000000Y0019704D03*
X-0002087Y0018839D03*
X-0001772D03*
X0001772Y-0013209D03*
X0000000Y-0013603D03*
X-0002087Y-0014469D03*
X-0001772D03*
X0012874Y0020098D03*
X0011102Y0019704D03*
X0009331Y0018524D03*
Y0018839D03*
X-0016890Y-0020945D03*
X-0021870Y-0022283D03*
X0012874Y-0013209D03*
X0011102Y-0013603D03*
X0009016Y-0014469D03*
X0009331D03*
X-0014449Y0014665D03*
Y0014980D03*
X-0012874Y0018524D03*
X-0012531Y0017165D03*
X-0012874Y-0003681D03*
X-0012531Y-0005866D03*
X-0014449Y-0007539D03*
Y-0007224D03*
X-0009331Y-0002106D03*
X-0011102Y-0002500D03*
X-0013189Y-0003366D03*
X-0012874D03*
X0001772Y0008996D03*
X0000000Y0008602D03*
X-0002087Y0007736D03*
X-0001772D03*
X0012874Y0008996D03*
X0011102Y0008602D03*
X0009016Y0007736D03*
X0009331D03*
X-0020433Y0003878D03*
Y0008996D03*
X-0021043Y0008602D03*
X0012372Y0029311D03*
X0011644Y0028445D03*
X0020315Y-0020256D03*
X0020059Y-0021181D03*
X0004606Y-0012894D03*
X-0018858Y-0014154D03*
X0004921Y-0012894D03*
X0006181D03*
X-0022205Y-0006722D03*
X-0019803Y-0013524D03*
X-0019488Y-0012894D03*
X-0021634Y-0006732D03*
X0007441Y-0011634D03*
X0003661D03*
X-0007441Y-0010374D03*
X0003661D03*
X0007441D03*
X0004921Y-0009114D03*
X0006181D03*
X0014764Y0000728D03*
X-0017598Y0009311D03*
X0015709D03*
X-0017283D03*
X0006181D03*
X0016024D03*
X-0014764Y0010571D03*
X0007441D03*
X0018543D03*
X-0018543D03*
X0003661D03*
X0014764D03*
X-0018543Y0011831D03*
X0003661D03*
X0014764D03*
X0018543D03*
X-0006181Y0013091D03*
X0016024D03*
X0017283D03*
X0015709Y0020413D03*
X0016024D03*
X0018543Y0022933D03*
X0016024Y0024193D03*
X0017283D03*
X0012500Y-0005866D03*
X0006811Y-0009114D03*
X0008150Y-0005453D03*
X0012500Y0017165D03*
X0015709Y0013091D03*
X0014055Y0016752D03*
X0017283Y0020413D03*
X0017598D03*
X0018543Y0021673D03*
Y0021358D03*
X0014764D03*
Y0021673D03*
Y0023248D03*
Y0022933D03*
X0017913Y0013091D03*
X0019252Y0016752D03*
Y0005610D03*
X0017283Y0009311D03*
X0017598D03*
X0016024Y-0009114D03*
X0015709D03*
X0014055Y-0005453D03*
X0016024Y0001988D03*
X0015709D03*
X0014055Y0005610D03*
X0017283Y0001988D03*
X0017598D03*
X0017913D03*
X0018543Y0001043D03*
Y-0000846D03*
Y-0000531D03*
Y0000728D03*
X0017598Y-0001791D03*
X0016024D03*
X0015709D03*
X0014764Y-0000531D03*
X0017283Y-0001791D03*
X0014764Y-0000846D03*
X0019252Y-0005453D03*
X0017283Y-0009114D03*
X0017598D03*
X0017913D03*
X0018543Y-0010059D03*
Y-0010374D03*
X-0019803Y-0013839D03*
X0018543Y-0011949D03*
Y-0011634D03*
X0017283Y-0012894D03*
X0017598D03*
X0014764Y-0010059D03*
Y-0010374D03*
Y-0011634D03*
X0016024Y-0012894D03*
X0015709D03*
X0014764Y-0011949D03*
X-0009705Y-0005866D03*
X-0006181Y-0009114D03*
X-0006496D03*
X-0008150Y-0005453D03*
Y0005610D03*
X-0006181Y0001988D03*
X-0006496D03*
X-0006181Y0009311D03*
X-0006496D03*
X-0007441Y0012146D03*
Y0011831D03*
Y0010571D03*
X-0022057Y-0006929D03*
X-0019488Y-0013524D03*
X-0007441Y0010256D03*
X-0004921Y0009311D03*
X-0004606D03*
X-0003661Y0010571D03*
Y0010256D03*
Y0011831D03*
Y0012146D03*
X-0004921Y0013091D03*
X-0004606D03*
X-0004291D03*
X-0003661Y0021358D03*
Y0021673D03*
Y0022933D03*
Y0023248D03*
X-0004921Y0024193D03*
X-0004606D03*
X-0006181D03*
X-0007441Y0023248D03*
Y0022933D03*
Y0021673D03*
Y0021358D03*
X-0006181Y0020413D03*
X-0006496D03*
X-0004921D03*
X-0014055Y-0015394D03*
X-0015965Y-0015531D03*
X-0002953Y0026693D03*
X-0004291Y0024193D03*
X-0002952Y0005610D03*
X-0008150Y0026693D03*
X-0006496Y0024193D03*
X-0002953Y0016752D03*
X-0004606Y0020413D03*
X-0004921Y0001988D03*
X-0004606D03*
X-0018543Y-0010059D03*
X-0017283Y-0009114D03*
X-0018543Y-0010374D03*
Y-0011634D03*
X-0017283Y-0012894D03*
X-0017598D03*
X-0018543Y-0011949D03*
X-0016024Y-0012894D03*
X-0015709D03*
X-0014764Y-0011634D03*
Y-0011949D03*
Y-0010374D03*
Y-0010059D03*
X-0015394Y-0009114D03*
X-0016024D03*
X-0015709D03*
X-0014055Y-0005453D03*
X-0015709Y-0001791D03*
X-0016024D03*
X-0004291Y0001988D03*
X-0017598Y-0001791D03*
X-0017283D03*
X-0003661Y0001043D03*
Y-0000531D03*
Y0000728D03*
X-0018543D03*
Y-0000531D03*
Y-0000846D03*
X-0003661D03*
X-0004606Y-0001791D03*
X-0018543Y0001043D03*
X-0004921Y-0001791D03*
X-0017283Y0001988D03*
X-0014764Y-0000531D03*
Y-0000846D03*
Y0000728D03*
Y0001043D03*
X-0016024Y0001988D03*
X-0015709D03*
X-0017598Y-0009114D03*
X-0019252Y-0005453D03*
X-0006496Y-0001791D03*
X-0006181D03*
X-0007441Y-0000846D03*
Y-0000531D03*
X0004921Y0001988D03*
X-0007441Y0000728D03*
Y0001043D03*
X0002952Y0005610D03*
X-0015394Y0001988D03*
X-0017598D03*
X-0019252Y0005610D03*
X0006181Y0001988D03*
X0006496D03*
X0006811D03*
X0007441Y0001043D03*
Y-0000846D03*
Y-0000531D03*
Y0000728D03*
X0006496Y-0001791D03*
X0003661Y-0000531D03*
Y0000728D03*
Y-0000846D03*
X0004921Y-0001791D03*
X0004606D03*
X0006181D03*
X0004606Y0001988D03*
X0003661Y0001043D03*
X-0016024Y0009311D03*
X-0015709D03*
X-0014055Y0005610D03*
X0004921Y0009311D03*
X0004606D03*
X0004921Y0020413D03*
X0004606D03*
X0002952Y0016752D03*
X0004921Y0024193D03*
X0004606D03*
X0002952Y0026693D03*
X0008150D03*
X0007441Y0021673D03*
X0006811Y0024193D03*
X0007441Y0023248D03*
Y0022933D03*
X0006181Y0024193D03*
X0006496D03*
X0007441Y0021358D03*
X0006181Y0020413D03*
X0003661Y0023248D03*
Y0022933D03*
Y0021358D03*
Y0021673D03*
X0006496Y0020413D03*
X0008150Y0016752D03*
X0006181Y0013091D03*
X0006496D03*
X0004606D03*
X0004921D03*
X0006811D03*
X0007441Y0011831D03*
Y0012146D03*
X-0018543Y0021673D03*
Y0022933D03*
X-0014764Y0021673D03*
Y0021358D03*
X-0016024Y0024193D03*
X-0017283D03*
X-0015709D03*
X-0014764Y0022933D03*
Y0023248D03*
X-0018543D03*
Y0021358D03*
X-0015394Y0024193D03*
X-0014055Y0026693D03*
X-0017598Y0024193D03*
X-0019252Y0026693D03*
X-0017283Y0020413D03*
X-0017598D03*
X-0016024D03*
X-0019252Y0016752D03*
X-0017283Y0013091D03*
X-0017598D03*
X-0015709Y0020413D03*
X-0014055Y0016752D03*
X-0002952Y-0005453D03*
X-0004606Y-0009114D03*
X-0004921D03*
X-0004291D03*
X-0003661Y-0010059D03*
Y-0010374D03*
Y-0011634D03*
Y-0011949D03*
X-0016024Y0013091D03*
X-0015709D03*
X-0015394D03*
X-0004606Y-0012894D03*
X-0002952Y-0015394D03*
X-0004921Y-0012894D03*
X-0006181D03*
X-0006496D03*
X-0008150Y-0015394D03*
X-0007441Y-0011634D03*
Y-0011949D03*
X0004606Y-0009114D03*
X0002952Y-0005453D03*
X-0014764Y0011831D03*
Y0012146D03*
X0001772Y0023563D03*
X0020433D03*
X0006890Y-0006260D03*
X0017992D03*
Y0015945D03*
X-0004213Y0027047D03*
X0006890D03*
X-0005866Y0000728D03*
Y0000413D03*
X-0005236Y0000728D03*
X-0004921Y0000413D03*
X-0005236D03*
X-0008071Y0000098D03*
X-0009331Y-0000846D03*
X-0009016D03*
X-0008701Y-0000531D03*
X-0009331Y0002303D03*
X-0009016D03*
X-0007441Y-0000217D03*
Y0000413D03*
X-0008701Y0001988D03*
X-0008386Y0001673D03*
X-0008071Y0001358D03*
X-0005866Y0001043D03*
X-0005236Y-0000217D03*
X-0004921D03*
X-0004606D03*
X0001772Y0002303D03*
X0002087D03*
X0002402Y0001988D03*
X0002717Y0001673D03*
X-0020433Y-0014783D03*
X0013189Y0018839D03*
X0013504Y0019154D03*
X0013819Y0019469D03*
X0014134Y0019783D03*
X0012874Y0024508D03*
X0013189D03*
X0013504Y0024193D03*
X0013819Y0023878D03*
X0014134Y0023563D03*
X-0008386Y0012776D03*
X-0008701Y0013091D03*
X-0009331Y0013406D03*
X-0009016D03*
X-0008071Y0012461D03*
X-0003031Y0011201D03*
X-0002087Y0011516D03*
Y0011831D03*
X-0001772Y0012146D03*
X-0002087D03*
X-0003346Y0013406D03*
X-0003661Y0013091D03*
X0019173Y0022303D03*
X0019488Y0020728D03*
X0019173Y0021043D03*
X-0003031Y0013720D03*
X-0002717Y0014035D03*
X-0002402Y0014350D03*
X0020118Y0022618D03*
X-0002087Y0014665D03*
X-0003346Y0007421D03*
Y0007736D03*
X-0005551Y0008366D03*
X-0006496Y0007421D03*
Y0007736D03*
X-0006181Y0008051D03*
X-0009016Y0007736D03*
X-0003661Y0008051D03*
X-0003976Y0008366D03*
X-0004291Y0008681D03*
X-0001772Y0014665D03*
X-0001575Y0016752D03*
X-0009331Y0007736D03*
X-0011102Y0007224D03*
X-0019803Y-0014154D03*
X0018543Y0021043D03*
X-0019488Y-0013839D03*
X0012874Y0021358D03*
X-0019173Y-0013524D03*
X-0003031Y0022303D03*
X-0002087Y0022618D03*
X-0001772Y0023248D03*
X-0002087Y0022933D03*
Y0023248D03*
X-0020433Y0018839D03*
X-0019803Y0024193D03*
X-0007441Y0003248D03*
X-0004606Y0003563D03*
X-0004921Y0003248D03*
X-0005551Y0002618D03*
X-0002717Y0002933D03*
X-0002402Y0003248D03*
X-0002087Y0003563D03*
Y0003878D03*
X-0004606Y0000413D03*
X-0003031Y0002618D03*
X-0003346Y0002303D03*
X-0003661Y0001988D03*
X-0006496Y0018524D03*
Y0018839D03*
X-0006181Y0019154D03*
X0018543Y0024193D03*
X0018858Y0024508D03*
X-0016024Y-0010689D03*
X0003031Y0001358D03*
X0004606Y0001043D03*
X0006181Y-0000217D03*
X0005866D03*
X0005236Y0000728D03*
X0003661Y0000413D03*
Y-0000217D03*
X0003031Y0000098D03*
X0002402Y-0000531D03*
X0001772Y-0000846D03*
X0002087D03*
X0006496Y-0000217D03*
X0008701Y-0001791D03*
X0009331Y-0002106D03*
X0009016D03*
X0005236Y-0000217D03*
X0003031Y-0002421D03*
X0002717Y-0002736D03*
X0002402Y-0003051D03*
X0002087Y-0003366D03*
X0001772D03*
X0019173Y0024823D03*
X0019488Y0025138D03*
X0019803Y0025453D03*
X0004606Y-0003681D03*
Y-0003366D03*
X0020118Y0026083D03*
X0009527Y0005610D03*
X0020118Y0025768D03*
X-0005551Y0024823D03*
X-0001772Y0020098D03*
X-0019488Y-0009429D03*
X-0019173Y-0009744D03*
X-0019803Y-0009114D03*
X-0020118Y-0008799D03*
X-0020433D03*
X-0020670Y-0007363D03*
X0020433Y0025768D03*
Y0026083D03*
X0020630Y0026693D03*
X0021043Y0026279D03*
X0015593Y0029407D03*
X0013189Y0021358D03*
X0013504Y0021673D03*
X0014134Y0022303D03*
X0014764Y0022618D03*
X0001772Y0021358D03*
X0002087D03*
X0002402Y0021673D03*
X0003031Y0022303D03*
X-0016024Y-0011319D03*
X0005236Y0022618D03*
Y0022933D03*
X0005866Y0021988D03*
X0006181D03*
X0005866Y0022618D03*
Y0022933D03*
X0006181Y0022618D03*
X0003661Y0021988D03*
X0006496D03*
X0008701Y0020413D03*
X0009331Y0020098D03*
X0009016D03*
X0005236Y0023248D03*
X0003661Y0022618D03*
X0003031Y0023563D03*
X0002717Y0023878D03*
X0002402Y0024193D03*
X0001772Y0024508D03*
X0002087D03*
X0005236Y0021988D03*
X-0002087Y0020098D03*
X-0002402Y0020413D03*
X-0002717Y0020728D03*
X-0007441Y0025453D03*
X0009016Y0026083D03*
X-0005236Y0022933D03*
X-0004921Y0022618D03*
X-0005236D03*
X-0005866Y0022933D03*
X0016969Y-0000217D03*
X0017598Y-0000846D03*
X0014134Y0000098D03*
X0013504Y-0000531D03*
X0012874Y-0000846D03*
X0013189D03*
X0016339Y-0000217D03*
X-0005866Y0022618D03*
Y0023248D03*
X0013189Y-0003366D03*
X0013504Y-0003051D03*
X0013819Y-0002736D03*
X0014134Y-0002421D03*
X0019803Y-0001791D03*
X0009331Y0025768D03*
X0009016D03*
X0008701Y0025453D03*
X0008386Y0025138D03*
X0005866Y0023248D03*
X0008071Y0024823D03*
X0007756Y0024508D03*
X0007441Y0024193D03*
X0003031Y0019783D03*
X0002087Y0018839D03*
X0002402Y0019154D03*
X0002717Y0019469D03*
X0020118Y0022933D03*
Y0023248D03*
X0020433D03*
X0002087Y0018524D03*
X0000000Y0018327D03*
X-0004921Y0021988D03*
X-0005236D03*
X-0004606D03*
X0015079Y0024193D03*
X-0016024Y-0011634D03*
X-0016339Y-0011319D03*
X-0016969D03*
X0015394Y0024193D03*
X0015709Y-0014783D03*
X-0011102Y0015177D03*
X0015709Y-0014469D03*
X0016969Y-0011319D03*
X0016339Y-0010689D03*
X0014764Y-0011319D03*
Y-0010689D03*
X0014134Y-0011004D03*
X0013504Y-0011634D03*
X0012874Y-0011949D03*
X0013189D03*
X0016024Y-0010374D03*
X0017283Y-0011319D03*
X0017598D03*
X0016339D03*
X0014764Y0025453D03*
X0013189Y0018524D03*
X0014134Y-0013524D03*
X0013819Y-0013839D03*
X0013504Y-0014154D03*
X0013189Y-0014469D03*
X0012874D03*
X0014134Y-0009744D03*
X0013819Y-0009429D03*
X0013504Y-0009114D03*
X0012874Y-0008799D03*
X0013189D03*
X0016024Y-0014154D03*
X0018543Y-0012264D03*
X0016654Y-0013839D03*
X0017913Y-0013524D03*
X0018228Y-0013839D03*
X0018543Y-0014154D03*
X0018858Y-0014783D03*
Y-0014469D03*
X0019803Y-0012894D03*
X0017756Y-0020177D03*
X0015079Y0025138D03*
X0017894Y-0019370D03*
X-0008701Y-0014154D03*
X-0008386Y-0013839D03*
X-0008071Y-0013524D03*
X-0002087Y-0007539D03*
X-0002402Y-0007854D03*
X-0002717Y-0008169D03*
X-0012874Y0014665D03*
Y0014980D03*
X-0013189D03*
X-0020433Y0010256D03*
X-0013504Y0009311D03*
X-0012874Y0008996D03*
X-0013189D03*
X-0017992Y0015945D03*
X-0012678Y0016752D03*
X-0003031Y-0008484D03*
X-0003346Y-0008799D03*
X-0003661Y-0009114D03*
X-0002087Y-0007224D03*
X0000000Y-0007028D03*
X-0019803Y0001988D03*
X0015394Y0024823D03*
X0016654D03*
X-0014449Y0018524D03*
Y0018839D03*
X-0016654Y0019469D03*
X-0017283Y0019154D03*
X-0017598Y0018524D03*
Y0018839D03*
X-0014764Y0019154D03*
X-0019488Y0001673D03*
X-0019173Y0001358D03*
X-0020433Y0018524D03*
X-0021043Y0018327D03*
X0001772Y0010256D03*
X-0020433Y-0003366D03*
Y-0003681D03*
X-0020118D03*
X0000157Y0029606D03*
X-0000807Y0030089D03*
X0000394Y0032480D03*
X-0000335Y0032490D03*
X-0020118Y-0003366D03*
X-0019803Y-0003051D03*
X0001575Y0005610D03*
X-0020433Y-0011949D03*
X-0022067Y-0010551D03*
X0022480Y-0013386D03*
X0007441Y-0014154D03*
X0007579Y-0017480D03*
X0017283Y0025453D03*
X0009527Y-0005453D03*
X0011102Y-0003878D03*
X0013189Y-0003681D03*
X0019803Y0020413D03*
X-0009016Y0007421D03*
X0014764Y-0007854D03*
X0014449Y-0007539D03*
X-0019488Y-0002736D03*
X0017598Y0014665D03*
X-0004921Y0025453D03*
X-0004606Y0025768D03*
X0003661Y0025453D03*
X0017598Y0025768D03*
X0011102Y0007224D03*
X0012618Y0027677D03*
X0001575Y0026693D03*
X0000000Y0026280D03*
X-0018858Y-0013209D03*
X-0007756D03*
X0014449D03*
X-0005866Y-0000217D03*
X0003346Y-0002106D03*
X0003661Y-0001791D03*
X0014449Y-0002106D03*
X0014764Y-0001791D03*
X-0018858Y0008996D03*
X-0008701Y0008051D03*
X-0008386Y0008366D03*
X0002087Y0010256D03*
X-0019173Y-0002421D03*
X-0020118Y0018524D03*
X-0005866Y0021988D03*
X0003346Y0020098D03*
X0003661Y0020413D03*
X0014449Y0020098D03*
X0014764Y0020413D03*
Y0021988D03*
X0015709Y0023248D03*
X0006496D03*
X0004606D03*
X-0004606Y0022618D03*
X-0005236Y0023248D03*
X-0006496D03*
X0016339D03*
Y0022933D03*
X0006496Y0022618D03*
X0006181Y0022933D03*
X0004606D03*
X0004921Y0022618D03*
X-0004921Y0022933D03*
X-0006181Y0022618D03*
X-0006496Y0022933D03*
X-0012874Y0020098D03*
X-0013189D03*
X0016339Y0022618D03*
X0016024Y0022933D03*
X0004606Y0021673D03*
X0004921Y0021988D03*
X-0006181Y0021673D03*
X0015709Y0022933D03*
X0006181Y0021673D03*
X-0004921D03*
X-0004606Y0021358D03*
X0016024Y0022618D03*
X0005866Y0021673D03*
X0006181Y0021358D03*
X0005866D03*
X0004921Y0021673D03*
X0004606Y0021358D03*
X0005236Y0021673D03*
Y0021358D03*
X0004921D03*
X-0005236Y0021673D03*
X-0004921Y0021358D03*
X-0005236D03*
X-0005866Y0021673D03*
Y0021358D03*
X-0006181Y0021988D03*
X-0013504Y0020413D03*
X-0018858Y-0002106D03*
X-0008071Y0008681D03*
X-0020118Y0010256D03*
X0002402Y0010571D03*
X0003031Y0011201D03*
X-0007756Y0008996D03*
X-0007441Y0009311D03*
X-0019803Y0010571D03*
X-0019173Y0011201D03*
X-0015709Y0011516D03*
X0020433Y0008996D03*
X-0001772D03*
X-0002087D03*
X-0015709Y0011831D03*
X0016969Y0001043D03*
X0006181Y0000413D03*
Y0000728D03*
X0005236Y0001043D03*
X-0005236D03*
X-0004921D03*
X-0006496D03*
X0017283D03*
Y0000728D03*
X0005866Y0001043D03*
X0004606Y0000728D03*
Y0000413D03*
X-0004921Y0000728D03*
X-0004606Y0001043D03*
Y0000728D03*
X-0006496D03*
X-0006181Y0000413D03*
X-0006496D03*
X0004921Y-0000217D03*
X0004606Y-0000531D03*
Y-0000217D03*
X-0006181D03*
X-0006496D03*
X0017283D03*
X0006496Y-0000846D03*
X-0004606D03*
X0016969Y-0000531D03*
X0017283Y-0000846D03*
X0016969D03*
X0015709D03*
X0016339Y-0000531D03*
Y-0000846D03*
X0016024D03*
X0006181D03*
X0005866Y-0000531D03*
Y-0000846D03*
X0004921Y-0000531D03*
X0004606Y-0000846D03*
X0005236Y-0000531D03*
Y-0000846D03*
X0004921D03*
X-0004921D03*
X-0006496Y-0000531D03*
X-0006181D03*
X-0005866D03*
X0016969Y-0010374D03*
X0017283D03*
X0015709Y-0010059D03*
X-0001772Y-0013209D03*
X-0016339Y-0010689D03*
Y-0010374D03*
X0016969Y-0010689D03*
X0016024D03*
X0015709Y-0010374D03*
Y-0010689D03*
X-0002087Y-0013209D03*
X-0002402Y-0012894D03*
X-0015709Y-0010689D03*
X-0016024Y-0010374D03*
X0016024Y-0011319D03*
X0015709D03*
X0017283Y-0011634D03*
X0017598Y-0011949D03*
Y-0011634D03*
X-0015709Y-0011319D03*
X0016969Y-0011634D03*
X0017283Y-0011949D03*
X0016969D03*
X0016024Y-0011634D03*
X0016339D03*
Y-0011949D03*
X0015709Y-0011634D03*
X-0009331Y-0011949D03*
X-0016339Y-0011634D03*
X-0016024Y-0011949D03*
X-0016339D03*
X-0016969Y-0011634D03*
Y-0011949D03*
X-0017283Y-0011634D03*
X-0005236Y-0000531D03*
Y-0000846D03*
X-0005866D03*
X0016969Y0023248D03*
Y0022933D03*
X-0016024Y-0010059D03*
X-0016339D03*
X-0016969D03*
X0017598Y0023248D03*
X0017283Y0022933D03*
X0017598Y0022618D03*
X-0016969Y-0010374D03*
Y-0010689D03*
X-0017283D03*
X-0017598Y-0010059D03*
X0017283Y0022618D03*
X0016969D03*
X-0002402Y-0001791D03*
X-0001772Y-0002106D03*
X-0002087D03*
X-0017598Y-0010374D03*
Y-0010689D03*
Y-0011634D03*
X-0012874Y-0013209D03*
X-0013189D03*
X-0013504Y-0012894D03*
X0005866Y0000728D03*
Y0000413D03*
X0004921D03*
X0005236D03*
X0017598Y0021988D03*
X0016969D03*
X0006181Y0001043D03*
X0006496Y0000413D03*
X-0018543Y-0010689D03*
X-0017283Y-0011319D03*
X-0017598D03*
X0003346Y0003563D03*
X0003661Y0003248D03*
X0014449Y0014665D03*
X0014764Y0014350D03*
X0015079Y0014035D03*
X0015394Y0013720D03*
X-0018543Y-0007854D03*
X-0009331Y0021358D03*
X-0008071Y0022303D03*
X-0009016Y0021358D03*
X-0008701Y0021673D03*
X-0020118Y-0011949D03*
X-0019803Y-0011634D03*
X-0018543Y-0011319D03*
X-0019173Y-0011004D03*
X-0006496Y0021673D03*
X0017283Y0021988D03*
X-0006181Y0022933D03*
X-0015709Y-0011949D03*
Y-0011634D03*
X0016969Y0021673D03*
X-0008701Y0024193D03*
X-0009331Y0024508D03*
X-0009016D03*
X-0007441Y0021988D03*
Y0022618D03*
X-0008386Y0023878D03*
X-0008071Y0023563D03*
X-0007756Y0020098D03*
X-0008071Y0019783D03*
X-0008386Y0019469D03*
X-0008701Y0019154D03*
X-0009016Y0018839D03*
X-0009331D03*
X-0006181Y0021358D03*
X-0006496D03*
X-0007441Y0020413D03*
X-0007126Y0024193D03*
X-0006811D03*
X-0007126Y0025138D03*
X-0006811Y0024823D03*
X-0007756Y0025768D03*
Y0026083D03*
X-0006890Y0027047D03*
X-0015709Y-0007539D03*
X-0016024Y-0007854D03*
X-0016654Y-0008484D03*
X-0002402Y0009311D03*
X-0002717Y0009626D03*
X-0003031Y0009941D03*
X-0003661D03*
X-0009331Y0010256D03*
X-0009016D03*
X-0008701Y0010571D03*
X-0017283Y-0010374D03*
Y-0010059D03*
X-0013189Y-0010374D03*
X-0012874Y-0010059D03*
X-0013189D03*
X-0013819Y-0012579D03*
X-0013189Y-0010689D03*
X-0014134Y-0011004D03*
X-0018858Y0020098D03*
X-0019173Y0019783D03*
X-0020118Y0018839D03*
X-0019803Y0019154D03*
X-0019488Y0019469D03*
X-0018543Y0020413D03*
X0020118Y0008996D03*
X-0016339Y0001043D03*
X0013504Y0013091D03*
X0012874Y0013406D03*
X0013189D03*
X0013819Y0012776D03*
X0014134Y0012461D03*
X-0016024Y0001043D03*
X-0005551Y0019469D03*
X-0003661Y0019154D03*
X-0003346Y0018524D03*
Y0018839D03*
X-0003031Y0021043D03*
X-0003661D03*
X-0003976Y0019469D03*
X-0004291Y0019783D03*
X0017283Y0021673D03*
X0017598Y0021358D03*
X-0018228Y-0009114D03*
X-0017913D03*
X-0018228Y-0008169D03*
X-0017913Y-0008484D03*
X-0018858Y-0007539D03*
X-0004921Y-0000531D03*
X-0004606D03*
X-0007756Y-0002106D03*
X-0008071Y-0002421D03*
X-0008386Y-0002736D03*
X-0008701Y-0003051D03*
X-0009016Y-0003366D03*
X-0009331D03*
X-0007441Y-0001791D03*
X0017283Y0021358D03*
X-0002087Y0000728D03*
X-0001772Y0001043D03*
X-0002087D03*
X-0002717Y-0001476D03*
X-0002087Y0000413D03*
X-0003031Y0000098D03*
X-0007126Y0002933D03*
X-0006811Y0002618D03*
X-0006181Y0000728D03*
Y0001043D03*
X-0007126Y0001988D03*
X-0006811D03*
X-0007756Y0003563D03*
X0004921Y0000728D03*
Y0001043D03*
X0003976Y0001988D03*
X0004291D03*
X0006181Y-0000531D03*
X0006496D03*
X0009016Y0000728D03*
X0009331Y0001043D03*
X0009016D03*
X0008386Y-0001476D03*
X0009016Y0000413D03*
X0008071Y0000098D03*
X0006496Y0003563D03*
X0003976Y0002933D03*
X0004291Y0002618D03*
X0006181Y0003248D03*
X0005551Y0002618D03*
X0008071D03*
X0008386Y0002933D03*
X0008701Y0003248D03*
X0009331Y0003563D03*
X0009016D03*
Y0003878D03*
X0006496Y0000728D03*
Y0001043D03*
X0007756Y0002303D03*
X0007441Y0001988D03*
X0004921Y-0003051D03*
X0005551Y-0002736D03*
X0007441Y-0003051D03*
X0007756Y-0003681D03*
Y-0003366D03*
X0008071Y-0001161D03*
X0007441D03*
X0007126Y-0002736D03*
X0006811Y-0002421D03*
X0012874Y0010256D03*
X-0015709Y0000413D03*
X0013189Y0010256D03*
X0013504Y0010571D03*
X0014134Y0011201D03*
X0014764Y0011516D03*
Y0010886D03*
X0015709Y0012146D03*
X0016339Y0011516D03*
X0015709D03*
Y0011831D03*
X0016024Y0011516D03*
X0016339Y0011831D03*
X0016024D03*
X0016969Y0011516D03*
Y0011831D03*
Y0012146D03*
X0017598Y0010886D03*
X0015709Y0010571D03*
Y0010886D03*
X0016024D03*
Y0010571D03*
X0016339Y0010886D03*
Y0010571D03*
X0016969Y0010256D03*
X0016339D03*
X0017283D03*
X0017598D03*
X0016969Y0010571D03*
Y0010886D03*
X0017283D03*
Y0010571D03*
X0017598D03*
X0019803Y0009311D03*
X0015079Y0013091D03*
X0015394D03*
X0016339Y0012146D03*
X0016024D03*
Y0010256D03*
X0015709D03*
X0014764Y0009311D03*
X0014449Y0008996D03*
X-0018543Y-0012894D03*
X-0017283Y-0011949D03*
X-0017598D03*
X0014134Y0008681D03*
X0013819Y0008366D03*
X0016339Y0021673D03*
X0013504Y0008051D03*
X0012874Y0007736D03*
X0013189D03*
Y0007421D03*
X0019488Y0009626D03*
X0020118Y0011831D03*
X0020433Y0012146D03*
X0020118D03*
X0018543Y0013091D03*
X-0014134Y-0008484D03*
X0018858Y0013406D03*
X0015709Y0021673D03*
Y0021358D03*
X-0013819Y-0008169D03*
X0019173Y0013720D03*
X-0013504Y-0007854D03*
X0019488Y0014035D03*
X0019803Y0014350D03*
X0020118Y0014665D03*
X0016024Y0021673D03*
Y0021988D03*
X0016339D03*
X0015709Y0018524D03*
Y0018839D03*
X0017913Y0019783D03*
X0007756Y-0014469D03*
Y-0014783D03*
X-0002087Y0014980D03*
X-0001772D03*
X0000000Y0015177D03*
X-0016339Y0000728D03*
Y0000413D03*
X-0016024Y0000728D03*
X-0017598Y0022933D03*
Y0023248D03*
X-0016969Y0022618D03*
X-0017283D03*
X-0016969Y0022933D03*
X-0001575Y0026693D03*
X-0003031Y0024823D03*
X-0002717Y0025138D03*
X-0002402Y0025453D03*
X-0002087Y0026083D03*
X-0001772D03*
Y0025768D03*
X-0002087D03*
X-0004606Y0023248D03*
X-0003346Y0024508D03*
X-0003661Y0024193D03*
X-0016024Y0000413D03*
X-0009016Y-0011949D03*
X-0008701Y-0011634D03*
X-0008071Y-0011004D03*
X-0005236Y-0010689D03*
X-0004606Y-0010059D03*
X-0005236D03*
X-0004921D03*
X-0004606Y-0010374D03*
X-0008071Y0011201D03*
X-0007441Y0011516D03*
Y0010886D03*
X-0004606Y0010256D03*
X-0004921D03*
X-0004606Y0010571D03*
X-0006496Y0010886D03*
Y0010571D03*
Y0010256D03*
X-0006181D03*
Y0010571D03*
Y0010886D03*
X-0005866D03*
X-0005236Y0010256D03*
X-0005866Y0010571D03*
Y0010256D03*
X-0005236Y0010571D03*
X-0004921D03*
X-0005236Y0010886D03*
X-0004921D03*
X-0004606D03*
Y0011516D03*
Y0011831D03*
Y0012146D03*
X-0004921D03*
X-0005236D03*
Y0011831D03*
X-0004921D03*
Y0011516D03*
X-0005236D03*
X-0005866D03*
Y0011831D03*
X-0014449Y-0008799D03*
X-0014764Y-0009114D03*
X-0015709Y-0010374D03*
Y-0010059D03*
X-0005866Y0012146D03*
X-0006496Y0011516D03*
X-0006181D03*
Y0011831D03*
X-0006496D03*
Y0012146D03*
X-0006181D03*
X-0007126Y0013091D03*
X-0006811D03*
X-0013189Y-0007539D03*
X-0007441Y0014350D03*
X-0012874Y-0007539D03*
X-0007126Y0014035D03*
X-0006811Y0013720D03*
X-0005551D03*
X-0004606Y0014665D03*
X-0004921Y0014350D03*
X0014449Y0025768D03*
Y0026083D03*
X-0006890Y0015945D03*
X-0007756Y0014665D03*
Y0014980D03*
X0016024Y0019154D03*
X0016654Y0019469D03*
X-0011102Y0004074D03*
X-0009331Y0007421D03*
X-0009528Y0005610D03*
X-0014764Y-0014154D03*
X-0013189Y0003878D03*
Y0003563D03*
X0018228Y0019469D03*
X-0005236Y-0010374D03*
X-0004921D03*
Y-0010689D03*
X-0004606D03*
X-0005236Y-0011319D03*
Y-0011634D03*
X-0004921Y-0011319D03*
X-0004606D03*
X-0004921Y-0011634D03*
Y-0011949D03*
X-0005236D03*
X-0006181D03*
X-0005866D03*
X-0006181Y-0011634D03*
X-0005866D03*
Y-0011319D03*
X-0006496Y-0010689D03*
X-0005866Y-0010059D03*
X-0006181Y-0010374D03*
X-0006496D03*
X-0005866D03*
Y-0010689D03*
X-0006181D03*
X-0007441D03*
Y-0011319D03*
X-0006181D03*
X-0006496D03*
X-0004606Y-0011949D03*
Y-0011634D03*
X-0006496Y-0010059D03*
X-0006181D03*
X-0007441Y-0007854D03*
Y-0012894D03*
X-0006496Y-0011634D03*
Y-0011949D03*
X-0009016Y-0014783D03*
Y-0014469D03*
X-0009331D03*
X-0006811Y-0009114D03*
X-0007126D03*
X-0008071Y-0009744D03*
X-0008386Y-0009429D03*
X-0008701Y-0009114D03*
X-0009331Y-0008799D03*
X-0009016D03*
X-0002717Y-0012579D03*
X-0003031Y-0011004D03*
X-0002087Y-0010689D03*
Y-0010374D03*
X-0001772Y-0010059D03*
X-0002087D03*
X-0007126Y-0008169D03*
X-0006811Y-0008484D03*
X-0005551D03*
X-0004921Y-0007854D03*
X-0004606Y-0007539D03*
X-0007756D03*
X-0003031Y-0012264D03*
X-0003661D03*
Y-0014154D03*
X-0003976Y-0013839D03*
X-0004291Y-0013524D03*
X-0005551Y-0013839D03*
X-0006181Y-0014154D03*
X-0006496Y-0014783D03*
Y-0014469D03*
X-0001575Y-0005453D03*
X-0001772Y-0007539D03*
Y-0007224D03*
X-0014449Y-0014469D03*
Y-0014783D03*
X0018543Y0019154D03*
X0018858Y0018524D03*
Y0018839D03*
X-0016654Y-0013839D03*
X-0017283Y-0014154D03*
X0009331Y0026083D03*
X0009527Y0026693D03*
X0012677D03*
X0011102Y0026279D03*
X-0022480Y-0013425D03*
X-0015079Y-0013839D03*
X-0015394Y-0013524D03*
X-0014134Y-0012264D03*
X-0014764D03*
X0015709Y0007421D03*
Y0007736D03*
X0016024Y0008051D03*
X0016654Y0008366D03*
X0018543Y0008051D03*
X0018858Y0007421D03*
Y0007736D03*
X0019173Y0009941D03*
X0018543D03*
X0018228Y0008366D03*
X0017913Y0008681D03*
X-0013504Y0003248D03*
X-0013819Y0002933D03*
X-0014134Y0002618D03*
X-0015709Y0000728D03*
Y0001043D03*
X-0014449Y0002303D03*
X-0014764Y0001988D03*
X-0016339Y-0000217D03*
X-0016969Y0023248D03*
X0017598Y-0000217D03*
X0017283Y0000413D03*
X0017598D03*
X0016969D03*
Y0000728D03*
X0015709Y0000413D03*
X0016339D03*
Y0000728D03*
Y0001043D03*
X0015709Y0000728D03*
X0016024D03*
Y0000413D03*
Y-0000531D03*
Y-0000217D03*
X0014764D03*
X0015709Y-0000531D03*
Y-0000217D03*
X0017283Y-0000531D03*
X0017598D03*
X0014449Y0003563D03*
X0014764Y0003248D03*
X0015709Y0001043D03*
X0016024D03*
X0015079Y0001988D03*
X0015394D03*
X0014764Y0000413D03*
X0014134Y0001358D03*
X0013819Y0001673D03*
X0013504Y0001988D03*
X0012874Y0002303D03*
X0013189D03*
X0019488Y-0001476D03*
X0019173Y0000098D03*
X0020118Y0000413D03*
Y0000728D03*
X0020433Y0001043D03*
X0020118D03*
X0015079Y0002933D03*
X0015394Y0002618D03*
X0016654D03*
X0017598Y0003563D03*
X0017283Y0003248D03*
X0017598Y0000728D03*
Y0001043D03*
X0018543Y0001988D03*
X0018858Y0002303D03*
X0019173Y0002618D03*
X0019488Y0002933D03*
X0019803Y0003248D03*
X0020433Y0003563D03*
X0020118D03*
Y0003878D03*
X0019173Y-0001161D03*
X0018543D03*
X-0012874Y0023248D03*
X-0013189Y0022933D03*
Y0023248D03*
X-0013819Y0020728D03*
X-0013189Y0022618D03*
X-0014134Y0022303D03*
X-0016024Y-0000217D03*
X-0015709D03*
X-0016024Y-0000531D03*
Y-0000846D03*
X-0018543Y0000413D03*
X0006496Y0021358D03*
X0003976Y0024193D03*
X0004291D03*
X0004921Y0022933D03*
X-0017598Y-0014469D03*
X-0021870Y-0021693D03*
X-0016890Y-0021476D03*
X-0016250Y-0021988D03*
X-0016890Y-0022539D03*
X-0019232Y-0022283D03*
X-0020118Y-0014469D03*
Y-0014783D03*
X-0019213Y-0016122D03*
X0018543Y-0003051D03*
X0018858Y-0003681D03*
Y-0003366D03*
X0018228Y-0002736D03*
X0017913Y-0002421D03*
X0016654Y-0002736D03*
X0016024Y-0003051D03*
X0015709Y-0003681D03*
Y-0003366D03*
X0020118Y-0002106D03*
X0020433D03*
X0021043Y-0007028D03*
X0020433Y-0007539D03*
Y-0007224D03*
X0020118D03*
Y-0007539D03*
X0019803Y-0007854D03*
X0019488Y-0008169D03*
X0019173Y-0008484D03*
X0017598Y-0010059D03*
X0018858Y-0008799D03*
X0018543Y-0009114D03*
X0003976Y0025138D03*
X0004291Y0024823D03*
X0009331Y0023248D03*
X0009016Y0022933D03*
Y0023248D03*
X0008386Y0020728D03*
X0009016Y0022618D03*
X0008071Y0022303D03*
X-0003661Y-0003051D03*
X-0003346Y-0003681D03*
Y-0003366D03*
X-0005551Y-0002736D03*
X-0006181Y-0003051D03*
X-0006496Y-0003681D03*
Y-0003366D03*
X-0003031Y-0001161D03*
X-0003661D03*
X-0003976Y-0002736D03*
X-0004291Y-0002421D03*
X-0001575Y0005610D03*
X-0001772Y0003563D03*
Y0003878D03*
X0000000Y0004074D03*
X-0018543Y-0000217D03*
X-0019173Y0000098D03*
X-0019803Y-0000531D03*
X-0015709Y-0000846D03*
Y-0000531D03*
X-0013504Y-0001791D03*
X-0012874Y-0002106D03*
X-0013189D03*
X-0018543Y-0001791D03*
X-0013819Y-0001476D03*
X-0014134Y0000098D03*
X-0013189Y0000413D03*
Y0000728D03*
X-0012874Y0001043D03*
X-0013189D03*
X-0014134Y-0001161D03*
X-0014764D03*
Y-0003051D03*
X-0014449Y-0003681D03*
Y-0003366D03*
X0005551Y0024823D03*
X0006496Y0025768D03*
X0006181Y0025453D03*
X0017598Y-0010374D03*
Y-0010689D03*
X0017283D03*
X0016339Y-0010374D03*
X0017283Y-0010059D03*
X0016969D03*
X0015079Y-0009114D03*
X0015394D03*
X0016339Y-0010059D03*
X0016024D03*
X0014764Y-0012894D03*
X0016024Y-0011949D03*
X0015709D03*
X0013189Y-0014783D03*
X0015059Y-0016240D03*
X0013937D03*
X0014488D03*
X0015079Y-0008169D03*
X0015394Y-0008484D03*
X-0016339Y-0000531D03*
Y-0000846D03*
Y0023248D03*
Y0022618D03*
Y0022933D03*
X-0016024D03*
Y0022618D03*
X-0015709D03*
Y0021988D03*
X-0016339D03*
X-0016024D03*
X-0015709Y0021358D03*
X-0016024D03*
Y0021673D03*
X-0016339D03*
Y0021358D03*
X-0016969Y0021673D03*
Y0021358D03*
X-0017598D03*
X-0017283D03*
X-0017598Y0021673D03*
X-0016969Y0021988D03*
X-0017283Y0021673D03*
Y0021988D03*
X-0019173Y0022303D03*
X-0019803Y0021673D03*
X-0020433Y0021358D03*
X-0020118D03*
X-0017283Y0022933D03*
X-0018228Y0024193D03*
X-0017913D03*
X-0018543Y0025453D03*
X-0019488Y0023878D03*
X-0019173Y0023563D03*
X-0018543Y0021988D03*
Y0022618D03*
X-0018228Y0025138D03*
X-0017913Y0024823D03*
X-0016654D03*
X-0016024Y0025453D03*
X-0015315Y0027047D03*
X-0015709Y0025768D03*
Y0026083D03*
X-0017992Y0027047D03*
X-0018858Y0025768D03*
Y0026083D03*
X-0015709Y0023248D03*
X-0014764Y0024193D03*
X-0014449Y0024508D03*
X-0014134Y0024823D03*
X-0013819Y0025138D03*
X-0013504Y0025453D03*
X-0012874Y0025768D03*
X-0013189D03*
Y0026083D03*
X-0015079Y0019469D03*
X-0015394Y0019783D03*
X-0014134Y0021043D03*
X-0014764D03*
X-0009528Y0026693D03*
X-0011102Y0026279D03*
X-0012874Y0026083D03*
X-0012678Y0026693D03*
X-0010413Y0027835D03*
X-0010167Y0028287D03*
X-0010305Y0028740D03*
X-0011476Y0030797D03*
X-0010925D03*
X-0010374D03*
X-0008898Y0030807D03*
X-0009075Y0030118D03*
X-0014409Y0029272D03*
Y0029803D03*
X-0020630Y0016752D03*
X-0021043Y0015177D03*
X-0016969Y-0000217D03*
Y-0000531D03*
Y-0000846D03*
X0004606Y0012146D03*
X-0017598Y-0000846D03*
X0004921Y0011516D03*
X0005236D03*
Y0011831D03*
X-0017283Y-0000846D03*
X0004606Y0011831D03*
Y0011516D03*
X0005236Y0012146D03*
X0005866D03*
X0006181D03*
Y0011831D03*
X0005866D03*
X-0015079Y-0002736D03*
X-0015394Y-0002421D03*
X-0016654Y-0002736D03*
X-0017283Y-0003051D03*
X-0017598Y-0003681D03*
Y-0003366D03*
X-0020118Y-0000846D03*
X-0020433D03*
X-0012678Y0005610D03*
X-0012874Y0003563D03*
Y0003878D03*
X0008071Y0021043D03*
X-0020118Y0002303D03*
X-0020433D03*
X0005866Y0010886D03*
X-0017283Y-0000531D03*
Y-0000217D03*
X0004921Y0010571D03*
X0005236Y0010886D03*
Y0010571D03*
X0006496Y0010886D03*
X-0017598Y-0000531D03*
X0005866Y0010571D03*
X-0017598Y-0000217D03*
X0006496Y0010256D03*
X0004921Y0010886D03*
X0006496Y0011516D03*
X0006181Y0010256D03*
X0005866D03*
X0004921D03*
X0005236D03*
X0005866Y0011516D03*
X0006181D03*
Y0010886D03*
X0004606D03*
X0006181Y0010571D03*
X0006496D03*
X0008701Y0009311D03*
X0009331Y0008996D03*
X0009016D03*
X0004921Y0011831D03*
Y0012146D03*
X0003976Y0013091D03*
X0004291D03*
X0003346Y0014665D03*
X0003661Y0014350D03*
Y0010886D03*
Y0011516D03*
X0003031Y0012461D03*
X0002717Y0012776D03*
X0002402Y0013091D03*
X0001772Y0013406D03*
X0002087D03*
X0004606Y0010571D03*
Y0010256D03*
X0003661Y0009311D03*
X0003346Y0008996D03*
X0003031Y0008681D03*
X0002717Y0008366D03*
X0002402Y0008051D03*
X0002087Y0007736D03*
X0001772D03*
X0008386Y0009626D03*
X0008071Y0011201D03*
X0009016Y0011516D03*
Y0011831D03*
X0009331Y0012146D03*
X0009016D03*
X0003976Y0014035D03*
X0004291Y0013720D03*
X0005551D03*
X0006496Y0014665D03*
X0006181Y0014350D03*
X0006496Y0011831D03*
Y0012146D03*
X0007441Y0013091D03*
X0007756Y0013406D03*
X0008071Y0013720D03*
X0008386Y0014035D03*
X0008701Y0014350D03*
X0009016Y0014980D03*
Y0014665D03*
X0008071Y0009941D03*
X0007441D03*
Y0008051D03*
X0007756Y0007421D03*
Y0007736D03*
X0007126Y0008366D03*
X0006811Y0008681D03*
X0005551Y0008366D03*
X0004921Y0008051D03*
X0004606Y0007421D03*
Y0007736D03*
X0009331Y0014665D03*
Y0014980D03*
X0011102Y0015177D03*
X0012677Y0016752D03*
X0009527D03*
X0012874Y0018839D03*
Y0018524D03*
X0011102Y0018327D03*
X-0009528Y-0005453D03*
X-0012678D03*
X-0011102Y-0007028D03*
X-0013189Y-0007224D03*
X-0012874D03*
X-0009016Y-0003681D03*
X-0009331D03*
X-0011102Y-0003878D03*
X0007441Y0021043D03*
X0007756Y0018524D03*
Y0018839D03*
X0007441Y0019154D03*
X0005866Y-0010059D03*
Y-0010374D03*
X0006181D03*
Y-0010059D03*
X0006496Y-0010689D03*
X0006181D03*
X0005866D03*
X0005236Y-0010059D03*
X-0019803Y0013091D03*
X-0017598Y0000728D03*
X-0018543Y0010886D03*
Y0011516D03*
X-0019488Y0012776D03*
X-0019173Y0012461D03*
X-0017598Y0000413D03*
Y0010886D03*
X-0017283Y0000413D03*
X-0017598Y0010571D03*
X-0016969Y0000413D03*
X-0017283Y0010886D03*
X-0016969D03*
Y0010571D03*
X-0017283D03*
X-0016969Y0010256D03*
X-0016339Y0010571D03*
Y0010256D03*
X-0015709Y0010886D03*
X-0016024Y0010571D03*
Y0010256D03*
Y0010886D03*
X-0016339D03*
X-0016969Y0000728D03*
X-0016024Y0011831D03*
Y0011516D03*
X-0016339Y0012146D03*
Y0011516D03*
Y0011831D03*
X-0016969Y0012146D03*
Y0011831D03*
Y0011516D03*
X-0017598D03*
X-0017283D03*
Y0011831D03*
X-0017598D03*
Y0012146D03*
X-0017283D03*
X-0018228Y0013091D03*
X-0017913D03*
X-0018858Y0014980D03*
Y0014665D03*
X-0018543Y0014350D03*
X-0015709Y0010256D03*
Y0010571D03*
X-0018543Y0009311D03*
X-0017283Y0010256D03*
X-0017598D03*
X-0019173Y0008681D03*
X-0019488Y0008366D03*
X-0019803Y0008051D03*
X-0020433Y0007736D03*
X-0020118D03*
Y0007421D03*
X-0018228Y0014035D03*
X-0017913Y0013720D03*
X-0016654D03*
X-0016024Y0014350D03*
X-0015315Y0015945D03*
X-0015709Y0014665D03*
Y0014980D03*
X-0013819Y0009626D03*
X-0014134Y0011201D03*
X-0013189Y0011516D03*
Y0011831D03*
X-0012874Y0012146D03*
X-0013189D03*
X-0014764Y0013091D03*
X-0016024Y0012146D03*
X-0015709D03*
X-0014449Y0013406D03*
X-0014134Y0013720D03*
X-0013189Y0014665D03*
X-0013504Y0014350D03*
X-0013819Y0014035D03*
X-0014134Y0009941D03*
X-0014764D03*
Y0008051D03*
X-0014449Y0007421D03*
Y0007736D03*
X-0015079Y0008366D03*
X-0015394Y0008681D03*
X-0016654Y0008366D03*
X-0017283Y0008051D03*
X-0017598Y0007421D03*
Y0007736D03*
X0007126Y0019469D03*
X0006811Y0019783D03*
X0016909Y-0022382D03*
X0015807Y-0022559D03*
X0015256D03*
X-0019232Y-0023366D03*
X-0018081Y-0023307D03*
X-0018740Y-0024547D03*
X-0018081Y-0024370D03*
X0012421Y-0022362D03*
X0013976Y-0023110D03*
Y-0022303D03*
X0005551Y0019469D03*
X0004921Y0019154D03*
X0004606Y0018524D03*
Y0018839D03*
X0001575Y0016752D03*
X0001772Y0018839D03*
Y0018524D03*
X0000000Y0007224D03*
X0002087Y0007421D03*
X0001772D03*
X0002087Y-0014783D03*
X0001772Y-0014469D03*
X-0016969Y0001043D03*
X-0017283Y0000728D03*
X-0017598Y0001043D03*
X-0017283D03*
X0012736Y-0019291D03*
Y-0019488D03*
Y-0019685D03*
X0010906Y-0020315D03*
X0012736Y-0019882D03*
X0012756Y-0020472D03*
X0010256Y-0018228D03*
X0011417Y-0018917D03*
X0011476Y-0018366D03*
X0011654Y-0017559D03*
X0011496Y-0016614D03*
X0016654Y-0008484D03*
X0017598Y-0007539D03*
X0017283Y-0007854D03*
X0019488Y-0012579D03*
X0019173Y-0012264D03*
Y-0011004D03*
X0020118Y-0010689D03*
Y-0010374D03*
Y-0013209D03*
X0020433D03*
X0019547Y-0017480D03*
X0018051Y-0017835D03*
X0018583D03*
X0017815Y-0018701D03*
X0018740Y-0018799D03*
X0022008Y-0010571D03*
X0020118Y-0010059D03*
X0020433D03*
X0012402Y0028169D03*
X0012352Y0028780D03*
X0002087Y-0014469D03*
X-0013209Y-0023914D03*
Y-0024229D03*
X-0013435Y-0021988D03*
X-0011998D03*
X-0009183D03*
X-0007746D03*
X-0016693Y-0018228D03*
X-0019823Y-0020886D03*
X0020433Y0003878D03*
X0002402Y-0014154D03*
X0002717Y-0013839D03*
X0003031Y-0013524D03*
X0003346Y-0013209D03*
X0003661Y-0012894D03*
X-0018228Y0001988D03*
X0005236Y-0011319D03*
X0004921Y-0011949D03*
Y-0011634D03*
X0004606Y-0011949D03*
X-0017913Y0001988D03*
X0006496Y-0011319D03*
X0005866Y-0011634D03*
Y-0011319D03*
X0006181D03*
Y-0011634D03*
X0005236D03*
Y-0011949D03*
X0006181D03*
X0005866D03*
X0004606Y-0011634D03*
X0004921Y-0010374D03*
X0005236D03*
Y-0010689D03*
X0004921D03*
X0004606D03*
Y-0010374D03*
X0004921Y-0011319D03*
X0004606D03*
X0003031Y-0011004D03*
X0002402Y-0011634D03*
X0001772Y-0011949D03*
X0002087D03*
X0004606Y-0010059D03*
X0004921D03*
X0003976Y-0009114D03*
X0004291D03*
X0003346Y-0007539D03*
X0003661Y-0007854D03*
X0006496Y-0011949D03*
Y-0011634D03*
X-0018858Y0003563D03*
X0008701Y-0012894D03*
X0009331Y-0013209D03*
X0009016D03*
X0002717Y-0009429D03*
X0003031Y-0009744D03*
X0003661Y-0011319D03*
Y-0010689D03*
X0002402Y-0009114D03*
X0001772Y-0008799D03*
X0002087D03*
X0003976Y-0008169D03*
X0004291Y-0008484D03*
X0005551D03*
X0006496Y-0007539D03*
X0006181Y-0007854D03*
X0008386Y-0012579D03*
X0008071Y-0011004D03*
X0009016Y-0010689D03*
Y-0010374D03*
X0009331Y-0010059D03*
X0009016D03*
X0007441Y-0009114D03*
X0006496Y-0010374D03*
Y-0010059D03*
X-0018543Y0003248D03*
X0007756Y-0008799D03*
X0008071Y-0008484D03*
X0008386Y-0008169D03*
X0013504Y0030217D03*
X-0018228Y0002933D03*
X0012185Y0030758D03*
X0012717Y0030896D03*
X0011654Y0030758D03*
X0011122D03*
X0008465Y0028435D03*
X0007933Y0030846D03*
X0008150Y0030157D03*
X0003346Y0025768D03*
X-0009016Y0018524D03*
X-0009331D03*
X-0009528Y0016752D03*
X0008701Y-0007854D03*
X0009331Y-0007539D03*
X0009016D03*
X0007126Y-0013839D03*
X0008071Y-0012264D03*
X0007441D03*
X0006811Y-0013524D03*
X0005551Y-0013839D03*
X0004921Y-0014154D03*
X0004606Y-0014783D03*
Y-0014469D03*
X-0020118Y0013406D03*
X-0020433D03*
X0011102Y-0007028D03*
X0009016Y-0007224D03*
X0009331D03*
X-0020118Y0024508D03*
X-0020433D03*
X-0020630Y0026693D03*
X-0021043Y0026279D03*
X0012874Y-0003366D03*
Y-0003681D03*
X0012678Y-0005453D03*
X0020118Y0020098D03*
X0020433D03*
X0021043Y0018327D03*
X0011673Y-0020177D03*
Y-0021142D03*
X0008228Y-0023839D03*
X-0003346Y-0014469D03*
Y-0014783D03*
X-0004488Y-0018228D03*
X-0003937D03*
X-0000236Y-0018031D03*
X-0017913Y0002618D03*
X0023071Y-0017559D03*
X0022421Y-0017126D03*
X-0011102Y-0014980D03*
X-0012678Y-0015394D03*
X-0012992Y-0018228D03*
X-0012441D03*
X-0009331Y-0014783D03*
X-0009528Y-0015394D03*
X-0008189Y-0018228D03*
X-0008740D03*
X-0022283Y-0016319D03*
X-0003494Y-0021988D03*
X-0004931D03*
X0000039Y-0023484D03*
X-0000679Y-0021988D03*
X-0016417Y-0025512D03*
X0001575Y-0005453D03*
X0002087Y-0003681D03*
X0001772D03*
X0000000Y-0003878D03*
X0012874Y0007421D03*
X0012678Y0005610D03*
X0009331Y0003878D03*
X0011102Y0004074D03*
X0020059Y-0021713D03*
X0021398Y-0021358D03*
X0003346Y-0007224D03*
X0004213Y-0006260D03*
X0006496Y-0007224D03*
X0014449D03*
X0015315Y-0006260D03*
X0017598Y-0007224D03*
X0003346Y0003878D03*
X0004213Y0004843D03*
X0006496Y0003878D03*
X0006890Y0004843D03*
X0014449Y0003878D03*
X0015315Y0004843D03*
X0017598Y0003878D03*
X0017992Y0004843D03*
X-0006181Y-0000846D03*
X-0006496D03*
X-0004606Y0014980D03*
X-0004213Y0015945D03*
X0003346Y0014980D03*
X0004213Y0015945D03*
X0006496Y0014980D03*
X0006889Y0015945D03*
X0014449Y0014980D03*
X0015315Y0015945D03*
X0017598Y0014980D03*
X-0004606Y0026083D03*
X-0016654Y0002618D03*
X0003346Y0026083D03*
X0004213Y0027047D03*
X0011102Y-0014980D03*
X0009527Y-0015394D03*
X0012874Y-0014783D03*
X0012678Y-0015394D03*
X0006496Y0026083D03*
X0014620Y0027959D03*
X0015315Y0027047D03*
X0017598Y0026083D03*
X0017992Y0027047D03*
X-0017598Y-0014783D03*
X-0017343Y-0015531D03*
X-0020433Y0007421D03*
X-0021043Y0007225D03*
X-0016024Y0003248D03*
X0020433Y0014665D03*
X0020118Y0014980D03*
X0020433D03*
X0021043Y0015177D03*
X0020630Y0016752D03*
X-0018858Y-0007224D03*
X-0017992Y-0006260D03*
X0017283Y0012146D03*
Y0014350D03*
X0016654Y0013720D03*
X-0020630Y0005610D03*
X-0021043Y0004074D03*
X-0015709Y-0007224D03*
X-0015315Y-0006260D03*
X0001772Y-0014783D03*
X0017283Y0011831D03*
X0017598Y0011516D03*
X0017283D03*
X0021043Y-0003878D03*
X0020630Y-0005453D03*
X0001575Y-0015394D03*
X-0015709Y0003563D03*
X-0018858Y0003878D03*
X-0017992Y0004843D03*
X-0007756Y-0007224D03*
X-0006890Y-0006260D03*
X0017598Y0012146D03*
Y0011831D03*
X0020118Y0011516D03*
X0019173Y0011201D03*
X-0007756Y0003878D03*
X-0006890Y0004843D03*
X0019626Y-0016555D03*
X0021043Y0004074D03*
X0020630Y0005610D03*
X0021043Y0007225D03*
X-0004606Y0003878D03*
X-0004213Y0004843D03*
X0021043Y-0014980D03*
X0020630Y-0015394D03*
X-0015709Y0003878D03*
X-0015315Y0004843D03*
X-0021043Y-0003878D03*
X-0020630Y-0005453D03*
X-0004606Y-0007224D03*
X-0004213Y-0006260D03*
X0000000Y-0014980D03*
X-0001575Y-0015394D03*
X-0020433Y-0014469D03*
X-0021043Y-0014271D03*
X0020650Y-0028858D03*
X0018209Y-0022244D03*
X-0018543Y-0012579D03*
X-0007441D03*
X0003661D03*
X0014764D03*
X-0018543Y-0001476D03*
X-0007441D03*
X0003661D03*
X0014764D03*
X-0018543Y0009626D03*
X-0007441D03*
X0003661D03*
X0014764D03*
X-0018543Y0020728D03*
X-0007441D03*
X0003661D03*
X0014764D03*
X0017283Y0023248D03*
X0016024D03*
X0006181D03*
X0004921D03*
X-0004921D03*
X-0006181D03*
X-0016024D03*
X-0017283D03*
X0017598Y0022933D03*
X0015709Y0022618D03*
X0006496Y0022933D03*
X0004606Y0022618D03*
X-0004606Y0022933D03*
X-0006496Y0022618D03*
X-0015709Y0022933D03*
X-0017598Y0022618D03*
X0015709Y0021988D03*
X0004606D03*
X-0006496D03*
X-0017598D03*
X0017598Y0021673D03*
X0006496D03*
X-0004606D03*
X-0015709D03*
X0016969Y0021358D03*
X0016339D03*
X0016024D03*
X0014685Y-0021240D03*
X-0003976Y0009311D03*
X0007126D03*
X0007638Y0030531D03*
X0001772Y0001358D03*
X0020433D03*
X0009331Y-0002736D03*
X-0009331D03*
Y0002618D03*
X0009331D03*
X-0007618Y-0017874D03*
X0009026Y0021043D03*
X0007441Y0020728D03*
X0014764Y0001358D03*
X-0008386Y-0007539D03*
Y0018839D03*
X-0007756Y-0012579D03*
X0007756D03*
X-0015394Y0007736D03*
Y0025768D03*
X-0015709Y-0013524D03*
Y0002618D03*
X0016024Y0002303D03*
Y-0013209D03*
X-0009016Y0019783D03*
X0009016D03*
X-0003976Y-0008484D03*
Y0019783D03*
X-0008071Y-0014783D03*
Y0003878D03*
X0013819Y0022933D03*
X-0019803Y-0009429D03*
X-0019173Y0024193D03*
X-0003031D03*
X0018543Y0001358D03*
X-0013504Y0007421D03*
Y0026083D03*
X-0006811Y0020098D03*
Y-0008799D03*
X-0020433Y0021043D03*
X-0001772D03*
X0008071Y0007736D03*
Y0025768D03*
X-0008386Y-0003366D03*
Y0014665D03*
X-0019803Y-0008169D03*
X-0018858Y0021358D03*
X-0003346D03*
X0002717Y-0014783D03*
Y0003878D03*
X-0007756Y-0011634D03*
X0007756D03*
X-0008071Y-0014469D03*
Y0003563D03*
X0014764Y0023563D03*
X0014134Y-0000846D03*
X-0014134D03*
X0006220Y0015945D03*
X-0019173Y0022618D03*
X-0003031D03*
X-0020118Y-0002421D03*
X-0002087D03*
X-0013189Y0024823D03*
X0013189D03*
G54D140*
X0019047Y-0030858D03*
X-0019047D03*
X0019047Y0030858D03*
X-0019047D03*
M02*
