*
G04 Mass Parameters ***
*
G04 Image ***
*
%INV:\DEV\A005\CAD\XMP-64A_1-1_9.IN1*%
%ICAS*%
%MOIN*%
%IPPOS*%
%ASAXBY*%
G74*%FSLAN2X34Y34*%
*
G04 Aperture Definitions ***
*
%AMTHERMAL90*
1,1,0.0866,0,0,*
1,0,0.0630,0,0,*
21,0,0.0867,0.0197,0,0,45.0*
21,0,0.0867,0.0197,0,0,135.0*%
%AMTHERMAL94*
1,1,0.0628,0,0,*
1,0,0.0472,0,0,*
21,0,0.0629,0.0079,0,0,45.0*
21,0,0.0629,0.0079,0,0,135.0*%
%AMTHERMAL96*
1,1,0.0943,0,0,*
1,0,0.0708,0,0,*
21,0,0.0944,0.0197,0,0,225.0*
21,0,0.0944,0.0197,0,0,315.0*%
%AMTHERMAL98*
1,1,0.0943,0,0,*
1,0,0.0708,0,0,*
21,0,0.0944,0.0197,0,0,45.0*
21,0,0.0944,0.0197,0,0,135.0*%
%AMTHERMAL107*
1,1,0.0943,0,0,*
1,0,0.0708,0,0,*
21,0,0.0944,0.0197,0,0,315.0*
21,0,0.0944,0.0197,0,0,45.0*%
%AMTHERMAL109*
1,1,0.0943,0,0,*
1,0,0.0708,0,0,*
21,0,0.0944,0.0197,0,0,135.0*
21,0,0.0944,0.0197,0,0,225.0*%
%AMTHERMAL118*
1,1,0.0786,0,0,*
1,0,0.0630,0,0,*
21,0,0.0787,0.0079,0,0,45.0*
21,0,0.0787,0.0079,0,0,135.0*%
%AMTHERMAL120*
1,1,0.1023,0,0,*
1,0,0.0787,0,0,*
21,0,0.1024,0.0197,0,0,225.0*
21,0,0.1024,0.0197,0,0,315.0*%
%AMTHERMAL123*
1,1,0.0921,0,0,*
1,0,0.0686,0,0,*
21,0,0.0922,0.0197,0,0,225.0*
21,0,0.0922,0.0197,0,0,315.0*%
%AMTHERMAL135*
1,1,0.0708,0,0,*
1,0,0.0552,0,0,*
21,0,0.0709,0.0079,0,0,45.0*
21,0,0.0709,0.0079,0,0,135.0*%
%AMTHERMAL139*
1,1,0.0786,0,0,*
1,0,0.0630,0,0,*
21,0,0.0787,0.0079,0,0,135.0*
21,0,0.0787,0.0079,0,0,225.0*%
%ADD10C,0.0787*%
%ADD11C,0.0630*%
%ADD12C,0.0550*%
%ADD13C,0.0709*%
%ADD14R,0.0709X0.0709*%
%ADD15C,0.0591*%
%ADD16C,0.0866*%
%ADD17C,0.1378*%
%ADD18R,0.0394X0.0551*%
%ADD19C,0.2756*%
%ADD20O,0.1575X0.0787*%
%ADD21O,0.0787X0.1575*%
%ADD22O,0.0787X0.1772*%
%ADD23C,0.0315*%
%ADD24C,0.0157*%
%ADD25C,0.0177*%
%ADD26C,0.1181*%
%ADD27C,0.0750*%
%ADD28R,0.0750X0.0750*%
%ADD29C,0.0079*%
%ADD30C,0.0157*%
%ADD31C,0.0030*%
%ADD32C,0.0157*%
%ADD33C,0.0157*%
%ADD34C,0.0098*%
%ADD35R,0.0236X0.0236*%
%ADD36R,0.0571X0.0453*%
%ADD37R,0.0453X0.0571*%
%ADD38R,0.0394X0.0276*%
%ADD39R,0.0276X0.0394*%
%ADD40R,0.1280X0.0650*%
%ADD41R,0.0551X0.0472*%
%ADD42R,0.0650X0.1280*%
%ADD43R,0.0965X0.0925*%
%ADD44R,0.0472X0.0709*%
%ADD45R,0.0472X0.1063*%
%ADD46O,0.0236X0.0472*%
%ADD47R,0.0591X0.0472*%
%ADD48R,0.0394X0.0374*%
%ADD49R,0.0374X0.0394*%
%ADD50R,0.1417X0.0551*%
%ADD51R,0.0866X0.0984*%
%ADD52R,0.0787X0.0197*%
%ADD53O,0.1062X0.0236*%
%ADD54O,0.0591X0.0256*%
%ADD55R,0.0197X0.0236*%
%ADD56R,0.0236X0.0197*%
%ADD57R,0.0236X0.0394*%
%ADD58R,0.0394X0.0236*%
%ADD59R,0.0236X0.0433*%
%ADD60R,0.0433X0.0236*%
%ADD61O,0.0571X0.0236*%
%ADD62O,0.0709X0.0591*%
%ADD63C,0.0708*%
%ADD64R,0.0708X0.0708*%
%ADD65R,0.0980X0.1370*%
%ADD66O,0.0591X0.0118*%
%ADD67R,0.0866X0.0630*%
%ADD68R,0.0177X0.0748*%
%ADD69O,0.0512X0.0236*%
%ADD70O,0.0866X0.0236*%
%ADD71R,0.1496X0.1496*%
%ADD72O,0.0118X0.0394*%
%ADD73O,0.0394X0.0118*%
%ADD74R,0.0472X0.0571*%
%ADD75R,0.1024X0.0945*%
%ADD76O,0.0118X0.0354*%
%ADD77O,0.0354X0.0118*%
%ADD78C,0.0394*%
%ADD79R,0.1969X0.1969*%
%ADD80R,0.0591X0.0118*%
%ADD81R,0.0118X0.0591*%
%ADD82R,0.0236X0.0453*%
%ADD83R,0.0453X0.0236*%
%ADD84R,0.0768X0.0866*%
%ADD85O,0.0630X0.0118*%
%ADD86R,0.0650X0.1949*%
%ADD87C,0.0197*%
%ADD88C,0.0394*%
%ADD89C,0.0118*%
%ADD90THERMAL90*%
%ADD91C,0.0787*%
%ADD92C,0.0630*%
%ADD93C,0.0550*%
%ADD94THERMAL94*%
%ADD95C,0.0709*%
%ADD96THERMAL96*%
%ADD97C,0.0709*%
%ADD98THERMAL98*%
%ADD99C,0.0591*%
%ADD100C,0.0866*%
%ADD101C,0.1378*%
%ADD102R,0.0709X0.0709*%
%ADD103C,0.1575*%
%ADD104O,0.1575X0.0787*%
%ADD105O,0.0787X0.1575*%
%ADD106O,0.0787X0.1772*%
%ADD107THERMAL107*%
%ADD108C,0.0709*%
%ADD109THERMAL109*%
%ADD110C,0.0709*%
%ADD111C,0.0050*%
%ADD112C,0.0050*%
%ADD113C,0.0315*%
%ADD114C,0.0050*%
%ADD115C,0.0050*%
%ADD116C,0.0315*%
%ADD117C,0.0217*%
%ADD118THERMAL118*%
%ADD119C,0.1181*%
%ADD120THERMAL120*%
%ADD121C,0.1181*%
%ADD122C,0.0750*%
%ADD123THERMAL123*%
%ADD124C,0.0217*%
%ADD125C,0.0217*%
%ADD126C,0.0050*%
%ADD127C,0.0217*%
%ADD128C,0.0050*%
%ADD129C,0.0787*%
%ADD130C,0.0630*%
%ADD131C,0.0550*%
%ADD132C,0.0709*%
%ADD133R,0.0709X0.0709*%
%ADD134C,0.0591*%
%ADD135THERMAL135*%
%ADD136R,0.0709X0.0709*%
%ADD137R,0.0709X0.0709*%
%ADD138C,0.0217*%
%ADD139THERMAL139*%
%ADD140C,0.1575*%
*
G04 Plot Data ***
*
G54D29*
G01X0071617Y0019578D02*
X0071530D01*
X0071574D02*
Y0019840D01*
X0071530Y0019796D01*
X0070854Y0019578D02*
X0070701D01*
Y0019840D01*
X0070522Y0019665D02*
X0070347D01*
X0070522Y0019578D02*
Y0019709D01*
X0070456Y0019840D01*
X0070413D01*
X0070347Y0019709D01*
Y0019578D01*
X0070168Y0019840D02*
Y0019578D01*
X0070124Y0019621D01*
X0070036Y0019796D01*
X0069993Y0019840D01*
Y0019578D01*
X0069726Y0019709D02*
X0069813D01*
Y0019621D01*
X0069791Y0019578D01*
X0069660D01*
X0069638Y0019621D01*
Y0019796D01*
X0069660Y0019840D01*
X0069791D01*
X0069813Y0019796D01*
X0069459Y0019578D02*
X0069372D01*
X0069415D02*
Y0019840D01*
X0069459D02*
X0069372D01*
X0069149Y0019796D02*
X0069127Y0019840D01*
X0068996D01*
X0068974Y0019796D01*
Y0019753D01*
X0068996Y0019709D01*
X0069127D01*
X0069149Y0019665D01*
Y0019621D01*
X0069127Y0019578D01*
X0068996D01*
X0068974Y0019621D01*
X0068276Y0019709D02*
X0068342Y0019578D01*
X0068167Y0019709D02*
X0068298D01*
X0068342Y0019753D01*
Y0019796D01*
X0068298Y0019840D01*
X0068167D01*
Y0019578D01*
X0067943Y0019709D02*
X0067812D01*
X0067987Y0019578D02*
X0067812D01*
Y0019840D01*
X0067987D01*
X0067633D02*
Y0019578D01*
X0067589Y0019621D01*
X0067502Y0019796D01*
X0067458Y0019840D01*
Y0019578D01*
X0067279Y0019840D02*
Y0019578D01*
X0067235Y0019621D01*
X0067147Y0019796D01*
X0067104Y0019840D01*
Y0019578D01*
X0066924D02*
X0066837D01*
X0066881D02*
Y0019840D01*
X0066924D02*
X0066837D01*
X0064439Y0019578D02*
X0064352D01*
X0064396D02*
Y0019840D01*
X0064352Y0019796D01*
X0064129Y0019840D02*
Y0019578D01*
X0064085Y0019621D01*
X0063998Y0019796D01*
X0063954Y0019840D01*
Y0019578D01*
X0063775D02*
X0063687D01*
X0063731D02*
Y0019840D01*
X0063775D02*
X0063687D01*
X0016594Y-0034665D02*
X0015965D01*
X0015669Y-0034370D01*
Y-0024803D01*
X0017205Y-0023268D01*
X0019882D01*
X0020787Y-0022362D01*
Y-0019016D01*
X0019961Y-0018189D01*
X0019409D01*
X0023622Y0035827D02*
Y0035039D01*
X0023228Y0035433D02*
X0024016D01*
X-0013157Y-0030305D02*
Y-0030443D01*
X-0012449Y-0028445D02*
Y-0029911D01*
X-0012307Y-0028445D02*
Y-0029969D01*
X-0013016Y-0028445D02*
Y-0029921D01*
X-0012661Y-0029941D02*
X-0012771D01*
X-0013114Y-0030366D02*
X-0016654D01*
X-0012449Y-0030837D02*
Y-0030866D01*
X-0010945Y-0030508D02*
X-0011070D01*
X-0013154Y-0030437D02*
X-0016654D01*
X-0010945Y-0030579D02*
X-0011063D01*
X-0013181Y-0030508D02*
X-0016654D01*
X-0011953Y-0028445D02*
Y-0029963D01*
X-0012268Y-0029941D02*
X-0012378D01*
X-0013157Y-0030698D02*
Y-0030866D01*
X-0012024Y-0030826D02*
Y-0030866D01*
X-0012520Y-0030846D02*
Y-0030866D01*
X-0012591Y-0030837D02*
Y-0030866D01*
X-0011882Y-0028445D02*
Y-0029946D01*
X-0011874Y-0029941D02*
X-0011984D01*
X-0012520Y-0028445D02*
Y-0029902D01*
X-0012094Y-0030844D02*
Y-0030866D01*
X-0011882Y-0030802D02*
Y-0030866D01*
X-0012165Y-0030843D02*
Y-0030866D01*
X-0012236Y-0030823D02*
Y-0030866D01*
X-0012661Y-0028445D02*
Y-0029941D01*
X-0011480D02*
X-0011590D01*
X-0012094Y-0028445D02*
Y-0029903D01*
X-0010945Y-0029941D02*
X-0011196D01*
X-0010945Y-0030083D02*
X-0011080D01*
X-0011811Y-0030835D02*
Y-0030866D01*
X-0013157Y-0028445D02*
Y-0030049D01*
X-0017055Y-0032539D02*
Y-0035256D01*
X-0011102Y-0028445D02*
Y-0030035D01*
Y-0030713D02*
Y-0030866D01*
X-0011173Y-0030791D02*
Y-0030866D01*
X-0011244Y-0030830D02*
Y-0030866D01*
X-0011315Y-0030845D02*
Y-0030866D01*
X-0011598Y-0030811D02*
Y-0030866D01*
X-0011031Y-0028445D02*
Y-0030866D01*
X-0011740Y-0028445D02*
Y-0029902D01*
Y-0030846D02*
Y-0030866D01*
X-0011811Y-0028445D02*
Y-0029913D01*
X-0010945Y-0029870D02*
X-0016654D01*
X-0010945Y-0030720D02*
X-0011107D01*
X-0010945Y-0030791D02*
X-0011173D01*
X-0011504D02*
X-0011567D01*
X-0015236Y-0035185D02*
X-0017126D01*
X-0011386Y-0030842D02*
Y-0030866D01*
X-0016984Y-0032539D02*
Y-0035256D01*
X-0013162Y-0030295D02*
X-0016654D01*
X-0012661Y-0030807D02*
Y-0030866D01*
X-0011102Y-0030319D02*
Y-0030429D01*
X-0015236Y-0031075D02*
X-0016654D01*
X-0016772Y-0032539D02*
Y-0035256D01*
X-0012803Y-0028445D02*
Y-0029924D01*
X-0010945Y-0030366D02*
X-0011138D01*
X-0012732Y-0028445D02*
Y-0029969D01*
X-0013134Y-0030012D02*
X-0016654D01*
X-0011898Y-0030791D02*
X-0011961D01*
X-0013188Y-0030154D02*
X-0016654D01*
X-0012291Y-0030791D02*
X-0012354D01*
X-0012685D02*
X-0012748D01*
X-0011598Y-0028445D02*
Y-0029936D01*
X-0013185Y-0030224D02*
X-0016654D01*
X-0010945D02*
X-0011067D01*
X-0016843Y-0032539D02*
Y-0035256D01*
X-0013172Y-0030083D02*
X-0016654D01*
X-0016701Y-0032539D02*
Y-0035256D01*
X-0013055Y-0029941D02*
X-0016654D01*
X-0011457Y-0030820D02*
Y-0030866D01*
X-0016654Y-0032539D02*
X-0017126D01*
X-0016654Y-0028445D02*
Y-0032539D01*
X-0010945Y-0028445D02*
X-0016654D01*
X-0010945D02*
Y-0030866D01*
X-0015236D01*
Y-0035256D01*
X-0017126D01*
Y-0032539D02*
Y-0035256D01*
X-0011669Y-0030839D02*
Y-0030866D01*
X-0010961Y-0028445D02*
Y-0030866D01*
X-0011173Y-0028445D02*
Y-0029957D01*
X-0011244Y-0028445D02*
Y-0029918D01*
X-0011315Y-0028445D02*
Y-0029902D01*
X-0011386Y-0028445D02*
Y-0029906D01*
X-0011457Y-0028445D02*
Y-0029928D01*
X-0012874Y-0030843D02*
Y-0030866D01*
X-0011528Y-0028445D02*
Y-0029976D01*
X-0011669Y-0028445D02*
Y-0029909D01*
X-0010945Y-0030012D02*
X-0011118D01*
X-0012024Y-0028445D02*
Y-0029921D01*
X-0011953Y-0030785D02*
Y-0030866D01*
X-0010945Y-0030154D02*
X-0011064D01*
X-0012165Y-0028445D02*
Y-0029904D01*
X-0013087Y-0030785D02*
Y-0030866D01*
X-0012378Y-0028445D02*
Y-0029941D01*
X-0012236Y-0028445D02*
Y-0029924D01*
X-0012307Y-0030778D02*
Y-0030866D01*
X-0012803Y-0030823D02*
Y-0030866D01*
X-0012378Y-0030807D02*
Y-0030866D01*
X-0012732Y-0030778D02*
Y-0030866D01*
X-0011528Y-0030771D02*
Y-0030866D01*
X-0012945Y-0030844D02*
Y-0030866D01*
X-0013189Y-0030579D02*
X-0016654D01*
X-0013228Y-0028445D02*
Y-0030866D01*
X-0013299Y-0028445D02*
Y-0030866D01*
X-0013370Y-0028445D02*
Y-0030866D01*
X-0013441Y-0028445D02*
Y-0030866D01*
X-0013512Y-0028445D02*
Y-0030866D01*
X-0013583Y-0028445D02*
Y-0030866D01*
X-0013654Y-0028445D02*
Y-0030866D01*
X-0013724Y-0028445D02*
Y-0030866D01*
X-0013795Y-0028445D02*
Y-0030866D01*
X-0013866Y-0028445D02*
Y-0030866D01*
X-0013937Y-0028445D02*
Y-0030866D01*
X-0014008Y-0028445D02*
Y-0030866D01*
X-0014079Y-0028445D02*
Y-0030866D01*
X-0014150Y-0028445D02*
Y-0030866D01*
X-0014220Y-0028445D02*
Y-0030866D01*
X-0014291Y-0028445D02*
Y-0030866D01*
X-0014362Y-0028445D02*
Y-0030866D01*
X-0014433Y-0028445D02*
Y-0030866D01*
X-0014504Y-0028445D02*
Y-0030866D01*
X-0014575Y-0028445D02*
Y-0030866D01*
X-0014646Y-0028445D02*
Y-0030866D01*
X-0014717Y-0028445D02*
Y-0030866D01*
X-0014787Y-0028445D02*
Y-0030866D01*
X-0014858Y-0028445D02*
Y-0030866D01*
X-0014929Y-0028445D02*
Y-0030866D01*
X-0015000Y-0028445D02*
Y-0030866D01*
X-0015071Y-0028445D02*
Y-0030866D01*
X-0015142Y-0028445D02*
Y-0030866D01*
X-0015213Y-0028445D02*
Y-0030866D01*
X-0015283Y-0028445D02*
Y-0035256D01*
X-0015354Y-0028445D02*
Y-0035256D01*
X-0015425Y-0028445D02*
Y-0035256D01*
X-0015496Y-0028445D02*
Y-0035256D01*
X-0015567Y-0028445D02*
Y-0035256D01*
X-0015638Y-0028445D02*
Y-0035256D01*
X-0015709Y-0028445D02*
Y-0035256D01*
X-0015780Y-0028445D02*
Y-0035256D01*
X-0015850Y-0028445D02*
Y-0035256D01*
X-0015921Y-0028445D02*
Y-0035256D01*
X-0015992Y-0028445D02*
Y-0035256D01*
X-0016063Y-0028445D02*
Y-0035256D01*
X-0016134Y-0028445D02*
Y-0035256D01*
X-0016205Y-0028445D02*
Y-0035256D01*
X-0016276Y-0028445D02*
Y-0035256D01*
X-0016346Y-0028445D02*
Y-0035256D01*
X-0016417Y-0028445D02*
Y-0035256D01*
X-0016488Y-0028445D02*
Y-0035256D01*
X-0016559Y-0028445D02*
Y-0035256D01*
X-0016630Y-0028445D02*
Y-0035256D01*
X-0010945Y-0028453D02*
X-0016654D01*
X-0010945Y-0028524D02*
X-0016654D01*
X-0010945Y-0028594D02*
X-0016654D01*
X-0010945Y-0028665D02*
X-0016654D01*
X-0010945Y-0028736D02*
X-0016654D01*
X-0010945Y-0028807D02*
X-0016654D01*
X-0010945Y-0028878D02*
X-0016654D01*
X-0010945Y-0028949D02*
X-0016654D01*
X-0010945Y-0029020D02*
X-0016654D01*
X-0010945Y-0029091D02*
X-0016654D01*
X-0010945Y-0029161D02*
X-0016654D01*
X-0010945Y-0029232D02*
X-0016654D01*
X-0010945Y-0029303D02*
X-0016654D01*
X-0010945Y-0029374D02*
X-0016654D01*
X-0010945Y-0029445D02*
X-0016654D01*
X-0010945Y-0029516D02*
X-0016654D01*
X-0010945Y-0029587D02*
X-0016654D01*
X-0010945Y-0029657D02*
X-0016654D01*
X-0010945Y-0029728D02*
X-0016654D01*
X-0010945Y-0029799D02*
X-0016654D01*
X-0016913Y-0032539D02*
Y-0035256D01*
X-0012591Y-0028445D02*
Y-0029911D01*
X-0010945Y-0030295D02*
X-0011089D01*
X-0012874Y-0028445D02*
Y-0029904D01*
X-0013016Y-0030826D02*
Y-0030866D01*
X-0012945Y-0028445D02*
Y-0029903D01*
X-0013087Y-0028445D02*
Y-0029963D01*
X-0010945Y-0030650D02*
X-0011074D01*
X-0010945Y-0030437D02*
X-0011098D01*
X-0013177Y-0030650D02*
X-0016654D01*
X-0013079Y-0030791D02*
X-0016654D01*
X-0010945Y-0030862D02*
X-0016654D01*
X-0013144Y-0030720D02*
X-0016654D01*
X-0015236Y-0031004D02*
X-0016654D01*
X-0015236Y-0031146D02*
X-0016654D01*
X-0015236Y-0031217D02*
X-0016654D01*
X-0015236Y-0031287D02*
X-0016654D01*
X-0015236Y-0031358D02*
X-0016654D01*
X-0015236Y-0031429D02*
X-0016654D01*
X-0015236Y-0031500D02*
X-0016654D01*
X-0015236Y-0031571D02*
X-0016654D01*
X-0015236Y-0031642D02*
X-0016654D01*
X-0015236Y-0031713D02*
X-0016654D01*
X-0015236Y-0031783D02*
X-0016654D01*
X-0015236Y-0031854D02*
X-0016654D01*
X-0015236Y-0031925D02*
X-0016654D01*
X-0015236Y-0031996D02*
X-0016654D01*
X-0015236Y-0032067D02*
X-0016654D01*
X-0015236Y-0032138D02*
X-0016654D01*
X-0015236Y-0032209D02*
X-0016654D01*
X-0015236Y-0032280D02*
X-0016654D01*
X-0015236Y-0032350D02*
X-0016654D01*
X-0015236Y-0032421D02*
X-0016654D01*
X-0015236Y-0032492D02*
X-0016654D01*
X-0015236Y-0032563D02*
X-0017126D01*
X-0015236Y-0032634D02*
X-0017126D01*
X-0015236Y-0032705D02*
X-0017126D01*
X-0015236Y-0032776D02*
X-0017126D01*
X-0015236Y-0032846D02*
X-0017126D01*
X-0015236Y-0032917D02*
X-0017126D01*
X-0015236Y-0032988D02*
X-0017126D01*
X-0015236Y-0033059D02*
X-0017126D01*
X-0015236Y-0033130D02*
X-0017126D01*
X-0015236Y-0033201D02*
X-0017126D01*
X-0015236Y-0033272D02*
X-0017126D01*
X-0015236Y-0033343D02*
X-0017126D01*
X-0015236Y-0033413D02*
X-0017126D01*
X-0015236Y-0033484D02*
X-0017126D01*
X-0015236Y-0033555D02*
X-0017126D01*
X-0015236Y-0033626D02*
X-0017126D01*
X-0015236Y-0033697D02*
X-0017126D01*
X-0015236Y-0033768D02*
X-0017126D01*
X-0015236Y-0033839D02*
X-0017126D01*
X-0015236Y-0033909D02*
X-0017126D01*
X-0015236Y-0033980D02*
X-0017126D01*
X-0015236Y-0034051D02*
X-0017126D01*
X-0015236Y-0034122D02*
X-0017126D01*
X-0015236Y-0034193D02*
X-0017126D01*
X-0015236Y-0034264D02*
X-0017126D01*
X-0015236Y-0034335D02*
X-0017126D01*
X-0015236Y-0034406D02*
X-0017126D01*
X-0015236Y-0034476D02*
X-0017126D01*
X-0015236Y-0034547D02*
X-0017126D01*
X-0015236Y-0034618D02*
X-0017126D01*
X-0015236Y-0034689D02*
X-0017126D01*
X-0015236Y-0034760D02*
X-0017126D01*
X-0015236Y-0034831D02*
X-0017126D01*
X-0015236Y-0034902D02*
X-0017126D01*
X-0015236Y-0034972D02*
X-0017126D01*
X-0015236Y-0035043D02*
X-0017126D01*
X-0015236Y-0035114D02*
X-0017126D01*
X-0015236Y-0030933D02*
X-0016654D01*
X-0023622Y-0035020D02*
Y-0035807D01*
X-0024016Y-0035413D02*
X-0023228D01*
X0023622Y-0035020D02*
Y-0035807D01*
X0023228Y-0035413D02*
X0024016D01*
G01X-0011146Y-0030374D02*
G03X-0011063Y-0030177I0000193J0000197D01*
G01X-0012126Y-0030846D02*
G03X-0011929Y-0030763I0000000J0000275D01*
G01X-0012520Y-0029902D02*
G03X-0012717Y-0029984I0000000J0000275D01*
G01X-0012126Y-0029902D02*
G03X-0012323Y-0029984I0000000J0000275D01*
G01X-0011732Y-0029902D02*
G03X-0011929Y-0029984I0000000J0000275D01*
G03X-0012126Y-0029901I0000197J0000193D01*
G01X-0011339Y-0030846D02*
G03X-0011064Y-0030571I0000000J0000275D01*
G01X-0011063D02*
G03X-0011146Y-0030374I0000276J0000000D01*
G01X-0011732Y-0030846D02*
G03X-0011535Y-0030763I0000000J0000275D01*
G01X-0013189Y-0030571D02*
G03X-0012913Y-0030847I0000276J0000000D01*
G01X-0012322Y-0030763D02*
G03X-0012126Y-0030845I0000196J0000192D01*
G01X-0012716Y-0030763D02*
G03X-0012520Y-0030845I0000196J0000192D01*
G01X-0012913Y-0029902D02*
G03X-0013188Y-0030177I0000000J0000275D01*
G01X-0012716Y-0029984D02*
G03X-0012913Y-0029901I0000197J0000193D01*
G01X-0011063Y-0030177D02*
G03X-0011339Y-0029901I0000276J0000000D01*
G01X-0011535Y-0029984D02*
G03X-0011732Y-0029901I0000197J0000193D01*
G01X-0011535Y-0030763D02*
G03X-0011339Y-0030845I0000196J0000192D01*
G01X-0011929Y-0030763D02*
G03X-0011732Y-0030846I0000197J0000192D01*
G01X-0013106Y-0030374D02*
G03X-0013189Y-0030571I0000193J0000197D01*
Y-0030177D02*
G03X-0013106Y-0030374I0000276J0000000D01*
G01X-0012913Y-0030846D02*
G03X-0012717Y-0030763I0000000J0000275D01*
G01X-0011339Y-0029902D02*
G03X-0011535Y-0029984I0000000J0000275D01*
G01X-0012322D02*
G03X-0012520Y-0029900I0000198J0000193D01*
Y-0030846D02*
G03X-0012323Y-0030763I0000000J0000275D01*
G54D31*
G01X-0018858Y-0014154D02*
Y-0014262D01*
X-0018711Y-0014409D01*
Y-0014498D01*
X-0018583Y-0014626D01*
X-0018494D01*
X-0018415Y-0014705D01*
Y-0015118D01*
X-0018553Y-0015256D01*
X-0020482D01*
X-0022175Y-0013563D01*
Y-0013455D01*
X-0022559Y-0013071D01*
Y-0006594D01*
X-0021526Y-0005561D01*
Y0002805D01*
X-0021919Y0003199D01*
X-0022687D01*
X-0023126Y0002760D01*
Y0007760D02*
X-0022618Y0007252D01*
Y0006486D01*
X-0022362Y0006230D01*
X-0021919D01*
X-0021348Y0005659D01*
Y-0005787D01*
X-0022205Y-0006644D01*
Y-0006722D01*
X-0021634Y-0006732D02*
Y-0006555D01*
X-0020915Y-0005837D01*
Y0007549D01*
X-0022126Y0008760D01*
X-0019803Y-0013839D02*
X-0019931Y-0013967D01*
Y-0014459D01*
X-0019665Y-0014724D01*
Y-0014941D01*
X-0019774Y-0015049D01*
X-0020472D01*
X-0022057Y-0013465D01*
Y-0013376D01*
X-0022441Y-0012992D01*
Y-0006732D01*
X-0021407Y-0005699D01*
Y0004695D01*
X-0022008Y0005295D01*
X-0022411D01*
X-0022618Y0005502D01*
Y0006252D01*
X-0023126Y0006760D01*
X-0022126D02*
X-0021289Y0005923D01*
Y-0005856D01*
X-0022057Y-0006624D01*
Y-0006929D01*
X-0006791Y-0016476D02*
X-0006339Y-0016929D01*
X-0004902D01*
X-0003612Y-0018219D01*
X-0002392D01*
X0000827Y-0015000D01*
X0004872D01*
X0005108Y-0014764D01*
Y-0013140D01*
X0005187Y-0013061D01*
X0005276D01*
X0005364Y-0012972D01*
Y-0009459D01*
X0005236Y-0009331D01*
Y-0009114D01*
X-0005866Y0013091D02*
Y0012579D01*
X-0005738Y0012451D01*
Y0009262D01*
X-0005856Y0009144D01*
X-0005925D01*
X-0005994Y0009075D01*
Y0008474D01*
X-0005344Y0007825D01*
Y0003287D01*
X-0005994Y0002638D01*
Y0002215D01*
X-0005866Y0002087D01*
Y0001988D01*
X0007933Y-0020705D02*
X0008055D01*
X0008504Y-0020256D01*
X0008720D01*
X0011801Y-0017175D01*
X0014715D01*
X0016211Y-0015679D01*
Y-0013130D01*
X0016299Y-0013041D01*
X0016378D01*
X0016467Y-0012953D01*
Y-0009941D01*
X0016339Y-0009813D01*
Y-0009114D01*
X-0005866D02*
Y-0009823D01*
X-0005738Y-0009951D01*
Y-0012953D01*
X-0005846Y-0013061D01*
X-0005915D01*
X-0005994Y-0013140D01*
Y-0013455D01*
X-0005768Y-0013681D01*
X-0004872D01*
X-0004754Y-0013799D01*
Y-0014439D01*
X-0006791Y-0016476D01*
X-0016969Y0013091D02*
Y0012864D01*
X-0016841Y0012736D01*
Y0009252D01*
X-0016949Y0009144D01*
X-0017037D01*
X-0017096Y0009085D01*
Y0002244D01*
X-0016969Y0002116D01*
Y0001988D01*
X0005236Y0013091D02*
Y0012884D01*
X0005364Y0012756D01*
Y0009242D01*
X0005285Y0009163D01*
X0005197D01*
X0005108Y0009075D01*
Y0002224D01*
X0005236Y0002096D01*
Y0001988D01*
X0016339Y0013091D02*
Y0012352D01*
X0016467Y0012224D01*
Y0009222D01*
X0016388Y0009144D01*
X0016289D01*
X0016211Y0009065D01*
Y0002244D01*
X0016339Y0002116D01*
Y0001988D01*
X0014855Y0030410D02*
Y0028964D01*
X0015669Y0028150D01*
Y0026719D01*
X0016211Y0026177D01*
Y0024439D01*
X0016339Y0024311D01*
Y0024193D01*
X-0018543Y-0013839D02*
X-0018671Y-0013967D01*
Y-0014222D01*
X-0018563Y-0014331D01*
X-0018484D01*
X-0018356Y-0014459D01*
Y-0015157D01*
X-0018514Y-0015315D01*
X-0020896D01*
X-0022618Y-0013593D01*
Y-0006545D01*
X-0021585Y-0005512D01*
Y0002219D01*
X-0022126Y0002760D01*
X-0016969Y-0009114D02*
Y-0009803D01*
X-0016841Y-0009931D01*
Y-0012963D01*
X-0016949Y-0013071D01*
X-0017037D01*
X-0017096Y-0013130D01*
Y-0013829D01*
X-0010374Y-0020551D01*
X-0016969Y-0009114D02*
X-0016841Y-0008986D01*
Y0001161D01*
X-0016969Y0001289D01*
Y0001988D01*
X-0005866Y-0009114D02*
X-0005738Y-0008986D01*
Y0001142D01*
X-0005866Y0001270D01*
Y0001988D01*
X0005236Y-0009114D02*
X0005364Y-0008986D01*
Y0001457D01*
X0005236Y0001585D01*
Y0001988D01*
X0016339Y-0009114D02*
X0016467Y-0008986D01*
Y0001161D01*
X0016339Y0001289D01*
Y0001988D01*
X-0016959Y0024193D02*
Y0023839D01*
X-0016841Y0023720D01*
Y0013219D01*
X-0016969Y0013091D01*
X-0005866D02*
X-0005738Y0013219D01*
Y0023435D01*
X-0005866Y0023563D01*
Y0024193D01*
X0005236Y0013091D02*
X0005364Y0013219D01*
Y0023346D01*
X0005236Y0023474D01*
Y0024193D01*
X-0010374Y-0020551D02*
X-0009872Y-0021053D01*
X0003268D01*
X0003789Y-0020531D01*
X0006919D01*
X0007093Y-0020705D01*
X0007933D01*
X0014488Y-0021240D02*
X0014665Y-0021063D01*
X0017677D01*
X0018041Y-0021427D01*
X0019577D01*
X0019931Y-0021073D01*
Y-0019478D01*
X0019567Y-0019114D01*
X0017224Y-0019882D02*
X0018071D01*
X0018248Y-0020059D01*
X-0017913Y-0013839D02*
X-0018041Y-0013967D01*
Y-0015138D01*
X-0018278Y-0015374D01*
X-0020974D01*
X-0022677Y-0013671D01*
Y-0006467D01*
X-0021644Y-0005433D01*
Y0001285D01*
X-0022126Y0001768D01*
X-0016969Y0008996D02*
X-0016781Y0009183D01*
Y0024321D01*
X-0016969Y0024508D01*
X0017303Y-0021476D02*
X0015266Y-0023514D01*
X0013947D01*
X0013760Y-0023701D01*
X0013484D01*
X0013287Y-0023504D01*
X0005955D01*
X0004193Y-0021742D01*
X-0004951D01*
X-0005187Y-0021978D01*
Y-0021988D01*
X-0019803Y0007421D02*
X-0019961Y0007579D01*
Y0025925D01*
X-0019803Y0026083D01*
X0018780Y-0021201D02*
X0018228D01*
X0016063Y-0019035D01*
Y-0016752D01*
X-0019488Y0007736D02*
X-0019616Y0007864D01*
Y0025640D01*
X-0019488Y0025768D01*
X0017224Y-0019291D02*
X0017421D01*
X0017480Y-0019232D01*
X0018366D01*
X0018661Y-0019528D01*
Y-0020236D01*
X0018248Y-0020650D01*
X0017224Y-0019094D02*
X0018386D01*
X0018780Y-0019488D01*
Y-0020610D01*
X0018976Y-0020807D01*
Y-0021201D01*
X0018228Y0007736D02*
X0018415Y0007923D01*
Y0025581D01*
X0018228Y0025768D01*
X-0006496Y0008996D02*
X-0006368Y0009124D01*
Y0015384D01*
X-0006417Y0015433D01*
Y0016122D01*
X-0006368Y0016171D01*
Y0024380D01*
X-0006496Y0024508D01*
X-0008071Y0007736D02*
X-0008199Y0007864D01*
Y0015423D01*
X-0008287Y0015512D01*
Y0017992D01*
X-0008199Y0018081D01*
Y0025640D01*
X-0008071Y0025768D01*
X0008071Y0007421D02*
X0008258Y0007608D01*
Y0015384D01*
X0008346Y0015472D01*
Y0018051D01*
X0008258Y0018140D01*
Y0025896D01*
X0008071Y0026083D01*
X-0008386Y0007421D02*
X-0008573Y0007608D01*
Y0025896D01*
X-0008386Y0026083D01*
X0016339Y0013091D02*
X0016467Y0013219D01*
Y0023415D01*
X0016339Y0023543D01*
Y0024193D01*
X-0006496Y-0013524D02*
X-0006309Y-0013337D01*
Y-0006781D01*
X-0006358Y-0006732D01*
Y-0006122D01*
X-0006309Y-0006073D01*
Y0002431D01*
X-0006496Y0002618D01*
X-0019488Y-0014783D02*
X-0019675Y-0014596D01*
Y0003691D01*
X-0019488Y0003878D01*
X0018051Y-0018366D02*
X0018268D01*
X0018425Y-0018524D01*
X0019016D01*
X0019370Y-0018878D01*
Y-0019114D01*
X-0003976Y-0013524D02*
X-0003848Y-0013396D01*
Y0002490D01*
X-0003976Y0002618D01*
X-0018228Y-0013524D02*
X-0018356Y-0013396D01*
Y0002490D01*
X-0018228Y0002618D01*
X0016339Y-0013209D02*
X0016526Y-0013022D01*
Y0002116D01*
X0016339Y0002303D01*
X-0022638Y0021043D02*
Y0016248D01*
X-0023126Y0015760D01*
X-0003976Y0007736D02*
X-0003789Y0007923D01*
Y0025581D01*
X-0003976Y0025768D01*
X-0004921Y-0013524D02*
X-0005108Y-0013337D01*
Y0002431D01*
X-0004921Y0002618D01*
X-0007126Y-0014469D02*
X-0007313Y-0014281D01*
Y0003376D01*
X-0007126Y0003563D01*
X-0016969Y-0013209D02*
X-0016781Y-0013022D01*
Y0002116D01*
X-0016969Y0002303D01*
X-0003976Y-0013209D02*
X-0004104Y-0013081D01*
Y-0006486D01*
X-0004016Y-0006398D01*
Y-0006122D01*
X-0004104Y-0006033D01*
Y0002175D01*
X-0003976Y0002303D01*
X-0007618Y-0017874D02*
X-0006339Y-0019154D01*
X-0001752D01*
X0000945Y-0016457D01*
X0009980D01*
X0011486Y-0014951D01*
Y0015531D01*
X0010581Y0016437D01*
Y0019774D01*
X0009469Y0020886D01*
X0009183D01*
X0009026Y0021043D01*
X-0015394Y0007736D02*
X-0015581Y0007923D01*
Y0025581D01*
X-0015394Y0025768D01*
X-0015709Y-0013524D02*
X-0015896Y-0013337D01*
Y-0006447D01*
X-0015846Y-0006398D01*
Y-0006122D01*
X-0015896Y-0006073D01*
Y0002431D01*
X-0015709Y0002618D01*
X0016024Y0002303D02*
Y0002205D01*
X0016152Y0002077D01*
Y-0012972D01*
X0016024Y-0013100D01*
Y-0013209D01*
X-0008071Y-0014783D02*
X-0008258Y-0014596D01*
Y-0006821D01*
X-0008346Y-0006732D01*
Y-0004173D01*
X-0008258Y-0004085D01*
Y0003691D01*
X-0008071Y0003878D01*
X-0002717Y-0014783D02*
X-0002530Y-0014596D01*
Y0003691D01*
X-0002717Y0003878D01*
X-0018228Y0007421D02*
X-0018041Y0007608D01*
Y0015423D01*
X-0018130Y0015512D01*
Y0016083D01*
X-0018041Y0016171D01*
Y0025896D01*
X-0018228Y0026083D01*
X-0016024Y-0013524D02*
X-0016211Y-0013337D01*
Y0002431D01*
X-0016024Y0002618D01*
X0006811Y-0014469D02*
X0006624Y-0014281D01*
Y0003376D01*
X0006811Y0003563D01*
X0017283Y-0013209D02*
Y-0013100D01*
X0017156Y-0012972D01*
Y0002175D01*
X0017283Y0002303D01*
X0006496Y0008681D02*
X0006309Y0008868D01*
Y0015758D01*
X0006358Y0015807D01*
Y0016083D01*
X0006309Y0016132D01*
Y0024636D01*
X0006496Y0024823D01*
X0003031Y-0014783D02*
X0002844Y-0014596D01*
Y-0006821D01*
X0002756Y-0006732D01*
Y-0004173D01*
X0002844Y-0004085D01*
Y0003691D01*
X0003031Y0003878D01*
X-0018543Y-0013524D02*
X-0018671Y-0013396D01*
Y0002490D01*
X-0018543Y0002618D01*
X-0017598Y-0013524D02*
X-0017411Y-0013337D01*
Y-0006781D01*
X-0017461Y-0006732D01*
Y-0006122D01*
X-0017411Y-0006073D01*
Y0002431D01*
X-0017598Y0002618D01*
X0002720Y0034945D02*
X0006870Y0030795D01*
Y0029439D01*
X0009291Y0027018D01*
Y0026673D01*
X0009419Y0026545D01*
X0011417D01*
X0011673Y0026801D01*
X-0003346Y-0013524D02*
X-0003219Y-0013396D01*
Y0002490D01*
X-0003346Y0002618D01*
X0018543Y-0014783D02*
X0018701Y-0014626D01*
X0018937D01*
X0019045Y-0014518D01*
Y0003612D01*
X0018937Y0003720D01*
X0018701D01*
X0018543Y0003878D01*
X0006811Y0009311D02*
Y0009183D01*
X0006939Y0009055D01*
Y0007549D01*
X0005994Y0006604D01*
Y0002224D01*
X0005738Y0001969D01*
Y-0001654D01*
X0005866Y-0001781D01*
Y-0001791D01*
X-0007126Y0007736D02*
X-0007313Y0007923D01*
Y0025581D01*
X-0007126Y0025768D01*
X0003976Y-0013209D02*
X0004104Y-0013081D01*
Y-0006821D01*
X0004016Y-0006732D01*
Y-0006083D01*
X0004104Y-0005994D01*
Y0002175D01*
X0003976Y0002303D01*
X0004921Y-0013524D02*
X0005049Y-0013396D01*
Y-0013091D01*
X0005108Y-0013031D01*
Y0002116D01*
X0005049Y0002175D01*
Y0002490D01*
X0004921Y0002618D01*
X-0008701Y-0014783D02*
X-0008858Y-0014626D01*
Y0003720D01*
X-0008701Y0003878D01*
X0013819Y-0014469D02*
X0013691Y-0014341D01*
Y0003435D01*
X0013819Y0003563D01*
X0014134Y-0014469D02*
X0014006Y-0014341D01*
Y-0006781D01*
X0013917Y-0006693D01*
Y-0004213D01*
X0014006Y-0004124D01*
Y0003435D01*
X0014134Y0003563D01*
X0001417Y0022933D02*
X-0001329Y0020187D01*
Y-0015463D01*
X-0003366Y-0017500D01*
Y-0017874D01*
X0009557Y-0001476D02*
X0010138Y-0002057D01*
Y-0008819D01*
X0010157Y-0008839D01*
Y-0015236D01*
X0009567Y-0015827D01*
X0000787D01*
X-0002037Y-0018652D01*
X-0006211D01*
X-0006988Y-0017874D01*
X-0007126Y-0013209D02*
X-0006998Y-0013081D01*
Y-0006821D01*
X-0007087Y-0006732D01*
Y-0006083D01*
X-0006998Y-0005994D01*
Y0002175D01*
X-0007126Y0002303D01*
X-0005866Y-0013209D02*
X-0005679Y-0013022D01*
Y0002116D01*
X-0005866Y0002303D01*
X0017598Y-0013209D02*
Y-0013071D01*
X0017470Y-0012943D01*
Y-0006486D01*
X0017520Y-0006437D01*
Y-0006083D01*
X0017470Y-0006033D01*
Y0002175D01*
X0017598Y0002303D01*
X0018543Y-0014469D02*
X0018730Y-0014281D01*
Y0003376D01*
X0018543Y0003563D01*
X-0014134Y0007421D02*
X-0013947Y0007608D01*
Y0015384D01*
X-0013858Y0015472D01*
Y0018051D01*
X-0013947Y0018140D01*
Y0025896D01*
X-0014134Y0026083D01*
X-0019173Y0007421D02*
X-0019360Y0007608D01*
Y0015384D01*
X-0019449Y0015472D01*
Y0018031D01*
X-0019360Y0018120D01*
Y0025896D01*
X-0019173Y0026083D01*
X0014449Y-0013524D02*
X0014321Y-0013396D01*
Y0002490D01*
X0014449Y0002618D01*
X-0007441Y-0014469D02*
X-0007628Y-0014281D01*
Y0003376D01*
X-0007441Y0003563D01*
X0006496Y-0013209D02*
Y-0013071D01*
X0006368Y-0012943D01*
Y-0006486D01*
X0006417Y-0006437D01*
Y-0006083D01*
X0006368Y-0006033D01*
Y0002175D01*
X0006496Y0002303D01*
X0019173Y-0014783D02*
X0019360Y-0014596D01*
Y-0006821D01*
X0019449Y-0006732D01*
Y-0004154D01*
X0019360Y-0004065D01*
Y0003691D01*
X0019173Y0003878D01*
X-0015709Y0008681D02*
X-0015896Y0008868D01*
Y0015758D01*
X-0015846Y0015807D01*
Y0016083D01*
X-0015896Y0016132D01*
Y0024636D01*
X-0015709Y0024823D01*
X0014764Y-0014783D02*
X0014606Y-0014626D01*
X0014370D01*
X0014262Y-0014518D01*
Y0003652D01*
X0014331Y0003720D01*
X0014606D01*
X0014764Y0003878D01*
X-0015079Y-0014783D02*
X-0015266Y-0014596D01*
Y-0006447D01*
X-0015177Y-0006358D01*
Y-0006161D01*
X-0015266Y-0006073D01*
Y0003691D01*
X-0015079Y0003878D01*
X0015079Y-0013209D02*
X0015207Y-0013081D01*
Y-0006821D01*
X0015118Y-0006732D01*
Y-0006083D01*
X0015207Y-0005994D01*
Y0002175D01*
X0015079Y0002303D01*
X0006811Y0008996D02*
X0006683Y0009124D01*
Y0024380D01*
X0006811Y0024508D01*
X-0003661Y0007421D02*
X-0003504Y0007579D01*
X-0003268D01*
X-0003159Y0007687D01*
Y0025817D01*
X-0003268Y0025925D01*
X-0003504D01*
X-0003661Y0026083D01*
X0013819Y0007421D02*
X0013632Y0007608D01*
Y0025896D01*
X0013819Y0026083D01*
X-0004291Y-0013209D02*
X-0004419Y-0013081D01*
Y0002175D01*
X-0004291Y0002303D01*
X0015079Y-0014469D02*
X0014892Y-0014281D01*
Y0003376D01*
X0015079Y0003563D01*
X0018228Y-0014469D02*
X0018415Y-0014281D01*
Y0003376D01*
X0018228Y0003563D01*
X-0013819Y0007736D02*
X-0013691Y0007864D01*
Y0025640D01*
X-0013819Y0025768D01*
X0014764Y0007421D02*
X0014606Y0007579D01*
X0014370D01*
X0014262Y0007687D01*
Y0025856D01*
X0014331Y0025925D01*
X0014606D01*
X0014764Y0026083D01*
X0015079Y0007421D02*
X0015266Y0007608D01*
Y0015423D01*
X0015177Y0015512D01*
Y0016083D01*
X0015266Y0016171D01*
Y0025896D01*
X0015079Y0026083D01*
X-0010374Y-0020551D02*
X-0008445Y-0018622D01*
Y-0018130D01*
X-0006791Y-0016476D01*
X0014764Y-0014469D02*
X0014577Y-0014281D01*
Y0003376D01*
X0014764Y0003563D01*
X0002717Y-0014469D02*
X0002589Y-0014341D01*
Y0003435D01*
X0002717Y0003563D01*
X-0018543Y0003878D02*
X-0018701Y0003720D01*
X-0018976D01*
X-0019045Y0003652D01*
Y-0013494D01*
X-0018986Y-0013553D01*
Y-0014577D01*
X-0018937Y-0014626D01*
X-0018701D01*
X-0018543Y-0014783D01*
X-0013504Y0007421D02*
X-0013346Y0007579D01*
Y0025925D01*
X-0013504Y0026083D01*
X-0018228Y-0013209D02*
X-0018100Y-0013081D01*
Y-0006821D01*
X-0018189Y-0006732D01*
Y-0006083D01*
X-0018100Y-0005994D01*
Y0002175D01*
X-0018228Y0002303D01*
X-0009094Y-0006703D02*
X-0009803Y-0007411D01*
Y-0017067D01*
X-0009626Y-0017244D01*
Y-0017874D01*
X0017283Y0002618D02*
X0017096Y0002431D01*
Y-0013022D01*
X0017156Y-0013081D01*
Y-0013396D01*
X0017283Y-0013524D01*
X-0006181Y0002303D02*
Y0002165D01*
X-0006053Y0002037D01*
Y-0012963D01*
X-0006181Y-0013091D01*
Y-0013209D01*
X-0007126Y-0013524D02*
X-0007254Y-0013396D01*
Y0002490D01*
X-0007126Y0002618D01*
X-0017283Y0002303D02*
Y0002175D01*
X-0017156Y0002047D01*
Y-0012953D01*
X-0017283Y-0013081D01*
Y-0013209D01*
X-0020787Y-0006722D02*
Y-0006427D01*
X-0020276Y-0005915D01*
Y-0005226D01*
X-0020561Y-0004941D01*
Y0005138D01*
X-0020315Y0005384D01*
Y0005797D01*
X-0020561Y0006043D01*
Y0010195D01*
X-0022126Y0011760D01*
X0017224Y-0018110D02*
X0017539D01*
X0018051Y-0018622D01*
X0018996D01*
X0019193Y-0018819D01*
Y-0019232D01*
X0019783Y-0019823D01*
Y-0020728D01*
X0019567Y-0020945D01*
Y-0021201D01*
X-0004931Y-0013839D02*
X-0005512Y-0014419D01*
X-0005856D01*
X-0009311Y-0017874D01*
X0015394Y0008996D02*
X0015522Y0009124D01*
Y0024380D01*
X0015394Y0024508D01*
X0014134Y0007736D02*
X0014006Y0007864D01*
Y0015423D01*
X0013917Y0015512D01*
Y0017992D01*
X0014006Y0018081D01*
Y0025640D01*
X0014134Y0025768D01*
X0017913Y-0014469D02*
X0017726Y-0014281D01*
Y0003376D01*
X0017913Y0003563D01*
X0018543Y0007421D02*
X0018701Y0007579D01*
X0018937D01*
X0019045Y0007687D01*
Y0025817D01*
X0018937Y0025925D01*
X0018701D01*
X0018543Y0026083D01*
X0019488Y0007421D02*
X0019675Y0007608D01*
Y0025896D01*
X0019488Y0026083D01*
X-0007441Y-0013524D02*
X-0007569Y-0013396D01*
Y0002490D01*
X-0007441Y0002618D01*
X0001772Y0000728D02*
X-0000295Y-0001339D01*
Y-0015197D01*
X-0002736Y-0017638D01*
Y-0017874D01*
X0014449Y0008681D02*
X0014321Y0008809D01*
Y0024695D01*
X0014449Y0024823D01*
X-0004291Y-0014469D02*
X-0004478Y-0014281D01*
Y0003376D01*
X-0004291Y0003563D01*
X0001722Y-0010374D02*
X0001024Y-0011073D01*
Y-0014252D01*
X-0002421Y-0017697D01*
Y-0017874D01*
X0003661Y0008681D02*
X0003533Y0008809D01*
Y0024695D01*
X0003661Y0024823D01*
X0004606Y0008996D02*
X0004734Y0009124D01*
Y0015384D01*
X0004685Y0015433D01*
Y0016122D01*
X0004734Y0016171D01*
Y0024380D01*
X0004606Y0024508D01*
X-0012628Y-0003366D02*
Y-0004006D01*
X-0013110Y-0004488D01*
Y-0006535D01*
X-0012539Y-0007106D01*
Y-0009705D01*
X-0012165Y-0010079D01*
Y-0017037D01*
X-0011555Y-0017648D01*
Y-0017874D01*
X-0021339Y-0006722D02*
Y-0006506D01*
X-0020797Y-0005965D01*
Y0009026D01*
X-0021093Y0009321D01*
X-0022343D01*
X-0022648Y0009626D01*
Y0010281D01*
X-0023126Y0010760D01*
X0019803Y0007421D02*
X0019961Y0007579D01*
Y0025925D01*
X0019803Y0026083D01*
X-0015079Y-0014469D02*
X-0014892Y-0014281D01*
Y0003376D01*
X-0015079Y0003563D01*
X0015079Y0008996D02*
X0015207Y0009124D01*
Y0015384D01*
X0015118Y0015472D01*
Y0016122D01*
X0015207Y0016211D01*
Y0024380D01*
X0015079Y0024508D01*
X0016969Y-0012894D02*
Y-0013002D01*
X0017096Y-0013130D01*
Y-0015167D01*
X0014783Y-0017480D01*
Y-0017805D01*
X0013494Y-0019094D01*
Y-0021683D01*
X0013346Y-0021831D01*
X0010915D01*
X0003661Y0007736D02*
X0003474Y0007923D01*
Y0025581D01*
X0003661Y0025768D01*
X0013504Y0007421D02*
X0013346Y0007579D01*
Y0025925D01*
X0013504Y0026083D01*
X-0021063Y-0006722D02*
Y-0006476D01*
X-0020413Y-0005827D01*
Y-0005305D01*
X-0020679Y-0005039D01*
Y0005236D01*
X-0020433Y0005482D01*
Y0005719D01*
X-0020679Y0005965D01*
Y0009313D01*
X-0022126Y0010760D01*
X-0017598Y-0013209D02*
X-0017470Y-0013081D01*
Y-0006821D01*
X-0017520Y-0006772D01*
Y-0006083D01*
X-0017470Y-0006033D01*
Y0002175D01*
X-0017598Y0002303D01*
X0007441Y0007421D02*
X0007598Y0007579D01*
X0007835D01*
X0007943Y0007687D01*
Y0025817D01*
X0007835Y0025925D01*
X0007598D01*
X0007441Y0026083D01*
X0018543Y0008681D02*
X0018671Y0008809D01*
Y0024695D01*
X0018543Y0024823D01*
X0014764Y0007736D02*
X0014577Y0007923D01*
Y0025581D01*
X0014764Y0025768D01*
X0006181Y0008996D02*
X0006053Y0009124D01*
Y0024380D01*
X0006181Y0024508D01*
X0018228Y0007421D02*
X0018041Y0007608D01*
Y0015758D01*
X0018130Y0015846D01*
Y0016043D01*
X0018041Y0016132D01*
Y0025896D01*
X0018228Y0026083D01*
X0019173Y-0021201D02*
Y-0020866D01*
X0019232Y-0020807D01*
Y-0019783D01*
X0018425Y-0018976D01*
X0017539D01*
X0017461Y-0018898D01*
X0017224D01*
X-0016024Y0008996D02*
X-0016152Y0009124D01*
Y0024380D01*
X-0016024Y0024508D01*
X-0001720Y0034945D02*
X-0002266Y0034400D01*
X-0002559D01*
X-0005522Y0031437D01*
X-0006161D01*
X-0010955Y0026644D01*
X-0012254D01*
X-0012441Y0026831D01*
X-0018543Y0007736D02*
X-0018730Y0007923D01*
Y0025581D01*
X-0018543Y0025768D01*
X-0015394Y0008996D02*
X-0015522Y0009124D01*
Y0024380D01*
X-0015394Y0024508D01*
X0008701Y0007421D02*
X0008858Y0007579D01*
Y0025925D01*
X0008701Y0026083D01*
X0013819Y0007736D02*
X0013691Y0007864D01*
Y0025640D01*
X0013819Y0025768D01*
X-0007126Y0008681D02*
X-0007254Y0008809D01*
Y0024695D01*
X-0007126Y0024823D01*
X-0016024Y0008681D02*
X-0016211Y0008868D01*
Y0024636D01*
X-0016024Y0024823D01*
X-0003661Y0007736D02*
X-0003474Y0007923D01*
Y0025581D01*
X-0003661Y0025768D01*
X0007441Y0007736D02*
X0007628Y0007923D01*
Y0025581D01*
X0007441Y0025768D01*
X0017598Y0008681D02*
X0017411Y0008868D01*
Y0015758D01*
X0017461Y0015807D01*
Y0016083D01*
X0017411Y0016132D01*
Y0024636D01*
X0017598Y0024823D01*
X-0006811Y-0014469D02*
X-0006624Y-0014281D01*
Y0003376D01*
X-0006811Y0003563D01*
Y0007736D02*
X-0006624Y0007923D01*
Y0025581D01*
X-0006811Y0025768D01*
X0007126Y0007736D02*
X0007313Y0007923D01*
Y0025581D01*
X0007126Y0025768D01*
X0008071Y0007736D02*
X0008199Y0007864D01*
Y0015423D01*
X0008287Y0015512D01*
Y0018012D01*
X0008199Y0018100D01*
Y0025640D01*
X0008071Y0025768D01*
X-0006811Y0008996D02*
X-0006683Y0009124D01*
Y0024380D01*
X-0006811Y0024508D01*
X0015709Y0008681D02*
X0015896Y0008868D01*
Y0015423D01*
X0015846Y0015472D01*
Y0016083D01*
X0015896Y0016132D01*
Y0024636D01*
X0015709Y0024823D01*
X0003976Y0007736D02*
X0003789Y0007923D01*
Y0025581D01*
X0003976Y0025768D01*
X-0004606Y0008996D02*
Y0009134D01*
X-0004734Y0009262D01*
Y0015719D01*
X-0004685Y0015768D01*
Y0016122D01*
X-0004734Y0016171D01*
Y0024380D01*
X-0004606Y0024508D01*
X-0013819Y0007421D02*
X-0013632Y0007608D01*
Y0025896D01*
X-0013819Y0026083D01*
Y-0014783D02*
X-0013632Y-0014596D01*
Y0003691D01*
X-0013819Y0003878D01*
X0016024Y-0013524D02*
X0016152Y-0013396D01*
Y-0013091D01*
X0016211Y-0013031D01*
Y0002126D01*
X0016152Y0002185D01*
Y0002490D01*
X0016024Y0002618D01*
X0003661Y-0013524D02*
X0003533Y-0013396D01*
Y0002490D01*
X0003661Y0002618D01*
X-0017283Y-0013524D02*
X-0017156Y-0013396D01*
Y-0013061D01*
X-0017096Y-0013002D01*
Y0002116D01*
X-0017156Y0002175D01*
Y0002490D01*
X-0017283Y0002618D01*
X-0018543Y0007421D02*
X-0018701Y0007579D01*
X-0018937D01*
X-0019045Y0007687D01*
Y0025856D01*
X-0018976Y0025925D01*
X-0018701D01*
X-0018543Y0026083D01*
X-0007441Y0007736D02*
X-0007628Y0007923D01*
Y0025581D01*
X-0007441Y0025768D01*
X-0006181Y0024823D02*
X-0005994Y0024636D01*
Y0009193D01*
X-0006053Y0009134D01*
Y0008809D01*
X-0006181Y0008681D01*
X-0004291Y0008996D02*
X-0004419Y0009124D01*
Y0024380D01*
X-0004291Y0024508D01*
X0019803Y-0014783D02*
X0019961Y-0014626D01*
Y0003720D01*
X0019803Y0003878D01*
X0006496Y-0013524D02*
X0006309Y-0013337D01*
Y-0006447D01*
X0006358Y-0006398D01*
Y-0006122D01*
X0006309Y-0006073D01*
Y0002431D01*
X0006496Y0002618D01*
X-0021201Y-0006939D02*
Y-0006496D01*
X-0020482Y-0005778D01*
Y-0005344D01*
X-0020738Y-0005089D01*
Y0005285D01*
X-0020492Y0005531D01*
Y0005679D01*
X-0020738Y0005925D01*
Y0009193D01*
X-0021305Y0009760D01*
X-0022126D01*
X0017283Y0008996D02*
X0017156Y0009124D01*
Y0024380D01*
X0017283Y0024508D01*
Y0008681D02*
X0017096Y0008868D01*
Y0024636D01*
X0017283Y0024823D01*
X-0003051Y-0017874D02*
Y-0017569D01*
X-0000827Y-0015344D01*
Y0010600D01*
X0001506Y0012933D01*
X-0019803Y-0014783D02*
X-0019990Y-0014596D01*
Y0003691D01*
X-0019803Y0003878D01*
X0004606Y0008681D02*
X0004793Y0008868D01*
Y0015423D01*
X0004744Y0015472D01*
Y0016083D01*
X0004793Y0016132D01*
Y0024636D01*
X0004606Y0024823D01*
X0007756Y0008681D02*
X0007884Y0008809D01*
Y0024695D01*
X0007756Y0024823D01*
X0006811Y0007736D02*
X0006624Y0007923D01*
Y0025581D01*
X0006811Y0025768D01*
X0014134Y-0014783D02*
X0013947Y-0014596D01*
Y-0006821D01*
X0013858Y-0006732D01*
Y-0004173D01*
X0013947Y-0004085D01*
Y0003691D01*
X0014134Y0003878D01*
X0016024Y0008681D02*
X0016152Y0008809D01*
Y0009124D01*
X0016211Y0009183D01*
Y0024311D01*
X0016152Y0024370D01*
Y0024695D01*
X0016024Y0024823D01*
X-0019173Y-0014154D02*
X-0019045Y-0014281D01*
Y-0015059D01*
X-0019183Y-0015197D01*
X-0020433D01*
X-0022116Y-0013514D01*
Y-0013415D01*
X-0022500Y-0013031D01*
Y-0006663D01*
X-0021467Y-0005630D01*
Y0002874D01*
X-0021880Y0003287D01*
X-0022654D01*
X-0023126Y0003760D01*
X-0005551Y0007736D02*
X-0006467Y0006821D01*
X-0009173D01*
X-0009921Y0006073D01*
Y-0004173D01*
X-0009213Y-0004882D01*
Y-0005787D01*
X-0009941Y-0006516D01*
Y-0017874D01*
X-0011240D02*
Y-0017461D01*
X-0011850Y-0016850D01*
Y-0007441D01*
X-0012874Y-0006417D01*
Y-0004764D01*
X-0012500Y-0004390D01*
Y0007638D01*
X0010197Y0026801D02*
X0009754D01*
X0007126Y0029429D01*
Y0031024D01*
X0005650Y0032500D01*
Y0033654D01*
X0006941Y0034945D01*
X0007126Y-0014469D02*
X0007313Y-0014281D01*
Y0003376D01*
X0007126Y0003563D01*
X0017913Y0007736D02*
X0017726Y0007923D01*
Y0025581D01*
X0017913Y0025768D01*
X-0018543Y0008681D02*
X-0018671Y0008809D01*
Y0024695D01*
X-0018543Y0024823D01*
X0007441Y-0013524D02*
X0007569Y-0013396D01*
Y0002490D01*
X0007441Y0002618D01*
X-0004921Y-0013209D02*
X-0005049Y-0013081D01*
Y0002175D01*
X-0004921Y0002303D01*
X0008386Y0007421D02*
X0008573Y0007608D01*
Y0025896D01*
X0008386Y0026083D01*
X-0002717Y0007736D02*
X-0002589Y0007864D01*
Y0025640D01*
X-0002717Y0025768D01*
X-0003976Y-0014783D02*
X-0004163Y-0014596D01*
Y-0006447D01*
X-0004075Y-0006358D01*
Y-0006161D01*
X-0004163Y-0006073D01*
Y0003691D01*
X-0003976Y0003878D01*
X-0004291Y0009311D02*
Y0009193D01*
X-0004163Y0009065D01*
Y0007470D01*
X-0004370Y0007264D01*
X-0004882D01*
X-0005108Y0007490D01*
Y0009065D01*
X-0005197Y0009154D01*
X-0005276D01*
X-0005364Y0009242D01*
Y0020285D01*
X-0005236Y0020413D01*
X0003661Y-0014783D02*
X0003504Y-0014626D01*
X0003268D01*
X0003159Y-0014518D01*
Y0003652D01*
X0003228Y0003720D01*
X0003504D01*
X0003661Y0003878D01*
X-0017283Y0008996D02*
Y0009134D01*
X-0017156Y0009262D01*
Y0024380D01*
X-0017283Y0024508D01*
X0014764Y-0013524D02*
X0014636Y-0013396D01*
Y0002490D01*
X0014764Y0002618D01*
X-0002402Y-0014783D02*
X-0002244Y-0014626D01*
Y0003720D01*
X-0002402Y0003878D01*
X0019488Y-0014469D02*
X0019616Y-0014341D01*
Y0003435D01*
X0019488Y0003563D01*
X-0002717Y0007421D02*
X-0002530Y0007608D01*
Y0025896D01*
X-0002717Y0026083D01*
X0007126Y0008681D02*
X0007254Y0008809D01*
Y0024695D01*
X0007126Y0024823D01*
X-0017913Y0008996D02*
X-0017785Y0009124D01*
Y0024380D01*
X-0017913Y0024508D01*
X-0004291Y0007736D02*
X-0004478Y0007923D01*
Y0025581D01*
X-0004291Y0025768D01*
X0002717Y-0014783D02*
X0002530Y-0014596D01*
Y0003691D01*
X0002717Y0003878D01*
X-0008071Y-0014469D02*
X-0008199Y-0014341D01*
Y-0006781D01*
X-0008287Y-0006693D01*
Y-0004213D01*
X-0008199Y-0004124D01*
Y0003435D01*
X-0008071Y0003563D01*
X-0019173Y-0014469D02*
X-0019301Y-0014341D01*
Y-0006781D01*
X-0019390Y-0006693D01*
Y-0004213D01*
X-0019301Y-0004124D01*
Y0003435D01*
X-0019173Y0003563D01*
X-0004921Y0008996D02*
Y0009134D01*
X-0005049Y0009262D01*
Y0024380D01*
X-0004921Y0024508D01*
X-0004606Y0008681D02*
X-0004793Y0008868D01*
Y0015758D01*
X-0004744Y0015807D01*
Y0016083D01*
X-0004793Y0016132D01*
Y0024636D01*
X-0004606Y0024823D01*
X-0007441Y0007421D02*
X-0007598Y0007579D01*
X-0007835D01*
X-0007943Y0007687D01*
Y0025856D01*
X-0007874Y0025925D01*
X-0007598D01*
X-0007441Y0026083D01*
X0003976Y0008996D02*
X0004104Y0009124D01*
Y0015384D01*
X0004016Y0015472D01*
Y0016122D01*
X0004104Y0016211D01*
Y0024380D01*
X0003976Y0024508D01*
X-0018228Y-0014469D02*
X-0018415Y-0014281D01*
Y0003376D01*
X-0018228Y0003563D01*
X-0002402Y0007421D02*
X-0002244Y0007579D01*
Y0025925D01*
X-0002402Y0026083D01*
X-0015709Y0008996D02*
Y0009134D01*
X-0015837Y0009262D01*
Y0015719D01*
X-0015787Y0015768D01*
Y0016122D01*
X-0015837Y0016171D01*
Y0024380D01*
X-0015709Y0024508D01*
X-0003976Y0008681D02*
X-0003848Y0008809D01*
Y0024695D01*
X-0003976Y0024823D01*
X-0003661Y0008681D02*
X-0003533Y0008809D01*
Y0024695D01*
X-0003661Y0024823D01*
X-0014449Y0008681D02*
X-0014321Y0008809D01*
Y0024695D01*
X-0014449Y0024823D01*
X-0003976Y0026083D02*
X-0004163Y0025896D01*
Y0016132D01*
X-0004075Y0016043D01*
Y0015846D01*
X-0004163Y0015758D01*
Y0009173D01*
X-0004104Y0009114D01*
Y0007549D01*
X-0003976Y0007421D01*
X0003976D02*
X0004163Y0007608D01*
Y0015423D01*
X0004075Y0015512D01*
Y0016083D01*
X0004163Y0016171D01*
Y0025896D01*
X0003976Y0026083D01*
X-0017598Y0008681D02*
X-0017411Y0008868D01*
Y0015423D01*
X-0017461Y0015472D01*
Y0016083D01*
X-0017411Y0016132D01*
Y0024636D01*
X-0017598Y0024823D01*
X-0019173Y-0014783D02*
X-0019360Y-0014596D01*
Y-0006821D01*
X-0019449Y-0006732D01*
Y-0004173D01*
X-0019360Y-0004085D01*
Y0003691D01*
X-0019173Y0003878D01*
X0003346Y0008681D02*
X0003219Y0008809D01*
Y0024695D01*
X0003346Y0024823D01*
X0004291Y-0014469D02*
X0004478Y-0014281D01*
Y0003376D01*
X0004291Y0003563D01*
X0013504Y-0014783D02*
X0013346Y-0014626D01*
Y0003720D01*
X0013504Y0003878D01*
X0018543Y-0013524D02*
X0018671Y-0013396D01*
Y0002490D01*
X0018543Y0002618D01*
X-0015079Y0007421D02*
X-0015266Y0007608D01*
Y0015758D01*
X-0015177Y0015846D01*
Y0016043D01*
X-0015266Y0016132D01*
Y0025896D01*
X-0015079Y0026083D01*
X-0006181Y0008996D02*
Y0009114D01*
X-0006053Y0009242D01*
Y0024380D01*
X-0006181Y0024508D01*
X-0017283Y0024823D02*
X-0017096Y0024636D01*
Y0009203D01*
X-0017156Y0009144D01*
Y0008809D01*
X-0017283Y0008681D01*
X0013819Y-0014783D02*
X0013632Y-0014596D01*
Y0003691D01*
X0013819Y0003878D01*
X-0006181Y-0013524D02*
X-0006053Y-0013396D01*
Y-0013081D01*
X-0005994Y-0013022D01*
Y0002067D01*
X-0006053Y0002126D01*
Y0002490D01*
X-0006181Y0002618D01*
X-0009675Y0018839D02*
X-0010630Y0017884D01*
Y-0017185D01*
X-0010256Y-0017559D01*
Y-0017874D01*
X-0018228Y0003878D02*
X-0018041Y0003691D01*
Y-0006033D01*
X-0018130Y-0006122D01*
Y-0006693D01*
X-0018041Y-0006781D01*
Y-0013159D01*
X-0018100Y-0013219D01*
Y-0014656D01*
X-0018228Y-0014783D01*
X0008071D02*
X0008258Y-0014596D01*
Y-0006821D01*
X0008346Y-0006732D01*
Y-0004154D01*
X0008258Y-0004065D01*
Y0003691D01*
X0008071Y0003878D01*
X-0015079Y-0013524D02*
X-0014951Y-0013396D01*
Y0002490D01*
X-0015079Y0002618D01*
X-0003031Y-0014469D02*
X-0002904Y-0014341D01*
Y-0006781D01*
X-0002815Y-0006693D01*
Y-0004193D01*
X-0002904Y-0004104D01*
Y0003435D01*
X-0003031Y0003563D01*
X-0005236Y0008996D02*
X-0005423Y0009183D01*
Y0024321D01*
X-0005236Y0024508D01*
X-0015079Y0007736D02*
X-0014892Y0007923D01*
Y0025581D01*
X-0015079Y0025768D01*
X-0014764Y0007421D02*
X-0014606Y0007579D01*
X-0014370D01*
X-0014262Y0007687D01*
Y0025817D01*
X-0014370Y0025925D01*
X-0014606D01*
X-0014764Y0026083D01*
X-0008071Y0007421D02*
X-0008258Y0007608D01*
Y0015384D01*
X-0008346Y0015472D01*
Y0018031D01*
X-0008258Y0018120D01*
Y0025896D01*
X-0008071Y0026083D01*
X-0007756Y-0013524D02*
X-0007884Y-0013396D01*
Y0002490D01*
X-0007756Y0002618D01*
X-0018858Y-0013524D02*
X-0018986Y-0013396D01*
Y0002490D01*
X-0018858Y0002618D01*
X0004291Y0008996D02*
X0004419Y0009124D01*
Y0024380D01*
X0004291Y0024508D01*
X-0016024Y-0013209D02*
X-0016152Y-0013081D01*
Y0002175D01*
X-0016024Y0002303D01*
X-0003031Y0007421D02*
X-0002844Y0007608D01*
Y0015384D01*
X-0002756Y0015472D01*
Y0018051D01*
X-0002844Y0018140D01*
Y0025896D01*
X-0003031Y0026083D01*
X-0007756Y0008681D02*
X-0007884Y0008809D01*
Y0024695D01*
X-0007756Y0024823D01*
X0009016Y0009941D02*
X0009173Y0009783D01*
X0009675D01*
X0010659Y0008799D01*
Y-0015246D01*
X0009764Y-0016142D01*
X0000866D01*
X-0001919Y-0018927D01*
X-0006250D01*
X-0007303Y-0017874D01*
X-0014134Y0007736D02*
X-0014006Y0007864D01*
Y0015423D01*
X-0013917Y0015512D01*
Y0018012D01*
X-0014006Y0018100D01*
Y0025640D01*
X-0014134Y0025768D01*
X0005236Y0008996D02*
X0005423Y0009183D01*
Y0024321D01*
X0005236Y0024508D01*
X0015079Y-0014783D02*
X0015266Y-0014596D01*
Y-0006781D01*
X0015177Y-0006693D01*
Y-0006122D01*
X0015266Y-0006033D01*
Y0003691D01*
X0015079Y0003878D01*
X-0015709Y-0013209D02*
Y-0013071D01*
X-0015837Y-0012943D01*
Y-0006486D01*
X-0015787Y-0006437D01*
Y-0006083D01*
X-0015837Y-0006033D01*
Y0002175D01*
X-0015709Y0002303D01*
X0018543Y0007736D02*
X0018730Y0007923D01*
Y0025581D01*
X0018543Y0025768D01*
X0016969Y-0013209D02*
X0016811Y-0013051D01*
Y0002146D01*
X0016969Y0002303D01*
X-0005941Y0034945D02*
Y0034917D01*
X-0005591Y0034567D01*
Y0032205D01*
X-0010965Y0026831D01*
X-0003661Y-0014783D02*
X-0003504Y-0014626D01*
X-0003268D01*
X-0003159Y-0014518D01*
Y0003612D01*
X-0003268Y0003720D01*
X-0003504D01*
X-0003661Y0003878D01*
X0018228Y-0013209D02*
X0018100Y-0013081D01*
Y-0006486D01*
X0018189Y-0006398D01*
Y-0006122D01*
X0018100Y-0006033D01*
Y0002175D01*
X0018228Y0002303D01*
X0002402Y-0014783D02*
X0002244Y-0014626D01*
Y0003720D01*
X0002402Y0003878D01*
X-0021772Y-0006939D02*
Y-0006575D01*
X-0021171Y-0005974D01*
Y0006805D01*
X-0022126Y0007760D01*
X-0015079Y-0013209D02*
X-0015207Y-0013081D01*
Y-0006486D01*
X-0015118Y-0006398D01*
Y-0006122D01*
X-0015207Y-0006033D01*
Y0002175D01*
X-0015079Y0002303D01*
X-0003976Y0008996D02*
Y0009114D01*
X-0004104Y0009242D01*
Y0015719D01*
X-0004016Y0015807D01*
Y0016083D01*
X-0004104Y0016171D01*
Y0024380D01*
X-0003976Y0024508D01*
X-0006496Y0008681D02*
X-0006309Y0008868D01*
Y0015423D01*
X-0006358Y0015472D01*
Y0016083D01*
X-0006309Y0016132D01*
Y0024636D01*
X-0006496Y0024823D01*
X0017224Y-0019685D02*
X0017972D01*
X0018130Y-0019528D01*
X0018346D01*
X0018465Y-0019646D01*
Y-0020039D01*
X0018248Y-0020256D01*
X-0017913Y-0013209D02*
X-0017785Y-0013081D01*
Y0002175D01*
X-0017913Y0002303D01*
X0007126Y-0013524D02*
X0007254Y-0013396D01*
Y0002490D01*
X0007126Y0002618D01*
X-0005866Y0008996D02*
X-0005679Y0009183D01*
Y0024321D01*
X-0005866Y0024508D01*
X0003976Y-0014469D02*
X0003789Y-0014281D01*
Y0003376D01*
X0003976Y0003563D01*
X-0007126Y0007421D02*
X-0006939Y0007608D01*
Y0015423D01*
X-0007028Y0015512D01*
Y0016083D01*
X-0006939Y0016171D01*
Y0025896D01*
X-0007126Y0026083D01*
Y0008996D02*
X-0006998Y0009124D01*
Y0015384D01*
X-0007087Y0015472D01*
Y0016122D01*
X-0006998Y0016211D01*
Y0024380D01*
X-0007126Y0024508D01*
X-0003031Y0007736D02*
X-0002904Y0007864D01*
Y0015423D01*
X-0002815Y0015512D01*
Y0018012D01*
X-0002904Y0018100D01*
Y0025640D01*
X-0003031Y0025768D01*
X0017913Y-0013209D02*
X0017785Y-0013081D01*
Y0002175D01*
X0017913Y0002303D01*
X0008386Y0007736D02*
X0008514Y0007864D01*
Y0025640D01*
X0008386Y0025768D01*
X-0008386Y0007736D02*
X-0008514Y0007864D01*
Y0025640D01*
X-0008386Y0025768D01*
X0007756Y-0013524D02*
X0007884Y-0013396D01*
Y0002490D01*
X0007756Y0002618D01*
X-0008701Y0007421D02*
X-0008858Y0007579D01*
Y0025925D01*
X-0008701Y0026083D01*
X-0003346Y0008681D02*
X-0003219Y0008809D01*
Y0024695D01*
X-0003346Y0024823D01*
X0006496Y0008996D02*
Y0009134D01*
X0006368Y0009262D01*
Y0015719D01*
X0006417Y0015768D01*
Y0016122D01*
X0006368Y0016171D01*
Y0024380D01*
X0006496Y0024508D01*
X0016969Y0008996D02*
X0016811Y0009154D01*
Y0024350D01*
X0016969Y0024508D01*
X-0007441Y0008681D02*
X-0007569Y0008809D01*
Y0024695D01*
X-0007441Y0024823D01*
X-0013504Y-0014783D02*
X-0013346Y-0014626D01*
Y0003720D01*
X-0013504Y0003878D01*
X-0003661Y-0013524D02*
X-0003533Y-0013396D01*
Y0002490D01*
X-0003661Y0002618D01*
X0016024Y0024508D02*
Y0024370D01*
X0016152Y0024242D01*
Y0009232D01*
X0016024Y0009104D01*
Y0008996D01*
X0018228Y-0013524D02*
X0018356Y-0013396D01*
Y0002490D01*
X0018228Y0002618D01*
X-0014764Y-0014469D02*
X-0014577Y-0014281D01*
Y0003376D01*
X-0014764Y0003563D01*
Y0007736D02*
X-0014577Y0007923D01*
Y0025581D01*
X-0014764Y0025768D01*
X0019173Y0007736D02*
X0019301Y0007864D01*
Y0015423D01*
X0019390Y0015512D01*
Y0018012D01*
X0019301Y0018100D01*
Y0025640D01*
X0019173Y0025768D01*
X-0008386Y-0014469D02*
X-0008514Y-0014341D01*
Y0003435D01*
X-0008386Y0003563D01*
X0015709Y0008996D02*
X0015837Y0009124D01*
Y0015384D01*
X0015787Y0015433D01*
Y0016122D01*
X0015837Y0016171D01*
Y0024380D01*
X0015709Y0024508D01*
X0003031Y0007421D02*
X0002844Y0007608D01*
Y0015384D01*
X0002756Y0015472D01*
Y0018031D01*
X0002844Y0018120D01*
Y0025896D01*
X0003031Y0026083D01*
X-0003661Y-0014469D02*
X-0003474Y-0014281D01*
Y0003376D01*
X-0003661Y0003563D01*
X0015709Y-0013209D02*
X0015837Y-0013081D01*
Y-0006821D01*
X0015787Y-0006772D01*
Y-0006083D01*
X0015837Y-0006033D01*
Y0002175D01*
X0015709Y0002303D01*
X-0014764Y0008681D02*
X-0014636Y0008809D01*
Y0024695D01*
X-0014764Y0024823D01*
X-0017598Y0008996D02*
X-0017470Y0009124D01*
Y0015384D01*
X-0017520Y0015433D01*
Y0016122D01*
X-0017470Y0016171D01*
Y0024380D01*
X-0017598Y0024508D01*
X0008386Y-0014469D02*
X0008514Y-0014341D01*
Y0003435D01*
X0008386Y0003563D01*
X0003976Y0008681D02*
X0003848Y0008809D01*
Y0024695D01*
X0003976Y0024823D01*
X0004606Y-0013209D02*
X0004734Y-0013081D01*
Y-0006821D01*
X0004685Y-0006772D01*
Y-0006083D01*
X0004734Y-0006033D01*
Y0002175D01*
X0004606Y0002303D01*
X-0021919Y-0006732D02*
Y-0006614D01*
X-0021230Y-0005925D01*
Y0006575D01*
X-0021929Y0007274D01*
X-0022372D01*
X-0022608Y0007510D01*
Y0008242D01*
X-0023126Y0008760D01*
X0015079Y0007736D02*
X0014892Y0007923D01*
Y0025581D01*
X0015079Y0025768D01*
X-0018228Y0008996D02*
X-0018100Y0009124D01*
Y0015384D01*
X-0018189Y0015472D01*
Y0016122D01*
X-0018100Y0016211D01*
Y0024380D01*
X-0018228Y0024508D01*
X-0004921Y0024823D02*
X-0005108Y0024636D01*
Y0009222D01*
X-0005049Y0009163D01*
Y0008809D01*
X-0004921Y0008681D01*
X-0011870Y-0017874D02*
Y-0017667D01*
X-0012392Y-0017146D01*
Y-0014685D01*
X-0012608Y-0014469D01*
X-0015079Y0008681D02*
X-0014951Y0008809D01*
Y0024695D01*
X-0015079Y0024823D01*
X0009675Y-0012894D02*
Y-0014980D01*
X0009459Y-0015197D01*
X0001024D01*
X-0002224Y-0018445D01*
X-0006102D01*
X-0006673Y-0017874D01*
X0018228Y0008996D02*
X0018100Y0009124D01*
Y0015719D01*
X0018189Y0015807D01*
Y0016083D01*
X0018100Y0016171D01*
Y0024380D01*
X0018228Y0024508D01*
X-0020925Y-0006929D02*
Y-0006447D01*
X-0020354Y-0005876D01*
Y-0005256D01*
X-0020620Y-0004990D01*
Y0005187D01*
X-0020374Y0005433D01*
Y0005758D01*
X-0020620Y0006004D01*
Y0010138D01*
X-0021762Y0011280D01*
X-0022646D01*
X-0023126Y0011760D01*
X0017913Y0008996D02*
X0017785Y0009124D01*
Y0024380D01*
X0017913Y0024508D01*
X-0015079Y0008996D02*
X-0015207Y0009124D01*
Y0015719D01*
X-0015118Y0015807D01*
Y0016083D01*
X-0015207Y0016171D01*
Y0024380D01*
X-0015079Y0024508D01*
X0002402Y0007421D02*
X0002244Y0007579D01*
Y0025925D01*
X0002402Y0026083D01*
X0016339Y0008996D02*
X0016526Y0009183D01*
Y0024321D01*
X0016339Y0024508D01*
X0007441Y0008681D02*
X0007569Y0008809D01*
Y0024695D01*
X0007441Y0024823D01*
X0014134Y0007421D02*
X0013947Y0007608D01*
Y0015384D01*
X0013858Y0015472D01*
Y0018031D01*
X0013947Y0018120D01*
Y0025896D01*
X0014134Y0026083D01*
X0014764Y0008681D02*
X0014636Y0008809D01*
Y0024695D01*
X0014764Y0024823D01*
X0005866Y0008996D02*
X0005709Y0009154D01*
Y0024350D01*
X0005866Y0024508D01*
X-0018858Y0008681D02*
X-0018986Y0008809D01*
Y0024695D01*
X-0018858Y0024823D01*
X0018228Y0008681D02*
X0018356Y0008809D01*
Y0024695D01*
X0018228Y0024823D01*
X0002717Y0007421D02*
X0002530Y0007608D01*
Y0025896D01*
X0002717Y0026083D01*
X0006181Y0008681D02*
X0005994Y0008868D01*
Y0024636D01*
X0006181Y0024823D01*
X0007126Y0008996D02*
Y0009104D01*
X0006998Y0009232D01*
Y0015719D01*
X0007087Y0015807D01*
Y0016083D01*
X0006998Y0016171D01*
Y0024380D01*
X0007126Y0024508D01*
X-0019488Y0007421D02*
X-0019675Y0007608D01*
Y0025896D01*
X-0019488Y0026083D01*
X0003661Y0007421D02*
X0003504Y0007579D01*
X0003268D01*
X0003159Y0007687D01*
Y0025856D01*
X0003228Y0025925D01*
X0003504D01*
X0003661Y0026083D01*
X0002717Y0007736D02*
X0002589Y0007864D01*
Y0025640D01*
X0002717Y0025768D01*
X0003031Y0007736D02*
X0002904Y0007864D01*
Y0015423D01*
X0002815Y0015512D01*
Y0017992D01*
X0002904Y0018081D01*
Y0025640D01*
X0003031Y0025768D01*
X0019488Y0007736D02*
X0019616Y0007864D01*
Y0025640D01*
X0019488Y0025768D01*
X0019173Y0007421D02*
X0019360Y0007608D01*
Y0015384D01*
X0019449Y0015472D01*
Y0018051D01*
X0019360Y0018140D01*
Y0025896D01*
X0019173Y0026083D01*
X0015079Y0008681D02*
X0014951Y0008809D01*
Y0024695D01*
X0015079Y0024823D01*
X-0019173Y0007736D02*
X-0019301Y0007864D01*
Y0015423D01*
X-0019390Y0015512D01*
Y0017992D01*
X-0019301Y0018081D01*
Y0025640D01*
X-0019173Y0025768D01*
X0007126Y0026083D02*
X0006939Y0025896D01*
Y0016132D01*
X0007028Y0016043D01*
Y0015846D01*
X0006939Y0015758D01*
Y0009163D01*
X0006998Y0009104D01*
Y0007549D01*
X0007126Y0007421D01*
X-0004606Y-0013524D02*
X-0004793Y-0013337D01*
Y-0006447D01*
X-0004744Y-0006398D01*
Y-0006122D01*
X-0004793Y-0006073D01*
Y0002431D01*
X-0004606Y0002618D01*
X-0005236Y-0013209D02*
X-0005394Y-0013051D01*
Y0002146D01*
X-0005236Y0002303D01*
X-0018543Y-0014469D02*
X-0018730Y-0014281D01*
Y0003376D01*
X-0018543Y0003563D01*
X0006181Y-0013209D02*
X0006053Y-0013081D01*
Y0002077D01*
X0006181Y0002205D01*
Y0002303D01*
X-0004606Y-0013209D02*
Y-0013071D01*
X-0004734Y-0012943D01*
Y-0006486D01*
X-0004685Y-0006437D01*
Y-0006083D01*
X-0004734Y-0006033D01*
Y0002175D01*
X-0004606Y0002303D01*
X0007441Y-0014783D02*
X0007598Y-0014626D01*
X0007835D01*
X0007943Y-0014518D01*
Y0003612D01*
X0007835Y0003720D01*
X0007598D01*
X0007441Y0003878D01*
X-0015394Y-0013209D02*
X-0015522Y-0013081D01*
Y0002175D01*
X-0015394Y0002303D01*
X-0002717Y-0014469D02*
X-0002589Y-0014341D01*
Y0003435D01*
X-0002717Y0003563D01*
X0006181Y0002618D02*
X0006053Y0002490D01*
Y0002185D01*
X0005994Y0002126D01*
Y-0013337D01*
X0006181Y-0013524D01*
X-0003031Y-0014783D02*
X-0002844Y-0014596D01*
Y-0006821D01*
X-0002756Y-0006732D01*
Y-0004154D01*
X-0002844Y-0004065D01*
Y0003691D01*
X-0003031Y0003878D01*
X0003661Y-0014469D02*
X0003474Y-0014281D01*
Y0003376D01*
X0003661Y0003563D01*
X0007441Y-0014469D02*
X0007628Y-0014281D01*
Y0003376D01*
X0007441Y0003563D01*
X0015394Y-0013209D02*
X0015522Y-0013081D01*
Y0002175D01*
X0015394Y0002303D01*
X0006811Y-0013209D02*
X0006683Y-0013081D01*
Y0002175D01*
X0006811Y0002303D01*
X-0008386Y-0014783D02*
X-0008573Y-0014596D01*
Y0003691D01*
X-0008386Y0003878D01*
X0007126Y-0014783D02*
X0006939Y-0014596D01*
Y-0006447D01*
X0007028Y-0006358D01*
Y-0006161D01*
X0006939Y-0006073D01*
Y0003691D01*
X0007126Y0003878D01*
X0003031Y-0014469D02*
X0002904Y-0014341D01*
Y-0006781D01*
X0002815Y-0006693D01*
Y-0004213D01*
X0002904Y-0004124D01*
Y0003435D01*
X0003031Y0003563D01*
X0004291Y0007736D02*
X0004478Y0007923D01*
Y0025581D01*
X0004291Y0025768D01*
X-0016339Y0008996D02*
X-0016496Y0009154D01*
Y0024350D01*
X-0016339Y0024508D01*
X-0014134Y-0014783D02*
X-0013947Y-0014596D01*
Y-0006821D01*
X-0013858Y-0006732D01*
Y-0004154D01*
X-0013947Y-0004065D01*
Y0003691D01*
X-0014134Y0003878D01*
X0018858Y0008681D02*
X0018986Y0008809D01*
Y0024695D01*
X0018858Y0024823D01*
X0018248Y-0020453D02*
X0018563Y-0020138D01*
Y-0019587D01*
X0018366Y-0019390D01*
X0018110D01*
X0017972Y-0019528D01*
X0017480D01*
X0017441Y-0019488D01*
X0017224D01*
X-0023126Y0009760D02*
X-0022569Y0009203D01*
X-0021152D01*
X-0020856Y0008907D01*
Y-0005906D01*
X-0021486Y-0006535D01*
Y-0006939D01*
X0015394Y-0014469D02*
X0015581Y-0014281D01*
Y0003376D01*
X0015394Y0003563D01*
X-0014134Y-0014469D02*
X-0014006Y-0014341D01*
Y-0006781D01*
X-0013917Y-0006693D01*
Y-0004193D01*
X-0014006Y-0004104D01*
Y0003435D01*
X-0014134Y0003563D01*
X0003346Y-0013524D02*
X0003219Y-0013396D01*
Y0002490D01*
X0003346Y0002618D01*
X0019173Y-0014469D02*
X0019301Y-0014341D01*
Y-0006781D01*
X0019390Y-0006693D01*
Y-0004193D01*
X0019301Y-0004104D01*
Y0003435D01*
X0019173Y0003563D01*
X-0015394Y-0014469D02*
X-0015581Y-0014281D01*
Y0003376D01*
X-0015394Y0003563D01*
X0019488Y-0014783D02*
X0019675Y-0014596D01*
Y0003691D01*
X0019488Y0003878D01*
X0003976Y-0014783D02*
X0004163Y-0014596D01*
Y-0006781D01*
X0004075Y-0006693D01*
Y-0006122D01*
X0004163Y-0006033D01*
Y0003691D01*
X0003976Y0003878D01*
X-0006811Y-0013209D02*
X-0006683Y-0013081D01*
Y0002175D01*
X-0006811Y0002303D01*
X-0018228Y0008681D02*
X-0018356Y0008809D01*
Y0024695D01*
X-0018228Y0024823D01*
X-0010925Y-0017874D02*
Y-0017362D01*
X-0011545Y-0016742D01*
Y0017756D01*
X-0012628Y0018839D01*
X0008386Y-0014783D02*
X0008573Y-0014596D01*
Y0003691D01*
X0008386Y0003878D01*
X0015709Y-0013524D02*
X0015896Y-0013337D01*
Y-0006781D01*
X0015846Y-0006732D01*
Y-0006122D01*
X0015896Y-0006073D01*
Y0002431D01*
X0015709Y0002618D01*
X0004921Y0008996D02*
Y0009114D01*
X0005049Y0009242D01*
Y0024380D01*
X0004921Y0024508D01*
X-0006496Y-0013209D02*
X-0006368Y-0013081D01*
Y-0006821D01*
X-0006417Y-0006772D01*
Y-0006083D01*
X-0006368Y-0006033D01*
Y0002175D01*
X-0006496Y0002303D01*
X-0017913Y-0014469D02*
X-0017726Y-0014281D01*
Y0003376D01*
X-0017913Y0003563D01*
X-0003976Y-0014469D02*
X-0003789Y-0014281D01*
Y0003376D01*
X-0003976Y0003563D01*
X0008071Y-0014469D02*
X0008199Y-0014341D01*
Y-0006781D01*
X0008287Y-0006693D01*
Y-0004193D01*
X0008199Y-0004104D01*
Y0003435D01*
X0008071Y0003563D01*
X0017598Y0008996D02*
Y0009134D01*
X0017470Y0009262D01*
Y0015719D01*
X0017520Y0015768D01*
Y0016122D01*
X0017470Y0016171D01*
Y0024380D01*
X0017598Y0024508D01*
X0017224Y-0018307D02*
X0017756Y-0018839D01*
X0018445D01*
X0018563Y-0018957D01*
X0019055D01*
X0019114Y-0019016D01*
Y-0019528D01*
X0019311Y-0019724D01*
Y-0020807D01*
X0019370Y-0020866D01*
Y-0021201D01*
X0018583Y-0018366D02*
X0019016D01*
X0019764Y-0019114D01*
X-0014449Y-0013524D02*
X-0014321Y-0013396D01*
Y0002490D01*
X-0014449Y0002618D01*
X-0013819Y-0014469D02*
X-0013691Y-0014341D01*
Y0003435D01*
X-0013819Y0003563D01*
X-0017913Y0007736D02*
X-0017726Y0007923D01*
Y0025581D01*
X-0017913Y0025768D01*
X-0007126Y-0014783D02*
X-0006939Y-0014596D01*
Y-0006781D01*
X-0007028Y-0006693D01*
Y-0006122D01*
X-0006939Y-0006033D01*
Y0003691D01*
X-0007126Y0003878D01*
X0004921Y0002303D02*
Y0002195D01*
X0005049Y0002067D01*
Y-0012982D01*
X0004921Y-0013110D01*
Y-0013209D01*
X0005236D02*
X0005423Y-0013022D01*
Y0002116D01*
X0005236Y0002303D01*
X0004606Y-0013524D02*
X0004793Y-0013337D01*
Y-0006781D01*
X0004744Y-0006732D01*
Y-0006122D01*
X0004793Y-0006073D01*
Y0002431D01*
X0004606Y0002618D01*
X0015079Y-0013524D02*
X0014951Y-0013396D01*
Y0002490D01*
X0015079Y0002618D01*
X-0014764Y-0013524D02*
X-0014636Y-0013396D01*
Y0002490D01*
X-0014764Y0002618D01*
X0008701Y-0014783D02*
X0008858Y-0014626D01*
Y0003720D01*
X0008701Y0003878D01*
X0007126Y-0013209D02*
X0006998Y-0013081D01*
Y-0006486D01*
X0007087Y-0006398D01*
Y-0006122D01*
X0006998Y-0006033D01*
Y0002175D01*
X0007126Y0002303D01*
X0018858Y-0013524D02*
X0018986Y-0013396D01*
Y0002490D01*
X0018858Y0002618D01*
X0004921Y0024823D02*
X0005108Y0024636D01*
Y0009173D01*
X0005049Y0009114D01*
Y0008809D01*
X0004921Y0008681D01*
X-0014764Y-0014783D02*
X-0014606Y-0014626D01*
X-0014370D01*
X-0014262Y-0014518D01*
Y0003612D01*
X-0014370Y0003720D01*
X-0014606D01*
X-0014764Y0003878D01*
X0003976Y-0013524D02*
X0003848Y-0013396D01*
Y0002490D01*
X0003976Y0002618D01*
X0005866Y-0013209D02*
X0005679Y-0013022D01*
Y0002116D01*
X0005866Y0002303D01*
X0018228Y-0014783D02*
X0018041Y-0014596D01*
Y-0006447D01*
X0018130Y-0006358D01*
Y-0006161D01*
X0018041Y-0006073D01*
Y0003691D01*
X0018228Y0003878D01*
X0004291Y-0013209D02*
X0004419Y-0013081D01*
Y0002175D01*
X0004291Y0002303D01*
X-0019488Y-0014469D02*
X-0019616Y-0014341D01*
Y0003435D01*
X-0019488Y0003563D01*
X0017598Y-0013524D02*
X0017411Y-0013337D01*
Y-0006447D01*
X0017461Y-0006398D01*
Y-0006122D01*
X0017411Y-0006073D01*
Y0002431D01*
X0017598Y0002618D01*
X-0016339Y-0013209D02*
X-0016496Y-0013051D01*
Y0002146D01*
X-0016339Y0002303D01*
X-0007441Y-0014783D02*
X-0007598Y-0014626D01*
X-0007835D01*
X-0007943Y-0014518D01*
Y0003652D01*
X-0007874Y0003720D01*
X-0007598D01*
X-0007441Y0003878D01*
X-0018228Y0007736D02*
X-0018415Y0007923D01*
Y0025581D01*
X-0018228Y0025768D01*
X0015394Y0007736D02*
X0015581Y0007923D01*
Y0025581D01*
X0015394Y0025768D01*
G54D34*
G01X0020315Y-0020256D02*
Y-0020925D01*
X0020059Y-0021181D01*
G54D10*
X-0022756Y-0024449D03*
Y-0021220D03*
X-0017913Y-0027854D03*
X-0018386Y-0025886D03*
X-0007559Y-0032047D03*
X-0009528D03*
G54D11*
X-0006575Y-0025591D03*
X-0010512D03*
G54D12*
X0022047Y0028425D03*
X0021260D03*
X-0021260D03*
X-0022047D03*
G54D13*
X0016614Y-0030630D03*
X0016594Y-0031665D03*
Y-0032665D03*
Y-0033665D03*
Y-0034665D03*
X-0020252Y-0019567D03*
X-0019252D03*
X-0018252D03*
X-0022252D03*
X0006508Y-0017059D03*
Y-0018059D03*
Y-0019059D03*
Y-0020059D03*
Y-0021059D03*
Y-0022059D03*
Y-0023059D03*
X-0023126Y0026760D03*
X-0022126Y0025760D03*
X-0023126D03*
X-0022126Y0024760D03*
X-0023126D03*
X-0022126Y0023760D03*
X-0023126D03*
X-0022126Y0022760D03*
X-0023126D03*
X-0022126Y0021760D03*
X-0023126D03*
X-0022126Y0020760D03*
X-0023126D03*
X-0022126Y0019760D03*
X-0023126D03*
X-0022126Y0018760D03*
X-0023126D03*
X-0022126Y0017760D03*
X-0023126D03*
X-0022126Y0016760D03*
X-0023126D03*
X-0022126Y0015760D03*
X-0023126D03*
X-0022126Y0014760D03*
X-0023126D03*
X-0022126Y0013760D03*
X-0023126D03*
X-0022126Y0012760D03*
X-0023126D03*
X-0022126Y0011760D03*
X-0023126D03*
X-0022126Y0010760D03*
X-0023126D03*
X-0022126Y0009760D03*
X-0023126D03*
X-0022126Y0008760D03*
X-0023126D03*
X-0022126Y0007760D03*
X-0023126D03*
X-0022126Y0006760D03*
X-0023126D03*
X-0022126Y0005760D03*
X-0023126D03*
X-0022126Y0004760D03*
X-0023126D03*
X-0022126Y0003760D03*
X-0023126D03*
X-0022126Y0002760D03*
X-0023126D03*
X-0022126Y0001768D03*
X-0023126Y0001760D03*
X-0022126Y0000760D03*
X-0023126D03*
X-0022126Y-0000240D03*
X-0023126D03*
X-0022126Y-0001240D03*
X-0023126D03*
X-0022126Y-0002240D03*
X-0023126D03*
X-0022126Y-0003240D03*
X-0023126D03*
X-0022126Y-0004240D03*
X-0023126D03*
X0023126D03*
X0022126Y-0003240D03*
X0023126D03*
X0022126Y-0002240D03*
X0023126D03*
X0022126Y-0001240D03*
X0023126D03*
X0022126Y-0000240D03*
X0023126D03*
X0022126Y0000760D03*
X0023126D03*
X0022126Y0001760D03*
X0023126D03*
X0022126Y0002760D03*
X0023126D03*
X0022126Y0003760D03*
X0023126D03*
X0022126Y0004760D03*
X0023126D03*
X0022126Y0005760D03*
X0023126D03*
X0022126Y0006760D03*
X0023126D03*
X0022126Y0007760D03*
X0023126D03*
X0022126Y0008760D03*
X0023126D03*
X0022126Y0009760D03*
X0023126D03*
X0022126Y0010760D03*
X0023126D03*
X0022126Y0011760D03*
X0023126D03*
X0022126Y0012760D03*
X0023126D03*
X0022126Y0013760D03*
X0023126D03*
X0022126Y0014760D03*
X0023126D03*
X0022126Y0015760D03*
X0023126D03*
X0022126Y0016760D03*
X0023126D03*
X0022126Y0017760D03*
X0023126D03*
X0022126Y0018760D03*
X0023126D03*
X0022126Y0019760D03*
X0023126D03*
X0022126Y0020752D03*
X0023126Y0020760D03*
X0022126Y0021760D03*
X0023126D03*
X0022126Y0022760D03*
X0023126D03*
X0022126Y0023760D03*
X0023126D03*
X0022126Y0024760D03*
X0023126D03*
X0022126Y0025760D03*
X0023126D03*
X0022126Y0026760D03*
X0023126D03*
X0007933Y-0020705D03*
Y-0021705D03*
X-0008063Y-0034717D03*
X-0000969Y0028031D03*
X0000031D03*
X0001031D03*
X0002041D03*
G54D14*
X0016594Y-0029665D03*
X-0022126Y0026760D03*
X0022126Y-0004240D03*
X0007933Y-0019705D03*
X-0009063Y-0034717D03*
X-0001969Y0028031D03*
G54D15*
X-0022756Y-0023622D03*
Y-0022835D03*
Y-0022047D03*
X-0005581Y0029846D03*
X-0006081Y0030846D03*
X-0005081D03*
X-0004081D03*
X-0004581Y0029846D03*
X-0003581D03*
X-0002581D03*
X-0003081Y0030846D03*
X-0006941Y0034945D03*
X-0005941D03*
X-0002720D03*
X-0001720D03*
X0003081Y0029846D03*
X0002581Y0030846D03*
X0003581D03*
X0004581D03*
X0004081Y0029846D03*
X0005081D03*
X0006081D03*
X0005581Y0030846D03*
X0001720Y0034945D03*
X0002720D03*
X0005941D03*
X0006941D03*
G54D16*
X-0001281Y0032146D03*
X-0007380D03*
X0007380D03*
X0001281D03*
G54D17*
X-0002081Y0033346D03*
X-0006581D03*
X0006581D03*
X0002081D03*
G54D20*
X-0020571Y-0025118D03*
G54D21*
X-0021752Y-0026969D03*
G54D22*
X-0019390D03*
G54D23*
X0018169Y-0028465D03*
Y-0027953D03*
Y-0027441D03*
Y-0026929D03*
Y-0026417D03*
X0017657Y-0027953D03*
Y-0027441D03*
Y-0026929D03*
Y-0026417D03*
Y-0028465D03*
X0017146D03*
Y-0027953D03*
Y-0027441D03*
Y-0026929D03*
Y-0026417D03*
X0016634Y-0028465D03*
Y-0027953D03*
Y-0027441D03*
Y-0026929D03*
Y-0026417D03*
X0005000Y-0027913D03*
X0006024Y-0028425D03*
X0005512Y-0028937D03*
X0004488Y-0028425D03*
Y-0028937D03*
X0006024D03*
X0005512Y-0028425D03*
X0005000D03*
X0005512Y-0027913D03*
X0005000Y-0028937D03*
X-0016476Y-0024094D03*
X-0016102D03*
X-0016476Y-0024469D03*
X-0016102D03*
X-0012657Y0028583D03*
X-0012028D03*
X-0012657Y0029252D03*
X-0012028D03*
X0009902Y0028524D03*
Y0029173D03*
X0010512D03*
Y0028524D03*
X-0016496Y-0034252D03*
Y-0033858D03*
Y-0033465D03*
Y-0034646D03*
Y-0035039D03*
X-0016102Y-0033465D03*
Y-0033858D03*
Y-0034252D03*
Y-0034646D03*
Y-0035039D03*
X-0011339Y-0029016D03*
X-0011732D03*
X-0012126D03*
X-0012520D03*
X-0012913D03*
X-0011339Y-0029409D03*
X-0011732D03*
X-0012126D03*
X-0012520D03*
X-0012913D03*
X0005000Y-0029961D03*
X0006024Y-0027913D03*
X0004488Y-0029961D03*
X0006024D03*
Y-0029449D03*
X0005000D03*
X0004488Y-0027913D03*
Y-0029449D03*
X0005512Y-0029961D03*
Y-0029449D03*
X0022756Y-0025413D03*
Y-0025059D03*
Y-0024705D03*
Y-0024350D03*
Y-0023996D03*
X0023150Y-0025413D03*
Y-0025059D03*
Y-0023996D03*
Y-0024705D03*
Y-0024350D03*
X0000000Y0005630D03*
X0019016Y-0020374D03*
X0019528D03*
Y-0019941D03*
X0019016D03*
X0014154Y-0019843D03*
X0015020Y-0019803D03*
X0015000Y-0018957D03*
X0014173D03*
X0021575Y-0023622D03*
X0021969D03*
X0022362D03*
X0022756D03*
X0023150D03*
X0021575Y-0023228D03*
X0021969D03*
X0022362D03*
X0022756D03*
X0023150D03*
X-0011339Y-0030571D03*
X-0011732D03*
X-0012126D03*
X-0012520D03*
X-0012913D03*
Y-0030177D03*
X-0012520D03*
X-0012126D03*
X-0011732D03*
X-0011339D03*
X0010610Y-0029114D03*
X0011004D03*
X0011398D03*
X0011791D03*
X0012185D03*
X0010610Y-0029508D03*
X0011004D03*
X0011398D03*
X0011791D03*
X0012185D03*
G54D24*
X0017224Y-0018504D03*
X0008799Y0029232D03*
X-0013819Y0029272D03*
X-0010374Y-0020551D03*
X-0006791Y-0016476D03*
X-0001142Y-0010689D03*
X-0001161Y0000413D03*
Y0011516D03*
X-0001358Y0022618D03*
G54D26*
X-0005453Y-0033307D03*
Y-0029559D03*
Y-0025811D03*
X-0000453Y-0034559D03*
X0000799D03*
X0002051D03*
X0007051D03*
Y-0029559D03*
Y-0028307D03*
Y-0024559D03*
X0002051D03*
X0000799D03*
X-0000453D03*
G54D27*
X0011915Y-0028103D03*
Y-0026853D03*
Y-0025603D03*
Y-0024353D03*
X0019415D03*
Y-0028103D03*
G54D30*
X0015394Y0007736D03*
Y0025768D03*
X-0003661Y-0003366D03*
Y0014665D03*
X-0007441Y-0008484D03*
Y0019783D03*
X0002402Y0023878D03*
X0003976Y-0007539D03*
Y0018839D03*
X-0020433Y0012461D03*
X-0001772D03*
X-0007126Y-0003366D03*
Y0014665D03*
X-0007756Y-0010059D03*
X0007756D03*
X-0016024Y0020098D03*
Y-0008799D03*
X0003031Y-0003681D03*
Y0014980D03*
G54D32*
X-0010295Y0030079D03*
X-0009094Y0029587D03*
X-0009803Y0029134D03*
X-0004606Y-0003681D03*
X0011102Y0002697D03*
X0009331Y0002303D03*
X-0002402Y0001988D03*
X-0003346Y0003878D03*
X-0002087Y0002303D03*
X-0001772D03*
X0004606Y0014980D03*
X0000000Y-0002500D03*
X-0001772Y-0003366D03*
X-0016890Y-0020945D03*
X-0021870Y-0022283D03*
X0012874Y-0013209D03*
X0011102Y-0013603D03*
X-0014449Y0014980D03*
X-0012531Y0017165D03*
X0020059Y-0021181D03*
X-0018858Y-0014154D03*
X-0022205Y-0006722D03*
X-0019803Y-0013524D03*
X0012500Y0017165D03*
X0014055Y0016752D03*
X0014764Y0023248D03*
X0019252Y0005610D03*
X0015709Y-0009114D03*
X0014055Y-0005453D03*
X0017598Y0001988D03*
X0017913D03*
X0018543Y0001043D03*
Y-0000846D03*
X0014764D03*
X0017598Y-0009114D03*
X0017913D03*
X0018543Y-0010059D03*
X-0019803Y-0013839D03*
X0014764Y-0010059D03*
X0016024Y-0012894D03*
X0014764Y-0011949D03*
X-0009705Y-0005866D03*
X-0006496Y-0009114D03*
X-0008150Y-0005453D03*
Y0005610D03*
X-0006496Y0001988D03*
X-0007441Y0012146D03*
X0006496Y-0009114D03*
X0007441Y-0010059D03*
X0006811Y-0009114D03*
X0007441Y-0011949D03*
X0006181Y-0012894D03*
X0004921D03*
X-0006496Y0013091D03*
X-0008150Y0016752D03*
X0003661Y-0011949D03*
X0006496Y-0012894D03*
X0008150Y-0015394D03*
X0007441Y0010256D03*
X0003661Y0012146D03*
Y-0010059D03*
X0002952Y-0015394D03*
X0004606Y-0012894D03*
X0003661Y0010256D03*
X0006496Y0009311D03*
X0008150Y0005610D03*
X-0007441Y-0010059D03*
X0018543Y-0011949D03*
X0015709Y-0012894D03*
X-0018543Y0010256D03*
Y0012146D03*
X0014055Y-0015394D03*
X0015079Y-0017539D03*
X0013898D03*
X-0014764Y0010256D03*
X0012736Y-0018701D03*
X0011378Y-0020827D03*
X0011437Y-0019449D03*
X0012736Y-0020079D03*
X0013701Y-0021240D03*
X0016909Y-0022756D03*
X0016437Y-0020276D03*
X0015472Y-0021240D03*
X0017598Y-0012894D03*
X0022480Y-0014646D03*
X0019252Y-0015394D03*
X0017598Y-0001791D03*
X0019252Y-0005453D03*
X0015709Y0001988D03*
X0014764Y0001043D03*
X0014055Y0005610D03*
X0014764Y0010256D03*
Y0012146D03*
X0017598Y0009311D03*
X0018543Y0010256D03*
Y0012146D03*
X0017913Y0013091D03*
X0017598D03*
X0007441Y0022618D03*
X0015709Y0013091D03*
X-0009331Y-0002106D03*
X0009674Y-0005866D03*
X0019252Y0016752D03*
X-0010974Y0028484D03*
X0007441Y-0010689D03*
Y0000413D03*
Y0011516D03*
X0018543Y0022618D03*
X0000000Y-0013603D03*
X-0003661Y0022618D03*
X-0009705Y0017165D03*
X-0011102Y-0013603D03*
X0014764Y0021358D03*
X0011102Y-0008405D03*
X-0014764Y0022618D03*
X-0003661Y0011516D03*
X0018543Y0021358D03*
X0017598Y0020413D03*
X0011102Y0019704D03*
X0009331Y0018839D03*
X0018543Y0011516D03*
X0011644Y0028445D03*
X0014855Y0030410D03*
X-0014764Y0011516D03*
X0009744Y-0018002D03*
X0018543Y-0010689D03*
Y0000413D03*
X0018228Y0020413D03*
X0018543Y0023248D03*
X-0015079Y0020413D03*
X-0003661Y0000413D03*
X-0018543Y-0013839D03*
X0017598Y0024193D03*
X-0018858Y0009626D03*
X-0003346D03*
X0016339Y-0012894D03*
X0016063Y-0021220D03*
X0005236Y-0012894D03*
X-0020433Y0008366D03*
X-0001772D03*
X-0020118Y0008051D03*
X-0002087D03*
X0005236Y0020413D03*
X0016339D03*
X-0005866D03*
X-0012531Y-0005866D03*
X-0014449Y-0007224D03*
X-0016969Y-0009114D03*
Y0001988D03*
X-0005866Y-0009114D03*
Y0001988D03*
X-0014764Y0000413D03*
X-0011102Y-0002500D03*
X-0012874Y-0003366D03*
X-0003661Y-0010689D03*
X0018228Y0009311D03*
X-0018543Y0024508D03*
X-0015079Y0009311D03*
X-0007441Y0024508D03*
X0019252Y0026693D03*
X0017913Y0024193D03*
X0000000Y0002697D03*
X0016339Y-0001791D03*
Y0009311D03*
X0018228Y-0012894D03*
Y-0001791D03*
X0005236D03*
Y0009311D03*
X-0015079Y-0012894D03*
Y-0001791D03*
X-0019488Y-0010374D03*
X-0019173Y-0013839D03*
X-0005866Y0009311D03*
X0011102Y0008602D03*
X-0019488Y-0014154D03*
X-0020079Y-0022087D03*
X0002717Y0023563D03*
X0005236Y-0009114D03*
X-0016024Y-0002106D03*
Y0013406D03*
X0016339Y-0009114D03*
Y0001988D03*
X-0016959Y0024193D03*
X-0016969Y0013091D03*
X-0005866D03*
Y0024193D03*
X0002402Y0024508D03*
X-0003661Y0001358D03*
X0015079Y0020413D03*
X0013642Y-0023425D03*
X0018543Y0012461D03*
X0011087Y0017189D03*
X0002087Y0023878D03*
X0020118D03*
X0011087Y-0005015D03*
X0014488Y-0021240D03*
X0019567Y-0019114D03*
X0017224Y-0019882D03*
X0018248Y-0020059D03*
X-0017913Y-0013839D03*
X-0014764Y-0002421D03*
Y0013720D03*
X-0011118Y-0005015D03*
X0009449Y0030236D03*
X-0022480Y-0014665D03*
X0015079Y-0001791D03*
X0003661Y-0008799D03*
X0003976Y0009311D03*
X-0012579Y0030285D03*
X0019488Y0021043D03*
X0019409Y-0018189D03*
X0015612Y0030907D03*
X-0014764Y0023563D03*
X0018543Y-0009744D03*
X0003346Y0022618D03*
X-0007126Y-0001791D03*
X0003976Y-0012894D03*
X-0014764Y0001358D03*
X0002087Y0024823D03*
X0020118D03*
X-0003661Y0023563D03*
X-0008701Y0025138D03*
X-0005866Y-0001791D03*
X0009646Y0030236D03*
X-0018858Y-0013839D03*
X-0012008Y0030797D03*
X0011644Y0029035D03*
X0003976Y0025453D03*
Y0020413D03*
Y-0001791D03*
X0013766Y0029907D03*
X0003031Y-0011319D03*
X0019173D03*
X-0003661Y0012461D03*
X-0016969Y0008996D03*
Y0024508D03*
X-0003976Y-0001791D03*
X0007126D03*
X0010236Y0030236D03*
X-0014764Y0012461D03*
X0017303Y-0021476D03*
X-0005187Y-0021988D03*
X0002087Y0024193D03*
X0020118D03*
X0015079Y0009311D03*
X-0019803Y0007421D03*
Y0026083D03*
X0014764Y-0008799D03*
X-0018228Y-0001791D03*
X0007441Y0012461D03*
X0018228Y0019154D03*
X-0016969Y-0012894D03*
X-0005866D03*
X-0007126D03*
X0013071Y0029016D03*
X-0018228Y0009311D03*
X0014449Y0013091D03*
X-0014449D03*
X0018780Y-0021201D03*
X0016063Y-0016752D03*
X0019803Y0020728D03*
X-0006811Y0025138D03*
X-0010394Y0029252D03*
X-0014764Y-0009744D03*
X0007441Y0023563D03*
X0004291Y0025138D03*
X0011644Y0028839D03*
X0019803Y0021043D03*
X-0018228Y0020413D03*
X0002717Y0022933D03*
X0001772Y0024193D03*
X0020433D03*
X-0013169Y0030285D03*
X0012736Y-0019094D03*
X-0003661Y-0009744D03*
X0019803Y0023248D03*
X-0011102Y0018327D03*
X0018858Y0019154D03*
X-0003031Y0020413D03*
X-0019173D03*
X-0005236Y-0012894D03*
X0006811D03*
X-0019488Y0007736D03*
Y0025768D03*
X-0007126Y0020413D03*
X0017224Y-0019291D03*
X0018248Y-0020650D03*
X0013758Y0029407D03*
X-0019173Y-0012894D03*
X-0003031D03*
X-0018228D03*
X-0007756Y0024193D03*
X0007756D03*
Y0023878D03*
X-0007756D03*
X0007441Y-0009744D03*
X0013110Y-0021240D03*
X-0015394Y-0012894D03*
X0017913Y0019469D03*
X0001772Y0025138D03*
X0020433D03*
X-0016909Y-0030935D03*
X-0009518Y0029203D03*
X-0007126Y0025453D03*
X0017224Y-0019094D03*
X0018976Y-0021201D03*
X-0018228Y-0008799D03*
Y0020098D03*
X0019488Y0023248D03*
X0018228Y0007736D03*
Y0025768D03*
X0005866Y0020413D03*
X0017913D03*
X-0018543Y0018839D03*
Y-0007539D03*
X0017283Y-0002106D03*
Y0013406D03*
X-0015079Y-0008484D03*
Y0019783D03*
X-0018858Y0012776D03*
X-0003346D03*
X-0002087Y-0009114D03*
X-0020118D03*
X0015079Y-0012894D03*
X0019803Y0024823D03*
X0018248Y-0019665D03*
X0017224Y-0020472D03*
X-0006496Y0008996D03*
Y0024508D03*
X0013307Y-0016762D03*
X-0014764Y-0010689D03*
X-0017598Y-0002421D03*
Y0013720D03*
X-0020118Y0008681D03*
X-0002087D03*
X-0015079Y-0002421D03*
Y0013720D03*
X-0015394Y-0002106D03*
Y0013406D03*
X0019488Y0022933D03*
X-0008071Y0007736D03*
Y0025768D03*
X0008071Y0007421D03*
Y0026083D03*
X-0008386Y0007421D03*
Y0026083D03*
X-0006220Y-0006260D03*
X-0009331Y0024823D03*
X0009331D03*
X-0009331Y0012461D03*
X0009331D03*
X-0007756Y0021043D03*
X0007756D03*
X0016339Y0024823D03*
Y0013091D03*
Y0024193D03*
X-0018543Y-0008799D03*
X-0009016Y0014350D03*
X0009016D03*
X-0007756Y-0001161D03*
X0007756D03*
X-0007441Y0002303D03*
X-0006496Y-0013524D03*
Y0002618D03*
X0004882Y0015945D03*
X-0006220Y0027047D03*
X-0019488Y-0014783D03*
Y0003878D03*
X-0015984Y0027047D03*
X0015984Y0004843D03*
X0018051Y-0018366D03*
X0019370Y-0019114D03*
X-0003976Y-0013524D03*
Y0002618D03*
X-0008701Y-0007224D03*
Y0018524D03*
X0010236Y0027431D03*
X-0019173Y-0007854D03*
X-0018228Y-0013524D03*
Y0002618D03*
X0016339Y-0013209D03*
Y0002303D03*
X0012874Y0021043D03*
X-0012874D03*
X-0007126Y0009311D03*
X0014134Y-0007539D03*
Y0018839D03*
X-0018228Y-0007854D03*
X-0022638Y0021043D03*
X-0003976Y0007736D03*
Y0025768D03*
X0012874Y0002933D03*
X-0012874D03*
X0002087Y-0009429D03*
X0020118D03*
X0019803Y0023563D03*
X0002087Y0025453D03*
X0020118D03*
X0013819Y-0007224D03*
Y0018524D03*
X-0017323Y0015945D03*
X-0008071Y-0000217D03*
X0008071D03*
X-0003031Y-0007224D03*
Y0018524D03*
X-0004921Y-0013524D03*
Y0002618D03*
X-0008071Y0022618D03*
X0008071D03*
X-0007756Y-0009114D03*
X0007756D03*
X-0003661Y0018839D03*
Y-0007539D03*
X-0017598Y-0008484D03*
Y0019783D03*
X-0019173Y0012776D03*
X-0003031D03*
X-0007126Y-0014469D03*
Y0003563D03*
X-0007441Y0001358D03*
X-0016969Y-0013209D03*
Y0002303D03*
X-0009016Y0012776D03*
X0009016D03*
X0003346Y0001358D03*
X0018858D03*
X-0014134Y-0012579D03*
X0014134D03*
X-0003976Y-0013209D03*
Y0002303D03*
X0001772Y0001358D03*
X0020433D03*
X0009331Y-0002736D03*
X-0009331D03*
Y0002618D03*
X0009331D03*
X-0007618Y-0017874D03*
X0009026Y0021043D03*
X0007441Y0020728D03*
X0014764Y0001358D03*
X-0008386Y-0007539D03*
Y0018839D03*
X-0007756Y-0012579D03*
X0007756D03*
X-0015394Y0007736D03*
Y0025768D03*
X-0015709Y-0013524D03*
Y0002618D03*
X0016024Y0002303D03*
Y-0013209D03*
X-0009016Y0019783D03*
X0009016D03*
X-0003976Y-0008484D03*
Y0019783D03*
X0003346Y-0001476D03*
X0018858D03*
X-0002717Y-0014783D03*
Y0003878D03*
X-0018228Y0007421D03*
Y0026083D03*
X-0008071Y0018524D03*
Y-0007224D03*
X-0016024Y-0013524D03*
Y0002618D03*
X0001772Y-0002736D03*
X0020433D03*
X-0003976Y-0008799D03*
Y0020098D03*
X0006811Y-0014469D03*
Y0003563D03*
X0017283Y-0013209D03*
Y0002303D03*
X0002087Y-0013524D03*
X0020118D03*
X0006496Y0008681D03*
Y0024823D03*
X0003031Y-0014783D03*
Y0003878D03*
X0004606Y-0008484D03*
Y0019783D03*
X0012874Y-0001476D03*
X-0012874D03*
X-0018543Y-0013524D03*
Y0002618D03*
X-0013189Y-0001791D03*
X0013189D03*
X-0017598Y-0013524D03*
Y0002618D03*
X0011673Y0026801D03*
X-0020118Y0025453D03*
X-0002087D03*
X-0003346Y-0013524D03*
Y0002618D03*
X0015984Y-0006260D03*
X-0009331Y-0008169D03*
X0009331D03*
X0018543Y-0014783D03*
Y0003878D03*
X-0013189Y-0001476D03*
X0013189D03*
X-0020118Y0002933D03*
X-0002087D03*
X-0008071Y-0003681D03*
Y0014980D03*
X-0013504Y-0007224D03*
Y0018524D03*
X0006811Y0009311D03*
X0005866Y-0001791D03*
X0004921Y-0008484D03*
Y0019783D03*
X-0007756Y-0011949D03*
X0007756D03*
X-0007126Y0007736D03*
Y0025768D03*
X0003031Y0001043D03*
X0019173D03*
X0003976Y-0013209D03*
Y0002303D03*
X-0016339Y-0012894D03*
X-0015394Y-0001791D03*
X0004921Y-0013524D03*
Y0002618D03*
X-0008071Y-0011634D03*
X0008071D03*
X-0017283Y-0008484D03*
Y0019783D03*
X0003346Y0001043D03*
X0018858D03*
X-0008701Y-0014783D03*
Y0003878D03*
X0014134Y-0010689D03*
X-0014134D03*
X-0017913Y-0003366D03*
Y0014665D03*
X-0014764Y0018524D03*
Y-0007224D03*
X-0012776Y0027470D03*
X-0008386Y0024508D03*
X0003031Y0000413D03*
X0019173D03*
X-0019173Y0001043D03*
X-0003031D03*
X-0019173Y0023878D03*
X-0003031D03*
X0013819Y-0014469D03*
Y0003563D03*
X0006811Y-0007539D03*
Y0018839D03*
X-0016339Y-0001791D03*
X-0015394Y0009311D03*
X-0018858Y-0010059D03*
X-0003346D03*
X0019488Y0024823D03*
X-0018228Y0018524D03*
Y-0007224D03*
X0005866Y0009311D03*
X0006811Y0020413D03*
X-0018858Y0023878D03*
X-0003346D03*
X-0007126Y-0007224D03*
Y0018524D03*
X0013189Y-0003051D03*
X-0013189D03*
X0014449Y0009941D03*
X-0014449D03*
X-0020433Y-0012894D03*
X-0001772D03*
X-0016339Y0009311D03*
X-0015394Y0020413D03*
X0014134Y-0014469D03*
Y0003563D03*
X0003661Y0023878D03*
X0001417Y0022933D03*
X-0003366Y-0017874D03*
X-0009331Y0001988D03*
X0009331D03*
X-0020118Y0002618D03*
X-0002087D03*
X0002087Y-0003051D03*
X0020118D03*
X-0006181Y-0008484D03*
Y0019783D03*
X0006496Y-0008484D03*
Y0019783D03*
X-0009016Y0008366D03*
X0009016D03*
X0007441Y-0001476D03*
X0009557D03*
X-0006988Y-0017874D03*
X-0004921Y-0008484D03*
Y0019783D03*
X0014449Y-0009114D03*
X-0014449D03*
X0003346Y-0009744D03*
X0018858D03*
X-0016024Y0019783D03*
Y-0008484D03*
X-0018858Y0001043D03*
X-0003346D03*
X-0007126Y-0013209D03*
Y0002303D03*
X-0019173Y0000413D03*
X-0003031D03*
X0003346Y-0012894D03*
X0018858D03*
X-0018858Y-0009114D03*
X-0003346D03*
X-0020118Y-0013524D03*
X-0002087D03*
X0003031Y-0012579D03*
X0019173D03*
X-0005866Y-0013209D03*
Y0002303D03*
X-0020886Y-0020886D03*
X0012874Y-0001791D03*
X-0012874D03*
X0008071Y-0007224D03*
Y0018524D03*
X-0007441Y-0002421D03*
Y0013720D03*
X0002087Y-0013839D03*
X0020118D03*
X-0009016Y-0014154D03*
X0009016D03*
X-0019173Y-0011634D03*
X-0003031D03*
X0003346Y-0009114D03*
X0018858D03*
X-0002087Y-0012894D03*
X-0020118D03*
X0003031D03*
X0019173D03*
X-0020433Y-0012579D03*
X-0001772D03*
X0017598Y-0013209D03*
Y0002303D03*
X-0009331Y0020728D03*
X0009331D03*
X-0007441Y-0003366D03*
Y0014665D03*
X0018543Y-0014469D03*
Y0003563D03*
X-0014134Y0007421D03*
Y0026083D03*
X-0019173Y-0009114D03*
X-0003031D03*
X0003346Y0001988D03*
X0018858D03*
X-0014134Y-0011634D03*
X0014134D03*
X-0008071Y-0009114D03*
X0008071D03*
X-0014449Y0001043D03*
X0014449D03*
Y-0000846D03*
X-0014449D03*
X0003346Y-0012579D03*
X0018858D03*
X-0007756Y0009311D03*
X0007756D03*
X-0020433Y-0009744D03*
X-0001772D03*
X-0015079Y0018839D03*
Y-0007539D03*
X-0002717Y0018524D03*
Y-0007224D03*
X-0019173Y0007421D03*
Y0026083D03*
X-0003031Y-0003681D03*
Y0014980D03*
X-0006811Y-0007539D03*
Y0018839D03*
X0014449Y0001358D03*
X-0014449D03*
X0001772Y-0013524D03*
X0020433D03*
X0014449D03*
Y0002618D03*
X0003031Y0001673D03*
X0019173D03*
X-0014764Y-0007539D03*
Y0018839D03*
X-0009331Y-0001161D03*
X0009331D03*
X0014134Y-0009114D03*
X-0014134D03*
X0013189Y-0007854D03*
X-0013189D03*
X0002087Y-0014154D03*
X0020118D03*
X-0018543Y0023878D03*
X0001772Y-0008484D03*
X0020433D03*
X0012874Y-0009114D03*
X-0012874D03*
X-0014764Y-0003681D03*
Y0014980D03*
X0004921Y-0008799D03*
Y0020098D03*
X-0007441Y0018524D03*
Y-0007224D03*
X0001772Y-0009744D03*
X0020433D03*
X-0007441Y-0014469D03*
Y0003563D03*
X0003346Y-0001791D03*
X0018858D03*
X0003976Y-0008484D03*
Y0019783D03*
X-0014134Y-0011319D03*
X0014134D03*
X0008071Y0000413D03*
X-0008071D03*
X0006496Y-0013209D03*
Y0002303D03*
X-0003346Y0019783D03*
Y-0008484D03*
X0009331Y-0013839D03*
X-0009331D03*
X0019173Y-0014783D03*
Y0003878D03*
X-0015709Y0008681D03*
Y0024823D03*
X-0013189Y0002618D03*
X0013189D03*
X0003661Y0019783D03*
Y-0008484D03*
X-0019173Y-0011319D03*
X-0003031D03*
X0001772Y-0008169D03*
X0020433D03*
X-0007756Y-0012894D03*
X0007756D03*
X0002087Y0001673D03*
X0020118D03*
X0003346Y0019783D03*
Y-0008484D03*
X0002087Y-0012579D03*
X0020118D03*
X-0020118Y-0009429D03*
X-0002087D03*
X0003346Y-0010374D03*
X0018858D03*
X-0009331Y-0009429D03*
X0009331D03*
X0016969Y0020098D03*
Y-0008799D03*
X-0012874Y-0009744D03*
X0012874D03*
X0014764Y-0014783D03*
Y0003878D03*
X-0020433Y-0009429D03*
X-0001772D03*
X-0019173Y-0012579D03*
X-0003031D03*
X-0020118Y-0013839D03*
X-0002087D03*
X-0020118Y-0012579D03*
X-0002087D03*
X-0019488Y0018524D03*
Y-0007224D03*
X-0015079Y-0014783D03*
Y0003878D03*
X-0020118Y-0014154D03*
X-0002087D03*
X-0018858Y-0000846D03*
X-0003346D03*
X-0020433Y-0008169D03*
X-0001772D03*
X-0017598Y0020098D03*
Y-0008799D03*
X0015079Y-0013209D03*
Y0002303D03*
X0001772Y-0001161D03*
X0020433D03*
X-0002717Y-0007539D03*
Y0018839D03*
X0006811Y0020098D03*
Y-0008799D03*
X-0018858Y0019783D03*
Y-0008484D03*
X0010039Y0030236D03*
X0003346Y0025138D03*
X0008829Y0028445D03*
X0006811Y0008996D03*
Y0024508D03*
X0014134Y-0011949D03*
X-0014134D03*
X-0013189Y-0009429D03*
X0013189D03*
X-0003661Y0007421D03*
Y0026083D03*
X0003031Y-0011949D03*
X0019173D03*
X0003976Y-0008799D03*
Y0020098D03*
X0007441Y0001358D03*
X-0007126Y-0002106D03*
Y0013406D03*
X0013819Y0007421D03*
Y0026083D03*
X-0004291Y-0013209D03*
Y0002303D03*
X-0008701Y0023878D03*
X0019803D03*
X0015079Y-0014469D03*
Y0003563D03*
X0018228Y-0014469D03*
Y0003563D03*
X0002402Y0018524D03*
Y-0007224D03*
X-0015394Y0020098D03*
Y-0008799D03*
X-0013189Y-0008169D03*
X0013189D03*
X0014449Y-0009744D03*
X-0014449D03*
X0002087Y-0009114D03*
X0020118D03*
X-0017283Y-0008799D03*
Y0020098D03*
X-0014134Y-0003366D03*
Y0014665D03*
Y0018524D03*
Y-0007224D03*
X0003031Y-0010374D03*
X0019173D03*
X0014449Y-0011949D03*
X-0014449D03*
X-0019173Y0010886D03*
X-0003031D03*
X-0016339Y-0008799D03*
Y0020098D03*
X-0006220Y0004843D03*
X0001772Y0002933D03*
X0020433D03*
X-0018858Y-0011634D03*
X-0003346D03*
X-0013189Y-0013524D03*
X0013189D03*
X-0020433Y-0012264D03*
X-0001772D03*
X-0013819Y0007736D03*
Y0025768D03*
X-0020433Y-0013524D03*
X-0001772D03*
X-0017913Y-0008799D03*
Y0020098D03*
X-0014449Y0023563D03*
X0014449D03*
X-0006004Y-0017874D03*
X0018543Y-0012579D03*
X0003976Y0018524D03*
Y-0007224D03*
X-0000591Y0029606D03*
X-0012382Y0027470D03*
X0014764Y0007421D03*
Y0026083D03*
X-0013189Y-0013839D03*
X0013189D03*
X0015079Y0007421D03*
Y0026083D03*
X-0014449Y-0012579D03*
X0014449D03*
X-0015079Y-0007224D03*
Y0018524D03*
X-0020118Y-0007854D03*
X-0002087D03*
X-0019488Y-0009114D03*
X0014764Y-0014469D03*
Y0003563D03*
X0006220Y-0006260D03*
X0018228Y0018524D03*
Y-0007224D03*
X-0018858Y-0012579D03*
X-0003346D03*
X-0015709Y0020098D03*
Y-0008799D03*
X0014764Y-0009744D03*
X0017598Y0020098D03*
Y-0008799D03*
X0003661Y-0007224D03*
Y0018524D03*
X-0012874Y0023878D03*
X0012874D03*
X0002087Y-0012894D03*
X0020118D03*
X0019803Y0021358D03*
X0014134Y0011516D03*
X-0014134D03*
X0014134Y-0009429D03*
X-0014134D03*
X0003031Y-0007224D03*
Y0018524D03*
X0002717Y-0014469D03*
Y0003563D03*
X-0009016Y-0012894D03*
X0009016D03*
X-0007441Y0001673D03*
X-0020433Y-0002421D03*
X-0001772D03*
X-0018543Y0003878D03*
Y-0014783D03*
X0001772Y-0012579D03*
X0020433D03*
X-0019173Y0024193D03*
X-0003031D03*
X0018543Y0001358D03*
X-0020433Y-0009114D03*
X-0001772D03*
X0013189Y-0014154D03*
X-0013189D03*
X0001772Y0002618D03*
X0020433D03*
X-0017913Y0018839D03*
Y-0007539D03*
X-0018543Y-0008169D03*
X-0018228Y-0013209D03*
Y0002303D03*
X-0009331Y-0012579D03*
X0009331D03*
X-0020433Y0023563D03*
X-0001772D03*
X-0018228Y0019783D03*
Y-0008484D03*
X-0018858Y0021043D03*
X-0003346D03*
X0007126Y-0008799D03*
Y0020098D03*
X-0004882Y0015945D03*
X-0013789Y0028287D03*
X-0008071Y0025138D03*
X0007441Y0019783D03*
Y-0008484D03*
X0003346Y0021358D03*
X0018858D03*
X0003346Y-0010059D03*
X0018858D03*
X-0014134Y-0000217D03*
X0014134D03*
X-0007756Y0011831D03*
X0007756D03*
X-0008071Y-0003366D03*
Y0014665D03*
X-0015394Y-0007539D03*
Y0018839D03*
X-0009016Y-0013524D03*
X0009016D03*
X0006496Y-0008799D03*
Y0020098D03*
X-0019173Y-0007224D03*
Y0018524D03*
X0009016Y0009311D03*
X-0009016D03*
X0017323Y0004843D03*
X0005236Y0020098D03*
Y-0008799D03*
X0019173Y0025138D03*
X0015394Y-0007539D03*
Y0018839D03*
X0007756Y0009626D03*
X-0007756D03*
X-0009016Y0013720D03*
X0009016D03*
X0003346Y0009941D03*
X0018858D03*
X-0007441Y0023878D03*
X-0013819Y0018839D03*
Y-0007539D03*
X-0003976Y-0012894D03*
X0007126D03*
X-0003661Y-0001476D03*
X-0009094Y-0006703D03*
X-0009626Y-0017874D03*
X0007756Y-0010374D03*
X-0007756D03*
X-0007441Y0012461D03*
X0017283Y0002618D03*
Y-0013524D03*
X-0006181Y0002303D03*
Y-0013209D03*
X-0019803Y-0008799D03*
X-0013189Y0020728D03*
X0013189D03*
X-0007126Y-0013524D03*
Y0002618D03*
X0003031Y0024193D03*
X0019173D03*
X0003661Y0012461D03*
X0018543Y0020728D03*
X-0005059Y-0017874D03*
X0014134Y0023248D03*
X-0014134D03*
X0007126Y-0008484D03*
Y0019783D03*
X0017913Y-0007539D03*
Y0018839D03*
X-0007756Y-0002421D03*
Y0013720D03*
Y0021358D03*
X0007756D03*
X-0017283Y0002303D03*
Y-0013209D03*
X-0008071Y0020728D03*
X0008071D03*
X0016339Y-0002106D03*
Y0013406D03*
X-0007756Y0010256D03*
X0007756D03*
X0003031Y0010886D03*
X0019173D03*
X-0020433Y0001988D03*
X-0001772D03*
X-0008071Y-0001791D03*
X0008071D03*
X0014764Y-0003681D03*
Y0014980D03*
X-0019488Y-0011319D03*
X-0020787Y-0006722D03*
X0003976Y-0002421D03*
Y0013720D03*
X0014134Y-0003366D03*
Y0014665D03*
X0003346Y0012461D03*
X0018858D03*
X0003346Y0010571D03*
X0018858D03*
X0003346Y-0002421D03*
Y0013720D03*
Y0009311D03*
X0018858D03*
X0017224Y-0018110D03*
X0019567Y-0021201D03*
X0008701Y-0003681D03*
Y0014980D03*
X-0003661Y-0012579D03*
X-0004931Y-0013839D03*
X-0009311Y-0017874D03*
X0004291Y-0003366D03*
Y0014665D03*
X0015079Y-0003681D03*
Y0014980D03*
X0015709Y-0002421D03*
Y0013720D03*
X0017598Y-0002421D03*
Y0013720D03*
X0007126Y0018524D03*
Y-0007224D03*
X-0007441Y-0008799D03*
X0019488Y0021673D03*
X-0009016Y0002933D03*
X0009016D03*
X0017913Y-0002106D03*
Y0013406D03*
X0018858Y-0002421D03*
Y0013720D03*
X0016969Y-0002106D03*
Y0013406D03*
X0012874Y0008366D03*
X-0012874D03*
X-0019173Y-0010374D03*
X-0003031D03*
X0014134Y0012776D03*
X-0014134D03*
X0003031Y0010571D03*
X0019173D03*
X0003346Y0011831D03*
X0018858D03*
X-0012874Y0012461D03*
X0012874D03*
X-0020118Y0008366D03*
X-0002087D03*
X0015394Y0008996D03*
Y0024508D03*
X0003346Y0010256D03*
X0018858D03*
X0019488Y-0003681D03*
Y0014980D03*
X0014134Y0007736D03*
Y0025768D03*
X-0014134Y0011831D03*
X0014134D03*
X0014449Y-0002421D03*
Y0013720D03*
X0003031Y0011516D03*
X0019173D03*
X0012874Y0024193D03*
X-0012874D03*
X0022913Y0016260D03*
X0019803Y0019783D03*
X-0013789Y0028484D03*
X-0007756Y0025138D03*
X0017913Y-0014469D03*
Y0003563D03*
X-0008386Y0023563D03*
X0014449Y0021358D03*
X-0014449D03*
X-0004882Y0004843D03*
X0019488Y0024193D03*
X0014764Y0013406D03*
X0003661Y-0009744D03*
X0002717Y0023248D03*
X0009449Y0027431D03*
X-0018543Y0001358D03*
X0018543Y0007421D03*
Y0026083D03*
X-0014134Y0020413D03*
X0014134D03*
X-0013189Y0025138D03*
X0013189D03*
X0014764Y0012461D03*
X-0012874Y0023563D03*
X0012874D03*
X0003346Y-0012264D03*
X0018858D03*
X0019173Y0022618D03*
X0003031D03*
X0014764Y0001673D03*
X-0013189Y0023878D03*
X0013189D03*
X0019488Y0007421D03*
Y0026083D03*
X-0009016Y0002618D03*
X0009016D03*
X-0007441Y-0013524D03*
Y0002618D03*
X-0008701Y-0003681D03*
Y0014980D03*
Y0024508D03*
X0003661Y0001673D03*
X0001772Y0000728D03*
X-0002736Y-0017874D03*
X-0018228Y-0014154D03*
X0012874Y0020413D03*
X-0012874D03*
X-0007441Y-0009429D03*
X0003346Y0023878D03*
X0018858D03*
X0003661Y0024508D03*
X0001772Y-0001791D03*
X0020433D03*
X0003346Y0020413D03*
X0018858D03*
X0019488Y0019154D03*
X0014449Y0008681D03*
Y0024823D03*
X0013189Y0025453D03*
X-0013189D03*
X0008829Y0028642D03*
X0002717Y0024823D03*
X0020118Y0020413D03*
X0002087D03*
X-0018858Y-0008169D03*
X-0004291Y-0014469D03*
Y0003563D03*
X-0012972Y0030285D03*
X0003661Y-0009429D03*
X0001722Y-0010374D03*
X-0002421Y-0017874D03*
X0003661Y0008681D03*
Y0024823D03*
X-0004882Y0027047D03*
X0003346Y0023248D03*
X0018858D03*
X0004606Y0008996D03*
Y0024508D03*
X-0014764Y-0001476D03*
X-0012628Y-0003366D03*
X-0011555Y-0017874D03*
X0014764Y0023878D03*
X-0016969Y0020413D03*
X-0019803Y-0012264D03*
X-0021339Y-0006722D03*
X0019803Y0007421D03*
Y0026083D03*
X-0018543Y0012461D03*
X-0015079Y-0014469D03*
Y0003563D03*
X0002402Y0023563D03*
X0009646Y0027431D03*
X-0005866Y0020098D03*
Y-0008799D03*
X0015079Y0008996D03*
Y0024508D03*
X0016969Y-0012894D03*
X0010915Y-0021831D03*
X0001772Y0001988D03*
X0020433D03*
X-0019488Y-0007539D03*
Y0018839D03*
X-0019173Y-0001476D03*
X-0003031D03*
X0019803Y0019469D03*
X0019173Y0025453D03*
X0003661Y0007736D03*
Y0025768D03*
X-0019173Y0021988D03*
X-0003031D03*
X-0009016Y0020728D03*
X0009016D03*
X0020433Y0019469D03*
X0001772D03*
X0005866Y-0012894D03*
X0006811Y-0001791D03*
X-0014449Y0020413D03*
X0014449D03*
X0013504Y0007421D03*
Y0026083D03*
X-0019488Y-0011949D03*
X-0021063Y-0006722D03*
X0003346Y0022933D03*
X0018858D03*
X0014764Y0012776D03*
X-0014449Y0021673D03*
X0014449D03*
X-0017598Y-0013209D03*
Y0002303D03*
X0007441Y0007421D03*
Y0026083D03*
X0011644Y0029429D03*
X0003031Y0025453D03*
X0018543Y0008681D03*
Y0024823D03*
X0019488Y0023563D03*
X0004921Y-0002421D03*
Y0013720D03*
X0014764Y0007736D03*
Y0025768D03*
X-0009016Y0014035D03*
X0009016D03*
X0006181Y0008996D03*
Y0024508D03*
X0018228Y0007421D03*
Y0026083D03*
X-0019488Y-0010059D03*
X-0002087Y0020413D03*
X-0020118D03*
X-0018543Y0001673D03*
X-0012579Y0027470D03*
X-0008701Y0024823D03*
X0012736Y-0018504D03*
X0018543Y0025138D03*
X0001772Y0023878D03*
X0020433D03*
X0019173Y-0021201D03*
X0017224Y-0018898D03*
X-0016024Y0008996D03*
Y0024508D03*
X0019488Y0019783D03*
X-0009724Y0026102D03*
X-0010974Y0028681D03*
X0014764Y-0009429D03*
X0020433Y0020413D03*
X0001772D03*
X-0012441Y0026831D03*
X-0018858Y0020413D03*
X-0003346D03*
X0001772Y0024823D03*
X0020433D03*
X-0014449Y0023878D03*
X0014449D03*
X-0018543Y0007736D03*
Y0025768D03*
X0012874Y0019469D03*
X-0012874D03*
X-0014449Y0009626D03*
X0014449D03*
X-0015394Y0008996D03*
Y0024508D03*
X-0009331Y0019469D03*
X0009331D03*
X0008701Y0007421D03*
Y0026083D03*
X-0018228Y-0002421D03*
Y0013720D03*
X0013819Y0007736D03*
Y0025768D03*
X-0004291Y-0001791D03*
X-0005236Y0009311D03*
X0012874Y0020728D03*
X-0012874D03*
X0009843Y0027421D03*
X0002717Y0024508D03*
X-0013189Y0024193D03*
X0013189D03*
X-0007126Y0008681D03*
Y0024823D03*
X-0013189Y-0002421D03*
X0013189D03*
X-0016024Y0008681D03*
Y0024823D03*
X-0003661Y0007736D03*
Y0025768D03*
X0007441Y0007736D03*
Y0025768D03*
X-0008071Y0023878D03*
X0008071D03*
X0017598Y0008681D03*
Y0024823D03*
X-0018858Y-0012264D03*
X-0003346D03*
X-0020433Y0023878D03*
X-0001772D03*
X-0018858Y0023248D03*
X-0003346D03*
X-0009016Y0019469D03*
X0009016D03*
X-0006811Y-0014469D03*
Y0003563D03*
Y0007736D03*
Y0025768D03*
X0014449Y0022933D03*
X-0014449D03*
X0007126Y0007736D03*
Y0025768D03*
X-0020433Y0024823D03*
X-0001772D03*
X-0020433Y0021043D03*
X-0001772D03*
X-0006811Y0008996D03*
Y0024508D03*
X-0013189Y0013720D03*
X0013189D03*
X0015709Y0008681D03*
Y0024823D03*
X-0020118Y0019783D03*
X-0002087D03*
X0003976Y0007736D03*
Y0025768D03*
X-0004606Y0008996D03*
Y0024508D03*
X-0013819Y0007421D03*
Y0026083D03*
X-0020118Y0025138D03*
X-0002087D03*
X-0013819Y-0014783D03*
Y0003878D03*
X-0020118Y0024193D03*
X-0002087D03*
X0009331Y-0012894D03*
X-0009331D03*
X-0004291Y0020098D03*
Y-0008799D03*
X0016024Y-0013524D03*
Y0002618D03*
X-0020433Y0024193D03*
X-0001772D03*
X0003661Y-0013524D03*
Y0002618D03*
X-0020433Y0025138D03*
X-0001772D03*
X-0017283Y-0013524D03*
Y0002618D03*
X0003031Y0023878D03*
X0019173D03*
X-0006181Y-0008799D03*
Y0020098D03*
X-0018543Y0007421D03*
Y0026083D03*
X0003346Y-0001161D03*
X0018858D03*
X0003031Y0022933D03*
X0019173D03*
X-0007441Y0007736D03*
Y0025768D03*
X-0019173Y0011831D03*
X-0003031D03*
X-0009016Y-0003051D03*
X0009016D03*
X0005236Y-0002106D03*
Y0013406D03*
X-0019173Y0013091D03*
X-0003031D03*
X-0020118Y0014350D03*
X-0002087D03*
X-0009016Y0019154D03*
X0009016D03*
X0003976Y-0002106D03*
Y0013406D03*
X-0020433Y0009626D03*
X-0001772D03*
X-0019173Y0010256D03*
X-0003031D03*
X-0003976Y-0002421D03*
Y0013720D03*
X-0018543Y-0003366D03*
Y0014665D03*
X0007756Y0012776D03*
X-0007756D03*
X-0008071Y0013091D03*
X0008071D03*
X-0014449Y-0002421D03*
Y0013720D03*
X0006811Y-0003366D03*
Y0014665D03*
X-0018858Y0010571D03*
X-0003346D03*
X0001772Y0009311D03*
X0020433D03*
X-0004291Y-0002106D03*
Y0013406D03*
X0001772Y0013091D03*
X0020433D03*
X0003661Y-0003366D03*
Y0014665D03*
X0004606Y-0002421D03*
Y0013720D03*
X-0020433Y0009311D03*
X-0001772D03*
X-0020433Y0013720D03*
X-0001772D03*
X-0019173Y0009626D03*
X-0003031D03*
X-0017283Y-0002421D03*
Y0013720D03*
X0002087Y0014350D03*
X0020118D03*
X-0019173Y0011516D03*
X-0003031D03*
X-0013819Y-0003366D03*
Y0014665D03*
X-0013504Y-0003681D03*
Y0014980D03*
X0008071Y-0003366D03*
Y0014665D03*
X0015079Y-0002421D03*
Y0013720D03*
X0004921Y0013406D03*
Y-0002106D03*
X0003346Y0013091D03*
X0018858D03*
X0017283Y-0002421D03*
Y0013720D03*
X0002087Y0009626D03*
X0020118D03*
X0001772Y0009941D03*
X0020433D03*
X0001772Y0013720D03*
X0020433D03*
X0003661Y-0002421D03*
Y0013720D03*
X0003031Y0010256D03*
X0019173D03*
X0001772Y0008681D03*
X0020433D03*
X0004606Y-0002106D03*
Y0013406D03*
X-0006181Y0024823D03*
Y0008681D03*
X0007126Y-0003366D03*
Y0014665D03*
Y-0003681D03*
Y0014980D03*
X0002402Y-0003681D03*
Y0014980D03*
X-0016969Y-0002106D03*
Y0013406D03*
X0002087Y0012776D03*
X0020118D03*
X0002717Y-0003681D03*
Y0014980D03*
X-0019173Y-0003366D03*
Y0014665D03*
X-0020433Y0012776D03*
X-0001772D03*
X-0009016Y0003248D03*
X0009016D03*
X0015079Y-0003366D03*
Y0014665D03*
X0008386Y-0003681D03*
Y0014980D03*
X0002087Y0008051D03*
X0020118D03*
X-0019803Y-0003681D03*
Y0014980D03*
X0003976Y-0003681D03*
Y0014980D03*
X0019488Y-0003366D03*
Y0014665D03*
X-0009331Y0020413D03*
X0009331D03*
X0019173Y-0003681D03*
Y0014980D03*
X-0019803Y-0010059D03*
X0003031Y0009626D03*
X0019173D03*
X-0004291Y0008996D03*
Y0024508D03*
X0001772Y0009626D03*
X0020433D03*
X0002717Y-0003366D03*
Y0014665D03*
X-0018858Y0012146D03*
X-0003346D03*
X0019803Y-0014783D03*
Y0003878D03*
X0008829Y0028051D03*
X0002717Y0025453D03*
X-0009331Y-0001476D03*
X0009331D03*
X0018543Y-0003366D03*
Y0014665D03*
X-0009016Y-0009429D03*
X0009016D03*
X0018228Y-0002421D03*
Y0013720D03*
X0006496Y-0013524D03*
Y0002618D03*
X0003976Y-0003366D03*
Y0014665D03*
X-0008071Y-0012894D03*
X0008071D03*
X0003661Y-0003681D03*
Y0014980D03*
X-0008071Y-0010059D03*
X0008071D03*
X-0009331Y-0012264D03*
X0009331D03*
X-0019488D03*
X-0021201Y-0006939D03*
X-0019173Y-0009429D03*
X-0003031D03*
X0017283Y0008996D03*
Y0024508D03*
X0005866Y0020098D03*
Y-0008799D03*
X0017283Y0008681D03*
Y0024823D03*
X0020551Y-0016850D03*
X-0013740Y0028002D03*
X-0008386Y0025453D03*
X-0003051Y-0017874D03*
X0001506Y0012933D03*
X0003661Y0012776D03*
X-0007756Y-0000846D03*
X0007756D03*
X-0014449Y0023248D03*
X0014449D03*
X0017913Y0020098D03*
Y-0008799D03*
X0019803Y0025138D03*
X-0013189Y0001673D03*
X0013189D03*
X-0019803Y-0014783D03*
Y0003878D03*
X0004606Y0008681D03*
Y0024823D03*
X0007756Y0008681D03*
Y0024823D03*
X0006811Y0007736D03*
Y0025768D03*
X-0014134Y-0010374D03*
X0014134D03*
X0002087Y0003248D03*
X0020118D03*
X-0007441Y0023563D03*
X0014134Y-0014783D03*
Y0003878D03*
X0016024Y0008681D03*
Y0024823D03*
X-0019173Y-0014154D03*
X-0003661Y0009626D03*
X-0005551Y0007736D03*
X-0009941Y-0017874D03*
X-0011240D03*
X-0012500Y0007638D03*
X-0014764Y0009626D03*
X0010197Y0026801D03*
X0007126Y-0014469D03*
Y0003563D03*
X0019803Y0024508D03*
X-0018858Y-0009429D03*
X-0003346D03*
X0017913Y0007736D03*
Y0025768D03*
X-0013189Y-0012894D03*
X0013189D03*
X0014134Y0023878D03*
X-0014134D03*
X-0018543Y0008681D03*
Y0024823D03*
X0019173Y-0003366D03*
Y0014665D03*
X0003346Y0000728D03*
X0018858D03*
X0019488Y0021358D03*
X0007441Y-0013524D03*
Y0002618D03*
X-0004921Y-0013209D03*
Y0002303D03*
X0018543Y0009626D03*
X-0005374Y-0017874D03*
X-0016024Y-0002421D03*
Y0013720D03*
X0008386Y0007421D03*
Y0026083D03*
X0003031Y-0001791D03*
X0019173D03*
X0003031Y0021988D03*
X0019173D03*
X0003031Y0013091D03*
X0019173D03*
X0013504Y-0003681D03*
Y0014980D03*
X-0002717Y0007736D03*
Y0025768D03*
X-0007756Y0023248D03*
X0007756D03*
X0012874Y0009311D03*
X-0012874D03*
X0017598Y-0002106D03*
Y0013406D03*
X0014449Y0012776D03*
X-0014449D03*
X0012874Y0008681D03*
X-0012874D03*
X-0014134Y0009311D03*
X0014134D03*
X0016024Y0013406D03*
Y-0002106D03*
X0002087Y0014035D03*
X0020118D03*
X-0013189D03*
X0013189D03*
X0018543Y-0007224D03*
Y0018524D03*
X-0003976Y-0014783D03*
Y0003878D03*
X0003346Y0023563D03*
X0018858D03*
X-0005236Y0020098D03*
Y-0008799D03*
X-0004291Y0009311D03*
X-0005236Y0020413D03*
X0018228Y-0002106D03*
Y0013406D03*
X0003661Y-0014783D03*
Y0003878D03*
X-0005236Y-0001791D03*
X-0004291Y-0012894D03*
X0018780Y-0019114D03*
X0017224Y-0017913D03*
X-0018228Y-0003366D03*
Y0014665D03*
X0018543Y-0002421D03*
Y0013720D03*
X0006220Y0027047D03*
X0006496Y-0002106D03*
Y0013406D03*
X0019173Y0019469D03*
X0003661Y0023563D03*
X-0008071Y0001043D03*
X0008071D03*
X0001772Y0008366D03*
X0020433D03*
X-0004882Y-0006260D03*
X-0019173Y-0000531D03*
X-0003031D03*
X-0018543Y0002303D03*
X0004291Y-0002106D03*
Y0013406D03*
X0003346Y-0009429D03*
X0018858D03*
X-0017283Y0008996D03*
Y0024508D03*
X0003031Y-0007539D03*
Y0018839D03*
X-0018858Y-0001476D03*
X-0003346D03*
X0014764Y-0013524D03*
Y0002618D03*
X-0020433D03*
X-0001772D03*
X-0015709Y0019783D03*
Y-0008484D03*
X-0006496Y0020098D03*
Y-0008799D03*
X-0002402Y-0014783D03*
Y0003878D03*
X0003346Y0021043D03*
X0018858D03*
X0019488Y-0014469D03*
Y0003563D03*
X-0009016Y-0001791D03*
X0009016D03*
X-0017323Y0027047D03*
X-0018543Y0013406D03*
X0014449Y0024193D03*
X-0014449D03*
X-0019488Y-0003681D03*
Y0014980D03*
X0002087Y0002618D03*
X0020118D03*
X-0009331Y0023563D03*
X0009331D03*
X-0002717Y0007421D03*
Y0026083D03*
X-0013189Y0009311D03*
X0013189D03*
X0008071Y-0003681D03*
Y0014980D03*
X0007441Y-0003366D03*
Y0014665D03*
X-0013189Y0008681D03*
X0013189D03*
X-0008071Y0021358D03*
X0008071D03*
X-0013189Y0008366D03*
X0013189D03*
X0004291Y0020098D03*
Y-0008799D03*
X0001772Y0014035D03*
X0020433D03*
X0015394Y-0003366D03*
Y0014665D03*
X0013819Y-0003366D03*
Y0014665D03*
X-0014449Y0010571D03*
X0014449D03*
X-0014134D03*
X0014134D03*
X-0019173Y0012146D03*
X-0003031D03*
X-0009331Y0024193D03*
X0009331D03*
X0002087Y0008681D03*
X0020118D03*
X0003031Y0012776D03*
X0019173D03*
X0006181Y-0008484D03*
Y0019783D03*
X0007126Y0008681D03*
Y0024823D03*
X-0017913Y0008996D03*
Y0024508D03*
X-0004291Y0007736D03*
Y0025768D03*
X0007126Y-0002106D03*
Y0013406D03*
X-0018858Y0010256D03*
X-0003346D03*
X0007441Y-0002421D03*
Y0013720D03*
X-0007441Y-0007539D03*
Y0018839D03*
X-0007756Y-0012264D03*
X0007756D03*
X0006811Y-0002106D03*
Y0013406D03*
X-0014134Y0012146D03*
X0014134D03*
X0018858Y0025453D03*
X0015394Y-0002106D03*
Y0013406D03*
X0003346Y0009626D03*
X0018858D03*
X-0003661Y0019783D03*
Y-0008484D03*
X0018228Y-0008799D03*
Y0020098D03*
X-0020118Y0009626D03*
X-0002087D03*
X0003031Y0021358D03*
X0019173D03*
X-0015709Y-0002106D03*
Y0013406D03*
X0014134Y0021358D03*
X-0014134D03*
X0003031Y-0009114D03*
X0019173D03*
X0004882Y0027047D03*
X-0014134Y-0003681D03*
Y0014980D03*
X0014449Y-0012264D03*
X-0014449D03*
X-0018858Y0021358D03*
X-0003346D03*
X0002717Y-0014783D03*
Y0003878D03*
X-0007756Y-0011634D03*
X0007756D03*
X-0009016Y0020413D03*
X0009016D03*
X-0019173Y-0014469D03*
Y0003563D03*
X-0007756Y0021673D03*
X0007756D03*
X-0004921Y0008996D03*
Y0024508D03*
X-0004606Y0008681D03*
Y0024823D03*
X-0007441Y0007421D03*
Y0026083D03*
X0003976Y0008996D03*
Y0024508D03*
X-0018228Y-0014469D03*
Y0003563D03*
X-0018858Y-0001161D03*
X-0003346D03*
X0018543Y-0008484D03*
Y0019783D03*
X-0009331D03*
X0009331D03*
X-0019173Y0021358D03*
X-0003031D03*
X-0002402Y0007421D03*
Y0026083D03*
X-0018858Y0024193D03*
X-0003346D03*
X-0020433Y0019469D03*
X-0001772D03*
X0002087Y-0001476D03*
X0020118D03*
X-0015709Y0008996D03*
Y0024508D03*
X-0018543Y0019783D03*
Y-0008484D03*
X-0017598Y-0002106D03*
Y0013406D03*
X0003031Y0012146D03*
X0019173D03*
X-0003976Y0008681D03*
Y0024823D03*
X-0003661Y0008681D03*
Y0024823D03*
X-0014449Y0008681D03*
Y0024823D03*
X-0013189Y0009626D03*
X0013189D03*
X-0009331Y-0008484D03*
X0009331D03*
X-0003976Y0026083D03*
Y0007421D03*
X-0007756Y0020413D03*
X0007756D03*
X0016024Y-0002421D03*
Y0013720D03*
X-0015984Y-0006260D03*
X0003976Y0007421D03*
Y0026083D03*
X-0017598Y0008681D03*
Y0024823D03*
X0014134Y-0003681D03*
Y0014980D03*
X0018228Y-0003366D03*
Y0014665D03*
X0016024Y0019783D03*
Y-0008484D03*
X-0019173Y-0014783D03*
Y0003878D03*
X-0012874Y0001673D03*
X0012874D03*
X0003346Y0008681D03*
Y0024823D03*
X0012874Y0001988D03*
X-0012874D03*
X-0014449Y0009311D03*
X0014449D03*
X0004291Y-0014469D03*
Y0003563D03*
X-0013189Y0013091D03*
X0013189D03*
X-0009331Y0025138D03*
X0009331D03*
X0012874Y0013091D03*
X-0012874D03*
X0004882Y0004843D03*
X-0013189Y0001988D03*
X0013189D03*
X0013504Y-0014783D03*
Y0003878D03*
X-0004921Y-0002421D03*
Y0013720D03*
X0018543Y-0013524D03*
Y0002618D03*
X-0014449Y-0001791D03*
X0014449D03*
X-0015079Y0007421D03*
Y0026083D03*
X0012874Y0002618D03*
X-0012874D03*
X-0006181Y0008996D03*
Y0024508D03*
X-0017283Y0024823D03*
Y0008681D03*
X0013819Y-0014783D03*
Y0003878D03*
X-0006181Y-0013524D03*
Y0002618D03*
X-0003661Y0020728D03*
X-0009675Y0018839D03*
X-0010256Y-0017874D03*
X-0009016Y-0002736D03*
X0009016D03*
X-0018228Y0003878D03*
Y-0014783D03*
X0014134Y0013091D03*
X-0014134D03*
X0008071Y-0014783D03*
Y0003878D03*
X0014764Y-0003366D03*
Y0014665D03*
X-0015079Y-0013524D03*
Y0002618D03*
X-0003031Y-0014469D03*
Y0003563D03*
X-0017323Y-0006260D03*
X-0018858Y-0000531D03*
X-0003346D03*
X-0005236Y0008996D03*
Y0024508D03*
X0014134Y0024193D03*
X-0014134D03*
X-0015079Y0007736D03*
Y0025768D03*
X-0014764Y0007421D03*
Y0026083D03*
X-0008071Y0007421D03*
Y0026083D03*
X-0007756Y-0013524D03*
Y0002618D03*
X-0009016Y-0008484D03*
X0009016D03*
X-0018858Y-0013524D03*
Y0002618D03*
X-0009331Y0002933D03*
X0009331D03*
X0016969Y0009311D03*
X0017913Y-0001791D03*
X0004291Y0008996D03*
Y0024508D03*
X-0016024Y-0013209D03*
Y0002303D03*
X-0001772Y0019783D03*
X-0020433D03*
X-0007756Y0023563D03*
X0007756D03*
X0014134Y0010256D03*
X-0014134D03*
X-0013189Y0012776D03*
X0013189D03*
X-0009331Y0023878D03*
X0009331D03*
X0014449Y0011831D03*
X-0014449D03*
X0003346Y-0000531D03*
X0018858D03*
X-0003031Y0007421D03*
Y0026083D03*
X-0016339Y0020413D03*
X-0004291D03*
X-0013189Y-0008484D03*
X0013189D03*
X0003031Y0020413D03*
X0019173D03*
X-0007756Y0008681D03*
Y0024823D03*
X0007441Y0009626D03*
X0009016Y0009941D03*
X-0007303Y-0017874D03*
X0019173Y0019154D03*
X0008071Y0011516D03*
X-0008071D03*
X-0014134Y0007736D03*
Y0025768D03*
X0003031Y0025138D03*
X0008829Y0028248D03*
X0005236Y0008996D03*
Y0024508D03*
X0006181Y-0002421D03*
Y0013720D03*
X-0012874Y0001358D03*
X0012874D03*
X0015709Y0020098D03*
Y-0008799D03*
X0018858Y0025138D03*
X0011644Y0028642D03*
X0015079Y-0014783D03*
Y0003878D03*
X0018543Y0019469D03*
X0002087Y0013720D03*
X0020118D03*
X-0020118Y0001673D03*
X-0002087D03*
X0015984Y0027047D03*
X-0015709Y-0013209D03*
Y0002303D03*
X-0002717Y-0003681D03*
Y0014980D03*
X-0009331Y0013720D03*
X0009331D03*
X-0018858Y0001988D03*
X-0003346D03*
X0018543Y0007736D03*
Y0025768D03*
X0006181Y-0002106D03*
Y0013406D03*
X0016969Y-0013209D03*
Y0002303D03*
X-0010965Y0026831D03*
X0014449Y0021043D03*
X-0014449D03*
X-0009331Y0009626D03*
X0009331D03*
X-0003661Y-0014783D03*
Y0003878D03*
X-0015394Y-0003366D03*
Y0014665D03*
X0017598Y0019783D03*
Y-0008484D03*
X-0009331Y0021043D03*
X0009331D03*
X0018228Y-0013209D03*
Y0002303D03*
X0001772Y0012776D03*
X0020433D03*
X0002087Y0013091D03*
X0020118D03*
X-0007126Y-0008484D03*
Y0019783D03*
X-0008071Y-0010689D03*
X0008071D03*
X0002402Y-0014783D03*
Y0003878D03*
X0008071Y0009311D03*
X-0008071D03*
X-0019488Y-0013209D03*
X-0021772Y-0006939D03*
X-0015079Y-0013209D03*
Y0002303D03*
X-0003976Y0008996D03*
Y0024508D03*
X0006220Y0004843D03*
X-0006496Y0008681D03*
Y0024823D03*
X0018228Y-0003681D03*
Y0014980D03*
X0017224Y-0019685D03*
X0018248Y-0020256D03*
X-0008071Y0022933D03*
X0008071D03*
X-0009016Y-0012579D03*
X0009016D03*
X-0008071Y0023248D03*
X0008071D03*
X0012874Y0019783D03*
X-0012874D03*
X-0014449Y0012146D03*
X0014449D03*
X-0008071Y-0000846D03*
X0008071D03*
X-0017913Y-0013209D03*
Y0002303D03*
X-0018858Y0000728D03*
X-0003346D03*
X0007126Y-0013524D03*
Y0002618D03*
X-0009016Y0001673D03*
X0009016D03*
X-0014134Y0009626D03*
X0014134D03*
X-0020433Y0002933D03*
X-0001772D03*
X0005866Y-0002106D03*
Y0013406D03*
X-0019173Y0021673D03*
X-0003031D03*
X-0020118Y0019154D03*
X-0002087D03*
X0003031Y0020728D03*
X0019173D03*
X-0005866Y0008996D03*
Y0024508D03*
X0013189Y0014350D03*
X-0013189D03*
X0009331Y-0002421D03*
X-0009331D03*
X0003976Y-0014469D03*
Y0003563D03*
X0018543Y-0003681D03*
Y0014980D03*
X-0007756Y0001988D03*
X0007756D03*
X0014449D03*
X-0014449D03*
X-0007126Y0007421D03*
Y0026083D03*
Y0008996D03*
Y0024508D03*
X-0003031Y0007736D03*
Y0025768D03*
X0012874Y0009626D03*
X-0012874D03*
X-0009331Y0013091D03*
X0009331D03*
X0017913Y-0013209D03*
Y0002303D03*
X0007756Y0022933D03*
X-0007756D03*
X0018543Y-0001476D03*
X-0005689Y-0017874D03*
X-0019488Y-0003366D03*
Y0014665D03*
X-0014134Y0010886D03*
X0014134D03*
X-0013189Y0020413D03*
X0013189D03*
X-0018858Y-0012894D03*
X-0003346D03*
X-0019173Y0020728D03*
X-0003031D03*
X0012874Y0013720D03*
X-0012874D03*
X0008386Y0007736D03*
Y0025768D03*
X-0008386Y0007736D03*
Y0025768D03*
X-0009016Y0023878D03*
X0009016D03*
X0001772Y0021043D03*
X0020433D03*
X-0003976Y-0003366D03*
Y0014665D03*
X-0018858Y0022933D03*
X-0003346D03*
X0007756Y-0013524D03*
Y0002618D03*
X0012874Y0009941D03*
X-0012874D03*
X-0008701Y0007421D03*
Y0026083D03*
X-0018858Y-0002421D03*
Y0013720D03*
X-0003346Y0008681D03*
Y0024823D03*
X0006496Y0008996D03*
Y0024508D03*
X0008386Y-0003366D03*
Y0014665D03*
X0002087Y0008366D03*
X0020118D03*
X0013819Y-0003681D03*
Y0014980D03*
X0012874Y0014035D03*
X-0012874D03*
X0014449Y0010256D03*
X-0014449D03*
Y0020728D03*
X0014449D03*
X-0019173Y0022933D03*
X-0003031D03*
X0016969Y0008996D03*
Y0024508D03*
X0007756Y0020728D03*
X-0007756D03*
X-0013189Y0002933D03*
X0013189D03*
X-0007441Y0008681D03*
Y0024823D03*
X-0012874Y0012776D03*
X0012874D03*
X-0013504Y-0014783D03*
Y0003878D03*
X-0003661Y-0013524D03*
Y0002618D03*
X-0020433Y-0001476D03*
X-0001772D03*
X-0007756Y0000728D03*
X0007756D03*
X0003031Y-0000846D03*
X0019173D03*
X0012874Y-0008484D03*
X-0012874D03*
X-0009016Y0024193D03*
X0009016D03*
X-0004606Y-0008484D03*
Y0019783D03*
X0016024Y0024508D03*
Y0008996D03*
X0014764Y-0002421D03*
Y0013720D03*
X-0003661Y-0003681D03*
Y0014980D03*
X0018228Y-0013524D03*
Y0002618D03*
X-0014764Y-0014469D03*
Y0003563D03*
X-0009016Y0025453D03*
X0009016D03*
X-0014764Y0007736D03*
Y0025768D03*
X-0018858Y0001673D03*
X-0003346D03*
X-0007441Y-0009744D03*
X-0007756Y0001358D03*
X0007756D03*
X0019173Y0007736D03*
Y0025768D03*
X0008071Y0020413D03*
X-0008071D03*
X0017323Y-0006260D03*
X-0008386Y-0014469D03*
Y0003563D03*
X0007756Y-0002421D03*
Y0013720D03*
X0019803Y0020098D03*
X-0004606Y-0002106D03*
Y0013406D03*
X0003346Y0012146D03*
X0018858D03*
X-0019173Y0010571D03*
X-0003031D03*
X-0018858Y0009311D03*
X-0003346D03*
X-0008386Y0024193D03*
X0015709Y0008996D03*
Y0024508D03*
X0012874Y0025138D03*
X-0012874D03*
X0013189Y0019154D03*
X-0013189D03*
X-0012972Y0027470D03*
X-0008701Y0023563D03*
X0007756Y-0009429D03*
X-0007756D03*
X0003031Y0007421D03*
Y0026083D03*
X-0004291Y-0003366D03*
Y0014665D03*
X0015709Y-0013209D03*
Y0002303D03*
X-0014764Y0008681D03*
Y0024823D03*
X-0013789Y0028681D03*
X-0008386Y0024823D03*
X0002087Y0019154D03*
X0020118D03*
X0017323Y0027047D03*
X-0017598Y0008996D03*
Y0024508D03*
X0001772Y0020728D03*
X0020433D03*
X-0020118Y0019469D03*
X-0002087D03*
X-0009016Y0025138D03*
X0009016D03*
X0008071Y0024193D03*
X-0008071D03*
X-0003661Y-0002421D03*
Y0013720D03*
X-0018858Y0021673D03*
X-0003346D03*
X-0020433Y-0001791D03*
X-0001772D03*
X0012874Y-0012579D03*
X-0012874D03*
X-0019173Y-0003681D03*
Y0014980D03*
X-0008071Y0011831D03*
X0008071D03*
X0008386Y-0014469D03*
Y0003563D03*
X-0018543Y-0007224D03*
Y0018524D03*
X0001772Y-0009429D03*
X0020433D03*
X-0019173Y0023248D03*
X-0003031D03*
X0003976Y0008681D03*
Y0024823D03*
X-0016890Y-0022008D03*
X0004606Y-0013209D03*
Y0002303D03*
X-0007126Y-0003681D03*
Y0014980D03*
X-0014134Y0022618D03*
X0014134D03*
X-0009016Y-0008169D03*
X0009016D03*
X-0019803Y-0013209D03*
X-0021919Y-0006732D03*
X0015079Y0007736D03*
Y0025768D03*
X-0020433Y0008681D03*
X-0001772D03*
X0007441Y-0003681D03*
Y0014980D03*
X-0018228Y0008996D03*
Y0024508D03*
X-0009016Y-0002421D03*
X0009016D03*
X0003031Y0001988D03*
X0019173D03*
X-0004921Y0024823D03*
Y0008681D03*
X0002087Y-0008484D03*
X0020118D03*
X-0008071Y0025453D03*
X-0010974Y0029469D03*
X-0018228Y-0007539D03*
Y0018839D03*
X0019488Y0020413D03*
Y0024508D03*
X0020118Y0019783D03*
X0002087D03*
X-0011870Y-0017874D03*
X-0012608Y-0014469D03*
X-0014764Y-0012579D03*
X-0008071Y0021988D03*
X0008071D03*
X-0015079Y0008681D03*
Y0024823D03*
X-0014134Y0020728D03*
X0014134D03*
X0007441Y-0012579D03*
X0009675Y-0012894D03*
X-0006673Y-0017874D03*
X0015079Y-0008484D03*
Y0019783D03*
X-0018543Y-0009429D03*
X0018228Y0008996D03*
Y0024508D03*
X0010039Y0027431D03*
X0002402Y0024823D03*
X-0018858Y-0011949D03*
X-0003346D03*
X0018228Y-0008484D03*
Y0019783D03*
X-0018858Y0023563D03*
X-0003346D03*
X-0019803Y-0011949D03*
X-0020925Y-0006929D03*
X0018858Y0019783D03*
Y-0008484D03*
X-0009331Y0008366D03*
X0009331D03*
X0017913Y0008996D03*
Y0024508D03*
X-0014134Y0021673D03*
X0014134D03*
X-0015079Y0008996D03*
Y0024508D03*
X0019488Y0025453D03*
X-0008386Y0023248D03*
X-0013169Y0027195D03*
X0002402Y0007421D03*
Y0026083D03*
X0003346Y0024193D03*
X0018858D03*
X0016339Y0008996D03*
Y0024508D03*
X0007441Y0008681D03*
Y0024823D03*
X-0014449Y-0000531D03*
X0014449D03*
X0014134Y0007421D03*
Y0026083D03*
X0007126Y-0002421D03*
Y0013720D03*
X0002087Y0025138D03*
X0020118D03*
X-0007126Y0020098D03*
Y-0008799D03*
X-0013189Y0019783D03*
X0013189D03*
X0014764Y0008681D03*
Y0024823D03*
X-0013189Y0019469D03*
X0013189D03*
X0005866Y0008996D03*
Y0024508D03*
X-0004921Y-0002106D03*
Y0013406D03*
X-0018858Y0008681D03*
Y0024823D03*
X0020118Y0019469D03*
X0002087D03*
X0018228Y0008681D03*
Y0024823D03*
X-0014134Y0021988D03*
X0014134D03*
X0002717Y0007421D03*
Y0026083D03*
X0012736Y-0018110D03*
X0019803Y-0003681D03*
Y0014980D03*
X0003031Y0023248D03*
X0019173D03*
X0020433Y0019783D03*
X0001772D03*
X-0020118Y0014035D03*
X-0002087D03*
X-0020118Y0023878D03*
X-0002087D03*
X-0014764Y-0003366D03*
Y0014665D03*
X0006181Y0008681D03*
Y0024823D03*
X-0020433Y0020413D03*
X-0001772D03*
X-0020118Y-0002736D03*
X-0002087D03*
X-0014449Y-0012894D03*
X0014449D03*
X0007126Y0008996D03*
Y0024508D03*
X0012736Y-0018307D03*
X-0019488Y0007421D03*
Y0026083D03*
X0003661Y0007421D03*
Y0026083D03*
X-0009331Y0009311D03*
X0009331D03*
X0002717Y0007736D03*
Y0025768D03*
X-0020118Y0020728D03*
X-0002087D03*
X-0018858D03*
X-0003346D03*
X-0006181Y0013406D03*
Y-0002106D03*
X-0009331Y0014035D03*
X0009331D03*
X0012736Y-0018898D03*
X0015394Y0020098D03*
Y-0008799D03*
X0003031Y0007736D03*
Y0025768D03*
X0019488Y0007736D03*
Y0025768D03*
X0003346Y0021673D03*
X0018858D03*
X-0009331Y0008681D03*
X0009331D03*
X0019173Y0007421D03*
Y0026083D03*
X-0018858Y0009941D03*
X-0003346D03*
X0015079Y0008681D03*
Y0024823D03*
X0014764Y0018524D03*
Y-0007224D03*
X0002087Y0020728D03*
X0020118D03*
X-0019173Y0007736D03*
Y0025768D03*
X0007126Y0026083D03*
Y0007421D03*
X-0018858Y0011831D03*
X-0003346D03*
X-0008071Y0012776D03*
X0008071D03*
X0003346Y-0000846D03*
X0018858D03*
X-0007126Y-0007539D03*
Y0018839D03*
X0003661Y0001358D03*
X-0013189Y-0009114D03*
X0013189D03*
X-0004606Y-0013524D03*
Y0002618D03*
X-0002717Y-0003366D03*
Y0014665D03*
X-0019488Y-0009744D03*
X0017283Y-0008799D03*
Y0020098D03*
X-0005236Y-0013209D03*
Y0002303D03*
X-0018543Y-0014469D03*
Y0003563D03*
X-0007756Y-0001791D03*
X0007756D03*
X-0020118Y-0003051D03*
X-0002087D03*
X-0020118Y0024823D03*
X-0002087D03*
X-0006220Y0015945D03*
X0006181Y-0013209D03*
Y0002303D03*
X-0004606Y-0013209D03*
Y0002303D03*
X0007441Y-0014783D03*
Y0003878D03*
X-0015394Y-0013209D03*
Y0002303D03*
X-0002717Y-0014469D03*
Y0003563D03*
X0002087Y-0001791D03*
X0020118D03*
X-0007756Y0001673D03*
X0007756D03*
X0006181Y0002618D03*
Y-0013524D03*
X-0013819Y-0007224D03*
Y0018524D03*
X-0017323Y0004843D03*
X-0018858Y0013091D03*
X-0003346D03*
X-0018543Y-0003681D03*
Y0014980D03*
X-0009331Y0001358D03*
X0009331D03*
X0014764Y0002303D03*
X-0018543Y0012776D03*
X0018543Y0023563D03*
X-0003031Y-0014783D03*
Y0003878D03*
X0003031Y0024508D03*
X0015079Y0020098D03*
Y-0008799D03*
X-0005866Y-0002106D03*
Y0013406D03*
X-0015079Y-0003366D03*
Y0014665D03*
X0003661Y-0014469D03*
Y0003563D03*
X0003346Y0001673D03*
X0018858D03*
X-0019173D03*
X-0003031D03*
X0007441Y-0014469D03*
Y0003563D03*
X0014449Y-0001161D03*
X-0014449D03*
X-0020118Y0003248D03*
X-0002087D03*
X-0014449Y-0001476D03*
X0014449D03*
X0015394Y-0013209D03*
Y0002303D03*
X-0007756Y0009941D03*
X0007756D03*
X-0008071Y0001988D03*
X0008071D03*
X0006811Y-0013209D03*
Y0002303D03*
X-0008386Y-0014783D03*
Y0003878D03*
X-0014134Y-0001476D03*
X0014134D03*
X-0009331Y0001673D03*
X0009331D03*
X0007126Y-0014783D03*
Y0003878D03*
X-0008071Y-0011319D03*
X0008071D03*
X-0008071Y-0010374D03*
X0008071D03*
X-0008071Y-0000531D03*
X0008071D03*
X0012874Y-0001161D03*
X-0012874D03*
X0014134Y0001673D03*
X-0014134D03*
X0001772Y0012461D03*
X0020433D03*
X0003031Y-0014469D03*
Y0003563D03*
Y-0001476D03*
X0019173D03*
X0004291Y0007736D03*
Y0025768D03*
X0002087Y-0002421D03*
X0020118D03*
X-0019803Y-0009744D03*
X0015984Y0015945D03*
X-0007441Y0012776D03*
X-0016339Y0008996D03*
Y0024508D03*
X-0018543Y0023563D03*
X0015079Y-0002106D03*
Y0013406D03*
X0019173Y-0007539D03*
Y0018839D03*
X0013504Y-0007224D03*
Y0018524D03*
X-0020433Y-0002736D03*
X-0001772D03*
X-0019173Y-0000217D03*
X-0003031D03*
X-0008386Y-0003681D03*
Y0014980D03*
X0018976Y-0019114D03*
X0017224Y-0020669D03*
X0002087Y0001988D03*
X0020118D03*
X-0020118D03*
X-0002087D03*
X-0014134Y-0014783D03*
Y0003878D03*
X-0009016Y0001988D03*
X0009016D03*
X0018858Y0008681D03*
Y0024823D03*
X0018248Y-0020453D03*
X0017224Y-0019488D03*
X-0007756Y0010571D03*
X0007756D03*
X0003031Y0011831D03*
X0019173D03*
X-0015079Y-0003681D03*
Y0014980D03*
X-0021486Y-0006939D03*
X-0019803Y-0012579D03*
X-0019173Y0000728D03*
X-0003031D03*
X-0017283Y0013406D03*
Y-0002106D03*
X0007756Y-0001476D03*
X-0007756D03*
X-0003976Y-0003681D03*
Y0014980D03*
X0002402Y0023248D03*
X-0011988Y0030285D03*
X-0009636Y0030118D03*
X0017323Y0015945D03*
X-0009016Y-0001476D03*
X0009016D03*
X0003031Y-0000217D03*
X0019173D03*
X-0014134Y-0000531D03*
X0014134D03*
X0015394Y-0014469D03*
Y0003563D03*
X-0014134Y-0014469D03*
Y0003563D03*
X-0019173Y-0010059D03*
X-0003031D03*
X0001772Y0001673D03*
X0020433D03*
X-0009331Y0012776D03*
X0009331D03*
X0015079Y-0007224D03*
Y0018524D03*
X-0003976D03*
Y-0007224D03*
X0016969Y0020413D03*
X0017913Y0009311D03*
X-0007441Y-0003681D03*
Y0014980D03*
X0019488Y0020098D03*
X-0015709Y-0002421D03*
Y0013720D03*
X0008071Y-0012579D03*
X-0008071D03*
X0003346Y0020728D03*
X0018858D03*
X0008386Y-0007539D03*
Y0018839D03*
X0019173Y-0014469D03*
Y0003563D03*
X0003031Y-0011634D03*
X0019173D03*
X-0015394Y-0014469D03*
Y0003563D03*
X-0007756Y0012146D03*
X0007756D03*
X0002717Y-0007539D03*
Y0018839D03*
X-0009016Y0024823D03*
X0009016D03*
X-0019173Y0001988D03*
X-0003031D03*
X0014449Y-0010059D03*
X-0014449D03*
X-0020118Y-0001476D03*
X-0002087D03*
X-0007126Y-0002421D03*
Y0013720D03*
X-0008071Y0010256D03*
X0008071D03*
X0019488Y-0014783D03*
Y0003878D03*
X0003976Y-0014783D03*
Y0003878D03*
X-0006181Y-0002421D03*
Y0013720D03*
X0003031Y0000728D03*
X0019173D03*
X-0020118Y-0001791D03*
X-0002087D03*
X-0013189Y-0012579D03*
X0013189D03*
X-0006811Y-0013209D03*
Y0002303D03*
X-0018228Y0008681D03*
Y0024823D03*
X0014134Y0000413D03*
X-0014134D03*
X-0010925Y-0017874D03*
X-0012628Y0018839D03*
X-0014764Y0020728D03*
X0008386Y-0014783D03*
Y0003878D03*
X-0016339Y-0002106D03*
Y0013406D03*
X-0014764Y-0008484D03*
Y0019783D03*
X0003031Y-0003366D03*
Y0014665D03*
X-0018858Y-0010374D03*
X-0003346D03*
X0017283Y-0008484D03*
Y0019783D03*
X-0012874Y-0009429D03*
X0012874D03*
X0001772Y-0009114D03*
X0020433D03*
X0009016Y0008051D03*
X-0009016D03*
X0018858Y0019469D03*
X0018543Y0018839D03*
Y-0007539D03*
X-0020433Y0009941D03*
X-0001772D03*
X-0019173Y-0008169D03*
X-0003346Y-0002421D03*
Y0013720D03*
X0002717Y0024193D03*
X-0013189Y-0002736D03*
X0013189D03*
X-0002402Y-0007224D03*
Y0018524D03*
X-0014134Y-0001791D03*
X0014134D03*
X-0020433Y0014035D03*
X-0001772D03*
X0002717Y-0007224D03*
Y0018524D03*
X0008071Y0018839D03*
Y-0007539D03*
X0003031Y-0010059D03*
X0019173D03*
X-0008071Y0021673D03*
X0008071D03*
X0003031Y-0000531D03*
X0019173D03*
X0007441Y0018839D03*
Y-0007539D03*
X-0020433Y0020728D03*
X-0001772D03*
X0012874Y-0013524D03*
X-0012874D03*
X-0009331Y-0001791D03*
X0009331D03*
X0015709Y-0013524D03*
Y0002618D03*
X-0009331Y-0013524D03*
X0009331D03*
X-0020433Y0013091D03*
X-0001772D03*
X0004921Y0008996D03*
Y0024508D03*
X-0009331Y0009941D03*
X0009331D03*
X0003346Y-0011949D03*
X0018858D03*
X-0020433Y-0001161D03*
X-0001772D03*
X-0003976Y-0007539D03*
Y0018839D03*
X-0020433Y-0008484D03*
X-0001772D03*
X-0008071Y0001673D03*
X0008071D03*
X-0020118Y-0008169D03*
X-0002087D03*
X-0006496Y-0013209D03*
Y0002303D03*
X-0020118Y0012776D03*
X-0002087D03*
X-0008071Y-0007539D03*
Y0018839D03*
X-0018543Y-0009744D03*
X0003661Y0002303D03*
X-0017913Y-0014469D03*
Y0003563D03*
X-0014134Y0001043D03*
X0014134D03*
X-0006496Y-0002106D03*
Y0013406D03*
X-0017913Y-0002106D03*
Y0013406D03*
X-0020118Y0013720D03*
X-0002087D03*
X0007441Y-0007224D03*
Y0018524D03*
X-0003976Y-0014469D03*
Y0003563D03*
X-0007756Y0001043D03*
X0007756D03*
X-0003031Y-0007539D03*
Y0018839D03*
X-0015984Y0015945D03*
X0004291Y-0007539D03*
Y0018839D03*
X-0003031Y-0001791D03*
X-0019173D03*
Y-0000846D03*
X-0003031D03*
X0008071Y-0014469D03*
Y0003563D03*
X0003661Y0018839D03*
Y-0007539D03*
X0015079D03*
Y0018839D03*
X0017598Y0008996D03*
Y0024508D03*
X0014449Y0012461D03*
X-0014449D03*
X-0018858Y-0009744D03*
X-0003346D03*
X0007126Y-0007539D03*
Y0018839D03*
X-0003976Y-0002106D03*
Y0013406D03*
X0017224Y-0018307D03*
X0019370Y-0021201D03*
X-0008071Y-0011949D03*
X0008071D03*
X-0009016Y0009626D03*
X0009016D03*
X0001772Y-0001476D03*
X0020433D03*
X0012874Y-0002421D03*
X-0012874D03*
X-0011118Y0017189D03*
X-0007756Y-0009744D03*
X0007756D03*
X-0008071Y-0009429D03*
X0008071D03*
X0001772Y-0002421D03*
X0020433D03*
X0018583Y-0018366D03*
X0019764Y-0019114D03*
X-0018543Y-0002421D03*
Y0013720D03*
X0001772Y-0013839D03*
X0020433D03*
X0019488Y-0007539D03*
Y0018839D03*
X0017913Y-0003366D03*
Y0014665D03*
X0014449Y-0009429D03*
X-0014449D03*
X0002087Y0009311D03*
X0020118D03*
X-0018858Y-0007854D03*
X-0014134Y-0010059D03*
X0014134D03*
X-0014449Y-0013524D03*
Y0002618D03*
X0016969Y-0001791D03*
X0017913Y-0012894D03*
X-0018858Y0001358D03*
X-0003346D03*
X-0013819Y-0014469D03*
Y0003563D03*
X-0017913Y0007736D03*
Y0025768D03*
X-0014134Y0018839D03*
Y-0007539D03*
X0003031Y0021673D03*
X0019173D03*
X0008071Y0012146D03*
X-0008071D03*
X0001772Y-0012894D03*
X0020433D03*
X-0007126Y-0014783D03*
Y0003878D03*
X-0009331Y-0009744D03*
X0009331D03*
X0004921Y0002303D03*
Y-0013209D03*
X0005236D03*
Y0002303D03*
X0004606Y-0013524D03*
Y0002618D03*
X0015709Y0019783D03*
Y-0008484D03*
X-0008071Y0010886D03*
X0008071D03*
X-0009016Y0008681D03*
X0009016D03*
X-0018228Y-0002106D03*
Y0013406D03*
X-0004921Y-0008799D03*
Y0020098D03*
X-0020433Y-0013839D03*
X-0001772D03*
X0003031Y-0010689D03*
X0019173D03*
X0014449Y-0010374D03*
X-0014449D03*
X0015079Y-0013524D03*
Y0002618D03*
X-0003031Y-0003366D03*
Y0014665D03*
X0014134Y0018524D03*
Y-0007224D03*
X0013189Y0003248D03*
X-0013189D03*
X0018228Y-0007539D03*
Y0018839D03*
X-0014134Y-0012894D03*
X0014134D03*
X-0014449Y-0008484D03*
Y0019783D03*
X0003346Y-0011634D03*
X0018858D03*
X0008386Y-0007224D03*
Y0018524D03*
X0008071Y0009626D03*
X-0008071D03*
X0012874Y-0013839D03*
X-0012874D03*
X0003031Y0009311D03*
X0019173D03*
X-0014764Y-0013524D03*
Y0002618D03*
X-0020118Y0009311D03*
X-0002087D03*
X-0008071Y0000728D03*
X0008071D03*
X0012874Y-0012264D03*
X-0012874D03*
X-0004606Y-0002421D03*
Y0013720D03*
X0002087Y-0008169D03*
X0020118D03*
X0015709Y-0002106D03*
Y0013406D03*
X0008701Y-0014783D03*
Y0003878D03*
X0007126Y-0013209D03*
Y0002303D03*
X-0008071Y-0001476D03*
X0008071D03*
X0007756Y0019783D03*
Y-0008484D03*
X-0019173Y-0010689D03*
X-0003031D03*
X0016339Y-0008799D03*
Y0020098D03*
X0014449Y-0008484D03*
Y0019783D03*
X-0006811Y-0002106D03*
Y0013406D03*
X-0018858Y0012461D03*
X-0003346D03*
X0016024Y0020098D03*
Y-0008799D03*
X0018858Y-0013524D03*
Y0002618D03*
X0004921Y0024823D03*
Y0008681D03*
X-0008386Y-0007224D03*
Y0018524D03*
X-0014764Y-0014783D03*
Y0003878D03*
X0003976Y-0013524D03*
Y0002618D03*
X0005866Y-0013209D03*
Y0002303D03*
X0018228Y-0014783D03*
Y0003878D03*
X0001772Y-0012264D03*
X0020433D03*
X-0019173Y-0011949D03*
X-0003031D03*
X-0015079Y0020098D03*
Y-0008799D03*
X-0006496Y-0002421D03*
Y0013720D03*
X-0014134Y0000728D03*
X0014134D03*
X-0003661Y-0007224D03*
Y0018524D03*
X-0009016Y-0007854D03*
X0009016D03*
X0006496Y-0002421D03*
Y0013720D03*
X-0018858Y-0001791D03*
X-0003346D03*
X0014764Y-0007539D03*
Y0018839D03*
X0002087Y-0007854D03*
X0020118D03*
X-0019803Y-0007224D03*
Y0018524D03*
X0008701Y-0007224D03*
Y0018524D03*
X-0019173Y0009311D03*
X-0003031D03*
X-0019173Y-0007539D03*
Y0018839D03*
X0002087Y0002933D03*
X0020118D03*
X-0007756Y-0008484D03*
Y0019783D03*
X-0002402Y-0003681D03*
Y0014980D03*
X0004291Y-0013209D03*
Y0002303D03*
X-0007756Y-0000531D03*
X0007756D03*
X-0004291Y-0007539D03*
Y0018839D03*
X0004606Y-0008799D03*
Y0020098D03*
X-0019488Y-0014469D03*
Y0003563D03*
X-0018228Y-0003681D03*
Y0014980D03*
X-0006811Y-0003366D03*
Y0014665D03*
X0013189Y0008051D03*
X-0013189D03*
X0019803Y-0007224D03*
Y0018524D03*
X0019173Y-0007224D03*
Y0018524D03*
X-0009016Y0013091D03*
X0009016D03*
X-0020118D03*
X-0002087D03*
X-0007756Y0012461D03*
X0007756D03*
X-0009331Y-0009114D03*
X0009331D03*
X0012874Y-0002736D03*
X-0012874D03*
X0002087D03*
X0020118D03*
X0014134Y0001988D03*
X-0014134D03*
X0017598Y-0013524D03*
Y0002618D03*
X-0009016Y-0009114D03*
X0009016D03*
X0014449Y0001673D03*
X-0014449D03*
X-0006496Y0019783D03*
Y-0008484D03*
X-0016339Y-0013209D03*
Y0002303D03*
X-0004606Y-0008799D03*
Y0020098D03*
X0014449Y0000728D03*
X-0014449D03*
X0013819Y-0007539D03*
Y0018839D03*
X-0007441Y-0014783D03*
Y0003878D03*
X-0020433Y0001673D03*
X-0001772D03*
X-0020433Y0001358D03*
X-0001772D03*
X0014764Y-0008484D03*
Y0019783D03*
X0012874Y-0012894D03*
X-0012874D03*
X-0007756Y0013091D03*
X0007756D03*
X-0005236Y-0002106D03*
Y0013406D03*
X0003031Y-0009429D03*
X0019173D03*
X-0009016Y-0013839D03*
X0009016D03*
X-0013819Y-0003681D03*
Y0014980D03*
X0006181Y-0008799D03*
Y0020098D03*
X0012874Y-0008169D03*
X-0012874D03*
X0004882Y-0006260D03*
X-0016969Y0020098D03*
Y-0008799D03*
X-0020118Y-0008484D03*
X-0002087D03*
X0019488Y0018524D03*
Y-0007224D03*
X-0018228Y0007736D03*
Y0025768D03*
G54D33*
X0018228Y0025453D03*
X0017913Y0025138D03*
X-0009016Y-0002106D03*
X-0008701Y-0001791D03*
X-0017283Y0003248D03*
X-0016654Y0001673D03*
X-0014449Y0003878D03*
Y0003563D03*
X-0014764Y0003248D03*
X-0013504Y0001988D03*
X-0015709Y0000098D03*
X-0015079D03*
X0000000Y0019704D03*
X0002717Y0025138D03*
X0002087Y0026083D03*
X0002402Y0025453D03*
X0002087Y0025768D03*
X0001772D03*
Y0026083D03*
X0000551Y0030197D03*
X-0000236D03*
X-0002087Y0007421D03*
X0000000Y0008602D03*
X0009016Y0007421D03*
X0009331D03*
Y0007736D03*
X0009016D03*
X0008701Y0008051D03*
X0008386Y0008366D03*
X-0018543Y0001988D03*
X-0019488Y0002933D03*
X-0019803Y0003248D03*
X-0020433Y0003878D03*
X0008071Y0008681D03*
X0007441Y0009311D03*
X0009331Y0010256D03*
X0009016D03*
X0000000Y0024902D03*
X-0001772Y0024508D03*
X0006496Y0000098D03*
X0007126D03*
X-0002087Y0024508D03*
X-0003661Y0020413D03*
X-0002087Y0018524D03*
X-0001772D03*
Y0018839D03*
X-0002087D03*
X-0002402Y0019154D03*
X-0002717Y0019469D03*
X-0002402Y0024193D03*
X0021043Y0013800D03*
X0009331Y-0003366D03*
X0011102Y-0002500D03*
X0021043D03*
X0020118Y-0000846D03*
X0020433D03*
X-0004606Y0022303D03*
X-0003976D03*
X-0002717Y0023878D03*
X-0003031Y0023563D03*
Y0019783D03*
X-0003346Y0020098D03*
X-0001772Y0021358D03*
X-0002087D03*
X0009331Y-0011949D03*
X0009016D03*
X0006496Y-0014783D03*
X0005551Y-0012894D03*
X0004291Y-0013524D03*
X-0011102Y-0008406D03*
X0018543Y-0001791D03*
X0012874Y-0002106D03*
X0013189D03*
X0013504Y-0001791D03*
X0015079Y0000098D03*
X0012874Y0001043D03*
X0013189D03*
X0013504Y0000728D03*
X0018858Y0003878D03*
Y0003563D03*
X0018543Y0003248D03*
X0015709Y0003878D03*
X0016654Y0001673D03*
X0020433Y-0003366D03*
Y-0003681D03*
X0020118D03*
Y-0003366D03*
X0019803Y-0003051D03*
X0019488Y-0002736D03*
X0019173Y-0002421D03*
X0014134Y0002618D03*
X0013819Y0002933D03*
X0012874Y0003878D03*
X0013189D03*
X0013504Y0003248D03*
X0012874Y0003563D03*
X0013189D03*
X0007756Y0008996D03*
X0006496Y0007421D03*
X0008386Y0012776D03*
X0008071Y0012461D03*
X0006496Y0011201D03*
X0007126D03*
X0009016Y-0014783D03*
X0009331D03*
Y-0014469D03*
X0009016D03*
X0008701Y-0014154D03*
X0008386Y-0013839D03*
X0008071Y-0013524D03*
X0006496Y-0014469D03*
X0006181Y-0014154D03*
X0007756Y-0013209D03*
X0007441Y-0012894D03*
X0008071Y0001358D03*
X0008701Y0001988D03*
X0009016Y0002303D03*
X0008386Y0001673D03*
X0007441Y0003248D03*
X0007756Y0003878D03*
Y0003563D03*
X0007126Y0002933D03*
X0006811Y0002618D03*
X0005551Y0001673D03*
X0004921Y0003248D03*
X-0003346Y0026083D03*
X-0019488Y0014035D03*
X-0020433Y0014980D03*
X-0019803Y0014350D03*
X-0020118Y0014980D03*
Y0014665D03*
X-0019803Y0011831D03*
X-0020118Y0012146D03*
X-0020433D03*
Y0014665D03*
X-0021043Y0013799D03*
X-0018543Y0013091D03*
X-0017283Y0014350D03*
X-0016654Y0012776D03*
X-0015079Y0014035D03*
X-0015394Y0013720D03*
X-0015709Y0011201D03*
X-0015079D03*
X-0003346Y0025768D03*
X-0003661Y0025453D03*
X-0003976Y0025138D03*
X-0004291Y0024823D03*
X-0005551Y0023878D03*
X-0004606Y0018524D03*
Y0018839D03*
X-0004921Y0019154D03*
X-0007756Y0018524D03*
Y0018839D03*
X-0005551Y0020413D03*
X-0001772Y0007421D03*
Y0007736D03*
X-0002087D03*
X-0002402Y0008051D03*
X-0002717Y0008366D03*
X-0004606Y0007421D03*
X-0012874Y-0011949D03*
X-0007756Y0007421D03*
Y0007736D03*
X-0005551Y0009311D03*
X-0007441Y0008051D03*
X-0009016Y0008996D03*
X0007441Y0014350D03*
X0007126Y0014035D03*
X0001772Y0008996D03*
X0002087D03*
X0002402Y0009311D03*
X0003976Y0011201D03*
X0002402Y0011831D03*
X0001772Y0012146D03*
X0002087D03*
X0003346Y0007421D03*
Y0007736D03*
X0003661Y0008051D03*
X0006496Y0007736D03*
X0006181Y0008051D03*
X0005551Y0009311D03*
X-0020118Y0003878D03*
Y0003563D03*
X-0018228Y0000098D03*
X-0019803Y0000728D03*
X-0019173Y-0001161D03*
X-0020118Y-0002106D03*
X-0020433D03*
X-0021043Y-0002500D03*
X-0020433Y0003563D03*
X-0021043Y0002697D03*
X-0020118Y0001043D03*
X-0020433D03*
X0022008Y-0010039D03*
X0021043Y-0008405D03*
X-0004606Y-0011004D03*
X0019803Y-0009114D03*
X0017598Y-0011004D03*
X0018228D03*
X0019488Y-0009429D03*
X0019173Y-0009744D03*
X0020433Y-0008799D03*
X0014449Y0018524D03*
Y0018839D03*
X0012874Y0020098D03*
X0013189D03*
X0013504Y0020413D03*
X0014764Y0019154D03*
X0016654Y0020413D03*
X0014134Y0021043D03*
X0013819Y0020728D03*
X0015394Y0019783D03*
X0015079Y0019469D03*
X0017283Y0019154D03*
X0020118Y0021358D03*
X0020433D03*
X0019803Y0013091D03*
X0017598Y0011201D03*
X0018228D03*
X0019488Y0012776D03*
X0019173Y0012461D03*
X0020433Y0013406D03*
X0020118D03*
X0018858Y0014980D03*
Y0014665D03*
X0018543Y0014350D03*
X0018228Y0014035D03*
X0017913Y0013720D03*
X0016654Y0012776D03*
X0015709Y0014980D03*
X-0014134Y0012461D03*
X-0013819Y0012776D03*
X-0013504Y0013091D03*
X-0014764Y0014350D03*
X-0014449Y0014665D03*
X-0019173Y0013720D03*
X-0018858Y0013406D03*
X-0017598Y0014980D03*
Y0014665D03*
X-0013189Y0013406D03*
X-0012874D03*
X-0011102Y0013799D03*
X0000000D03*
X-0006496Y0014980D03*
X-0005551Y0012776D03*
X-0004291Y0013720D03*
X-0003976Y0014035D03*
X-0002402Y0013091D03*
X-0003661Y0014350D03*
X-0001772Y0013406D03*
X-0002087D03*
X-0003346Y0014980D03*
Y0014665D03*
X-0002717Y0012776D03*
X0015079Y0022303D03*
X0012874Y0023248D03*
X0019173Y-0017480D03*
X0019921D03*
X-0003346Y-0007224D03*
Y-0007539D03*
X-0003661Y-0007854D03*
X-0005551Y-0009429D03*
X-0006181Y-0007854D03*
X-0006496Y-0007224D03*
Y-0007539D03*
X0020157Y-0016555D03*
X-0018858Y0007421D03*
Y0007736D03*
X-0018543Y0008051D03*
X0003661Y0001988D03*
X0002087Y0003878D03*
X0001772D03*
Y0003563D03*
X0002087D03*
X0002402Y0003248D03*
X0002717Y0002933D03*
X0004606Y0003878D03*
Y0003563D03*
X0003031Y0002618D03*
X0003346Y0002303D03*
X0020118Y-0008799D03*
X0018858Y-0007224D03*
Y-0007539D03*
X0018543Y-0007854D03*
X0018228Y-0008169D03*
X0017913Y-0008484D03*
X0016654Y-0009429D03*
X0016024Y-0007854D03*
X0015709Y-0007224D03*
Y-0007539D03*
X-0013189Y-0011949D03*
X-0018858Y-0014783D03*
Y-0014469D03*
X-0018543Y-0014154D03*
X-0016654Y-0012894D03*
X-0016024Y-0014154D03*
X0015394Y-0013524D03*
X0016654Y-0012894D03*
X0015079Y-0013839D03*
X0017283Y-0014154D03*
X-0012874Y-0008799D03*
X-0013189D03*
X-0013504Y-0009114D03*
X-0015709Y-0011004D03*
X-0015079D03*
X-0014134Y-0009744D03*
X-0013819Y-0009429D03*
X-0014449Y-0007539D03*
X-0014764Y-0007854D03*
X-0015079Y-0008169D03*
X0018543Y-0012894D03*
X0014764Y-0014154D03*
X0014449Y-0014469D03*
Y-0014783D03*
X0008504Y-0018799D03*
X0009272Y-0018228D03*
X0018858Y-0013209D03*
X0017598Y-0014783D03*
Y-0014469D03*
X0010039Y-0017480D03*
X0012736Y-0017913D03*
X0012362Y-0016457D03*
X0014488Y-0017539D03*
X0012736Y-0020669D03*
X0013642Y-0022598D03*
X0014705D03*
X0015079Y-0021240D03*
X0018248Y-0019862D03*
X0020315Y-0020059D03*
Y-0020256D03*
X0013150Y-0016220D03*
X0016437Y-0020079D03*
Y-0018701D03*
X-0014764Y-0012894D03*
X-0005551D03*
X-0006811Y-0013524D03*
X-0015394Y-0008484D03*
X-0016654Y-0009429D03*
X-0017598Y-0007224D03*
Y-0007539D03*
X-0017283Y-0007854D03*
X-0018543Y-0009114D03*
X-0018858Y-0008799D03*
X0021043Y0002697D03*
X0020433Y0002303D03*
X0020118D03*
X0019803Y0001988D03*
X-0013819Y-0013839D03*
X0003346Y0018524D03*
Y0018839D03*
X0003661Y0019154D03*
X0003976Y0019469D03*
X0004291Y0019783D03*
X0005551Y0020413D03*
X0006496Y0018524D03*
Y0018839D03*
X0001772Y0020098D03*
X0002087D03*
X0002402Y0020413D03*
X0002717Y0020728D03*
X0003031Y0021043D03*
X0003976Y0022303D03*
X0001772Y0023248D03*
X0003031Y0024823D03*
X0002087Y0023248D03*
X0002402Y0022933D03*
X0011102Y0024902D03*
X0003661Y0024193D03*
X0003346Y0024508D03*
X0018858Y-0002106D03*
X0017598Y-0003681D03*
Y-0003366D03*
X0017283Y-0003051D03*
X0014449Y-0003681D03*
Y-0003366D03*
X0014764Y-0003051D03*
X0016654Y-0001791D03*
X0013819Y-0001476D03*
X0014134Y-0001161D03*
X0015079Y-0002736D03*
X0015394Y-0002421D03*
X0003976Y-0013839D03*
X0003346Y-0014783D03*
Y-0014469D03*
X0003661Y-0014154D03*
X-0013504D03*
X0009331Y-0008799D03*
X0009016D03*
X0006496Y-0011004D03*
X0007126D03*
X0008071Y-0009744D03*
X0008386Y-0009429D03*
X0008701Y-0009114D03*
X0007756Y-0007224D03*
Y-0007539D03*
X0007441Y-0007854D03*
X0007126Y-0008169D03*
X0006811Y-0008484D03*
X0005551Y-0009429D03*
X0004921Y-0007854D03*
X0004606Y-0007224D03*
Y-0007539D03*
Y0026083D03*
X-0007126Y-0013839D03*
X0007756Y0026083D03*
Y0025768D03*
X0007441Y0025453D03*
X0002717Y-0008169D03*
X0002402Y-0007854D03*
X0002087Y-0007224D03*
Y-0007539D03*
X0001772D03*
Y-0007224D03*
X0003031Y-0008484D03*
X0003346Y-0008799D03*
X0003661Y-0009114D03*
X0001772Y-0010059D03*
Y-0013209D03*
X0002087D03*
X0002717Y-0012579D03*
X0002402Y-0012894D03*
X0002087Y-0010059D03*
X0002402Y-0010374D03*
X0003031Y-0012264D03*
X0003976Y-0011004D03*
X0013819Y0014035D03*
X0013504Y0014350D03*
X0012874Y0014980D03*
X0013189D03*
Y0014665D03*
X0012874D03*
X0015709D03*
X0016024Y0014350D03*
X0014134Y0013720D03*
X0015079Y0011201D03*
X0013504Y0011831D03*
X-0015709Y-0014783D03*
Y-0014469D03*
X-0014134Y-0013524D03*
X-0014449Y-0013209D03*
X-0018228Y-0013839D03*
X-0017913Y-0013524D03*
X-0013819Y0001673D03*
X-0014134Y0001358D03*
X-0015079Y0002933D03*
X-0015394Y0002618D03*
X-0019173D03*
X-0018858Y0002303D03*
X-0017598Y0003878D03*
Y0003563D03*
X-0013189Y0002303D03*
X-0012874D03*
X-0011102Y0002697D03*
X-0007441Y-0014154D03*
X0019173Y-0013524D03*
X0019488Y-0013839D03*
X0020433Y-0014783D03*
X0017224Y0029902D03*
Y0030925D03*
X0014865Y0030912D03*
X0013504Y0031220D03*
X0012589Y0030079D03*
X0012372Y0029311D03*
X-0007126Y0000098D03*
X-0009331Y0001043D03*
X-0007441Y0019154D03*
X-0009016Y0020098D03*
X-0004606Y-0014783D03*
Y-0014469D03*
X-0008071Y0021043D03*
X-0007126Y0022303D03*
X-0006811Y0019783D03*
X-0007126Y0019469D03*
X-0008701Y0020413D03*
X-0008386Y0020728D03*
X-0008701Y0022933D03*
X-0009016Y0026083D03*
X-0009331D03*
Y0025768D03*
X-0008386Y0025138D03*
X-0009016Y0025768D03*
X-0008701Y0025453D03*
X-0008071Y0024823D03*
X-0013189Y-0014783D03*
X0013819Y0009626D03*
X0012874Y0008996D03*
X0013189D03*
X0013504Y0009311D03*
X0014134Y0009941D03*
X0014449Y0007421D03*
Y0007736D03*
X0014764Y0008051D03*
X-0021594Y-0016122D03*
X-0021417Y-0013229D03*
X-0020433Y-0013209D03*
X-0020118D03*
X-0019803Y-0012894D03*
X-0019488Y-0012579D03*
X-0019173Y-0008484D03*
X-0019488Y-0008169D03*
X-0019803Y-0007854D03*
X-0020118Y-0007539D03*
Y-0007224D03*
X-0020433D03*
Y-0007539D03*
X-0021043Y-0008405D03*
X-0019803Y-0010374D03*
X-0019173Y-0012264D03*
X-0018228Y-0011004D03*
X-0004921Y-0014154D03*
X-0020118Y-0010059D03*
X-0020433D03*
X-0022067D03*
X-0008701Y-0012894D03*
X-0008386Y-0012579D03*
X-0008071Y-0012264D03*
X-0007126Y-0011004D03*
X-0009331Y-0010059D03*
X-0009016Y-0007224D03*
X-0009331D03*
Y-0007539D03*
X-0009016D03*
X-0008701Y-0007854D03*
X-0008386Y-0008169D03*
X-0008071Y-0008484D03*
X-0009016Y-0010059D03*
X-0008701Y-0010374D03*
X-0007756Y-0008799D03*
X-0007441Y-0009114D03*
X-0007756Y-0014783D03*
Y-0014469D03*
X-0009331Y-0013209D03*
X-0009016D03*
X-0003661Y-0012894D03*
X-0002717Y-0013839D03*
X-0002087Y-0014783D03*
Y-0014469D03*
X-0002402Y-0014154D03*
X-0001772Y-0014783D03*
Y-0014469D03*
X0019803Y-0014154D03*
X0020118Y-0014783D03*
Y-0014469D03*
X0020433D03*
X0021043Y-0013603D03*
X0020118Y-0011949D03*
X0020433D03*
X0013819Y-0012579D03*
X0013504Y-0012894D03*
X0013189Y-0013209D03*
X-0006181Y0025453D03*
X-0006496Y0026083D03*
Y0025768D03*
X-0009331Y0023248D03*
X-0009016D03*
X-0007441Y0024193D03*
X-0007756Y0024508D03*
X-0008071Y0009941D03*
X-0007126Y0011201D03*
X-0009331Y0012146D03*
X-0006811Y0008681D03*
X-0007126Y0008366D03*
X-0008701Y0009311D03*
X-0008386Y0009626D03*
X-0008071Y0013720D03*
X-0008386Y0014035D03*
X-0008701Y0014350D03*
X-0009016Y0014980D03*
Y0014665D03*
X-0009331D03*
Y0014980D03*
X-0009016Y0012146D03*
X-0008701Y0011831D03*
X-0003031Y-0013524D03*
X-0003346Y-0013209D03*
X-0001772Y-0011949D03*
X-0002087D03*
X-0003976Y-0011004D03*
X-0002402Y-0009114D03*
X-0003976Y-0008169D03*
X-0004291Y-0008484D03*
X-0002717Y-0009429D03*
X-0003031Y-0009744D03*
X-0002087Y-0008799D03*
X-0001772D03*
X0000000Y-0008405D03*
X-0011102Y0024902D03*
X-0013189Y-0014469D03*
X-0012874D03*
X-0013504Y0024193D03*
X-0013819Y0023878D03*
X-0017283Y0025453D03*
X-0016654Y0023878D03*
X-0015394Y0024823D03*
X-0015079Y0025138D03*
X-0014764Y0025453D03*
X-0012874Y0024508D03*
X-0013189D03*
X-0014449Y0026083D03*
Y0025768D03*
X-0018858Y0018524D03*
Y0018839D03*
X-0018543Y0019154D03*
X-0016654Y0020413D03*
X-0018543Y0024193D03*
X-0019488Y0025138D03*
X-0020118Y0026083D03*
X-0019803Y0025453D03*
X-0020433Y0026083D03*
X-0020118Y0025768D03*
X-0014134Y0023563D03*
X-0015709Y0022303D03*
X-0015079D03*
X-0019173Y0024823D03*
X-0018858Y0024508D03*
X-0017598Y0026083D03*
Y0025768D03*
X-0009016Y0003878D03*
X-0009331D03*
Y0003563D03*
X-0009016D03*
X-0012874Y-0014783D03*
X-0008701Y0003248D03*
X-0008386Y0002933D03*
X-0008071Y0002618D03*
X-0009016Y0001043D03*
X-0008701Y0000728D03*
X-0003031Y0008681D03*
X-0001772Y0010256D03*
X-0002087D03*
X-0003346Y0008996D03*
X-0003661Y0009311D03*
X-0004606Y0007736D03*
X-0004921Y0008051D03*
X-0006496Y0014665D03*
X-0006181Y0014350D03*
X-0007756Y0013406D03*
X-0007441Y0013091D03*
X0014764Y-0009114D03*
X0013819Y-0008169D03*
X0013504Y-0007854D03*
X0013189Y-0007539D03*
Y-0007224D03*
X0012874Y-0007539D03*
Y-0007224D03*
Y-0010059D03*
X0014134Y-0008484D03*
X0014449Y-0008799D03*
X0014134Y-0012264D03*
X0015079Y-0011004D03*
X0013189Y-0010059D03*
X0013504Y-0010374D03*
X-0006496Y0003878D03*
X-0003661Y0003248D03*
X-0003346Y0003563D03*
X-0004291Y0002618D03*
X-0005551Y0001673D03*
X-0003976Y0002933D03*
X-0002717Y0001673D03*
X-0003031Y0001358D03*
X-0004606Y0000098D03*
X-0003976D03*
X0006181Y0019154D03*
X0008386Y0019469D03*
X0009331Y0021358D03*
X0009016D03*
X0008701Y0019154D03*
X0009016Y0018839D03*
X0007441Y0020413D03*
X0008071Y0019783D03*
X0007756Y0020098D03*
X0009016Y0018524D03*
X0009331D03*
X-0001772Y-0000846D03*
X-0002087D03*
X0021043Y0019704D03*
X0018543Y0020413D03*
X0019488Y0019469D03*
X0019803Y0019154D03*
X0020433Y0018839D03*
X0015709Y0026083D03*
X0016654Y0023878D03*
X0018543Y0025453D03*
X0018858Y0026083D03*
X0015709Y0025768D03*
X0016024Y0025453D03*
X0020118Y0018839D03*
X0018858Y0025768D03*
X0020118Y0024508D03*
X0020433D03*
X0021043Y0024902D03*
X0019803Y0024193D03*
X0017598Y0022303D03*
X0018228D03*
Y0025138D03*
X0017913Y0024823D03*
X0019488Y0023878D03*
X0019173Y0023563D03*
X0017598Y0018524D03*
Y0018839D03*
X0019173Y0019783D03*
X0018858Y0020098D03*
X0020118Y0018524D03*
X0020433D03*
X0009331Y-0000846D03*
X0009016D03*
X-0004931Y-0020226D03*
X-0007746D03*
X0003346Y-0003681D03*
Y-0003366D03*
X0003661Y-0003051D03*
X0013189Y0025768D03*
Y0026083D03*
X0012874Y0025768D03*
Y0026083D03*
X0014134Y0024823D03*
X0013819Y0025138D03*
X0013504Y0025453D03*
X0013189Y0023248D03*
X0013504Y0022933D03*
X0014449Y0024508D03*
X0014764Y0024193D03*
X0018543Y0009311D03*
X0021043Y0008602D03*
X0020118Y0010256D03*
X0020433D03*
Y0007736D03*
Y0007421D03*
X0020118D03*
Y0007736D03*
X0019803Y0008051D03*
X0019488Y0008366D03*
X0019173Y0008681D03*
X0018858Y0008996D03*
X0015079Y0008366D03*
X0015394Y0008681D03*
X0016654Y0009311D03*
X0017283Y0008051D03*
X0017598Y0007421D03*
Y0007736D03*
X0014764Y0013091D03*
X0014449Y0013406D03*
X0012874Y0012146D03*
X0013189D03*
X0003661Y0013091D03*
X0003346Y0013406D03*
X0003031Y0013720D03*
X0002717Y0014035D03*
X0002402Y0014350D03*
X0001772Y0014980D03*
X0002087D03*
Y0014665D03*
X0001772D03*
X0003976Y0008366D03*
X0004291Y0008681D03*
X0002717Y0009626D03*
X0003031Y0009941D03*
X-0020433Y0025768D03*
X-0021043Y0024902D03*
X-0020433Y0023248D03*
X-0020118D03*
X-0019803Y0022933D03*
X-0018228Y0022303D03*
X-0019803Y0020413D03*
X-0012874Y0021358D03*
X-0013189D03*
X-0003031Y0012461D03*
X-0004606Y0011201D03*
X-0003976D03*
X-0009331Y0008996D03*
X-0011102Y0008602D03*
X-0017913Y-0002421D03*
X-0018858Y-0003681D03*
Y-0003366D03*
X-0016654Y-0001791D03*
X-0015709Y-0003681D03*
X-0019803Y-0001791D03*
X-0019488Y-0001476D03*
X-0018543Y-0003051D03*
X-0018228Y-0002736D03*
X0006496Y-0003681D03*
X0005551Y-0001791D03*
X0003976Y-0002736D03*
X0004291Y-0002421D03*
X-0012874Y-0003681D03*
X-0013189D03*
Y-0003366D03*
X-0013504Y-0003051D03*
X-0013819Y-0002736D03*
X-0015709Y-0003366D03*
X-0016024Y-0003051D03*
X-0014134Y-0002421D03*
X-0014764Y-0001791D03*
X-0014449Y-0002106D03*
X-0012874Y-0000846D03*
X-0013189D03*
X-0016654Y0009311D03*
X-0015709Y0007421D03*
X-0018228Y0008366D03*
X-0017913Y0008681D03*
X-0018228Y0011201D03*
X-0019173Y0009941D03*
X-0019488Y0009626D03*
X-0019803Y0009311D03*
X-0020433Y0008996D03*
X-0020118D03*
X-0012874Y0010256D03*
X-0013189D03*
X0009331Y0024508D03*
X0009016D03*
X0006496Y0022303D03*
X0007126D03*
X0008701Y0024193D03*
X0007126Y0025138D03*
X0008071Y0023563D03*
X0008386Y0023878D03*
X0004606Y0025768D03*
X0004921Y0025453D03*
X0006811Y0024823D03*
X0005551Y0023878D03*
X0017598Y0000098D03*
X0018228D03*
Y0002933D03*
X0017913Y0002618D03*
X0019488Y0001673D03*
X0019173Y0001358D03*
X0014449Y0002303D03*
X0014764Y0001988D03*
X0015709Y0003563D03*
X0016024Y0003248D03*
X0006811Y0013720D03*
X0005551Y0012776D03*
X0004606Y0014665D03*
X0004921Y0014350D03*
X0007756Y0014665D03*
X0008701Y0013091D03*
X0009016Y0013406D03*
X0009331D03*
X0011102Y0013799D03*
X-0009183Y-0020226D03*
X-0011998D03*
X-0003661Y-0001791D03*
X-0001772Y-0003681D03*
X-0002087D03*
Y-0003366D03*
X-0002402Y-0003051D03*
X-0002717Y-0002736D03*
X-0003031Y-0002421D03*
X-0003346Y-0002106D03*
X-0013819Y0008366D03*
X-0013504Y0008051D03*
X-0012874Y0007736D03*
X-0013189D03*
Y0007421D03*
X-0012874D03*
X-0014134Y0008681D03*
X-0015709Y0007736D03*
X-0016024Y0008051D03*
X-0014449Y0008996D03*
X-0014764Y0009311D03*
X-0016024Y0019154D03*
X-0014764Y0020413D03*
X-0013819Y0019469D03*
X-0013504Y0019154D03*
X-0012874Y0018524D03*
X-0013189D03*
X-0015709D03*
Y0018839D03*
X-0014134Y0019783D03*
X-0014449Y0020098D03*
X-0007441Y-0003051D03*
X-0007756Y-0003681D03*
Y-0003366D03*
X-0005551Y-0001791D03*
X-0004606Y-0003366D03*
X-0004921Y-0003051D03*
X-0008386Y-0001476D03*
X-0008071Y-0001161D03*
X-0007126Y-0002736D03*
X-0006811Y-0002421D03*
X-0006496Y0003563D03*
X-0006181Y0003248D03*
X-0007756Y0002303D03*
X-0007441Y0001988D03*
X-0013435Y-0020226D03*
X-0016250D03*
X-0003494D03*
X-0000679D03*
X0008386Y-0002736D03*
X0008701Y-0003051D03*
X0009016Y-0003366D03*
Y-0003681D03*
X0009331D03*
X0008071Y-0002421D03*
X0006496Y-0003366D03*
X0006181Y-0003051D03*
X0007756Y-0002106D03*
X0007441Y-0001791D03*
X0003031Y-0001161D03*
X0002717Y-0001476D03*
X0002402Y-0001791D03*
X0001772Y-0002106D03*
X0002087D03*
X0003976Y0000098D03*
X0002402Y0000728D03*
X0001772Y0001043D03*
X0002087D03*
X-0019488Y0020728D03*
X-0019173Y0021043D03*
X-0018228Y0019469D03*
X-0017913Y0019783D03*
X-0020118Y0020098D03*
X-0009331D03*
X-0011102Y0019704D03*
X-0013189Y0018839D03*
X-0012874D03*
X-0020433Y0020098D03*
X-0021043Y0019704D03*
X-0019488Y-0012894D03*
X-0021634Y-0006732D03*
X0017283Y-0012894D03*
X0007441Y-0011634D03*
X0018543D03*
X0003661D03*
X0014764D03*
X-0007441Y-0010374D03*
X0003661D03*
X0014764D03*
X0007441D03*
X0018543D03*
X-0006181Y-0009114D03*
X0004921D03*
X0006181D03*
X0016024D03*
X0017283D03*
X0015709Y-0001791D03*
X0016024D03*
X0017283D03*
X0018543Y-0000531D03*
X0014764D03*
Y0000728D03*
X0018543D03*
X-0006181Y0001988D03*
X0016024D03*
X0017283D03*
X-0017598Y0009311D03*
X-0006496D03*
X0015709D03*
X-0017283D03*
X-0006181D03*
X0006181D03*
X0016024D03*
X0017283D03*
X-0014764Y0010571D03*
X0007441D03*
X0018543D03*
X-0018543D03*
X-0007441D03*
X0003661D03*
X0014764D03*
X-0018543Y0011831D03*
X-0007441D03*
X0003661D03*
X0014764D03*
X0018543D03*
X-0006181Y0013091D03*
X0016024D03*
X0017283D03*
X0015709Y0020413D03*
X0016024D03*
X0017283D03*
X0018543Y0021673D03*
X0014764D03*
Y0022933D03*
X0018543D03*
X0016024Y0024193D03*
X0017283D03*
X-0022057Y-0006929D03*
X-0019488Y-0013524D03*
X-0007441Y0010256D03*
X-0004921Y0009311D03*
X-0004606D03*
X-0003661Y0010571D03*
Y0010256D03*
Y0011831D03*
Y0012146D03*
X-0004921Y0013091D03*
X-0004606D03*
X-0004291D03*
X-0003661Y0021358D03*
Y0021673D03*
Y0022933D03*
Y0023248D03*
X-0004921Y0024193D03*
X-0004606D03*
X-0006181D03*
X-0007441Y0023248D03*
Y0022933D03*
Y0021673D03*
Y0021358D03*
X-0006181Y0020413D03*
X-0006496D03*
X-0004921D03*
X-0014055Y-0015394D03*
X-0015965Y-0015531D03*
X-0002953Y0026693D03*
X-0004291Y0024193D03*
X-0002952Y0005610D03*
X-0008150Y0026693D03*
X-0006496Y0024193D03*
X-0002953Y0016752D03*
X-0004606Y0020413D03*
X-0004921Y0001988D03*
X-0004606D03*
X-0018543Y-0010059D03*
X-0017283Y-0009114D03*
X-0018543Y-0010374D03*
Y-0011634D03*
X-0017283Y-0012894D03*
X-0017598D03*
X-0018543Y-0011949D03*
X-0016024Y-0012894D03*
X-0015709D03*
X-0014764Y-0011634D03*
Y-0011949D03*
Y-0010374D03*
Y-0010059D03*
X-0015394Y-0009114D03*
X-0016024D03*
X-0015709D03*
X-0014055Y-0005453D03*
X-0015709Y-0001791D03*
X-0016024D03*
X-0004291Y0001988D03*
X-0017598Y-0001791D03*
X-0017283D03*
X-0003661Y0001043D03*
Y-0000531D03*
Y0000728D03*
X-0018543D03*
Y-0000531D03*
Y-0000846D03*
X-0003661D03*
X-0004606Y-0001791D03*
X-0018543Y0001043D03*
X-0004921Y-0001791D03*
X-0017283Y0001988D03*
X-0014764Y-0000531D03*
Y-0000846D03*
Y0000728D03*
Y0001043D03*
X-0016024Y0001988D03*
X-0015709D03*
X-0017598Y-0009114D03*
X-0019252Y-0005453D03*
X-0006496Y-0001791D03*
X-0006181D03*
X-0007441Y-0000846D03*
Y-0000531D03*
X0004921Y0001988D03*
X-0007441Y0000728D03*
Y0001043D03*
X0002952Y0005610D03*
X-0015394Y0001988D03*
X-0017598D03*
X-0019252Y0005610D03*
X0006181Y0001988D03*
X0006496D03*
X0006811D03*
X0007441Y0001043D03*
Y-0000846D03*
Y-0000531D03*
Y0000728D03*
X0006496Y-0001791D03*
X0003661Y-0000531D03*
Y0000728D03*
Y-0000846D03*
X0004921Y-0001791D03*
X0004606D03*
X0006181D03*
X0004606Y0001988D03*
X0003661Y0001043D03*
X-0016024Y0009311D03*
X-0015709D03*
X-0014055Y0005610D03*
X0004921Y0009311D03*
X0004606D03*
X0004921Y0020413D03*
X0004606D03*
X0002952Y0016752D03*
X0004921Y0024193D03*
X0004606D03*
X0002952Y0026693D03*
X0008150D03*
X0007441Y0021673D03*
X0006811Y0024193D03*
X0007441Y0023248D03*
Y0022933D03*
X0006181Y0024193D03*
X0006496D03*
X0007441Y0021358D03*
X0006181Y0020413D03*
X0003661Y0023248D03*
Y0022933D03*
Y0021358D03*
Y0021673D03*
X0006496Y0020413D03*
X0008150Y0016752D03*
X0006181Y0013091D03*
X0006496D03*
X0004606D03*
X0004921D03*
X0006811D03*
X0007441Y0011831D03*
Y0012146D03*
X-0018543Y0021673D03*
Y0022933D03*
X-0014764Y0021673D03*
Y0021358D03*
X-0016024Y0024193D03*
X-0017283D03*
X-0015709D03*
X-0014764Y0022933D03*
Y0023248D03*
X-0018543D03*
Y0021358D03*
X-0015394Y0024193D03*
X-0014055Y0026693D03*
X-0017598Y0024193D03*
X-0019252Y0026693D03*
X-0017283Y0020413D03*
X-0017598D03*
X-0016024D03*
X-0019252Y0016752D03*
X-0017283Y0013091D03*
X-0017598D03*
X-0015709Y0020413D03*
X-0014055Y0016752D03*
X-0002952Y-0005453D03*
X-0004606Y-0009114D03*
X-0004921D03*
X-0004291D03*
X-0003661Y-0010059D03*
Y-0010374D03*
Y-0011634D03*
Y-0011949D03*
X-0016024Y0013091D03*
X-0015709D03*
X-0015394D03*
X-0004606Y-0012894D03*
X-0002952Y-0015394D03*
X-0004921Y-0012894D03*
X-0006181D03*
X-0006496D03*
X-0008150Y-0015394D03*
X-0007441Y-0011634D03*
Y-0011949D03*
X0004606Y-0009114D03*
X0002952Y-0005453D03*
X-0014764Y0011831D03*
Y0012146D03*
X0005236Y0001988D03*
X0007756Y0014980D03*
X0009674Y0017165D03*
X0001772Y0023563D03*
X0020433D03*
X0006890Y-0006260D03*
X0017992D03*
Y0015945D03*
X-0004213Y0027047D03*
X0006890D03*
X-0005866Y0000728D03*
Y0000413D03*
X-0005236Y0000728D03*
X-0004921Y0000413D03*
X-0005236D03*
X-0008071Y0000098D03*
X-0009331Y-0000846D03*
X-0009016D03*
X-0008701Y-0000531D03*
X-0009331Y0002303D03*
X-0009016D03*
X-0007441Y-0000217D03*
Y0000413D03*
X-0008701Y0001988D03*
X-0008386Y0001673D03*
X-0008071Y0001358D03*
X-0005866Y0001043D03*
X-0005236Y-0000217D03*
X-0004921D03*
X-0004606D03*
X0001772Y0002303D03*
X0002087D03*
X0002402Y0001988D03*
X0002717Y0001673D03*
X-0020433Y-0014783D03*
X0013189Y0018839D03*
X0013504Y0019154D03*
X0013819Y0019469D03*
X0014134Y0019783D03*
X0012874Y0024508D03*
X0013189D03*
X0013504Y0024193D03*
X0013819Y0023878D03*
X0014134Y0023563D03*
X-0008386Y0012776D03*
X-0008701Y0013091D03*
X-0009331Y0013406D03*
X-0009016D03*
X-0008071Y0012461D03*
X-0003031Y0011201D03*
X-0002087Y0011516D03*
Y0011831D03*
X-0001772Y0012146D03*
X-0002087D03*
X-0003346Y0013406D03*
X-0003661Y0013091D03*
X0019173Y0022303D03*
X0019488Y0020728D03*
X0019173Y0021043D03*
X-0003031Y0013720D03*
X-0002717Y0014035D03*
X-0002402Y0014350D03*
X0020118Y0022618D03*
X-0002087Y0014665D03*
X-0003346Y0007421D03*
Y0007736D03*
X-0005551Y0008366D03*
X-0006496Y0007421D03*
Y0007736D03*
X-0006181Y0008051D03*
X-0009016Y0007736D03*
X-0003661Y0008051D03*
X-0003976Y0008366D03*
X-0004291Y0008681D03*
X-0001772Y0014665D03*
X-0001575Y0016752D03*
X-0009331Y0007736D03*
X-0011102Y0007224D03*
X-0019803Y-0014154D03*
X0018543Y0021043D03*
X-0019488Y-0013839D03*
X0012874Y0021358D03*
X-0019173Y-0013524D03*
X-0003031Y0022303D03*
X-0002087Y0022618D03*
X-0001772Y0023248D03*
X-0002087Y0022933D03*
Y0023248D03*
X-0020433Y0018839D03*
X-0019803Y0024193D03*
X-0007441Y0003248D03*
X-0004606Y0003563D03*
X-0004921Y0003248D03*
X-0005551Y0002618D03*
X-0002717Y0002933D03*
X-0002402Y0003248D03*
X-0002087Y0003563D03*
Y0003878D03*
X-0004606Y0000413D03*
X-0003031Y0002618D03*
X-0003346Y0002303D03*
X-0003661Y0001988D03*
X-0006496Y0018524D03*
Y0018839D03*
X-0006181Y0019154D03*
X0018543Y0024193D03*
X0018858Y0024508D03*
X-0016024Y-0010689D03*
X0003031Y0001358D03*
X0004606Y0001043D03*
X0006181Y-0000217D03*
X0005866D03*
X0005236Y0000728D03*
X0003661Y0000413D03*
Y-0000217D03*
X0003031Y0000098D03*
X0002402Y-0000531D03*
X0001772Y-0000846D03*
X0002087D03*
X0006496Y-0000217D03*
X0008701Y-0001791D03*
X0009331Y-0002106D03*
X0009016D03*
X0005236Y-0000217D03*
X0003031Y-0002421D03*
X0002717Y-0002736D03*
X0002402Y-0003051D03*
X0002087Y-0003366D03*
X0001772D03*
X0019173Y0024823D03*
X0019488Y0025138D03*
X0019803Y0025453D03*
X0004606Y-0003681D03*
Y-0003366D03*
X0020118Y0026083D03*
X0009527Y0005610D03*
X0020118Y0025768D03*
X-0005551Y0024823D03*
X-0001772Y0020098D03*
X-0019488Y-0009429D03*
X-0019173Y-0009744D03*
X-0019803Y-0009114D03*
X-0020118Y-0008799D03*
X-0020433D03*
X-0020670Y-0007363D03*
X0020433Y0025768D03*
Y0026083D03*
X0020630Y0026693D03*
X0021043Y0026279D03*
X0015593Y0029407D03*
X0013189Y0021358D03*
X0013504Y0021673D03*
X0014134Y0022303D03*
X0014764Y0022618D03*
X0001772Y0021358D03*
X0002087D03*
X0002402Y0021673D03*
X0003031Y0022303D03*
X-0016024Y-0011319D03*
X0005236Y0022618D03*
Y0022933D03*
X0005866Y0021988D03*
X0006181D03*
X0005866Y0022618D03*
Y0022933D03*
X0006181Y0022618D03*
X0003661Y0021988D03*
X0006496D03*
X0008701Y0020413D03*
X0009331Y0020098D03*
X0009016D03*
X0005236Y0023248D03*
X0003661Y0022618D03*
X0003031Y0023563D03*
X0002717Y0023878D03*
X0002402Y0024193D03*
X0001772Y0024508D03*
X0002087D03*
X0005236Y0021988D03*
X-0002087Y0020098D03*
X-0002402Y0020413D03*
X-0002717Y0020728D03*
X-0007441Y0025453D03*
X0009016Y0026083D03*
X-0005236Y0022933D03*
X-0004921Y0022618D03*
X-0005236D03*
X-0005866Y0022933D03*
X0016969Y-0000217D03*
X0017598Y-0000846D03*
X0014134Y0000098D03*
X0013504Y-0000531D03*
X0012874Y-0000846D03*
X0013189D03*
X0016339Y-0000217D03*
X-0005866Y0022618D03*
Y0023248D03*
X0013189Y-0003366D03*
X0013504Y-0003051D03*
X0013819Y-0002736D03*
X0014134Y-0002421D03*
X0019803Y-0001791D03*
X0009331Y0025768D03*
X0009016D03*
X0008701Y0025453D03*
X0008386Y0025138D03*
X0005866Y0023248D03*
X0008071Y0024823D03*
X0007756Y0024508D03*
X0007441Y0024193D03*
X0003031Y0019783D03*
X0002087Y0018839D03*
X0002402Y0019154D03*
X0002717Y0019469D03*
X0020118Y0022933D03*
Y0023248D03*
X0020433D03*
X0002087Y0018524D03*
X0000000Y0018327D03*
X-0004921Y0021988D03*
X-0005236D03*
X-0004606D03*
X0015079Y0024193D03*
X-0016024Y-0011634D03*
X-0016339Y-0011319D03*
X-0016969D03*
X0015394Y0024193D03*
X0015709Y-0014783D03*
X-0011102Y0015177D03*
X0015709Y-0014469D03*
X0016969Y-0011319D03*
X0016339Y-0010689D03*
X0014764Y-0011319D03*
Y-0010689D03*
X0014134Y-0011004D03*
X0013504Y-0011634D03*
X0012874Y-0011949D03*
X0013189D03*
X0016024Y-0010374D03*
X0017283Y-0011319D03*
X0017598D03*
X0016339D03*
X0014764Y0025453D03*
X0013189Y0018524D03*
X0014134Y-0013524D03*
X0013819Y-0013839D03*
X0013504Y-0014154D03*
X0013189Y-0014469D03*
X0012874D03*
X0014134Y-0009744D03*
X0013819Y-0009429D03*
X0013504Y-0009114D03*
X0012874Y-0008799D03*
X0013189D03*
X0016024Y-0014154D03*
X0018543Y-0012264D03*
X0016654Y-0013839D03*
X0017913Y-0013524D03*
X0018228Y-0013839D03*
X0018543Y-0014154D03*
X0018858Y-0014783D03*
Y-0014469D03*
X0019803Y-0012894D03*
X0017756Y-0020177D03*
X0015079Y0025138D03*
X0017894Y-0019370D03*
X-0008701Y-0014154D03*
X-0008386Y-0013839D03*
X-0008071Y-0013524D03*
X-0002087Y-0007539D03*
X-0002402Y-0007854D03*
X-0002717Y-0008169D03*
X-0012874Y0014665D03*
Y0014980D03*
X-0013189D03*
X-0020433Y0010256D03*
X-0013504Y0009311D03*
X-0012874Y0008996D03*
X-0013189D03*
X-0017992Y0015945D03*
X-0012678Y0016752D03*
X-0003031Y-0008484D03*
X-0003346Y-0008799D03*
X-0003661Y-0009114D03*
X-0002087Y-0007224D03*
X0000000Y-0007028D03*
X-0019803Y0001988D03*
X0015394Y0024823D03*
X0016654D03*
X-0014449Y0018524D03*
Y0018839D03*
X-0016654Y0019469D03*
X-0017283Y0019154D03*
X-0017598Y0018524D03*
Y0018839D03*
X-0014764Y0019154D03*
X-0019488Y0001673D03*
X-0019173Y0001358D03*
X-0020433Y0018524D03*
X-0021043Y0018327D03*
X0001772Y0010256D03*
X-0020433Y-0003366D03*
Y-0003681D03*
X-0020118D03*
X0000157Y0029606D03*
X-0000807Y0030089D03*
X0000394Y0032480D03*
X-0000335Y0032490D03*
X-0020118Y-0003366D03*
X-0019803Y-0003051D03*
X0001575Y0005610D03*
X-0020433Y-0011949D03*
X-0022067Y-0010551D03*
X0022480Y-0013386D03*
X0007441Y-0014154D03*
X0007579Y-0017480D03*
X0017283Y0025453D03*
X0009527Y-0005453D03*
X0011102Y-0003878D03*
X0013189Y-0003681D03*
X0019803Y0020413D03*
X-0009016Y0007421D03*
X0014764Y-0007854D03*
X0014449Y-0007539D03*
X-0019488Y-0002736D03*
X0017598Y0014665D03*
X-0004921Y0025453D03*
X-0004606Y0025768D03*
X0003661Y0025453D03*
X0017598Y0025768D03*
X0011102Y0007224D03*
X0012618Y0027677D03*
X0001575Y0026693D03*
X0000000Y0026280D03*
X-0018858Y-0013209D03*
X-0007756D03*
X0014449D03*
X-0005866Y-0000217D03*
X0003346Y-0002106D03*
X0003661Y-0001791D03*
X0014449Y-0002106D03*
X0014764Y-0001791D03*
X-0018858Y0008996D03*
X-0008701Y0008051D03*
X-0008386Y0008366D03*
X0002087Y0010256D03*
X-0019173Y-0002421D03*
X-0020118Y0018524D03*
X-0005866Y0021988D03*
X0003346Y0020098D03*
X0003661Y0020413D03*
X0014449Y0020098D03*
X0014764Y0020413D03*
Y0021988D03*
X0015709Y0023248D03*
X0006496D03*
X0004606D03*
X-0004606Y0022618D03*
X-0005236Y0023248D03*
X-0006496D03*
X0016339D03*
Y0022933D03*
X0006496Y0022618D03*
X0006181Y0022933D03*
X0004606D03*
X0004921Y0022618D03*
X-0004921Y0022933D03*
X-0006181Y0022618D03*
X-0006496Y0022933D03*
X-0012874Y0020098D03*
X-0013189D03*
X0016339Y0022618D03*
X0016024Y0022933D03*
X0004606Y0021673D03*
X0004921Y0021988D03*
X-0006181Y0021673D03*
X0015709Y0022933D03*
X0006181Y0021673D03*
X-0004921D03*
X-0004606Y0021358D03*
X0016024Y0022618D03*
X0005866Y0021673D03*
X0006181Y0021358D03*
X0005866D03*
X0004921Y0021673D03*
X0004606Y0021358D03*
X0005236Y0021673D03*
Y0021358D03*
X0004921D03*
X-0005236Y0021673D03*
X-0004921Y0021358D03*
X-0005236D03*
X-0005866Y0021673D03*
Y0021358D03*
X-0006181Y0021988D03*
X-0013504Y0020413D03*
X-0018858Y-0002106D03*
X-0008071Y0008681D03*
X-0020118Y0010256D03*
X0002402Y0010571D03*
X0003031Y0011201D03*
X-0007756Y0008996D03*
X-0007441Y0009311D03*
X-0019803Y0010571D03*
X-0019173Y0011201D03*
X-0015709Y0011516D03*
X0020433Y0008996D03*
X-0001772D03*
X-0002087D03*
X-0015709Y0011831D03*
X0016969Y0001043D03*
X0006181Y0000413D03*
Y0000728D03*
X0005236Y0001043D03*
X-0005236D03*
X-0004921D03*
X-0006496D03*
X0017283D03*
Y0000728D03*
X0005866Y0001043D03*
X0004606Y0000728D03*
Y0000413D03*
X-0004921Y0000728D03*
X-0004606Y0001043D03*
Y0000728D03*
X-0006496D03*
X-0006181Y0000413D03*
X-0006496D03*
X0004921Y-0000217D03*
X0004606Y-0000531D03*
Y-0000217D03*
X-0006181D03*
X-0006496D03*
X0017283D03*
X0006496Y-0000846D03*
X-0004606D03*
X0016969Y-0000531D03*
X0017283Y-0000846D03*
X0016969D03*
X0015709D03*
X0016339Y-0000531D03*
Y-0000846D03*
X0016024D03*
X0006181D03*
X0005866Y-0000531D03*
Y-0000846D03*
X0004921Y-0000531D03*
X0004606Y-0000846D03*
X0005236Y-0000531D03*
Y-0000846D03*
X0004921D03*
X-0004921D03*
X-0006496Y-0000531D03*
X-0006181D03*
X-0005866D03*
X0016969Y-0010374D03*
X0017283D03*
X0015709Y-0010059D03*
X-0001772Y-0013209D03*
X-0016339Y-0010689D03*
Y-0010374D03*
X0016969Y-0010689D03*
X0016024D03*
X0015709Y-0010374D03*
Y-0010689D03*
X-0002087Y-0013209D03*
X-0002402Y-0012894D03*
X-0015709Y-0010689D03*
X-0016024Y-0010374D03*
X0016024Y-0011319D03*
X0015709D03*
X0017283Y-0011634D03*
X0017598Y-0011949D03*
Y-0011634D03*
X-0015709Y-0011319D03*
X0016969Y-0011634D03*
X0017283Y-0011949D03*
X0016969D03*
X0016024Y-0011634D03*
X0016339D03*
Y-0011949D03*
X0015709Y-0011634D03*
X-0009331Y-0011949D03*
X-0016339Y-0011634D03*
X-0016024Y-0011949D03*
X-0016339D03*
X-0016969Y-0011634D03*
Y-0011949D03*
X-0017283Y-0011634D03*
X-0005236Y-0000531D03*
Y-0000846D03*
X-0005866D03*
X0016969Y0023248D03*
Y0022933D03*
X-0016024Y-0010059D03*
X-0016339D03*
X-0016969D03*
X0017598Y0023248D03*
X0017283Y0022933D03*
X0017598Y0022618D03*
X-0016969Y-0010374D03*
Y-0010689D03*
X-0017283D03*
X-0017598Y-0010059D03*
X0017283Y0022618D03*
X0016969D03*
X-0002402Y-0001791D03*
X-0001772Y-0002106D03*
X-0002087D03*
X-0017598Y-0010374D03*
Y-0010689D03*
Y-0011634D03*
X-0012874Y-0013209D03*
X-0013189D03*
X-0013504Y-0012894D03*
X0005866Y0000728D03*
Y0000413D03*
X0004921D03*
X0005236D03*
X0017598Y0021988D03*
X0016969D03*
X0006181Y0001043D03*
X0006496Y0000413D03*
X-0018543Y-0010689D03*
X-0017283Y-0011319D03*
X-0017598D03*
X0003346Y0003563D03*
X0003661Y0003248D03*
X0014449Y0014665D03*
X0014764Y0014350D03*
X0015079Y0014035D03*
X0015394Y0013720D03*
X-0018543Y-0007854D03*
X-0009331Y0021358D03*
X-0008071Y0022303D03*
X-0009016Y0021358D03*
X-0008701Y0021673D03*
X-0020118Y-0011949D03*
X-0019803Y-0011634D03*
X-0018543Y-0011319D03*
X-0019173Y-0011004D03*
X-0006496Y0021673D03*
X0017283Y0021988D03*
X-0006181Y0022933D03*
X-0015709Y-0011949D03*
Y-0011634D03*
X0016969Y0021673D03*
X-0008701Y0024193D03*
X-0009331Y0024508D03*
X-0009016D03*
X-0007441Y0021988D03*
Y0022618D03*
X-0008386Y0023878D03*
X-0008071Y0023563D03*
X-0007756Y0020098D03*
X-0008071Y0019783D03*
X-0008386Y0019469D03*
X-0008701Y0019154D03*
X-0009016Y0018839D03*
X-0009331D03*
X-0006181Y0021358D03*
X-0006496D03*
X-0007441Y0020413D03*
X-0007126Y0024193D03*
X-0006811D03*
X-0007126Y0025138D03*
X-0006811Y0024823D03*
X-0007756Y0025768D03*
Y0026083D03*
X-0006890Y0027047D03*
X-0015709Y-0007539D03*
X-0016024Y-0007854D03*
X-0016654Y-0008484D03*
X-0002402Y0009311D03*
X-0002717Y0009626D03*
X-0003031Y0009941D03*
X-0003661D03*
X-0009331Y0010256D03*
X-0009016D03*
X-0008701Y0010571D03*
X-0017283Y-0010374D03*
Y-0010059D03*
X-0013189Y-0010374D03*
X-0012874Y-0010059D03*
X-0013189D03*
X-0013819Y-0012579D03*
X-0013189Y-0010689D03*
X-0014134Y-0011004D03*
X-0018858Y0020098D03*
X-0019173Y0019783D03*
X-0020118Y0018839D03*
X-0019803Y0019154D03*
X-0019488Y0019469D03*
X-0018543Y0020413D03*
X0020118Y0008996D03*
X-0016339Y0001043D03*
X0013504Y0013091D03*
X0012874Y0013406D03*
X0013189D03*
X0013819Y0012776D03*
X0014134Y0012461D03*
X-0016024Y0001043D03*
X-0005551Y0019469D03*
X-0003661Y0019154D03*
X-0003346Y0018524D03*
Y0018839D03*
X-0003031Y0021043D03*
X-0003661D03*
X-0003976Y0019469D03*
X-0004291Y0019783D03*
X0017283Y0021673D03*
X0017598Y0021358D03*
X-0018228Y-0009114D03*
X-0017913D03*
X-0018228Y-0008169D03*
X-0017913Y-0008484D03*
X-0018858Y-0007539D03*
X-0004921Y-0000531D03*
X-0004606D03*
X-0007756Y-0002106D03*
X-0008071Y-0002421D03*
X-0008386Y-0002736D03*
X-0008701Y-0003051D03*
X-0009016Y-0003366D03*
X-0009331D03*
X-0007441Y-0001791D03*
X0017283Y0021358D03*
X-0002087Y0000728D03*
X-0001772Y0001043D03*
X-0002087D03*
X-0002717Y-0001476D03*
X-0002087Y0000413D03*
X-0003031Y0000098D03*
X-0007126Y0002933D03*
X-0006811Y0002618D03*
X-0006181Y0000728D03*
Y0001043D03*
X-0007126Y0001988D03*
X-0006811D03*
X-0007756Y0003563D03*
X0004921Y0000728D03*
Y0001043D03*
X0003976Y0001988D03*
X0004291D03*
X0006181Y-0000531D03*
X0006496D03*
X0009016Y0000728D03*
X0009331Y0001043D03*
X0009016D03*
X0008386Y-0001476D03*
X0009016Y0000413D03*
X0008071Y0000098D03*
X0006496Y0003563D03*
X0003976Y0002933D03*
X0004291Y0002618D03*
X0006181Y0003248D03*
X0005551Y0002618D03*
X0008071D03*
X0008386Y0002933D03*
X0008701Y0003248D03*
X0009331Y0003563D03*
X0009016D03*
Y0003878D03*
X0006496Y0000728D03*
Y0001043D03*
X0007756Y0002303D03*
X0007441Y0001988D03*
X0004921Y-0003051D03*
X0005551Y-0002736D03*
X0007441Y-0003051D03*
X0007756Y-0003681D03*
Y-0003366D03*
X0008071Y-0001161D03*
X0007441D03*
X0007126Y-0002736D03*
X0006811Y-0002421D03*
X0012874Y0010256D03*
X-0015709Y0000413D03*
X0013189Y0010256D03*
X0013504Y0010571D03*
X0014134Y0011201D03*
X0014764Y0011516D03*
Y0010886D03*
X0015709Y0012146D03*
X0016339Y0011516D03*
X0015709D03*
Y0011831D03*
X0016024Y0011516D03*
X0016339Y0011831D03*
X0016024D03*
X0016969Y0011516D03*
Y0011831D03*
Y0012146D03*
X0017598Y0010886D03*
X0015709Y0010571D03*
Y0010886D03*
X0016024D03*
Y0010571D03*
X0016339Y0010886D03*
Y0010571D03*
X0016969Y0010256D03*
X0016339D03*
X0017283D03*
X0017598D03*
X0016969Y0010571D03*
Y0010886D03*
X0017283D03*
Y0010571D03*
X0017598D03*
X0019803Y0009311D03*
X0015079Y0013091D03*
X0015394D03*
X0016339Y0012146D03*
X0016024D03*
Y0010256D03*
X0015709D03*
X0014764Y0009311D03*
X0014449Y0008996D03*
X-0018543Y-0012894D03*
X-0017283Y-0011949D03*
X-0017598D03*
X0014134Y0008681D03*
X0013819Y0008366D03*
X0016339Y0021673D03*
X0013504Y0008051D03*
X0012874Y0007736D03*
X0013189D03*
Y0007421D03*
X0019488Y0009626D03*
X0020118Y0011831D03*
X0020433Y0012146D03*
X0020118D03*
X0018543Y0013091D03*
X-0014134Y-0008484D03*
X0018858Y0013406D03*
X0015709Y0021673D03*
Y0021358D03*
X-0013819Y-0008169D03*
X0019173Y0013720D03*
X-0013504Y-0007854D03*
X0019488Y0014035D03*
X0019803Y0014350D03*
X0020118Y0014665D03*
X0016024Y0021673D03*
Y0021988D03*
X0016339D03*
X0015709Y0018524D03*
Y0018839D03*
X0017913Y0019783D03*
X0007756Y-0014469D03*
Y-0014783D03*
X-0002087Y0014980D03*
X-0001772D03*
X0000000Y0015177D03*
X-0016339Y0000728D03*
Y0000413D03*
X-0016024Y0000728D03*
X-0017598Y0022933D03*
Y0023248D03*
X-0016969Y0022618D03*
X-0017283D03*
X-0016969Y0022933D03*
X-0001575Y0026693D03*
X-0003031Y0024823D03*
X-0002717Y0025138D03*
X-0002402Y0025453D03*
X-0002087Y0026083D03*
X-0001772D03*
Y0025768D03*
X-0002087D03*
X-0004606Y0023248D03*
X-0003346Y0024508D03*
X-0003661Y0024193D03*
X-0016024Y0000413D03*
X-0009016Y-0011949D03*
X-0008701Y-0011634D03*
X-0008071Y-0011004D03*
X-0005236Y-0010689D03*
X-0004606Y-0010059D03*
X-0005236D03*
X-0004921D03*
X-0004606Y-0010374D03*
X-0008071Y0011201D03*
X-0007441Y0011516D03*
Y0010886D03*
X-0004606Y0010256D03*
X-0004921D03*
X-0004606Y0010571D03*
X-0006496Y0010886D03*
Y0010571D03*
Y0010256D03*
X-0006181D03*
Y0010571D03*
Y0010886D03*
X-0005866D03*
X-0005236Y0010256D03*
X-0005866Y0010571D03*
Y0010256D03*
X-0005236Y0010571D03*
X-0004921D03*
X-0005236Y0010886D03*
X-0004921D03*
X-0004606D03*
Y0011516D03*
Y0011831D03*
Y0012146D03*
X-0004921D03*
X-0005236D03*
Y0011831D03*
X-0004921D03*
Y0011516D03*
X-0005236D03*
X-0005866D03*
Y0011831D03*
X-0014449Y-0008799D03*
X-0014764Y-0009114D03*
X-0015709Y-0010374D03*
Y-0010059D03*
X-0005866Y0012146D03*
X-0006496Y0011516D03*
X-0006181D03*
Y0011831D03*
X-0006496D03*
Y0012146D03*
X-0006181D03*
X-0007126Y0013091D03*
X-0006811D03*
X-0013189Y-0007539D03*
X-0007441Y0014350D03*
X-0012874Y-0007539D03*
X-0007126Y0014035D03*
X-0006811Y0013720D03*
X-0005551D03*
X-0004606Y0014665D03*
X-0004921Y0014350D03*
X0014449Y0025768D03*
Y0026083D03*
X-0006890Y0015945D03*
X-0007756Y0014665D03*
Y0014980D03*
X0016024Y0019154D03*
X0016654Y0019469D03*
X-0011102Y0004074D03*
X-0009331Y0007421D03*
X-0009528Y0005610D03*
X-0014764Y-0014154D03*
X-0013189Y0003878D03*
Y0003563D03*
X0018228Y0019469D03*
X-0005236Y-0010374D03*
X-0004921D03*
Y-0010689D03*
X-0004606D03*
X-0005236Y-0011319D03*
Y-0011634D03*
X-0004921Y-0011319D03*
X-0004606D03*
X-0004921Y-0011634D03*
Y-0011949D03*
X-0005236D03*
X-0006181D03*
X-0005866D03*
X-0006181Y-0011634D03*
X-0005866D03*
Y-0011319D03*
X-0006496Y-0010689D03*
X-0005866Y-0010059D03*
X-0006181Y-0010374D03*
X-0006496D03*
X-0005866D03*
Y-0010689D03*
X-0006181D03*
X-0007441D03*
Y-0011319D03*
X-0006181D03*
X-0006496D03*
X-0004606Y-0011949D03*
Y-0011634D03*
X-0006496Y-0010059D03*
X-0006181D03*
X-0007441Y-0007854D03*
Y-0012894D03*
X-0006496Y-0011634D03*
Y-0011949D03*
X-0009016Y-0014783D03*
Y-0014469D03*
X-0009331D03*
X-0006811Y-0009114D03*
X-0007126D03*
X-0008071Y-0009744D03*
X-0008386Y-0009429D03*
X-0008701Y-0009114D03*
X-0009331Y-0008799D03*
X-0009016D03*
X-0002717Y-0012579D03*
X-0003031Y-0011004D03*
X-0002087Y-0010689D03*
Y-0010374D03*
X-0001772Y-0010059D03*
X-0002087D03*
X-0007126Y-0008169D03*
X-0006811Y-0008484D03*
X-0005551D03*
X-0004921Y-0007854D03*
X-0004606Y-0007539D03*
X-0007756D03*
X-0003031Y-0012264D03*
X-0003661D03*
Y-0014154D03*
X-0003976Y-0013839D03*
X-0004291Y-0013524D03*
X-0005551Y-0013839D03*
X-0006181Y-0014154D03*
X-0006496Y-0014783D03*
Y-0014469D03*
X-0001575Y-0005453D03*
X-0001772Y-0007539D03*
Y-0007224D03*
X-0014449Y-0014469D03*
Y-0014783D03*
X0018543Y0019154D03*
X0018858Y0018524D03*
Y0018839D03*
X-0016654Y-0013839D03*
X-0017283Y-0014154D03*
X0009331Y0026083D03*
X0009527Y0026693D03*
X0012677D03*
X0011102Y0026279D03*
X-0022480Y-0013425D03*
X-0015079Y-0013839D03*
X-0015394Y-0013524D03*
X-0014134Y-0012264D03*
X-0014764D03*
X0015709Y0007421D03*
Y0007736D03*
X0016024Y0008051D03*
X0016654Y0008366D03*
X0018543Y0008051D03*
X0018858Y0007421D03*
Y0007736D03*
X0019173Y0009941D03*
X0018543D03*
X0018228Y0008366D03*
X0017913Y0008681D03*
X-0013504Y0003248D03*
X-0013819Y0002933D03*
X-0014134Y0002618D03*
X-0015709Y0000728D03*
Y0001043D03*
X-0014449Y0002303D03*
X-0014764Y0001988D03*
X-0016339Y-0000217D03*
X-0016969Y0023248D03*
X0017598Y-0000217D03*
X0017283Y0000413D03*
X0017598D03*
X0016969D03*
Y0000728D03*
X0015709Y0000413D03*
X0016339D03*
Y0000728D03*
Y0001043D03*
X0015709Y0000728D03*
X0016024D03*
Y0000413D03*
Y-0000531D03*
Y-0000217D03*
X0014764D03*
X0015709Y-0000531D03*
Y-0000217D03*
X0017283Y-0000531D03*
X0017598D03*
X0014449Y0003563D03*
X0014764Y0003248D03*
X0015709Y0001043D03*
X0016024D03*
X0015079Y0001988D03*
X0015394D03*
X0014764Y0000413D03*
X0014134Y0001358D03*
X0013819Y0001673D03*
X0013504Y0001988D03*
X0012874Y0002303D03*
X0013189D03*
X0019488Y-0001476D03*
X0019173Y0000098D03*
X0020118Y0000413D03*
Y0000728D03*
X0020433Y0001043D03*
X0020118D03*
X0015079Y0002933D03*
X0015394Y0002618D03*
X0016654D03*
X0017598Y0003563D03*
X0017283Y0003248D03*
X0017598Y0000728D03*
Y0001043D03*
X0018543Y0001988D03*
X0018858Y0002303D03*
X0019173Y0002618D03*
X0019488Y0002933D03*
X0019803Y0003248D03*
X0020433Y0003563D03*
X0020118D03*
Y0003878D03*
X0019173Y-0001161D03*
X0018543D03*
X-0012874Y0023248D03*
X-0013189Y0022933D03*
Y0023248D03*
X-0013819Y0020728D03*
X-0013189Y0022618D03*
X-0014134Y0022303D03*
X-0016024Y-0000217D03*
X-0015709D03*
X-0016024Y-0000531D03*
Y-0000846D03*
X-0018543Y0000413D03*
X0006496Y0021358D03*
X0003976Y0024193D03*
X0004291D03*
X0004921Y0022933D03*
X-0017598Y-0014469D03*
X-0021870Y-0021693D03*
X-0016890Y-0021476D03*
X-0016250Y-0021988D03*
X-0016890Y-0022539D03*
X-0019232Y-0022283D03*
X-0020118Y-0014469D03*
Y-0014783D03*
X-0019213Y-0016122D03*
X0018543Y-0003051D03*
X0018858Y-0003681D03*
Y-0003366D03*
X0018228Y-0002736D03*
X0017913Y-0002421D03*
X0016654Y-0002736D03*
X0016024Y-0003051D03*
X0015709Y-0003681D03*
Y-0003366D03*
X0020118Y-0002106D03*
X0020433D03*
X0021043Y-0007028D03*
X0020433Y-0007539D03*
Y-0007224D03*
X0020118D03*
Y-0007539D03*
X0019803Y-0007854D03*
X0019488Y-0008169D03*
X0019173Y-0008484D03*
X0017598Y-0010059D03*
X0018858Y-0008799D03*
X0018543Y-0009114D03*
X0003976Y0025138D03*
X0004291Y0024823D03*
X0009331Y0023248D03*
X0009016Y0022933D03*
Y0023248D03*
X0008386Y0020728D03*
X0009016Y0022618D03*
X0008071Y0022303D03*
X-0003661Y-0003051D03*
X-0003346Y-0003681D03*
Y-0003366D03*
X-0005551Y-0002736D03*
X-0006181Y-0003051D03*
X-0006496Y-0003681D03*
Y-0003366D03*
X-0003031Y-0001161D03*
X-0003661D03*
X-0003976Y-0002736D03*
X-0004291Y-0002421D03*
X-0001575Y0005610D03*
X-0001772Y0003563D03*
Y0003878D03*
X0000000Y0004074D03*
X-0018543Y-0000217D03*
X-0019173Y0000098D03*
X-0019803Y-0000531D03*
X-0015709Y-0000846D03*
Y-0000531D03*
X-0013504Y-0001791D03*
X-0012874Y-0002106D03*
X-0013189D03*
X-0018543Y-0001791D03*
X-0013819Y-0001476D03*
X-0014134Y0000098D03*
X-0013189Y0000413D03*
Y0000728D03*
X-0012874Y0001043D03*
X-0013189D03*
X-0014134Y-0001161D03*
X-0014764D03*
Y-0003051D03*
X-0014449Y-0003681D03*
Y-0003366D03*
X0005551Y0024823D03*
X0006496Y0025768D03*
X0006181Y0025453D03*
X0017598Y-0010374D03*
Y-0010689D03*
X0017283D03*
X0016339Y-0010374D03*
X0017283Y-0010059D03*
X0016969D03*
X0015079Y-0009114D03*
X0015394D03*
X0016339Y-0010059D03*
X0016024D03*
X0014764Y-0012894D03*
X0016024Y-0011949D03*
X0015709D03*
X0013189Y-0014783D03*
X0015059Y-0016240D03*
X0013937D03*
X0014488D03*
X0015079Y-0008169D03*
X0015394Y-0008484D03*
X-0016339Y-0000531D03*
Y-0000846D03*
Y0023248D03*
Y0022618D03*
Y0022933D03*
X-0016024D03*
Y0022618D03*
X-0015709D03*
Y0021988D03*
X-0016339D03*
X-0016024D03*
X-0015709Y0021358D03*
X-0016024D03*
Y0021673D03*
X-0016339D03*
Y0021358D03*
X-0016969Y0021673D03*
Y0021358D03*
X-0017598D03*
X-0017283D03*
X-0017598Y0021673D03*
X-0016969Y0021988D03*
X-0017283Y0021673D03*
Y0021988D03*
X-0019173Y0022303D03*
X-0019803Y0021673D03*
X-0020433Y0021358D03*
X-0020118D03*
X-0017283Y0022933D03*
X-0018228Y0024193D03*
X-0017913D03*
X-0018543Y0025453D03*
X-0019488Y0023878D03*
X-0019173Y0023563D03*
X-0018543Y0021988D03*
Y0022618D03*
X-0018228Y0025138D03*
X-0017913Y0024823D03*
X-0016654D03*
X-0016024Y0025453D03*
X-0015315Y0027047D03*
X-0015709Y0025768D03*
Y0026083D03*
X-0017992Y0027047D03*
X-0018858Y0025768D03*
Y0026083D03*
X-0015709Y0023248D03*
X-0014764Y0024193D03*
X-0014449Y0024508D03*
X-0014134Y0024823D03*
X-0013819Y0025138D03*
X-0013504Y0025453D03*
X-0012874Y0025768D03*
X-0013189D03*
Y0026083D03*
X-0015079Y0019469D03*
X-0015394Y0019783D03*
X-0014134Y0021043D03*
X-0014764D03*
X-0009528Y0026693D03*
X-0011102Y0026279D03*
X-0012874Y0026083D03*
X-0012678Y0026693D03*
X-0010413Y0027835D03*
X-0010167Y0028287D03*
X-0010305Y0028740D03*
X-0011476Y0030797D03*
X-0010925D03*
X-0010374D03*
X-0008898Y0030807D03*
X-0009075Y0030118D03*
X-0014409Y0029272D03*
Y0029803D03*
X-0020630Y0016752D03*
X-0021043Y0015177D03*
X-0016969Y-0000217D03*
Y-0000531D03*
Y-0000846D03*
X0004606Y0012146D03*
X-0017598Y-0000846D03*
X0004921Y0011516D03*
X0005236D03*
Y0011831D03*
X-0017283Y-0000846D03*
X0004606Y0011831D03*
Y0011516D03*
X0005236Y0012146D03*
X0005866D03*
X0006181D03*
Y0011831D03*
X0005866D03*
X-0015079Y-0002736D03*
X-0015394Y-0002421D03*
X-0016654Y-0002736D03*
X-0017283Y-0003051D03*
X-0017598Y-0003681D03*
Y-0003366D03*
X-0020118Y-0000846D03*
X-0020433D03*
X-0012678Y0005610D03*
X-0012874Y0003563D03*
Y0003878D03*
X0008071Y0021043D03*
X-0020118Y0002303D03*
X-0020433D03*
X0005866Y0010886D03*
X-0017283Y-0000531D03*
Y-0000217D03*
X0004921Y0010571D03*
X0005236Y0010886D03*
Y0010571D03*
X0006496Y0010886D03*
X-0017598Y-0000531D03*
X0005866Y0010571D03*
X-0017598Y-0000217D03*
X0006496Y0010256D03*
X0004921Y0010886D03*
X0006496Y0011516D03*
X0006181Y0010256D03*
X0005866D03*
X0004921D03*
X0005236D03*
X0005866Y0011516D03*
X0006181D03*
Y0010886D03*
X0004606D03*
X0006181Y0010571D03*
X0006496D03*
X0008701Y0009311D03*
X0009331Y0008996D03*
X0009016D03*
X0004921Y0011831D03*
Y0012146D03*
X0003976Y0013091D03*
X0004291D03*
X0003346Y0014665D03*
X0003661Y0014350D03*
Y0010886D03*
Y0011516D03*
X0003031Y0012461D03*
X0002717Y0012776D03*
X0002402Y0013091D03*
X0001772Y0013406D03*
X0002087D03*
X0004606Y0010571D03*
Y0010256D03*
X0003661Y0009311D03*
X0003346Y0008996D03*
X0003031Y0008681D03*
X0002717Y0008366D03*
X0002402Y0008051D03*
X0002087Y0007736D03*
X0001772D03*
X0008386Y0009626D03*
X0008071Y0011201D03*
X0009016Y0011516D03*
Y0011831D03*
X0009331Y0012146D03*
X0009016D03*
X0003976Y0014035D03*
X0004291Y0013720D03*
X0005551D03*
X0006496Y0014665D03*
X0006181Y0014350D03*
X0006496Y0011831D03*
Y0012146D03*
X0007441Y0013091D03*
X0007756Y0013406D03*
X0008071Y0013720D03*
X0008386Y0014035D03*
X0008701Y0014350D03*
X0009016Y0014980D03*
Y0014665D03*
X0008071Y0009941D03*
X0007441D03*
Y0008051D03*
X0007756Y0007421D03*
Y0007736D03*
X0007126Y0008366D03*
X0006811Y0008681D03*
X0005551Y0008366D03*
X0004921Y0008051D03*
X0004606Y0007421D03*
Y0007736D03*
X0009331Y0014665D03*
Y0014980D03*
X0011102Y0015177D03*
X0012677Y0016752D03*
X0009527D03*
X0012874Y0018839D03*
Y0018524D03*
X0011102Y0018327D03*
X-0009528Y-0005453D03*
X-0012678D03*
X-0011102Y-0007028D03*
X-0013189Y-0007224D03*
X-0012874D03*
X-0009016Y-0003681D03*
X-0009331D03*
X-0011102Y-0003878D03*
X0007441Y0021043D03*
X0007756Y0018524D03*
Y0018839D03*
X0007441Y0019154D03*
X0005866Y-0010059D03*
Y-0010374D03*
X0006181D03*
Y-0010059D03*
X0006496Y-0010689D03*
X0006181D03*
X0005866D03*
X0005236Y-0010059D03*
X-0019803Y0013091D03*
X-0017598Y0000728D03*
X-0018543Y0010886D03*
Y0011516D03*
X-0019488Y0012776D03*
X-0019173Y0012461D03*
X-0017598Y0000413D03*
Y0010886D03*
X-0017283Y0000413D03*
X-0017598Y0010571D03*
X-0016969Y0000413D03*
X-0017283Y0010886D03*
X-0016969D03*
Y0010571D03*
X-0017283D03*
X-0016969Y0010256D03*
X-0016339Y0010571D03*
Y0010256D03*
X-0015709Y0010886D03*
X-0016024Y0010571D03*
Y0010256D03*
Y0010886D03*
X-0016339D03*
X-0016969Y0000728D03*
X-0016024Y0011831D03*
Y0011516D03*
X-0016339Y0012146D03*
Y0011516D03*
Y0011831D03*
X-0016969Y0012146D03*
Y0011831D03*
Y0011516D03*
X-0017598D03*
X-0017283D03*
Y0011831D03*
X-0017598D03*
Y0012146D03*
X-0017283D03*
X-0018228Y0013091D03*
X-0017913D03*
X-0018858Y0014980D03*
Y0014665D03*
X-0018543Y0014350D03*
X-0015709Y0010256D03*
Y0010571D03*
X-0018543Y0009311D03*
X-0017283Y0010256D03*
X-0017598D03*
X-0019173Y0008681D03*
X-0019488Y0008366D03*
X-0019803Y0008051D03*
X-0020433Y0007736D03*
X-0020118D03*
Y0007421D03*
X-0018228Y0014035D03*
X-0017913Y0013720D03*
X-0016654D03*
X-0016024Y0014350D03*
X-0015315Y0015945D03*
X-0015709Y0014665D03*
Y0014980D03*
X-0013819Y0009626D03*
X-0014134Y0011201D03*
X-0013189Y0011516D03*
Y0011831D03*
X-0012874Y0012146D03*
X-0013189D03*
X-0014764Y0013091D03*
X-0016024Y0012146D03*
X-0015709D03*
X-0014449Y0013406D03*
X-0014134Y0013720D03*
X-0013189Y0014665D03*
X-0013504Y0014350D03*
X-0013819Y0014035D03*
X-0014134Y0009941D03*
X-0014764D03*
Y0008051D03*
X-0014449Y0007421D03*
Y0007736D03*
X-0015079Y0008366D03*
X-0015394Y0008681D03*
X-0016654Y0008366D03*
X-0017283Y0008051D03*
X-0017598Y0007421D03*
Y0007736D03*
X0007126Y0019469D03*
X0006811Y0019783D03*
X0016909Y-0022382D03*
X0015807Y-0022559D03*
X0015256D03*
X-0019232Y-0023366D03*
X-0018081Y-0023307D03*
X-0018740Y-0024547D03*
X-0018081Y-0024370D03*
X0012421Y-0022362D03*
X0013976Y-0023110D03*
Y-0022303D03*
X0005551Y0019469D03*
X0004921Y0019154D03*
X0004606Y0018524D03*
Y0018839D03*
X0001575Y0016752D03*
X0001772Y0018839D03*
Y0018524D03*
X0000000Y0007224D03*
X0002087Y0007421D03*
X0001772D03*
X0002087Y-0014783D03*
X0001772Y-0014469D03*
X-0016969Y0001043D03*
X-0017283Y0000728D03*
X-0017598Y0001043D03*
X-0017283D03*
X0012736Y-0019291D03*
Y-0019488D03*
Y-0019685D03*
X0010906Y-0020315D03*
X0012736Y-0019882D03*
X0012756Y-0020472D03*
X0010256Y-0018228D03*
X0011417Y-0018917D03*
X0011476Y-0018366D03*
X0011654Y-0017559D03*
X0011496Y-0016614D03*
X0016654Y-0008484D03*
X0017598Y-0007539D03*
X0017283Y-0007854D03*
X0019488Y-0012579D03*
X0019173Y-0012264D03*
Y-0011004D03*
X0020118Y-0010689D03*
Y-0010374D03*
Y-0013209D03*
X0020433D03*
X0019547Y-0017480D03*
X0018051Y-0017835D03*
X0018583D03*
X0017815Y-0018701D03*
X0018740Y-0018799D03*
X0022008Y-0010571D03*
X0020118Y-0010059D03*
X0020433D03*
X0012402Y0028169D03*
X0012352Y0028780D03*
X0002087Y-0014469D03*
X-0013209Y-0023914D03*
Y-0024229D03*
X-0013435Y-0021988D03*
X-0011998D03*
X-0009183D03*
X-0007746D03*
X-0016693Y-0018228D03*
X-0019823Y-0020886D03*
X0020433Y0003878D03*
X0002402Y-0014154D03*
X0002717Y-0013839D03*
X0003031Y-0013524D03*
X0003346Y-0013209D03*
X0003661Y-0012894D03*
X-0018228Y0001988D03*
X0005236Y-0011319D03*
X0004921Y-0011949D03*
Y-0011634D03*
X0004606Y-0011949D03*
X-0017913Y0001988D03*
X0006496Y-0011319D03*
X0005866Y-0011634D03*
Y-0011319D03*
X0006181D03*
Y-0011634D03*
X0005236D03*
Y-0011949D03*
X0006181D03*
X0005866D03*
X0004606Y-0011634D03*
X0004921Y-0010374D03*
X0005236D03*
Y-0010689D03*
X0004921D03*
X0004606D03*
Y-0010374D03*
X0004921Y-0011319D03*
X0004606D03*
X0003031Y-0011004D03*
X0002402Y-0011634D03*
X0001772Y-0011949D03*
X0002087D03*
X0004606Y-0010059D03*
X0004921D03*
X0003976Y-0009114D03*
X0004291D03*
X0003346Y-0007539D03*
X0003661Y-0007854D03*
X0006496Y-0011949D03*
Y-0011634D03*
X-0018858Y0003563D03*
X0008701Y-0012894D03*
X0009331Y-0013209D03*
X0009016D03*
X0002717Y-0009429D03*
X0003031Y-0009744D03*
X0003661Y-0011319D03*
Y-0010689D03*
X0002402Y-0009114D03*
X0001772Y-0008799D03*
X0002087D03*
X0003976Y-0008169D03*
X0004291Y-0008484D03*
X0005551D03*
X0006496Y-0007539D03*
X0006181Y-0007854D03*
X0008386Y-0012579D03*
X0008071Y-0011004D03*
X0009016Y-0010689D03*
Y-0010374D03*
X0009331Y-0010059D03*
X0009016D03*
X0007441Y-0009114D03*
X0006496Y-0010374D03*
Y-0010059D03*
X-0018543Y0003248D03*
X0007756Y-0008799D03*
X0008071Y-0008484D03*
X0008386Y-0008169D03*
X0013504Y0030217D03*
X-0018228Y0002933D03*
X0012185Y0030758D03*
X0012717Y0030896D03*
X0011654Y0030758D03*
X0011122D03*
X0008465Y0028435D03*
X0007933Y0030846D03*
X0008150Y0030157D03*
X0003346Y0025768D03*
X-0009016Y0018524D03*
X-0009331D03*
X-0009528Y0016752D03*
X0008701Y-0007854D03*
X0009331Y-0007539D03*
X0009016D03*
X0007126Y-0013839D03*
X0008071Y-0012264D03*
X0007441D03*
X0006811Y-0013524D03*
X0005551Y-0013839D03*
X0004921Y-0014154D03*
X0004606Y-0014783D03*
Y-0014469D03*
X-0020118Y0013406D03*
X-0020433D03*
X0011102Y-0007028D03*
X0009016Y-0007224D03*
X0009331D03*
X-0020118Y0024508D03*
X-0020433D03*
X-0020630Y0026693D03*
X-0021043Y0026279D03*
X0012874Y-0003366D03*
Y-0003681D03*
X0012678Y-0005453D03*
X0020118Y0020098D03*
X0020433D03*
X0021043Y0018327D03*
X0011673Y-0020177D03*
Y-0021142D03*
X0008228Y-0023839D03*
X-0003346Y-0014469D03*
Y-0014783D03*
X-0004488Y-0018228D03*
X-0003937D03*
X-0000236Y-0018031D03*
X-0017913Y0002618D03*
X0023071Y-0017559D03*
X0022421Y-0017126D03*
X-0011102Y-0014980D03*
X-0012678Y-0015394D03*
X-0012992Y-0018228D03*
X-0012441D03*
X-0009331Y-0014783D03*
X-0009528Y-0015394D03*
X-0008189Y-0018228D03*
X-0008740D03*
X-0022283Y-0016319D03*
X-0003494Y-0021988D03*
X-0004931D03*
X0000039Y-0023484D03*
X-0000679Y-0021988D03*
X-0016417Y-0025512D03*
X0001575Y-0005453D03*
X0002087Y-0003681D03*
X0001772D03*
X0000000Y-0003878D03*
X0012874Y0007421D03*
X0012678Y0005610D03*
X0009331Y0003878D03*
X0011102Y0004074D03*
X0020059Y-0021713D03*
X0021398Y-0021358D03*
X0003346Y-0007224D03*
X0004213Y-0006260D03*
X0006496Y-0007224D03*
X0014449D03*
X0015315Y-0006260D03*
X0017598Y-0007224D03*
X0003346Y0003878D03*
X0004213Y0004843D03*
X0006496Y0003878D03*
X0006890Y0004843D03*
X0014449Y0003878D03*
X0015315Y0004843D03*
X0017598Y0003878D03*
X0017992Y0004843D03*
X-0006181Y-0000846D03*
X-0006496D03*
X-0004606Y0014980D03*
X-0004213Y0015945D03*
X0003346Y0014980D03*
X0004213Y0015945D03*
X0006496Y0014980D03*
X0006889Y0015945D03*
X0014449Y0014980D03*
X0015315Y0015945D03*
X0017598Y0014980D03*
X-0004606Y0026083D03*
X-0016654Y0002618D03*
X0003346Y0026083D03*
X0004213Y0027047D03*
X0011102Y-0014980D03*
X0009527Y-0015394D03*
X0012874Y-0014783D03*
X0012678Y-0015394D03*
X0006496Y0026083D03*
X0014620Y0027959D03*
X0015315Y0027047D03*
X0017598Y0026083D03*
X0017992Y0027047D03*
X-0017598Y-0014783D03*
X-0017343Y-0015531D03*
X-0020433Y0007421D03*
X-0021043Y0007225D03*
X-0016024Y0003248D03*
X0020433Y0014665D03*
X0020118Y0014980D03*
X0020433D03*
X0021043Y0015177D03*
X0020630Y0016752D03*
X-0018858Y-0007224D03*
X-0017992Y-0006260D03*
X0017283Y0012146D03*
Y0014350D03*
X0016654Y0013720D03*
X-0020630Y0005610D03*
X-0021043Y0004074D03*
X-0015709Y-0007224D03*
X-0015315Y-0006260D03*
X0001772Y-0014783D03*
X0017283Y0011831D03*
X0017598Y0011516D03*
X0017283D03*
X0021043Y-0003878D03*
X0020630Y-0005453D03*
X0001575Y-0015394D03*
X-0015709Y0003563D03*
X-0018858Y0003878D03*
X-0017992Y0004843D03*
X-0007756Y-0007224D03*
X-0006890Y-0006260D03*
X0017598Y0012146D03*
Y0011831D03*
X0020118Y0011516D03*
X0019173Y0011201D03*
X-0007756Y0003878D03*
X-0006890Y0004843D03*
X0019626Y-0016555D03*
X0021043Y0004074D03*
X0020630Y0005610D03*
X0021043Y0007225D03*
X-0004606Y0003878D03*
X-0004213Y0004843D03*
X0021043Y-0014980D03*
X0020630Y-0015394D03*
X-0015709Y0003878D03*
X-0015315Y0004843D03*
X-0021043Y-0003878D03*
X-0020630Y-0005453D03*
X-0004606Y-0007224D03*
X-0004213Y-0006260D03*
X0000000Y-0014980D03*
X-0001575Y-0015394D03*
X-0020433Y-0014469D03*
X-0021043Y-0014271D03*
X0020650Y-0028858D03*
X0018209Y-0022244D03*
X-0018543Y-0012579D03*
X-0007441D03*
X0003661D03*
X0014764D03*
X-0018543Y-0001476D03*
X-0007441D03*
X0003661D03*
X0014764D03*
X-0018543Y0009626D03*
X-0007441D03*
X0003661D03*
X0014764D03*
X-0018543Y0020728D03*
X-0007441D03*
X0003661D03*
X0014764D03*
X0017283Y0023248D03*
X0016024D03*
X0006181D03*
X0004921D03*
X-0004921D03*
X-0006181D03*
X-0016024D03*
X-0017283D03*
X0017598Y0022933D03*
X0015709Y0022618D03*
X0006496Y0022933D03*
X0004606Y0022618D03*
X-0004606Y0022933D03*
X-0006496Y0022618D03*
X-0015709Y0022933D03*
X-0017598Y0022618D03*
X0015709Y0021988D03*
X0004606D03*
X-0006496D03*
X-0017598D03*
X0017598Y0021673D03*
X0006496D03*
X-0004606D03*
X-0015709D03*
X0016969Y0021358D03*
X0016339D03*
X0016024D03*
X0005236Y0013091D03*
Y0024193D03*
X-0007441Y0013406D03*
X-0019488Y-0008799D03*
X-0017913Y-0008169D03*
X-0021043Y0008602D03*
X-0011890Y-0023927D03*
X-0015463Y-0023740D03*
X-0018061Y-0024902D03*
X-0003976Y0020413D03*
X0007126D03*
X0014055Y0026693D03*
X0015709Y0024193D03*
X0008150Y-0005453D03*
X0012500Y-0005866D03*
X-0019488Y-0007854D03*
X-0022943Y0017234D03*
X-0015079Y-0002106D03*
Y0013406D03*
X-0016969Y-0001791D03*
Y0009311D03*
X0014685Y-0021240D03*
X-0003976Y0009311D03*
X0007126D03*
X0007638Y0030531D03*
X-0008071Y-0014783D03*
Y0003878D03*
X0013819Y0022933D03*
X-0019803Y-0009429D03*
X-0013504Y0007421D03*
Y0026083D03*
X-0006811Y0020098D03*
Y-0008799D03*
X0008071Y0007736D03*
Y0025768D03*
X-0008386Y-0003366D03*
Y0014665D03*
X-0019803Y-0008169D03*
X-0008071Y-0014469D03*
Y0003563D03*
X0014764Y0023563D03*
X0014134Y-0000846D03*
X-0014134D03*
X0006220Y0015945D03*
X-0003661Y-0014469D03*
Y0003563D03*
X-0019173Y0022618D03*
X-0003031D03*
X0003346Y-0013524D03*
Y0002618D03*
X-0014449Y-0011634D03*
X0014449D03*
X0003346Y0012776D03*
X0018858D03*
X-0008071Y0010571D03*
X0008071D03*
X-0014134Y0022933D03*
X0014134D03*
X0014764Y0024508D03*
X0014449Y0022618D03*
X0017224Y0030413D03*
X0012874Y0024823D03*
X-0012874D03*
X0011506Y-0015531D03*
X0018543Y0023878D03*
X0002402Y0025138D03*
X-0019488Y-0008484D03*
X-0019803D03*
X0003661Y0013406D03*
X-0015984Y0004843D03*
X-0020118Y-0002421D03*
X-0002087D03*
X-0013189Y0024823D03*
X0013189D03*
G54D140*
X0019047Y-0030858D03*
X-0019047D03*
X0019047Y0030858D03*
X-0019047D03*
M02*
