*
G04 Mass Parameters ***
*
G04 Image ***
*
%INV:\DEV\A005\CAD\XMP-64A_1-1_9.IN5*%
%ICAS*%
%MOIN*%
%IPPOS*%
%ASAXBY*%
G74*%FSLAN2X34Y34*%
*
G04 Aperture Definitions ***
*
%AMTHERMAL90*
1,1,0.0866,0,0,*
1,0,0.0630,0,0,*
21,0,0.0867,0.0197,0,0,45.0*
21,0,0.0867,0.0197,0,0,135.0*%
%AMTHERMAL94*
1,1,0.0628,0,0,*
1,0,0.0472,0,0,*
21,0,0.0629,0.0079,0,0,45.0*
21,0,0.0629,0.0079,0,0,135.0*%
%AMTHERMAL96*
1,1,0.0943,0,0,*
1,0,0.0708,0,0,*
21,0,0.0944,0.0197,0,0,225.0*
21,0,0.0944,0.0197,0,0,315.0*%
%AMTHERMAL98*
1,1,0.0943,0,0,*
1,0,0.0708,0,0,*
21,0,0.0944,0.0197,0,0,45.0*
21,0,0.0944,0.0197,0,0,135.0*%
%AMTHERMAL107*
1,1,0.0943,0,0,*
1,0,0.0708,0,0,*
21,0,0.0944,0.0197,0,0,315.0*
21,0,0.0944,0.0197,0,0,45.0*%
%AMTHERMAL109*
1,1,0.0943,0,0,*
1,0,0.0708,0,0,*
21,0,0.0944,0.0197,0,0,135.0*
21,0,0.0944,0.0197,0,0,225.0*%
%AMTHERMAL118*
1,1,0.0786,0,0,*
1,0,0.0630,0,0,*
21,0,0.0787,0.0079,0,0,45.0*
21,0,0.0787,0.0079,0,0,135.0*%
%AMTHERMAL120*
1,1,0.1023,0,0,*
1,0,0.0787,0,0,*
21,0,0.1024,0.0197,0,0,225.0*
21,0,0.1024,0.0197,0,0,315.0*%
%AMTHERMAL123*
1,1,0.0921,0,0,*
1,0,0.0686,0,0,*
21,0,0.0922,0.0197,0,0,225.0*
21,0,0.0922,0.0197,0,0,315.0*%
%AMTHERMAL135*
1,1,0.0708,0,0,*
1,0,0.0552,0,0,*
21,0,0.0709,0.0079,0,0,45.0*
21,0,0.0709,0.0079,0,0,135.0*%
%AMTHERMAL139*
1,1,0.0786,0,0,*
1,0,0.0630,0,0,*
21,0,0.0787,0.0079,0,0,135.0*
21,0,0.0787,0.0079,0,0,225.0*%
%ADD10C,0.0787*%
%ADD11C,0.0630*%
%ADD12C,0.0550*%
%ADD13C,0.0709*%
%ADD14R,0.0709X0.0709*%
%ADD15C,0.0591*%
%ADD16C,0.0866*%
%ADD17C,0.1378*%
%ADD18R,0.0394X0.0551*%
%ADD19C,0.2756*%
%ADD20O,0.1575X0.0787*%
%ADD21O,0.0787X0.1575*%
%ADD22O,0.0787X0.1772*%
%ADD23C,0.0315*%
%ADD24C,0.0157*%
%ADD25C,0.0177*%
%ADD26C,0.1181*%
%ADD27C,0.0750*%
%ADD28R,0.0750X0.0750*%
%ADD29C,0.0079*%
%ADD30C,0.0157*%
%ADD31C,0.0030*%
%ADD32C,0.0157*%
%ADD33C,0.0157*%
%ADD34C,0.0098*%
%ADD35R,0.0236X0.0236*%
%ADD36R,0.0571X0.0453*%
%ADD37R,0.0453X0.0571*%
%ADD38R,0.0394X0.0276*%
%ADD39R,0.0276X0.0394*%
%ADD40R,0.1280X0.0650*%
%ADD41R,0.0551X0.0472*%
%ADD42R,0.0650X0.1280*%
%ADD43R,0.0965X0.0925*%
%ADD44R,0.0472X0.0709*%
%ADD45R,0.0472X0.1063*%
%ADD46O,0.0236X0.0472*%
%ADD47R,0.0591X0.0472*%
%ADD48R,0.0394X0.0374*%
%ADD49R,0.0374X0.0394*%
%ADD50R,0.1417X0.0551*%
%ADD51R,0.0866X0.0984*%
%ADD52R,0.0787X0.0197*%
%ADD53O,0.1062X0.0236*%
%ADD54O,0.0591X0.0256*%
%ADD55R,0.0197X0.0236*%
%ADD56R,0.0236X0.0197*%
%ADD57R,0.0236X0.0394*%
%ADD58R,0.0394X0.0236*%
%ADD59R,0.0236X0.0433*%
%ADD60R,0.0433X0.0236*%
%ADD61O,0.0571X0.0236*%
%ADD62O,0.0709X0.0591*%
%ADD63C,0.0708*%
%ADD64R,0.0708X0.0708*%
%ADD65R,0.0980X0.1370*%
%ADD66O,0.0591X0.0118*%
%ADD67R,0.0866X0.0630*%
%ADD68R,0.0177X0.0748*%
%ADD69O,0.0512X0.0236*%
%ADD70O,0.0866X0.0236*%
%ADD71R,0.1496X0.1496*%
%ADD72O,0.0118X0.0394*%
%ADD73O,0.0394X0.0118*%
%ADD74R,0.0472X0.0571*%
%ADD75R,0.1024X0.0945*%
%ADD76O,0.0118X0.0354*%
%ADD77O,0.0354X0.0118*%
%ADD78C,0.0394*%
%ADD79R,0.1969X0.1969*%
%ADD80R,0.0591X0.0118*%
%ADD81R,0.0118X0.0591*%
%ADD82R,0.0236X0.0453*%
%ADD83R,0.0453X0.0236*%
%ADD84R,0.0768X0.0866*%
%ADD85O,0.0630X0.0118*%
%ADD86R,0.0650X0.1949*%
%ADD87C,0.0197*%
%ADD88C,0.0394*%
%ADD89C,0.0118*%
%ADD90THERMAL90*%
%ADD91C,0.0787*%
%ADD92C,0.0630*%
%ADD93C,0.0550*%
%ADD94THERMAL94*%
%ADD95C,0.0709*%
%ADD96THERMAL96*%
%ADD97C,0.0709*%
%ADD98THERMAL98*%
%ADD99C,0.0591*%
%ADD100C,0.0866*%
%ADD101C,0.1378*%
%ADD102R,0.0709X0.0709*%
%ADD103C,0.1575*%
%ADD104O,0.1575X0.0787*%
%ADD105O,0.0787X0.1575*%
%ADD106O,0.0787X0.1772*%
%ADD107THERMAL107*%
%ADD108C,0.0709*%
%ADD109THERMAL109*%
%ADD110C,0.0709*%
%ADD111C,0.0050*%
%ADD112C,0.0050*%
%ADD113C,0.0315*%
%ADD114C,0.0050*%
%ADD115C,0.0050*%
%ADD116C,0.0315*%
%ADD117C,0.0217*%
%ADD118THERMAL118*%
%ADD119C,0.1181*%
%ADD120THERMAL120*%
%ADD121C,0.1181*%
%ADD122C,0.0750*%
%ADD123THERMAL123*%
%ADD124C,0.0217*%
%ADD125C,0.0217*%
%ADD126C,0.0050*%
%ADD127C,0.0217*%
%ADD128C,0.0050*%
%ADD129C,0.0787*%
%ADD130C,0.0630*%
%ADD131C,0.0550*%
%ADD132C,0.0709*%
%ADD133R,0.0709X0.0709*%
%ADD134C,0.0591*%
%ADD135THERMAL135*%
%ADD136R,0.0709X0.0709*%
%ADD137R,0.0709X0.0709*%
%ADD138C,0.0217*%
%ADD139THERMAL139*%
%ADD140C,0.1575*%
%ADD141C,0.0787*%
%ADD142C,0.0630*%
%ADD143C,0.0550*%
%ADD144C,0.0709*%
%ADD145R,0.0709X0.0709*%
%ADD146C,0.0591*%
%ADD147C,0.0866*%
%ADD148C,0.1378*%
%ADD149C,0.1575*%
%ADD150O,0.1575X0.0787*%
%ADD151O,0.0787X0.1575*%
%ADD152O,0.0787X0.1772*%
%ADD153C,0.0315*%
%ADD154C,0.0157*%
%ADD155C,0.0157*%
%ADD156C,0.0039*%
*
G04 Plot Data ***
*
G54D120*
X0007051Y-0029559D03*
Y-0028307D03*
G54D139*
X0016594Y-0032665D03*
G54D29*
G01X0037953Y0036620D02*
X0037909Y0036708D01*
X0037646D01*
X0037603Y0036620D01*
Y0036533D01*
X0037646Y0036446D01*
X0037909D01*
X0037953Y0036358D01*
Y0036270D01*
X0037909Y0036183D01*
X0037646D01*
X0037603Y0036270D01*
X0037270Y0036446D02*
X0037402Y0036183D01*
X0037052Y0036446D02*
X0037314D01*
X0037402Y0036533D01*
Y0036620D01*
X0037314Y0036708D01*
X0037052D01*
Y0036183D01*
X0036544D02*
X0036500Y0036270D01*
Y0036620D01*
X0036544Y0036708D01*
X0036806D01*
X0036850Y0036620D01*
Y0036270D01*
X0036806Y0036183D01*
X0036544D01*
X0036168Y0036446D02*
X0036299Y0036183D01*
X0035949Y0036446D02*
X0036211D01*
X0036299Y0036533D01*
Y0036620D01*
X0036211Y0036708D01*
X0035949D01*
Y0036183D01*
X0035617Y0036446D02*
X0035748Y0036183D01*
X0035398Y0036446D02*
X0035660D01*
X0035748Y0036533D01*
Y0036620D01*
X0035660Y0036708D01*
X0035398D01*
Y0036183D01*
X0035109Y0036446D02*
X0034847D01*
X0035197Y0036183D02*
X0034847D01*
Y0036708D01*
X0035197D01*
X0033591Y0036183D02*
Y0036708D01*
X0033548Y0036183D02*
X0033810D01*
X0033898Y0036358D01*
Y0036533D01*
X0033810Y0036708D01*
X0033548D01*
X0033040Y0036183D02*
X0032996Y0036270D01*
Y0036620D01*
X0033040Y0036708D01*
X0033302D01*
X0033346Y0036620D01*
Y0036270D01*
X0033302Y0036183D01*
X0033040D01*
X0032489D02*
X0032445Y0036270D01*
Y0036620D01*
X0032489Y0036708D01*
X0032751D01*
X0032795Y0036620D01*
Y0036270D01*
X0032751Y0036183D01*
X0032489D01*
X0032069Y0036446D02*
X0032244D01*
Y0036270D01*
X0032200Y0036183D01*
X0031938D01*
X0031894Y0036270D01*
Y0036620D01*
X0031938Y0036708D01*
X0032200D01*
X0032244Y0036620D01*
X0030945Y0036708D02*
Y0036183D01*
X0030857Y0036270D01*
X0030682Y0036620D01*
X0030595Y0036708D01*
Y0036183D01*
X0030394Y0036708D02*
Y0036270D01*
X0030350Y0036183D01*
X0030219Y0036446D01*
Y0036533D02*
Y0036446D01*
X0030087Y0036183D01*
X0030044Y0036270D01*
Y0036708D01*
X0029536Y0036183D02*
X0029493Y0036270D01*
Y0036620D01*
X0029536Y0036708D01*
X0029798D01*
X0029843Y0036620D01*
Y0036270D01*
X0029798Y0036183D01*
X0029536D01*
X0029291Y0036708D02*
Y0036183D01*
X0029204Y0036270D01*
X0029029Y0036620D01*
X0028941Y0036708D01*
Y0036183D01*
X0028740D02*
X0028478Y0036446D01*
X0028740Y0036708D01*
X0028390D02*
Y0036183D01*
X0027397Y0036446D02*
X0027441Y0036533D01*
Y0036620D01*
X0027397Y0036708D01*
X0027135D01*
X0027091Y0036620D01*
Y0036533D01*
X0027135Y0036446D01*
X0027397D01*
X0027441Y0036358D01*
Y0036270D01*
X0027397Y0036183D01*
X0027135D01*
X0027091Y0036270D01*
Y0036358D01*
X0027135Y0036446D01*
X0026890Y0036358D02*
X0026540D01*
X0026715Y0036708D01*
X0026802D01*
Y0036183D01*
X0071336Y0016920D02*
X0071161D01*
X0071336Y0017095D01*
Y0017139D01*
X0071314Y0017183D01*
X0071183D01*
X0071161Y0017139D01*
X0070485Y0017052D02*
X0070354D01*
X0070529Y0016920D02*
X0070354D01*
Y0017183D01*
X0070529D01*
X0070175D02*
Y0016920D01*
X0070131Y0016964D01*
X0070043Y0017139D01*
X0070000Y0017183D01*
Y0016920D01*
X0069820Y0017008D02*
X0069645D01*
X0069820Y0016920D02*
Y0017052D01*
X0069755Y0017183D01*
X0069711D01*
X0069645Y0017052D01*
Y0016920D01*
X0069466D02*
X0069313D01*
Y0017183D01*
X0068959Y0017052D02*
X0069090D01*
X0069134Y0017095D01*
Y0017139D01*
X0069090Y0017183D01*
X0068959D01*
Y0016920D01*
X0068261Y0017052D02*
X0068327Y0016920D01*
X0068152Y0017052D02*
X0068283D01*
X0068327Y0017095D01*
Y0017139D01*
X0068283Y0017183D01*
X0068152D01*
Y0016920D01*
X0067928Y0017052D02*
X0067797D01*
X0067972Y0016920D02*
X0067797D01*
Y0017183D01*
X0067972D01*
X0067618D02*
Y0016964D01*
X0067596Y0016920D01*
X0067530Y0017052D01*
Y0017095D02*
Y0017052D01*
X0067465Y0016920D01*
X0067443Y0016964D01*
Y0017183D01*
X0067111Y0016920D02*
X0067089Y0016964D01*
Y0017139D01*
X0067111Y0017183D01*
X0067242D01*
X0067264Y0017139D01*
Y0016964D01*
X0067242Y0016920D01*
X0067111D01*
X0066734Y0017052D02*
X0066865D01*
X0066909Y0017095D01*
Y0017139D01*
X0066865Y0017183D01*
X0066734D01*
Y0016920D01*
X0056003Y0035120D02*
X0056090Y0035295D01*
Y0035470D01*
X0056003Y0035645D01*
X0055408Y0035120D02*
Y0035645D01*
X0055364Y0035120D02*
X0055626D01*
X0055714Y0035295D01*
Y0035470D01*
X0055626Y0035645D01*
X0055364D01*
X0055163Y0035295D02*
X0054813D01*
X0055163Y0035120D02*
Y0035383D01*
X0055031Y0035645D01*
X0054944D01*
X0054813Y0035383D01*
Y0035120D01*
X0054262Y0035383D02*
X0054524D01*
X0054612Y0035470D01*
Y0035557D01*
X0054524Y0035645D01*
X0054262D01*
Y0035120D01*
X0054061D02*
X0053886D01*
X0053973D02*
Y0035645D01*
X0054061D02*
X0053886D01*
X0053422Y0035120D02*
Y0035645D01*
X0053597D02*
X0053247D01*
X0053046D02*
Y0035120D01*
X0052958Y0035207D01*
X0052783Y0035557D01*
X0052696Y0035645D01*
Y0035120D01*
X0052495Y0035295D02*
X0052145D01*
X0052495Y0035120D02*
Y0035383D01*
X0052363Y0035645D01*
X0052276D01*
X0052145Y0035383D01*
Y0035120D01*
X0051108Y0035383D02*
X0050846D01*
X0051196Y0035120D02*
X0050846D01*
Y0035645D01*
X0051196D01*
X0050644D02*
Y0035120D01*
X0050557Y0035207D01*
X0050382Y0035557D01*
X0050294Y0035645D01*
Y0035120D01*
X0050093Y0035295D02*
X0049743D01*
X0050093Y0035120D02*
Y0035383D01*
X0049962Y0035645D01*
X0049874D01*
X0049743Y0035383D01*
Y0035120D01*
X0049542D02*
X0049236D01*
Y0035645D01*
X0048685Y0035383D02*
X0048947D01*
X0049035Y0035470D01*
Y0035557D01*
X0048947Y0035645D01*
X0048685D01*
Y0035120D01*
X0047736D02*
Y0035645D01*
X0047648Y0035557D01*
X0047561Y0035383D01*
X0047473Y0035557D01*
X0047386Y0035645D01*
Y0035120D01*
X0047185D02*
Y0035645D01*
X0047097Y0035557D01*
X0047009Y0035383D01*
X0046922Y0035557D01*
X0046835Y0035645D01*
Y0035120D01*
X0046283Y0035207D02*
X0046327Y0035120D01*
X0046589D01*
X0046633Y0035207D01*
Y0035383D01*
X0046546Y0035470D01*
X0046283D01*
Y0035645D01*
X0046633D01*
X0045732Y0035207D02*
X0045776Y0035120D01*
X0046038D01*
X0046082Y0035207D01*
Y0035383D01*
X0045994Y0035470D01*
X0045732D01*
Y0035645D01*
X0046082D01*
X0045444Y0035120D02*
X0045531D01*
Y0035207D01*
X0045444D01*
Y0035120D01*
X0044936D02*
X0044849Y0035207D01*
X0044805Y0035295D01*
Y0035470D01*
X0044849Y0035557D01*
X0044936Y0035645D01*
X0045024D01*
X0045111Y0035557D01*
X0045155Y0035470D01*
Y0035295D01*
X0045111Y0035207D01*
X0045024Y0035120D01*
X0044936D01*
X0044604D02*
X0044517Y0035295D01*
Y0035470D01*
X0044604Y0035645D01*
X0043305Y0035383D02*
X0043043D01*
X0043393Y0035120D02*
X0043043D01*
Y0035645D01*
X0043393D01*
X0042841Y0035120D02*
X0042535D01*
Y0035645D01*
X0042028Y0035120D02*
X0041984Y0035207D01*
Y0035557D01*
X0042028Y0035645D01*
X0042290D01*
X0042334Y0035557D01*
Y0035207D01*
X0042290Y0035120D01*
X0042028D01*
X0041783Y0035383D02*
X0041433D01*
X0041783Y0035120D02*
Y0035645D01*
X0041433Y0035120D02*
Y0035645D01*
X0040484Y0035120D02*
Y0035645D01*
X0040396Y0035557D01*
X0040309Y0035383D01*
X0040221Y0035557D01*
X0040134Y0035645D01*
Y0035120D01*
X0039933D02*
Y0035645D01*
X0039845Y0035557D01*
X0039757Y0035383D01*
X0039670Y0035557D01*
X0039583Y0035645D01*
Y0035120D01*
X0039031Y0035207D02*
X0039075Y0035120D01*
X0039337D01*
X0039381Y0035207D01*
Y0035383D01*
X0039294Y0035470D01*
X0039031D01*
Y0035645D01*
X0039381D01*
X0038830Y0035120D02*
X0038656D01*
X0038743D02*
Y0035645D01*
X0038656Y0035557D01*
X0038280Y0035120D02*
X0038367D01*
Y0035207D01*
X0038280D01*
Y0035120D01*
X0037772D02*
X0037685Y0035207D01*
X0037641Y0035295D01*
Y0035470D01*
X0037685Y0035557D01*
X0037772Y0035645D01*
X0037859D01*
X0037947Y0035557D01*
X0037991Y0035470D01*
Y0035295D01*
X0037947Y0035207D01*
X0037859Y0035120D01*
X0037772D01*
X0036692Y0035645D02*
X0036430Y0035120D01*
X0035130D02*
Y0035645D01*
X0035087Y0035120D02*
X0035349D01*
X0035437Y0035295D01*
Y0035470D01*
X0035349Y0035645D01*
X0035087D01*
X0034885Y0035295D02*
X0034535D01*
X0034885Y0035120D02*
Y0035383D01*
X0034754Y0035645D01*
X0034667D01*
X0034535Y0035383D01*
Y0035120D01*
X0033984Y0035383D02*
X0034246D01*
X0034334Y0035470D01*
Y0035557D01*
X0034246Y0035645D01*
X0033984D01*
Y0035120D01*
X0033035D02*
Y0035645D01*
X0032947Y0035557D01*
X0032860Y0035383D01*
X0032772Y0035557D01*
X0032685Y0035645D01*
Y0035120D01*
X0032484D02*
Y0035645D01*
X0032396Y0035557D01*
X0032309Y0035383D01*
X0032221Y0035557D01*
X0032134Y0035645D01*
Y0035120D01*
X0031933Y0035295D02*
X0031583D01*
X0031757Y0035645D01*
X0031845D01*
Y0035120D01*
X0031294D02*
X0031381D01*
Y0035207D01*
X0031294D01*
Y0035120D01*
X0030787D02*
X0030699Y0035207D01*
X0030656Y0035295D01*
Y0035470D01*
X0030699Y0035557D01*
X0030787Y0035645D01*
X0030874D01*
X0030961Y0035557D01*
X0031006Y0035470D01*
Y0035295D01*
X0030961Y0035207D01*
X0030874Y0035120D01*
X0030787D01*
X0029706Y0035383D02*
X0029356D01*
X0028407Y0035120D02*
X0028232D01*
X0028320D02*
Y0035645D01*
X0028232Y0035557D01*
X0027944Y0035295D02*
X0027594D01*
X0027944Y0035120D02*
Y0035383D01*
X0027812Y0035645D01*
X0027725D01*
X0027594Y0035383D01*
Y0035120D01*
X0027393D02*
X0027218D01*
X0027305D02*
Y0035645D01*
X0027393D02*
X0027218D01*
X0026929D02*
Y0035470D01*
X0026754Y0035120D01*
X0026579Y0035470D01*
Y0035645D01*
X0062198Y0034219D02*
X0062154Y0034306D01*
X0061892D01*
X0061848Y0034219D01*
Y0034131D01*
X0061892Y0034044D01*
X0062154D01*
X0062198Y0033957D01*
Y0033869D01*
X0062154Y0033781D01*
X0061892D01*
X0061848Y0033869D01*
X0061341Y0033781D02*
X0061297Y0033869D01*
Y0034219D01*
X0061341Y0034306D01*
X0061603D01*
X0061647Y0034219D01*
Y0033869D01*
X0061603Y0033781D01*
X0061341D01*
X0061096D02*
Y0034306D01*
X0061008Y0034219D01*
X0060921Y0034044D01*
X0060833Y0034219D01*
X0060746Y0034306D01*
Y0033781D01*
X0060545D02*
X0060283Y0034306D01*
X0060545D02*
X0060283Y0033781D01*
X0059290D02*
Y0034306D01*
X0059202Y0034219D01*
X0059115Y0034044D01*
X0059027Y0034219D01*
X0058940Y0034306D01*
Y0033781D01*
X0058432D02*
X0058389Y0033869D01*
Y0034219D01*
X0058432Y0034306D01*
X0058694D01*
X0058739Y0034219D01*
Y0033869D01*
X0058694Y0033781D01*
X0058432D01*
X0058056Y0034044D02*
X0058187Y0033781D01*
X0057837Y0034044D02*
X0058100D01*
X0058187Y0034131D01*
Y0034219D01*
X0058100Y0034306D01*
X0057837D01*
Y0033781D01*
X0057548Y0034044D02*
X0057286D01*
Y0033781D02*
Y0034306D01*
X0057636D01*
X0056337D02*
Y0033781D01*
X0056249Y0033869D01*
X0056074Y0034219D01*
X0055987Y0034306D01*
Y0033781D01*
X0055480D02*
X0055436Y0033869D01*
Y0034219D01*
X0055480Y0034306D01*
X0055742D01*
X0055786Y0034219D01*
Y0033869D01*
X0055742Y0033781D01*
X0055480D01*
X0055235D02*
X0055060D01*
X0055147D02*
Y0034306D01*
X0055235D02*
X0055060D01*
X0054596Y0033781D02*
Y0034306D01*
X0054771D02*
X0054421D01*
X0054220Y0033869D02*
X0054176Y0033781D01*
X0053914D01*
X0053870Y0033869D01*
Y0034219D01*
X0053914Y0034306D01*
X0054176D01*
X0054220Y0034219D01*
X0053669Y0034306D02*
Y0033869D01*
X0053625Y0033781D01*
X0053363D01*
X0053319Y0033869D01*
Y0034306D01*
X0052986Y0034044D02*
X0053118Y0033781D01*
X0052768Y0034044D02*
X0053030D01*
X0053118Y0034131D01*
Y0034219D01*
X0053030Y0034306D01*
X0052768D01*
Y0033781D01*
X0052391D02*
Y0034306D01*
X0052567D02*
X0052217D01*
X0052015Y0034219D02*
X0051971Y0034306D01*
X0051709D01*
X0051665Y0034219D01*
Y0034131D01*
X0051709Y0034044D01*
X0051971D01*
X0052015Y0033957D01*
Y0033869D01*
X0051971Y0033781D01*
X0051709D01*
X0051665Y0033869D01*
X0051464Y0034306D02*
Y0033781D01*
X0051376Y0033869D01*
X0051202Y0034219D01*
X0051114Y0034306D01*
Y0033781D01*
X0050913D02*
X0050738D01*
X0050826D02*
Y0034306D01*
X0050913D02*
X0050738D01*
X0049702Y0034044D02*
X0049352D01*
X0048096Y0033781D02*
Y0034306D01*
X0048052Y0033781D02*
X0048315D01*
X0048402Y0033957D01*
Y0034131D01*
X0048315Y0034306D01*
X0048052D01*
X0047763Y0034044D02*
X0047501D01*
X0047851Y0033781D02*
X0047501D01*
Y0034306D01*
X0047851D01*
X0047300Y0034044D02*
X0046950D01*
X0047300Y0033781D02*
Y0034306D01*
X0046950Y0033781D02*
Y0034306D01*
X0046574Y0033781D02*
Y0034306D01*
X0046749D02*
X0046399D01*
X0046022Y0034044D02*
X0046198D01*
Y0033869D01*
X0046154Y0033781D01*
X0045891D01*
X0045848Y0033869D01*
Y0034219D01*
X0045891Y0034306D01*
X0046154D01*
X0046198Y0034219D01*
X0045646Y0034306D02*
Y0033781D01*
X0045559Y0033869D01*
X0045384Y0034219D01*
X0045296Y0034306D01*
Y0033781D01*
X0045007Y0034044D02*
X0044745D01*
X0045095Y0033781D02*
X0044745D01*
Y0034306D01*
X0045095D01*
X0044544Y0033781D02*
X0044238D01*
Y0034306D01*
X0043289Y0034044D02*
X0042939D01*
X0043289Y0033781D02*
Y0034306D01*
X0042939Y0033781D02*
Y0034306D01*
X0042738Y0033869D02*
X0042694Y0033781D01*
X0042431D01*
X0042388Y0033869D01*
Y0034219D01*
X0042431Y0034306D01*
X0042694D01*
X0042738Y0034219D01*
X0042011Y0033781D02*
Y0034306D01*
X0042187D02*
X0041837D01*
X0041635Y0033957D02*
X0041285D01*
X0041635Y0033781D02*
Y0034044D01*
X0041504Y0034306D01*
X0041417D01*
X0041285Y0034044D01*
Y0033781D01*
X0041084D02*
Y0034306D01*
X0040996Y0034219D01*
X0040909Y0034044D01*
X0040822Y0034219D01*
X0040734Y0034306D01*
Y0033781D01*
X0039697Y0034044D02*
X0039435D01*
X0039785Y0033781D02*
X0039435D01*
Y0034306D01*
X0039785D01*
X0038928Y0033781D02*
Y0034306D01*
X0038884Y0033781D02*
X0039146D01*
X0039234Y0033869D01*
Y0033957D01*
X0039190Y0034044D01*
X0038928D02*
X0039190D01*
X0039234Y0034131D01*
Y0034219D01*
X0039146Y0034306D01*
X0038884D01*
X0037628Y0033781D02*
X0037585Y0033869D01*
Y0034219D01*
X0037628Y0034306D01*
X0037891D01*
X0037935Y0034219D01*
Y0033869D01*
X0037891Y0033781D01*
X0037628D01*
X0037208D02*
Y0034306D01*
X0037383D02*
X0037033D01*
X0035778Y0033781D02*
Y0034306D01*
X0035734Y0033781D02*
X0035996D01*
X0036084Y0033957D01*
Y0034131D01*
X0035996Y0034306D01*
X0035734D01*
X0035445Y0034044D02*
X0035183D01*
X0035533Y0033781D02*
X0035183D01*
Y0034306D01*
X0035533D01*
X0034894Y0034044D02*
X0034632D01*
X0034982Y0033781D02*
X0034632D01*
Y0034306D01*
X0034982D01*
X0034431D02*
Y0033781D01*
X0034343Y0033869D01*
X0034168Y0034219D01*
X0034081Y0034306D01*
Y0033781D01*
X0032956D02*
Y0034306D01*
X0033131D02*
X0032781D01*
X0032537Y0034219D02*
X0032580Y0034306D01*
X0032161D02*
Y0033781D01*
X0032073Y0033869D01*
X0031898Y0034219D01*
X0031811Y0034306D01*
Y0033781D01*
X0031303D02*
X0031259Y0033869D01*
Y0034219D01*
X0031303Y0034306D01*
X0031565D01*
X0031609Y0034219D01*
Y0033869D01*
X0031565Y0033781D01*
X0031303D01*
X0030752D02*
Y0034306D01*
X0030708Y0033781D02*
X0030970D01*
X0031058Y0033957D01*
Y0034131D01*
X0030970Y0034306D01*
X0030708D01*
X0029759Y0034219D02*
X0029715Y0034306D01*
X0029453D01*
X0029409Y0034219D01*
Y0034131D01*
X0029453Y0034044D01*
X0029715D01*
X0029759Y0033957D01*
Y0033869D01*
X0029715Y0033781D01*
X0029453D01*
X0029409Y0033869D01*
X0029208Y0033781D02*
X0028945Y0034044D01*
X0029208Y0034306D01*
X0028858D02*
Y0033781D01*
X0028657Y0033869D02*
X0028613Y0033781D01*
X0028350D01*
X0028307Y0033869D01*
Y0034219D01*
X0028350Y0034306D01*
X0028613D01*
X0028657Y0034219D01*
X0027799Y0033781D02*
X0027756Y0033869D01*
Y0034219D01*
X0027799Y0034306D01*
X0028061D01*
X0028106Y0034219D01*
Y0033869D01*
X0028061Y0033781D01*
X0027799D01*
X0027554D02*
X0027248D01*
Y0034306D01*
X0027047Y0033869D02*
X0027003Y0033781D01*
X0026741D01*
X0026697Y0033869D01*
Y0034219D01*
X0026741Y0034306D01*
X0027003D01*
X0027047Y0034219D01*
X0064249Y0016964D02*
X0064271Y0016920D01*
X0064402D01*
X0064424Y0016964D01*
Y0017052D01*
X0064380Y0017095D01*
X0064249D01*
Y0017183D01*
X0064424D01*
X0064070D02*
Y0016920D01*
X0064026Y0016964D01*
X0063939Y0017139D01*
X0063895Y0017183D01*
Y0016920D01*
X0063716D02*
X0063628D01*
X0063672D02*
Y0017183D01*
X0063716D02*
X0063628D01*
X0023622Y0035039D02*
Y0035827D01*
X0023228Y0035433D02*
X0024016D01*
X-0023622Y-0035807D02*
Y-0035020D01*
X-0024016Y-0035413D02*
X-0023228D01*
X0023622Y-0035807D02*
Y-0035020D01*
X0023228Y-0035413D02*
X0024016D01*
G54D87*
G01X-0023622Y0029134D02*
X-0022343D01*
X-0019390Y0032087D01*
X-0017815D01*
Y0031496D01*
X-0008031D01*
Y0035433D01*
X0008031D01*
Y0031457D01*
X0017953D01*
Y0032047D01*
X0019528D01*
X0022441Y0029134D01*
X0023622D01*
Y-0029134D01*
X0022244D01*
X0017244Y-0034134D01*
Y-0035433D01*
X-0017323D01*
Y-0034252D01*
X-0022441Y-0029134D01*
X-0023622D01*
Y0029134D01*
G54D156*
G01X0002638Y-0023937D02*
X0001457D01*
X0002638Y-0023957D02*
X0001457D01*
X0002638Y-0023976D02*
X0001457D01*
X0002638Y-0023996D02*
X0001457D01*
X0002638Y-0024016D02*
X0001457D01*
X0002638Y-0024035D02*
X0001457D01*
X0002638Y-0024055D02*
X0001457D01*
X0002638Y-0024075D02*
X0001457D01*
X0002638Y-0024094D02*
X0001457D01*
X0002638Y-0024114D02*
X0001457D01*
X0002638Y-0024134D02*
X0001457D01*
X0002638Y-0024154D02*
X0001457D01*
X0002638Y-0024173D02*
X0001457D01*
X0002638Y-0024193D02*
X0001457D01*
X0002638Y-0024213D02*
X0001457D01*
X0002638Y-0024232D02*
X0001457D01*
X0002638Y-0024252D02*
X0001457D01*
X0002638Y-0024272D02*
X0001457D01*
X0002638Y-0024291D02*
X0001457D01*
X0002638Y-0024311D02*
X0001457D01*
X0002638Y-0024331D02*
X0001457D01*
X0002638Y-0024350D02*
X0001457D01*
X0002638Y-0024370D02*
X0001457D01*
X0002638Y-0024390D02*
X0001457D01*
X0002638Y-0024409D02*
X0001457D01*
X0002638Y-0024429D02*
X0001457D01*
X0002638Y-0024449D02*
X0001457D01*
X0002638Y-0024469D02*
X0001457D01*
X0002638Y-0024488D02*
X0001457D01*
X0002638Y-0024508D02*
X0001457D01*
X0002638Y-0024528D02*
X0001457D01*
X0002638Y-0024547D02*
X0001457D01*
X0002638Y-0024567D02*
X0001457D01*
X0002638Y-0024587D02*
X0001457D01*
X0002638Y-0024606D02*
X0001457D01*
X0002638Y-0024626D02*
X0001457D01*
X0002638Y-0024646D02*
X0001457D01*
X0002638Y-0024665D02*
X0001457D01*
X0002638Y-0024685D02*
X0001457D01*
X0002638Y-0024705D02*
X0001457D01*
X0002638Y-0024724D02*
X0001457D01*
X0002638Y-0024744D02*
X0001457D01*
X0002638Y-0024764D02*
X0001457D01*
X0002638Y-0024783D02*
X0001457D01*
X0002638Y-0024803D02*
X0001457D01*
X0002638Y-0024823D02*
X0001457D01*
X0002638Y-0024843D02*
X0001457D01*
X0002638Y-0024862D02*
X0001457D01*
X0002638Y-0024882D02*
X0001457D01*
X0002638Y-0024902D02*
X0001457D01*
X0002638Y-0024921D02*
X0001457D01*
X0002638Y-0024941D02*
X0001457D01*
X0002638Y-0024961D02*
X0001457D01*
X0002638Y-0024980D02*
X0001457D01*
X0002638Y-0025000D02*
X0001457D01*
X0002638Y-0025020D02*
X0001457D01*
X0002638Y-0025039D02*
X0001457D01*
X0002638Y-0025059D02*
X0001457D01*
X0002638Y-0025079D02*
X0001457D01*
X0002638Y-0025098D02*
X0001457D01*
X0002638Y-0025118D02*
X0001457D01*
X0002638Y-0025138D02*
X0001457D01*
X0002638Y-0025157D02*
X0001457D01*
G54D30*
X-0007441Y-0003681D03*
Y0014980D03*
X0019488Y0020098D03*
X-0015709Y-0002421D03*
Y0013720D03*
X0008071Y-0012579D03*
X-0008071D03*
X0003346Y0020728D03*
X0018858D03*
X0008386Y-0007539D03*
Y0018839D03*
X0019173Y-0014469D03*
Y0003563D03*
X0003031Y-0011634D03*
X0019173D03*
X-0015394Y-0014469D03*
Y0003563D03*
X-0007756Y0012146D03*
X0007756D03*
X0002717Y-0007539D03*
Y0018839D03*
X-0009016Y0024823D03*
X0009016D03*
X-0019173Y0001988D03*
X-0003031D03*
X0014449Y-0010059D03*
X-0014449D03*
X-0020118Y-0001476D03*
X-0002087D03*
X-0007126Y-0002421D03*
Y0013720D03*
X-0008071Y0010256D03*
X0008071D03*
X0019488Y-0014783D03*
Y0003878D03*
X0003976Y-0014783D03*
Y0003878D03*
X-0006181Y-0002421D03*
Y0013720D03*
X0003031Y0000728D03*
X0019173D03*
X-0020118Y-0001791D03*
X-0002087D03*
X-0013189Y-0012579D03*
X0013189D03*
X-0006811Y-0013209D03*
Y0002303D03*
X-0018228Y0008681D03*
Y0024823D03*
X0014134Y0000413D03*
X-0014134D03*
X-0010925Y-0017874D03*
X-0012628Y0018839D03*
X-0014764Y0020728D03*
X0008386Y-0014783D03*
Y0003878D03*
X-0016339Y-0002106D03*
Y0013406D03*
X-0014764Y-0008484D03*
Y0019783D03*
X0003031Y-0003366D03*
Y0014665D03*
X-0018858Y-0010374D03*
X-0003346D03*
X0017283Y-0008484D03*
Y0019783D03*
X-0012874Y-0009429D03*
X0012874D03*
X0001772Y-0009114D03*
X0020433D03*
X0009016Y0008051D03*
X-0009016D03*
X0018858Y0019469D03*
X0018543Y0018839D03*
Y-0007539D03*
X-0020433Y0009941D03*
X-0001772D03*
X-0019173Y-0008169D03*
X-0003346Y-0002421D03*
Y0013720D03*
X0002717Y0024193D03*
X-0013189Y-0002736D03*
X0013189D03*
X-0002402Y-0007224D03*
Y0018524D03*
X-0014134Y-0001791D03*
X0014134D03*
X-0020433Y0014035D03*
X-0001772D03*
X0002717Y-0007224D03*
Y0018524D03*
X0008071Y0018839D03*
Y-0007539D03*
X0003031Y-0010059D03*
X0019173D03*
X-0008071Y0021673D03*
X0008071D03*
X0003031Y-0000531D03*
X0019173D03*
X0007441Y0018839D03*
Y-0007539D03*
X-0020433Y0020728D03*
X-0001772D03*
X0012874Y-0013524D03*
X-0012874D03*
X-0009331Y-0001791D03*
X0009331D03*
X0015709Y-0013524D03*
Y0002618D03*
X-0009331Y-0013524D03*
X0009331D03*
X-0020433Y0013091D03*
X-0001772D03*
X0004921Y0008996D03*
Y0024508D03*
X-0009331Y0009941D03*
X0009331D03*
X0003346Y-0011949D03*
X0018858D03*
X-0020433Y-0001161D03*
X-0001772D03*
X-0003976Y-0007539D03*
Y0018839D03*
X-0020433Y-0008484D03*
X-0001772D03*
X-0008071Y0001673D03*
X0008071D03*
X-0020118Y-0008169D03*
X-0002087D03*
X-0006496Y-0013209D03*
Y0002303D03*
X-0020118Y0012776D03*
X-0002087D03*
X-0008071Y-0007539D03*
Y0018839D03*
X-0018543Y-0009744D03*
X0003661Y0002303D03*
X-0017913Y-0014469D03*
Y0003563D03*
X-0014134Y0001043D03*
X0014134D03*
X-0006496Y-0002106D03*
Y0013406D03*
X-0017913Y-0002106D03*
Y0013406D03*
X-0020118Y0013720D03*
X-0002087D03*
X0007441Y-0007224D03*
Y0018524D03*
X-0003976Y-0014469D03*
Y0003563D03*
X-0007756Y0001043D03*
X0007756D03*
X-0003031Y-0007539D03*
Y0018839D03*
X-0015984Y0015945D03*
X0004291Y-0007539D03*
Y0018839D03*
X-0003031Y-0001791D03*
X-0019173D03*
Y-0000846D03*
X-0003031D03*
X0008071Y-0014469D03*
Y0003563D03*
X0003661Y0018839D03*
Y-0007539D03*
X0015079D03*
Y0018839D03*
X0017598Y0008996D03*
Y0024508D03*
X0014449Y0012461D03*
X-0014449D03*
X-0018858Y-0009744D03*
X-0003346D03*
X0007126Y-0007539D03*
Y0018839D03*
X-0003976Y-0002106D03*
Y0013406D03*
X0017224Y-0018307D03*
X0019370Y-0021201D03*
X-0008071Y-0011949D03*
X0008071D03*
X-0009016Y0009626D03*
X0009016D03*
X0001772Y-0001476D03*
X0020433D03*
X0012874Y-0002421D03*
X-0012874D03*
X-0011118Y0017189D03*
X-0007756Y-0009744D03*
X0007756D03*
X-0008071Y-0009429D03*
X0008071D03*
X0001772Y-0002421D03*
X0020433D03*
X0018583Y-0018366D03*
X0019764Y-0019114D03*
X-0018543Y-0002421D03*
Y0013720D03*
X0001772Y-0013839D03*
X0020433D03*
X0019488Y-0007539D03*
Y0018839D03*
X0017913Y-0003366D03*
Y0014665D03*
X0014449Y-0009429D03*
X-0014449D03*
X0002087Y0009311D03*
X0020118D03*
X-0018858Y-0007854D03*
X-0014134Y-0010059D03*
X0014134D03*
X-0014449Y-0013524D03*
Y0002618D03*
X0016969Y-0001791D03*
X0017913Y-0012894D03*
X-0018858Y0001358D03*
X-0003346D03*
X-0013819Y-0014469D03*
Y0003563D03*
X-0017913Y0007736D03*
Y0025768D03*
X-0014134Y0018839D03*
Y-0007539D03*
X0003031Y0021673D03*
X0019173D03*
X0008071Y0012146D03*
X-0008071D03*
X0001772Y-0012894D03*
X0020433D03*
X-0007126Y-0014783D03*
Y0003878D03*
X-0009331Y-0009744D03*
X0009331D03*
X0004921Y0002303D03*
Y-0013209D03*
X0005236D03*
Y0002303D03*
X0004606Y-0013524D03*
Y0002618D03*
X0015709Y0019783D03*
Y-0008484D03*
X-0008071Y0010886D03*
X0008071D03*
X-0009016Y0008681D03*
X0009016D03*
X-0018228Y-0002106D03*
Y0013406D03*
X-0004921Y-0008799D03*
Y0020098D03*
X-0020433Y-0013839D03*
X-0001772D03*
X0003031Y-0010689D03*
X0019173D03*
X0014449Y-0010374D03*
X-0014449D03*
X0015079Y-0013524D03*
Y0002618D03*
X-0003031Y-0003366D03*
Y0014665D03*
X0014134Y0018524D03*
Y-0007224D03*
X0013189Y0003248D03*
X-0013189D03*
X0018228Y-0007539D03*
Y0018839D03*
X-0014134Y-0012894D03*
X0014134D03*
X-0014449Y-0008484D03*
Y0019783D03*
X0003346Y-0011634D03*
X0018858D03*
X0008386Y-0007224D03*
Y0018524D03*
X0008071Y0009626D03*
X-0008071D03*
X0012874Y-0013839D03*
X-0012874D03*
X0003031Y0009311D03*
X0019173D03*
X-0014764Y-0013524D03*
Y0002618D03*
X-0020118Y0009311D03*
X-0002087D03*
X-0008071Y0000728D03*
X0008071D03*
X0012874Y-0012264D03*
X-0012874D03*
X-0004606Y-0002421D03*
Y0013720D03*
X0002087Y-0008169D03*
X0020118D03*
X0015709Y-0002106D03*
Y0013406D03*
X0008701Y-0014783D03*
Y0003878D03*
X0007126Y-0013209D03*
Y0002303D03*
X-0008071Y-0001476D03*
X0008071D03*
X0007756Y0019783D03*
Y-0008484D03*
X-0019173Y-0010689D03*
X-0003031D03*
X0016339Y-0008799D03*
Y0020098D03*
X0014449Y-0008484D03*
Y0019783D03*
X-0006811Y-0002106D03*
Y0013406D03*
X-0018858Y0012461D03*
X-0003346D03*
X0016024Y0020098D03*
Y-0008799D03*
X0018858Y-0013524D03*
Y0002618D03*
X0004921Y0024823D03*
Y0008681D03*
X-0008386Y-0007224D03*
Y0018524D03*
X-0014764Y-0014783D03*
Y0003878D03*
X0003976Y-0013524D03*
Y0002618D03*
X0005866Y-0013209D03*
Y0002303D03*
X0018228Y-0014783D03*
Y0003878D03*
X0001772Y-0012264D03*
X0020433D03*
X-0019173Y-0011949D03*
X-0003031D03*
X-0015079Y0020098D03*
Y-0008799D03*
X-0006496Y-0002421D03*
Y0013720D03*
X-0014134Y0000728D03*
X0014134D03*
X-0003661Y-0007224D03*
Y0018524D03*
X-0009016Y-0007854D03*
X0009016D03*
X0006496Y-0002421D03*
Y0013720D03*
X-0018858Y-0001791D03*
X-0003346D03*
X0014764Y-0007539D03*
Y0018839D03*
X0002087Y-0007854D03*
X0020118D03*
X-0019803Y-0007224D03*
Y0018524D03*
X0008701Y-0007224D03*
Y0018524D03*
X-0019173Y0009311D03*
X-0003031D03*
X-0019173Y-0007539D03*
Y0018839D03*
X0002087Y0002933D03*
X0020118D03*
X-0007756Y-0008484D03*
Y0019783D03*
X-0002402Y-0003681D03*
Y0014980D03*
X0004291Y-0013209D03*
Y0002303D03*
X-0007756Y-0000531D03*
X0007756D03*
X-0004291Y-0007539D03*
Y0018839D03*
X0004606Y-0008799D03*
Y0020098D03*
X-0019488Y-0014469D03*
Y0003563D03*
X-0018228Y-0003681D03*
Y0014980D03*
X-0006811Y-0003366D03*
Y0014665D03*
X0013189Y0008051D03*
X-0013189D03*
X0019803Y-0007224D03*
Y0018524D03*
X0019173Y-0007224D03*
Y0018524D03*
X-0009016Y0013091D03*
X0009016D03*
X-0020118D03*
X-0002087D03*
X-0007756Y0012461D03*
X0007756D03*
X-0009331Y-0009114D03*
X0009331D03*
X0012874Y-0002736D03*
X-0012874D03*
X0002087D03*
X0020118D03*
X0014134Y0001988D03*
X-0014134D03*
X0017598Y-0013524D03*
Y0002618D03*
X-0009016Y-0009114D03*
X0009016D03*
X0014449Y0001673D03*
X-0014449D03*
X-0006496Y0019783D03*
Y-0008484D03*
X-0016339Y-0013209D03*
Y0002303D03*
X-0004606Y-0008799D03*
Y0020098D03*
X0014449Y0000728D03*
X-0014449D03*
X0013819Y-0007539D03*
Y0018839D03*
X-0007441Y-0014783D03*
Y0003878D03*
X-0020433Y0001673D03*
X-0001772D03*
X-0020433Y0001358D03*
X-0001772D03*
X0014764Y-0008484D03*
Y0019783D03*
X0012874Y-0012894D03*
X-0012874D03*
X-0007756Y0013091D03*
X0007756D03*
X-0005236Y-0002106D03*
Y0013406D03*
X0003031Y-0009429D03*
X0019173D03*
X-0009016Y-0013839D03*
X0009016D03*
X-0013819Y-0003681D03*
Y0014980D03*
X0006181Y-0008799D03*
Y0020098D03*
X0012874Y-0008169D03*
X-0012874D03*
X0004882Y-0006260D03*
X-0016969Y0020098D03*
Y-0008799D03*
X-0020118Y-0008484D03*
X-0002087D03*
X0019488Y0018524D03*
Y-0007224D03*
X-0018228Y0007736D03*
Y0025768D03*
X0015394Y0007736D03*
Y0025768D03*
X-0003661Y-0003366D03*
Y0014665D03*
X-0007441Y-0008484D03*
Y0019783D03*
X0002402Y0023878D03*
X0003976Y-0007539D03*
Y0018839D03*
X-0020433Y0012461D03*
X-0001772D03*
X-0007126Y-0003366D03*
Y0014665D03*
X-0007756Y-0010059D03*
X0007756D03*
X-0016024Y0020098D03*
Y-0008799D03*
X0003031Y-0003681D03*
Y0014980D03*
G54D33*
X0018228Y0025453D03*
X0017913Y0025138D03*
X-0017283Y0003248D03*
X-0016654Y0001673D03*
X-0014449Y0003878D03*
Y0003563D03*
X-0014764Y0003248D03*
X-0013504Y0001988D03*
X-0015709Y0000098D03*
X-0015079D03*
X0002717Y0025138D03*
X0002087Y0026083D03*
X0002402Y0025453D03*
X0002087Y0025768D03*
X0001772D03*
Y0026083D03*
X0000551Y0030197D03*
X-0000236D03*
X-0002087Y0007421D03*
X0009016D03*
X0009331D03*
X0008701Y0008051D03*
X0008386Y0008366D03*
X-0018543Y0001988D03*
X-0019488Y0002933D03*
X-0019803Y0003248D03*
X0008071Y0008681D03*
X0007441Y0009311D03*
X0009331Y0010256D03*
X0009016D03*
X0000000Y0024902D03*
X-0001772Y0024508D03*
X0006496Y0000098D03*
X0007126D03*
X-0002087Y0024508D03*
X-0003661Y0020413D03*
X-0002087Y0018524D03*
X-0001772D03*
X-0002402Y0019154D03*
X-0002717Y0019469D03*
X-0002402Y0024193D03*
X0021043Y0013800D03*
Y-0002500D03*
X0020118Y-0000846D03*
X0020433D03*
X-0004606Y0022303D03*
X-0003976D03*
X-0002717Y0023878D03*
X-0003031Y0023563D03*
Y0019783D03*
X-0003346Y0020098D03*
X-0001772Y0021358D03*
X-0002087D03*
X0009331Y-0011949D03*
X0009016D03*
X0006496Y-0014783D03*
X0005551Y-0012894D03*
X0004291Y-0013524D03*
X-0011102Y-0008406D03*
X0018543Y-0001791D03*
X0013189Y-0002106D03*
X0013504Y-0001791D03*
X0015079Y0000098D03*
X0012874Y0001043D03*
X0013189D03*
X0013504Y0000728D03*
X0018858Y0003878D03*
Y0003563D03*
X0018543Y0003248D03*
X0015709Y0003878D03*
X0016654Y0001673D03*
X0020433Y-0003366D03*
Y-0003681D03*
X0020118D03*
Y-0003366D03*
X0019803Y-0003051D03*
X0019488Y-0002736D03*
X0019173Y-0002421D03*
X0014134Y0002618D03*
X0013819Y0002933D03*
X0012874Y0003878D03*
X0013189D03*
X0013504Y0003248D03*
X0012874Y0003563D03*
X0013189D03*
X0007756Y0008996D03*
X0006496Y0007421D03*
X0008386Y0012776D03*
X0008071Y0012461D03*
X0006496Y0011201D03*
X0007126D03*
X0009016Y-0014783D03*
X0009331D03*
X0008701Y-0014154D03*
X0008386Y-0013839D03*
X0008071Y-0013524D03*
X0006496Y-0014469D03*
X0006181Y-0014154D03*
X0007756Y-0013209D03*
X0007441Y-0012894D03*
X0008071Y0001358D03*
X0007756Y0003878D03*
Y0003563D03*
X0006811Y0002618D03*
X0005551Y0001673D03*
X0004921Y0003248D03*
X-0003346Y0026083D03*
X-0019488Y0014035D03*
X-0020433Y0014980D03*
X-0019803Y0014350D03*
X-0020118Y0014980D03*
Y0014665D03*
X-0019803Y0011831D03*
X-0020118Y0012146D03*
X-0020433D03*
Y0014665D03*
X-0021043Y0013799D03*
X-0018543Y0013091D03*
X-0017283Y0014350D03*
X-0016654Y0012776D03*
X-0015079Y0014035D03*
X-0015394Y0013720D03*
X-0015709Y0011201D03*
X-0015079D03*
X-0003346Y0025768D03*
X-0003661Y0025453D03*
X-0003976Y0025138D03*
X-0004291Y0024823D03*
X-0005551Y0023878D03*
X-0004606Y0018524D03*
Y0018839D03*
X-0004921Y0019154D03*
X-0007756Y0018524D03*
Y0018839D03*
X-0005551Y0020413D03*
X-0001772Y0007421D03*
X-0002402Y0008051D03*
X-0002717Y0008366D03*
X-0004606Y0007421D03*
X-0012874Y-0011949D03*
X-0007756Y0007421D03*
Y0007736D03*
X-0005551Y0009311D03*
X-0007441Y0008051D03*
X-0009016Y0008996D03*
X0007441Y0014350D03*
X0007126Y0014035D03*
X0002087Y0008996D03*
X0002402Y0009311D03*
X0003976Y0011201D03*
X0002402Y0011831D03*
X0001772Y0012146D03*
X0002087D03*
X0003346Y0007421D03*
Y0007736D03*
X0003661Y0008051D03*
X0006496Y0007736D03*
X0006181Y0008051D03*
X0005551Y0009311D03*
X-0020118Y0003878D03*
Y0003563D03*
X-0018228Y0000098D03*
X-0019803Y0000728D03*
X-0019173Y-0001161D03*
X-0020118Y-0002106D03*
X-0020433D03*
X-0021043Y-0002500D03*
X-0020433Y0003563D03*
X-0021043Y0002697D03*
X-0020118Y0001043D03*
X-0020433D03*
X0022008Y-0010039D03*
X0021043Y-0008405D03*
X-0004606Y-0011004D03*
X0019803Y-0009114D03*
X0017598Y-0011004D03*
X0018228D03*
X0019488Y-0009429D03*
X0019173Y-0009744D03*
X0020433Y-0008799D03*
X0014449Y0018524D03*
Y0018839D03*
X0013189Y0020098D03*
X0013504Y0020413D03*
X0014764Y0019154D03*
X0016654Y0020413D03*
X0014134Y0021043D03*
X0013819Y0020728D03*
X0015394Y0019783D03*
X0015079Y0019469D03*
X0017283Y0019154D03*
X0020118Y0021358D03*
X0020433D03*
X0019803Y0013091D03*
X0017598Y0011201D03*
X0018228D03*
X0019488Y0012776D03*
X0019173Y0012461D03*
X0020433Y0013406D03*
X0020118D03*
X0018858Y0014980D03*
Y0014665D03*
X0018543Y0014350D03*
X0018228Y0014035D03*
X0017913Y0013720D03*
X0016654Y0012776D03*
X0015709Y0014980D03*
X-0014134Y0012461D03*
X-0013819Y0012776D03*
X-0013504Y0013091D03*
X-0014764Y0014350D03*
X-0019173Y0013720D03*
X-0018858Y0013406D03*
X-0017598Y0014980D03*
Y0014665D03*
X-0013189Y0013406D03*
X-0012874D03*
X-0011102Y0013799D03*
X0000000D03*
X-0006496Y0014980D03*
X-0005551Y0012776D03*
X-0004291Y0013720D03*
X-0003976Y0014035D03*
X-0002402Y0013091D03*
X-0003661Y0014350D03*
X-0001772Y0013406D03*
X-0002087D03*
X-0003346Y0014980D03*
Y0014665D03*
X-0002717Y0012776D03*
X0015079Y0022303D03*
X0012874Y0023248D03*
X0019173Y-0017480D03*
X0019921D03*
X-0003346Y-0007224D03*
Y-0007539D03*
X-0003661Y-0007854D03*
X-0005551Y-0009429D03*
X-0006181Y-0007854D03*
X-0006496Y-0007224D03*
Y-0007539D03*
X0020157Y-0016555D03*
X-0018858Y0007421D03*
Y0007736D03*
X-0018543Y0008051D03*
X0002087Y0003878D03*
X0001772D03*
X0002087Y0003563D03*
X0002402Y0003248D03*
X0002717Y0002933D03*
X0004606Y0003878D03*
Y0003563D03*
X0003031Y0002618D03*
X0020118Y-0008799D03*
X0018858Y-0007224D03*
Y-0007539D03*
X0018543Y-0007854D03*
X0018228Y-0008169D03*
X0017913Y-0008484D03*
X0016654Y-0009429D03*
X0016024Y-0007854D03*
X0015709Y-0007224D03*
Y-0007539D03*
X-0013189Y-0011949D03*
X-0018858Y-0014783D03*
Y-0014469D03*
X-0018543Y-0014154D03*
X-0016654Y-0012894D03*
X-0016024Y-0014154D03*
X0016654Y-0012894D03*
X0017283Y-0014154D03*
X-0012874Y-0008799D03*
X-0013189D03*
X-0013504Y-0009114D03*
X-0015709Y-0011004D03*
X-0015079D03*
X-0014134Y-0009744D03*
X-0013819Y-0009429D03*
X-0014764Y-0007854D03*
X-0015079Y-0008169D03*
X0018543Y-0012894D03*
X0014764Y-0014154D03*
X0014449Y-0014469D03*
Y-0014783D03*
X0008504Y-0018799D03*
X0009272Y-0018228D03*
X0018858Y-0013209D03*
X0017598Y-0014783D03*
Y-0014469D03*
X0010039Y-0017480D03*
X0012736Y-0017913D03*
X0012362Y-0016457D03*
X0014488Y-0017539D03*
X0012736Y-0020669D03*
X0014705Y-0022598D03*
X0015079Y-0021240D03*
X0018248Y-0019862D03*
X0020315Y-0020059D03*
X0013150Y-0016220D03*
X0016437Y-0020079D03*
Y-0018701D03*
X-0014764Y-0012894D03*
X-0005551D03*
X-0006811Y-0013524D03*
X-0015394Y-0008484D03*
X-0016654Y-0009429D03*
X-0017598Y-0007224D03*
Y-0007539D03*
X-0017283Y-0007854D03*
X-0018543Y-0009114D03*
X-0018858Y-0008799D03*
X0021043Y0002697D03*
X0020433Y0002303D03*
X0020118D03*
X0019803Y0001988D03*
X-0013819Y-0013839D03*
X0003346Y0018524D03*
Y0018839D03*
X0003661Y0019154D03*
X0005551Y0020413D03*
X0006496Y0018524D03*
Y0018839D03*
X0002087Y0020098D03*
X0002402Y0020413D03*
X0003976Y0022303D03*
X0001772Y0023248D03*
X0003031Y0024823D03*
X0002087Y0023248D03*
X0002402Y0022933D03*
X0011102Y0024902D03*
X0003661Y0024193D03*
X0003346Y0024508D03*
X0018858Y-0002106D03*
X0017598Y-0003681D03*
Y-0003366D03*
X0017283Y-0003051D03*
X0014449Y-0003681D03*
Y-0003366D03*
X0014764Y-0003051D03*
X0016654Y-0001791D03*
X0013819Y-0001476D03*
X0014134Y-0001161D03*
X0015079Y-0002736D03*
X0015394Y-0002421D03*
X0003976Y-0013839D03*
X0003346Y-0014783D03*
Y-0014469D03*
X0003661Y-0014154D03*
X-0013504D03*
X0009016Y-0008799D03*
X0006496Y-0011004D03*
X0007126D03*
X0008071Y-0009744D03*
X0008386Y-0009429D03*
X0008701Y-0009114D03*
X0007756Y-0007224D03*
Y-0007539D03*
X0007441Y-0007854D03*
X0007126Y-0008169D03*
X0006811Y-0008484D03*
X0005551Y-0009429D03*
X0004921Y-0007854D03*
X0004606Y-0007224D03*
Y-0007539D03*
Y0026083D03*
X-0007126Y-0013839D03*
X0007756Y0026083D03*
Y0025768D03*
X0007441Y0025453D03*
X0002717Y-0008169D03*
X0002402Y-0007854D03*
X0002087Y-0007224D03*
Y-0007539D03*
X0001772D03*
Y-0007224D03*
X0003031Y-0008484D03*
X0003346Y-0008799D03*
X0003661Y-0009114D03*
X0001772Y-0010059D03*
X0002087Y-0013209D03*
X0002717Y-0012579D03*
X0002402Y-0012894D03*
X0002087Y-0010059D03*
X0002402Y-0010374D03*
X0003031Y-0012264D03*
X0003976Y-0011004D03*
X0013819Y0014035D03*
X0013504Y0014350D03*
X0012874Y0014980D03*
X0013189D03*
Y0014665D03*
X0012874D03*
X0015709D03*
X0016024Y0014350D03*
X0014134Y0013720D03*
X0015079Y0011201D03*
X0013504Y0011831D03*
X-0015709Y-0014783D03*
Y-0014469D03*
X-0014134Y-0013524D03*
X-0014449Y-0013209D03*
X-0018228Y-0013839D03*
X-0017913Y-0013524D03*
X-0013819Y0001673D03*
X-0014134Y0001358D03*
X-0015079Y0002933D03*
X-0015394Y0002618D03*
X-0019173D03*
X-0018858Y0002303D03*
X-0017598Y0003878D03*
Y0003563D03*
X-0013189Y0002303D03*
X-0012874D03*
X-0011102Y0002697D03*
X-0007441Y-0014154D03*
X0019173Y-0013524D03*
X0019488Y-0013839D03*
X0020433Y-0014783D03*
X0017224Y0029902D03*
Y0030925D03*
X0014865Y0030912D03*
X0013504Y0031220D03*
X0012589Y0030079D03*
X-0007126Y0000098D03*
X-0009331Y0001043D03*
X-0007441Y0019154D03*
X-0009016Y0020098D03*
X-0004606Y-0014783D03*
Y-0014469D03*
X-0008071Y0021043D03*
X-0007126Y0022303D03*
X-0006811Y0019783D03*
X-0007126Y0019469D03*
X-0008701Y0020413D03*
X-0008386Y0020728D03*
X-0008701Y0022933D03*
X-0009016Y0026083D03*
X-0008386Y0025138D03*
X-0009016Y0025768D03*
X-0008701Y0025453D03*
X-0008071Y0024823D03*
X-0013189Y-0014783D03*
X0013819Y0009626D03*
X0013189Y0008996D03*
X0013504Y0009311D03*
X0014134Y0009941D03*
X0014449Y0007421D03*
Y0007736D03*
X0014764Y0008051D03*
X-0021594Y-0016122D03*
X-0021417Y-0013229D03*
X-0020433Y-0013209D03*
X-0020118D03*
X-0019803Y-0012894D03*
X-0019488Y-0012579D03*
X-0019173Y-0008484D03*
X-0019488Y-0008169D03*
X-0019803Y-0007854D03*
X-0020118Y-0007539D03*
Y-0007224D03*
X-0020433D03*
Y-0007539D03*
X-0021043Y-0008405D03*
X-0019803Y-0010374D03*
X-0019173Y-0012264D03*
X-0018228Y-0011004D03*
X-0004921Y-0014154D03*
X-0020118Y-0010059D03*
X-0020433D03*
X-0022067D03*
X-0008701Y-0012894D03*
X-0008386Y-0012579D03*
X-0008071Y-0012264D03*
X-0007126Y-0011004D03*
X-0009331Y-0010059D03*
X-0009016Y-0007224D03*
X-0009331D03*
Y-0007539D03*
X-0009016D03*
X-0008701Y-0007854D03*
X-0008386Y-0008169D03*
X-0008071Y-0008484D03*
X-0009016Y-0010059D03*
X-0008701Y-0010374D03*
X-0007756Y-0008799D03*
X-0007441Y-0009114D03*
X-0007756Y-0014783D03*
Y-0014469D03*
X-0009016Y-0013209D03*
X-0003661Y-0012894D03*
X-0002717Y-0013839D03*
X-0002087Y-0014783D03*
X-0002402Y-0014154D03*
X-0001772Y-0014783D03*
X0019803Y-0014154D03*
X0020118Y-0014783D03*
Y-0014469D03*
X0020433D03*
X0021043Y-0013603D03*
X0020118Y-0011949D03*
X0020433D03*
X-0006181Y0025453D03*
X-0006496Y0026083D03*
Y0025768D03*
X-0009331Y0023248D03*
X-0009016D03*
X-0007441Y0024193D03*
X-0007756Y0024508D03*
X-0008071Y0009941D03*
X-0007126Y0011201D03*
X-0009331Y0012146D03*
X-0006811Y0008681D03*
X-0007126Y0008366D03*
X-0008701Y0009311D03*
X-0008386Y0009626D03*
X-0008071Y0013720D03*
X-0008386Y0014035D03*
X-0008701Y0014350D03*
X-0009016Y0014980D03*
Y0014665D03*
X-0009331D03*
Y0014980D03*
X-0009016Y0012146D03*
X-0008701Y0011831D03*
X-0003031Y-0013524D03*
X-0003346Y-0013209D03*
X-0001772Y-0011949D03*
X-0002087D03*
X-0003976Y-0011004D03*
X-0002402Y-0009114D03*
X-0003976Y-0008169D03*
X-0004291Y-0008484D03*
X-0002717Y-0009429D03*
X-0003031Y-0009744D03*
X-0002087Y-0008799D03*
X-0001772D03*
X0000000Y-0008405D03*
X-0011102Y0024902D03*
X-0013189Y-0014469D03*
X-0013504Y0024193D03*
X-0013819Y0023878D03*
X-0017283Y0025453D03*
X-0016654Y0023878D03*
X-0015394Y0024823D03*
X-0015079Y0025138D03*
X-0014764Y0025453D03*
X-0012874Y0024508D03*
X-0013189D03*
X-0014449Y0026083D03*
Y0025768D03*
X-0018858Y0018524D03*
Y0018839D03*
X-0018543Y0019154D03*
X-0016654Y0020413D03*
X-0018543Y0024193D03*
X-0019488Y0025138D03*
X-0020118Y0026083D03*
X-0019803Y0025453D03*
X-0020433Y0026083D03*
X-0020118Y0025768D03*
X-0014134Y0023563D03*
X-0015709Y0022303D03*
X-0015079D03*
X-0019173Y0024823D03*
X-0018858Y0024508D03*
X-0017598Y0026083D03*
Y0025768D03*
X-0009016Y0003878D03*
X-0009331D03*
Y0003563D03*
X-0009016D03*
X-0008701Y0003248D03*
X-0008386Y0002933D03*
X-0008071Y0002618D03*
X-0009016Y0001043D03*
X-0003031Y0008681D03*
X-0001772Y0010256D03*
X-0002087D03*
X-0003346Y0008996D03*
X-0003661Y0009311D03*
X-0004606Y0007736D03*
X-0004921Y0008051D03*
X-0006496Y0014665D03*
X-0006181Y0014350D03*
X-0007756Y0013406D03*
X-0007441Y0013091D03*
X0014764Y-0009114D03*
X0013819Y-0008169D03*
X0013504Y-0007854D03*
X0013189Y-0007539D03*
Y-0007224D03*
X0012874D03*
Y-0010059D03*
X0014134Y-0008484D03*
X0014449Y-0008799D03*
X0014134Y-0012264D03*
X0015079Y-0011004D03*
X0013189Y-0010059D03*
X0013504Y-0010374D03*
X-0006496Y0003878D03*
X-0003661Y0003248D03*
X-0004291Y0002618D03*
X-0005551Y0001673D03*
X-0003976Y0002933D03*
X-0003031Y0001358D03*
X-0004606Y0000098D03*
X-0003976D03*
X0006181Y0019154D03*
X0008386Y0019469D03*
X0009331Y0021358D03*
X0009016D03*
X0008701Y0019154D03*
X0009016Y0018839D03*
X0007441Y0020413D03*
X0008071Y0019783D03*
X0007756Y0020098D03*
X0009016Y0018524D03*
X-0001772Y-0000846D03*
X-0002087D03*
X0021043Y0019704D03*
X0018543Y0020413D03*
X0019488Y0019469D03*
X0019803Y0019154D03*
X0020433Y0018839D03*
X0015709Y0026083D03*
X0016654Y0023878D03*
X0018543Y0025453D03*
X0018858Y0026083D03*
X0015709Y0025768D03*
X0016024Y0025453D03*
X0020118Y0018839D03*
X0018858Y0025768D03*
X0020118Y0024508D03*
X0020433D03*
X0021043Y0024902D03*
X0019803Y0024193D03*
X0017598Y0022303D03*
X0018228D03*
Y0025138D03*
X0017913Y0024823D03*
X0019488Y0023878D03*
X0019173Y0023563D03*
X0017598Y0018524D03*
Y0018839D03*
X0019173Y0019783D03*
X0018858Y0020098D03*
X0020118Y0018524D03*
X0020433D03*
X0009331Y-0000846D03*
X0009016D03*
X-0004931Y-0020226D03*
X-0007746D03*
X0003346Y-0003681D03*
Y-0003366D03*
X0003661Y-0003051D03*
X0013189Y0025768D03*
Y0026083D03*
X0012874Y0025768D03*
Y0026083D03*
X0014134Y0024823D03*
X0013819Y0025138D03*
X0013504Y0025453D03*
X0013189Y0023248D03*
X0013504Y0022933D03*
X0014449Y0024508D03*
X0014764Y0024193D03*
X0018543Y0009311D03*
X0021043Y0008602D03*
X0020118Y0010256D03*
X0020433D03*
Y0007736D03*
Y0007421D03*
X0020118D03*
Y0007736D03*
X0019803Y0008051D03*
X0019488Y0008366D03*
X0019173Y0008681D03*
X0018858Y0008996D03*
X0015079Y0008366D03*
X0015394Y0008681D03*
X0016654Y0009311D03*
X0017283Y0008051D03*
X0017598Y0007421D03*
Y0007736D03*
X0014764Y0013091D03*
X0014449Y0013406D03*
X0012874Y0012146D03*
X0013189D03*
X0003661Y0013091D03*
X0002717Y0014035D03*
X0002402Y0014350D03*
X0001772Y0014980D03*
X0002087D03*
Y0014665D03*
X0001772D03*
X0003976Y0008366D03*
X0004291Y0008681D03*
X0002717Y0009626D03*
X0003031Y0009941D03*
X-0020433Y0025768D03*
X-0021043Y0024902D03*
X-0020433Y0023248D03*
X-0020118D03*
X-0019803Y0022933D03*
X-0018228Y0022303D03*
X-0019803Y0020413D03*
X-0012874Y0021358D03*
X-0013189D03*
X-0003031Y0012461D03*
X-0004606Y0011201D03*
X-0003976D03*
X-0009331Y0008996D03*
X-0017913Y-0002421D03*
X-0018858Y-0003681D03*
Y-0003366D03*
X-0016654Y-0001791D03*
X-0015709Y-0003681D03*
X-0019803Y-0001791D03*
X-0019488Y-0001476D03*
X-0018543Y-0003051D03*
X-0018228Y-0002736D03*
X0006496Y-0003681D03*
X0005551Y-0001791D03*
X0003976Y-0002736D03*
X0004291Y-0002421D03*
X-0013189Y-0003681D03*
X-0013504Y-0003051D03*
X-0013819Y-0002736D03*
X-0015709Y-0003366D03*
X-0016024Y-0003051D03*
X-0014134Y-0002421D03*
X-0014764Y-0001791D03*
X-0014449Y-0002106D03*
X-0012874Y-0000846D03*
X-0013189D03*
X-0016654Y0009311D03*
X-0015709Y0007421D03*
X-0018228Y0008366D03*
X-0017913Y0008681D03*
X-0018228Y0011201D03*
X-0019173Y0009941D03*
X-0019488Y0009626D03*
X-0019803Y0009311D03*
X-0020118Y0008996D03*
X-0012874Y0010256D03*
X-0013189D03*
X0009331Y0024508D03*
X0009016D03*
X0006496Y0022303D03*
X0007126D03*
X0008701Y0024193D03*
X0007126Y0025138D03*
X0008071Y0023563D03*
X0008386Y0023878D03*
X0004606Y0025768D03*
X0004921Y0025453D03*
X0006811Y0024823D03*
X0005551Y0023878D03*
X0017598Y0000098D03*
X0018228D03*
Y0002933D03*
X0017913Y0002618D03*
X0019488Y0001673D03*
X0019173Y0001358D03*
X0014449Y0002303D03*
X0014764Y0001988D03*
X0015709Y0003563D03*
X0016024Y0003248D03*
X0006811Y0013720D03*
X0005551Y0012776D03*
X0004921Y0014350D03*
X0007756Y0014665D03*
X0008701Y0013091D03*
X0009016Y0013406D03*
X0009331D03*
X0011102Y0013799D03*
X-0009183Y-0020226D03*
X-0011998D03*
X-0001772Y-0003681D03*
X-0002087D03*
X-0002402Y-0003051D03*
X-0002717Y-0002736D03*
X-0003031Y-0002421D03*
X-0013819Y0008366D03*
X-0013504Y0008051D03*
X-0013189Y0007736D03*
Y0007421D03*
X-0012874D03*
X-0014134Y0008681D03*
X-0015709Y0007736D03*
X-0016024Y0008051D03*
X-0014449Y0008996D03*
X-0014764Y0009311D03*
X-0016024Y0019154D03*
X-0014764Y0020413D03*
X-0013819Y0019469D03*
X-0013504Y0019154D03*
X-0013189Y0018524D03*
X-0015709D03*
Y0018839D03*
X-0014134Y0019783D03*
X-0014449Y0020098D03*
X-0007441Y-0003051D03*
X-0007756Y-0003681D03*
Y-0003366D03*
X-0005551Y-0001791D03*
X-0004921Y-0003051D03*
X-0007126Y-0002736D03*
X-0006496Y0003563D03*
X-0006181Y0003248D03*
X-0007756Y0002303D03*
X-0013435Y-0020226D03*
X-0003494D03*
X-0000679D03*
X0008386Y-0002736D03*
X0008701Y-0003051D03*
X0009016Y-0003366D03*
Y-0003681D03*
X0008071Y-0002421D03*
X0006181Y-0003051D03*
X0007441Y-0001791D03*
X0002717Y-0001476D03*
X0002402Y-0001791D03*
X0002087Y-0002106D03*
X0001772Y0001043D03*
X-0019488Y0020728D03*
X-0018228Y0019469D03*
X-0020118Y0020098D03*
X-0009331D03*
X-0011102Y0019704D03*
X-0013189Y0018839D03*
X-0012874D03*
X-0020433Y0020098D03*
X-0021043Y0019704D03*
X0013642Y-0022598D03*
X0013504Y-0012894D03*
X0013819Y-0012579D03*
X0015394Y-0013524D03*
X0015079Y-0013839D03*
X-0016250Y-0020226D03*
X-0010295Y0030079D03*
X-0009094Y0029587D03*
X-0009331Y0025768D03*
Y0026083D03*
X-0009803Y0029134D03*
X-0002717Y0001673D03*
X-0004606Y-0003681D03*
Y-0003366D03*
X-0003661Y-0001791D03*
X-0003346Y-0002106D03*
X0003031Y-0001161D03*
X0003976Y0000098D03*
X0008701Y0001988D03*
X0008386Y0001673D03*
X0007441Y0003248D03*
X0007126Y0002933D03*
X0003346Y0002303D03*
X0003661Y0001988D03*
X0002087Y0001043D03*
X0002402Y0000728D03*
X0011102Y0002697D03*
X0009016Y0002303D03*
X0009331D03*
X0012874Y-0002106D03*
X0011102Y-0002500D03*
X0009331Y-0003366D03*
X-0002402Y0001988D03*
X-0003346Y0003878D03*
Y0003563D03*
X-0002087Y0002303D03*
X-0001772D03*
X-0012874Y-0014783D03*
X-0009331Y-0013209D03*
X0013189D03*
X0003031Y0013720D03*
X0003346Y0013406D03*
X0004606Y0014980D03*
Y0014665D03*
X0002717Y0020728D03*
X0003031Y0021043D03*
X0003976Y0019469D03*
X0004291Y0019783D03*
X0001772Y-0002106D03*
X0000000Y-0002500D03*
X-0002087Y-0003366D03*
X-0001772D03*
X0001772Y0020098D03*
X0000000Y0019704D03*
X-0002087Y0018839D03*
X-0001772D03*
X0001772Y-0013209D03*
X-0002087Y-0014469D03*
X0012874Y0020098D03*
X0009331Y0018524D03*
X-0016890Y-0020945D03*
X-0021870Y-0022283D03*
X0012874Y-0013209D03*
X0011102Y-0013603D03*
X0009016Y-0014469D03*
X0009331D03*
X-0014449Y0014665D03*
Y0014980D03*
X-0012874Y0018524D03*
X-0012531Y0017165D03*
X-0012874Y-0003681D03*
X-0014449Y-0007539D03*
X-0013189Y-0003366D03*
X0001772Y0008996D03*
X0000000Y0008602D03*
X-0002087Y0007736D03*
X-0001772D03*
X0012874Y0008996D03*
X0009016Y0007736D03*
X-0020433Y0003878D03*
Y0008996D03*
X0020315Y-0020256D03*
X0020059Y-0021181D03*
X-0018858Y-0014154D03*
X-0022205Y-0006722D03*
X-0019803Y-0013524D03*
X-0019488Y-0012894D03*
X-0021634Y-0006732D03*
X-0019803Y-0013839D03*
X-0022057Y-0006929D03*
X-0019488Y-0013524D03*
X-0008701Y-0001791D03*
X-0008386Y-0001476D03*
X0007441Y0022618D03*
X-0009331Y-0002106D03*
X-0009016D03*
X-0007441Y0001988D03*
X-0008701Y0000728D03*
X0009331Y-0003681D03*
X0009674Y-0005866D03*
X-0010974Y0028484D03*
X0009331Y-0008799D03*
X0007441Y-0010689D03*
Y0000413D03*
Y0011516D03*
X0018543Y0022618D03*
X-0001772Y-0014469D03*
X0000000Y-0013603D03*
X-0003661Y0022618D03*
X-0011102Y-0013603D03*
X-0012874Y-0014469D03*
X0011102Y-0008405D03*
X0012874Y-0007539D03*
X-0014764Y0022618D03*
X-0003661Y0011516D03*
X0011102Y0019704D03*
X0009331Y0018839D03*
X-0019173Y0021043D03*
X-0017913Y0019783D03*
X0018543Y0011516D03*
X0007756Y0014980D03*
X0009674Y0017165D03*
X0001772Y0023563D03*
X0020433D03*
X0006890Y-0006260D03*
X0017992D03*
Y0015945D03*
X-0004213Y0027047D03*
X0006890D03*
X-0005866Y0000728D03*
Y0000413D03*
X-0005236Y0000728D03*
X-0004921Y0000413D03*
X-0005236D03*
X-0008071Y0000098D03*
X-0009331Y-0000846D03*
X-0009016D03*
X-0008701Y-0000531D03*
X-0009331Y0002303D03*
X-0009016D03*
X-0007441Y-0000217D03*
Y0000413D03*
X-0008701Y0001988D03*
X-0008386Y0001673D03*
X-0008071Y0001358D03*
X-0005866Y0001043D03*
X-0005236Y-0000217D03*
X-0004921D03*
X-0004606D03*
X0001772Y0002303D03*
X0002087D03*
X0002402Y0001988D03*
X0002717Y0001673D03*
X-0020433Y-0014783D03*
X0013189Y0018839D03*
X0013504Y0019154D03*
X0013819Y0019469D03*
X0014134Y0019783D03*
X0012874Y0024508D03*
X0013189D03*
X0013504Y0024193D03*
X0013819Y0023878D03*
X0014134Y0023563D03*
X-0008386Y0012776D03*
X-0008701Y0013091D03*
X-0009331Y0013406D03*
X-0009016D03*
X-0008071Y0012461D03*
X-0003031Y0011201D03*
X-0002087Y0011516D03*
Y0011831D03*
X-0001772Y0012146D03*
X-0002087D03*
X-0003346Y0013406D03*
X-0003661Y0013091D03*
X0019173Y0022303D03*
X0019488Y0020728D03*
X0019173Y0021043D03*
X-0003031Y0013720D03*
X-0002717Y0014035D03*
X-0002402Y0014350D03*
X0020118Y0022618D03*
X-0002087Y0014665D03*
X-0003346Y0007421D03*
Y0007736D03*
X-0005551Y0008366D03*
X-0006496Y0007421D03*
Y0007736D03*
X-0006181Y0008051D03*
X-0009016Y0007736D03*
X-0003661Y0008051D03*
X-0003976Y0008366D03*
X-0004291Y0008681D03*
X-0001772Y0014665D03*
X-0001575Y0016752D03*
X-0009331Y0007736D03*
X-0011102Y0007224D03*
X-0019803Y-0014154D03*
X0018543Y0021043D03*
X-0019488Y-0013839D03*
X0012874Y0021358D03*
X-0019173Y-0013524D03*
X-0003031Y0022303D03*
X-0002087Y0022618D03*
X-0001772Y0023248D03*
X-0002087Y0022933D03*
Y0023248D03*
X-0020433Y0018839D03*
X-0019803Y0024193D03*
X-0007441Y0003248D03*
X-0004606Y0003563D03*
X-0004921Y0003248D03*
X-0005551Y0002618D03*
X-0002717Y0002933D03*
X-0002402Y0003248D03*
X-0002087Y0003563D03*
Y0003878D03*
X-0004606Y0000413D03*
X-0003031Y0002618D03*
X-0003346Y0002303D03*
X-0003661Y0001988D03*
X-0006496Y0018524D03*
Y0018839D03*
X-0006181Y0019154D03*
X0018543Y0024193D03*
X0018858Y0024508D03*
X-0016024Y-0010689D03*
X0003031Y0001358D03*
X0004606Y0001043D03*
X0006181Y-0000217D03*
X0005866D03*
X0005236Y0000728D03*
X0003661Y0000413D03*
Y-0000217D03*
X0003031Y0000098D03*
X0002402Y-0000531D03*
X0001772Y-0000846D03*
X0002087D03*
X0006496Y-0000217D03*
X0008701Y-0001791D03*
X0009331Y-0002106D03*
X0009016D03*
X0005236Y-0000217D03*
X0003031Y-0002421D03*
X0002717Y-0002736D03*
X0002402Y-0003051D03*
X0002087Y-0003366D03*
X0001772D03*
X0019173Y0024823D03*
X0019488Y0025138D03*
X0019803Y0025453D03*
X0004606Y-0003681D03*
Y-0003366D03*
X0020118Y0026083D03*
X0009527Y0005610D03*
X0020118Y0025768D03*
X-0005551Y0024823D03*
X-0001772Y0020098D03*
X-0019488Y-0009429D03*
X-0019173Y-0009744D03*
X-0019803Y-0009114D03*
X-0020118Y-0008799D03*
X-0020433D03*
X-0020670Y-0007363D03*
X0020433Y0025768D03*
Y0026083D03*
X0020630Y0026693D03*
X0021043Y0026279D03*
X0015593Y0029407D03*
X0013189Y0021358D03*
X0013504Y0021673D03*
X0014134Y0022303D03*
X0014764Y0022618D03*
X0001772Y0021358D03*
X0002087D03*
X0002402Y0021673D03*
X0003031Y0022303D03*
X-0016024Y-0011319D03*
X0005236Y0022618D03*
Y0022933D03*
X0005866Y0021988D03*
X0006181D03*
X0005866Y0022618D03*
Y0022933D03*
X0006181Y0022618D03*
X0003661Y0021988D03*
X0006496D03*
X0008701Y0020413D03*
X0009331Y0020098D03*
X0009016D03*
X0005236Y0023248D03*
X0003661Y0022618D03*
X0003031Y0023563D03*
X0002717Y0023878D03*
X0002402Y0024193D03*
X0001772Y0024508D03*
X0002087D03*
X0005236Y0021988D03*
X-0002087Y0020098D03*
X-0002402Y0020413D03*
X-0002717Y0020728D03*
X-0007441Y0025453D03*
X0009016Y0026083D03*
X-0005236Y0022933D03*
X-0004921Y0022618D03*
X-0005236D03*
X-0005866Y0022933D03*
X0016969Y-0000217D03*
X0017598Y-0000846D03*
X0014134Y0000098D03*
X0013504Y-0000531D03*
X0012874Y-0000846D03*
X0013189D03*
X0016339Y-0000217D03*
X-0005866Y0022618D03*
Y0023248D03*
X0013189Y-0003366D03*
X0013504Y-0003051D03*
X0013819Y-0002736D03*
X0014134Y-0002421D03*
X0019803Y-0001791D03*
X0009331Y0025768D03*
X0009016D03*
X0008701Y0025453D03*
X0008386Y0025138D03*
X0005866Y0023248D03*
X0008071Y0024823D03*
X0007756Y0024508D03*
X0007441Y0024193D03*
X0003031Y0019783D03*
X0002087Y0018839D03*
X0002402Y0019154D03*
X0002717Y0019469D03*
X0020118Y0022933D03*
Y0023248D03*
X0020433D03*
X0002087Y0018524D03*
X0000000Y0018327D03*
X-0004921Y0021988D03*
X-0005236D03*
X-0004606D03*
X0015079Y0024193D03*
X-0016024Y-0011634D03*
X-0016339Y-0011319D03*
X-0016969D03*
X0015394Y0024193D03*
X0015709Y-0014783D03*
X-0011102Y0015177D03*
X0015709Y-0014469D03*
X0016969Y-0011319D03*
X0016339Y-0010689D03*
X0014764Y-0011319D03*
Y-0010689D03*
X0014134Y-0011004D03*
X0013504Y-0011634D03*
X0012874Y-0011949D03*
X0013189D03*
X0016024Y-0010374D03*
X0017283Y-0011319D03*
X0017598D03*
X0016339D03*
X0014764Y0025453D03*
X0013189Y0018524D03*
X0014134Y-0013524D03*
X0013819Y-0013839D03*
X0013504Y-0014154D03*
X0013189Y-0014469D03*
X0012874D03*
X0014134Y-0009744D03*
X0013819Y-0009429D03*
X0013504Y-0009114D03*
X0012874Y-0008799D03*
X0013189D03*
X0016024Y-0014154D03*
X0018543Y-0012264D03*
X0016654Y-0013839D03*
X0017913Y-0013524D03*
X0018228Y-0013839D03*
X0018543Y-0014154D03*
X0018858Y-0014783D03*
Y-0014469D03*
X0019803Y-0012894D03*
X0017756Y-0020177D03*
X0015079Y0025138D03*
X0017894Y-0019370D03*
X-0008701Y-0014154D03*
X-0008386Y-0013839D03*
X-0008071Y-0013524D03*
X-0002087Y-0007539D03*
X-0002402Y-0007854D03*
X-0002717Y-0008169D03*
X-0012874Y0014665D03*
Y0014980D03*
X-0013189D03*
X-0020433Y0010256D03*
X-0013504Y0009311D03*
X-0012874Y0008996D03*
X-0013189D03*
X-0017992Y0015945D03*
X-0012678Y0016752D03*
X-0003031Y-0008484D03*
X-0003346Y-0008799D03*
X-0003661Y-0009114D03*
X-0002087Y-0007224D03*
X0000000Y-0007028D03*
X-0019803Y0001988D03*
X0015394Y0024823D03*
X0016654D03*
X-0014449Y0018524D03*
Y0018839D03*
X-0016654Y0019469D03*
X-0017283Y0019154D03*
X-0017598Y0018524D03*
Y0018839D03*
X-0014764Y0019154D03*
X-0019488Y0001673D03*
X-0019173Y0001358D03*
X-0020433Y0018524D03*
X-0021043Y0018327D03*
X0001772Y0010256D03*
X-0020433Y-0003366D03*
Y-0003681D03*
X-0020118D03*
X0000157Y0029606D03*
X-0000807Y0030089D03*
X0000394Y0032480D03*
X-0000335Y0032490D03*
X-0020118Y-0003366D03*
X-0019803Y-0003051D03*
X0001575Y0005610D03*
X-0020433Y-0011949D03*
X-0022067Y-0010551D03*
X0022480Y-0013386D03*
X0007441Y-0014154D03*
X0007579Y-0017480D03*
X0017283Y0025453D03*
X0009527Y-0005453D03*
X0011102Y-0003878D03*
X0013189Y-0003681D03*
X0019803Y0020413D03*
X-0009016Y0007421D03*
X0014764Y-0007854D03*
X0014449Y-0007539D03*
X-0019488Y-0002736D03*
X0017598Y0014665D03*
X-0004921Y0025453D03*
X-0004606Y0025768D03*
X0003661Y0025453D03*
X0017598Y0025768D03*
X0011102Y0007224D03*
X0012618Y0027677D03*
X0001575Y0026693D03*
X0000000Y0026280D03*
X-0018858Y-0013209D03*
X-0007756D03*
X0014449D03*
X-0005866Y-0000217D03*
X0003346Y-0002106D03*
X0003661Y-0001791D03*
X0014449Y-0002106D03*
X0014764Y-0001791D03*
X-0018858Y0008996D03*
X-0008701Y0008051D03*
X-0008386Y0008366D03*
X0002087Y0010256D03*
X-0019173Y-0002421D03*
X-0020118Y0018524D03*
X-0005866Y0021988D03*
X0003346Y0020098D03*
X0003661Y0020413D03*
X0014449Y0020098D03*
X0014764Y0020413D03*
Y0021988D03*
X0015709Y0023248D03*
X0006496D03*
X0004606D03*
X-0004606Y0022618D03*
X-0005236Y0023248D03*
X-0006496D03*
X0016339D03*
Y0022933D03*
X0006496Y0022618D03*
X0006181Y0022933D03*
X0004606D03*
X0004921Y0022618D03*
X-0004921Y0022933D03*
X-0006181Y0022618D03*
X-0006496Y0022933D03*
X-0012874Y0020098D03*
X-0013189D03*
X0016339Y0022618D03*
X0016024Y0022933D03*
X0004606Y0021673D03*
X0004921Y0021988D03*
X-0006181Y0021673D03*
X0015709Y0022933D03*
X0006181Y0021673D03*
X-0004921D03*
X-0004606Y0021358D03*
X0016024Y0022618D03*
X0005866Y0021673D03*
X0006181Y0021358D03*
X0004921Y0021673D03*
X0004606Y0021358D03*
X0005236Y0021673D03*
X-0005236D03*
X-0004921Y0021358D03*
X-0005866Y0021673D03*
X-0006181Y0021988D03*
X-0013504Y0020413D03*
X-0018858Y-0002106D03*
X-0008071Y0008681D03*
X-0020118Y0010256D03*
X0002402Y0010571D03*
X0003031Y0011201D03*
X-0007756Y0008996D03*
X-0007441Y0009311D03*
X-0019803Y0010571D03*
X-0019173Y0011201D03*
X-0015709Y0011516D03*
X0020433Y0008996D03*
X-0001772D03*
X-0002087D03*
X0016969Y0001043D03*
X0006181Y0000413D03*
Y0000728D03*
X0005236Y0001043D03*
X-0005236D03*
X-0006496D03*
X0017283Y0000728D03*
X0005866Y0001043D03*
X0004606Y0000728D03*
X-0004921D03*
X-0004606Y0001043D03*
X-0006496Y0000728D03*
X-0006181Y0000413D03*
X0004921Y-0000217D03*
X0004606Y-0000531D03*
X-0006181Y-0000217D03*
X0017283D03*
X0006496Y-0000846D03*
X-0004606D03*
X0016969Y-0000531D03*
X0017283Y-0000846D03*
X0015709D03*
X0016339Y-0000531D03*
X0006181Y-0000846D03*
X0005866Y-0000531D03*
X0004921D03*
X0004606Y-0000846D03*
X0005236Y-0000531D03*
X-0004921Y-0000846D03*
X-0006496Y-0000531D03*
X-0006181D03*
X-0005866D03*
X0016969Y-0010374D03*
X0017283D03*
X0015709Y-0010059D03*
X-0001772Y-0013209D03*
X-0016339Y-0010689D03*
Y-0010374D03*
X0016969Y-0010689D03*
X0016024D03*
X0015709Y-0010374D03*
X-0002087Y-0013209D03*
X-0002402Y-0012894D03*
X-0015709Y-0010689D03*
X-0016024Y-0010374D03*
X0016024Y-0011319D03*
X0017283Y-0011634D03*
X0017598Y-0011949D03*
X-0015709Y-0011319D03*
X0016969Y-0011634D03*
X0017283Y-0011949D03*
X0016024Y-0011634D03*
X0016339D03*
X0015709D03*
X-0009331Y-0011949D03*
X-0016339Y-0011634D03*
X-0016024Y-0011949D03*
X-0016969Y-0011634D03*
X-0017283D03*
X-0005236Y-0000531D03*
X0016969Y0023248D03*
Y0022933D03*
X-0016339Y-0010059D03*
X-0016969D03*
X0017598Y0023248D03*
X0017283Y0022933D03*
X0017598Y0022618D03*
X-0016969Y-0010374D03*
Y-0010689D03*
X-0017283D03*
X-0017598Y-0010059D03*
X0017283Y0022618D03*
X0016969D03*
X-0002402Y-0001791D03*
X-0001772Y-0002106D03*
X-0002087D03*
X-0017598Y-0010374D03*
Y-0011634D03*
X-0012874Y-0013209D03*
X-0013189D03*
X-0013504Y-0012894D03*
X0005866Y0000728D03*
Y0000413D03*
X0004921D03*
X0005236D03*
X0017598Y0021988D03*
X0016969D03*
X0006496Y0000413D03*
X-0018543Y-0010689D03*
X-0017283Y-0011319D03*
X0003346Y0003563D03*
X0003661Y0003248D03*
X0014449Y0014665D03*
X0014764Y0014350D03*
X0015079Y0014035D03*
X0015394Y0013720D03*
X-0018543Y-0007854D03*
X-0009331Y0021358D03*
X-0008071Y0022303D03*
X-0009016Y0021358D03*
X-0008701Y0021673D03*
X-0020118Y-0011949D03*
X-0019803Y-0011634D03*
X-0018543Y-0011319D03*
X-0019173Y-0011004D03*
X-0006496Y0021673D03*
X0017283Y0021988D03*
X-0006181Y0022933D03*
X-0015709Y-0011949D03*
X0016969Y0021673D03*
X-0008701Y0024193D03*
X-0009331Y0024508D03*
X-0009016D03*
X-0007441Y0021988D03*
Y0022618D03*
X-0008386Y0023878D03*
X-0008071Y0023563D03*
X-0007756Y0020098D03*
X-0008071Y0019783D03*
X-0008386Y0019469D03*
X-0008701Y0019154D03*
X-0009016Y0018839D03*
X-0009331D03*
X-0006496Y0021358D03*
X-0007441Y0020413D03*
X-0007126Y0024193D03*
X-0006811D03*
X-0007126Y0025138D03*
X-0006811Y0024823D03*
X-0007756Y0025768D03*
Y0026083D03*
X-0006890Y0027047D03*
X-0015709Y-0007539D03*
X-0016024Y-0007854D03*
X-0016654Y-0008484D03*
X-0002402Y0009311D03*
X-0002717Y0009626D03*
X-0003031Y0009941D03*
X-0003661D03*
X-0009331Y0010256D03*
X-0009016D03*
X-0008701Y0010571D03*
X-0017283Y-0010374D03*
X-0013189D03*
X-0012874Y-0010059D03*
X-0013189D03*
X-0013819Y-0012579D03*
X-0013189Y-0010689D03*
X-0014134Y-0011004D03*
X-0018858Y0020098D03*
X-0019173Y0019783D03*
X-0020118Y0018839D03*
X-0019803Y0019154D03*
X-0019488Y0019469D03*
X-0018543Y0020413D03*
X0020118Y0008996D03*
X-0016339Y0001043D03*
X0013504Y0013091D03*
X0012874Y0013406D03*
X0013189D03*
X0013819Y0012776D03*
X0014134Y0012461D03*
X-0005551Y0019469D03*
X-0003661Y0019154D03*
X-0003346Y0018524D03*
Y0018839D03*
X-0003031Y0021043D03*
X-0003661D03*
X-0003976Y0019469D03*
X-0004291Y0019783D03*
X0017283Y0021673D03*
X0017598Y0021358D03*
X-0018228Y-0009114D03*
X-0017913D03*
X-0018228Y-0008169D03*
X-0017913Y-0008484D03*
X-0018858Y-0007539D03*
X-0004921Y-0000531D03*
X-0007756Y-0002106D03*
X-0008071Y-0002421D03*
X-0008386Y-0002736D03*
X-0008701Y-0003051D03*
X-0009016Y-0003366D03*
X-0009331D03*
X-0007441Y-0001791D03*
X0017283Y0021358D03*
X-0002087Y0000728D03*
X-0001772Y0001043D03*
X-0002087D03*
X-0002717Y-0001476D03*
X-0002087Y0000413D03*
X-0003031Y0000098D03*
X-0007126Y0002933D03*
X-0006811Y0002618D03*
X-0006181Y0000728D03*
X-0007126Y0001988D03*
X-0006811D03*
X-0007756Y0003563D03*
X0004921Y0000728D03*
X0003976Y0001988D03*
X0004291D03*
X0006181Y-0000531D03*
X0009016Y0000728D03*
X0009331Y0001043D03*
X0009016D03*
X0008386Y-0001476D03*
X0009016Y0000413D03*
X0008071Y0000098D03*
X0006496Y0003563D03*
X0003976Y0002933D03*
X0004291Y0002618D03*
X0006181Y0003248D03*
X0005551Y0002618D03*
X0008071D03*
X0008386Y0002933D03*
X0008701Y0003248D03*
X0009331Y0003563D03*
X0009016D03*
Y0003878D03*
X0006496Y0001043D03*
X0007756Y0002303D03*
X0007441Y0001988D03*
X0004921Y-0003051D03*
X0005551Y-0002736D03*
X0007441Y-0003051D03*
X0007756Y-0003681D03*
Y-0003366D03*
X0008071Y-0001161D03*
X0007441D03*
X0007126Y-0002736D03*
X0006811Y-0002421D03*
X0012874Y0010256D03*
X-0015709Y0000413D03*
X0013189Y0010256D03*
X0013504Y0010571D03*
X0014134Y0011201D03*
X0014764Y0011516D03*
Y0010886D03*
X0015709Y0012146D03*
X0016339Y0011516D03*
X0015709Y0011831D03*
X0016024Y0011516D03*
X0016339Y0011831D03*
X0016024D03*
X0016969Y0011516D03*
Y0011831D03*
Y0012146D03*
X0017598Y0010886D03*
X0015709Y0010571D03*
X0016024Y0010886D03*
Y0010571D03*
X0016339Y0010886D03*
Y0010571D03*
X0017283Y0010256D03*
X0017598D03*
X0016969Y0010571D03*
Y0010886D03*
X0017283D03*
Y0010571D03*
X0019803Y0009311D03*
X0015079Y0013091D03*
X0015394D03*
X0016339Y0012146D03*
X0015709Y0010256D03*
X0014764Y0009311D03*
X0014449Y0008996D03*
X-0018543Y-0012894D03*
X-0017598Y-0011949D03*
X0014134Y0008681D03*
X0013819Y0008366D03*
X0016339Y0021673D03*
X0013504Y0008051D03*
X0012874Y0007736D03*
X0013189D03*
Y0007421D03*
X0019488Y0009626D03*
X0020118Y0011831D03*
X0020433Y0012146D03*
X0020118D03*
X0018543Y0013091D03*
X-0014134Y-0008484D03*
X0018858Y0013406D03*
X0015709Y0021673D03*
Y0021358D03*
X-0013819Y-0008169D03*
X0019173Y0013720D03*
X-0013504Y-0007854D03*
X0019488Y0014035D03*
X0019803Y0014350D03*
X0020118Y0014665D03*
X0016024Y0021673D03*
Y0021988D03*
X0016339D03*
X0015709Y0018524D03*
Y0018839D03*
X0017913Y0019783D03*
X0007756Y-0014469D03*
Y-0014783D03*
X-0002087Y0014980D03*
X-0001772D03*
X0000000Y0015177D03*
X-0016339Y0000728D03*
Y0000413D03*
X-0016024Y0000728D03*
X-0017598Y0022933D03*
Y0023248D03*
X-0016969Y0022618D03*
X-0017283D03*
X-0016969Y0022933D03*
X-0001575Y0026693D03*
X-0003031Y0024823D03*
X-0002717Y0025138D03*
X-0002402Y0025453D03*
X-0002087Y0026083D03*
X-0001772D03*
Y0025768D03*
X-0002087D03*
X-0004606Y0023248D03*
X-0003346Y0024508D03*
X-0003661Y0024193D03*
X-0016024Y0000413D03*
X-0009016Y-0011949D03*
X-0008701Y-0011634D03*
X-0008071Y-0011004D03*
X-0005236Y-0010689D03*
X-0004606Y-0010059D03*
X-0005236D03*
X-0008071Y0011201D03*
X-0007441Y0011516D03*
Y0010886D03*
X-0004606Y0010256D03*
X-0004921D03*
X-0006496Y0010571D03*
Y0010256D03*
X-0006181Y0010571D03*
Y0010886D03*
X-0005866D03*
Y0010571D03*
X-0005236D03*
X-0004921D03*
X-0005236Y0010886D03*
X-0004921D03*
X-0004606D03*
Y0011516D03*
Y0012146D03*
X-0005236D03*
Y0011831D03*
X-0004921D03*
Y0011516D03*
X-0005236D03*
X-0005866D03*
Y0011831D03*
X-0014449Y-0008799D03*
X-0014764Y-0009114D03*
X-0015709Y-0010059D03*
X-0005866Y0012146D03*
X-0006181Y0011516D03*
Y0011831D03*
X-0006496D03*
Y0012146D03*
X-0007126Y0013091D03*
X-0006811D03*
X-0013189Y-0007539D03*
X-0007441Y0014350D03*
X-0012874Y-0007539D03*
X-0007126Y0014035D03*
X-0006811Y0013720D03*
X-0005551D03*
X-0004606Y0014665D03*
X-0004921Y0014350D03*
X0014449Y0025768D03*
Y0026083D03*
X-0006890Y0015945D03*
X-0007756Y0014665D03*
Y0014980D03*
X0016024Y0019154D03*
X0016654Y0019469D03*
X-0011102Y0004074D03*
X-0009331Y0007421D03*
X-0009528Y0005610D03*
X-0014764Y-0014154D03*
X-0013189Y0003878D03*
Y0003563D03*
X0018228Y0019469D03*
X-0005236Y-0010374D03*
X-0004921D03*
Y-0010689D03*
X-0004606D03*
X-0005236Y-0011319D03*
Y-0011634D03*
X-0004921Y-0011319D03*
X-0004606D03*
X-0004921Y-0011634D03*
Y-0011949D03*
X-0006181Y-0011634D03*
X-0005866D03*
Y-0011319D03*
Y-0010059D03*
X-0006181Y-0010374D03*
X-0006496D03*
X-0005866D03*
Y-0010689D03*
X-0006181D03*
X-0007441D03*
Y-0011319D03*
X-0006181D03*
X-0004606Y-0011949D03*
X-0006496Y-0010059D03*
X-0007441Y-0007854D03*
Y-0012894D03*
X-0006496Y-0011634D03*
Y-0011949D03*
X-0009016Y-0014783D03*
Y-0014469D03*
X-0009331D03*
X-0006811Y-0009114D03*
X-0007126D03*
X-0008071Y-0009744D03*
X-0008386Y-0009429D03*
X-0008701Y-0009114D03*
X-0009331Y-0008799D03*
X-0009016D03*
X-0002717Y-0012579D03*
X-0003031Y-0011004D03*
X-0002087Y-0010689D03*
Y-0010374D03*
X-0001772Y-0010059D03*
X-0002087D03*
X-0007126Y-0008169D03*
X-0006811Y-0008484D03*
X-0005551D03*
X-0004921Y-0007854D03*
X-0004606Y-0007539D03*
X-0007756D03*
X-0003031Y-0012264D03*
X-0003661D03*
Y-0014154D03*
X-0003976Y-0013839D03*
X-0004291Y-0013524D03*
X-0005551Y-0013839D03*
X-0006181Y-0014154D03*
X-0006496Y-0014783D03*
Y-0014469D03*
X-0001575Y-0005453D03*
X-0001772Y-0007539D03*
Y-0007224D03*
X-0014449Y-0014469D03*
Y-0014783D03*
X0018543Y0019154D03*
X0018858Y0018524D03*
Y0018839D03*
X-0016654Y-0013839D03*
X-0017283Y-0014154D03*
X0009331Y0026083D03*
X0009527Y0026693D03*
X0012677D03*
X0011102Y0026279D03*
X-0022480Y-0013425D03*
X-0015079Y-0013839D03*
X-0015394Y-0013524D03*
X-0014134Y-0012264D03*
X-0014764D03*
X0015709Y0007421D03*
Y0007736D03*
X0016024Y0008051D03*
X0016654Y0008366D03*
X0018543Y0008051D03*
X0018858Y0007421D03*
Y0007736D03*
X0019173Y0009941D03*
X0018543D03*
X0018228Y0008366D03*
X0017913Y0008681D03*
X-0013504Y0003248D03*
X-0013819Y0002933D03*
X-0014134Y0002618D03*
X-0015709Y0001043D03*
X-0014449Y0002303D03*
X-0014764Y0001988D03*
X-0016339Y-0000217D03*
X-0016969Y0023248D03*
X0017598Y-0000217D03*
X0017283Y0000413D03*
X0017598D03*
X0016969D03*
Y0000728D03*
X0016339Y0000413D03*
Y0000728D03*
Y0001043D03*
X0015709Y0000728D03*
X0016024D03*
Y0000413D03*
Y-0000531D03*
Y-0000217D03*
X0014764D03*
X0015709Y-0000531D03*
X0017283D03*
X0014449Y0003563D03*
X0014764Y0003248D03*
X0015709Y0001043D03*
X0015079Y0001988D03*
X0015394D03*
X0014764Y0000413D03*
X0014134Y0001358D03*
X0013819Y0001673D03*
X0013504Y0001988D03*
X0012874Y0002303D03*
X0013189D03*
X0019488Y-0001476D03*
X0019173Y0000098D03*
X0020118Y0000413D03*
Y0000728D03*
X0020433Y0001043D03*
X0020118D03*
X0015079Y0002933D03*
X0015394Y0002618D03*
X0016654D03*
X0017598Y0003563D03*
X0017283Y0003248D03*
X0017598Y0001043D03*
X0018543Y0001988D03*
X0018858Y0002303D03*
X0019173Y0002618D03*
X0019488Y0002933D03*
X0019803Y0003248D03*
X0020433Y0003563D03*
X0020118D03*
Y0003878D03*
X0019173Y-0001161D03*
X0018543D03*
X-0012874Y0023248D03*
X-0013189Y0022933D03*
Y0023248D03*
X-0013819Y0020728D03*
X-0013189Y0022618D03*
X-0014134Y0022303D03*
X-0016024Y-0000217D03*
X-0015709D03*
X-0016024Y-0000531D03*
Y-0000846D03*
X-0018543Y0000413D03*
X0006496Y0021358D03*
X0003976Y0024193D03*
X0004291D03*
X0004921Y0022933D03*
X-0017598Y-0014469D03*
X-0021870Y-0021693D03*
X-0016890Y-0021476D03*
X-0016250Y-0021988D03*
X-0016890Y-0022539D03*
X-0019232Y-0022283D03*
X-0020118Y-0014469D03*
Y-0014783D03*
X-0019213Y-0016122D03*
X0018543Y-0003051D03*
X0018858Y-0003681D03*
Y-0003366D03*
X0018228Y-0002736D03*
X0017913Y-0002421D03*
X0016654Y-0002736D03*
X0016024Y-0003051D03*
X0015709Y-0003681D03*
Y-0003366D03*
X0020118Y-0002106D03*
X0020433D03*
X0021043Y-0007028D03*
X0020433Y-0007539D03*
Y-0007224D03*
X0020118D03*
Y-0007539D03*
X0019803Y-0007854D03*
X0019488Y-0008169D03*
X0019173Y-0008484D03*
X0017598Y-0010059D03*
X0018858Y-0008799D03*
X0018543Y-0009114D03*
X0003976Y0025138D03*
X0004291Y0024823D03*
X0009331Y0023248D03*
X0009016Y0022933D03*
Y0023248D03*
X0008386Y0020728D03*
X0009016Y0022618D03*
X0008071Y0022303D03*
X-0003661Y-0003051D03*
X-0003346Y-0003681D03*
Y-0003366D03*
X-0005551Y-0002736D03*
X-0006181Y-0003051D03*
X-0006496Y-0003681D03*
Y-0003366D03*
X-0003031Y-0001161D03*
X-0003661D03*
X-0003976Y-0002736D03*
X-0004291Y-0002421D03*
X-0001575Y0005610D03*
X-0001772Y0003563D03*
Y0003878D03*
X0000000Y0004074D03*
X-0018543Y-0000217D03*
X-0019173Y0000098D03*
X-0019803Y-0000531D03*
X-0015709Y-0000846D03*
X-0013504Y-0001791D03*
X-0012874Y-0002106D03*
X-0013189D03*
X-0018543Y-0001791D03*
X-0013819Y-0001476D03*
X-0014134Y0000098D03*
X-0013189Y0000413D03*
Y0000728D03*
X-0012874Y0001043D03*
X-0013189D03*
X-0014134Y-0001161D03*
X-0014764D03*
Y-0003051D03*
X-0014449Y-0003681D03*
Y-0003366D03*
X0005551Y0024823D03*
X0006496Y0025768D03*
X0006181Y0025453D03*
X0017598Y-0010689D03*
X0017283D03*
X0016339Y-0010374D03*
X0016969Y-0010059D03*
X0015079Y-0009114D03*
X0015394D03*
X0016339Y-0010059D03*
X0014764Y-0012894D03*
X0015709Y-0011949D03*
X0013189Y-0014783D03*
X0015059Y-0016240D03*
X0013937D03*
X0014488D03*
X0015079Y-0008169D03*
X0015394Y-0008484D03*
X-0016339Y-0000531D03*
Y0023248D03*
Y0022618D03*
Y0022933D03*
X-0016024D03*
Y0022618D03*
X-0015709D03*
Y0021988D03*
X-0016339D03*
X-0016024D03*
X-0015709Y0021358D03*
X-0016024D03*
Y0021673D03*
X-0016339D03*
X-0016969D03*
X-0017598Y0021358D03*
Y0021673D03*
X-0016969Y0021988D03*
X-0017283Y0021673D03*
Y0021988D03*
X-0019173Y0022303D03*
X-0019803Y0021673D03*
X-0020433Y0021358D03*
X-0020118D03*
X-0017283Y0022933D03*
X-0018228Y0024193D03*
X-0017913D03*
X-0018543Y0025453D03*
X-0019488Y0023878D03*
X-0019173Y0023563D03*
X-0018543Y0021988D03*
Y0022618D03*
X-0018228Y0025138D03*
X-0017913Y0024823D03*
X-0016654D03*
X-0016024Y0025453D03*
X-0015315Y0027047D03*
X-0015709Y0025768D03*
Y0026083D03*
X-0017992Y0027047D03*
X-0018858Y0025768D03*
Y0026083D03*
X-0015709Y0023248D03*
X-0014764Y0024193D03*
X-0014449Y0024508D03*
X-0014134Y0024823D03*
X-0013819Y0025138D03*
X-0013504Y0025453D03*
X-0012874Y0025768D03*
X-0013189D03*
Y0026083D03*
X-0015079Y0019469D03*
X-0015394Y0019783D03*
X-0014134Y0021043D03*
X-0014764D03*
X-0009528Y0026693D03*
X-0011102Y0026279D03*
X-0012874Y0026083D03*
X-0012678Y0026693D03*
X-0010413Y0027835D03*
X-0010167Y0028287D03*
X-0010305Y0028740D03*
X-0011476Y0030797D03*
X-0010925D03*
X-0010374D03*
X-0008898Y0030807D03*
X-0009075Y0030118D03*
X-0014409Y0029272D03*
Y0029803D03*
X-0020630Y0016752D03*
X-0021043Y0015177D03*
X-0016969Y-0000217D03*
Y-0000531D03*
X0004606Y0012146D03*
X-0017598Y-0000846D03*
X0004921Y0011516D03*
X0005236D03*
Y0011831D03*
X0004606D03*
X0005236Y0012146D03*
X0005866D03*
X0006181Y0011831D03*
X0005866D03*
X-0015079Y-0002736D03*
X-0015394Y-0002421D03*
X-0016654Y-0002736D03*
X-0017283Y-0003051D03*
X-0017598Y-0003681D03*
Y-0003366D03*
X-0020118Y-0000846D03*
X-0020433D03*
X-0012678Y0005610D03*
X-0012874Y0003563D03*
Y0003878D03*
X0008071Y0021043D03*
X-0020118Y0002303D03*
X-0020433D03*
X0005866Y0010886D03*
X-0017283Y-0000531D03*
Y-0000217D03*
X0004921Y0010571D03*
X0005236Y0010886D03*
Y0010571D03*
X0006496Y0010886D03*
X-0017598Y-0000531D03*
X0005866Y0010571D03*
X0006496Y0010256D03*
X0004921Y0010886D03*
X0006496Y0011516D03*
X0006181Y0010256D03*
X0005866Y0011516D03*
X0006181D03*
Y0010886D03*
Y0010571D03*
X0008701Y0009311D03*
X0009331Y0008996D03*
X0009016D03*
X0004921Y0011831D03*
X0003976Y0013091D03*
X0004291D03*
X0003346Y0014665D03*
X0003661Y0014350D03*
Y0010886D03*
Y0011516D03*
X0003031Y0012461D03*
X0002717Y0012776D03*
X0002402Y0013091D03*
X0001772Y0013406D03*
X0002087D03*
X0004606Y0010571D03*
Y0010256D03*
X0003661Y0009311D03*
X0003346Y0008996D03*
X0003031Y0008681D03*
X0002717Y0008366D03*
X0002402Y0008051D03*
X0002087Y0007736D03*
X0001772D03*
X0008386Y0009626D03*
X0008071Y0011201D03*
X0009016Y0011516D03*
Y0011831D03*
X0009331Y0012146D03*
X0009016D03*
X0003976Y0014035D03*
X0004291Y0013720D03*
X0005551D03*
X0006496Y0014665D03*
X0006181Y0014350D03*
X0006496Y0012146D03*
X0007441Y0013091D03*
X0007756Y0013406D03*
X0008071Y0013720D03*
X0008386Y0014035D03*
X0008701Y0014350D03*
X0009016Y0014980D03*
Y0014665D03*
X0008071Y0009941D03*
X0007441D03*
Y0008051D03*
X0007756Y0007421D03*
Y0007736D03*
X0007126Y0008366D03*
X0006811Y0008681D03*
X0005551Y0008366D03*
X0004921Y0008051D03*
X0004606Y0007421D03*
Y0007736D03*
X0009331Y0014665D03*
Y0014980D03*
X0011102Y0015177D03*
X0012677Y0016752D03*
X0009527D03*
X0012874Y0018839D03*
Y0018524D03*
X0011102Y0018327D03*
X-0009528Y-0005453D03*
X-0012678D03*
X-0011102Y-0007028D03*
X-0013189Y-0007224D03*
X-0012874D03*
X-0009016Y-0003681D03*
X-0009331D03*
X-0011102Y-0003878D03*
X0007441Y0021043D03*
X0007756Y0018524D03*
Y0018839D03*
X0007441Y0019154D03*
X0005866Y-0010059D03*
Y-0010374D03*
X0006181D03*
X0006496Y-0010689D03*
X0006181D03*
X0005866D03*
X0005236Y-0010059D03*
X-0019803Y0013091D03*
X-0017598Y0000728D03*
X-0018543Y0010886D03*
Y0011516D03*
X-0019488Y0012776D03*
X-0019173Y0012461D03*
X-0017283Y0000413D03*
X-0017598Y0010571D03*
X-0016969Y0000413D03*
X-0017283Y0010886D03*
X-0016969D03*
Y0010571D03*
X-0017283D03*
X-0016339D03*
X-0015709Y0010886D03*
X-0016024Y0010571D03*
Y0010256D03*
Y0010886D03*
X-0016339D03*
X-0016969Y0000728D03*
X-0016024Y0011831D03*
Y0011516D03*
X-0016339Y0012146D03*
Y0011516D03*
Y0011831D03*
X-0016969Y0012146D03*
Y0011831D03*
Y0011516D03*
X-0017283D03*
Y0011831D03*
X-0017598D03*
Y0012146D03*
X-0018228Y0013091D03*
X-0017913D03*
X-0018858Y0014980D03*
Y0014665D03*
X-0018543Y0014350D03*
X-0015709Y0010256D03*
X-0018543Y0009311D03*
X-0017598Y0010256D03*
X-0019173Y0008681D03*
X-0019488Y0008366D03*
X-0019803Y0008051D03*
X-0020433Y0007736D03*
X-0020118D03*
Y0007421D03*
X-0018228Y0014035D03*
X-0017913Y0013720D03*
X-0016654D03*
X-0016024Y0014350D03*
X-0015315Y0015945D03*
X-0015709Y0014665D03*
Y0014980D03*
X-0013819Y0009626D03*
X-0014134Y0011201D03*
X-0013189Y0011516D03*
Y0011831D03*
X-0012874Y0012146D03*
X-0013189D03*
X-0014764Y0013091D03*
X-0015709Y0012146D03*
X-0014449Y0013406D03*
X-0014134Y0013720D03*
X-0013189Y0014665D03*
X-0013504Y0014350D03*
X-0013819Y0014035D03*
X-0014134Y0009941D03*
X-0014764D03*
Y0008051D03*
X-0014449Y0007421D03*
Y0007736D03*
X-0015079Y0008366D03*
X-0015394Y0008681D03*
X-0016654Y0008366D03*
X-0017283Y0008051D03*
X-0017598Y0007421D03*
Y0007736D03*
X0007126Y0019469D03*
X0006811Y0019783D03*
X0016909Y-0022382D03*
X0015807Y-0022559D03*
X0015256D03*
X-0019232Y-0023366D03*
X-0018081Y-0023307D03*
X-0018740Y-0024547D03*
X-0018081Y-0024370D03*
X0012421Y-0022362D03*
X0013976Y-0023110D03*
Y-0022303D03*
X0005551Y0019469D03*
X0004921Y0019154D03*
X0004606Y0018524D03*
Y0018839D03*
X0001575Y0016752D03*
X0001772Y0018839D03*
Y0018524D03*
X0000000Y0007224D03*
X0002087Y0007421D03*
X0001772D03*
X0002087Y-0014783D03*
X0001772Y-0014469D03*
X-0016969Y0001043D03*
X-0017283Y0000728D03*
X-0017598Y0001043D03*
X0012736Y-0019291D03*
Y-0019488D03*
Y-0019685D03*
X0010906Y-0020315D03*
X0012736Y-0019882D03*
X0012756Y-0020472D03*
X0010256Y-0018228D03*
X0011417Y-0018917D03*
X0011476Y-0018366D03*
X0011654Y-0017559D03*
X0011496Y-0016614D03*
X0016654Y-0008484D03*
X0017598Y-0007539D03*
X0017283Y-0007854D03*
X0019488Y-0012579D03*
X0019173Y-0012264D03*
Y-0011004D03*
X0020118Y-0010689D03*
Y-0010374D03*
Y-0013209D03*
X0020433D03*
X0019547Y-0017480D03*
X0018051Y-0017835D03*
X0018583D03*
X0017815Y-0018701D03*
X0018740Y-0018799D03*
X0022008Y-0010571D03*
X0020118Y-0010059D03*
X0020433D03*
X0012402Y0028169D03*
X0012352Y0028780D03*
X0002087Y-0014469D03*
X-0013209Y-0023914D03*
Y-0024229D03*
X-0013435Y-0021988D03*
X-0011998D03*
X-0009183D03*
X-0007746D03*
X-0016693Y-0018228D03*
X-0019823Y-0020886D03*
X0020433Y0003878D03*
X0002402Y-0014154D03*
X0002717Y-0013839D03*
X0003031Y-0013524D03*
X0003346Y-0013209D03*
X0003661Y-0012894D03*
X-0018228Y0001988D03*
X0005236Y-0011319D03*
X0004921Y-0011634D03*
X0004606Y-0011949D03*
X-0017913Y0001988D03*
X0006496Y-0011319D03*
X0005866Y-0011634D03*
Y-0011319D03*
X0006181D03*
Y-0011634D03*
X0005236D03*
X0006181Y-0011949D03*
X0004606Y-0011634D03*
X0004921Y-0010374D03*
X0005236D03*
Y-0010689D03*
X0004921D03*
X0004606Y-0010374D03*
X0004921Y-0011319D03*
X0003031Y-0011004D03*
X0002402Y-0011634D03*
X0001772Y-0011949D03*
X0002087D03*
X0004606Y-0010059D03*
X0003976Y-0009114D03*
X0004291D03*
X0003346Y-0007539D03*
X0003661Y-0007854D03*
X0006496Y-0011949D03*
X-0018858Y0003563D03*
X0008701Y-0012894D03*
X0009331Y-0013209D03*
X0009016D03*
X0002717Y-0009429D03*
X0003031Y-0009744D03*
X0003661Y-0011319D03*
Y-0010689D03*
X0002402Y-0009114D03*
X0001772Y-0008799D03*
X0002087D03*
X0003976Y-0008169D03*
X0004291Y-0008484D03*
X0005551D03*
X0006496Y-0007539D03*
X0006181Y-0007854D03*
X0008386Y-0012579D03*
X0008071Y-0011004D03*
X0009016Y-0010689D03*
Y-0010374D03*
X0009331Y-0010059D03*
X0009016D03*
X0007441Y-0009114D03*
X0006496Y-0010059D03*
X-0018543Y0003248D03*
X0007756Y-0008799D03*
X0008071Y-0008484D03*
X0008386Y-0008169D03*
X0013504Y0030217D03*
X-0018228Y0002933D03*
X0012185Y0030758D03*
X0012717Y0030896D03*
X0011654Y0030758D03*
X0011122D03*
X0008465Y0028435D03*
X0007933Y0030846D03*
X0008150Y0030157D03*
X0003346Y0025768D03*
X-0009016Y0018524D03*
X-0009331D03*
X-0009528Y0016752D03*
X0008701Y-0007854D03*
X0009331Y-0007539D03*
X0009016D03*
X0007126Y-0013839D03*
X0008071Y-0012264D03*
X0007441D03*
X0006811Y-0013524D03*
X0005551Y-0013839D03*
X0004921Y-0014154D03*
X0004606Y-0014783D03*
Y-0014469D03*
X-0020118Y0013406D03*
X-0020433D03*
X0011102Y-0007028D03*
X0009016Y-0007224D03*
X0009331D03*
X-0020118Y0024508D03*
X-0020433D03*
X-0020630Y0026693D03*
X-0021043Y0026279D03*
X0012874Y-0003366D03*
Y-0003681D03*
X0012678Y-0005453D03*
X0020118Y0020098D03*
X0020433D03*
X0021043Y0018327D03*
X0011673Y-0020177D03*
Y-0021142D03*
X0008228Y-0023839D03*
X-0003346Y-0014469D03*
Y-0014783D03*
X-0004488Y-0018228D03*
X-0003937D03*
X-0000236Y-0018031D03*
X-0017913Y0002618D03*
X0023071Y-0017559D03*
X0022421Y-0017126D03*
X-0011102Y-0014980D03*
X-0012678Y-0015394D03*
X-0012992Y-0018228D03*
X-0012441D03*
X-0009331Y-0014783D03*
X-0009528Y-0015394D03*
X-0008189Y-0018228D03*
X-0008740D03*
X-0022283Y-0016319D03*
X-0003494Y-0021988D03*
X-0004931D03*
X0000039Y-0023484D03*
X-0000679Y-0021988D03*
X-0016417Y-0025512D03*
X0001575Y-0005453D03*
X0002087Y-0003681D03*
X0001772D03*
X0000000Y-0003878D03*
X0012874Y0007421D03*
X0012678Y0005610D03*
X0009331Y0003878D03*
X0011102Y0004074D03*
X0020059Y-0021713D03*
X0021398Y-0021358D03*
X0003346Y-0007224D03*
X0004213Y-0006260D03*
X0006496Y-0007224D03*
X0014449D03*
X0015315Y-0006260D03*
X0017598Y-0007224D03*
X0003346Y0003878D03*
X0004213Y0004843D03*
X0006496Y0003878D03*
X0006890Y0004843D03*
X0014449Y0003878D03*
X0015315Y0004843D03*
X0017598Y0003878D03*
X0017992Y0004843D03*
X-0006496Y-0000846D03*
X-0004606Y0014980D03*
X-0004213Y0015945D03*
X0003346Y0014980D03*
X0004213Y0015945D03*
X0006496Y0014980D03*
X0006889Y0015945D03*
X0014449Y0014980D03*
X0015315Y0015945D03*
X0017598Y0014980D03*
X-0004606Y0026083D03*
X-0016654Y0002618D03*
X0003346Y0026083D03*
X0004213Y0027047D03*
X0011102Y-0014980D03*
X0009527Y-0015394D03*
X0012874Y-0014783D03*
X0012678Y-0015394D03*
X0006496Y0026083D03*
X0014620Y0027959D03*
X0015315Y0027047D03*
X0017598Y0026083D03*
X0017992Y0027047D03*
X-0017598Y-0014783D03*
X-0017343Y-0015531D03*
X-0020433Y0007421D03*
X-0021043Y0007225D03*
X-0016024Y0003248D03*
X0020433Y0014665D03*
X0020118Y0014980D03*
X0020433D03*
X0021043Y0015177D03*
X0020630Y0016752D03*
X-0018858Y-0007224D03*
X-0017992Y-0006260D03*
X0017283Y0014350D03*
X0016654Y0013720D03*
X-0020630Y0005610D03*
X-0021043Y0004074D03*
X-0015709Y-0007224D03*
X-0015315Y-0006260D03*
X0001772Y-0014783D03*
X0017283Y0011831D03*
X0017598Y0011516D03*
X0017283D03*
X0021043Y-0003878D03*
X0020630Y-0005453D03*
X0001575Y-0015394D03*
X-0015709Y0003563D03*
X-0018858Y0003878D03*
X-0017992Y0004843D03*
X-0007756Y-0007224D03*
X-0006890Y-0006260D03*
X0017598Y0012146D03*
X0020118Y0011516D03*
X0019173Y0011201D03*
X-0007756Y0003878D03*
X-0006890Y0004843D03*
X0019626Y-0016555D03*
X0021043Y0004074D03*
X0020630Y0005610D03*
X0021043Y0007225D03*
X-0004606Y0003878D03*
X-0004213Y0004843D03*
X0021043Y-0014980D03*
X0020630Y-0015394D03*
X-0015709Y0003878D03*
X-0015315Y0004843D03*
X-0021043Y-0003878D03*
X-0020630Y-0005453D03*
X-0004606Y-0007224D03*
X-0004213Y-0006260D03*
X0000000Y-0014980D03*
X-0001575Y-0015394D03*
X-0020433Y-0014469D03*
X-0021043Y-0014271D03*
X0020650Y-0028858D03*
X0018209Y-0022244D03*
X-0018543Y-0012579D03*
X-0007441D03*
X0003661D03*
X0014764D03*
X-0018543Y-0001476D03*
X-0007441D03*
X0003661D03*
X0014764D03*
X-0018543Y0009626D03*
X-0007441D03*
X0003661D03*
X0014764D03*
X-0018543Y0020728D03*
X-0007441D03*
X0003661D03*
X0014764D03*
X0017283Y0023248D03*
X0016024D03*
X0006181D03*
X0004921D03*
X-0004921D03*
X-0006181D03*
X-0016024D03*
X-0017283D03*
X0017598Y0022933D03*
X0015709Y0022618D03*
X0006496Y0022933D03*
X0004606Y0022618D03*
X-0004606Y0022933D03*
X-0006496Y0022618D03*
X-0015709Y0022933D03*
X-0017598Y0022618D03*
X0015709Y0021988D03*
X0004606D03*
X-0006496D03*
X-0017598D03*
X0017598Y0021673D03*
X0006496D03*
X-0004606D03*
X-0015709D03*
X0016969Y0021358D03*
X0016339D03*
X0016024D03*
X0005866D03*
X0005236D03*
X0004921D03*
X-0005236D03*
X-0005866D03*
X-0006181D03*
X-0016339D03*
X-0016969D03*
X-0017283D03*
X0017283Y0012146D03*
X0016024D03*
X0006181D03*
X0004921D03*
X-0004921D03*
X-0006181D03*
X-0016024D03*
X-0017283D03*
X0017598Y0011831D03*
X0015709Y0011516D03*
X0006496Y0011831D03*
X0004606Y0011516D03*
X-0004606Y0011831D03*
X-0006496Y0011516D03*
X-0015709Y0011831D03*
X-0017598Y0011516D03*
X0015709Y0010886D03*
X0004606D03*
X-0006496D03*
X-0017598D03*
X0017598Y0010571D03*
X0006496D03*
X-0004606D03*
X-0015709D03*
X0016969Y0010256D03*
X0016339D03*
X0016024D03*
X0005866D03*
X0005236D03*
X0004921D03*
X-0005236D03*
X-0005866D03*
X-0006181D03*
X-0016339D03*
X-0016969D03*
X-0017283D03*
X0017283Y0001043D03*
X0016024D03*
X0006181D03*
X0004921D03*
X-0004921D03*
X-0006181D03*
X-0016024D03*
X-0017283D03*
X0017598Y0000728D03*
X0015709Y0000413D03*
X0006496Y0000728D03*
X0004606Y0000413D03*
X-0004606Y0000728D03*
X-0006496Y0000413D03*
X-0015709Y0000728D03*
X-0017598Y0000413D03*
X0015709Y-0000217D03*
X0004606D03*
X-0006496D03*
X-0017598D03*
X0017598Y-0000531D03*
X0006496D03*
X-0004606D03*
X-0015709D03*
X0016969Y-0000846D03*
X0016339D03*
X0016024D03*
X0005866D03*
X0005236D03*
X0004921D03*
X-0005236D03*
X-0005866D03*
X-0006181D03*
X-0016339D03*
X-0016969D03*
X-0017283D03*
X0017283Y-0010059D03*
X0016024D03*
X0006181D03*
X0004921D03*
X-0004921D03*
X-0006181D03*
X-0016024D03*
X-0017283D03*
X0017598Y-0010374D03*
X0015709Y-0010689D03*
X0006496Y-0010374D03*
X0004606Y-0010689D03*
X-0004606Y-0010374D03*
X-0006496Y-0010689D03*
X-0015709Y-0010374D03*
X-0017598Y-0010689D03*
X0015709Y-0011319D03*
X0004606D03*
X-0006496D03*
X-0017598D03*
X0017598Y-0011634D03*
X0006496D03*
X-0004606D03*
X-0015709D03*
X0016969Y-0011949D03*
X0016339D03*
X0016024D03*
X0005866D03*
X0005236D03*
X0004921D03*
X-0005236D03*
X-0005866D03*
X-0006181D03*
X-0016339D03*
X-0016969D03*
X-0017283D03*
X0011644Y0028445D03*
X0014855Y0030410D03*
X-0014764Y0011516D03*
X0009744Y-0018002D03*
X0018543Y-0010689D03*
Y0000413D03*
X0018228Y0020413D03*
X-0015079D03*
X-0003661Y0000413D03*
X-0018543Y-0013839D03*
X-0018858Y0009626D03*
X-0003346D03*
X0016339Y-0012894D03*
X0016063Y-0021220D03*
X0005236Y-0012894D03*
X-0020433Y0008366D03*
X-0001772D03*
X-0020118Y0008051D03*
X-0002087D03*
X0005236Y0020413D03*
X0016339D03*
X-0005866D03*
X-0012531Y-0005866D03*
X-0014449Y-0007224D03*
X-0016969Y-0009114D03*
Y0001988D03*
X-0005866Y-0009114D03*
Y0001988D03*
X-0014764Y0000413D03*
X-0011102Y-0002500D03*
X-0012874Y-0003366D03*
Y0007736D03*
X-0011102Y0008602D03*
X-0006811Y-0002421D03*
X-0008071Y-0001161D03*
X-0003661Y-0010689D03*
X0018228Y0009311D03*
X-0018543Y0024508D03*
X-0015079Y0009311D03*
X-0007441Y0024508D03*
X0001772Y0003563D03*
X0000000Y0002697D03*
X0016339Y-0001791D03*
Y0009311D03*
X0018228Y-0012894D03*
Y-0001791D03*
X0005236D03*
Y0009311D03*
X-0015079Y-0012894D03*
Y-0001791D03*
X-0019488Y-0010374D03*
X-0019173Y-0013839D03*
X-0005866Y0009311D03*
X0011102Y0008602D03*
X0009331Y0007736D03*
X-0019488Y-0014154D03*
X-0020079Y-0022087D03*
X0002717Y0023563D03*
X0005236Y-0009114D03*
Y0001988D03*
X-0016024Y-0002106D03*
Y0013406D03*
X0007756Y-0002106D03*
X0006496Y-0003366D03*
X0016339Y-0009114D03*
Y0001988D03*
X-0016959Y0024193D03*
X-0016969Y0013091D03*
X-0005866D03*
Y0024193D03*
X0002402Y0024508D03*
X0005236Y0013091D03*
Y0024193D03*
X-0007441Y0013406D03*
X-0019488Y-0008799D03*
X-0017913Y-0008169D03*
X-0021043Y0008602D03*
X-0011890Y-0023927D03*
X-0015463Y-0023740D03*
X-0018061Y-0024902D03*
X-0003976Y0020413D03*
X0007126D03*
X-0019488Y-0007854D03*
X-0022943Y0017234D03*
X-0015079Y-0002106D03*
Y0013406D03*
X0014685Y-0021240D03*
X-0003976Y0009311D03*
X0007126D03*
X0007638Y0030531D03*
X-0003661Y0001358D03*
X0015079Y0020413D03*
X0013642Y-0023425D03*
X0018543Y0012461D03*
X0011087Y0017189D03*
X0002087Y0023878D03*
X0020118D03*
X0011087Y-0005015D03*
X0014488Y-0021240D03*
X0019567Y-0019114D03*
X0017224Y-0019882D03*
X0018248Y-0020059D03*
X-0017913Y-0013839D03*
X-0014764Y-0002421D03*
Y0013720D03*
X-0011118Y-0005015D03*
X0009449Y0030236D03*
X0015079Y-0001791D03*
X0003661Y-0008799D03*
X0003976Y0009311D03*
X-0012579Y0030285D03*
X0019488Y0021043D03*
X0019409Y-0018189D03*
X0015612Y0030907D03*
X-0014764Y0023563D03*
X0018543Y-0009744D03*
X0003346Y0022618D03*
X-0007126Y-0001791D03*
X0003976Y-0012894D03*
X-0014764Y0001358D03*
X0002087Y0024823D03*
X0020118D03*
X-0003661Y0023563D03*
X-0008701Y0025138D03*
X-0016969Y-0001791D03*
X-0005866D03*
X0009646Y0030236D03*
X-0018858Y-0013839D03*
X-0012008Y0030797D03*
X0011644Y0029035D03*
X0003976Y0025453D03*
Y0020413D03*
Y-0001791D03*
X0013766Y0029907D03*
X0003031Y-0011319D03*
X0019173D03*
X-0003661Y0012461D03*
X-0016969Y0008996D03*
Y0024508D03*
X-0003976Y-0001791D03*
X0007126D03*
X0010236Y0030236D03*
X-0014764Y0012461D03*
X0017303Y-0021476D03*
X-0005187Y-0021988D03*
X0002087Y0024193D03*
X0020118D03*
X0015079Y0009311D03*
X-0019803Y0007421D03*
Y0026083D03*
X0014764Y-0008799D03*
X-0018228Y-0001791D03*
X0007441Y0012461D03*
X0018228Y0019154D03*
X-0016969Y-0012894D03*
X-0005866D03*
X-0007126D03*
X0012372Y0029311D03*
X0013071Y0029016D03*
X-0018228Y0009311D03*
X0014449Y0013091D03*
X-0014449D03*
X0018780Y-0021201D03*
X0016063Y-0016752D03*
X0019803Y0020728D03*
X-0006811Y0025138D03*
X-0010394Y0029252D03*
X-0014764Y-0009744D03*
X0007441Y0023563D03*
X0004291Y0025138D03*
X0011644Y0028839D03*
X0019803Y0021043D03*
X-0018228Y0020413D03*
X0002717Y0022933D03*
X0001772Y0024193D03*
X0020433D03*
X-0013169Y0030285D03*
X0012736Y-0019094D03*
X-0003661Y-0009744D03*
X0019803Y0023248D03*
X-0011102Y0018327D03*
X0018858Y0019154D03*
X-0003031Y0020413D03*
X-0019173D03*
X-0005236Y-0012894D03*
X0006811D03*
X-0019488Y0007736D03*
Y0025768D03*
X-0007126Y0020413D03*
X0017224Y-0019291D03*
X0018248Y-0020650D03*
X0013758Y0029407D03*
X-0019173Y-0012894D03*
X-0003031D03*
X-0018228D03*
X-0007756Y0024193D03*
X0007756D03*
Y0023878D03*
X-0007756D03*
X0007441Y-0009744D03*
X0013110Y-0021240D03*
X-0015394Y-0012894D03*
X0017913Y0019469D03*
X0001772Y0025138D03*
X0020433D03*
X-0016909Y-0030935D03*
X-0009518Y0029203D03*
X-0007126Y0025453D03*
X0017224Y-0019094D03*
X0018976Y-0021201D03*
X-0018228Y-0008799D03*
Y0020098D03*
X0019488Y0023248D03*
X0018228Y0007736D03*
Y0025768D03*
X0005866Y0020413D03*
X0017913D03*
X-0018543Y0018839D03*
Y-0007539D03*
X0017283Y-0002106D03*
Y0013406D03*
X-0015079Y-0008484D03*
Y0019783D03*
X-0018858Y0012776D03*
X-0003346D03*
X-0002087Y-0009114D03*
X-0020118D03*
X0015079Y-0012894D03*
X0019803Y0024823D03*
X0018248Y-0019665D03*
X0017224Y-0020472D03*
X-0006496Y0008996D03*
Y0024508D03*
X0013307Y-0016762D03*
X-0014764Y-0010689D03*
X-0017598Y-0002421D03*
Y0013720D03*
X-0020118Y0008681D03*
X-0002087D03*
X-0015079Y-0002421D03*
Y0013720D03*
X-0015394Y-0002106D03*
Y0013406D03*
X0019488Y0022933D03*
X-0008071Y0007736D03*
Y0025768D03*
X0008071Y0007421D03*
Y0026083D03*
X-0008386Y0007421D03*
Y0026083D03*
X-0006220Y-0006260D03*
X-0009331Y0024823D03*
X0009331D03*
X-0009331Y0012461D03*
X0009331D03*
X-0007756Y0021043D03*
X0007756D03*
X0016339Y0024823D03*
Y0013091D03*
Y0024193D03*
X-0018543Y-0008799D03*
X-0009016Y0014350D03*
X0009016D03*
X-0007756Y-0001161D03*
X0007756D03*
X-0007441Y0002303D03*
X-0006496Y-0013524D03*
Y0002618D03*
X0004882Y0015945D03*
X-0006220Y0027047D03*
X-0019488Y-0014783D03*
Y0003878D03*
X-0015984Y0027047D03*
X0015984Y0004843D03*
X0018051Y-0018366D03*
X0019370Y-0019114D03*
X-0003976Y-0013524D03*
Y0002618D03*
X-0008701Y-0007224D03*
Y0018524D03*
X0010236Y0027431D03*
X-0019173Y-0007854D03*
X-0018228Y-0013524D03*
Y0002618D03*
X0016339Y-0013209D03*
Y0002303D03*
X0012874Y0021043D03*
X-0012874D03*
X-0007126Y0009311D03*
X0014134Y-0007539D03*
Y0018839D03*
X-0018228Y-0007854D03*
X-0022638Y0021043D03*
X-0003976Y0007736D03*
Y0025768D03*
X0012874Y0002933D03*
X-0012874D03*
X0002087Y-0009429D03*
X0020118D03*
X0019803Y0023563D03*
X0002087Y0025453D03*
X0020118D03*
X0013819Y-0007224D03*
Y0018524D03*
X-0017323Y0015945D03*
X-0008071Y-0000217D03*
X0008071D03*
X-0003031Y-0007224D03*
Y0018524D03*
X-0004921Y-0013524D03*
Y0002618D03*
X-0008071Y0022618D03*
X0008071D03*
X-0007756Y-0009114D03*
X0007756D03*
X-0003661Y0018839D03*
Y-0007539D03*
X-0017598Y-0008484D03*
Y0019783D03*
X-0019173Y0012776D03*
X-0003031D03*
X-0007126Y-0014469D03*
Y0003563D03*
X-0007441Y0001358D03*
X-0016969Y-0013209D03*
Y0002303D03*
X-0009016Y0012776D03*
X0009016D03*
X0003346Y0001358D03*
X0018858D03*
X-0014134Y-0012579D03*
X0014134D03*
X-0003976Y-0013209D03*
Y0002303D03*
X0001772Y0001358D03*
X0020433D03*
X0009331Y-0002736D03*
X-0009331D03*
Y0002618D03*
X0009331D03*
X-0007618Y-0017874D03*
X0009026Y0021043D03*
X0007441Y0020728D03*
X0014764Y0001358D03*
X-0008386Y-0007539D03*
Y0018839D03*
X-0007756Y-0012579D03*
X0007756D03*
X-0015394Y0007736D03*
Y0025768D03*
X-0015709Y-0013524D03*
Y0002618D03*
X0016024Y0002303D03*
Y-0013209D03*
X-0009016Y0019783D03*
X0009016D03*
X-0003976Y-0008484D03*
Y0019783D03*
X-0008071Y-0014783D03*
Y0003878D03*
X0013819Y0022933D03*
X-0019803Y-0009429D03*
X0003346Y-0001476D03*
X0018858D03*
X-0002717Y-0014783D03*
Y0003878D03*
X-0018228Y0007421D03*
Y0026083D03*
X-0008071Y0018524D03*
Y-0007224D03*
X-0016024Y-0013524D03*
Y0002618D03*
X0001772Y-0002736D03*
X0020433D03*
X-0003976Y-0008799D03*
Y0020098D03*
X0006811Y-0014469D03*
Y0003563D03*
X0017283Y-0013209D03*
Y0002303D03*
X0002087Y-0013524D03*
X0020118D03*
X0006496Y0008681D03*
Y0024823D03*
X0003031Y-0014783D03*
Y0003878D03*
X0004606Y-0008484D03*
Y0019783D03*
X0012874Y-0001476D03*
X-0012874D03*
X-0018543Y-0013524D03*
Y0002618D03*
X-0013189Y-0001791D03*
X0013189D03*
X-0017598Y-0013524D03*
Y0002618D03*
X0011673Y0026801D03*
X-0020118Y0025453D03*
X-0002087D03*
X-0003346Y-0013524D03*
Y0002618D03*
X0015984Y-0006260D03*
X-0009331Y-0008169D03*
X0009331D03*
X0018543Y-0014783D03*
Y0003878D03*
X-0013189Y-0001476D03*
X0013189D03*
X-0020118Y0002933D03*
X-0002087D03*
X-0008071Y-0003681D03*
Y0014980D03*
X-0013504Y-0007224D03*
Y0018524D03*
X0006811Y0009311D03*
X0005866Y-0001791D03*
X0004921Y-0008484D03*
Y0019783D03*
X-0007756Y-0011949D03*
X0007756D03*
X-0007126Y0007736D03*
Y0025768D03*
X0003031Y0001043D03*
X0019173D03*
X0003976Y-0013209D03*
Y0002303D03*
X-0016339Y-0012894D03*
X-0015394Y-0001791D03*
X0004921Y-0013524D03*
Y0002618D03*
X-0008071Y-0011634D03*
X0008071D03*
X-0017283Y-0008484D03*
Y0019783D03*
X0003346Y0001043D03*
X0018858D03*
X-0008701Y-0014783D03*
Y0003878D03*
X0014134Y-0010689D03*
X-0014134D03*
X-0017913Y-0003366D03*
Y0014665D03*
X-0014764Y0018524D03*
Y-0007224D03*
X-0012776Y0027470D03*
X-0008386Y0024508D03*
X0003031Y0000413D03*
X0019173D03*
X-0019173Y0001043D03*
X-0003031D03*
X-0019173Y0023878D03*
X-0003031D03*
X0013819Y-0014469D03*
Y0003563D03*
X0006811Y-0007539D03*
Y0018839D03*
X-0016339Y-0001791D03*
X-0015394Y0009311D03*
X-0018858Y-0010059D03*
X-0003346D03*
X0019488Y0024823D03*
X-0018228Y0018524D03*
Y-0007224D03*
X0005866Y0009311D03*
X0006811Y0020413D03*
X-0018858Y0023878D03*
X-0003346D03*
X-0007126Y-0007224D03*
Y0018524D03*
X0013189Y-0003051D03*
X-0013189D03*
X0014449Y0009941D03*
X-0014449D03*
X-0020433Y-0012894D03*
X-0001772D03*
X-0016339Y0009311D03*
X-0015394Y0020413D03*
X0014134Y-0014469D03*
Y0003563D03*
X0003661Y0023878D03*
X0001417Y0022933D03*
X-0003366Y-0017874D03*
X-0009331Y0001988D03*
X0009331D03*
X-0020118Y0002618D03*
X-0002087D03*
X0002087Y-0003051D03*
X0020118D03*
X-0006181Y-0008484D03*
Y0019783D03*
X0006496Y-0008484D03*
Y0019783D03*
X-0009016Y0008366D03*
X0009016D03*
X0007441Y-0001476D03*
X0009557D03*
X-0006988Y-0017874D03*
X-0004921Y-0008484D03*
Y0019783D03*
X0014449Y-0009114D03*
X-0014449D03*
X0003346Y-0009744D03*
X0018858D03*
X-0016024Y0019783D03*
Y-0008484D03*
X-0018858Y0001043D03*
X-0003346D03*
X-0007126Y-0013209D03*
Y0002303D03*
X-0019173Y0000413D03*
X-0003031D03*
X0003346Y-0012894D03*
X0018858D03*
X-0018858Y-0009114D03*
X-0003346D03*
X-0020118Y-0013524D03*
X-0002087D03*
X0003031Y-0012579D03*
X0019173D03*
X-0005866Y-0013209D03*
Y0002303D03*
X-0020886Y-0020886D03*
X0012874Y-0001791D03*
X-0012874D03*
X0008071Y-0007224D03*
Y0018524D03*
X-0007441Y-0002421D03*
Y0013720D03*
X0002087Y-0013839D03*
X0020118D03*
X-0009016Y-0014154D03*
X0009016D03*
X-0019173Y-0011634D03*
X-0003031D03*
X0003346Y-0009114D03*
X0018858D03*
X-0002087Y-0012894D03*
X-0020118D03*
X0003031D03*
X0019173D03*
X-0020433Y-0012579D03*
X-0001772D03*
X0017598Y-0013209D03*
Y0002303D03*
X-0009331Y0020728D03*
X0009331D03*
X-0007441Y-0003366D03*
Y0014665D03*
X0018543Y-0014469D03*
Y0003563D03*
X-0014134Y0007421D03*
Y0026083D03*
X-0019173Y-0009114D03*
X-0003031D03*
X0003346Y0001988D03*
X0018858D03*
X-0014134Y-0011634D03*
X0014134D03*
X-0008071Y-0009114D03*
X0008071D03*
X-0014449Y0001043D03*
X0014449D03*
Y-0000846D03*
X-0014449D03*
X0003346Y-0012579D03*
X0018858D03*
X-0007756Y0009311D03*
X0007756D03*
X-0020433Y-0009744D03*
X-0001772D03*
X-0015079Y0018839D03*
Y-0007539D03*
X-0002717Y0018524D03*
Y-0007224D03*
X-0019173Y0007421D03*
Y0026083D03*
X-0003031Y-0003681D03*
Y0014980D03*
X-0006811Y-0007539D03*
Y0018839D03*
X0014449Y0001358D03*
X-0014449D03*
X0001772Y-0013524D03*
X0020433D03*
X0014449D03*
Y0002618D03*
X0003031Y0001673D03*
X0019173D03*
X-0014764Y-0007539D03*
Y0018839D03*
X-0009331Y-0001161D03*
X0009331D03*
X0014134Y-0009114D03*
X-0014134D03*
X0013189Y-0007854D03*
X-0013189D03*
X0002087Y-0014154D03*
X0020118D03*
X-0018543Y0023878D03*
X0001772Y-0008484D03*
X0020433D03*
X0012874Y-0009114D03*
X-0012874D03*
X-0014764Y-0003681D03*
Y0014980D03*
X0004921Y-0008799D03*
Y0020098D03*
X-0007441Y0018524D03*
Y-0007224D03*
X0001772Y-0009744D03*
X0020433D03*
X-0007441Y-0014469D03*
Y0003563D03*
X0003346Y-0001791D03*
X0018858D03*
X0003976Y-0008484D03*
Y0019783D03*
X-0014134Y-0011319D03*
X0014134D03*
X0008071Y0000413D03*
X-0008071D03*
X0006496Y-0013209D03*
Y0002303D03*
X-0003346Y0019783D03*
Y-0008484D03*
X0009331Y-0013839D03*
X-0009331D03*
X0019173Y-0014783D03*
Y0003878D03*
X-0015709Y0008681D03*
Y0024823D03*
X-0013189Y0002618D03*
X0013189D03*
X0003661Y0019783D03*
Y-0008484D03*
X-0019173Y-0011319D03*
X-0003031D03*
X0001772Y-0008169D03*
X0020433D03*
X-0007756Y-0012894D03*
X0007756D03*
X0002087Y0001673D03*
X0020118D03*
X0003346Y0019783D03*
Y-0008484D03*
X0002087Y-0012579D03*
X0020118D03*
X-0020118Y-0009429D03*
X-0002087D03*
X0003346Y-0010374D03*
X0018858D03*
X-0009331Y-0009429D03*
X0009331D03*
X0016969Y0020098D03*
Y-0008799D03*
X-0012874Y-0009744D03*
X0012874D03*
X0014764Y-0014783D03*
Y0003878D03*
X-0020433Y-0009429D03*
X-0001772D03*
X-0019173Y-0012579D03*
X-0003031D03*
X-0020118Y-0013839D03*
X-0002087D03*
X-0020118Y-0012579D03*
X-0002087D03*
X-0019488Y0018524D03*
Y-0007224D03*
X-0015079Y-0014783D03*
Y0003878D03*
X-0020118Y-0014154D03*
X-0002087D03*
X-0018858Y-0000846D03*
X-0003346D03*
X-0020433Y-0008169D03*
X-0001772D03*
X-0017598Y0020098D03*
Y-0008799D03*
X0015079Y-0013209D03*
Y0002303D03*
X0001772Y-0001161D03*
X0020433D03*
X-0002717Y-0007539D03*
Y0018839D03*
X0006811Y0020098D03*
Y-0008799D03*
X-0018858Y0019783D03*
Y-0008484D03*
X0010039Y0030236D03*
X0003346Y0025138D03*
X0008829Y0028445D03*
X0006811Y0008996D03*
Y0024508D03*
X0014134Y-0011949D03*
X-0014134D03*
X-0013189Y-0009429D03*
X0013189D03*
X-0003661Y0007421D03*
Y0026083D03*
X0003031Y-0011949D03*
X0019173D03*
X0003976Y-0008799D03*
Y0020098D03*
X0007441Y0001358D03*
X-0007126Y-0002106D03*
Y0013406D03*
X0013819Y0007421D03*
Y0026083D03*
X-0004291Y-0013209D03*
Y0002303D03*
X-0008701Y0023878D03*
X0019803D03*
X0015079Y-0014469D03*
Y0003563D03*
X0018228Y-0014469D03*
Y0003563D03*
X0002402Y0018524D03*
Y-0007224D03*
X-0015394Y0020098D03*
Y-0008799D03*
X-0013189Y-0008169D03*
X0013189D03*
X0014449Y-0009744D03*
X-0014449D03*
X0002087Y-0009114D03*
X0020118D03*
X-0017283Y-0008799D03*
Y0020098D03*
X-0014134Y-0003366D03*
Y0014665D03*
Y0018524D03*
Y-0007224D03*
X0003031Y-0010374D03*
X0019173D03*
X0014449Y-0011949D03*
X-0014449D03*
X-0019173Y0010886D03*
X-0003031D03*
X-0016339Y-0008799D03*
Y0020098D03*
X-0006220Y0004843D03*
X0001772Y0002933D03*
X0020433D03*
X-0018858Y-0011634D03*
X-0003346D03*
X-0013189Y-0013524D03*
X0013189D03*
X-0020433Y-0012264D03*
X-0001772D03*
X-0013819Y0007736D03*
Y0025768D03*
X-0020433Y-0013524D03*
X-0001772D03*
X-0017913Y-0008799D03*
Y0020098D03*
X-0014449Y0023563D03*
X0014449D03*
X-0006004Y-0017874D03*
X0018543Y-0012579D03*
X0003976Y0018524D03*
Y-0007224D03*
X-0000591Y0029606D03*
X-0012382Y0027470D03*
X0014764Y0007421D03*
Y0026083D03*
X-0013189Y-0013839D03*
X0013189D03*
X0015079Y0007421D03*
Y0026083D03*
X-0014449Y-0012579D03*
X0014449D03*
X-0015079Y-0007224D03*
Y0018524D03*
X-0020118Y-0007854D03*
X-0002087D03*
X-0019488Y-0009114D03*
X0014764Y-0014469D03*
Y0003563D03*
X0006220Y-0006260D03*
X0018228Y0018524D03*
Y-0007224D03*
X-0018858Y-0012579D03*
X-0003346D03*
X-0015709Y0020098D03*
Y-0008799D03*
X0014764Y-0009744D03*
X0017598Y0020098D03*
Y-0008799D03*
X0003661Y-0007224D03*
Y0018524D03*
X-0012874Y0023878D03*
X0012874D03*
X0002087Y-0012894D03*
X0020118D03*
X0019803Y0021358D03*
X0014134Y0011516D03*
X-0014134D03*
X0014134Y-0009429D03*
X-0014134D03*
X0003031Y-0007224D03*
Y0018524D03*
X0002717Y-0014469D03*
Y0003563D03*
X-0009016Y-0012894D03*
X0009016D03*
X-0007441Y0001673D03*
X-0020433Y-0002421D03*
X-0001772D03*
X-0018543Y0003878D03*
Y-0014783D03*
X0001772Y-0012579D03*
X0020433D03*
X-0019173Y0024193D03*
X-0003031D03*
X0018543Y0001358D03*
X-0013504Y0007421D03*
Y0026083D03*
X-0006811Y0020098D03*
Y-0008799D03*
X-0020433Y-0009114D03*
X-0001772D03*
X0013189Y-0014154D03*
X-0013189D03*
X0001772Y0002618D03*
X0020433D03*
X-0017913Y0018839D03*
Y-0007539D03*
X-0018543Y-0008169D03*
X-0018228Y-0013209D03*
Y0002303D03*
X-0009331Y-0012579D03*
X0009331D03*
X-0020433Y0023563D03*
X-0001772D03*
X-0018228Y0019783D03*
Y-0008484D03*
X-0018858Y0021043D03*
X-0003346D03*
X0007126Y-0008799D03*
Y0020098D03*
X-0004882Y0015945D03*
X-0013789Y0028287D03*
X-0008071Y0025138D03*
X0007441Y0019783D03*
Y-0008484D03*
X0003346Y0021358D03*
X0018858D03*
X0003346Y-0010059D03*
X0018858D03*
X-0014134Y-0000217D03*
X0014134D03*
X-0007756Y0011831D03*
X0007756D03*
X-0008071Y-0003366D03*
Y0014665D03*
X-0015394Y-0007539D03*
Y0018839D03*
X-0009016Y-0013524D03*
X0009016D03*
X0006496Y-0008799D03*
Y0020098D03*
X-0019173Y-0007224D03*
Y0018524D03*
X0009016Y0009311D03*
X-0009016D03*
X0017323Y0004843D03*
X0005236Y0020098D03*
Y-0008799D03*
X0019173Y0025138D03*
X0015394Y-0007539D03*
Y0018839D03*
X0007756Y0009626D03*
X-0007756D03*
X-0009016Y0013720D03*
X0009016D03*
X0003346Y0009941D03*
X0018858D03*
X-0007441Y0023878D03*
X-0013819Y0018839D03*
Y-0007539D03*
X-0003976Y-0012894D03*
X0007126D03*
X-0003661Y-0001476D03*
X-0009094Y-0006703D03*
X-0009626Y-0017874D03*
X0007756Y-0010374D03*
X-0007756D03*
X-0007441Y0012461D03*
X0017283Y0002618D03*
Y-0013524D03*
X-0006181Y0002303D03*
Y-0013209D03*
X-0019803Y-0008799D03*
X-0013189Y0020728D03*
X0013189D03*
X-0007126Y-0013524D03*
Y0002618D03*
X0003031Y0024193D03*
X0019173D03*
X0003661Y0012461D03*
X0018543Y0020728D03*
X-0005059Y-0017874D03*
X0014134Y0023248D03*
X-0014134D03*
X0007126Y-0008484D03*
Y0019783D03*
X0017913Y-0007539D03*
Y0018839D03*
X-0007756Y-0002421D03*
Y0013720D03*
Y0021358D03*
X0007756D03*
X-0017283Y0002303D03*
Y-0013209D03*
X-0008071Y0020728D03*
X0008071D03*
X0016339Y-0002106D03*
Y0013406D03*
X-0007756Y0010256D03*
X0007756D03*
X0003031Y0010886D03*
X0019173D03*
X-0020433Y0001988D03*
X-0001772D03*
X-0008071Y-0001791D03*
X0008071D03*
X0014764Y-0003681D03*
Y0014980D03*
X-0019488Y-0011319D03*
X-0020787Y-0006722D03*
X0003976Y-0002421D03*
Y0013720D03*
X0014134Y-0003366D03*
Y0014665D03*
X0003346Y0012461D03*
X0018858D03*
X0003346Y0010571D03*
X0018858D03*
X0003346Y-0002421D03*
Y0013720D03*
Y0009311D03*
X0018858D03*
X0017224Y-0018110D03*
X0019567Y-0021201D03*
X0008701Y-0003681D03*
Y0014980D03*
X-0003661Y-0012579D03*
X-0004931Y-0013839D03*
X-0009311Y-0017874D03*
X0004291Y-0003366D03*
Y0014665D03*
X0015079Y-0003681D03*
Y0014980D03*
X0015709Y-0002421D03*
Y0013720D03*
X0017598Y-0002421D03*
Y0013720D03*
X0007126Y0018524D03*
Y-0007224D03*
X-0007441Y-0008799D03*
X0019488Y0021673D03*
X-0009016Y0002933D03*
X0009016D03*
X0017913Y-0002106D03*
Y0013406D03*
X0018858Y-0002421D03*
Y0013720D03*
X0016969Y-0002106D03*
Y0013406D03*
X0012874Y0008366D03*
X-0012874D03*
X-0019173Y-0010374D03*
X-0003031D03*
X0014134Y0012776D03*
X-0014134D03*
X0003031Y0010571D03*
X0019173D03*
X0003346Y0011831D03*
X0018858D03*
X-0012874Y0012461D03*
X0012874D03*
X-0020118Y0008366D03*
X-0002087D03*
X0015394Y0008996D03*
Y0024508D03*
X0003346Y0010256D03*
X0018858D03*
X0019488Y-0003681D03*
Y0014980D03*
X0014134Y0007736D03*
Y0025768D03*
X-0014134Y0011831D03*
X0014134D03*
X0014449Y-0002421D03*
Y0013720D03*
X0003031Y0011516D03*
X0019173D03*
X0012874Y0024193D03*
X-0012874D03*
X0022913Y0016260D03*
X0019803Y0019783D03*
X-0013789Y0028484D03*
X-0007756Y0025138D03*
X0017913Y-0014469D03*
Y0003563D03*
X-0008386Y0023563D03*
X0014449Y0021358D03*
X-0014449D03*
X-0004882Y0004843D03*
X0019488Y0024193D03*
X0014764Y0013406D03*
X0003661Y-0009744D03*
X0002717Y0023248D03*
X0009449Y0027431D03*
X-0018543Y0001358D03*
X0018543Y0007421D03*
Y0026083D03*
X-0014134Y0020413D03*
X0014134D03*
X-0013189Y0025138D03*
X0013189D03*
X0014764Y0012461D03*
X-0012874Y0023563D03*
X0012874D03*
X0003346Y-0012264D03*
X0018858D03*
X0019173Y0022618D03*
X0003031D03*
X0014764Y0001673D03*
X-0013189Y0023878D03*
X0013189D03*
X0019488Y0007421D03*
Y0026083D03*
X-0009016Y0002618D03*
X0009016D03*
X-0007441Y-0013524D03*
Y0002618D03*
X-0008701Y-0003681D03*
Y0014980D03*
Y0024508D03*
X0003661Y0001673D03*
X0001772Y0000728D03*
X-0002736Y-0017874D03*
X-0018228Y-0014154D03*
X0012874Y0020413D03*
X-0012874D03*
X-0007441Y-0009429D03*
X0003346Y0023878D03*
X0018858D03*
X0003661Y0024508D03*
X0001772Y-0001791D03*
X0020433D03*
X0003346Y0020413D03*
X0018858D03*
X0019488Y0019154D03*
X0014449Y0008681D03*
Y0024823D03*
X0013189Y0025453D03*
X-0013189D03*
X0008829Y0028642D03*
X0002717Y0024823D03*
X0020118Y0020413D03*
X0002087D03*
X-0018858Y-0008169D03*
X-0004291Y-0014469D03*
Y0003563D03*
X-0012972Y0030285D03*
X0003661Y-0009429D03*
X0001722Y-0010374D03*
X-0002421Y-0017874D03*
X0003661Y0008681D03*
Y0024823D03*
X-0004882Y0027047D03*
X0003346Y0023248D03*
X0018858D03*
X0004606Y0008996D03*
Y0024508D03*
X-0014764Y-0001476D03*
X-0012628Y-0003366D03*
X-0011555Y-0017874D03*
X0014764Y0023878D03*
X-0016969Y0009311D03*
Y0020413D03*
X-0019803Y-0012264D03*
X-0021339Y-0006722D03*
X0019803Y0007421D03*
Y0026083D03*
X-0018543Y0012461D03*
X-0015079Y-0014469D03*
Y0003563D03*
X0002402Y0023563D03*
X0009646Y0027431D03*
X-0005866Y0020098D03*
Y-0008799D03*
X0015079Y0008996D03*
Y0024508D03*
X0016969Y-0012894D03*
X0010915Y-0021831D03*
X0001772Y0001988D03*
X0020433D03*
X-0019488Y-0007539D03*
Y0018839D03*
X-0019173Y-0001476D03*
X-0003031D03*
X0019803Y0019469D03*
X0019173Y0025453D03*
X0003661Y0007736D03*
Y0025768D03*
X-0019173Y0021988D03*
X-0003031D03*
X-0009016Y0020728D03*
X0009016D03*
X0020433Y0019469D03*
X0001772D03*
X0005866Y-0012894D03*
X0006811Y-0001791D03*
X-0014449Y0020413D03*
X0014449D03*
X0013504Y0007421D03*
Y0026083D03*
X-0019488Y-0011949D03*
X-0021063Y-0006722D03*
X0003346Y0022933D03*
X0018858D03*
X0014764Y0012776D03*
X-0014449Y0021673D03*
X0014449D03*
X-0017598Y-0013209D03*
Y0002303D03*
X0007441Y0007421D03*
Y0026083D03*
X0011644Y0029429D03*
X0003031Y0025453D03*
X0018543Y0008681D03*
Y0024823D03*
X0019488Y0023563D03*
X0004921Y-0002421D03*
Y0013720D03*
X0014764Y0007736D03*
Y0025768D03*
X-0009016Y0014035D03*
X0009016D03*
X0006181Y0008996D03*
Y0024508D03*
X0018228Y0007421D03*
Y0026083D03*
X-0019488Y-0010059D03*
X-0002087Y0020413D03*
X-0020118D03*
X-0018543Y0001673D03*
X-0012579Y0027470D03*
X-0008701Y0024823D03*
X0012736Y-0018504D03*
X0018543Y0025138D03*
X0001772Y0023878D03*
X0020433D03*
X0019173Y-0021201D03*
X0017224Y-0018898D03*
X-0016024Y0008996D03*
Y0024508D03*
X0019488Y0019783D03*
X-0009724Y0026102D03*
X-0010974Y0028681D03*
X0014764Y-0009429D03*
X0020433Y0020413D03*
X0001772D03*
X-0012441Y0026831D03*
X-0018858Y0020413D03*
X-0003346D03*
X0001772Y0024823D03*
X0020433D03*
X-0014449Y0023878D03*
X0014449D03*
X-0018543Y0007736D03*
Y0025768D03*
X0012874Y0019469D03*
X-0012874D03*
X-0014449Y0009626D03*
X0014449D03*
X-0015394Y0008996D03*
Y0024508D03*
X-0009331Y0019469D03*
X0009331D03*
X0008701Y0007421D03*
Y0026083D03*
X-0018228Y-0002421D03*
Y0013720D03*
X0013819Y0007736D03*
Y0025768D03*
X-0004291Y-0001791D03*
X-0005236Y0009311D03*
X0012874Y0020728D03*
X-0012874D03*
X0009843Y0027421D03*
X0002717Y0024508D03*
X-0013189Y0024193D03*
X0013189D03*
X-0007126Y0008681D03*
Y0024823D03*
X-0013189Y-0002421D03*
X0013189D03*
X-0016024Y0008681D03*
Y0024823D03*
X-0003661Y0007736D03*
Y0025768D03*
X0007441Y0007736D03*
Y0025768D03*
X-0008071Y0023878D03*
X0008071D03*
X0017598Y0008681D03*
Y0024823D03*
X-0018858Y-0012264D03*
X-0003346D03*
X-0020433Y0023878D03*
X-0001772D03*
X-0018858Y0023248D03*
X-0003346D03*
X-0009016Y0019469D03*
X0009016D03*
X-0006811Y-0014469D03*
Y0003563D03*
Y0007736D03*
Y0025768D03*
X0014449Y0022933D03*
X-0014449D03*
X0007126Y0007736D03*
Y0025768D03*
X-0020433Y0024823D03*
X-0001772D03*
X-0020433Y0021043D03*
X-0001772D03*
X0008071Y0007736D03*
Y0025768D03*
X-0008386Y-0003366D03*
Y0014665D03*
X-0019803Y-0008169D03*
X-0006811Y0008996D03*
Y0024508D03*
X-0013189Y0013720D03*
X0013189D03*
X0015709Y0008681D03*
Y0024823D03*
X-0020118Y0019783D03*
X-0002087D03*
X0003976Y0007736D03*
Y0025768D03*
X-0004606Y0008996D03*
Y0024508D03*
X-0013819Y0007421D03*
Y0026083D03*
X-0020118Y0025138D03*
X-0002087D03*
X-0013819Y-0014783D03*
Y0003878D03*
X-0020118Y0024193D03*
X-0002087D03*
X0009331Y-0012894D03*
X-0009331D03*
X-0004291Y0020098D03*
Y-0008799D03*
X0016024Y-0013524D03*
Y0002618D03*
X-0020433Y0024193D03*
X-0001772D03*
X0003661Y-0013524D03*
Y0002618D03*
X-0020433Y0025138D03*
X-0001772D03*
X-0017283Y-0013524D03*
Y0002618D03*
X0003031Y0023878D03*
X0019173D03*
X-0006181Y-0008799D03*
Y0020098D03*
X-0018543Y0007421D03*
Y0026083D03*
X0003346Y-0001161D03*
X0018858D03*
X0003031Y0022933D03*
X0019173D03*
X-0007441Y0007736D03*
Y0025768D03*
X-0019173Y0011831D03*
X-0003031D03*
X-0009016Y-0003051D03*
X0009016D03*
X0005236Y-0002106D03*
Y0013406D03*
X-0019173Y0013091D03*
X-0003031D03*
X-0020118Y0014350D03*
X-0002087D03*
X-0009016Y0019154D03*
X0009016D03*
X0003976Y-0002106D03*
Y0013406D03*
X-0020433Y0009626D03*
X-0001772D03*
X-0019173Y0010256D03*
X-0003031D03*
X-0003976Y-0002421D03*
Y0013720D03*
X-0018543Y-0003366D03*
Y0014665D03*
X0007756Y0012776D03*
X-0007756D03*
X-0008071Y0013091D03*
X0008071D03*
X-0014449Y-0002421D03*
Y0013720D03*
X0006811Y-0003366D03*
Y0014665D03*
X-0018858Y0010571D03*
X-0003346D03*
X0001772Y0009311D03*
X0020433D03*
X-0004291Y-0002106D03*
Y0013406D03*
X0001772Y0013091D03*
X0020433D03*
X0003661Y-0003366D03*
Y0014665D03*
X0004606Y-0002421D03*
Y0013720D03*
X-0020433Y0009311D03*
X-0001772D03*
X-0020433Y0013720D03*
X-0001772D03*
X-0019173Y0009626D03*
X-0003031D03*
X-0017283Y-0002421D03*
Y0013720D03*
X0002087Y0014350D03*
X0020118D03*
X-0019173Y0011516D03*
X-0003031D03*
X-0013819Y-0003366D03*
Y0014665D03*
X-0013504Y-0003681D03*
Y0014980D03*
X0008071Y-0003366D03*
Y0014665D03*
X0015079Y-0002421D03*
Y0013720D03*
X0004921Y0013406D03*
Y-0002106D03*
X0003346Y0013091D03*
X0018858D03*
X0017283Y-0002421D03*
Y0013720D03*
X0002087Y0009626D03*
X0020118D03*
X0001772Y0009941D03*
X0020433D03*
X0001772Y0013720D03*
X0020433D03*
X0003661Y-0002421D03*
Y0013720D03*
X0003031Y0010256D03*
X0019173D03*
X0001772Y0008681D03*
X0020433D03*
X0004606Y-0002106D03*
Y0013406D03*
X-0006181Y0024823D03*
Y0008681D03*
X0007126Y-0003366D03*
Y0014665D03*
Y-0003681D03*
Y0014980D03*
X0002402Y-0003681D03*
Y0014980D03*
X-0016969Y-0002106D03*
Y0013406D03*
X0002087Y0012776D03*
X0020118D03*
X0002717Y-0003681D03*
Y0014980D03*
X-0019173Y-0003366D03*
Y0014665D03*
X-0020433Y0012776D03*
X-0001772D03*
X-0009016Y0003248D03*
X0009016D03*
X0015079Y-0003366D03*
Y0014665D03*
X0008386Y-0003681D03*
Y0014980D03*
X0002087Y0008051D03*
X0020118D03*
X-0019803Y-0003681D03*
Y0014980D03*
X0003976Y-0003681D03*
Y0014980D03*
X0019488Y-0003366D03*
Y0014665D03*
X-0009331Y0020413D03*
X0009331D03*
X0019173Y-0003681D03*
Y0014980D03*
X-0019803Y-0010059D03*
X0003031Y0009626D03*
X0019173D03*
X-0004291Y0008996D03*
Y0024508D03*
X0001772Y0009626D03*
X0020433D03*
X0002717Y-0003366D03*
Y0014665D03*
X-0018858Y0012146D03*
X-0003346D03*
X0019803Y-0014783D03*
Y0003878D03*
X0008829Y0028051D03*
X0002717Y0025453D03*
X-0009331Y-0001476D03*
X0009331D03*
X0018543Y-0003366D03*
Y0014665D03*
X-0009016Y-0009429D03*
X0009016D03*
X0018228Y-0002421D03*
Y0013720D03*
X0006496Y-0013524D03*
Y0002618D03*
X0003976Y-0003366D03*
Y0014665D03*
X-0008071Y-0012894D03*
X0008071D03*
X0003661Y-0003681D03*
Y0014980D03*
X-0008071Y-0010059D03*
X0008071D03*
X-0009331Y-0012264D03*
X0009331D03*
X-0019488D03*
X-0021201Y-0006939D03*
X-0019173Y-0009429D03*
X-0003031D03*
X0017283Y0008996D03*
Y0024508D03*
X0005866Y0020098D03*
Y-0008799D03*
X0017283Y0008681D03*
Y0024823D03*
X0020551Y-0016850D03*
X-0013740Y0028002D03*
X-0008386Y0025453D03*
X-0003051Y-0017874D03*
X0001506Y0012933D03*
X0003661Y0012776D03*
X-0007756Y-0000846D03*
X0007756D03*
X-0014449Y0023248D03*
X0014449D03*
X0017913Y0020098D03*
Y-0008799D03*
X0019803Y0025138D03*
X-0013189Y0001673D03*
X0013189D03*
X-0019803Y-0014783D03*
Y0003878D03*
X0004606Y0008681D03*
Y0024823D03*
X0007756Y0008681D03*
Y0024823D03*
X0006811Y0007736D03*
Y0025768D03*
X-0014134Y-0010374D03*
X0014134D03*
X0002087Y0003248D03*
X0020118D03*
X-0007441Y0023563D03*
X0014134Y-0014783D03*
Y0003878D03*
X0016024Y0008681D03*
Y0024823D03*
X-0019173Y-0014154D03*
X-0003661Y0009626D03*
X-0005551Y0007736D03*
X-0009941Y-0017874D03*
X-0011240D03*
X-0012500Y0007638D03*
X-0014764Y0009626D03*
X0010197Y0026801D03*
X0007126Y-0014469D03*
Y0003563D03*
X0019803Y0024508D03*
X-0018858Y-0009429D03*
X-0003346D03*
X0017913Y0007736D03*
Y0025768D03*
X-0013189Y-0012894D03*
X0013189D03*
X0014134Y0023878D03*
X-0014134D03*
X-0018543Y0008681D03*
Y0024823D03*
X0019173Y-0003366D03*
Y0014665D03*
X0003346Y0000728D03*
X0018858D03*
X0019488Y0021358D03*
X0007441Y-0013524D03*
Y0002618D03*
X-0004921Y-0013209D03*
Y0002303D03*
X0018543Y0009626D03*
X-0005374Y-0017874D03*
X-0016024Y-0002421D03*
Y0013720D03*
X0008386Y0007421D03*
Y0026083D03*
X0003031Y-0001791D03*
X0019173D03*
X0003031Y0021988D03*
X0019173D03*
X0003031Y0013091D03*
X0019173D03*
X0013504Y-0003681D03*
Y0014980D03*
X-0002717Y0007736D03*
Y0025768D03*
X-0007756Y0023248D03*
X0007756D03*
X0012874Y0009311D03*
X-0012874D03*
X0017598Y-0002106D03*
Y0013406D03*
X0014449Y0012776D03*
X-0014449D03*
X0012874Y0008681D03*
X-0012874D03*
X-0014134Y0009311D03*
X0014134D03*
X0016024Y0013406D03*
Y-0002106D03*
X0002087Y0014035D03*
X0020118D03*
X-0013189D03*
X0013189D03*
X0018543Y-0007224D03*
Y0018524D03*
X-0003976Y-0014783D03*
Y0003878D03*
X0003346Y0023563D03*
X0018858D03*
X-0005236Y0020098D03*
Y-0008799D03*
X-0004291Y0009311D03*
X-0005236Y0020413D03*
X0018228Y-0002106D03*
Y0013406D03*
X0003661Y-0014783D03*
Y0003878D03*
X-0005236Y-0001791D03*
X-0004291Y-0012894D03*
X0018780Y-0019114D03*
X0017224Y-0017913D03*
X-0018228Y-0003366D03*
Y0014665D03*
X0018543Y-0002421D03*
Y0013720D03*
X0006220Y0027047D03*
X0006496Y-0002106D03*
Y0013406D03*
X0019173Y0019469D03*
X0003661Y0023563D03*
X-0008071Y0001043D03*
X0008071D03*
X0001772Y0008366D03*
X0020433D03*
X-0004882Y-0006260D03*
X-0019173Y-0000531D03*
X-0003031D03*
X-0018543Y0002303D03*
X0004291Y-0002106D03*
Y0013406D03*
X0003346Y-0009429D03*
X0018858D03*
X-0017283Y0008996D03*
Y0024508D03*
X0003031Y-0007539D03*
Y0018839D03*
X-0018858Y-0001476D03*
X-0003346D03*
X0014764Y-0013524D03*
Y0002618D03*
X-0020433D03*
X-0001772D03*
X-0015709Y0019783D03*
Y-0008484D03*
X-0006496Y0020098D03*
Y-0008799D03*
X-0002402Y-0014783D03*
Y0003878D03*
X0003346Y0021043D03*
X0018858D03*
X0019488Y-0014469D03*
Y0003563D03*
X-0009016Y-0001791D03*
X0009016D03*
X-0017323Y0027047D03*
X-0018543Y0013406D03*
X0014449Y0024193D03*
X-0014449D03*
X-0019488Y-0003681D03*
Y0014980D03*
X0002087Y0002618D03*
X0020118D03*
X-0009331Y0023563D03*
X0009331D03*
X-0002717Y0007421D03*
Y0026083D03*
X-0013189Y0009311D03*
X0013189D03*
X0008071Y-0003681D03*
Y0014980D03*
X0007441Y-0003366D03*
Y0014665D03*
X-0013189Y0008681D03*
X0013189D03*
X-0008071Y0021358D03*
X0008071D03*
X-0013189Y0008366D03*
X0013189D03*
X0004291Y0020098D03*
Y-0008799D03*
X0001772Y0014035D03*
X0020433D03*
X0015394Y-0003366D03*
Y0014665D03*
X0013819Y-0003366D03*
Y0014665D03*
X-0014449Y0010571D03*
X0014449D03*
X-0014134D03*
X0014134D03*
X-0019173Y0012146D03*
X-0003031D03*
X-0009331Y0024193D03*
X0009331D03*
X0002087Y0008681D03*
X0020118D03*
X0003031Y0012776D03*
X0019173D03*
X0006181Y-0008484D03*
Y0019783D03*
X0007126Y0008681D03*
Y0024823D03*
X-0017913Y0008996D03*
Y0024508D03*
X-0004291Y0007736D03*
Y0025768D03*
X0007126Y-0002106D03*
Y0013406D03*
X-0018858Y0010256D03*
X-0003346D03*
X0007441Y-0002421D03*
Y0013720D03*
X-0007441Y-0007539D03*
Y0018839D03*
X-0007756Y-0012264D03*
X0007756D03*
X0006811Y-0002106D03*
Y0013406D03*
X-0014134Y0012146D03*
X0014134D03*
X0018858Y0025453D03*
X0015394Y-0002106D03*
Y0013406D03*
X0003346Y0009626D03*
X0018858D03*
X-0003661Y0019783D03*
Y-0008484D03*
X0018228Y-0008799D03*
Y0020098D03*
X-0020118Y0009626D03*
X-0002087D03*
X0003031Y0021358D03*
X0019173D03*
X-0015709Y-0002106D03*
Y0013406D03*
X0014134Y0021358D03*
X-0014134D03*
X0003031Y-0009114D03*
X0019173D03*
X0004882Y0027047D03*
X-0014134Y-0003681D03*
Y0014980D03*
X0014449Y-0012264D03*
X-0014449D03*
X-0018858Y0021358D03*
X-0003346D03*
X0002717Y-0014783D03*
Y0003878D03*
X-0007756Y-0011634D03*
X0007756D03*
X-0008071Y-0014469D03*
Y0003563D03*
X0014764Y0023563D03*
X0014134Y-0000846D03*
X-0014134D03*
X0006220Y0015945D03*
X-0009016Y0020413D03*
X0009016D03*
X-0019173Y-0014469D03*
Y0003563D03*
X-0007756Y0021673D03*
X0007756D03*
X-0004921Y0008996D03*
Y0024508D03*
X-0004606Y0008681D03*
Y0024823D03*
X-0007441Y0007421D03*
Y0026083D03*
X0003976Y0008996D03*
Y0024508D03*
X-0018228Y-0014469D03*
Y0003563D03*
X-0018858Y-0001161D03*
X-0003346D03*
X0018543Y-0008484D03*
Y0019783D03*
X-0009331D03*
X0009331D03*
X-0019173Y0021358D03*
X-0003031D03*
X-0002402Y0007421D03*
Y0026083D03*
X-0018858Y0024193D03*
X-0003346D03*
X-0020433Y0019469D03*
X-0001772D03*
X0002087Y-0001476D03*
X0020118D03*
X-0015709Y0008996D03*
Y0024508D03*
X-0018543Y0019783D03*
Y-0008484D03*
X-0017598Y-0002106D03*
Y0013406D03*
X0003031Y0012146D03*
X0019173D03*
X-0003976Y0008681D03*
Y0024823D03*
X-0003661Y0008681D03*
Y0024823D03*
X-0014449Y0008681D03*
Y0024823D03*
X-0013189Y0009626D03*
X0013189D03*
X-0009331Y-0008484D03*
X0009331D03*
X-0003976Y0026083D03*
Y0007421D03*
X-0007756Y0020413D03*
X0007756D03*
X0016024Y-0002421D03*
Y0013720D03*
X-0015984Y-0006260D03*
X0003976Y0007421D03*
Y0026083D03*
X-0017598Y0008681D03*
Y0024823D03*
X0014134Y-0003681D03*
Y0014980D03*
X0018228Y-0003366D03*
Y0014665D03*
X0016024Y0019783D03*
Y-0008484D03*
X-0019173Y-0014783D03*
Y0003878D03*
X-0012874Y0001673D03*
X0012874D03*
X0003346Y0008681D03*
Y0024823D03*
X0012874Y0001988D03*
X-0012874D03*
X-0014449Y0009311D03*
X0014449D03*
X0004291Y-0014469D03*
Y0003563D03*
X-0013189Y0013091D03*
X0013189D03*
X-0009331Y0025138D03*
X0009331D03*
X0012874Y0013091D03*
X-0012874D03*
X0004882Y0004843D03*
X-0013189Y0001988D03*
X0013189D03*
X0013504Y-0014783D03*
Y0003878D03*
X-0004921Y-0002421D03*
Y0013720D03*
X0018543Y-0013524D03*
Y0002618D03*
X-0014449Y-0001791D03*
X0014449D03*
X-0015079Y0007421D03*
Y0026083D03*
X0012874Y0002618D03*
X-0012874D03*
X-0006181Y0008996D03*
Y0024508D03*
X-0017283Y0024823D03*
Y0008681D03*
X0013819Y-0014783D03*
Y0003878D03*
X-0006181Y-0013524D03*
Y0002618D03*
X-0003661Y0020728D03*
X-0009675Y0018839D03*
X-0010256Y-0017874D03*
X-0009016Y-0002736D03*
X0009016D03*
X-0018228Y0003878D03*
Y-0014783D03*
X0014134Y0013091D03*
X-0014134D03*
X0008071Y-0014783D03*
Y0003878D03*
X0014764Y-0003366D03*
Y0014665D03*
X-0015079Y-0013524D03*
Y0002618D03*
X-0003031Y-0014469D03*
Y0003563D03*
X-0017323Y-0006260D03*
X-0018858Y-0000531D03*
X-0003346D03*
X-0005236Y0008996D03*
Y0024508D03*
X0014134Y0024193D03*
X-0014134D03*
X-0015079Y0007736D03*
Y0025768D03*
X-0014764Y0007421D03*
Y0026083D03*
X-0008071Y0007421D03*
Y0026083D03*
X-0007756Y-0013524D03*
Y0002618D03*
X-0009016Y-0008484D03*
X0009016D03*
X-0018858Y-0013524D03*
Y0002618D03*
X-0009331Y0002933D03*
X0009331D03*
X0016969Y0009311D03*
X0017913Y-0001791D03*
X0004291Y0008996D03*
Y0024508D03*
X-0016024Y-0013209D03*
Y0002303D03*
X-0001772Y0019783D03*
X-0020433D03*
X-0007756Y0023563D03*
X0007756D03*
X0014134Y0010256D03*
X-0014134D03*
X-0013189Y0012776D03*
X0013189D03*
X-0009331Y0023878D03*
X0009331D03*
X0014449Y0011831D03*
X-0014449D03*
X0003346Y-0000531D03*
X0018858D03*
X-0003031Y0007421D03*
Y0026083D03*
X-0016339Y0020413D03*
X-0004291D03*
X-0013189Y-0008484D03*
X0013189D03*
X0003031Y0020413D03*
X0019173D03*
X-0007756Y0008681D03*
Y0024823D03*
X0007441Y0009626D03*
X0009016Y0009941D03*
X-0007303Y-0017874D03*
X0019173Y0019154D03*
X0008071Y0011516D03*
X-0008071D03*
X-0014134Y0007736D03*
Y0025768D03*
X0003031Y0025138D03*
X0008829Y0028248D03*
X0005236Y0008996D03*
Y0024508D03*
X0006181Y-0002421D03*
Y0013720D03*
X-0012874Y0001358D03*
X0012874D03*
X0015709Y0020098D03*
Y-0008799D03*
X0018858Y0025138D03*
X0011644Y0028642D03*
X0015079Y-0014783D03*
Y0003878D03*
X0018543Y0019469D03*
X0002087Y0013720D03*
X0020118D03*
X-0020118Y0001673D03*
X-0002087D03*
X0015984Y0027047D03*
X-0015709Y-0013209D03*
Y0002303D03*
X-0002717Y-0003681D03*
Y0014980D03*
X-0009331Y0013720D03*
X0009331D03*
X-0018858Y0001988D03*
X-0003346D03*
X0018543Y0007736D03*
Y0025768D03*
X0006181Y-0002106D03*
Y0013406D03*
X0016969Y-0013209D03*
Y0002303D03*
X-0010965Y0026831D03*
X0014449Y0021043D03*
X-0014449D03*
X-0009331Y0009626D03*
X0009331D03*
X-0003661Y-0014783D03*
Y0003878D03*
X-0015394Y-0003366D03*
Y0014665D03*
X0017598Y0019783D03*
Y-0008484D03*
X-0009331Y0021043D03*
X0009331D03*
X0018228Y-0013209D03*
Y0002303D03*
X0001772Y0012776D03*
X0020433D03*
X0002087Y0013091D03*
X0020118D03*
X-0007126Y-0008484D03*
Y0019783D03*
X-0008071Y-0010689D03*
X0008071D03*
X0002402Y-0014783D03*
Y0003878D03*
X0008071Y0009311D03*
X-0008071D03*
X-0019488Y-0013209D03*
X-0021772Y-0006939D03*
X-0015079Y-0013209D03*
Y0002303D03*
X-0003976Y0008996D03*
Y0024508D03*
X0006220Y0004843D03*
X-0006496Y0008681D03*
Y0024823D03*
X0018228Y-0003681D03*
Y0014980D03*
X0017224Y-0019685D03*
X0018248Y-0020256D03*
X-0008071Y0022933D03*
X0008071D03*
X-0009016Y-0012579D03*
X0009016D03*
X-0008071Y0023248D03*
X0008071D03*
X0012874Y0019783D03*
X-0012874D03*
X-0014449Y0012146D03*
X0014449D03*
X-0008071Y-0000846D03*
X0008071D03*
X-0017913Y-0013209D03*
Y0002303D03*
X-0018858Y0000728D03*
X-0003346D03*
X0007126Y-0013524D03*
Y0002618D03*
X-0009016Y0001673D03*
X0009016D03*
X-0014134Y0009626D03*
X0014134D03*
X-0020433Y0002933D03*
X-0001772D03*
X0005866Y-0002106D03*
Y0013406D03*
X-0019173Y0021673D03*
X-0003031D03*
X-0020118Y0019154D03*
X-0002087D03*
X0003031Y0020728D03*
X0019173D03*
X-0005866Y0008996D03*
Y0024508D03*
X0013189Y0014350D03*
X-0013189D03*
X0009331Y-0002421D03*
X-0009331D03*
X0003976Y-0014469D03*
Y0003563D03*
X0018543Y-0003681D03*
Y0014980D03*
X-0007756Y0001988D03*
X0007756D03*
X0014449D03*
X-0014449D03*
X-0007126Y0007421D03*
Y0026083D03*
Y0008996D03*
Y0024508D03*
X-0003031Y0007736D03*
Y0025768D03*
X0012874Y0009626D03*
X-0012874D03*
X-0009331Y0013091D03*
X0009331D03*
X0017913Y-0013209D03*
Y0002303D03*
X0007756Y0022933D03*
X-0007756D03*
X0018543Y-0001476D03*
X-0005689Y-0017874D03*
X-0019488Y-0003366D03*
Y0014665D03*
X-0014134Y0010886D03*
X0014134D03*
X-0013189Y0020413D03*
X0013189D03*
X-0018858Y-0012894D03*
X-0003346D03*
X-0019173Y0020728D03*
X-0003031D03*
X0012874Y0013720D03*
X-0012874D03*
X0008386Y0007736D03*
Y0025768D03*
X-0008386Y0007736D03*
Y0025768D03*
X-0009016Y0023878D03*
X0009016D03*
X0001772Y0021043D03*
X0020433D03*
X-0003976Y-0003366D03*
Y0014665D03*
X-0018858Y0022933D03*
X-0003346D03*
X0007756Y-0013524D03*
Y0002618D03*
X0012874Y0009941D03*
X-0012874D03*
X-0008701Y0007421D03*
Y0026083D03*
X-0018858Y-0002421D03*
Y0013720D03*
X-0003346Y0008681D03*
Y0024823D03*
X0006496Y0008996D03*
Y0024508D03*
X0008386Y-0003366D03*
Y0014665D03*
X0002087Y0008366D03*
X0020118D03*
X0013819Y-0003681D03*
Y0014980D03*
X0012874Y0014035D03*
X-0012874D03*
X0014449Y0010256D03*
X-0014449D03*
Y0020728D03*
X0014449D03*
X-0019173Y0022933D03*
X-0003031D03*
X0016969Y0008996D03*
Y0024508D03*
X0007756Y0020728D03*
X-0007756D03*
X-0013189Y0002933D03*
X0013189D03*
X-0007441Y0008681D03*
Y0024823D03*
X-0012874Y0012776D03*
X0012874D03*
X-0013504Y-0014783D03*
Y0003878D03*
X-0003661Y-0013524D03*
Y0002618D03*
X-0020433Y-0001476D03*
X-0001772D03*
X-0007756Y0000728D03*
X0007756D03*
X0003031Y-0000846D03*
X0019173D03*
X0012874Y-0008484D03*
X-0012874D03*
X-0009016Y0024193D03*
X0009016D03*
X-0004606Y-0008484D03*
Y0019783D03*
X0016024Y0024508D03*
Y0008996D03*
X0014764Y-0002421D03*
Y0013720D03*
X-0003661Y-0003681D03*
Y0014980D03*
X0018228Y-0013524D03*
Y0002618D03*
X-0014764Y-0014469D03*
Y0003563D03*
X-0009016Y0025453D03*
X0009016D03*
X-0014764Y0007736D03*
Y0025768D03*
X-0018858Y0001673D03*
X-0003346D03*
X-0007441Y-0009744D03*
X-0007756Y0001358D03*
X0007756D03*
X0019173Y0007736D03*
Y0025768D03*
X0008071Y0020413D03*
X-0008071D03*
X0017323Y-0006260D03*
X-0008386Y-0014469D03*
Y0003563D03*
X0007756Y-0002421D03*
Y0013720D03*
X0019803Y0020098D03*
X-0004606Y-0002106D03*
Y0013406D03*
X0003346Y0012146D03*
X0018858D03*
X-0019173Y0010571D03*
X-0003031D03*
X-0018858Y0009311D03*
X-0003346D03*
X-0008386Y0024193D03*
X0015709Y0008996D03*
Y0024508D03*
X0012874Y0025138D03*
X-0012874D03*
X0013189Y0019154D03*
X-0013189D03*
X-0012972Y0027470D03*
X-0008701Y0023563D03*
X0007756Y-0009429D03*
X-0007756D03*
X0003031Y0007421D03*
Y0026083D03*
X-0004291Y-0003366D03*
Y0014665D03*
X-0003661Y-0014469D03*
Y0003563D03*
X-0019173Y0022618D03*
X-0003031D03*
X0015709Y-0013209D03*
Y0002303D03*
X-0014764Y0008681D03*
Y0024823D03*
X-0013789Y0028681D03*
X-0008386Y0024823D03*
X0002087Y0019154D03*
X0020118D03*
X0017323Y0027047D03*
X-0017598Y0008996D03*
Y0024508D03*
X0001772Y0020728D03*
X0020433D03*
X-0020118Y0019469D03*
X-0002087D03*
X-0009016Y0025138D03*
X0009016D03*
X0008071Y0024193D03*
X-0008071D03*
X-0003661Y-0002421D03*
Y0013720D03*
X-0018858Y0021673D03*
X-0003346D03*
X-0020433Y-0001791D03*
X-0001772D03*
X0012874Y-0012579D03*
X-0012874D03*
X-0019173Y-0003681D03*
Y0014980D03*
X-0008071Y0011831D03*
X0008071D03*
X0008386Y-0014469D03*
Y0003563D03*
X-0018543Y-0007224D03*
Y0018524D03*
X0001772Y-0009429D03*
X0020433D03*
X-0019173Y0023248D03*
X-0003031D03*
X0003976Y0008681D03*
Y0024823D03*
X0004606Y-0013209D03*
Y0002303D03*
X-0007126Y-0003681D03*
Y0014980D03*
X-0014134Y0022618D03*
X0014134D03*
X-0009016Y-0008169D03*
X0009016D03*
X-0019803Y-0013209D03*
X-0021919Y-0006732D03*
X0015079Y0007736D03*
Y0025768D03*
X-0020433Y0008681D03*
X-0001772D03*
X0007441Y-0003681D03*
Y0014980D03*
X-0018228Y0008996D03*
Y0024508D03*
X-0009016Y-0002421D03*
X0009016D03*
X0003031Y0001988D03*
X0019173D03*
X-0004921Y0024823D03*
Y0008681D03*
X0002087Y-0008484D03*
X0020118D03*
X-0008071Y0025453D03*
X-0010974Y0029469D03*
X-0018228Y-0007539D03*
Y0018839D03*
X0019488Y0020413D03*
Y0024508D03*
X0020118Y0019783D03*
X0002087D03*
X-0011870Y-0017874D03*
X-0012608Y-0014469D03*
X-0014764Y-0012579D03*
X-0008071Y0021988D03*
X0008071D03*
X-0015079Y0008681D03*
Y0024823D03*
X-0014134Y0020728D03*
X0014134D03*
X0007441Y-0012579D03*
X0009675Y-0012894D03*
X-0006673Y-0017874D03*
X0015079Y-0008484D03*
Y0019783D03*
X-0018543Y-0009429D03*
X0018228Y0008996D03*
Y0024508D03*
X0010039Y0027431D03*
X0002402Y0024823D03*
X-0018858Y-0011949D03*
X-0003346D03*
X0018228Y-0008484D03*
Y0019783D03*
X-0018858Y0023563D03*
X-0003346D03*
X-0019803Y-0011949D03*
X-0020925Y-0006929D03*
X0018858Y0019783D03*
Y-0008484D03*
X-0009331Y0008366D03*
X0009331D03*
X0017913Y0008996D03*
Y0024508D03*
X-0014134Y0021673D03*
X0014134D03*
X-0015079Y0008996D03*
Y0024508D03*
X0019488Y0025453D03*
X-0008386Y0023248D03*
X-0013169Y0027195D03*
X0002402Y0007421D03*
Y0026083D03*
X0003346Y0024193D03*
X0018858D03*
X0016339Y0008996D03*
Y0024508D03*
X0007441Y0008681D03*
Y0024823D03*
X-0014449Y-0000531D03*
X0014449D03*
X0014134Y0007421D03*
Y0026083D03*
X0007126Y-0002421D03*
Y0013720D03*
X0002087Y0025138D03*
X0020118D03*
X-0007126Y0020098D03*
Y-0008799D03*
X-0013189Y0019783D03*
X0013189D03*
X0014764Y0008681D03*
Y0024823D03*
X-0013189Y0019469D03*
X0013189D03*
X0005866Y0008996D03*
Y0024508D03*
X-0004921Y-0002106D03*
Y0013406D03*
X-0018858Y0008681D03*
Y0024823D03*
X0020118Y0019469D03*
X0002087D03*
X0018228Y0008681D03*
Y0024823D03*
X-0014134Y0021988D03*
X0014134D03*
X0002717Y0007421D03*
Y0026083D03*
X0012736Y-0018110D03*
X0019803Y-0003681D03*
Y0014980D03*
X0003031Y0023248D03*
X0019173D03*
X0020433Y0019783D03*
X0001772D03*
X-0020118Y0014035D03*
X-0002087D03*
X-0020118Y0023878D03*
X-0002087D03*
X-0014764Y-0003366D03*
Y0014665D03*
X0006181Y0008681D03*
Y0024823D03*
X-0020433Y0020413D03*
X-0001772D03*
X-0020118Y-0002736D03*
X-0002087D03*
X-0014449Y-0012894D03*
X0014449D03*
X0007126Y0008996D03*
Y0024508D03*
X0012736Y-0018307D03*
X-0019488Y0007421D03*
Y0026083D03*
X0003661Y0007421D03*
Y0026083D03*
X-0009331Y0009311D03*
X0009331D03*
X0002717Y0007736D03*
Y0025768D03*
X-0020118Y0020728D03*
X-0002087D03*
X-0018858D03*
X-0003346D03*
X-0006181Y0013406D03*
Y-0002106D03*
X-0009331Y0014035D03*
X0009331D03*
X0012736Y-0018898D03*
X0015394Y0020098D03*
Y-0008799D03*
X0003031Y0007736D03*
Y0025768D03*
X0019488Y0007736D03*
Y0025768D03*
X0003346Y0021673D03*
X0018858D03*
X-0009331Y0008681D03*
X0009331D03*
X0019173Y0007421D03*
Y0026083D03*
X-0018858Y0009941D03*
X-0003346D03*
X0015079Y0008681D03*
Y0024823D03*
X0014764Y0018524D03*
Y-0007224D03*
X0002087Y0020728D03*
X0020118D03*
X-0019173Y0007736D03*
Y0025768D03*
X0007126Y0026083D03*
Y0007421D03*
X-0018858Y0011831D03*
X-0003346D03*
X-0008071Y0012776D03*
X0008071D03*
X0003346Y-0000846D03*
X0018858D03*
X-0007126Y-0007539D03*
Y0018839D03*
X0003661Y0001358D03*
X-0013189Y-0009114D03*
X0013189D03*
X-0004606Y-0013524D03*
Y0002618D03*
X-0002717Y-0003366D03*
Y0014665D03*
X-0019488Y-0009744D03*
X0017283Y-0008799D03*
Y0020098D03*
X-0005236Y-0013209D03*
Y0002303D03*
X-0018543Y-0014469D03*
Y0003563D03*
X-0007756Y-0001791D03*
X0007756D03*
X-0020118Y-0003051D03*
X-0002087D03*
X-0020118Y0024823D03*
X-0002087D03*
X-0006220Y0015945D03*
X0006181Y-0013209D03*
Y0002303D03*
X-0004606Y-0013209D03*
Y0002303D03*
X0007441Y-0014783D03*
Y0003878D03*
X-0015394Y-0013209D03*
Y0002303D03*
X-0002717Y-0014469D03*
Y0003563D03*
X0002087Y-0001791D03*
X0020118D03*
X-0007756Y0001673D03*
X0007756D03*
X0006181Y0002618D03*
Y-0013524D03*
X-0013819Y-0007224D03*
Y0018524D03*
X-0017323Y0004843D03*
X-0018858Y0013091D03*
X-0003346D03*
X-0018543Y-0003681D03*
Y0014980D03*
X-0009331Y0001358D03*
X0009331D03*
X0014764Y0002303D03*
X-0018543Y0012776D03*
X0018543Y0023563D03*
X-0003031Y-0014783D03*
Y0003878D03*
X0003031Y0024508D03*
X0015079Y0020098D03*
Y-0008799D03*
X-0005866Y-0002106D03*
Y0013406D03*
X-0015079Y-0003366D03*
Y0014665D03*
X0003661Y-0014469D03*
Y0003563D03*
X0003346Y0001673D03*
X0018858D03*
X-0019173D03*
X-0003031D03*
X0007441Y-0014469D03*
Y0003563D03*
X0014449Y-0001161D03*
X-0014449D03*
X-0020118Y0003248D03*
X-0002087D03*
X-0014449Y-0001476D03*
X0014449D03*
X0015394Y-0013209D03*
Y0002303D03*
X-0007756Y0009941D03*
X0007756D03*
X-0008071Y0001988D03*
X0008071D03*
X0006811Y-0013209D03*
Y0002303D03*
X-0008386Y-0014783D03*
Y0003878D03*
X-0014134Y-0001476D03*
X0014134D03*
X-0009331Y0001673D03*
X0009331D03*
X0007126Y-0014783D03*
Y0003878D03*
X-0008071Y-0011319D03*
X0008071D03*
X-0008071Y-0010374D03*
X0008071D03*
X-0008071Y-0000531D03*
X0008071D03*
X0012874Y-0001161D03*
X-0012874D03*
X0014134Y0001673D03*
X-0014134D03*
X0001772Y0012461D03*
X0020433D03*
X0003031Y-0014469D03*
Y0003563D03*
Y-0001476D03*
X0019173D03*
X0004291Y0007736D03*
Y0025768D03*
X0002087Y-0002421D03*
X0020118D03*
X-0019803Y-0009744D03*
X0015984Y0015945D03*
X-0007441Y0012776D03*
X-0016339Y0008996D03*
Y0024508D03*
X-0018543Y0023563D03*
X0015079Y-0002106D03*
Y0013406D03*
X0019173Y-0007539D03*
Y0018839D03*
X0013504Y-0007224D03*
Y0018524D03*
X-0020433Y-0002736D03*
X-0001772D03*
X-0019173Y-0000217D03*
X-0003031D03*
X-0008386Y-0003681D03*
Y0014980D03*
X0018976Y-0019114D03*
X0017224Y-0020669D03*
X0002087Y0001988D03*
X0020118D03*
X-0020118D03*
X-0002087D03*
X-0014134Y-0014783D03*
Y0003878D03*
X-0009016Y0001988D03*
X0009016D03*
X0018858Y0008681D03*
Y0024823D03*
X0018248Y-0020453D03*
X0017224Y-0019488D03*
X-0007756Y0010571D03*
X0007756D03*
X0003031Y0011831D03*
X0019173D03*
X-0015079Y-0003681D03*
Y0014980D03*
X-0021486Y-0006939D03*
X-0019803Y-0012579D03*
X-0019173Y0000728D03*
X-0003031D03*
X-0017283Y0013406D03*
Y-0002106D03*
X0007756Y-0001476D03*
X-0007756D03*
X-0003976Y-0003681D03*
Y0014980D03*
X0002402Y0023248D03*
X-0011988Y0030285D03*
X-0009636Y0030118D03*
X0017323Y0015945D03*
X-0009016Y-0001476D03*
X0009016D03*
X0003031Y-0000217D03*
X0019173D03*
X-0014134Y-0000531D03*
X0014134D03*
X0015394Y-0014469D03*
Y0003563D03*
X-0014134Y-0014469D03*
Y0003563D03*
X-0019173Y-0010059D03*
X-0003031D03*
X0001772Y0001673D03*
X0020433D03*
X-0009331Y0012776D03*
X0009331D03*
X0015079Y-0007224D03*
Y0018524D03*
X-0003976D03*
Y-0007224D03*
X0016969Y0020413D03*
X0017913Y0009311D03*
X0003346Y-0013524D03*
Y0002618D03*
X-0014449Y-0011634D03*
X0014449D03*
X0003346Y0012776D03*
X0018858D03*
X-0008071Y0010571D03*
X0008071D03*
X-0014134Y0022933D03*
X0014134D03*
X0014764Y0024508D03*
X0014449Y0022618D03*
X0017224Y0030413D03*
X0012874Y0024823D03*
X-0012874D03*
X0011506Y-0015531D03*
X0018543Y0023878D03*
X0002402Y0025138D03*
X-0019488Y-0008484D03*
X-0019803D03*
X0003661Y0013406D03*
X-0015984Y0004843D03*
X-0020118Y-0002421D03*
X-0002087D03*
X-0013189Y0024823D03*
X0013189D03*
G54D91*
X-0022756Y-0024449D03*
Y-0021220D03*
G54D95*
X0016594Y-0033665D03*
Y-0034665D03*
X-0020252Y-0019567D03*
X-0019252D03*
X-0018252D03*
X-0022252D03*
G54D99*
X-0022756Y-0023622D03*
Y-0022835D03*
Y-0022047D03*
G54D110*
X0016614Y-0030630D03*
X0016594Y-0031665D03*
G54D115*
X0017224Y-0018504D03*
X0005000Y-0027913D03*
X0006024Y-0028425D03*
X0005512Y-0028937D03*
X0004488Y-0028425D03*
Y-0028937D03*
X0006024D03*
X0005512Y-0028425D03*
X0005000D03*
X0005512Y-0027913D03*
X0005000Y-0028937D03*
Y-0029961D03*
X0006024Y-0027913D03*
X0004488Y-0029961D03*
X0006024D03*
Y-0029449D03*
X0005000D03*
X0004488Y-0027913D03*
Y-0029449D03*
X0005512Y-0029961D03*
Y-0029449D03*
X0000000Y0005630D03*
G54D116*
X0018169Y-0028465D03*
Y-0027953D03*
Y-0027441D03*
Y-0026929D03*
Y-0026417D03*
X0017657Y-0027953D03*
Y-0027441D03*
Y-0026929D03*
Y-0026417D03*
Y-0028465D03*
X0017146D03*
Y-0027953D03*
Y-0027441D03*
Y-0026929D03*
Y-0026417D03*
X0016634Y-0028465D03*
Y-0027953D03*
Y-0027441D03*
Y-0026929D03*
Y-0026417D03*
X-0016476Y-0024094D03*
X-0016102D03*
X-0016476Y-0024469D03*
X-0016102D03*
X-0012657Y0028583D03*
X-0012028D03*
X-0012657Y0029252D03*
X-0012028D03*
X0009902Y0028524D03*
Y0029173D03*
X0010512D03*
Y0028524D03*
X-0016496Y-0034252D03*
Y-0033858D03*
Y-0033465D03*
Y-0034646D03*
Y-0035039D03*
X-0016102Y-0033465D03*
Y-0033858D03*
Y-0034252D03*
Y-0034646D03*
Y-0035039D03*
X-0011339Y-0029016D03*
X-0011732D03*
X-0012126D03*
X-0012520D03*
X-0012913D03*
X-0011339Y-0029409D03*
X-0011732D03*
X-0012126D03*
X-0012520D03*
X-0012913D03*
X0022756Y-0025413D03*
Y-0025059D03*
Y-0024705D03*
Y-0024350D03*
Y-0023996D03*
X0023150Y-0025413D03*
Y-0025059D03*
Y-0023996D03*
Y-0024705D03*
Y-0024350D03*
G54D119*
X0007051Y-0024559D03*
X0002051D03*
X0000799D03*
X-0000453D03*
G54D121*
X-0005453Y-0033307D03*
Y-0029559D03*
Y-0025811D03*
X-0000453Y-0034559D03*
X0000799D03*
X0002051D03*
X0007051D03*
G54D122*
X0011915Y-0028103D03*
Y-0026853D03*
Y-0025603D03*
Y-0024353D03*
X0019415D03*
Y-0028103D03*
G54D128*
X0012500Y0017165D03*
X0014055Y0016752D03*
X0018543Y0021673D03*
X0014764Y0023248D03*
X0019252Y0005610D03*
X0016024Y-0009114D03*
X0015709D03*
X0014055Y-0005453D03*
X0016024Y0001988D03*
X0017283D03*
X0017598D03*
X0017913D03*
X0018543Y0001043D03*
Y-0000846D03*
Y-0000531D03*
Y0000728D03*
X0016024Y-0001791D03*
X0015709D03*
X0017283D03*
X0014764Y-0000846D03*
X0017283Y-0009114D03*
X0017598D03*
X0017913D03*
X0018543Y-0010059D03*
Y-0010374D03*
Y-0011634D03*
X0014764Y-0010059D03*
Y-0010374D03*
Y-0011634D03*
X0016024Y-0012894D03*
X0014764Y-0011949D03*
X-0009705Y-0005866D03*
X-0006181Y-0009114D03*
X-0006496D03*
X-0008150Y-0005453D03*
Y0005610D03*
X-0006181Y0001988D03*
X-0006496D03*
X-0006181Y0009311D03*
X-0006496D03*
X-0007441Y0012146D03*
Y0011831D03*
Y0010571D03*
Y0010256D03*
X-0004921Y0009311D03*
X-0003661Y0010571D03*
Y0010256D03*
Y0011831D03*
Y0012146D03*
X-0004921Y0013091D03*
X-0004606D03*
X-0004291D03*
X-0003661Y0021358D03*
Y0021673D03*
Y0022933D03*
Y0023248D03*
X-0004921Y0024193D03*
X-0004606D03*
X-0006181D03*
X-0007441Y0023248D03*
Y0022933D03*
Y0021673D03*
Y0021358D03*
X-0006181Y0020413D03*
X-0006496D03*
X-0004921D03*
X-0014055Y-0015394D03*
X-0002953Y0026693D03*
X-0004291Y0024193D03*
X-0008150Y0026693D03*
X-0006496Y0024193D03*
X-0002953Y0016752D03*
X-0004606Y0020413D03*
X-0004921Y0001988D03*
X-0004606D03*
X-0018543Y-0010059D03*
X-0017283Y-0009114D03*
X-0018543Y-0010374D03*
Y-0011634D03*
X-0017283Y-0012894D03*
X-0017598D03*
X-0016024D03*
X-0015709D03*
X-0014764Y-0011634D03*
Y-0011949D03*
Y-0010374D03*
Y-0010059D03*
X-0015394Y-0009114D03*
X-0016024D03*
X-0015709D03*
X-0014055Y-0005453D03*
X-0015709Y-0001791D03*
X-0016024D03*
X-0004291Y0001988D03*
X-0017598Y-0001791D03*
X-0017283D03*
X-0003661Y0001043D03*
Y-0000531D03*
Y0000728D03*
X-0018543D03*
Y-0000531D03*
Y-0000846D03*
X-0003661D03*
X-0018543Y0001043D03*
X-0004921Y-0001791D03*
X-0017283Y0001988D03*
X-0014764Y-0000531D03*
Y-0000846D03*
Y0000728D03*
Y0001043D03*
X-0016024Y0001988D03*
X-0015709D03*
X-0017598Y-0009114D03*
X-0019252Y-0005453D03*
X-0006496Y-0001791D03*
X-0006181D03*
X-0007441Y-0000846D03*
Y-0000531D03*
X0004921Y0001988D03*
X-0007441Y0000728D03*
Y0001043D03*
X0002952Y0005610D03*
X-0015394Y0001988D03*
X-0017598D03*
X-0019252Y0005610D03*
X0006181Y0001988D03*
X0006496D03*
X0007441Y0001043D03*
Y-0000846D03*
Y-0000531D03*
Y0000728D03*
X0006496Y-0001791D03*
X0003661Y-0000531D03*
Y0000728D03*
Y-0000846D03*
X0004921Y-0001791D03*
X0006181D03*
X0004606Y0001988D03*
X0003661Y0001043D03*
X-0014055Y0005610D03*
X0004921Y0009311D03*
X0004606D03*
X0004921Y0020413D03*
X0004606D03*
X0002952Y0016752D03*
X0004921Y0024193D03*
X0004606D03*
X0002952Y0026693D03*
X0008150D03*
X0007441Y0021673D03*
X0006811Y0024193D03*
X0007441Y0023248D03*
Y0022933D03*
X0006181Y0024193D03*
X0006496D03*
X0007441Y0021358D03*
X0006181Y0020413D03*
X0003661Y0023248D03*
Y0022933D03*
Y0021358D03*
Y0021673D03*
X0006496Y0020413D03*
X0008150Y0016752D03*
X0006181Y0013091D03*
X0006496D03*
X0004921D03*
X0006811D03*
X0007441Y0012146D03*
X-0018543Y0021673D03*
Y0022933D03*
X-0014764Y0021673D03*
Y0021358D03*
X-0016024Y0024193D03*
X-0017283D03*
X-0015709D03*
X-0014764Y0022933D03*
Y0023248D03*
X-0018543D03*
Y0021358D03*
X-0015394Y0024193D03*
X-0014055Y0026693D03*
X-0017598Y0024193D03*
X-0019252Y0026693D03*
X-0017283Y0020413D03*
X-0017598D03*
X-0016024D03*
X-0019252Y0016752D03*
X-0017283Y0013091D03*
X-0017598D03*
X-0015709Y0020413D03*
X-0004606Y-0009114D03*
X-0004921D03*
X-0004291D03*
X-0003661Y-0010059D03*
Y-0010374D03*
Y-0011634D03*
Y-0011949D03*
X-0016024Y0013091D03*
X-0015709D03*
X-0015394D03*
X-0004606Y-0012894D03*
X-0002952Y-0015394D03*
X-0004921Y-0012894D03*
X-0006181D03*
X-0006496D03*
X-0008150Y-0015394D03*
X-0007441Y-0011949D03*
X-0014764Y0012146D03*
X-0016024Y0009311D03*
X0006181Y-0009114D03*
X0004606D03*
X0004921D03*
X0006496D03*
X0007441Y-0010059D03*
X0006811Y-0009114D03*
X0007441Y-0010374D03*
Y-0011634D03*
Y-0011949D03*
X0006181Y-0012894D03*
X0004921D03*
X-0006181Y0013091D03*
X-0006496D03*
X-0008150Y0016752D03*
X-0002952Y0005610D03*
X-0004606Y0009311D03*
X0007441Y0011831D03*
X0003661Y-0011949D03*
X0006496Y-0012894D03*
X0008150Y-0015394D03*
X0003661Y-0011634D03*
X0007441Y0010256D03*
Y0010571D03*
X0004606Y0013091D03*
X0003661Y0012146D03*
Y0011831D03*
Y0010571D03*
Y-0010059D03*
Y-0010374D03*
X0002952Y-0015394D03*
X0004606Y-0012894D03*
Y-0001791D03*
X0002952Y-0005453D03*
X0003661Y0010256D03*
X0006181Y0009311D03*
X0006496D03*
X0006811Y0001988D03*
X0008150Y0005610D03*
X-0007441Y-0010059D03*
Y-0010374D03*
Y-0011634D03*
X0018543Y-0011949D03*
X-0017598Y0009311D03*
X-0017283D03*
X0017283Y-0012894D03*
X0015709D03*
X-0004606Y-0001791D03*
X-0002952Y-0005453D03*
X-0018543Y0010256D03*
Y0010571D03*
Y0012146D03*
Y0011831D03*
X0014055Y-0015394D03*
X0015079Y-0017539D03*
X-0015709Y0009311D03*
X0013898Y-0017539D03*
X-0014764Y0010571D03*
Y0010256D03*
X0012736Y-0018701D03*
X0011378Y-0020827D03*
X0011437Y-0019449D03*
X0012736Y-0020079D03*
X0013701Y-0021240D03*
X0016909Y-0022756D03*
X0016437Y-0020276D03*
X0015472Y-0021240D03*
X0017598Y-0012894D03*
X0022480Y-0014646D03*
X0019252Y-0015394D03*
X0017598Y-0001791D03*
X0019252Y-0005453D03*
X0014764Y-0000531D03*
Y0000728D03*
X0015709Y0001988D03*
X0014764Y0001043D03*
X0014055Y0005610D03*
X0016024Y0009311D03*
X0015709D03*
X0017283D03*
X0014764Y0010256D03*
Y0010571D03*
Y0012146D03*
Y0011831D03*
X0017598Y0009311D03*
X0018543Y0010571D03*
Y0010256D03*
Y0011831D03*
Y0012146D03*
X0017913Y0013091D03*
X0017283D03*
X0017598D03*
X0015709D03*
X0016024D03*
X0019252Y0016752D03*
X-0014764Y0011831D03*
X0017283Y0020413D03*
X-0009705Y0017165D03*
X-0014055Y0016752D03*
X0015709Y0020413D03*
X0016024D03*
X0014764Y0021358D03*
Y0022933D03*
Y0021673D03*
X0018543Y0021358D03*
X0017598Y0020413D03*
X0018543Y0022933D03*
Y0023248D03*
X0017283Y0024193D03*
X0017598D03*
X0016024D03*
X0019252Y0026693D03*
X0017913Y0024193D03*
X0014055Y0026693D03*
X0015709Y0024193D03*
X0008150Y-0005453D03*
X0012500Y-0005866D03*
X-0018543Y-0011949D03*
X-0022480Y-0014665D03*
X-0015965Y-0015531D03*
X-0016890Y-0022008D03*
G54D137*
X0016594Y-0029665D03*
G54D141*
X-0017913Y-0027854D03*
X-0018386Y-0025886D03*
X-0007559Y-0032047D03*
X-0009528D03*
G54D142*
X-0006575Y-0025591D03*
X-0010512D03*
G54D143*
X0022047Y0028425D03*
X0021260D03*
X-0021260D03*
X-0022047D03*
G54D144*
X0006508Y-0017059D03*
Y-0018059D03*
Y-0019059D03*
Y-0020059D03*
Y-0021059D03*
Y-0022059D03*
Y-0023059D03*
X-0023126Y0026760D03*
X-0022126Y0025760D03*
X-0023126D03*
X-0022126Y0024760D03*
X-0023126D03*
X-0022126Y0023760D03*
X-0023126D03*
X-0022126Y0022760D03*
X-0023126D03*
X-0022126Y0021760D03*
X-0023126D03*
X-0022126Y0020760D03*
X-0023126D03*
X-0022126Y0019760D03*
X-0023126D03*
X-0022126Y0018760D03*
X-0023126D03*
X-0022126Y0017760D03*
X-0023126D03*
X-0022126Y0016760D03*
X-0023126D03*
X-0022126Y0015760D03*
X-0023126D03*
X-0022126Y0014760D03*
X-0023126D03*
X-0022126Y0013760D03*
X-0023126D03*
X-0022126Y0012760D03*
X-0023126D03*
X-0022126Y0011760D03*
X-0023126D03*
X-0022126Y0010760D03*
X-0023126D03*
X-0022126Y0009760D03*
X-0023126D03*
X-0022126Y0008760D03*
X-0023126D03*
X-0022126Y0007760D03*
X-0023126D03*
X-0022126Y0006760D03*
X-0023126D03*
X-0022126Y0005760D03*
X-0023126D03*
X-0022126Y0004760D03*
X-0023126D03*
X-0022126Y0003760D03*
X-0023126D03*
X-0022126Y0002760D03*
X-0023126D03*
X-0022126Y0001768D03*
X-0023126Y0001760D03*
X-0022126Y0000760D03*
X-0023126D03*
X-0022126Y-0000240D03*
X-0023126D03*
X-0022126Y-0001240D03*
X-0023126D03*
X-0022126Y-0002240D03*
X-0023126D03*
X-0022126Y-0003240D03*
X-0023126D03*
X-0022126Y-0004240D03*
X-0023126D03*
X0023126D03*
X0022126Y-0003240D03*
X0023126D03*
X0022126Y-0002240D03*
X0023126D03*
X0022126Y-0001240D03*
X0023126D03*
X0022126Y-0000240D03*
X0023126D03*
X0022126Y0000760D03*
X0023126D03*
X0022126Y0001760D03*
X0023126D03*
X0022126Y0002760D03*
X0023126D03*
X0022126Y0003760D03*
X0023126D03*
X0022126Y0004760D03*
X0023126D03*
X0022126Y0005760D03*
X0023126D03*
X0022126Y0006760D03*
X0023126D03*
X0022126Y0007760D03*
X0023126D03*
X0022126Y0008760D03*
X0023126D03*
X0022126Y0009760D03*
X0023126D03*
X0022126Y0010760D03*
X0023126D03*
X0022126Y0011760D03*
X0023126D03*
X0022126Y0012760D03*
X0023126D03*
X0022126Y0013760D03*
X0023126D03*
X0022126Y0014760D03*
X0023126D03*
X0022126Y0015760D03*
X0023126D03*
X0022126Y0016760D03*
X0023126D03*
X0022126Y0017760D03*
X0023126D03*
X0022126Y0018760D03*
X0023126D03*
X0022126Y0019760D03*
X0023126D03*
X0022126Y0020752D03*
X0023126Y0020760D03*
X0022126Y0021760D03*
X0023126D03*
X0022126Y0022760D03*
X0023126D03*
X0022126Y0023760D03*
X0023126D03*
X0022126Y0024760D03*
X0023126D03*
X0022126Y0025760D03*
X0023126D03*
X0022126Y0026760D03*
X0023126D03*
X0007933Y-0020705D03*
Y-0021705D03*
X-0008063Y-0034717D03*
X-0000969Y0028031D03*
X0000031D03*
X0001031D03*
X0002041D03*
G54D145*
X-0022126Y0026760D03*
X0022126Y-0004240D03*
X0007933Y-0019705D03*
X-0009063Y-0034717D03*
X-0001969Y0028031D03*
G54D146*
X-0005581Y0029846D03*
X-0006081Y0030846D03*
X-0005081D03*
X-0004081D03*
X-0004581Y0029846D03*
X-0003581D03*
X-0002581D03*
X-0003081Y0030846D03*
X-0006941Y0034945D03*
X-0005941D03*
X-0002720D03*
X-0001720D03*
X0003081Y0029846D03*
X0002581Y0030846D03*
X0003581D03*
X0004581D03*
X0004081Y0029846D03*
X0005081D03*
X0006081D03*
X0005581Y0030846D03*
X0001720Y0034945D03*
X0002720D03*
X0005941D03*
X0006941D03*
G54D147*
X-0001281Y0032146D03*
X-0007380D03*
X0007380D03*
X0001281D03*
G54D148*
X-0002081Y0033346D03*
X-0006581D03*
X0006581D03*
X0002081D03*
G54D149*
X0019047Y-0030858D03*
X-0019047D03*
X0019047Y0030858D03*
X-0019047D03*
G54D150*
X-0020571Y-0025118D03*
G54D151*
X-0021752Y-0026969D03*
G54D152*
X-0019390D03*
G54D153*
X0019016Y-0020374D03*
X0019528D03*
Y-0019941D03*
X0019016D03*
X0014154Y-0019843D03*
X0015020Y-0019803D03*
X0015000Y-0018957D03*
X0014173D03*
X0021575Y-0023622D03*
X0021969D03*
X0022362D03*
X0022756D03*
X0023150D03*
X0021575Y-0023228D03*
X0021969D03*
X0022362D03*
X0022756D03*
X0023150D03*
X-0011339Y-0030571D03*
X-0011732D03*
X-0012126D03*
X-0012520D03*
X-0012913D03*
Y-0030177D03*
X-0012520D03*
X-0012126D03*
X-0011732D03*
X-0011339D03*
X0010610Y-0029114D03*
X0011004D03*
X0011398D03*
X0011791D03*
X0012185D03*
X0010610Y-0029508D03*
X0011004D03*
X0011398D03*
X0011791D03*
X0012185D03*
G54D154*
X-0010374Y-0020551D03*
X-0006791Y-0016476D03*
X-0001142Y-0010689D03*
X-0001161Y0000413D03*
Y0011516D03*
X-0001358Y0022618D03*
G54D155*
X0008799Y0029232D03*
X-0013819Y0029272D03*
M02*
